<svg width="20" height="19" viewBox="0 0 20 19" fill="none" xmlns="http://www.w3.org/2000/svg">
<path d="M5.625 10.75C5.625 8.36719 7.57812 6.375 10 6.375C12.3828 6.375 14.375 8.36719 14.375 10.75C14.375 13.1719 12.3828 15.125 10 15.125C7.57812 15.125 5.625 13.1719 5.625 10.75ZM10 8.25C8.59375 8.25 7.5 9.38281 7.5 10.75C7.5 12.1562 8.59375 13.25 10 13.25C11.3672 13.25 12.5 12.1562 12.5 10.75C12.5 9.38281 11.3672 8.25 10 8.25ZM14.1406 2.03906L14.5703 3.25H17.5C18.8672 3.25 20 4.38281 20 5.75V15.75C20 17.1562 18.8672 18.25 17.5 18.25H2.5C1.09375 18.25 0 17.1562 0 15.75V5.75C0 4.38281 1.09375 3.25 2.5 3.25H5.39062L5.82031 2.03906C6.05469 1.29688 6.75781 0.75 7.57812 0.75H12.3828C13.2031 0.75 13.9062 1.29688 14.1406 2.03906ZM2.5 5.125C2.14844 5.125 1.875 5.4375 1.875 5.75V15.75C1.875 16.1016 2.14844 16.375 2.5 16.375H17.5C17.8125 16.375 18.125 16.1016 18.125 15.75V5.75C18.125 5.4375 17.8125 5.125 17.5 5.125H13.2031L12.3828 2.625H7.57812L6.75781 5.125H2.5Z" fill="#111111"/>
</svg>
