<svg width="76" height="60" viewBox="0 0 76 60" fill="none" xmlns="http://www.w3.org/2000/svg">
<path fill-rule="evenodd" clip-rule="evenodd" d="M12.3113 54.9498C11.8283 56.8011 10.6829 58.6151 8.68303 58.994C7.87194 59.1493 7.05466 59.0251 6.29929 58.6896C4.69568 57.9752 3.08587 56.242 2.50387 54.577C2.1881 53.6638 2.15095 52.6885 2.49148 51.7753C3.27162 49.6817 5.50677 48.9176 7.56855 48.9362L9.07929 47.6254L6.5841 45.6499L5.67394 45.799V30.2184L5.42009 29.9575L0.986938 25.3417H14.8127C14.5588 23.7017 14.404 22.0368 14.4226 20.3719L14.4288 19.6947C11.9088 17.8434 9.39506 15.986 6.88748 14.1098C6.13211 13.5445 5.37055 12.9792 4.62138 12.4076C4.39229 12.2337 3.74837 11.7802 3.59358 11.5441C3.39545 11.2397 3.20351 10.9788 3.02396 10.6558C2.702 10.0718 2.47291 9.44435 2.34908 8.79206C1.94044 6.64258 2.7763 4.65463 4.11367 3.00215C5.47581 1.31239 7.27755 0.125832 9.48174 0.00779772C10.3176 -0.0356887 11.4197 0.100983 12.1936 0.461299L12.2122 0.467511L12.2308 0.479936C12.4103 0.573121 12.6147 0.747067 12.7695 0.871314C13.079 1.11981 13.3824 1.3683 13.6858 1.62301C14.7322 2.49274 15.7662 3.36868 16.8002 4.25083C20.0879 7.04639 23.357 9.86679 26.6323 12.6872C27.8149 12.3331 29.0161 12.0349 30.2234 11.7926C32.5391 10.2706 35.2324 9.4692 38 9.4692C40.7738 9.4692 43.461 10.2706 45.7766 11.7926C46.984 12.0349 48.1851 12.3331 49.3677 12.6872C52.6368 9.86679 55.9122 7.0526 59.1999 4.25083C60.2339 3.36868 61.2678 2.49274 62.3142 1.62301C62.6176 1.3683 62.921 1.11981 63.2306 0.871314C63.3854 0.747067 63.5959 0.573121 63.7692 0.479936L63.7878 0.467511L63.8064 0.461299C64.5803 0.100983 65.6824 -0.0356887 66.5183 0.00779772C68.7225 0.11962 70.5242 1.31239 71.8864 3.00215C73.2175 4.65463 74.0534 6.64258 73.6509 8.79206C73.5271 9.44435 73.2918 10.0718 72.9761 10.6558C72.7965 10.9788 72.6108 11.2397 72.4064 11.5441C72.2517 11.7802 71.6077 12.2337 71.3786 12.4076C70.6295 12.9792 69.8741 13.5445 69.1125 14.1098C66.605 15.9797 64.0912 17.8372 61.5712 19.6947L61.5774 20.3719C61.596 22.0306 61.4412 23.6955 61.1874 25.3417H75.0131L70.5799 29.9575L70.3261 30.2184V45.9729L69.5274 45.8425L67.348 47.9982L68.4315 48.9425C70.4933 48.9238 72.7284 49.6879 73.5085 51.7815C73.8491 52.6947 73.8119 53.67 73.4962 54.5833C72.9141 56.242 71.3044 57.9814 69.7007 58.6958C68.9454 59.0313 68.1281 59.1556 67.317 59.0002C65.3171 58.6213 64.1717 56.8011 63.6887 54.956C63.1501 54.633 62.6238 54.2851 62.0975 53.9372C61.1688 53.3284 60.2524 52.7009 59.3361 52.0735C57.1752 50.5949 55.033 49.0853 52.8969 47.5757V48.9362L52.0424 49.545L51.4604 49.9613L50.7856 50.4458L49.9621 50.3154C49.4606 50.2346 48.9529 50.1601 48.4513 50.0917C45.7209 52.5829 42.6437 54.6516 39.3312 56.2854L38 56.944L36.6688 56.2854C33.3811 54.664 30.3225 52.6139 27.6044 50.1476C27.3877 50.1787 27.171 50.2098 26.9605 50.247L24.6077 50.6136V47.0912C24.5024 46.9669 24.3972 46.8489 24.2919 46.7246C21.8215 48.4765 19.3511 50.216 16.8559 51.9306C15.9024 52.5891 14.9365 53.2414 13.9706 53.8813C13.4258 54.2478 12.8747 54.6081 12.3113 54.9498Z" fill="white"/>
<path fill-rule="evenodd" clip-rule="evenodd" d="M15.2152 19.2101L15.2028 20.378C15.178 22.6642 15.4938 24.9876 15.9458 27.2178C16.4039 29.504 17.0231 31.7715 17.8218 33.9645C21.32 43.5812 27.8335 51.0484 37.0094 55.5772L38.0001 56.0618L38.9907 55.5772C48.1666 51.0484 54.6801 43.5812 58.1783 33.9645C58.977 31.7715 59.5962 29.504 60.0543 27.2178C60.5063 24.9814 60.8159 22.658 60.7973 20.378L60.7849 19.2101L59.8253 18.5516C46.7982 9.56857 29.2019 9.56857 16.1748 18.5516L15.2152 19.2101Z" fill="#081329"/>
<path fill-rule="evenodd" clip-rule="evenodd" d="M17.8403 20.6142C17.8403 22.6518 18.1313 24.7081 18.5338 26.6961C18.9672 28.858 19.5492 30.9888 20.3046 33.0575C23.5427 41.9722 29.53 48.8804 38 53.1172C46.47 48.8866 52.4573 41.9722 55.7016 33.0637C56.457 30.995 57.039 28.858 57.4724 26.7023C57.8749 24.7143 58.1659 22.6518 58.1659 20.6204C46.1047 12.4077 29.8953 12.4077 17.8403 20.6142Z" fill="#C10F18"/>
<path fill-rule="evenodd" clip-rule="evenodd" d="M64.1345 1.17573C64.1345 1.17573 67.9795 -0.601 71.2796 3.49294C74.5797 7.58687 72.0968 10.5936 71.7563 11.1031C71.4158 11.6125 18.8371 50.2098 11.6302 54.4404C10.9305 57.6397 8.73873 58.9071 6.62122 57.969C5.22193 57.3478 3.75453 55.776 3.24683 54.3161C2.39239 51.8685 4.20033 49.5513 7.85334 49.7314C7.85334 49.7314 62.8467 1.85909 64.1345 1.17573Z" fill="#081329"/>
<path fill-rule="evenodd" clip-rule="evenodd" d="M64.8094 3.16992C64.8094 3.16992 64.6113 9.12756 70.4128 10.3141C70.4128 10.3141 68.6296 11.5069 66.2273 9.51894C66.2273 9.51894 66.8216 11.0099 67.6451 11.4696C67.6451 11.4696 64.5617 10.4135 63.4596 7.54963C63.4596 7.54963 63.6392 8.84179 64.054 9.48788C64.054 9.48788 14.1811 50.1166 9.56222 52.4649C9.56222 52.4649 8.79446 52.732 8.36725 52.5146C8.36725 52.5146 9.8656 53.6577 9.60556 54.5833C9.33932 55.5089 8.21865 55.8879 7.95861 55.8382C7.69237 55.7885 5.69869 53.8999 6.02684 52.117C6.02684 52.117 6.40453 53.1607 7.49424 53.9062C7.49424 53.9062 6.0578 51.1292 7.27754 50.5826C7.27754 50.5826 7.228 51.2783 7.87192 51.7753C7.87192 51.7753 62.2213 4.30057 64.8094 3.16992Z" fill="#BEC1C6"/>
<path fill-rule="evenodd" clip-rule="evenodd" d="M65.1438 9.94759L29.0532 38.6424L66.3201 10.8173L65.6577 9.46924L65.1438 9.94759Z" fill="#BEC1C6"/>
<path fill-rule="evenodd" clip-rule="evenodd" d="M8.36724 52.5207C8.36724 52.5207 9.72319 55.9561 6.92461 54.8503C6.37356 54.1297 5.84728 53.1109 6.02683 52.1231C6.02683 52.1231 6.40452 53.1668 7.49423 53.9123C7.49423 53.9123 6.05779 51.1354 7.27753 50.5887C7.27753 50.5887 7.22799 51.2845 7.87191 51.7814C7.87191 51.7814 62.2213 4.30669 64.8094 3.18225C64.8094 3.18225 64.7846 3.93394 65.0137 4.95277C65.0137 4.94656 9.2031 50.9179 8.36724 52.5207Z" fill="white"/>
<path fill-rule="evenodd" clip-rule="evenodd" d="M11.8655 1.17573C11.8655 1.17573 8.02051 -0.601 4.72661 3.49294C1.42652 7.58687 3.90933 10.5936 4.24986 11.1031C4.5904 11.6125 57.169 50.2098 64.376 54.4404C65.0756 57.6397 67.2674 58.9071 69.3849 57.969C70.7842 57.3478 72.2516 55.776 72.7593 54.3161C73.6138 51.8685 71.8058 49.5513 68.1528 49.7314C68.1528 49.7314 13.1595 1.85909 11.8655 1.17573Z" fill="#081329"/>
<path fill-rule="evenodd" clip-rule="evenodd" d="M11.1906 3.16992C11.1906 3.16992 11.3887 9.12756 5.58722 10.3141C5.58722 10.3141 7.37038 11.5069 9.7727 9.51894C9.7727 9.51894 9.17832 11.0099 8.35484 11.4696C8.35484 11.4696 11.4382 10.4135 12.5403 7.54963C12.5403 7.54963 12.3608 8.84179 11.9459 9.48788C11.9459 9.48788 61.8189 50.1166 66.4377 52.4649C66.4377 52.4649 67.2055 52.732 67.6327 52.5146C67.6327 52.5146 66.1344 53.6577 66.3944 54.5833C66.6606 55.5089 67.7813 55.8879 68.0414 55.8382C68.3076 55.7885 70.3013 53.8999 69.9731 52.117C69.9731 52.117 69.5954 53.1607 68.5057 53.9062C68.5057 53.9062 69.9422 51.1292 68.7224 50.5826C68.7224 50.5826 68.772 51.2783 68.128 51.7753C68.128 51.7753 13.7786 4.30057 11.1906 3.16992Z" fill="#BEC1C6"/>
<path fill-rule="evenodd" clip-rule="evenodd" d="M10.8563 9.94759L46.9468 38.6424L9.6861 10.8173L10.3486 9.46924L10.8563 9.94759Z" fill="#BEC1C6"/>
<path fill-rule="evenodd" clip-rule="evenodd" d="M67.6327 52.5207C67.6327 52.5207 66.2768 55.9561 69.0754 54.8503C69.6264 54.1297 70.1527 53.1109 69.9731 52.1231C69.9731 52.1231 69.5955 53.1668 68.5057 53.9123C68.5057 53.9123 69.9422 51.1354 68.7224 50.5887C68.7224 50.5887 68.772 51.2845 68.1281 51.7814C68.1281 51.7814 13.7787 4.30669 11.1906 3.18225C11.1906 3.18225 11.2154 3.93394 10.9863 4.95277C10.9925 4.94656 66.7969 50.9179 67.6327 52.5207Z" fill="white"/>
<path fill-rule="evenodd" clip-rule="evenodd" d="M38 11.0409C44.9841 11.0409 50.6494 16.7252 50.6494 23.7327C50.6494 30.7402 44.9841 36.4245 38 36.4245C31.016 36.4245 25.3507 30.7402 25.3507 23.7327C25.3507 16.7252 31.016 11.0409 38 11.0409Z" fill="#BEC1C6"/>
<path fill-rule="evenodd" clip-rule="evenodd" d="M37.9999 11.0409C41.9068 11.0409 45.3988 12.8176 47.7145 15.607C47.7145 15.6753 47.7145 15.7499 47.7145 15.8182C47.7145 21.869 43.3618 26.7706 37.9937 26.7706C32.6257 26.7706 28.273 21.869 28.273 15.8182C28.273 15.7499 28.273 15.6753 28.273 15.607C30.6072 12.8176 34.0931 11.0409 37.9999 11.0409Z" fill="white"/>
<path fill-rule="evenodd" clip-rule="evenodd" d="M46.3897 15.315C44.2412 13.1593 41.2754 11.8299 38.0001 11.8299C34.7248 11.8299 31.759 13.1593 29.6106 15.315C27.4621 17.4707 26.1371 20.4464 26.1371 23.7328C26.1371 27.0191 27.4621 29.9948 29.6106 32.1505C31.759 34.3062 34.7248 35.6356 38.0001 35.6356C41.2754 35.6356 44.2412 34.3062 46.3897 32.1505C48.5381 30.001 49.8631 27.0253 49.8631 23.7328C49.8631 20.4464 48.5381 17.4707 46.3897 15.315ZM38.0001 10.2582C41.7088 10.2582 45.0709 11.7678 47.4979 14.2092C49.9312 16.6507 51.4296 20.0178 51.4296 23.739C51.4296 27.4602 49.925 30.8335 47.4979 33.2687C45.0709 35.7039 41.7088 37.2135 38.0001 37.2135C34.2914 37.2135 30.9294 35.7039 28.5023 33.2687C26.069 30.8273 24.5645 27.4602 24.5645 23.739C24.5645 20.0178 26.069 16.6445 28.5023 14.2092C30.9356 11.7678 34.2914 10.2582 38.0001 10.2582Z" fill="#081329"/>
<path fill-rule="evenodd" clip-rule="evenodd" d="M45.7271 13.6004C45.8633 13.4327 46.111 13.414 46.2782 13.5507C46.4453 13.6874 46.4639 13.9359 46.3277 14.1036C46.3029 14.1284 38.2415 23.6147 46.5134 33.1631C46.6558 33.3246 46.6373 33.5731 46.4763 33.716C46.3153 33.8589 46.0676 33.8402 45.9252 33.6787C37.2137 23.6209 45.7085 13.6315 45.7271 13.6004Z" fill="#081329"/>
<path fill-rule="evenodd" clip-rule="evenodd" d="M43.8263 13.9979C43.721 13.8115 43.7891 13.5693 43.9811 13.4636C44.1668 13.358 44.4083 13.4264 44.5135 13.619L45.2379 14.9235L46.371 14.9298C46.5877 14.9298 46.7611 15.1099 46.7611 15.3211C46.7611 15.5386 46.5877 15.7125 46.371 15.7125L45.0212 15.7001C44.8788 15.7063 44.7364 15.6318 44.6683 15.5013L43.8263 13.9979Z" fill="#081329"/>
<path fill-rule="evenodd" clip-rule="evenodd" d="M43.0957 15.2777C42.9904 15.0851 43.0585 14.849 43.2505 14.7434C43.4362 14.6378 43.6777 14.7062 43.7829 14.8987L44.5074 16.2033L45.6404 16.2095C45.8571 16.2095 46.0305 16.3897 46.0305 16.6009C46.0305 16.8184 45.8509 16.9923 45.6404 16.9923L44.2907 16.9799C44.1482 16.9861 44.0058 16.9115 43.9377 16.7811L43.0957 15.2777Z" fill="#081329"/>
<path fill-rule="evenodd" clip-rule="evenodd" d="M42.4765 16.5948C42.3712 16.4085 42.4393 16.1662 42.6313 16.0606C42.8232 15.955 43.0585 16.0233 43.1637 16.2159L43.8882 17.5205L45.0212 17.5267C45.2379 17.5267 45.4113 17.7068 45.4113 17.9181C45.4113 18.1355 45.2317 18.3094 45.0212 18.3094L43.6714 18.297C43.529 18.3032 43.3866 18.2287 43.3185 18.0982L42.4765 16.5948Z" fill="#081329"/>
<path fill-rule="evenodd" clip-rule="evenodd" d="M41.9936 17.8869C41.8884 17.7006 41.9565 17.4583 42.1484 17.3527C42.3342 17.2471 42.5756 17.3154 42.6809 17.508L43.4053 18.8126L44.5384 18.8188C44.7551 18.8188 44.9284 18.999 44.9284 19.2102C44.9284 19.4276 44.7489 19.6016 44.5384 19.6016L43.1886 19.5891C43.0462 19.5953 42.9038 19.5208 42.8357 19.3903L41.9936 17.8869Z" fill="#081329"/>
<path fill-rule="evenodd" clip-rule="evenodd" d="M41.5973 19.2971C41.4921 19.1107 41.5602 18.8684 41.7459 18.7628C41.9379 18.6572 42.1732 18.7256 42.2784 18.9181L43.0028 20.2227L44.1359 20.229C44.3526 20.229 44.5259 20.4091 44.5259 20.6203C44.5259 20.8378 44.3464 21.0117 44.1359 21.0117L42.7861 20.9993C42.6437 21.0055 42.5013 20.9309 42.4332 20.8005L41.5973 19.2971Z" fill="#081329"/>
<path fill-rule="evenodd" clip-rule="evenodd" d="M41.1886 21.1048C41.0524 20.9371 41.071 20.6886 41.2382 20.5519C41.4053 20.4152 41.653 20.4339 41.7892 20.6016L42.687 21.6764L43.7891 21.403C43.9996 21.3533 44.2101 21.4776 44.2658 21.6888C44.3154 21.9 44.1915 22.1112 43.981 22.1671L42.656 22.4964C42.5136 22.5399 42.3527 22.4964 42.2474 22.3721L41.1886 21.1048Z" fill="#081329"/>
<path fill-rule="evenodd" clip-rule="evenodd" d="M41.0029 22.8134C40.8605 22.6456 40.8791 22.4033 41.0463 22.2605C41.2134 22.1176 41.4549 22.1362 41.5973 22.3039L42.5013 23.36L43.5972 23.0618C43.8077 23.0059 44.0182 23.1302 44.0801 23.3414C44.1359 23.5526 44.012 23.7638 43.8015 23.8198L42.4641 24.1801C42.3217 24.2173 42.1669 24.1739 42.0679 24.0558L41.0029 22.8134Z" fill="#081329"/>
<path fill-rule="evenodd" clip-rule="evenodd" d="M41.0649 24.9067C40.8977 24.7701 40.873 24.5216 41.0092 24.3538C41.1454 24.1861 41.393 24.1612 41.5602 24.2979L42.5818 25.1242L43.622 24.5899C43.8139 24.4905 44.0492 24.565 44.1483 24.7576C44.2473 24.9502 44.1731 25.1863 43.9811 25.2857L42.7304 25.9256C42.5942 26.0001 42.4208 25.9939 42.2908 25.8883L41.0649 24.9067Z" fill="#081329"/>
<path fill-rule="evenodd" clip-rule="evenodd" d="M41.331 26.9632C41.1391 26.8638 41.071 26.6215 41.17 26.4351C41.2691 26.2425 41.5106 26.1742 41.6963 26.2736L42.8046 26.8638L43.7643 26.1121C43.9315 25.9816 44.1791 26.0065 44.3153 26.1804C44.4454 26.3481 44.4206 26.5966 44.2472 26.7333L43.0832 27.6465C42.9656 27.7397 42.7984 27.7583 42.656 27.6838L41.331 26.9632Z" fill="#081329"/>
<path d="M41.9131 29.0008C41.7026 28.9511 41.5726 28.7399 41.6221 28.5287C41.6716 28.3174 41.8821 28.187 42.0927 28.2367L43.2691 28.5224L44.1049 27.5098C44.2411 27.3421 44.4888 27.3172 44.656 27.4601C44.8231 27.5968 44.8479 27.8453 44.7055 28.013L43.7148 29.212C43.622 29.3238 43.4734 29.3797 43.3186 29.3425L41.9131 29.0008Z" fill="#01152A"/>
<path d="M42.5694 30.4421C42.3527 30.4173 42.1979 30.2247 42.2226 30.0073C42.2474 29.7898 42.4393 29.6345 42.656 29.6594L43.8572 29.796L44.6126 28.6716C44.7364 28.4915 44.9779 28.4418 45.1574 28.566C45.337 28.6902 45.3865 28.9325 45.2627 29.1127L44.3711 30.4359C44.2906 30.554 44.1544 30.6223 44.0058 30.6099L42.5694 30.4421Z" fill="#01152A"/>
<path d="M43.4795 32.0387C43.2628 32.0449 43.0833 31.871 43.0771 31.6535C43.0709 31.4361 43.2442 31.2559 43.4609 31.2497L44.6745 31.2187L45.3432 29.9824C45.4484 29.7898 45.6837 29.7215 45.8756 29.8209C46.0676 29.9265 46.1357 30.1626 46.0366 30.3552L45.2565 31.7902C45.1946 31.9082 45.0646 31.9952 44.9221 31.9952L43.4795 32.0387Z" fill="#01152A"/>
<path d="M44.3093 33.1755C44.0926 33.2066 43.9006 33.0513 43.8697 32.8401C43.8387 32.6226 43.9935 32.43 44.204 32.399L45.4176 32.2375L46.0058 30.9204C46.0924 30.7216 46.3277 30.6347 46.5258 30.7216C46.724 30.8086 46.8107 31.0447 46.724 31.2435L46.0429 32.7593C45.9872 32.8773 45.8757 32.9705 45.7395 32.9892L44.3093 33.1755Z" fill="#01152A"/>
<path fill-rule="evenodd" clip-rule="evenodd" d="M30.3039 14.1099C30.1615 13.9483 30.1739 13.6999 30.3349 13.557C30.4958 13.4141 30.7435 13.4265 30.8859 13.588C30.9107 13.6191 40.0556 23.621 30.6754 33.685C30.5268 33.8465 30.2791 33.8527 30.1243 33.7036C29.9634 33.5545 29.9572 33.306 30.1058 33.1507C38.9906 23.6148 30.3287 14.1409 30.3039 14.1099Z" fill="#081329"/>
<path fill-rule="evenodd" clip-rule="evenodd" d="M32.2667 13.6004C32.3781 13.4141 32.6196 13.3519 32.8053 13.4638C32.9911 13.5756 33.053 13.8179 32.9415 14.0042L32.0438 15.5076C31.9695 15.6319 31.8333 15.7002 31.697 15.7002L30.2482 15.7126C30.0315 15.7126 29.8582 15.5387 29.8582 15.3213C29.8582 15.1038 30.0315 14.9299 30.2482 14.9299L31.4927 14.9237L32.2667 13.6004Z" fill="#081329"/>
<path fill-rule="evenodd" clip-rule="evenodd" d="M33.0468 14.8802C33.1583 14.6939 33.3997 14.6317 33.5855 14.7436C33.7712 14.8554 33.8331 15.0977 33.7217 15.284L32.8239 16.7874C32.7496 16.9117 32.6134 16.98 32.4772 16.98L31.0284 16.9924C30.8117 16.9924 30.6383 16.8185 30.6383 16.601C30.6383 16.3836 30.8117 16.2097 31.0284 16.2097L32.2729 16.2035L33.0468 14.8802Z" fill="#081329"/>
<path fill-rule="evenodd" clip-rule="evenodd" d="M33.7155 16.2035C33.8269 16.0171 34.0684 15.955 34.2541 16.0668C34.4399 16.1786 34.5018 16.4209 34.3903 16.6073L33.4926 18.1107C33.4183 18.2349 33.2821 18.3032 33.1458 18.3032L31.697 18.3157C31.4803 18.3157 31.3069 18.1417 31.3069 17.9243C31.3069 17.7069 31.4803 17.5329 31.697 17.5329L32.9415 17.5267L33.7155 16.2035Z" fill="#081329"/>
<path fill-rule="evenodd" clip-rule="evenodd" d="M34.2355 17.4955C34.3469 17.3091 34.5884 17.247 34.7741 17.3588C34.9599 17.4706 35.0218 17.7129 34.9104 17.8993L34.0126 19.4027C33.9383 19.5269 33.8021 19.5952 33.6659 19.5952L32.217 19.6077C32.0003 19.6077 31.827 19.4337 31.827 19.2163C31.827 18.9988 32.0003 18.8249 32.217 18.8249L33.4615 18.8187L34.2355 17.4955Z" fill="#081329"/>
<path fill-rule="evenodd" clip-rule="evenodd" d="M34.6566 18.9057C34.768 18.7194 35.0095 18.6572 35.1952 18.7691C35.381 18.8809 35.4429 19.1232 35.3314 19.3095L34.4337 20.8129C34.3594 20.9372 34.2231 21.0055 34.0869 21.0055L32.6381 21.0179C32.4214 21.0179 32.248 20.844 32.248 20.6266C32.248 20.4091 32.4214 20.2352 32.6381 20.2352L33.8826 20.229L34.6566 18.9057Z" fill="#081329"/>
<path fill-rule="evenodd" clip-rule="evenodd" d="M35.189 20.5894C35.3314 20.4279 35.5791 20.4154 35.7401 20.5583C35.901 20.7012 35.9134 20.9497 35.771 21.1112L34.638 22.3723C34.5327 22.4841 34.3841 22.5276 34.2417 22.4903L32.8177 22.1611C32.6071 22.1114 32.4771 21.9002 32.5205 21.689C32.57 21.4777 32.7805 21.3473 32.991 21.3908L34.2046 21.6765L35.189 20.5894Z" fill="#081329"/>
<path fill-rule="evenodd" clip-rule="evenodd" d="M35.3934 22.2914C35.542 22.1299 35.7897 22.1237 35.9445 22.2728C36.1054 22.4219 36.1116 22.6703 35.963 22.8257L34.8176 24.0681C34.7185 24.1737 34.5699 24.2172 34.4399 24.1799L33.0035 23.8196C32.793 23.7699 32.6629 23.5525 32.7187 23.3413C32.7682 23.1301 32.9849 22.9996 33.1954 23.0555L34.409 23.3599L35.3934 22.2914Z" fill="#081329"/>
<path fill-rule="evenodd" clip-rule="evenodd" d="M35.4367 24.2857C35.6101 24.1552 35.8515 24.1925 35.9815 24.3664C36.1116 24.5404 36.0744 24.7827 35.9011 24.9131L34.5946 25.9009C34.477 25.9941 34.3222 26.0003 34.1922 25.9444L32.83 25.2983C32.6319 25.2051 32.5514 24.969 32.6443 24.7765C32.7372 24.5777 32.9725 24.4969 33.1644 24.5901L34.316 25.1368L35.4367 24.2857Z" fill="#081329"/>
<path fill-rule="evenodd" clip-rule="evenodd" d="M35.2819 26.2674C35.4739 26.1742 35.7092 26.2488 35.8082 26.4476C35.9011 26.6401 35.8268 26.8762 35.6287 26.9756L34.1984 27.69C34.0622 27.7584 33.9074 27.7397 33.796 27.6528L32.5453 26.7395C32.3719 26.6153 32.3286 26.3668 32.4586 26.1929C32.5824 26.0189 32.8301 25.9754 33.0035 26.1059L34.0622 26.8762L35.2819 26.2674Z" fill="#081329"/>
<path d="M34.8362 28.2367C35.0467 28.187 35.2572 28.3237 35.3068 28.5349C35.3563 28.7461 35.2201 28.9574 35.0096 29.0071L33.4864 29.3487C33.3379 29.3798 33.1893 29.3239 33.0964 29.2183L32.0438 28.0255C31.9014 27.864 31.9138 27.6155 32.0748 27.4726C32.2358 27.3297 32.4834 27.3422 32.6258 27.5037L33.536 28.5287L34.8362 28.2367Z" fill="#01152A"/>
<path d="M34.2294 29.6656C34.4461 29.6407 34.638 29.8022 34.6566 30.0135C34.6752 30.2309 34.5204 30.4235 34.3099 30.4421L32.762 30.6036C32.6196 30.6161 32.4834 30.5539 32.4029 30.4421L31.4494 29.1251C31.3256 28.9512 31.3627 28.7027 31.5361 28.5784C31.7094 28.4542 31.9571 28.4914 32.0809 28.6654L32.9044 29.8022L34.2294 29.6656Z" fill="#01152A"/>
<path d="M33.3564 31.2497C33.5731 31.2559 33.7403 31.436 33.7403 31.6535C33.7341 31.8709 33.5546 32.0386 33.3379 32.0386L31.79 32.0014C31.6476 31.9951 31.5299 31.9206 31.4618 31.8026L30.6321 30.3675C30.5207 30.1811 30.5888 29.9389 30.7746 29.8333C30.9603 29.7214 31.2018 29.7898 31.307 29.9761L32.0314 31.2248L33.3564 31.2497Z" fill="#01152A"/>
<path d="M32.5453 32.3928C32.762 32.4177 32.9106 32.6165 32.8859 32.8339C32.8611 33.0514 32.663 33.2005 32.4463 33.1756L30.9046 32.983C30.756 32.9644 30.6383 32.8712 30.5888 32.7407L29.8706 31.2498C29.7777 31.0572 29.8582 30.8211 30.0501 30.7279C30.2421 30.6348 30.4773 30.7155 30.5702 30.9081L31.2079 32.2251L32.5453 32.3928Z" fill="#01152A"/>
<path fill-rule="evenodd" clip-rule="evenodd" d="M56.7604 26.1245H60.3577C61.045 26.1245 61.7384 26.1245 62.4257 26.1245C62.9024 26.1245 63.3792 26.1245 63.8621 26.1245H65.7939C66.7412 26.1245 67.6885 26.1245 68.6358 26.1245H73.1804L70.0289 29.4108C69.9794 29.4668 69.9236 29.5165 69.8741 29.5724L69.5583 29.9016V30.3613C69.5583 31.0198 69.5583 31.6783 69.5583 32.3369V36.5364C69.5583 37.5739 69.5583 38.6113 69.5583 39.6488C69.5583 40.2638 69.5583 40.8788 69.5583 41.4939V45.0473L69.2735 44.9976L67.0693 47.1782L66.8341 47.116C62.469 45.9978 58.0359 45.1467 53.5656 44.5752C38.7802 42.6991 24.1 43.985 9.53129 46.793L9.33935 46.8303L6.80081 44.8237L6.45409 44.8796V42.6059C6.45409 40.357 6.45409 38.1081 6.45409 35.8593C6.45409 34.0266 6.45409 32.194 6.45409 30.3613V29.9016L6.13832 29.5724C6.08878 29.5165 6.03306 29.4668 5.98353 29.4108L2.83203 26.1245H7.37663C9.4446 26.1245 11.5126 26.1245 13.5806 26.1245H14.9427C17.0107 26.1245 19.0787 26.1245 21.1466 26.1245H22.5088C24.7935 26.1245 27.0719 26.1245 29.3566 26.1245H30.081C32.3967 26.1245 34.7123 26.1245 37.0279 26.1245H37.6471C39.7151 26.1245 41.7892 26.1245 43.8572 26.1245H45.2194C47.2873 26.1245 49.3553 26.1245 51.4233 26.1245H52.7854C53.9494 26.1245 55.1196 26.1245 56.2837 26.1245H56.7604Z" fill="#081329"/>
<path d="M60.3577 28.0627C61.5217 28.0627 62.6919 28.0627 63.8559 28.0627C63.8559 30.0134 63.8559 31.9641 63.8559 33.9148C63.8559 35.8655 63.8559 37.8099 63.8559 39.7606C64.2769 39.8165 64.6979 39.8786 65.1252 39.9345C65.1252 39.5307 65.1252 39.1269 65.1252 38.7231C66.0291 37.9217 66.8526 37.1887 67.6142 36.5364C67.6142 37.5738 67.6142 38.6113 67.6142 39.6488C67.6142 40.6862 67.6142 41.7237 67.6142 42.7612C65.5276 42.4195 63.4534 42.084 61.3731 41.7858C61.3731 39.6612 61.3731 37.5366 61.3731 35.4182C61.3731 33.2935 61.3731 31.1689 61.3731 29.0443C61.0325 28.7213 60.692 28.392 60.3577 28.0627ZM52.7854 28.0627C53.9494 28.0627 55.1196 28.0627 56.2836 28.0627C56.2836 29.8767 56.2836 31.6908 56.2836 33.4985C56.2836 35.3126 56.2836 37.1203 56.2836 38.9344C56.7046 38.9778 57.1257 39.0151 57.5529 39.0586C57.5529 38.6859 57.5529 38.3131 57.5529 37.9342C58.4569 37.17 59.2865 36.4743 60.0419 35.8592C60.0419 36.8159 60.0419 37.7726 60.0419 38.7293C60.0419 39.686 60.0419 40.6427 60.0419 41.5932C57.9553 41.3447 55.8812 41.1025 53.8008 40.9037C53.8008 38.9157 53.8008 36.9278 53.8008 34.946C53.8008 32.9581 53.8008 30.9701 53.8008 28.9822C53.4603 28.6778 53.1197 28.3671 52.7854 28.0627ZM48.7176 30.1749C48.7176 30.9515 48.7176 31.728 48.7176 32.5046C48.7176 32.5232 49.1386 32.8959 49.9868 33.6228C49.9868 33.0513 49.9868 32.4797 49.9868 31.9082C49.9868 31.3366 49.9868 30.7651 49.9868 30.1936C49.5596 30.1812 49.1386 30.1749 48.7176 30.1749ZM45.2193 28.0627C47.2873 28.0627 49.3491 28.0627 51.4233 28.0627C51.4542 28.0627 51.8009 28.3671 52.4758 28.976C52.4758 30.9453 52.4758 32.9146 52.4758 34.8839C52.4758 36.8532 52.4758 38.8163 52.4758 40.7856C51.6462 40.7235 50.8103 40.6614 49.9868 40.5993C49.9868 39.8538 49.9868 39.1145 49.9868 38.369C49.9868 37.6235 49.9868 36.8781 49.9868 36.1326C49.9868 36.1077 49.5658 35.7288 48.7176 34.9957C48.7176 35.9151 48.7176 36.8346 48.7176 37.7478C48.7176 38.6672 48.7176 39.5866 48.7176 40.4999C47.8879 40.4564 47.0582 40.4129 46.2347 40.3694C46.2347 38.4684 46.2347 36.5612 46.2347 34.6603C46.2347 32.7593 46.2347 30.8521 46.2347 28.9511C45.8942 28.6529 45.5537 28.3609 45.2193 28.0627ZM41.1453 34.8156C41.1453 35.3685 41.1453 35.9214 41.1453 36.4743C41.1453 37.0272 41.1453 37.5801 41.1453 38.133C41.5663 38.1392 41.9873 38.1516 42.4146 38.164C42.4146 37.4061 42.4146 36.6482 42.4146 35.8903C42.4146 35.8655 41.9935 35.5051 41.1453 34.8156ZM41.1453 30.119C41.1453 30.8769 41.1453 31.6286 41.1453 32.3865C41.1453 32.4052 41.2629 32.4984 41.4858 32.6723C41.5106 32.6723 41.8202 32.4176 42.4146 31.9082C42.4146 31.318 42.4146 30.7216 42.4146 30.1252C41.9873 30.1252 41.5663 30.119 41.1453 30.119ZM37.6471 28.0627C39.715 28.0627 41.783 28.0627 43.8572 28.0627C43.882 28.0627 44.2287 28.3547 44.9036 28.9387C44.9036 29.4978 44.9036 30.0569 44.9036 30.616C44.9036 31.1751 44.9036 31.7342 44.9036 32.2934C44.2534 32.8338 43.6033 33.3743 42.9532 33.9148C43.6033 34.4739 44.2534 35.033 44.9036 35.5921C44.9036 36.232 44.9036 36.8719 44.9036 37.5117C44.9036 38.1516 44.9036 38.7915 44.9036 39.4313C44.9036 39.45 44.5568 39.7357 43.8572 40.27C42.1236 40.2141 40.3961 40.183 38.6625 40.1644C38.6625 38.2945 38.6625 36.4246 38.6625 34.5546C38.6625 32.6847 38.6625 30.8086 38.6625 28.9387C38.3219 28.6405 37.9814 28.3547 37.6471 28.0627ZM30.081 28.0627C32.4957 28.0627 34.9166 28.0627 37.3375 28.0627C37.3375 28.92 37.3375 29.7711 37.3375 30.6284C37.3375 31.4795 37.3375 32.3368 37.3375 33.1879C36.4026 32.4487 35.5729 31.7653 34.8485 31.1441C34.8485 30.8024 34.8485 30.4607 34.8485 30.119C34.4213 30.119 34.0002 30.119 33.5792 30.119C33.5792 31.1192 33.5792 32.1132 33.5792 33.1134C34.1303 33.1072 34.6875 33.1072 35.2447 33.101C35.2695 33.101 35.6843 33.4426 36.4831 34.1198C36.0682 34.4552 35.6534 34.7969 35.2447 35.1324C34.6875 35.1386 34.1303 35.1386 33.5792 35.1448C33.5792 36.145 33.5792 37.139 33.5792 38.1392C34.0002 38.133 34.4213 38.1267 34.8485 38.1205C34.8485 37.7789 34.8485 37.4372 34.8485 37.0955C35.7525 36.3189 36.5759 35.6294 37.3375 35.0268C37.3375 35.8841 37.3375 36.7352 37.3375 37.5863C37.3375 38.4374 37.3375 39.2947 37.3375 40.1458C35.2509 40.1706 33.1768 40.2079 31.0964 40.2762C31.0964 38.3877 31.0964 36.4929 31.0964 34.6043C31.0964 32.7158 31.0964 30.821 31.0964 28.9325C30.7559 28.6467 30.4153 28.3609 30.081 28.0627ZM22.5087 28.0627C24.9234 28.0627 27.3443 28.0627 29.7652 28.0627C29.7652 28.9325 29.7652 29.796 29.7652 30.6657C29.7652 31.5292 29.7652 32.399 29.7652 33.2625C28.8303 32.5232 28.0068 31.8398 27.2824 31.2186C27.2824 30.8707 27.2824 30.5166 27.2824 30.1687C26.8552 30.1749 26.428 30.1749 26.007 30.1812C26.007 30.9577 26.007 31.7405 26.007 32.517C26.6323 33.0388 27.2576 33.5607 27.8892 34.0763C28.5145 34.5919 29.1399 35.1013 29.7714 35.6107C29.7714 36.2506 29.7714 36.8967 29.7714 37.5366C29.7714 38.1764 29.7714 38.8225 29.7714 39.4624C29.7714 39.481 29.4247 39.7917 28.725 40.3943C26.9914 40.4874 25.264 40.6055 23.5303 40.7359C23.5303 39.8414 23.5303 38.9468 23.5303 38.0522C23.5303 37.1576 23.5303 36.263 23.5303 35.3685C24.4591 36.1015 25.2887 36.7725 26.0131 37.375C26.0131 37.7292 26.0131 38.0833 26.0131 38.4311C26.4342 38.4063 26.8614 38.3877 27.2886 38.369C27.2886 37.5987 27.2886 36.8222 27.2886 36.0456C26.6633 35.53 26.0317 35.0206 25.4064 34.5112C24.781 33.9955 24.1557 33.4737 23.5241 32.9456C23.5241 32.2809 23.5241 31.6224 23.5241 30.9577C23.5241 30.293 23.5241 29.6345 23.5241 28.9697C23.1836 28.6716 22.8431 28.3671 22.5087 28.0627ZM18.4409 30.293C18.4409 31.113 18.4409 31.933 18.4409 32.7531C18.4409 32.7717 18.8619 33.1382 19.7102 33.834C19.7102 33.2376 19.7102 32.6475 19.7102 32.0511C19.7102 31.4609 19.7102 30.8645 19.7102 30.2681C19.2829 30.2806 18.8619 30.2868 18.4409 30.293ZM14.9427 28.0627C17.0106 28.0627 19.0724 28.0627 21.1466 28.0627C21.1775 28.0627 21.5243 28.3671 22.1992 28.976C22.1992 30.9515 22.1992 32.9332 22.1992 34.9088C22.1992 36.8843 22.1992 38.8598 22.1992 40.8353C21.3695 40.9161 20.5336 40.9968 19.7102 41.0776C19.7102 40.3073 19.7102 39.5307 19.7102 38.7604C19.7102 37.9901 19.7102 37.2135 19.7102 36.437C19.7102 36.4121 19.2891 36.0642 18.4409 35.3809C18.4409 36.35 18.4409 37.3254 18.4409 38.2945C18.4409 39.2636 18.4409 40.2327 18.4409 41.2019C17.6112 41.3013 16.7815 41.4007 15.9581 41.4938C15.9581 39.4127 15.9581 37.3378 15.9581 35.2566C15.9581 33.1755 15.9581 31.0944 15.9581 29.0132C15.6175 28.7088 15.277 28.3858 14.9427 28.0627ZM10.8686 35.94C10.8686 36.5861 10.8686 37.2322 10.8686 37.872C10.8686 38.5181 10.8686 39.1642 10.8686 39.8041C11.2896 39.7482 11.7169 39.6985 12.1441 39.6488C12.1441 38.779 12.1441 37.9093 12.1441 37.0396C12.1441 37.0209 11.7169 36.6544 10.8686 35.94ZM10.8686 30.4607C10.8686 31.3429 10.8686 32.225 10.8686 33.1072C10.8686 33.132 10.9801 33.2314 11.2092 33.4116C11.2339 33.4116 11.5435 33.0947 12.1441 32.4735C12.1441 31.7902 12.1441 31.113 12.1441 30.4296C11.7169 30.4421 11.2896 30.4483 10.8686 30.4607ZM7.37659 28.0627C9.44456 28.0627 11.5063 28.0627 13.5805 28.0627C13.6053 28.0627 13.952 28.392 14.6269 29.0381C14.6269 29.6593 14.6269 30.2806 14.6269 30.9018C14.6269 31.523 14.6269 32.1443 14.6269 32.7655C13.9768 33.4116 13.3267 34.0639 12.6766 34.7286C13.3267 35.3063 13.9768 35.8717 14.6269 36.4308C14.6269 37.1452 14.6269 37.8534 14.6269 38.5678C14.6269 39.2822 14.6269 39.9904 14.6269 40.7049C14.6269 40.7235 14.2802 41.1025 13.5805 41.8231C11.8469 42.0654 10.1133 42.3263 8.38581 42.6058C8.38581 40.357 8.38581 38.1081 8.38581 35.8592C8.38581 33.6104 8.38581 31.3615 8.38581 29.1064C8.05147 28.7647 7.71093 28.4168 7.37659 28.0627Z" fill="white"/>
<path fill-rule="evenodd" clip-rule="evenodd" d="M67.3851 42.4878C67.3851 41.5435 67.3851 40.593 67.3851 39.6487C67.3851 38.779 67.3851 37.9093 67.3851 37.0396C66.704 37.6297 66.0353 38.2261 65.3605 38.8225C65.3605 39.189 65.3605 39.5618 65.3605 39.9283V40.1954L65.0942 40.1582C64.6732 40.1023 64.246 40.0401 63.825 39.9842L63.6268 39.9594V35.853C62.952 35.7598 62.2833 35.6666 61.6084 35.5797V41.587C63.534 41.8666 65.4595 42.171 67.3851 42.4878ZM54.0361 34.7286V34.9522C54.0361 36.8718 54.0361 38.7852 54.0361 40.7048C55.9617 40.8974 57.8873 41.1149 59.8128 41.3447C59.8128 40.475 59.8128 39.6115 59.8128 38.7417C59.8128 37.9466 59.8128 37.1576 59.8128 36.3624C59.1318 36.9215 58.4569 37.4869 57.7882 38.0522C57.7882 38.3876 57.7882 38.7293 57.7882 39.0648V39.3195L57.5343 39.2946C57.1133 39.2512 56.6861 39.2077 56.2651 39.1704L56.0546 39.1518V34.9336C55.3797 34.859 54.7048 34.7907 54.0361 34.7286ZM46.47 34.1819V34.6602C46.47 36.4929 46.47 38.3193 46.47 40.1519C47.1449 40.1892 47.8136 40.2265 48.4885 40.2576C48.4885 39.4189 48.4885 38.5864 48.4885 37.7478C48.4885 36.8283 48.4885 35.9089 48.4885 34.9957V34.4863L48.8724 34.8155C49.1943 35.0951 49.5163 35.3684 49.8321 35.6542C49.9497 35.7598 50.2283 35.9648 50.2283 36.1263C50.2283 36.8718 50.2283 37.6173 50.2283 38.3628C50.2283 39.0337 50.2283 39.7047 50.2283 40.3756C50.9032 40.4253 51.5781 40.4812 52.253 40.5309C52.253 38.6486 52.253 36.7662 52.253 34.8777V34.5671C50.3212 34.4117 48.3956 34.2813 46.47 34.1819ZM41.2939 34.6354C41.6159 34.8963 41.9378 35.1572 42.2536 35.4244C42.3712 35.5238 42.6561 35.7163 42.6561 35.8841C42.6561 36.642 42.6561 37.3999 42.6561 38.1578V38.3939H42.4084C41.9874 38.3814 41.5602 38.369 41.1391 38.3628L40.91 38.3566V38.1267C40.91 37.5738 40.91 37.0209 40.91 36.468C40.91 35.9151 40.91 35.3622 40.91 34.8093V34.3186L41.2939 34.6354ZM44.6745 39.3319C44.6745 38.7231 44.6745 38.1143 44.6745 37.5055C44.6745 36.9029 44.6745 36.2941 44.6745 35.6915C44.0492 35.1572 43.43 34.6167 42.8047 34.0825L42.7365 34.0266C41.4549 33.9893 40.1794 33.9645 38.8978 33.952V34.5484C38.8978 36.3438 38.8978 38.1391 38.8978 39.9283C40.5262 39.9469 42.1545 39.978 43.7829 40.0277C44.0058 39.8538 44.2287 39.6798 44.4516 39.5059C44.5259 39.45 44.6002 39.394 44.6745 39.3319ZM31.3317 34.0576V34.6167C31.3317 36.4245 31.3317 38.2385 31.3317 40.0463C33.2573 39.9842 35.1829 39.9469 37.1084 39.9221C37.1084 39.1455 37.1084 38.369 37.1084 37.5925C37.1084 36.9029 37.1084 36.2071 37.1084 35.5175C36.4274 36.0704 35.7525 36.642 35.0838 37.2135C35.0838 37.5179 35.0838 37.8285 35.0838 38.1329V38.3628H34.8547C34.4337 38.369 34.0065 38.369 33.5854 38.3814L33.3502 38.3876V38.1454C33.3502 37.1452 33.3502 36.1512 33.3502 35.151V34.9212H33.5793C34.1055 34.9149 34.638 34.9149 35.1643 34.9087C35.4862 34.6478 35.802 34.3869 36.124 34.126L35.9258 33.9582C34.3903 33.9644 32.861 34.0017 31.3317 34.0576ZM25.5798 34.3558C26.1989 34.859 26.8119 35.3684 27.431 35.8716L27.5177 35.94V36.0518C27.5177 36.8283 27.5177 37.5987 27.5177 38.3752V38.5989L27.2948 38.6113C26.8676 38.6299 26.4466 38.6486 26.0194 38.6734L25.7717 38.6858V38.4373C25.7717 38.1205 25.7717 37.8037 25.7717 37.4869C25.1092 36.934 24.4343 36.3873 23.7533 35.853C23.7533 36.5861 23.7533 37.3253 23.7533 38.0584C23.7533 38.866 23.7533 39.6798 23.7533 40.4874C25.3755 40.3632 26.9976 40.2576 28.6198 40.1706C28.8489 39.9718 29.0718 39.7792 29.3009 39.5804C29.3752 39.5121 29.4557 39.45 29.53 39.3754C29.53 38.7604 29.53 38.1516 29.53 37.5366C29.53 36.934 29.53 36.3251 29.53 35.7225C28.9294 35.238 28.3288 34.7472 27.7344 34.2564L27.6973 34.2254C26.9914 34.2626 26.2856 34.3061 25.5798 34.3558ZM18.2056 35.0019C17.5308 35.0765 16.8621 35.151 16.1872 35.2256V35.269C16.1872 37.2632 16.1872 39.2512 16.1872 41.2453C16.8621 41.1646 17.5308 41.0838 18.2056 41.003C18.2056 40.1022 18.2056 39.2015 18.2056 38.3007C18.2056 37.3315 18.2056 36.3562 18.2056 35.3871V35.0019ZM21.9701 40.6303C21.9701 38.7231 21.9701 36.8159 21.9701 34.9149V34.6354C20.7504 34.741 19.5306 34.859 18.3171 34.9895L18.5895 35.2069C18.9115 35.4616 19.2272 35.7225 19.5492 35.9835C19.673 36.0829 19.9517 36.2754 19.9517 36.4432C19.9517 37.2197 19.9517 37.9901 19.9517 38.7666C19.9517 39.4562 19.9517 40.1395 19.9517 40.8291C20.6203 40.7608 21.2952 40.6924 21.9701 40.6303ZM11.1535 35.8779C11.4259 36.1077 11.7045 36.3376 11.9707 36.5736C12.0884 36.6792 12.3732 36.8718 12.3732 37.0458C12.3732 37.9155 12.3732 38.7852 12.3732 39.655V39.86L12.1689 39.8848C11.7417 39.9345 11.3206 39.9842 10.8934 40.0401L10.6334 40.0712V39.8041C10.6334 39.158 10.6334 38.5119 10.6334 37.872C10.6334 37.2321 10.6334 36.5923 10.6334 35.9524C9.9585 36.0518 9.28981 36.1512 8.61493 36.2506V42.3263C10.2309 42.0654 11.8469 41.8231 13.4629 41.5932C13.692 41.3571 13.9211 41.1149 14.1502 40.8726C14.2307 40.7856 14.3173 40.7048 14.3916 40.6179C14.3916 39.9345 14.3916 39.2449 14.3916 38.5616C14.3916 37.8844 14.3916 37.2073 14.3916 36.5302C14.0263 36.2133 13.661 35.8965 13.2957 35.5797C12.5837 35.6791 11.8717 35.7785 11.1535 35.8779Z" fill="#BEC1C6"/>
<path fill-rule="evenodd" clip-rule="evenodd" d="M47.8879 42.2642L48.2222 42.0033L48.7113 42.0468C49.2748 42.0965 49.8382 42.1462 50.4016 42.2021L50.8412 42.2456L51.157 42.5562C51.3489 42.7426 51.5409 42.9352 51.7328 43.1215L52.1105 43.4943V44.0223C52.1105 44.6684 52.1105 45.3083 52.1105 45.9544C52.1105 46.5942 52.1105 47.2403 52.1105 47.8864V48.5325L51.5842 48.9114C51.3923 49.0481 51.2004 49.191 51.0084 49.3277L50.5936 49.6259L50.0859 49.5451C49.5348 49.4581 48.99 49.3774 48.4389 49.3028L48.0241 49.2469L47.6897 48.9176L47.3492 49.1599L46.8725 49.104C46.3462 49.0419 45.8137 48.986 45.2874 48.9363L44.8664 48.899L44.5321 48.5884L44.1977 48.8431L43.7333 48.812C43.1823 48.7748 42.6374 48.7375 42.0864 48.7064L41.653 48.6816L41.6406 48.6754L41.1019 48.6567C40.3713 48.6319 39.6345 48.6132 38.9039 48.607L38.3405 48.6008C38.0743 48.6008 37.8018 48.6008 37.5356 48.607L36.6936 48.6194L36.5326 48.6257C36.2354 48.6381 35.932 48.6443 35.6348 48.6567L35.0218 48.6754L34.638 48.694C34.0993 48.7251 33.5606 48.7499 33.022 48.7872L32.5576 48.8182L32.2171 48.5635L31.8827 48.8742L31.4617 48.9114C30.9107 48.9611 30.3658 49.017 29.8147 49.0792L29.3318 49.1351L28.8179 48.7623V49.1972L27.7282 49.3463C27.431 49.3836 27.14 49.4271 26.8428 49.4768L25.394 49.7004V48.2281C25.394 47.9299 25.394 47.6317 25.394 47.3397C25.394 47.1223 25.394 46.9111 25.394 46.6936V46.675L25.3878 46.6563C25.233 46.2463 25.0844 45.8363 24.9358 45.4263C24.7563 44.9355 24.5767 44.4385 24.3971 43.9478L23.8399 42.4195L25.4497 42.2642C25.7593 42.2332 26.0627 42.2021 26.3722 42.1772L26.7809 42.1338V42.1275L26.9976 42.1089L27.3567 42.0716V42.0778L27.6044 42.0592C27.9201 42.0344 28.2421 42.0033 28.5579 41.9785L30.5082 41.8169L30.4958 41.848L30.6506 41.8418C30.7682 41.8356 30.8859 41.8294 31.0035 41.8231L31.1026 41.8169V41.8045L32.3037 41.7486C32.5081 41.7424 32.7062 41.73 32.9105 41.7237L33.0096 41.7175V41.7113L33.4306 41.6989L34.5141 41.6492V41.6554L35.2076 41.643L36.4149 41.6119V41.6243H36.5202C36.8731 41.6181 37.2198 41.6181 37.5728 41.6119H37.6718V41.6057L38.9349 41.6181C39.2383 41.6181 39.5355 41.6243 39.8389 41.6243L41.0834 41.6368V42.1897L41.2505 42.0592C41.2939 42.0219 41.3372 41.9909 41.3868 41.9536L41.7459 41.6678L42.204 41.6803C42.7675 41.6989 43.3309 41.7237 43.8881 41.7486L44.3277 41.7672L44.6807 42.0778L45.0336 41.8045L45.5041 41.8294C46.0428 41.8604 46.5877 41.8977 47.1263 41.935L47.5597 41.966L47.8879 42.2642Z" fill="#081329"/>
<path d="M49.962 47.3521C49.962 46.8427 49.962 46.3395 49.962 45.8301C49.962 45.3207 49.962 44.8175 49.962 44.3081C49.6215 44.2708 49.2809 44.2335 48.9404 44.2025C48.9404 44.7057 48.9404 45.2026 48.9404 45.7058C48.9404 46.209 48.9404 46.706 48.9404 47.2092C49.2748 47.2527 49.6153 47.3024 49.962 47.3521ZM50.8598 47.8802C50.6679 48.0168 50.4697 48.1597 50.2778 48.2964C49.7205 48.2094 49.1633 48.1224 48.6061 48.0479C48.4141 47.8553 48.2222 47.6689 48.0303 47.4764C48.0303 46.8551 48.0303 46.2339 48.0303 45.6127C48.0303 44.9914 48.0303 44.3702 48.0303 43.7489C48.2222 43.5999 48.4141 43.4508 48.6061 43.3017C49.1633 43.3514 49.7205 43.4011 50.2778 43.457C50.4697 43.6433 50.6617 43.8359 50.8598 44.0285C50.8598 44.6746 50.8598 45.3145 50.8598 45.9605C50.8598 46.5942 50.8598 47.2341 50.8598 47.8802ZM47.603 47.4204C47.4111 47.5633 47.213 47.7062 47.021 47.8429C46.4824 47.7808 45.9437 47.7249 45.405 47.6752C45.2131 47.495 45.0212 47.321 44.8292 47.1471C44.8292 46.5445 44.8292 45.9357 44.8292 45.3331C44.8292 44.7305 44.8292 44.1217 44.8292 43.5191C45.0212 43.37 45.2193 43.2209 45.4112 43.0718C45.9437 43.1029 46.4824 43.1401 47.0148 43.1774C47.2068 43.3576 47.4049 43.5315 47.5968 43.7117C47.5968 43.954 47.5968 44.2025 47.5968 44.4447C47.2935 44.4199 46.9963 44.395 46.6991 44.3702C46.6991 44.2521 46.6991 44.1279 46.6991 44.0099C46.3771 43.985 46.049 43.9602 45.727 43.9353C45.727 44.4199 45.727 44.9044 45.727 45.3952C45.727 45.8798 45.727 46.3643 45.727 46.8489C46.049 46.8738 46.3771 46.911 46.6991 46.9483C46.6991 46.6004 46.6991 46.2587 46.6991 45.9108C46.4948 45.8922 46.2904 45.8736 46.0861 45.8487C46.0861 45.563 46.0861 45.2772 46.0861 44.9914C46.5876 45.0349 47.0953 45.0784 47.5968 45.1219C47.5968 45.507 47.5968 45.886 47.5968 46.2712C47.603 46.6563 47.603 47.0415 47.603 47.4204ZM43.498 46.675C43.498 46.1966 43.498 45.7183 43.498 45.2399C43.498 44.7616 43.498 44.2832 43.498 43.8049C43.1575 43.7862 42.817 43.7738 42.4764 43.7614C42.4764 44.2397 42.4764 44.7119 42.4764 45.1902C42.4764 45.6686 42.4764 46.1407 42.4764 46.6191C42.8108 46.6315 43.1575 46.6563 43.498 46.675ZM44.402 47.1036C44.2101 47.2465 44.0181 47.3956 43.82 47.5385C43.2628 47.495 42.7055 47.4639 42.1483 47.4329C41.9563 47.2651 41.7644 47.1036 41.5725 46.9359C41.5725 46.3395 41.5725 45.7493 41.5725 45.1529C41.5725 44.5566 41.5725 43.9664 41.5725 43.37C41.7644 43.2209 41.9563 43.0656 42.1483 42.9165C42.7055 42.9351 43.2628 42.9538 43.82 42.9786C44.0119 43.1464 44.2039 43.3203 44.402 43.488C44.402 44.0906 44.402 44.6932 44.402 45.2958C44.402 45.8984 44.402 46.501 44.402 47.1036ZM41.1391 47.3894C40.3961 47.3645 39.6531 47.3459 38.9101 47.3397C38.9101 46.5942 38.9101 45.8487 38.9101 45.097C38.9101 44.3515 38.9101 43.5999 38.9101 42.8544C39.2073 42.8544 39.5107 42.8606 39.8079 42.8606C39.8079 43.4694 39.8079 44.0782 39.8079 44.687C39.8079 45.2958 39.8079 45.9046 39.8079 46.5134C40.2475 46.5259 40.6933 46.5383 41.1329 46.5507C41.1391 46.8365 41.1391 47.1098 41.1391 47.3894ZM36.4892 44.6932C36.7988 44.687 37.1146 44.687 37.4241 44.6808C37.4241 44.3453 37.4241 44.0161 37.4241 43.6806C37.1146 43.6806 36.7988 43.6868 36.4892 43.6868C36.4892 44.0223 36.4892 44.3578 36.4892 44.6932ZM38.4829 47.3335C38.1609 47.3335 37.839 47.3335 37.5232 47.3397C37.3932 47.0353 37.2632 46.7309 37.1393 46.4327C37.0155 46.1283 36.8855 45.8239 36.7616 45.5195C36.6688 45.5195 36.5821 45.5195 36.4954 45.5257C36.4954 45.8301 36.4954 46.1345 36.4954 46.4389C36.4954 46.7433 36.4954 47.0477 36.4954 47.3521C36.192 47.3645 35.8948 47.3707 35.5976 47.3832C35.5976 46.6315 35.5976 45.8798 35.5976 45.1343C35.5976 44.3826 35.5976 43.6309 35.5976 42.8792C36.3158 42.8668 37.0341 42.8544 37.7523 42.8544C37.9442 43.0097 38.1362 43.165 38.3281 43.3265C38.3281 43.5999 38.3281 43.8732 38.3281 44.1465C38.3281 44.4199 38.3281 44.6932 38.3281 44.9666C38.1238 45.1405 37.9195 45.3207 37.7151 45.4946C37.8452 45.799 37.9752 46.1034 38.099 46.4078C38.2167 46.7185 38.3467 47.0291 38.4829 47.3335ZM35.1518 46.9235C34.9537 47.0912 34.7618 47.2589 34.5636 47.4267C34.0188 47.4577 33.4739 47.4826 32.9229 47.5261C32.7309 47.3832 32.539 47.2403 32.3471 47.0912C32.3471 46.4078 32.3471 45.7245 32.3471 45.0411C32.3471 44.3578 32.3471 43.6744 32.3471 42.991C32.6443 42.9786 32.9415 42.9662 33.2448 42.9476C33.2448 43.5688 33.2448 44.1838 33.2448 44.805C33.2448 45.4201 33.2448 46.0413 33.2448 46.6563C33.5792 46.6377 33.9135 46.6191 34.2479 46.6004C34.2479 45.9854 34.2479 45.3704 34.2479 44.7554C34.2479 44.1403 34.2479 43.5253 34.2479 42.9103C34.5451 42.8979 34.8423 42.8916 35.1456 42.8854C35.1456 43.5564 35.1456 44.2335 35.1456 44.9044C35.1518 45.5816 35.1518 46.2525 35.1518 46.9235ZM31.0159 46.8303C31.0159 46.3457 31.0159 45.8611 31.0159 45.3766C31.0159 44.892 31.0159 44.4075 31.0159 43.9229C30.6753 43.9477 30.3348 43.9664 29.9943 43.9912C29.9943 44.482 29.9943 44.9728 29.9943 45.4573C29.9943 45.9481 29.9943 46.4389 29.9943 46.9235C30.3348 46.8862 30.6753 46.8613 31.0159 46.8303ZM31.9137 47.1223C31.7217 47.2962 31.5298 47.4764 31.3317 47.6503C30.7744 47.7 30.2172 47.7559 29.6599 47.818C29.468 47.6752 29.2761 47.5385 29.0903 47.3956C29.0903 46.7744 29.0903 46.1593 29.0903 45.5381C29.0903 44.9169 29.0903 44.3018 29.0903 43.6806C29.2822 43.5005 29.468 43.3265 29.6599 43.1464C30.2172 43.1091 30.7744 43.0718 31.3317 43.0407C31.5236 43.1898 31.7155 43.3389 31.9137 43.488C31.9137 44.0906 31.9137 44.6994 31.9137 45.302C31.9137 45.9046 31.9137 46.5197 31.9137 47.1223ZM27.5548 46.3271C27.5548 46.6191 27.5548 46.911 27.5548 47.203C27.5548 47.495 27.5548 47.787 27.5548 48.079C27.2514 48.1224 26.948 48.1659 26.6447 48.2094C26.6447 47.9112 26.6447 47.613 26.6447 47.321C26.6447 47.0229 26.6447 46.7247 26.6447 46.4327C26.4651 45.9481 26.2855 45.4636 26.106 44.979C25.9264 44.4882 25.7469 43.9974 25.5673 43.5005C25.8707 43.4694 26.1803 43.4383 26.4899 43.4073C26.5889 43.6993 26.6942 43.985 26.7932 44.277C26.8923 44.5628 26.9976 44.8485 27.1028 45.1343C27.2019 44.8237 27.301 44.5193 27.4 44.2149C27.4991 43.9105 27.6043 43.6061 27.7034 43.3017C28.0192 43.2768 28.3411 43.2457 28.6569 43.2209C28.4712 43.7365 28.2854 44.2521 28.1059 44.7678C27.9201 45.2834 27.7344 45.8052 27.5548 46.3271Z" fill="#C10F18"/>
<path opacity="0.23" fill-rule="evenodd" clip-rule="evenodd" d="M48.668 47.936C49.2005 48.0105 49.7268 48.0913 50.253 48.1721C50.414 48.054 50.5812 47.936 50.7422 47.8179V46.0661C50.5193 46.035 50.2964 45.9977 50.0735 45.9667V47.352V47.4887L49.9373 47.4701C49.5967 47.4204 49.2562 47.3707 48.9157 47.3272L48.8104 47.3147V47.2091V45.7989C48.5875 45.7679 48.3708 45.743 48.1479 45.7182V47.4266C48.3275 47.5943 48.4946 47.7682 48.668 47.936ZM47.4854 47.3582C47.4854 46.9979 47.4854 46.6314 47.4854 46.2711V45.6312C47.0582 45.5815 46.631 45.538 46.21 45.4945V45.7368C46.3771 45.7554 46.5505 45.7679 46.7177 45.7865L46.8229 45.7989V45.9045C46.8229 46.2524 46.8229 46.5941 46.8229 46.942V47.0725L46.6929 47.06C46.3709 47.0228 46.049 46.9917 45.7208 46.9669L45.6156 46.9606V46.8488V45.4448C45.3927 45.4262 45.1698 45.4076 44.9469 45.3889V47.0911C45.1141 47.2464 45.2812 47.4017 45.4546 47.557C45.9685 47.6067 46.4762 47.6626 46.9839 47.7185C47.1573 47.6005 47.3183 47.4825 47.4854 47.3582ZM41.6901 45.1777V46.8799C41.8573 47.029 42.0245 47.1719 42.1917 47.3147C42.7241 47.3396 43.2504 47.3769 43.7829 47.4141C43.9501 47.2899 44.111 47.1656 44.2782 47.0414V45.3268C44.0553 45.3082 43.8324 45.2957 43.6095 45.2771V46.6687V46.7929L43.4857 46.7867C43.1452 46.7618 42.8046 46.7432 42.4641 46.7246L42.3526 46.7184V46.6065V45.2025C42.1359 45.2025 41.913 45.1901 41.6901 45.1777ZM41.0215 47.265C41.0215 47.0663 41.0215 46.8675 41.0215 46.6749C40.619 46.6624 40.2166 46.65 39.8079 46.6438L39.6965 46.6376V46.5196V45.1156C39.4736 45.1094 39.2507 45.1094 39.034 45.1031V47.2216C39.6965 47.2278 40.359 47.2464 41.0215 47.265ZM37.5975 47.2216C37.8328 47.2216 38.0681 47.2153 38.3034 47.2153C38.1981 46.9669 38.0929 46.7121 37.9814 46.4637C37.8514 46.1592 37.7214 45.8548 37.5975 45.5504L37.5666 45.4697L37.6347 45.4138L37.9938 45.1031C37.2322 45.1031 36.4769 45.1156 35.7153 45.1404V47.265C35.9382 47.2588 36.1611 47.2526 36.3778 47.2402C36.3778 46.9731 36.3778 46.7059 36.3778 46.4388C36.3778 46.1344 36.3778 45.83 36.3778 45.5256V45.4076H36.4954C36.5883 45.4076 36.675 45.4013 36.7679 45.4013H36.8484L36.8793 45.4759C37.0031 45.7803 37.1332 46.0847 37.257 46.3891C37.3622 46.6624 37.4799 46.942 37.5975 47.2216ZM34.3717 45.1901V46.6065V46.7184L34.2603 46.7246C33.9259 46.7432 33.5916 46.7556 33.2573 46.7805L33.1334 46.7867V46.6624V45.2585C32.9105 45.2709 32.6938 45.2895 32.4709 45.3019V47.029C32.6319 47.1532 32.7991 47.2775 32.9601 47.4017C33.4801 47.3644 34.0002 47.3396 34.5203 47.3085C34.6937 47.1594 34.8609 47.0166 35.0342 46.8675V45.1653C34.8113 45.1715 34.5946 45.1777 34.3717 45.1901ZM31.796 47.0662V45.3516C31.5732 45.3703 31.3503 45.3889 31.1336 45.4076V46.8302V46.9358L31.0283 46.9482C30.6878 46.9793 30.3472 47.0103 30.0067 47.0414L29.8767 47.0538V46.9234V45.5256C29.6538 45.5504 29.4371 45.5753 29.2142 45.5939V47.3334C29.3752 47.4514 29.5361 47.5757 29.6971 47.6937C30.2234 47.6316 30.7559 47.5819 31.2883 47.5322C31.4555 47.3831 31.6289 47.2216 31.796 47.0662ZM26.5828 45.9356L26.7561 46.4015L26.7623 46.4202V46.4388C26.7623 46.737 26.7623 47.0352 26.7623 47.3272C26.7623 47.5757 26.7623 47.8304 26.7623 48.0789C26.9852 48.0416 27.2081 48.0105 27.4372 47.9795C27.4372 47.7185 27.4372 47.4638 27.4372 47.2029C27.4372 46.9109 27.4372 46.619 27.4372 46.327V46.3083L27.4434 46.2897C27.4991 46.122 27.561 45.9605 27.6168 45.7927C27.27 45.8362 26.9295 45.8859 26.5828 45.9356Z" fill="black"/>
<path fill-rule="evenodd" clip-rule="evenodd" d="M38 48.9177L38.3653 50.0484H39.5417L38.5882 50.7379L38.9535 51.8686L38 51.1666L37.0465 51.8686L37.4118 50.7379L36.4583 50.0484H37.6409L38 48.9177Z" fill="white"/>
</svg>
