<svg width="32" height="26" viewBox="0 0 32 26" fill="none" xmlns="http://www.w3.org/2000/svg">
<g id="logo">
<path id="Vector" d="M15.4501 25.9685C15.3745 25.9496 13.7747 25.4772 11.734 24.0538C11.8159 24.4002 11.9482 25.2127 11.0916 25.7796C10.8711 25.9244 10.6255 26 10.3672 26C9.79409 26 9.29021 25.6347 8.9249 25.3702L8.86192 25.3261L8.83043 25.3009C8.81153 25.2883 8.72965 25.2316 8.61628 25.1371L8.56589 25.0993C8.42733 24.986 8.33285 24.8978 8.31395 24.8852L8.26987 24.8411C8.18799 24.7655 8.09351 24.6773 7.99903 24.5828L7.60223 24.2112L7.63372 24.1734C7.38178 23.8333 7.13614 23.3169 7.40068 22.7248C7.59593 22.2965 8.00533 21.7863 8.88082 21.7863C8.9249 21.7863 8.96899 21.7863 9.00049 21.7863C9.03198 21.7863 9.06347 21.7863 9.09496 21.7863C8.38954 21.0494 7.7408 20.2432 7.15504 19.3866C7.04797 19.4055 6.94089 19.4307 6.84012 19.4496L6.79603 19.4622L6.75824 19.4685C5.88275 19.6701 4.99467 19.8968 4.12548 20.1424L3.94913 20.1928L1.57461 19.0465L0.837694 16.5019L1.07704 16.4327L1.05814 16.3571L0.818799 16.4264L0 13.6235L0.466085 13.4913C1.68798 13.1386 2.82171 12.8488 3.92393 12.6095L4.10659 12.5717L4.15698 12.6032C3.61531 10.4743 3.31298 8.15019 3.2689 5.6749L2.26114 4.42781C1.48014 3.46415 1.41085 2.17926 2.09109 1.30378L2.13517 1.24079L2.4564 0.932171C2.54457 0.843992 2.64535 0.762112 2.74612 0.680233C2.82171 0.617248 2.90359 0.560562 2.98547 0.503876L3.35078 0.258236L3.42006 0.226744C3.70979 0.0755814 4.03731 0 4.37742 0C5.15213 0 5.89535 0.377907 6.43072 1.03295L7.3314 2.14777C9.63663 1.27229 12.5465 0.787306 15.5761 0.787306C18.5615 0.787306 21.4462 1.25339 23.7326 2.10998L24.608 1.03295C25.1434 0.377907 25.8929 0 26.6676 0C27.0078 0 27.3353 0.0755814 27.6376 0.220446L27.7069 0.251938L28.0722 0.497578C28.1541 0.554264 28.236 0.61095 28.3115 0.673934C28.4123 0.755814 28.5068 0.837694 28.6013 0.925872L28.9225 1.2345L28.9666 1.29748C29.6468 2.17297 29.5775 3.45785 28.7965 4.42151L27.9021 5.51744C27.8643 7.97384 27.5872 10.2854 27.0581 12.4016L27.1274 12.4142L27.1589 12.4205C28.1163 12.6158 29.0736 12.8425 30.0184 13.0882L30.4845 13.2078L29.7854 15.8847C30.0625 15.9603 30.3333 16.0359 30.6986 16.1429L31.1647 16.2752L30.3585 19.0465L27.8706 20.1928L27.7006 20.1424C26.8566 19.9031 26 19.6827 25.1497 19.4874C24.86 19.4244 24.7151 19.3929 24.4191 19.3299C24.312 19.3047 24.1986 19.2859 24.0916 19.2607C23.4869 20.1676 22.8067 21.0053 22.0698 21.78C22.1013 21.78 22.1328 21.78 22.1642 21.78C23.0397 21.78 23.4554 22.2902 23.6444 22.7185C23.9152 23.3106 23.6633 23.8333 23.4113 24.1734L23.4365 24.2049L23.1153 24.5136L23.046 24.5766C22.9516 24.671 22.8508 24.7592 22.7689 24.8411L22.7311 24.8789C22.7059 24.9041 22.6114 24.9859 22.4792 25.093L22.4288 25.1308C22.3091 25.2253 22.2272 25.282 22.2146 25.2946L22.1831 25.3198L22.1202 25.3639C21.7548 25.6284 21.251 25.9937 20.6778 25.9937C20.4196 25.9937 20.1739 25.9181 19.9535 25.7733C19.1662 25.2505 19.2103 24.5262 19.2859 24.142C17.3144 25.4898 15.7839 25.937 15.7083 25.9559L15.5761 25.9937L15.4501 25.9685Z" fill="#C4DBE7"/>
<path id="Vector_2" d="M3.74127 4.98817C3.74127 22.1326 15.5824 25.5022 15.5824 25.5022C15.5824 25.5022 27.4234 22.1388 27.4234 4.98817C23.0019 0.0312878 8.16278 0.0312878 3.74127 4.98817Z" fill="#003D6C"/>
<path id="Vector_3" d="M5.20258 5.76311C5.20258 20.7849 15.5761 23.7326 15.5761 23.7326C15.5761 23.7326 25.956 20.7849 25.956 5.76311C22.0824 1.41718 9.08242 1.41718 5.20258 5.76311Z" fill="white"/>
<path id="Vector_4" d="M15.3807 10.4492C12.1748 10.4492 9.09488 10.6949 6.21649 11.142C8.15012 21.0495 15.576 23.1595 15.576 23.1595C15.576 23.1595 22.9704 21.0558 24.9229 11.205C21.9437 10.7201 18.7315 10.4492 15.3807 10.4492Z" fill="#ED232F"/>
<g id="Group">
<path id="Vector_5" d="M22.1768 24.7277C22.3028 24.6206 22.391 24.545 22.3973 24.5387L22.4414 24.4947C22.5295 24.4128 22.6177 24.3309 22.7122 24.2427L22.7878 24.1734C23.1279 23.8207 23.4113 23.3924 23.2035 22.9326C22.9012 22.2587 22.328 22.2713 22.0509 22.2839C21.8619 22.2902 21.7296 22.2902 21.547 22.1894C20.9549 21.7926 17.2577 17.0058 16.5649 15.9666C16.4452 15.7902 16.2248 15.4312 15.9414 14.9777C14.6439 12.9118 11.9545 8.60996 9.36579 5.42295L6.0591 1.34155C5.41666 0.547948 4.41521 0.270817 3.6216 0.655022L3.58381 0.673918L3.24999 0.900662C3.17441 0.951049 3.10513 1.00144 3.03585 1.05812C2.94767 1.12741 2.86579 1.20299 2.78391 1.27857L2.48788 1.562L2.46269 1.59349C1.92102 2.28632 1.9903 3.32556 2.62645 4.11917L5.93313 8.20056C8.5218 11.3939 12.1686 14.9147 13.9259 16.609C14.3101 16.9806 14.6124 17.2766 14.7636 17.4278C15.639 18.3222 19.5504 22.9263 19.8086 23.6003C19.8716 23.7892 19.8401 23.9215 19.7897 24.1104C19.7204 24.3876 19.5819 24.9607 20.218 25.3827C20.7723 25.7543 21.3895 25.3072 21.8367 24.9859C21.8619 24.967 21.8808 24.9544 21.8997 24.9355L21.9375 24.9104C21.9438 24.9041 22.0194 24.8537 22.1264 24.7718L22.1768 24.7277Z" fill="#003D6C"/>
<path id="Vector_6" d="M6.38656 7.83554L3.07987 3.75414C2.65788 3.23767 2.51301 2.47556 2.92241 1.95278L3.18694 1.70085C3.30662 1.58747 3.43888 1.4804 3.57745 1.38592L3.87977 1.17808C4.47813 0.888346 5.18985 1.19067 5.60555 1.70714L8.91224 5.78854C12.0741 9.68728 15.4374 15.3244 16.0799 16.2881C16.7223 17.2517 20.5581 22.2779 21.2635 22.681C21.9626 23.0904 22.4098 22.5676 22.6743 23.1597C22.7814 23.4053 22.3153 23.8147 22.0004 24.1044C22.0004 24.1044 21.9248 24.1737 21.8115 24.2682C21.6918 24.3627 21.6099 24.4194 21.6099 24.4194C21.2635 24.665 20.7911 25.0492 20.5392 24.8854C19.9975 24.5264 20.6148 24.1737 20.3628 23.4053C20.1109 22.6369 15.9917 17.8375 15.1792 17.0124C14.3667 16.1873 9.54838 11.7343 6.38656 7.83554Z" fill="#C4DBE7"/>
<path id="Vector_7" d="M22.5358 22.958C22.5862 23.0021 22.6365 23.0651 22.6743 23.1596C22.7814 23.4052 22.3153 23.8146 22.0004 24.1043C22.0004 24.1043 21.9248 24.1736 21.8114 24.2681C21.6918 24.3626 21.6099 24.4192 21.6099 24.4192C21.2635 24.6649 20.7911 25.0491 20.5392 24.8853C20.4447 24.8223 20.388 24.7657 20.3565 24.7027C21.5469 24.0413 22.2334 23.317 22.5358 22.958Z" fill="#6B9BB1"/>
<path id="Vector_8" d="M6.38656 7.83537L3.07987 3.75398C2.65788 3.23751 2.51301 2.47539 2.92241 1.95262L3.18694 1.70068C3.18065 2.14158 3.81049 3.14303 5.42919 5.17743C7.69663 8.03063 11.5513 12.7797 13.233 14.3606C14.9147 15.9415 16.2877 17.7302 17.5915 19.3741C18.9016 21.018 20.325 22.8131 20.7218 23.3107C21.0871 23.7705 20.5644 24.5767 20.8163 24.9105C20.7092 24.942 20.6148 24.942 20.5329 24.8916C19.9912 24.5326 20.6085 24.1799 20.3565 23.4114C20.1046 22.643 15.9854 17.8436 15.1729 17.0185C14.3667 16.1871 9.54838 11.7341 6.38656 7.83537Z" fill="#6B9BB1"/>
<path id="Vector_9" d="M17.1381 17.7427C17.1381 17.7427 14.984 15.2233 13.9133 13.4786C12.8362 11.734 11.0034 8.94375 6.53148 3.31923C4.83089 1.17146 4.52857 1.35412 3.9743 1.13997C4.55376 0.919524 5.2088 1.21555 5.6056 1.70683L8.91229 5.78823C12.0741 9.68697 15.4375 15.3241 16.0799 16.2877C16.25 16.546 16.6405 17.0813 17.1381 17.7427Z" fill="white"/>
</g>
<g id="Group_2">
<path id="Vector_10" d="M8.8683 24.7278C8.74234 24.6207 8.65416 24.5451 8.64786 24.5388L8.60377 24.4947C8.51559 24.4128 8.42741 24.331 8.33294 24.2428L8.25735 24.1735C7.91724 23.8208 7.63381 23.3925 7.84166 22.9327C8.14398 22.2588 8.71714 22.2714 8.99427 22.284C9.18323 22.2903 9.31549 22.2903 9.49815 22.1895C10.0965 21.799 13.7937 17.0185 14.4865 15.9729C14.6062 15.7966 14.8266 15.4376 15.1101 14.9841C16.4012 12.9182 19.097 8.61633 21.6794 5.42302L24.986 1.34162C25.6285 0.554316 26.6299 0.270886 27.4172 0.66139L27.455 0.680285L27.7888 0.90703C27.8644 0.957417 27.9337 1.0078 28.003 1.06449C28.0912 1.13377 28.1731 1.20936 28.2549 1.28494L28.551 1.56837L28.5762 1.59986C29.1178 2.29269 29.0485 3.33193 28.4124 4.12554L25.1057 8.20693C22.517 11.4002 18.8702 14.9211 17.113 16.6154C16.7288 16.987 16.4264 17.283 16.2753 17.4342C15.3998 18.3285 11.4885 22.9327 11.2302 23.6066C11.1672 23.7956 11.1987 23.9279 11.2491 24.1168C11.3184 24.3939 11.457 24.9671 10.8208 25.3891C10.2666 25.7607 9.64931 25.3135 9.20212 24.9923C9.17693 24.9734 9.15803 24.9608 9.13914 24.9419L9.10135 24.9167C9.09505 24.9104 9.01947 24.86 8.91239 24.7782L8.8683 24.7278Z" fill="#003D6C"/>
<path id="Vector_11" d="M24.6585 7.83554L27.9652 3.75414C28.3872 3.23767 28.5321 2.47556 28.1227 1.95278L27.8582 1.70085C27.7385 1.58747 27.6062 1.4804 27.4677 1.38592L27.1653 1.17808C26.567 0.888346 25.8553 1.19067 25.4396 1.70714L22.1329 5.78854C18.971 9.68728 15.6077 15.3244 14.9652 16.2881C14.3228 17.2517 10.487 22.2779 9.78161 22.681C9.08248 23.0904 8.63529 22.5676 8.37075 23.1597C8.26368 23.4053 8.72977 23.8147 9.04469 24.1044C9.04469 24.1044 9.12027 24.1737 9.23364 24.2682C9.35331 24.3627 9.43519 24.4194 9.43519 24.4194C9.78161 24.665 10.254 25.0492 10.5059 24.8854C11.0476 24.5264 10.4303 24.1737 10.6823 23.4053C10.9342 22.6369 15.0534 17.8375 15.8659 17.0124C16.6784 16.1873 21.4967 11.7343 24.6585 7.83554Z" fill="#C4DBE7"/>
<path id="Vector_12" d="M8.50932 22.958C8.45893 23.0021 8.40855 23.0651 8.37075 23.1596C8.26368 23.4052 8.72977 23.8146 9.04469 24.1043C9.04469 24.1043 9.12027 24.1736 9.23364 24.2681C9.35331 24.3626 9.43519 24.4192 9.43519 24.4192C9.78161 24.6649 10.254 25.0491 10.5059 24.8853C10.6004 24.8223 10.6571 24.7657 10.6886 24.7027C9.49818 24.0413 8.81165 23.317 8.50932 22.958Z" fill="#6B9BB1"/>
<path id="Vector_13" d="M24.6585 7.83537L27.9652 3.75398C28.3872 3.23751 28.5321 2.47539 28.1227 1.95262L27.8582 1.70068C27.8645 2.14158 27.2346 3.14303 25.6159 5.17743C23.3485 8.03063 19.4938 12.7797 17.8121 14.3606C16.1304 15.9352 14.7574 17.7302 13.4536 19.3741C12.1435 21.018 10.7201 22.8131 10.3233 23.3107C9.95796 23.7705 10.4807 24.5767 10.2288 24.9105C10.3359 24.942 10.4303 24.942 10.5122 24.8916C11.0539 24.5326 10.4366 24.1799 10.6886 23.4114C10.9405 22.643 15.0597 17.8436 15.8722 17.0185C16.6784 16.1871 21.4967 11.7341 24.6585 7.83537Z" fill="#6B9BB1"/>
<path id="Vector_14" d="M13.9008 17.7426C13.9008 17.7426 16.0549 15.2233 17.1256 13.4786C18.2027 11.7339 20.0355 8.9437 24.5074 3.31918C26.2143 1.17141 26.5166 1.34777 27.0709 1.13362C26.4914 0.913176 25.8364 1.2092 25.4396 1.70048L22.1329 5.78188C18.9711 9.68062 15.6077 15.3177 14.9653 16.2814C14.7952 16.5459 14.4047 17.0813 13.9008 17.7426Z" fill="white"/>
</g>
<g id="Group_3">
<path id="Vector_15" d="M19.4207 6.92346C19.6717 4.80238 18.1557 2.87946 16.0346 2.6285C13.9135 2.37754 11.9906 3.89358 11.7396 6.01466C11.4887 8.13575 13.0047 10.0587 15.1258 10.3096C17.2469 10.5606 19.1698 9.04455 19.4207 6.92346Z" fill="#003D6C"/>
<path id="Vector_16" d="M16.6493 9.69051C18.429 9.10065 19.3936 7.17976 18.8037 5.40008C18.2139 3.62039 16.293 2.65584 14.5133 3.2457C12.7336 3.83555 11.7691 5.75644 12.3589 7.53613C12.9488 9.31581 14.8697 10.2804 16.6493 9.69051Z" fill="#C4DBE7"/>
<path id="Vector_17" d="M14.4362 3.2692C13.3717 3.64711 12.6222 4.5037 12.3199 5.51145C12.3388 5.57444 12.3577 5.63742 12.3829 5.69411C13.0127 7.46397 14.9589 8.38354 16.7288 7.7474C17.7932 7.36949 18.5428 6.51291 18.8451 5.50515C18.8262 5.44217 18.8073 5.37918 18.7821 5.3225C18.146 3.55893 16.206 2.63936 14.4362 3.2692Z" fill="white"/>
<path id="Vector_18" d="M18.2593 4.37741C18.0829 4.15066 17.8814 3.95541 17.6609 3.77905C17.0437 4.54117 16.4201 5.6371 16.439 6.94087C16.4516 7.79116 16.735 8.61626 17.2893 9.40357C17.5349 9.2587 17.7554 9.08865 17.9569 8.89969C17.5097 8.26355 17.283 7.60221 17.2767 6.93458C17.2578 5.92053 17.7491 5.03244 18.2593 4.37741ZM12.9056 4.37741C13.4158 5.03244 13.907 5.92053 13.8944 6.93458C13.8881 7.60221 13.6551 8.26355 13.2079 8.90599C13.4095 9.10124 13.6362 9.2713 13.8755 9.40987C14.4298 8.62256 14.7195 7.79746 14.7321 6.94717C14.7447 5.64339 14.1275 4.54746 13.5102 3.78535C13.2772 3.95541 13.0756 4.15696 12.9056 4.37741Z" fill="#C4DBE7"/>
<path id="Vector_19" d="M14.644 7.95527C14.4424 8.00566 14.2597 8.04975 14.0582 8.07494L14.0897 8.28279C14.2849 8.2576 14.4865 8.22611 14.688 8.18202C14.7447 8.16942 14.7825 8.10014 14.7762 8.03715C14.7573 7.97417 14.7006 7.93638 14.644 7.95527ZM13.5795 6.2106C13.5606 6.26099 13.5921 6.30508 13.6425 6.31768C13.737 6.34287 13.8315 6.36177 13.9259 6.39326C14.0204 6.41845 14.1086 6.44994 14.2031 6.48773C14.2283 6.42475 14.2597 6.35547 14.2786 6.29248C14.0897 6.2295 13.9007 6.17911 13.7118 6.14132C13.6551 6.13502 13.5984 6.16651 13.5795 6.2106ZM13.4661 8.07494C13.6047 8.21351 13.7307 8.35837 13.8503 8.50954C13.907 8.46545 13.9637 8.42766 14.0204 8.38357C13.8881 8.23241 13.7496 8.08754 13.611 7.95527C13.5669 7.91748 13.5039 7.91118 13.4598 7.94268C13.4221 7.98047 13.4221 8.03715 13.4661 8.07494ZM13.5669 5.65634C13.5102 5.65004 13.4598 5.69413 13.4472 5.74452C13.4346 5.79491 13.4724 5.83899 13.5291 5.84529C13.6236 5.85789 13.7244 5.86419 13.8189 5.88308C13.9133 5.89568 14.0078 5.91458 14.1086 5.93977C14.1212 5.87049 14.1464 5.8012 14.1527 5.73192C13.9511 5.69413 13.7559 5.66894 13.5669 5.65634ZM14.4361 8.56622C14.2283 8.58512 14.033 8.59772 13.8315 8.60401C13.8315 8.6733 13.8378 8.74888 13.8378 8.81186C14.0393 8.81816 14.2346 8.80556 14.4361 8.79297C14.4991 8.78667 14.5432 8.72998 14.5432 8.667C14.5495 8.60401 14.4928 8.55992 14.4361 8.56622ZM13.8315 4.89423C13.9448 4.73047 14.0582 4.56041 14.159 4.39035C14.1905 4.33996 14.1716 4.27068 14.1149 4.23289C14.0645 4.2014 13.9952 4.21399 13.97 4.27068C13.8692 4.44704 13.7685 4.6171 13.6614 4.78086L13.8315 4.89423ZM13.5795 4.49742C13.3843 4.51632 13.1827 4.54151 12.9938 4.57301C12.9371 4.5856 12.893 4.63599 12.8993 4.68638C12.8993 4.73677 12.9497 4.77456 13.0064 4.76826C13.2016 4.73677 13.3906 4.71787 13.5921 4.70527L13.5795 4.49742ZM13.8503 5.21545L13.8629 5.0076C13.6677 5.0013 13.4661 5.0139 13.2772 5.02649C13.2205 5.03279 13.1701 5.07688 13.1701 5.13357C13.1701 5.18396 13.2142 5.22175 13.2709 5.22175C13.4598 5.20915 13.6551 5.20915 13.8503 5.21545ZM13.4158 8.43396C13.378 8.38987 13.315 8.37727 13.2709 8.40246C13.2331 8.42766 13.2205 8.48434 13.252 8.53473C13.3654 8.68589 13.4787 8.84965 13.5795 9.01971L13.7559 8.91264C13.6488 8.74258 13.5417 8.58512 13.4158 8.43396ZM13.8063 3.85498C13.8315 3.7983 13.8063 3.73531 13.7496 3.70382C13.6929 3.67863 13.6299 3.69752 13.6047 3.75421C13.5228 3.93686 13.4346 4.11952 13.3465 4.29587C13.4095 4.32737 13.4724 4.35886 13.5291 4.39665C13.6299 4.21399 13.7244 4.03764 13.8063 3.85498ZM14.0456 9.32204C13.9259 9.31574 13.8063 9.30314 13.6866 9.29054C13.8126 9.37872 13.9511 9.4543 14.0897 9.52359C14.1149 9.50469 14.1401 9.4732 14.1464 9.44171C14.1464 9.37242 14.1023 9.32204 14.0456 9.32204ZM14.2471 7.64665C14.0897 7.52068 13.9322 7.40731 13.7685 7.30653C13.7181 7.27504 13.6551 7.28764 13.6173 7.32543C13.5858 7.36322 13.5921 7.41991 13.6425 7.4514C13.7244 7.50179 13.8063 7.55847 13.8818 7.62146C13.9574 7.67814 14.033 7.74113 14.1086 7.80411C14.1527 7.75372 14.2094 7.70334 14.2471 7.64665ZM14.9148 7.15537C14.8896 7.09239 14.8266 7.06719 14.7762 7.09868C14.5936 7.19316 14.4109 7.26874 14.2283 7.33803L14.2975 7.53328C14.4865 7.47029 14.6817 7.40101 14.8644 7.31283C14.9148 7.29394 14.94 7.21835 14.9148 7.15537ZM14.1338 5.60595C14.2031 5.53667 14.2723 5.46109 14.3416 5.38551C14.4046 5.30992 14.4676 5.23434 14.5369 5.15246C14.5747 5.10837 14.5684 5.03279 14.518 4.9887C14.4676 4.94461 14.3983 4.95721 14.3668 5.0013C14.2472 5.16506 14.1149 5.32252 13.9826 5.46739C14.0393 5.51148 14.0834 5.55556 14.1338 5.60595ZM14.2849 6.17281C14.3605 6.10983 14.4424 6.04684 14.518 5.98386C14.5936 5.92087 14.6628 5.85159 14.7384 5.77601C14.7825 5.73192 14.7825 5.65634 14.7447 5.60595C14.7006 5.55556 14.6314 5.55556 14.5936 5.59965C14.455 5.74452 14.3038 5.88308 14.1527 6.00905C14.1968 6.06574 14.2409 6.11613 14.2849 6.17281ZM13.7937 6.80896C13.7433 6.79006 13.674 6.80896 13.6488 6.84675C13.6236 6.89084 13.6425 6.94122 13.6929 6.96642C13.8692 7.0483 14.033 7.13648 14.2031 7.24355L14.3164 7.06719C14.1527 6.96642 13.97 6.88454 13.7937 6.80896ZM14.2471 6.76487L14.3479 6.94752C14.5243 6.85934 14.7006 6.75857 14.8707 6.6452C14.9211 6.6137 14.9337 6.53812 14.9022 6.48144C14.8707 6.42475 14.8014 6.41215 14.751 6.44365C14.5873 6.56332 14.4298 6.67039 14.2471 6.76487Z" fill="#ED232F"/>
<path id="Vector_20" d="M16.4012 8.0434C16.3886 8.10639 16.4264 8.17567 16.4893 8.18827C16.6909 8.23236 16.8924 8.26385 17.0877 8.28904L17.1192 8.08119C16.9176 8.056 16.7287 8.01191 16.5334 7.96152C16.4705 7.93633 16.4138 7.97412 16.4012 8.0434ZM17.453 6.14127C17.2641 6.17906 17.0751 6.22945 16.8862 6.29243C16.905 6.36172 16.9365 6.4247 16.9617 6.48769C17.0562 6.45619 17.1444 6.4247 17.2389 6.39321C17.3333 6.36802 17.4278 6.34282 17.5223 6.31763C17.579 6.30503 17.6042 6.25464 17.5853 6.21055C17.5664 6.16646 17.5097 6.13497 17.453 6.14127ZM17.7049 7.94893C17.6672 7.91743 17.5979 7.92373 17.5538 7.96152C17.4152 8.09379 17.2767 8.23865 17.1444 8.38982C17.2011 8.43391 17.2578 8.478 17.3144 8.51579C17.4404 8.35832 17.5601 8.21976 17.6986 8.08119C17.7427 8.0371 17.7427 7.98042 17.7049 7.94893ZM17.0184 5.72557C17.031 5.79486 17.0499 5.86414 17.0625 5.93342C17.157 5.91453 17.2578 5.89563 17.3522 5.87674C17.4467 5.86414 17.5475 5.85154 17.642 5.83894C17.6987 5.83265 17.7364 5.78856 17.7238 5.73817C17.7112 5.68778 17.6609 5.64999 17.6042 5.64999C17.4089 5.66889 17.2137 5.69408 17.0184 5.72557ZM16.6216 8.67325C16.6216 8.73623 16.672 8.79292 16.7287 8.79922C16.9365 8.81811 17.1255 8.82441 17.327 8.81811C17.3207 8.74883 17.327 8.67955 17.3333 8.61026C17.1381 8.61026 16.9365 8.59767 16.7287 8.57247C16.672 8.55988 16.6216 8.60396 16.6216 8.67325ZM17.5097 4.77451C17.3963 4.61075 17.3018 4.44069 17.2011 4.26433C17.1696 4.21395 17.1066 4.19505 17.0562 4.22654C17.0058 4.25803 16.9869 4.33362 17.0121 4.384C17.1129 4.56036 17.2263 4.73042 17.3396 4.88788L17.5097 4.77451ZM17.579 4.71152C17.7805 4.72412 17.9695 4.74302 18.1647 4.77451C18.2214 4.78081 18.2718 4.74931 18.2718 4.69263C18.2718 4.64224 18.234 4.58555 18.1773 4.57926C17.9884 4.54776 17.7931 4.52257 17.5916 4.50367L17.579 4.71152ZM17.9002 5.2217C17.9569 5.2217 18.001 5.18391 18.001 5.13352C18.001 5.08313 17.9506 5.03274 17.8939 5.02645C17.7049 5.01385 17.5034 5.00125 17.3081 5.00755L17.3207 5.2154C17.516 5.2091 17.7112 5.2091 17.9002 5.2217ZM17.4089 8.90629L17.5853 9.01336C17.6924 8.84331 17.7994 8.67955 17.9128 8.52838C17.9443 8.48429 17.9317 8.42761 17.8939 8.39612C17.8498 8.37092 17.7868 8.38352 17.749 8.42761C17.6294 8.58507 17.516 8.74253 17.4089 8.90629ZM17.6357 4.3903C17.6986 4.35881 17.7616 4.32102 17.8183 4.28953C17.7301 4.11317 17.642 3.93681 17.5601 3.74786C17.5349 3.69117 17.4719 3.67228 17.4152 3.69747C17.3585 3.72896 17.3333 3.79195 17.3585 3.84864C17.4467 4.03759 17.5412 4.21395 17.6357 4.3903ZM17.0247 9.44166C17.031 9.47945 17.0499 9.50464 17.0814 9.52354C17.22 9.45426 17.3522 9.37867 17.4845 9.2905C17.3648 9.30309 17.2452 9.31569 17.1255 9.32199C17.0625 9.32199 17.0184 9.37238 17.0247 9.44166ZM17.0562 7.80406C17.1318 7.74108 17.2074 7.67809 17.283 7.62141C17.3585 7.56472 17.4404 7.50803 17.5223 7.45135C17.5727 7.41986 17.579 7.36317 17.5475 7.32538C17.516 7.28759 17.4467 7.28129 17.3963 7.30648C17.2326 7.40726 17.0751 7.52063 16.9176 7.6466C16.9617 7.70329 17.0121 7.75367 17.0562 7.80406ZM16.3067 7.31908C16.4893 7.40726 16.6846 7.47654 16.8736 7.53953L16.9428 7.34427C16.7602 7.27499 16.5775 7.19941 16.3949 7.10493C16.3382 7.07974 16.2752 7.10493 16.2563 7.16162C16.2311 7.21831 16.2563 7.29389 16.3067 7.31908ZM17.1885 5.46734C17.0562 5.32247 16.9302 5.16501 16.8043 5.00125C16.7665 4.95086 16.6972 4.94457 16.6531 4.98865C16.609 5.03274 16.5964 5.10833 16.6342 5.15241C16.6972 5.23429 16.7602 5.30988 16.8295 5.38546C16.8987 5.46104 16.968 5.53662 17.0373 5.6059C17.0814 5.55551 17.1318 5.51143 17.1885 5.46734ZM17.0184 6.009C16.8673 5.88303 16.7224 5.74447 16.5775 5.5996C16.5397 5.55552 16.4705 5.55551 16.4264 5.6059C16.3823 5.65629 16.3886 5.73187 16.4327 5.77596C16.5082 5.84524 16.5775 5.91453 16.6531 5.98381C16.7287 6.05309 16.8106 6.11608 16.8862 6.17276C16.9302 6.11608 16.968 6.06569 17.0184 6.009ZM16.8484 7.06714L16.9617 7.2435C17.1318 7.13643 17.3018 7.04825 17.4719 6.96637C17.5223 6.94117 17.5475 6.89079 17.516 6.8467C17.4908 6.80261 17.4278 6.78371 17.3711 6.80891C17.1948 6.88449 17.0121 6.96637 16.8484 7.06714ZM16.4075 6.4436C16.3571 6.40581 16.2941 6.4247 16.2563 6.48139C16.2248 6.53807 16.2374 6.61365 16.2878 6.64515C16.4642 6.75852 16.6405 6.85929 16.8106 6.94747L16.9113 6.76482C16.7413 6.67034 16.5775 6.56327 16.4075 6.4436Z" fill="#ED232F"/>
<g id="Group_4">
<path id="Vector_21" d="M12.7607 3.84808C13.3591 4.50312 14.1401 5.61795 14.1275 6.93432C14.1149 7.77202 13.7874 8.58452 13.1512 9.36552C13.2646 9.43481 13.378 9.49149 13.4914 9.54818C14.159 8.71678 14.4991 7.8476 14.5054 6.94062C14.5243 5.50457 13.7118 4.32047 13.0757 3.62134C12.9623 3.69062 12.8552 3.7662 12.7607 3.84808Z" fill="#003D6C"/>
<path id="Vector_22" d="M18.4103 3.84808C17.812 4.50312 17.031 5.61795 17.0436 6.93432C17.0562 7.77202 17.3837 8.58452 18.0198 9.36552C17.9065 9.43481 17.7931 9.49149 17.6797 9.54818C17.0121 8.71678 16.672 7.8476 16.6657 6.94062C16.6468 5.50457 17.4593 4.32047 18.0954 3.62134C18.2088 3.69062 18.3096 3.7662 18.4103 3.84808Z" fill="#003D6C"/>
</g>
</g>
<path id="Vector_23" d="M28.9539 16.1681C29.0358 15.8532 29.0736 15.6957 29.1555 15.3808C29.25 15.406 29.3004 15.4186 29.4011 15.4438C29.5964 14.688 29.6972 14.3101 29.8924 13.5543C28.9539 13.3086 28.0092 13.0882 27.0581 12.8929C26.9006 13.6551 26.8251 14.0393 26.6676 14.8077C26.7684 14.8266 26.8125 14.8392 26.9132 14.8581C26.8943 14.9399 26.8817 15.0092 26.8692 15.0722C26.5479 14.9966 26.2267 14.921 25.9055 14.8518C25.9181 14.7951 25.9307 14.7321 25.9433 14.6628C26.0441 14.6817 26.0881 14.688 26.1889 14.7132C26.3401 13.9448 26.4157 13.5669 26.5668 12.7985C25.6158 12.6095 24.6647 12.452 23.7073 12.3135H23.701C22.5484 12.1497 21.3958 12.0238 20.2369 11.9356C20.1865 12.6221 20.155 12.9685 20.1046 13.6551C20.0605 13.7432 20.0353 13.7873 19.9849 13.8818C20.0164 13.4724 20.029 13.2708 20.0605 12.8614C19.6826 12.4583 19.4874 12.2568 19.0969 11.86C18.234 11.8096 17.3648 11.7844 16.4956 11.7718C16.1303 11.7655 15.9539 11.7655 15.5886 11.7718C14.436 11.7781 13.2897 11.8285 12.1371 11.9041C12.1434 11.9482 12.1434 11.9734 12.1434 12.0175C12.0867 11.9734 12.0615 11.9545 12.0048 11.9104C11.2112 11.9734 10.4176 12.0489 9.62399 12.1371C9.25239 12.5591 9.07603 12.767 8.72332 13.1953C8.71072 13.126 8.68552 12.9811 8.59105 12.2694C7.43843 12.4206 6.28582 12.6221 5.1458 12.8488C5.28436 13.5291 5.34735 13.8629 5.48591 14.5431C5.46702 14.6439 5.45442 14.6943 5.43553 14.7888C5.35365 14.3857 5.31585 14.1904 5.23397 13.7873C4.76159 13.5039 4.51595 13.359 4.03097 13.0819C2.87835 13.3338 1.73834 13.6299 0.604614 13.9574C0.82506 14.7069 0.932134 15.0848 1.14628 15.8343C1.24076 15.8091 1.29115 15.7902 1.38562 15.765C1.49899 16.1681 1.55568 16.3697 1.67535 16.7728C1.58087 16.798 1.53049 16.8106 1.43601 16.8421C1.65646 17.5916 1.76353 17.9695 1.97768 18.719L3.98688 19.7016C4.86866 19.4559 5.75045 19.2292 6.64483 19.0213C6.67632 18.9772 6.68892 18.952 6.72041 18.908C6.72671 18.9457 6.73301 18.9646 6.7393 19.0024C8.13756 18.7064 9.52952 18.4734 10.9467 18.297C10.9467 18.2781 10.9467 18.2718 10.9404 18.2529C10.9593 18.2655 10.9719 18.2781 10.9908 18.2907C11.6017 18.2151 12.219 18.1584 12.8362 18.1144C12.874 18.0703 12.8929 18.0514 12.9307 18.0073C12.9307 18.0451 12.937 18.064 12.937 18.1081C13.8314 18.0514 14.7194 18.0199 15.6138 18.0073C15.8972 18.0073 16.0358 18.0073 16.3192 18.0073C16.9932 18.0199 17.6608 18.0388 18.3347 18.0766C18.3725 18.0388 18.3977 18.0199 18.4355 17.9884C18.4355 18.0262 18.4292 18.0451 18.4292 18.0829C19.5944 18.1647 20.7471 18.2781 21.906 18.4293C22.2083 18.4734 22.3595 18.4923 22.6618 18.5426C23.279 18.6434 23.9026 18.7505 24.5135 18.8828C24.8096 18.9457 24.9607 18.9772 25.2567 19.0402C26.1196 19.2418 26.9762 19.4622 27.8328 19.7016L29.9554 18.719C30.1569 18.0199 30.3585 17.3207 30.5663 16.6216C29.9239 16.4264 29.6027 16.3382 28.9539 16.1681ZM23.6506 14.4172C23.6066 14.4109 23.5625 14.4046 23.5247 14.3983C23.5121 14.3542 23.4995 14.3101 23.4869 14.2534C23.5625 14.266 23.6003 14.2723 23.6758 14.2786C23.6632 14.329 23.6569 14.3731 23.6506 14.4172Z" fill="#003D6C"/>
<g id="Group_5">
<path id="Vector_24" d="M5.00729 15.5822C5.10176 16.0231 5.15215 16.2498 5.24663 16.6907C5.04508 16.9867 4.9506 17.1316 4.75535 17.4339C3.95545 17.6229 3.16184 17.8244 2.36194 18.0386C2.26746 17.7047 2.22337 17.5347 2.12889 17.1946C2.22337 17.1694 2.26746 17.1568 2.36194 17.1316C2.17298 16.4513 1.99033 15.7648 1.80138 15.0846C1.7006 15.1098 1.65651 15.1224 1.55574 15.1539C1.46126 14.82 1.41717 14.65 1.32269 14.3099C2.17298 14.0705 3.03587 13.8564 3.89876 13.6611C4.21998 13.8438 4.37744 13.9383 4.69866 14.1209C4.78054 14.5051 4.82463 14.7004 4.90651 15.0846C4.81833 15.2043 4.78054 15.2672 4.69236 15.3932C4.81833 15.4688 4.88132 15.5066 5.00729 15.5822ZM3.64682 14.7382C3.58384 14.7004 3.55234 14.6815 3.48306 14.65C3.25632 14.7067 3.14924 14.7319 2.9225 14.7886C2.97919 15.0027 3.00438 15.1161 3.06107 15.3302C3.28151 15.2735 3.39488 15.2483 3.61533 15.1917C3.65942 15.1287 3.67831 15.0972 3.7161 15.0405C3.69091 14.9208 3.67831 14.8578 3.64682 14.7382ZM3.97434 16.1301C3.91136 16.0923 3.87986 16.0797 3.81688 16.0419C3.59643 16.0923 3.48936 16.1238 3.26891 16.1742C3.3382 16.445 3.36969 16.5773 3.43897 16.8481C3.65312 16.7915 3.76019 16.7663 3.97434 16.7159C4.01213 16.6592 4.03103 16.6277 4.07512 16.571C4.03732 16.3947 4.01843 16.3065 3.97434 16.1301Z" fill="white"/>
<path id="Vector_25" d="M8.07467 12.8804C8.12506 13.2268 8.15025 13.3968 8.20064 13.7433C8.11876 13.7559 8.07467 13.7622 7.99279 13.7748C8.39589 14.4298 8.7927 15.0848 9.1832 15.7525C9.27768 15.7399 9.32806 15.7336 9.42254 15.721C9.46663 16.0674 9.49182 16.2437 9.53591 16.5902C8.93126 16.6657 8.62894 16.7098 8.03058 16.8043C7.9739 16.4579 7.9487 16.2878 7.89202 15.9414C7.94241 15.9351 7.9676 15.9288 8.02429 15.9225C7.99279 15.8595 7.9739 15.828 7.9424 15.7588C7.52041 15.828 7.30626 15.8595 6.88427 15.9351C6.87167 16.0044 6.86537 16.0422 6.85277 16.1178C6.90316 16.1115 6.92835 16.1052 6.97874 16.0926C7.04173 16.439 7.07322 16.6091 7.1299 16.9555C6.53155 17.0625 6.23553 17.1192 5.63717 17.2452C5.56789 16.9051 5.5301 16.735 5.46082 16.3886C5.55529 16.3697 5.60568 16.3571 5.70016 16.3382C5.85132 15.5824 6.01508 14.8329 6.18514 14.0834C6.11585 14.096 6.07806 14.1023 6.00878 14.1149C5.9458 13.7685 5.9143 13.5984 5.84502 13.2583C6.57564 13.1134 7.32516 12.9874 8.07467 12.8804ZM7.02283 15.1541C7.23068 15.1163 7.33146 15.1037 7.5393 15.0659C7.39444 14.8392 7.32516 14.7258 7.18029 14.5054C7.11731 14.7699 7.08582 14.8959 7.02283 15.1541Z" fill="white"/>
<path id="Vector_26" d="M11.3876 14.8895C10.909 14.9336 10.6696 14.9525 10.1972 15.0092C9.91381 14.795 9.76894 14.688 9.47292 14.4738C9.41623 14.0203 9.39104 13.7936 9.33435 13.3401C9.57369 13.063 9.69336 12.9181 9.9327 12.641C10.6759 12.5591 11.0538 12.5213 11.8033 12.4646C12.0931 12.6913 12.2379 12.8047 12.5214 13.0378C12.5403 13.3401 12.5529 13.4912 12.5718 13.7936C12.1183 13.8251 11.8915 13.8377 11.4317 13.8818C11.4191 13.7306 11.4128 13.655 11.4002 13.5038C11.3436 13.4598 11.3184 13.4346 11.2617 13.3905C11.016 13.4094 10.8964 13.422 10.6507 13.4472C10.6003 13.5038 10.5751 13.529 10.5311 13.5857C10.55 13.7369 10.5563 13.8188 10.5688 13.9699C10.6255 14.014 10.657 14.0329 10.7137 14.077C11.1987 14.0266 11.438 14.0077 11.923 13.9699C12.2064 14.1967 12.345 14.31 12.6221 14.5431C12.6536 14.9903 12.6662 15.217 12.6914 15.6642C12.4521 15.9287 12.3324 16.061 12.0994 16.3256C11.4065 16.3759 11.0601 16.4137 10.361 16.4893C10.0839 16.2689 9.939 16.1618 9.65557 15.9476C9.61778 15.6516 9.59889 15.5068 9.5611 15.2107C10.002 15.154 10.2287 15.1288 10.6696 15.0848C10.6822 15.2296 10.6948 15.2989 10.7074 15.4438C10.7641 15.4879 10.7956 15.5131 10.8523 15.5571C11.0853 15.5319 11.205 15.5256 11.438 15.5005C11.4821 15.4501 11.5073 15.4186 11.5514 15.3682C11.5388 15.217 11.5325 15.1477 11.5199 14.9966C11.4695 14.9588 11.4443 14.9336 11.3876 14.8895Z" fill="white"/>
<path id="Vector_27" d="M14.285 15.3304C14.5684 15.3241 14.707 15.3178 14.9904 15.3115C14.9904 15.2486 14.9904 15.2171 14.9904 15.1604C15.3557 15.1541 15.5384 15.1541 15.8974 15.1541C15.8974 15.5635 15.8974 15.7713 15.8974 16.1807C14.9274 16.1807 13.9574 16.2122 12.9875 16.2689C12.9686 15.9225 12.956 15.7461 12.9371 15.3997C13.0316 15.3934 13.082 15.3934 13.1764 15.3871C13.1386 14.6817 13.1009 13.9763 13.0631 13.2645C12.9623 13.2708 12.9119 13.2708 12.8111 13.2771C12.7922 12.9307 12.7796 12.7544 12.7607 12.408C13.8063 12.3576 14.8455 12.3261 15.8911 12.3135C15.8911 12.7229 15.8911 12.9244 15.8911 13.3338C15.5132 13.3338 15.3242 13.3338 14.9463 13.3464C14.9463 13.2897 14.9463 13.2582 14.9463 13.1953C14.6503 13.2016 14.5054 13.2016 14.2157 13.2142C14.222 13.4661 14.2283 13.5858 14.2346 13.8377C14.3039 13.8377 14.3354 13.8314 14.4046 13.8314C14.4046 13.7747 14.4046 13.7432 14.3983 13.6802C14.7699 13.6676 14.9589 13.6676 15.3305 13.6613C15.3368 14.1337 15.3368 14.3668 15.3431 14.8392C14.9778 14.8455 14.7951 14.8455 14.4298 14.8581C14.4298 14.7951 14.4298 14.7636 14.4235 14.7069C14.3542 14.7069 14.3228 14.7069 14.2598 14.7132C14.2724 14.9525 14.2787 15.0785 14.285 15.3304Z" fill="white"/>
<path id="Vector_28" d="M19.3552 14.5368C19.3237 14.9903 19.3112 15.217 19.2797 15.6705C19.0088 15.9035 18.8766 16.0169 18.612 16.25C17.7932 16.2122 16.9807 16.1933 16.1619 16.1807C16.1619 15.8343 16.1619 15.6579 16.1682 15.3052C16.2627 15.3052 16.3131 15.3052 16.4076 15.3052C16.4139 14.5998 16.4202 13.888 16.4265 13.1826C16.3257 13.1826 16.2753 13.1826 16.1745 13.1826C16.1745 12.8362 16.1745 12.6598 16.1808 12.3071C17.0626 12.3134 17.9381 12.3323 18.8136 12.3827C19.0718 12.6472 19.1978 12.7795 19.4497 13.044C19.4245 13.4409 19.4119 13.6361 19.3867 14.0266C19.2734 14.1211 19.2167 14.1715 19.097 14.2659C19.2041 14.373 19.2545 14.4234 19.3552 14.5368ZM18.2782 13.3527C18.2278 13.3023 18.2026 13.2771 18.1459 13.2204C17.9192 13.2141 17.7995 13.2078 17.5728 13.2015C17.5665 13.422 17.5602 13.5353 17.5539 13.7621C17.7806 13.7684 17.894 13.7747 18.1207 13.781C18.1774 13.7306 18.2026 13.7117 18.2593 13.6613C18.2719 13.5416 18.2782 13.4786 18.2782 13.3527ZM18.2215 14.7824C18.1711 14.732 18.1459 14.7068 18.0955 14.6565C17.8751 14.6502 17.7617 14.6439 17.5413 14.6376C17.535 14.9147 17.5287 15.0533 17.5224 15.3304C17.7428 15.3367 17.8499 15.343 18.0704 15.3493C18.127 15.3052 18.1522 15.28 18.2089 15.2359C18.2089 15.0533 18.2089 14.9588 18.2215 14.7824Z" fill="white"/>
<path id="Vector_29" d="M23.0272 12.7669C22.9831 13.1133 22.9579 13.2897 22.9138 13.6361C22.8319 13.6235 22.7878 13.6172 22.706 13.6109C22.9201 14.3541 23.1217 15.0911 23.3169 15.8343C23.4114 15.8469 23.4618 15.8532 23.5563 15.8721C23.5059 16.2185 23.4807 16.3885 23.4303 16.735C22.8256 16.6468 22.5233 16.6027 21.925 16.5334C21.969 16.187 21.9879 16.0106 22.0257 15.6642C22.0761 15.6705 22.1013 15.6705 22.158 15.6768C22.1454 15.6075 22.1328 15.5697 22.1202 15.5005C21.6919 15.4501 21.4841 15.4249 21.0558 15.3871C21.0243 15.4501 21.0054 15.4879 20.9739 15.5508C21.0243 15.5571 21.0495 15.5571 21.1062 15.5634C21.0684 15.9099 21.0558 16.0862 21.018 16.4326C20.4133 16.3696 20.111 16.3444 19.5063 16.3067C19.5315 15.9602 19.5441 15.7839 19.5693 15.4375C19.6638 15.4438 19.7142 15.4501 19.8087 15.4564C20.1614 14.7698 20.5204 14.0896 20.8857 13.4157C20.8164 13.4094 20.7786 13.4031 20.7031 13.3968C20.7345 13.0504 20.7471 12.874 20.7786 12.5276C21.5281 12.5843 22.284 12.6662 23.0272 12.7669ZM21.4022 14.6691C21.61 14.688 21.7108 14.7006 21.9187 14.7257C21.8431 14.4675 21.8053 14.3415 21.7234 14.0896C21.5974 14.3226 21.5281 14.436 21.4022 14.6691Z" fill="white"/>
<path id="Vector_30" d="M25.4646 14.0266C25.3387 14.7258 25.2127 15.4186 25.0867 16.1177C25.3702 16.1681 25.515 16.1933 25.7985 16.25C25.8174 16.1618 25.8237 16.1114 25.8426 16.0233C26.2016 16.0925 26.3779 16.1303 26.7369 16.2059C26.6425 16.6405 26.5984 16.8546 26.5039 17.2892C25.5465 17.0877 24.5829 16.9113 23.6192 16.7602C23.6696 16.4138 23.7011 16.2437 23.7515 15.8973C23.8459 15.9099 23.8963 15.9225 23.9908 15.9351C24.1042 15.2359 24.2113 14.5368 24.3246 13.8377C24.2239 13.8251 24.1735 13.8125 24.0727 13.7999C24.1231 13.4535 24.1546 13.2834 24.205 12.937C24.8726 13.0378 25.2064 13.0945 25.8677 13.2204C25.8048 13.5669 25.7733 13.7369 25.7103 14.077C25.6158 14.0518 25.5654 14.0455 25.4646 14.0266Z" fill="white"/>
<path id="Vector_31" d="M28.721 14.7196C28.551 15.4061 28.3872 16.0926 28.2171 16.7854C28.5006 16.8547 28.6391 16.8925 28.9226 16.9618C28.9478 16.8736 28.9604 16.8295 28.9792 16.7351C29.332 16.8295 29.5083 16.8736 29.861 16.9744C29.7414 17.4027 29.6847 17.6168 29.565 18.0388C28.6202 17.7743 27.6692 17.5413 26.7055 17.3334C26.7811 16.9933 26.8189 16.8232 26.8882 16.4768C26.9826 16.4957 27.033 16.5083 27.1275 16.5272C27.2787 15.8344 27.4361 15.1479 27.5873 14.455C27.4865 14.4361 27.4361 14.4235 27.3416 14.3983C27.4172 14.0582 27.455 13.8882 27.5243 13.5417C28.1856 13.6866 28.5132 13.7622 29.1745 13.926C29.0926 14.2661 29.0485 14.4361 28.9603 14.7762C28.8722 14.7573 28.8218 14.7448 28.721 14.7196Z" fill="white"/>
</g>
</g>
</svg>
