<svg width="31" height="30" viewBox="0 0 31 30" fill="none" xmlns="http://www.w3.org/2000/svg">
<path d="M26.3369 2.0702H25.1545V1.74711H25.3294V0H23.0732V1.64539H23.0189V0H21.0463H20.7628H18.392V0.568408L17.8189 0H16.1358H15.2249H12.9988H12.8782H11.2494L10.7487 0.502593V0H8.08832V0.568408L7.52125 0H4.92725V1.74711H5.10219V2.24372H4.92725V3.99681L5.98898 5.24731H8.215H8.32359H11.6898H11.8406H13.1557H13.2582H15.2671H16.0875H17.4931H17.6017H20.25H21.1126H22.3373H23.1939H25.2751L26.3369 3.99681V2.0702Z" fill="#003D6C"/>
<path d="M15.1404 28.7016C14.0967 28.1691 4.94531 23.2748 4.94531 15.5743C4.94531 15.5384 4.94531 15.4965 4.94531 15.4606C4.94531 15.4128 4.94531 15.3649 4.94531 15.3171V5.06177H26.3248V15.3111C26.3248 15.3589 26.3248 15.4068 26.3248 15.4547C26.3248 15.4906 26.3248 15.5324 26.3248 15.5683C26.3248 23.2688 17.1733 28.1631 16.1297 28.6956L15.6411 28.9469L15.1404 28.7016Z" fill="#003D6C"/>
<path d="M15.6291 6.12695H6.01318V15.3112C6.01318 15.401 6.01318 15.4847 6.01318 15.5745C6.01318 22.6706 14.7544 27.3076 15.6291 27.7564C16.5038 27.3076 25.245 22.6706 25.245 15.5745C25.245 15.4907 25.245 15.401 25.245 15.3112V6.12695H15.6291Z" fill="white"/>
<path d="M6.74313 6.94654L6.01318 6.12085V15.3051C6.01318 15.3949 6.01318 15.4786 6.01318 15.5684C6.01318 22.6645 14.7544 27.3015 15.6291 27.7503L16.0454 9.56122L6.74313 6.94654Z" fill="#C4DBE7"/>
<path d="M24.5271 6.94654L25.257 6.12085V15.3051C25.257 15.3949 25.257 15.4786 25.257 15.5684C25.257 22.6645 16.5158 27.3015 15.6411 27.7503L15.2249 9.56122L24.5271 6.94654Z" fill="#C4DBE7"/>
<path d="M15.6289 6.94653H6.74292V15.4368C6.74292 15.5145 6.74292 15.5983 6.74292 15.6761C6.74292 22.2337 14.8145 26.5177 15.6289 26.9306C16.4373 26.5177 24.5149 22.2277 24.5149 15.6761C24.5149 15.5983 24.5149 15.5145 24.5149 15.4368V6.94653H15.6289Z" fill="#ED232F"/>
<path d="M15.418 5.62427C15.418 5.62427 21.9211 8.2928 25.0098 12.7024C20.1173 8.66974 16.8236 7.76029 16.8236 7.76029L15.418 5.62427Z" fill="white"/>
<path d="M15.1463 7.36548C15.1463 7.36548 13.5899 8.26895 12.2326 11.123C28.9971 16.46 18.7538 20.3611 5.28906 24.1305C37.2436 18.2251 23.4109 11.3264 15.1463 7.36548ZM15.6289 10.034L16.1296 9.14849C16.1296 9.14849 21.9028 11.099 24.1107 14.6232C21.1547 11.835 15.6289 10.034 15.6289 10.034Z" fill="white"/>
<path d="M10.6943 29.1326C10.5918 29.0249 10.5194 28.9471 10.5134 28.9411L10.4772 28.8992C10.4048 28.8214 10.3324 28.7317 10.26 28.6479L10.1997 28.5761C9.92821 28.2231 9.71707 27.8162 9.94631 27.4273C10.2902 26.8589 10.8029 26.9307 11.0442 26.9606C11.2131 26.9846 11.3338 27.0025 11.5027 26.9247C12.0818 26.6375 15.8944 22.7484 16.6244 21.8868C16.745 21.7432 16.9863 21.4441 17.288 21.0671C18.6634 19.3559 21.5228 15.7899 24.1711 13.2051L27.5614 9.9024C28.219 9.26219 29.148 9.11261 29.8176 9.53742L29.8478 9.55537L30.1253 9.7947C30.1856 9.84855 30.2459 9.9024 30.3002 9.95624C30.3726 10.028 30.439 10.0998 30.5053 10.1776L30.7406 10.4588L30.7587 10.4888C31.1749 11.1649 31.0121 12.0803 30.3545 12.7205L26.9763 16.0352C24.328 18.62 20.6843 21.3962 18.9348 22.7245C18.5488 23.0177 18.2471 23.251 18.1024 23.3647C17.2216 24.0767 13.2341 27.7863 12.9385 28.3607C12.8661 28.5223 12.8781 28.6479 12.9023 28.8154C12.9385 29.0667 13.0048 29.5933 12.3895 29.9044C11.8526 30.1796 11.3459 29.7189 10.9779 29.3839C10.9598 29.3659 10.9417 29.3479 10.9236 29.336L10.8934 29.3061C10.8874 29.3001 10.8271 29.2462 10.7366 29.1625L10.6943 29.1326Z" fill="#003D6C"/>
<path d="M26.6082 15.6642L29.9985 12.3615C30.4268 11.9427 30.6379 11.2785 30.3242 10.7699L30.1131 10.5186C30.0166 10.405 29.908 10.2973 29.7934 10.1955L29.546 9.98015C29.0393 9.65706 28.3697 9.8545 27.9414 10.2733L24.5511 13.5761C21.3116 16.7412 17.7101 21.4321 17.0345 22.2279C16.3588 23.0236 12.3954 27.1162 11.7258 27.4034C11.0562 27.6965 10.7063 27.188 10.4047 27.6906C10.284 27.894 10.6581 28.3128 10.9114 28.6C10.9114 28.6 10.9717 28.6718 11.0683 28.7675C11.1648 28.8633 11.2311 28.9231 11.2311 28.9231C11.5207 29.1804 11.9068 29.5693 12.1421 29.4437C12.6669 29.1804 12.1481 28.8034 12.4558 28.1393C12.7634 27.4752 16.95 23.616 17.7644 22.9638C18.5849 22.3116 23.3747 18.8234 26.6082 15.6642Z" fill="#C4DBE7"/>
<path d="M10.5556 27.5229C10.5073 27.5588 10.453 27.6127 10.4108 27.6905C10.2901 27.8939 10.6642 28.3127 10.9175 28.5999C10.9175 28.5999 10.9779 28.6717 11.0744 28.7675C11.1709 28.8632 11.2373 28.923 11.2373 28.923C11.5268 29.1803 11.9129 29.5692 12.1482 29.4436C12.2387 29.4017 12.293 29.3478 12.3291 29.3C11.3277 28.594 10.7908 27.876 10.5556 27.5229Z" fill="#6B9BB1"/>
<path d="M26.6082 15.6641L29.9985 12.3614C30.4268 11.9426 30.638 11.2784 30.3243 10.7699L30.1132 10.5186C30.0709 10.9134 29.4073 11.7391 27.7424 13.3905C25.4138 15.706 21.4624 19.5533 19.7914 20.7918C18.1144 22.0303 16.7027 23.4843 15.3575 24.8245C14.0122 26.1588 12.5523 27.6127 12.1421 28.0196C11.7681 28.3905 12.1542 29.1624 11.8948 29.4376C11.9913 29.4795 12.0758 29.4854 12.1481 29.4495C12.673 29.1863 12.1542 28.8093 12.4618 28.1452C12.7695 27.4811 16.9561 23.6219 17.7705 22.9697C18.5849 22.3115 23.3748 18.8233 26.6082 15.6641Z" fill="#6B9BB1"/>
<path d="M15.9307 23.4185C15.9307 23.4185 18.1205 21.3902 19.2667 19.9422C20.4129 18.4943 22.3433 16.1967 26.9341 11.6255C28.6835 9.8844 28.9369 10.0699 29.4617 9.93825C28.9671 9.68695 28.3457 9.8844 27.9355 10.2793L24.5452 13.582C21.3117 16.7412 17.7103 21.4321 17.0346 22.2278C16.8597 22.4373 16.4495 22.88 15.9307 23.4185Z" fill="white"/>
<path d="M12.5342 12.9239C12.5342 12.9239 17.2456 14.0009 19.3872 15.1556C16.8475 13.3367 14.175 12.3555 14.175 12.3555L12.5342 12.9239Z" fill="white"/>
<path d="M15.5204 16.8309V16.7412C15.5144 16.4061 15.5023 16.0471 15.442 15.6881C15.3998 15.4308 15.3334 15.1795 15.249 14.9402L15.2429 14.9223L15.2369 14.8983C15.0981 14.5872 14.9715 14.3359 14.8206 14.1085C14.6095 13.7854 14.3441 13.4564 13.9881 13.0794C12.8058 11.817 11.4545 10.9853 9.97648 10.6203C9.35513 10.4647 8.75187 10.387 8.18481 10.387C7.51519 10.387 6.91797 10.4947 6.39313 10.7101L6.369 10.722L6.34487 10.734C5.90449 10.9673 5.50031 11.2785 5.11423 11.6853C4.76434 12.0623 4.36016 12.499 4.04043 12.9897L3.88961 13.229L3.81722 13.235C3.76293 13.241 3.69657 13.247 3.62418 13.247C3.52766 13.247 3.41907 13.241 3.31652 13.235L3.2019 13.229C3.05109 13.223 2.89424 13.2111 2.74342 13.1991C2.61071 13.1871 2.48402 13.1811 2.35131 13.1692C2.1643 13.1572 2.00745 13.1512 1.8506 13.1512H1.77218C1.6455 13.1512 1.53691 13.1572 1.44039 13.1752C0.945717 13.247 0.825065 13.8991 1.25941 14.1444C2.9425 15.6702 5.12026 16.8249 5.12026 16.8249C5.0539 16.8908 4.98151 16.9626 4.90912 17.0403C4.55923 17.4113 4.45064 17.8481 4.40238 18.1472C4.26967 18.8951 4.34206 19.6191 4.59543 20.2474C4.78847 20.7081 5.09613 21.1209 5.54254 21.5038L5.68732 21.6415H5.74162C6.18803 21.9227 6.67666 22.1381 7.10498 22.3176L7.11704 22.3235L7.14721 22.3355C7.47296 22.4552 7.79872 22.5569 8.11845 22.6347C8.39595 22.7065 8.67345 22.7424 8.94491 22.7424C9.43355 22.7424 9.89806 22.6287 10.3203 22.4073C10.3505 22.3894 10.3807 22.3774 10.4108 22.3594L10.4289 22.3475C10.4531 22.3355 10.4772 22.3176 10.5013 22.3056C10.6099 22.2398 10.7185 22.168 10.821 22.0842L11.2494 22.0363C11.6535 21.9885 11.9914 21.9346 12.3111 21.8688C12.6489 21.797 12.9867 21.7133 13.3125 21.6115C13.4633 21.5637 13.6262 21.5038 13.8132 21.4261L13.9218 21.3782L14.0002 21.2884C14.3923 20.8517 14.7121 20.3132 14.9715 19.643C15.2007 19.0507 15.4299 18.4045 15.4963 17.7344C15.5325 17.4233 15.5265 17.1241 15.5204 16.8309Z" fill="#003D6C"/>
<path d="M14.9896 16.7473C14.9836 16.4182 14.9715 16.0891 14.9172 15.766C14.881 15.5446 14.8207 15.3173 14.7483 15.1019C14.6458 14.8566 14.5251 14.6172 14.3743 14.3958C14.1451 14.0488 13.8796 13.7377 13.5961 13.4385C12.5706 12.3436 11.3158 11.5 9.84384 11.135C8.82433 10.8837 7.59368 10.7879 6.58624 11.2008C6.17603 11.4162 5.82011 11.7094 5.49435 12.0504C5.13239 12.4333 4.76441 12.8402 4.48088 13.283C5.02381 13.642 6.50782 14.4676 6.90597 15.2574C6.912 15.2574 6.90597 15.2754 6.90597 15.2694C6.53195 14.9463 5.21685 14.0668 3.88365 13.7676C3.65441 13.7975 3.40104 13.7736 3.17784 13.7616C2.89431 13.7497 2.61078 13.7197 2.32121 13.7018C2.16437 13.6958 2.01355 13.6898 1.8567 13.6898C1.76018 13.6898 1.72399 13.8214 1.81448 13.8633C2.30312 14.1266 2.80382 14.3659 3.32262 14.5813C4.22751 14.9583 5.16256 15.2514 6.10967 15.4968C6.1338 15.5027 6.15793 15.5087 6.18206 15.5147C6.23635 15.5267 6.29668 15.5446 6.35097 15.5566C6.35701 15.5566 6.36304 15.5566 6.36907 15.5626C6.94217 15.7062 7.51526 15.8258 8.09439 15.9335C8.87259 16.0831 9.74128 16.2088 10.423 16.6336C10.99 16.9866 11.3761 17.5311 11.5812 18.1593C11.5812 18.1653 11.5752 18.1653 11.5692 18.1593C11.5631 18.1473 11.5571 18.1294 11.5511 18.1174C11.2374 17.6926 10.1817 16.8131 8.80623 16.5678C7.80482 16.3883 6.81548 16.1908 6.30875 16.0652C6.25445 16.2088 6.18206 16.3464 6.09761 16.472C6.07951 16.5019 6.05538 16.5319 6.03728 16.5618C5.95886 16.6695 5.88043 16.7772 5.80201 16.8669C5.65119 17.0584 5.46418 17.214 5.29527 17.3875C5.07207 17.6268 4.97555 17.914 4.92125 18.2311C4.8187 18.8354 4.84886 19.4756 5.08413 20.044C5.26511 20.4748 5.54864 20.8099 5.8925 21.109C6.32684 21.4022 6.81548 21.6236 7.30412 21.827H7.31015C7.61781 21.9347 7.92548 22.0305 8.23314 22.1142C8.86656 22.2758 9.49395 22.2279 10.067 21.9228C10.0972 21.9108 10.1213 21.8928 10.1515 21.8749C10.1696 21.8629 10.1877 21.851 10.2058 21.839C10.3204 21.7672 10.435 21.6894 10.5376 21.6057C10.5617 21.5877 10.5798 21.5698 10.5979 21.5518C10.9297 21.2586 11.1951 20.8936 11.3882 20.4988C11.6596 19.9483 11.9432 19.1465 11.6838 18.5482C11.6777 18.5362 11.6958 18.5243 11.7019 18.5362C11.7139 18.5542 12.661 19.7389 11.5088 21.4501C11.8467 21.4082 11.8467 21.4022 12.1845 21.3304C12.5042 21.2646 12.8239 21.1808 13.1376 21.0851C13.2945 21.0372 13.4453 20.9774 13.5901 20.9176C13.9822 20.4868 14.2536 19.9722 14.4648 19.4337C14.688 18.8713 14.8931 18.267 14.9534 17.6627C15.0077 17.3695 14.9957 17.0584 14.9896 16.7473Z" fill="#C4DBE7"/>
<path d="M9.75922 19.0208C9.75319 18.9969 9.75319 18.973 9.74716 18.949C9.66873 18.7815 9.53602 18.6439 9.35504 18.5601L9.31884 18.5422L9.20422 18.4883L8.49841 18.1533C8.08217 17.9558 7.58749 18.1293 7.38842 18.5422L7.32809 18.6618C7.24364 18.8354 7.22554 19.0268 7.26777 19.2003C7.27983 19.2243 7.2919 19.2422 7.30396 19.2662C7.37635 19.4875 7.5332 19.679 7.75641 19.7807L8.54667 20.1517C8.98102 20.3551 9.50585 20.1756 9.71096 19.7448L9.73509 19.691C9.83161 19.4756 9.83764 19.2303 9.75922 19.0208Z" fill="#6B9BB1"/>
<path d="M9.34916 18.5601L8.49254 18.1533C8.07629 17.9558 7.58162 18.1293 7.38254 18.5422L7.32222 18.6618C7.29206 18.7277 7.26792 18.7995 7.25586 18.8653C7.31619 19.0926 7.47303 19.2961 7.7083 19.4098L8.45634 19.7628C8.87259 19.9602 9.36726 19.7867 9.56634 19.3739L9.60253 19.3021C9.67492 19.1465 9.69905 18.979 9.67492 18.8174C9.59047 18.7097 9.48188 18.62 9.34916 18.5601Z" fill="#003D6C"/>
<path d="M3.1837 13.7555C2.90017 13.7435 2.61664 13.7136 2.32707 13.6957C2.17023 13.6897 2.01941 13.6837 1.86256 13.6837C1.76604 13.6837 1.72985 13.8153 1.82034 13.8572C1.92289 13.9111 2.03148 13.9709 2.14006 14.0248C2.80968 14.0726 3.86538 14.1025 4.70391 14.0068C4.43847 13.9051 4.16701 13.8213 3.89554 13.7555C3.66027 13.7914 3.41294 13.7675 3.1837 13.7555ZM9.84969 11.1289C8.83019 10.8776 7.59954 10.7818 6.5921 11.1947C6.18189 11.4101 5.82597 11.7033 5.50021 12.0443C5.13825 12.4272 4.77027 12.8341 4.48673 13.2769C4.66168 13.3905 4.93314 13.5581 5.23477 13.7495C6.54987 11.9246 7.72019 10.6323 11.6776 11.8768C11.1165 11.5477 10.5072 11.2904 9.84969 11.1289Z" fill="white"/>
<path d="M11.7018 18.566C11.7501 18.7096 11.7803 18.8532 11.7984 18.9968C11.7923 18.8472 11.7622 18.6976 11.7018 18.566ZM14.9896 16.7471C14.9836 16.4898 14.9775 16.2266 14.9474 15.9693C14.5311 17.4771 10.9357 15.9274 7.69019 15.8496C7.8229 15.8795 7.96165 15.9035 8.09437 15.9274C8.87257 16.077 9.74126 16.2026 10.4229 16.6274C10.99 16.9804 11.3761 17.5249 11.5812 18.1532L11.6958 18.566C11.6898 18.554 11.7079 18.5421 11.7139 18.554C11.726 18.572 12.6731 19.7567 11.5209 21.4679C11.8587 21.426 11.8587 21.42 12.1965 21.3482C12.5162 21.2824 12.836 21.1986 13.1497 21.1029C13.3065 21.055 13.4573 20.9952 13.6021 20.9354C13.9942 20.5046 14.2657 19.99 14.4768 19.4515C14.7 18.8891 14.9051 18.2848 14.9655 17.6805C15.0077 17.3694 14.9956 17.0582 14.9896 16.7471Z" fill="#6B9BB1"/>
<path d="M6.31464 16.0652C6.26034 16.2088 6.18795 16.3464 6.1035 16.472C6.0854 16.502 6.06127 16.5319 6.04317 16.5618C5.96475 16.6695 5.88632 16.7772 5.8079 16.8669C5.65709 17.0584 5.47008 17.214 5.30117 17.3875C5.07796 17.6268 4.98144 17.914 4.92715 18.2311C4.82459 18.8354 4.85475 19.4756 5.09002 20.044C5.20464 20.3253 5.36752 20.5646 5.56057 20.78C5.17448 19.8227 5.0297 18.2431 5.53644 17.7525C6.02507 17.2858 6.5861 16.5079 6.81534 16.1729C6.6223 16.137 6.45339 16.1011 6.31464 16.0652Z" fill="white"/>
<path d="M14.9813 13.0223C17.142 12.369 18.3595 10.1021 17.7008 7.95917C17.0421 5.81621 14.7566 4.6086 12.596 5.26191C10.4354 5.91521 9.21781 8.18204 9.87651 10.325C10.5352 12.468 12.8207 13.6756 14.9813 13.0223Z" fill="#003D6C"/>
<path d="M13.7891 12.7026C15.7715 12.7026 17.3785 11.1087 17.3785 9.14255C17.3785 7.1764 15.7715 5.58252 13.7891 5.58252C11.8067 5.58252 10.1997 7.1764 10.1997 9.14255C10.1997 11.1087 11.8067 12.7026 13.7891 12.7026Z" fill="#C4DBE7"/>
<path d="M10.628 7.44925C10.0609 8.49033 10.073 9.68698 10.5496 10.6742C10.6099 10.7101 10.6642 10.746 10.7245 10.7759C12.4679 11.7093 14.6457 11.0631 15.5868 9.33397C16.1538 8.29289 16.1418 7.09624 15.6652 6.109C15.6049 6.0731 15.5506 6.0372 15.4902 6.00729C13.7468 5.0739 11.5691 5.72009 10.628 7.44925Z" fill="white"/>
<path d="M14.4166 5.63616C14.121 5.58231 13.8194 5.57034 13.5238 5.59427C13.5781 6.62339 13.8676 7.90979 14.7966 8.91498C15.4059 9.56715 16.2143 10.0099 17.2036 10.2373C17.2941 9.95606 17.3484 9.66288 17.3665 9.37568C16.5642 9.1902 15.9187 8.83719 15.4421 8.32263C14.7182 7.53883 14.4769 6.50373 14.4166 5.63616ZM10.2058 9.38765C11.0685 9.53723 12.082 9.89024 12.7878 10.686C13.2523 11.2125 13.5419 11.8886 13.6384 12.7024C13.934 12.7143 14.2296 12.6904 14.5191 12.6306C14.3985 11.6254 14.0426 10.7817 13.4514 10.1116C12.5404 9.08251 11.2796 8.66368 10.2541 8.50213C10.1998 8.79531 10.1877 9.09447 10.2058 9.38765Z" fill="#C4DBE7"/>
<path d="M14.0967 10.9553C13.976 11.1348 13.8614 11.3023 13.7227 11.4639L13.8916 11.6074C14.0303 11.4519 14.163 11.2844 14.2897 11.1108C14.3259 11.057 14.3078 10.9792 14.2535 10.9373C14.2053 10.8954 14.1329 10.9014 14.0967 10.9553ZM12.0335 10.339C12.0516 10.3928 12.1059 10.4048 12.1602 10.3749C12.2507 10.327 12.3412 10.2792 12.4377 10.2373C12.5342 10.1954 12.6247 10.1535 12.7213 10.1176C12.6971 10.0518 12.673 9.98001 12.6428 9.91419C12.4498 9.99795 12.2688 10.0877 12.0939 10.1954C12.0335 10.2253 12.0154 10.2911 12.0335 10.339ZM13.2582 11.8767C13.4693 11.8827 13.6623 11.9126 13.8735 11.9485C13.8855 11.8767 13.9036 11.8049 13.9157 11.7331C13.7046 11.7032 13.4995 11.6912 13.2943 11.6852C13.234 11.6852 13.1797 11.7271 13.1677 11.781C13.1556 11.8288 13.1978 11.8707 13.2582 11.8767ZM11.6294 9.91419C11.5811 9.95009 11.569 10.0159 11.5932 10.0698C11.6173 10.1176 11.6776 10.1296 11.7259 10.0937C11.8103 10.0339 11.8948 9.97402 11.9792 9.92017C12.0637 9.86632 12.1542 9.81247 12.2447 9.75863C12.2085 9.69281 12.1783 9.62699 12.1361 9.56716C11.9551 9.67486 11.7862 9.79452 11.6294 9.91419ZM14.3681 11.5775C14.2234 11.7391 14.0725 11.8887 13.9217 12.0263C13.97 12.0801 14.0303 12.134 14.0725 12.1878C14.2354 12.0502 14.3802 11.9066 14.531 11.751C14.5733 11.7032 14.5733 11.6254 14.525 11.5775C14.4828 11.5297 14.4104 11.5297 14.3681 11.5775ZM11.2976 9.13637C11.2734 8.93294 11.2372 8.71754 11.195 8.51411C11.1829 8.45428 11.1166 8.41239 11.0502 8.42436C10.9839 8.43633 10.9416 8.49616 10.9597 8.55599C11.008 8.76541 11.0502 8.96884 11.0804 9.17227L11.2976 9.13637ZM10.821 9.01072C10.6762 9.1603 10.5435 9.32185 10.4168 9.4834C10.3806 9.53126 10.3806 9.60306 10.4228 9.63896C10.4651 9.68084 10.5254 9.67486 10.5616 9.62699C10.6943 9.46545 10.827 9.32185 10.9778 9.16628L10.821 9.01072ZM11.5449 9.3757L11.4062 9.20817C11.2493 9.3398 11.0985 9.48938 10.9597 9.63298C10.9175 9.67486 10.9115 9.74666 10.9477 9.78854C10.9839 9.83042 11.0442 9.83042 11.0864 9.78854C11.2312 9.64494 11.382 9.50733 11.5449 9.3757ZM13.4693 12.1878C13.409 12.1759 13.3486 12.2177 13.3366 12.2656C13.3245 12.3135 13.3547 12.3673 13.415 12.3793C13.6141 12.4212 13.8131 12.469 14.0183 12.5289L14.0786 12.3195C13.8735 12.2656 13.6744 12.2177 13.4693 12.1878ZM10.5435 8.34658C10.5254 8.28675 10.459 8.25085 10.3927 8.2688C10.3263 8.28675 10.2962 8.34658 10.3143 8.40641C10.3806 8.60386 10.4409 8.80729 10.4892 9.01072C10.5616 8.99277 10.634 8.97482 10.7064 8.95687C10.6581 8.75344 10.6038 8.54403 10.5435 8.34658ZM14.5914 12.4391C14.4948 12.5169 14.3923 12.5947 14.2897 12.6665C14.4526 12.6425 14.6094 12.6126 14.7663 12.5648C14.7723 12.5289 14.7723 12.493 14.7482 12.4631C14.712 12.4092 14.6396 12.3972 14.5914 12.4391ZM13.5718 10.9912C13.3607 11.0031 13.1556 11.0271 12.9565 11.063C12.8962 11.0749 12.854 11.1288 12.854 11.1826C12.854 11.2365 12.9022 11.2724 12.9626 11.2604C13.0651 11.2485 13.1677 11.2305 13.2702 11.2245C13.3728 11.2185 13.4753 11.2126 13.5779 11.2126C13.5718 11.1408 13.5779 11.063 13.5718 10.9912ZM13.7468 10.1416C13.6865 10.1116 13.6201 10.1356 13.596 10.1954C13.5176 10.3988 13.4271 10.5843 13.3305 10.7698L13.5236 10.8775C13.6261 10.698 13.7347 10.5065 13.8131 10.3091C13.8433 10.2493 13.8131 10.1775 13.7468 10.1416ZM12.0396 9.4834C12.0456 9.38168 12.0456 9.27398 12.0456 9.16628C12.0456 9.05859 12.0396 8.95687 12.0335 8.84917C12.0275 8.78336 11.9672 8.73549 11.9008 8.73549C11.8345 8.73549 11.7862 8.78934 11.7922 8.84917C11.8103 9.05859 11.8224 9.27398 11.8224 9.47741C11.8948 9.47143 11.9672 9.47741 12.0396 9.4834ZM12.5584 9.81846C12.5765 9.71674 12.5946 9.60904 12.6066 9.50733C12.6187 9.40561 12.6247 9.29792 12.6368 9.19022C12.6428 9.1244 12.5885 9.06457 12.5222 9.05859C12.4558 9.0526 12.3955 9.10047 12.3955 9.1603C12.3895 9.36971 12.3714 9.58511 12.3412 9.78854C12.4136 9.79453 12.486 9.80649 12.5584 9.81846ZM12.6247 10.6561C12.5704 10.6741 12.5342 10.7339 12.5403 10.7877C12.5463 10.8416 12.6006 10.8655 12.6609 10.8476C12.854 10.7877 13.053 10.7459 13.2582 10.704L13.222 10.4886C13.0168 10.5305 12.8117 10.5903 12.6247 10.6561ZM12.9505 10.3031L13.1616 10.3749C13.2401 10.1834 13.3064 9.98001 13.3607 9.77059C13.3788 9.71076 13.3305 9.63896 13.2642 9.62101C13.1978 9.59708 13.1375 9.63298 13.1194 9.69879C13.0772 9.90821 13.0229 10.1057 12.9505 10.3031Z" fill="#ED232F"/>
<path d="M15.5385 9.78874C15.5747 9.84857 15.6532 9.87251 15.7075 9.84259C15.8945 9.73489 16.0754 9.62121 16.2504 9.50155L16.1237 9.32205C15.9488 9.44171 15.7678 9.53745 15.5747 9.63916C15.5204 9.66309 15.5023 9.73489 15.5385 9.78874ZM15.0258 7.57494C14.9051 7.73649 14.7905 7.90402 14.6879 8.0895C14.7483 8.1254 14.8207 8.1613 14.887 8.19121C14.9353 8.10147 14.9835 8.01172 15.0378 7.92197C15.0921 7.83222 15.1464 7.74846 15.2068 7.66469C15.2429 7.61682 15.2309 7.55699 15.1826 7.53306C15.1344 7.50913 15.068 7.52707 15.0258 7.57494ZM16.4977 8.80749C16.4434 8.81347 16.3952 8.86134 16.3891 8.92117C16.371 9.11862 16.365 9.32803 16.371 9.53745C16.4434 9.53146 16.5219 9.52548 16.5942 9.5195C16.5822 9.31008 16.5761 9.11263 16.5882 8.9092C16.5942 8.84339 16.552 8.80151 16.4977 8.80749ZM14.3924 7.55699C14.4466 7.60486 14.513 7.64076 14.5733 7.68264C14.6337 7.59887 14.694 7.51511 14.7603 7.43733C14.8267 7.35954 14.8931 7.28176 14.9654 7.20398C15.0077 7.1621 15.0016 7.10226 14.9594 7.06636C14.9112 7.03645 14.8448 7.04243 14.8026 7.08431C14.6578 7.2339 14.519 7.38946 14.3924 7.55699ZM16.1599 10.1298C16.2021 10.1777 16.2866 10.1896 16.3348 10.1537C16.5098 10.0221 16.6666 9.89644 16.8235 9.74686C16.7692 9.69899 16.727 9.63318 16.6787 9.57933C16.5219 9.71694 16.3529 9.84857 16.178 9.97422C16.1237 10.0041 16.1116 10.0819 16.1599 10.1298ZM14.1088 6.46804C13.9037 6.41419 13.7046 6.35436 13.5056 6.28854C13.4452 6.27059 13.3849 6.30051 13.3668 6.36632C13.3487 6.43214 13.3849 6.49796 13.4452 6.51591C13.6503 6.58172 13.8555 6.63557 14.0606 6.68344L14.1088 6.46804ZM14.1149 6.37231C14.2838 6.24666 14.4466 6.12699 14.6216 6.01331C14.6699 5.97741 14.6879 5.91758 14.6518 5.8757C14.6156 5.83382 14.5432 5.82185 14.4949 5.85177C14.32 5.95946 14.151 6.07913 13.9821 6.19879L14.1149 6.37231ZM14.7241 6.53984C14.7724 6.50394 14.7784 6.43812 14.7422 6.40222C14.706 6.36034 14.6337 6.36034 14.5854 6.39624C14.4225 6.52189 14.2596 6.65352 14.1088 6.79114L14.2657 6.9467C14.4165 6.8031 14.5673 6.66549 14.7241 6.53984ZM16.9441 9.75883L17.1613 9.71694C17.1251 9.51351 17.0949 9.31008 17.0768 9.10665C17.0708 9.04682 17.0226 9.01092 16.9683 9.0169C16.914 9.02289 16.8717 9.08272 16.8778 9.14255C16.8898 9.35197 16.914 9.5554 16.9441 9.75883ZM13.9278 6.07913C13.952 6.00733 13.9761 5.94151 14.0063 5.8757C13.8132 5.8039 13.6141 5.72612 13.4211 5.63637C13.3668 5.61244 13.2944 5.63637 13.2703 5.6962C13.2462 5.75603 13.2763 5.82783 13.3367 5.85177C13.5297 5.93553 13.7348 6.01331 13.9278 6.07913ZM17.0226 10.4409C17.0527 10.4648 17.0889 10.4708 17.1251 10.4648C17.1854 10.3153 17.2397 10.1597 17.2759 10.0041C17.1915 10.0999 17.107 10.1896 17.0165 10.2794C16.9683 10.3213 16.9683 10.393 17.0226 10.4409ZM15.8884 9.14255C15.9005 9.04084 15.9186 8.93912 15.9367 8.84339C15.9548 8.74167 15.9789 8.63996 16.003 8.54423C16.0151 8.48439 15.991 8.43653 15.9367 8.43054C15.8824 8.42456 15.8221 8.46644 15.81 8.52029C15.7557 8.71176 15.7075 8.9092 15.6713 9.11862C15.7436 9.13657 15.816 9.13657 15.8884 9.14255ZM14.9594 9.29213C15.1645 9.2323 15.3696 9.14853 15.5566 9.06477L15.4662 8.86134C15.2731 8.93912 15.074 9.00494 14.8629 9.05879C14.8026 9.07674 14.7664 9.13657 14.7965 9.20238C14.8267 9.2682 14.8991 9.31008 14.9594 9.29213ZM14.3381 7.2339C14.133 7.20996 13.9218 7.18005 13.7107 7.13816C13.6503 7.1262 13.59 7.16808 13.584 7.2339C13.578 7.29971 13.6262 7.36553 13.6865 7.37749C13.7951 7.39544 13.8977 7.41339 14.0002 7.42536C14.1088 7.43733 14.2114 7.44929 14.32 7.45528C14.326 7.37749 14.326 7.30569 14.3381 7.2339ZM14.5914 7.77837C14.3863 7.78435 14.1691 7.77837 13.958 7.7664C13.8977 7.76042 13.8434 7.80829 13.8434 7.88009C13.8434 7.9459 13.9037 8.00573 13.964 8.01172C14.0726 8.0177 14.1752 8.0177 14.2838 8.0177C14.3924 8.0177 14.5009 8.01172 14.6035 8.00573C14.5975 7.92197 14.5914 7.85017 14.5914 7.77837ZM15.2007 8.71774L15.4119 8.77757C15.4722 8.57414 15.5385 8.38866 15.617 8.20318C15.6411 8.14933 15.623 8.09548 15.5687 8.07753C15.5204 8.06557 15.4541 8.09548 15.43 8.14933C15.3455 8.32883 15.261 8.52628 15.2007 8.71774ZM14.4225 8.53824C14.3562 8.54423 14.32 8.60406 14.332 8.66987C14.3441 8.73569 14.4105 8.78954 14.4708 8.77757C14.6879 8.74167 14.8991 8.69979 15.0982 8.64594L15.0439 8.43054C14.8388 8.48439 14.6337 8.51431 14.4225 8.53824Z" fill="#ED232F"/>
<path d="M9.71704 9.07653C10.6461 9.16628 12.0516 9.48938 12.9746 10.5305C13.5598 11.1886 13.8735 12.0502 13.9217 13.1092C14.0545 13.0853 14.1872 13.0554 14.3199 13.0135C14.2535 11.9006 13.9097 10.9792 13.2763 10.2672C12.2749 9.13637 10.8029 8.78336 9.8015 8.68164C9.7653 8.81327 9.73514 8.9449 9.71704 9.07653Z" fill="#003D6C"/>
<path d="M14.157 5.11572C14.151 6.04313 14.3199 7.46116 15.267 8.47831C15.8642 9.1245 16.6967 9.52538 17.7524 9.68692C17.7162 9.81855 17.668 9.9442 17.6137 10.0699C16.5037 9.89035 15.6229 9.44759 14.9714 8.74755C13.9398 7.64065 13.7468 6.15082 13.7528 5.15761C13.8855 5.13367 14.0243 5.12171 14.157 5.11572Z" fill="#003D6C"/>
<path d="M7.75646 2.13561V2.98523L7.29195 3.44594H5.48218V2.79377H5.65712V1.20222H5.48218V0.550049H7.29195L7.75646 1.01674V1.75866L7.56342 1.95013L7.75646 2.13561ZM6.95413 1.29197L6.8576 1.19624H6.45945V1.61507H6.8576L6.95413 1.51933V1.29197ZM6.95413 2.36297L6.86364 2.27322H6.46549V2.79377H6.86364L6.96016 2.70402V2.36297H6.95413Z" fill="white"/>
<path d="M10.1996 0.550537V1.20271H10.0488L10.6883 2.79425H10.8632V3.44643H9.74717V2.79425H9.84369L9.80146 2.66262H9.02326L8.975 2.79425H9.07152V3.44643H7.94946V2.79425H8.12441L8.76386 1.20271H8.63718V0.550537H10.1996ZM9.22234 2.10618H9.59636L9.40935 1.64547L9.22234 2.10618Z" fill="white"/>
<path d="M12.3412 2.32744H11.4845L11.02 1.86673V1.01113L11.4845 0.544434H12.7695L13.234 1.01113V1.57954H12.4316V1.29234L12.3412 1.19661H11.9128L11.8163 1.29234V1.58552L11.9128 1.67527H12.7695L13.234 2.14196V2.9856L12.7695 3.44631H11.4845L11.02 2.9856V2.42916H11.8224V2.6984L11.9189 2.79413H12.3472L12.4377 2.70439V2.42317L12.3412 2.32744Z" fill="white"/>
<path d="M14.4103 2.79425H14.9231V2.68057H15.5806V3.45241H13.427V2.79425H13.6019V1.20271H13.427V0.550537H15.5806V1.31639H14.9231V1.20271H14.4103V1.6694H14.531V1.55572H15.1885V2.43526H14.531V2.32158H14.4103V2.79425Z" fill="white"/>
<path d="M18.0601 2.1361V2.98572L17.5956 3.44643H15.7858V2.79425H15.9608V1.20271H15.7798V0.550537H17.5896L18.0541 1.01723V1.75915L17.861 1.95062L18.0601 2.1361ZM17.2517 1.29246L17.1552 1.19673H16.7571V1.61556H17.1552L17.2517 1.51982V1.29246ZM17.2517 2.36346L17.1552 2.27371H16.7571V2.79425H17.1552L17.2517 2.70451V2.36346Z" fill="white"/>
<path d="M20.4972 0.550537V1.20271H20.3524L20.9919 2.79425H21.1668V3.44643H20.0448V2.79425H20.1413L20.0991 2.66262H19.3209L19.2726 2.79425H19.3691V3.44643H18.2471V2.79425H18.422L19.0615 1.20271H18.9348V0.550537H20.4972ZM19.5199 2.10618H19.894L19.707 1.64547L19.5199 2.10618Z" fill="white"/>
<path d="M22.2949 1.20271V2.79425H22.8197V2.62074H23.4773V3.44643H21.3176V2.79425H21.4926V1.20271H21.3176V0.550537H22.4698V1.20271H22.2949Z" fill="white"/>
<path d="M24.6055 1.20271V2.79425H25.1303V2.62074H25.7878V3.44643H23.6282V2.79425H23.8031V1.20271H23.6282V0.550537H24.7804V1.20271H24.6055Z" fill="white"/>
<path d="M27.6881 26.111C27.9898 25.2734 28.1466 24.8545 28.4482 24.0169C27.29 23.622 26.1257 23.269 24.9433 22.9638C24.4909 22.8501 24.2677 22.8023 23.8152 22.7065C22.4096 22.4253 21.004 22.2099 19.5743 22.0603C19.5743 22.0723 19.5743 22.0783 19.5743 22.0843C19.5622 22.0723 19.5562 22.0663 19.5441 22.0544C18.6755 21.9886 17.8188 21.9407 16.9501 21.9108C16.5641 22.2279 16.371 22.3834 16.003 22.7125C16.003 22.3894 15.997 22.2279 15.997 21.9048C14.7362 21.9108 13.4814 21.9945 12.2327 22.1262C12.1965 22.1321 12.1844 22.1321 12.1482 22.1381C10.5918 22.3176 9.0354 22.5929 7.51519 22.9758C7.7203 23.7835 7.82285 24.1844 8.02193 24.9921C8.12448 24.9682 8.17274 24.9562 8.26926 24.9323C8.32959 25.1776 8.35975 25.2973 8.42008 25.5426C8.10638 25.6204 7.9435 25.6563 7.62981 25.74C7.56345 25.4947 7.53329 25.3751 7.46693 25.1298C7.56345 25.1058 7.61774 25.0879 7.71426 25.0639C7.50312 24.2562 7.39454 23.8553 7.1834 23.0536C6.1277 23.3288 5.08406 23.6459 4.05249 24.0169C4.33602 24.8007 4.4808 25.1896 4.76433 25.9734C4.86086 25.9375 4.90912 25.9195 5.00564 25.8896C5.12026 26.2127 5.18058 26.3743 5.2952 26.6974C5.19868 26.7333 5.15042 26.7452 5.05993 26.7811C5.34346 27.5649 5.48824 27.9538 5.77177 28.7377C6.74302 28.3906 7.73839 28.0915 8.7398 27.8402C9.15002 27.7385 9.35512 27.6906 9.77137 27.6008C10.5858 27.4273 10.99 27.3555 11.8104 27.2359C12.2025 27.182 12.4016 27.1521 12.7937 27.1102C14.139 26.9666 15.4963 26.8948 16.8536 26.9247C16.8838 26.9247 16.8958 26.9247 16.926 26.9247C17.7887 26.9427 18.223 26.9666 19.0796 27.0444C19.3511 26.823 19.4899 26.7153 19.7674 26.4999C19.9906 26.7692 20.1052 26.9068 20.3223 27.182C21.2091 27.2957 21.6495 27.3735 22.5303 27.553C22.6389 27.4812 22.6932 27.4513 22.8017 27.3795C22.7836 27.4692 22.7716 27.5111 22.7535 27.6008C24.1108 27.912 25.4259 28.2829 26.741 28.7317C27.0426 27.894 27.1995 27.4752 27.5011 26.6316C27.2839 26.5538 27.1754 26.5179 26.9582 26.4461C27.0306 26.2307 27.0668 26.129 27.1392 25.9136C27.3563 25.9913 27.4649 26.0332 27.6881 26.111ZM11.9069 24.4058C12.0215 24.3938 12.0758 24.3818 12.1904 24.3699C12.118 24.6032 12.0818 24.7229 12.0155 24.9562C12.0034 24.9562 11.9974 24.9562 11.9793 24.9622C11.9491 24.7408 11.9371 24.6331 11.9069 24.4058Z" fill="#003D6C"/>
<path d="M6.62237 24.729C6.85764 25.5308 6.97226 25.9257 7.20753 26.7274C7.49106 26.6437 7.63584 26.6078 7.91937 26.53C7.89524 26.4402 7.88318 26.3984 7.85905 26.3086C8.21497 26.2129 8.39595 26.171 8.7579 26.0872C8.86045 26.512 8.90872 26.7215 9.01127 27.1403C8.05209 27.3617 7.10497 27.6309 6.16993 27.948C6.06134 27.6249 6.00705 27.4634 5.89243 27.1343C5.98895 27.1044 6.03118 27.0864 6.1277 27.0565C5.8683 26.2667 5.73558 25.8718 5.47015 25.082C5.36759 25.112 5.31933 25.1299 5.22281 25.1658C5.11422 24.8427 5.05993 24.6812 4.94531 24.3521C5.62096 24.1247 5.95879 24.023 6.64047 23.8315C6.73699 24.1606 6.77922 24.3282 6.87574 24.6572C6.77318 24.6871 6.72492 24.6991 6.62237 24.729Z" fill="white"/>
<path d="M10.3625 25.9853C10.646 25.9315 10.7848 25.9075 11.0683 25.8657C11.0563 25.8058 11.0563 25.7759 11.0442 25.7161C11.4122 25.6562 11.5932 25.6323 11.9611 25.5844C12.0154 25.9853 12.0396 26.1828 12.0939 26.5837C11.1286 26.7093 10.1695 26.8828 9.21632 27.0982C9.13789 26.7631 9.1017 26.5956 9.02327 26.2665C9.11979 26.2426 9.16806 26.2366 9.26458 26.2127C9.0836 25.399 8.99311 24.9921 8.81213 24.1784C8.70958 24.2023 8.66132 24.2143 8.55877 24.2382C8.48034 23.9032 8.44415 23.7356 8.36572 23.4065C9.43349 23.1672 10.5073 22.9698 11.5932 22.8262C11.6474 23.2211 11.6716 23.4245 11.7259 23.8194C11.3398 23.8732 11.1467 23.8972 10.7607 23.963C10.7486 23.9032 10.7486 23.8792 10.7365 23.8194C10.4349 23.8673 10.2841 23.8912 9.98849 23.951C10.0307 24.1904 10.0548 24.31 10.1031 24.5493C10.1695 24.5374 10.2057 24.5314 10.272 24.5194C10.26 24.4596 10.2539 24.4357 10.2479 24.3758C10.6279 24.31 10.8149 24.2801 11.195 24.2203C11.2614 24.675 11.2976 24.9024 11.3699 25.3571C11.002 25.4109 10.821 25.4409 10.453 25.5067C10.4409 25.4468 10.4349 25.4169 10.4289 25.3571C10.3625 25.3691 10.3263 25.375 10.26 25.387C10.2901 25.6263 10.3142 25.746 10.3625 25.9853Z" fill="white"/>
<path d="M15.2851 22.5271C15.2972 22.8681 15.2972 23.0417 15.3092 23.3827C15.2248 23.3827 15.1765 23.3887 15.0921 23.3887C15.4299 24.0648 15.7557 24.7529 16.0573 25.4529C16.1538 25.4529 16.2021 25.4529 16.2986 25.4529C16.2986 25.794 16.2986 25.9675 16.2986 26.3085C15.6893 26.3085 15.3877 26.3145 14.7784 26.3444C14.7603 26.0034 14.7543 25.8299 14.7362 25.4888C14.7904 25.4888 14.8146 25.4828 14.8689 25.4828C14.8447 25.417 14.8266 25.3811 14.8025 25.3153C14.3682 25.3332 14.151 25.3452 13.7166 25.3811C13.6986 25.4529 13.6865 25.4828 13.6684 25.5546C13.7227 25.5486 13.7468 25.5486 13.8011 25.5427C13.8252 25.8837 13.8373 26.0572 13.8675 26.3983C13.2642 26.4461 12.9626 26.476 12.3593 26.5478C12.3171 26.2068 12.293 26.0393 12.2507 25.6982C12.3473 25.6863 12.3955 25.6803 12.492 25.6683C12.7032 24.9443 12.9445 24.2204 13.1978 23.5024C13.1255 23.5084 13.0832 23.5143 13.0108 23.5203C12.9807 23.1793 12.9626 23.0117 12.9324 22.6707C13.7106 22.5989 14.5009 22.551 15.2851 22.5271ZM13.9459 24.6332C14.157 24.6212 14.2656 24.6093 14.4768 24.6033C14.3561 24.3699 14.2958 24.2503 14.1751 24.0169C14.0786 24.2622 14.0364 24.3879 13.9459 24.6332Z" fill="white"/>
<path d="M19.7192 24.3759C19.6589 24.9742 19.6227 25.2734 19.5624 25.8717C19.2788 26.0871 19.1401 26.1948 18.8686 26.4162C18.1749 26.3564 17.825 26.3384 17.1252 26.3205C16.8779 26.0692 16.7512 25.9495 16.4978 25.7042C16.5038 24.8426 16.5099 23.987 16.5159 23.1254C16.7934 22.8861 16.9382 22.7664 17.2277 22.5271C18.012 22.551 18.3981 22.569 19.1823 22.6348C19.4417 22.8981 19.5744 23.0357 19.8278 23.3049C19.7916 23.64 19.7735 23.8075 19.7373 24.1426C19.2728 24.0947 19.0375 24.0768 18.573 24.0409C18.5851 23.8494 18.5911 23.7596 18.6032 23.5682C18.5549 23.5143 18.5247 23.4904 18.4765 23.4366C18.2231 23.4186 18.0964 23.4126 17.8431 23.4007C17.7827 23.4485 17.7586 23.4725 17.6983 23.5143C17.6681 24.2503 17.65 24.6153 17.6199 25.3512C17.6681 25.3991 17.6983 25.423 17.7465 25.4768C17.9818 25.4888 18.1025 25.4948 18.3438 25.5068C18.3981 25.4649 18.4222 25.4409 18.4765 25.3991C18.4886 25.2555 18.4886 25.1837 18.5006 25.046C18.3739 25.0401 18.3136 25.0341 18.1869 25.0281C18.205 24.717 18.2171 24.5614 18.2352 24.2503C18.8324 24.2922 19.128 24.3161 19.7192 24.3759Z" fill="white"/>
<path d="M23.1396 26.4401C22.8319 26.6256 22.6811 26.7153 22.3855 26.9068C21.6978 26.7692 21.354 26.7153 20.6602 26.6196C20.443 26.3443 20.3345 26.2067 20.1052 25.9375C20.2017 25.1656 20.2922 24.3938 20.3888 23.622C20.2862 23.61 20.2319 23.604 20.1294 23.5921C20.1656 23.251 20.1897 23.0835 20.2259 22.7424C20.9257 22.8202 21.2695 22.8681 21.9633 22.9818C21.909 23.3168 21.8788 23.4903 21.8245 23.8254C21.722 23.8074 21.6677 23.8015 21.5651 23.7835C21.4445 24.5613 21.3841 24.9443 21.2574 25.7221C21.2997 25.7759 21.3238 25.8059 21.3721 25.8597C21.6073 25.8956 21.728 25.9195 21.9633 25.9614C22.0236 25.9255 22.0537 25.9076 22.108 25.8657C22.2528 25.0938 22.3192 24.7049 22.464 23.9331C22.3614 23.9151 22.3071 23.9032 22.2046 23.8852C22.2649 23.5502 22.295 23.3767 22.3554 23.0416C23.0491 23.1613 23.393 23.2331 24.0807 23.3886C24.0023 23.7237 23.9661 23.8912 23.8876 24.2203C23.7851 24.1964 23.7368 24.1844 23.6343 24.1664C23.4774 24.9263 23.3085 25.6802 23.1396 26.4401Z" fill="white"/>
<path d="M25.0337 26.6555C25.3112 26.7333 25.45 26.7752 25.7275 26.8589C25.7456 26.7991 25.7516 26.7752 25.7697 26.7153C26.1256 26.823 26.3066 26.8829 26.6565 26.9965C26.5298 27.3795 26.4635 27.5709 26.3307 27.9479C25.4017 27.6368 24.4606 27.3675 23.5015 27.1461C23.5799 26.8111 23.6221 26.6435 23.7005 26.3145C23.7971 26.3384 23.8453 26.3504 23.9418 26.3743C24.1409 25.5666 24.2374 25.1597 24.4365 24.352C24.334 24.328 24.2857 24.3161 24.1831 24.2921C24.2616 23.9571 24.3038 23.7895 24.3822 23.4604C25.45 23.7117 26.5117 24.0109 27.5493 24.3579C27.4226 24.7349 27.3563 24.9263 27.2296 25.3093C26.8556 25.1836 26.6686 25.1238 26.2945 25.0101C26.3126 24.9563 26.3187 24.9263 26.3368 24.8725C26.0412 24.7827 25.8964 24.7409 25.6008 24.6571C25.5344 24.8904 25.4982 25.0101 25.4319 25.2435C25.4982 25.2614 25.5344 25.2734 25.6008 25.2913C25.6189 25.2375 25.6249 25.2076 25.643 25.1537C26.017 25.2614 26.198 25.3153 26.572 25.4349C26.4333 25.8717 26.3609 26.0931 26.2222 26.5299C25.8662 26.4162 25.6853 26.3623 25.3233 26.2606C25.3414 26.2008 25.3474 26.1768 25.3655 26.117C25.2992 26.0991 25.269 26.0871 25.2027 26.0691C25.1303 26.3025 25.1001 26.4162 25.0337 26.6555Z" fill="white"/>
</svg>
