<svg width="27" height="27" viewBox="0 0 27 27" fill="none" xmlns="http://www.w3.org/2000/svg">
<path fill-rule="evenodd" clip-rule="evenodd" d="M13.5006 26.258C17.7538 24.6796 20.8141 21.7452 22.5125 17.519C23.6088 14.7914 24.0618 11.6802 23.9709 8.74011C22.0126 7.30001 19.9634 6.05382 17.7424 5.06001C16.3649 4.44405 14.9477 3.93788 13.5006 3.5144C12.0536 3.93788 10.6363 4.44548 9.25885 5.06001C7.03642 6.0524 4.98867 7.29858 3.03038 8.74011C2.93949 11.6802 3.3925 14.7914 4.4888 17.519C6.1858 21.7452 9.24607 24.6796 13.5006 26.258Z" fill="#001E5E"/>
<path d="M13.3815 25.5451C9.44934 24.0009 6.64042 21.2276 5.05987 17.2937C4.04593 14.7714 3.60997 11.9468 3.64121 9.23345L3.64263 9.06805L3.77612 8.9711C5.57678 7.67643 7.48679 6.53576 9.51183 5.63178C10.7771 5.06715 12.0822 4.59377 13.4085 4.19453L13.5023 4.16602L13.596 4.19453C14.9223 4.59234 16.2274 5.06572 17.4927 5.63178C19.5177 6.53576 21.4263 7.67786 23.227 8.9711L23.3605 9.06805L23.3619 9.23345C23.3945 11.9468 22.9572 14.7714 21.9432 17.2937C20.3627 21.2276 17.5523 24.0009 13.6215 25.5451L13.5023 25.5921L13.3815 25.5451Z" fill="#0063A5"/>
<path d="M5.37524 17.5117C5.48033 17.7598 5.58968 18.0022 5.70612 18.2403L7.30513 17.3107L7.16313 18.0921L12.3791 14.0583L7.80642 16.6919L7.92571 16.0346L5.37524 17.5117Z" fill="white"/>
<path d="M20.8126 7.89291C20.7359 7.84585 20.6578 7.80023 20.5811 7.75317L4.98291 16.4722C5.00989 16.5478 5.03687 16.6233 5.06385 16.6989L20.8126 7.89291Z" fill="white"/>
<path fill-rule="evenodd" clip-rule="evenodd" d="M2.4326 11.1754L0 9.5499C0.0539631 9.01663 0.113606 8.48479 0.17325 7.95295C0.218692 7.54374 0.264135 7.1331 0.308158 6.72388C0.35218 6.32037 0.397623 5.91828 0.441645 5.51477C0.485668 5.11838 0.52969 4.72343 0.572293 4.32704L0.619155 3.90357C2.06338 3.42164 3.53032 3.02098 5.01005 2.70301L5.20744 0.917862C11.034 -0.279844 15.9404 -0.299805 21.7826 0.825182C21.8465 1.40835 21.9118 1.99152 21.9758 2.57611L21.99 2.70301C23.4697 3.01955 24.9366 3.42021 26.3808 3.90357L26.4277 4.32704C26.4717 4.72343 26.5158 5.11838 26.5584 5.51477C26.6024 5.91828 26.6478 6.32037 26.6918 6.72388C26.7373 7.1331 26.7827 7.54374 26.8267 7.95295C26.885 8.48479 26.946 9.01663 27 9.5499L24.681 11.0698C20.9419 9.96909 17.3591 9.24904 13.4993 9.26045C9.64093 9.24904 6.17309 10.0746 2.4326 11.1754Z" fill="#001E5E"/>
<path fill-rule="evenodd" clip-rule="evenodd" d="M4.01605 14.2867L1.95552 13.6236L1.93848 10.6408L2.23811 10.5239C5.76985 9.14222 9.72194 8.54907 13.5008 8.54907C17.2796 8.54907 21.2303 9.14222 24.7634 10.5239L25.0631 10.6408L25.056 13.5994L22.9855 14.2867C19.9337 13.3456 16.6576 12.9321 13.5008 12.9321C10.3439 12.9321 7.06781 13.3456 4.01605 14.2867Z" fill="#001E5E"/>
<path fill-rule="evenodd" clip-rule="evenodd" d="M3.46354 5.5275C3.45218 5.64584 3.4181 5.75563 3.36555 5.85402C3.31159 5.95382 3.21786 6.03937 3.08864 6.11067C3.21928 6.08072 3.31301 6.10211 3.36129 6.1677C3.41242 6.23614 3.43514 6.32169 3.4252 6.42863C3.40532 6.63823 3.38685 6.84783 3.36697 7.05742C3.34709 7.26845 3.32721 7.47947 3.30733 7.69192C3.28177 7.96426 3.20792 8.17528 3.0858 8.32642C2.96367 8.47756 2.7606 8.59163 2.478 8.6786C1.88441 8.86254 1.28939 9.06786 0.695801 9.27603C0.742663 8.85826 0.788106 8.43906 0.833549 8.02557C0.878991 7.6135 0.924434 7.20286 0.968456 6.7965C1.01248 6.39156 1.05792 5.98804 1.10194 5.58738C1.14597 5.18957 1.18999 4.79319 1.23259 4.39966C1.84891 4.19434 2.46664 3.99757 3.0787 3.81934C3.26615 3.76516 3.39963 3.78227 3.482 3.85784C3.56578 3.93626 3.59845 4.05888 3.58283 4.22998C3.56294 4.44529 3.54448 4.65916 3.5246 4.87446C3.50472 5.09262 3.48342 5.30935 3.46354 5.5275ZM2.4567 6.86066C2.46238 6.80648 2.45528 6.77511 2.42688 6.76228C2.40416 6.75229 2.37008 6.75087 2.32321 6.76655C2.17695 6.81218 2.02926 6.85923 1.88299 6.90486C1.84323 7.28984 1.80346 7.67624 1.76228 8.06407C1.92559 8.01131 2.09032 7.95855 2.25363 7.90722C2.29339 7.89439 2.32037 7.88013 2.33741 7.85875C2.35304 7.83878 2.36298 7.81027 2.36582 7.7732C2.39706 7.46664 2.42688 7.16294 2.4567 6.86066ZM4.8467 6.69098C4.99297 6.65676 5.13923 6.62539 5.28266 6.59403C5.26988 6.31741 5.25568 6.04223 5.24432 5.76704C5.23296 5.49328 5.21876 5.21952 5.20598 4.94718C5.14775 5.2352 5.08811 5.52322 5.02847 5.81409C4.96598 6.10496 4.90776 6.39869 4.8467 6.69098ZM4.67913 7.4866C4.63369 7.6962 4.58824 7.90722 4.5428 8.11682C4.22044 8.19382 3.89808 8.27794 3.57573 8.36349C3.68365 7.93289 3.79158 7.50371 3.8995 7.07881C4.00601 6.65676 4.11678 6.23471 4.22186 5.81694C4.32695 5.40345 4.43061 4.99138 4.53428 4.58217C4.63795 4.1758 4.74445 3.77229 4.84812 3.37163C5.17332 3.29749 5.49993 3.22905 5.82655 3.16488C5.86348 3.53417 5.90466 3.90632 5.94442 4.27989C5.9856 4.65346 6.02678 5.03273 6.06655 5.41343C6.10631 5.79698 6.14891 6.18196 6.19151 6.56836C6.23412 6.95762 6.2753 7.3483 6.3179 7.7404C5.9998 7.80029 5.68313 7.86302 5.36219 7.93146C5.34941 7.73612 5.33521 7.53936 5.32526 7.34259C5.10941 7.38679 4.89498 7.4367 4.67913 7.4866ZM6.67576 6.78081C6.67576 6.78081 6.67576 6.78081 6.6786 6.77939C7.01232 6.7252 7.3432 6.6696 7.6755 6.62112C7.7465 6.61114 7.78343 6.57406 7.78769 6.50705C7.80615 6.21618 7.82177 5.92673 7.83881 5.63871C7.84307 5.57313 7.83313 5.53605 7.81041 5.52607C7.78626 5.51609 7.74082 5.51467 7.67834 5.52465C7.51929 5.54746 7.35882 5.57313 7.20261 5.59736C7.13729 5.60735 7.07196 5.61305 7.00948 5.61162C6.94984 5.6102 6.89587 5.59451 6.85043 5.56314C6.80357 5.53035 6.77233 5.48187 6.74819 5.41771C6.72404 5.35355 6.71694 5.26087 6.72546 5.14537C6.74393 4.87874 6.76381 4.61496 6.78085 4.35118C6.79789 4.08883 6.81493 3.82647 6.83339 3.56554C6.84617 3.38446 6.90439 3.23047 7.0109 3.10927C7.11599 2.98665 7.2722 2.90823 7.48379 2.87829C7.94815 2.8127 8.4111 2.75424 8.87547 2.70148C8.85985 2.9838 8.84422 3.26612 8.8286 3.54986C8.48921 3.58693 8.14839 3.63256 7.81041 3.67676C7.73656 3.68674 7.6968 3.72524 7.69254 3.79225C7.67408 4.07314 7.65704 4.35403 7.63858 4.63777C7.63574 4.6834 7.64852 4.71477 7.66982 4.7276C7.69396 4.74186 7.72378 4.74614 7.77064 4.74043C7.9581 4.71477 8.15123 4.68768 8.3401 4.66344C8.48778 4.6449 8.59713 4.67057 8.67098 4.73188C8.715 4.76895 8.74056 4.82599 8.75618 4.90155C8.74056 5.23235 8.7221 5.566 8.70222 5.89964C8.68376 6.23471 8.66672 6.57121 8.64825 6.90914C8.61843 7.04744 8.56589 7.15723 8.49346 7.23708C8.38412 7.3597 8.19667 7.43955 7.93111 7.47662C7.49231 7.53936 7.05208 7.61065 6.61186 7.68337C6.63316 7.38252 6.65446 7.08024 6.67576 6.78081ZM10.2146 4.53939C10.2586 4.53654 10.3041 4.53226 10.3481 4.52941C10.4376 4.19434 10.5256 3.85927 10.6136 3.52705C10.7017 3.19625 10.794 2.86688 10.882 2.53894C11.1845 2.52611 11.4884 2.51185 11.7909 2.50044C11.6915 2.84977 11.5878 3.1991 11.4898 3.55271C11.3904 3.90774 11.2882 4.26706 11.1888 4.62494C11.2598 5.03844 11.335 5.45478 11.4089 5.87255C11.4827 6.2946 11.5594 6.7195 11.6375 7.14583C11.3038 7.16151 10.9672 7.18147 10.6364 7.20001C10.5867 6.87492 10.5384 6.55125 10.4944 6.22759C10.4489 5.90677 10.4049 5.58596 10.3609 5.26657C10.3012 5.27085 10.2387 5.27512 10.1805 5.2794C10.1663 5.60307 10.1535 5.92816 10.1393 6.25468C10.1251 6.58262 10.1095 6.91199 10.0967 7.24136C9.7829 7.26702 9.46764 7.29839 9.15522 7.32833C9.17652 6.92625 9.19499 6.52701 9.21487 6.1292C9.23475 5.73425 9.25321 5.34071 9.27451 4.95003C9.29439 4.56221 9.31427 4.17438 9.33273 3.79083C9.35119 3.41013 9.3725 3.02943 9.38954 2.65158C9.69059 2.62592 9.99733 2.60025 10.2984 2.57886C10.2842 2.90253 10.2714 3.22762 10.2572 3.55271C10.243 3.87923 10.2274 4.2086 10.2146 4.53939ZM12.1601 2.49046C12.7764 2.48048 13.3913 2.47763 14.0048 2.48191C14.002 2.76137 13.9977 3.03941 13.992 3.31887C13.992 3.31887 13.992 3.31887 13.992 3.3203C13.6739 3.31602 13.3544 3.31602 13.0377 3.31602C13.0292 3.67533 13.0193 4.03607 13.0136 4.39966C13.2564 4.39823 13.4978 4.39966 13.7421 4.39966C13.7364 4.66487 13.7336 4.93007 13.7293 5.1967C13.4836 5.1967 13.2394 5.1967 12.9937 5.19813C12.988 5.53748 12.9795 5.87825 12.971 6.22188C13.2962 6.22046 13.6228 6.21903 13.948 6.22046C13.9423 6.51418 13.9381 6.80933 13.9352 7.10448C13.2976 7.1059 12.6614 7.11446 12.0209 7.13014C12.0337 6.73233 12.0479 6.33452 12.0579 5.94099C12.0692 5.54889 12.082 5.15821 12.092 4.77038C12.1033 4.3854 12.1147 4.00185 12.126 3.62115C12.1374 3.2433 12.1488 2.86546 12.1601 2.49046ZM16.3508 3.41583C16.1576 3.40157 15.9631 3.39159 15.77 3.38018C15.7685 3.68674 15.77 3.99472 15.7685 4.30413C15.7671 4.61496 15.7685 4.92722 15.7671 5.23948C15.7657 5.55459 15.7657 5.87255 15.7657 6.19051C15.7657 6.5099 15.7629 6.83072 15.7643 7.15153C15.4561 7.13727 15.1536 7.12729 14.8512 7.11731C14.8526 6.79507 14.8554 6.47426 14.8597 6.15344C14.8625 5.83548 14.8639 5.51752 14.8682 5.20098C14.871 4.8873 14.8725 4.57504 14.8753 4.2642C14.8781 3.9548 14.8824 3.64682 14.8824 3.33883C14.6893 3.33171 14.4933 3.32743 14.2988 3.32315C14.2988 3.31887 14.2988 3.31602 14.2988 3.31174C14.303 3.03513 14.3044 2.75994 14.3087 2.48476C14.9875 2.50472 15.6706 2.53466 16.3479 2.57601C16.3508 2.85833 16.3508 3.13637 16.3508 3.41583ZM18.9367 4.62637C18.9396 4.73901 18.9169 4.83454 18.8785 4.91154C18.8388 4.98711 18.7592 5.03558 18.6456 5.05412C18.7649 5.07836 18.8558 5.13682 18.9098 5.22237C18.9666 5.3122 18.995 5.40488 18.9978 5.50754C19.0021 5.70858 19.0063 5.91105 19.0092 6.11209C19.0134 6.31314 19.0191 6.5156 19.0234 6.7195C19.0305 6.979 18.9793 7.15866 18.8799 7.25989C18.7805 7.36113 18.6044 7.3925 18.346 7.36398C17.8106 7.30409 17.2696 7.25562 16.7314 7.21427C16.7299 6.81931 16.7271 6.42435 16.7257 6.03367C16.7243 5.64442 16.7214 5.25659 16.72 4.87304C16.7186 4.49091 16.7172 4.11021 16.7143 3.73237C16.7115 3.35594 16.7115 2.98095 16.7086 2.60881C17.2696 2.65728 17.8277 2.71004 18.3872 2.77563C18.5604 2.79559 18.6868 2.86546 18.772 2.97382C18.8586 3.08504 18.9069 3.22049 18.9098 3.38446C18.914 3.59121 18.9183 3.79653 18.9225 4.00328C18.9254 4.21002 18.9311 4.4182 18.9367 4.62637ZM18.1301 5.54603C18.1301 5.4947 18.1159 5.45906 18.0918 5.43624C18.0662 5.41486 18.0336 5.4006 17.9938 5.39632C17.8589 5.38206 17.7268 5.36638 17.5948 5.35497C17.5976 5.72141 17.6019 6.08785 17.6075 6.45572C17.7552 6.46998 17.9058 6.48566 18.052 6.50135C18.089 6.50562 18.1145 6.49992 18.1245 6.48709C18.1358 6.47283 18.1443 6.44859 18.1429 6.41437C18.1372 6.12635 18.133 5.83548 18.1301 5.54603ZM17.572 3.46716C17.5763 3.66535 17.5777 3.86212 17.5806 4.06031C17.582 4.2585 17.5848 4.45812 17.5862 4.65774C17.7226 4.66914 17.8589 4.68625 17.9952 4.70051C18.0279 4.70336 18.0549 4.69766 18.0748 4.68055C18.0946 4.66344 18.1032 4.6335 18.1032 4.59215C18.0989 4.26278 18.0961 3.93484 18.0904 3.60832C18.089 3.55129 18.062 3.51849 18.0108 3.51279C17.8674 3.4971 17.7197 3.48142 17.572 3.46716ZM20.3753 6.33167C20.5116 6.35591 20.6479 6.38015 20.7828 6.40296C20.7388 6.12207 20.6948 5.84118 20.6522 5.56029C20.611 5.28368 20.567 5.00564 20.5258 4.73045C20.5017 4.99423 20.4761 5.25944 20.452 5.52607C20.4292 5.7927 20.4023 6.06219 20.3753 6.33167ZM20.3043 7.05885C20.2816 7.24991 20.2631 7.44098 20.2432 7.63346C19.9464 7.58356 19.6468 7.53793 19.35 7.49088C19.4039 7.1059 19.4608 6.72378 19.5176 6.34308C19.5729 5.96523 19.6326 5.58738 19.6865 5.21239C19.7405 4.84167 19.7959 4.47095 19.8513 4.10308C19.9067 3.73807 19.962 3.37448 20.0146 3.01232C20.3199 3.06793 20.6238 3.12353 20.9291 3.18342C21.0044 3.56982 21.0839 3.95765 21.162 4.3469C21.2401 4.73901 21.3225 5.13397 21.402 5.52892C21.4829 5.92816 21.5667 6.33025 21.6491 6.73376C21.7315 7.14012 21.8124 7.54934 21.8976 7.96141C21.598 7.89297 21.3026 7.83166 21.003 7.77177C20.9689 7.57073 20.9362 7.36826 20.9036 7.16721C20.7047 7.13014 20.5045 7.0945 20.3043 7.05885ZM22.0595 3.43294C22.352 3.50566 22.6474 3.5798 22.9428 3.6568C22.9584 3.9605 22.9726 4.26706 22.9897 4.57219C23.0067 4.87874 23.0237 5.18815 23.0394 5.49898C23.055 5.81124 23.0706 6.12635 23.0862 6.44004C23.1018 6.75657 23.1189 7.07453 23.1373 7.39392C23.4299 7.47805 23.7267 7.56217 24.0249 7.65057C24.0419 7.9443 24.059 8.23945 24.076 8.53602C23.4739 8.36064 22.8704 8.1981 22.2668 8.04696C22.2498 7.65057 22.2342 7.25704 22.2157 6.86494C22.1972 6.47568 22.1788 6.08643 22.1617 5.70145C22.1447 5.3179 22.1291 4.9372 22.112 4.55935C22.0936 4.18151 22.0765 3.80508 22.0595 3.43294ZM24.2024 4.02752C24.4964 4.12019 24.7903 4.22143 25.0885 4.32266C25.1084 4.62779 25.1297 4.93577 25.1496 5.24376C25.1709 5.55316 25.1908 5.86542 25.2121 6.17768C25.2334 6.49137 25.2561 6.8079 25.2774 7.12444C25.2987 7.4424 25.32 7.76179 25.3413 8.08403C25.6381 8.19097 25.9377 8.30218 26.2416 8.4134C26.2629 8.70997 26.2857 9.00797 26.307 9.30455C25.6949 9.07784 25.0871 8.86396 24.4807 8.66577C24.4566 8.26796 24.4325 7.87158 24.4097 7.47662C24.3856 7.08452 24.3629 6.69526 24.3401 6.30886C24.3174 5.92388 24.2947 5.54033 24.2706 5.15821C24.2478 4.77893 24.2251 4.40251 24.2024 4.02752ZM2.09032 4.91439C2.06902 5.12113 2.04772 5.32931 2.025 5.53748C2.0037 5.74565 1.98097 5.95668 1.95967 6.16627C2.10736 6.11922 2.25789 6.07217 2.40984 6.02654C2.44392 6.01656 2.47516 5.9966 2.49788 5.96951C2.52344 5.94099 2.53907 5.90677 2.54333 5.86257C2.57599 5.51752 2.61007 5.17389 2.64415 4.83169C2.64983 4.7718 2.62711 4.74899 2.56889 4.76753C2.41268 4.816 2.24937 4.86448 2.09032 4.91439Z" fill="white"/>
<path fill-rule="evenodd" clip-rule="evenodd" d="M2.56612 6.87073C2.5363 7.17443 2.50506 7.47814 2.47524 7.78184C2.46956 7.83317 2.45536 7.88307 2.42412 7.92442C2.39003 7.97005 2.33891 7.99429 2.28637 8.0114C2.12306 8.06273 1.95975 8.11549 1.79644 8.16824L1.63597 8.21957L1.65301 8.05132C1.69278 7.66492 1.73396 7.27852 1.77372 6.89212L1.78082 6.8194L1.8504 6.79801C1.99667 6.75238 2.14294 6.70533 2.29063 6.6597C2.34885 6.64117 2.4156 6.63404 2.4724 6.66113C2.5576 6.70105 2.57465 6.7866 2.56612 6.87073ZM18.2396 5.5447C18.2438 5.83414 18.2481 6.12359 18.2538 6.41303C18.2552 6.46436 18.2424 6.51712 18.2097 6.55704C18.1686 6.60837 18.1018 6.61835 18.0393 6.61123C17.8916 6.59554 17.7439 6.57843 17.5963 6.5656L17.4983 6.55704L17.4969 6.45866C17.4912 6.09079 17.4869 5.72435 17.4841 5.35649L17.4827 5.23529L17.6034 5.2467C17.7368 5.2581 17.8703 5.27379 18.0038 5.28805C18.062 5.29375 18.116 5.31514 18.1615 5.35363C18.2197 5.40211 18.2396 5.47341 18.2396 5.5447ZM1.90437 5.64308L1.91289 5.55753C1.67147 5.62882 1.43148 5.70297 1.19149 5.77996L1.18155 5.86551C1.42154 5.78852 1.66295 5.71437 1.90437 5.64308ZM1.86318 6.04089L1.88733 5.8099C1.64591 5.88262 1.4045 5.95677 1.16309 6.03376L1.13752 6.26475C1.37894 6.18775 1.62035 6.11218 1.86318 6.04089ZM1.07788 6.80799C1.03244 7.21863 0.986995 7.62927 0.941552 8.03849C0.90179 8.3978 0.862028 8.75569 0.822266 9.115C1.36048 8.92679 1.90011 8.74286 2.444 8.57318C2.63571 8.5133 2.8686 8.41776 2.99783 8.25664C3.12564 8.09838 3.17676 7.88022 3.19522 7.68061C3.2151 7.46958 3.23498 7.25713 3.25486 7.04611C3.27474 6.83651 3.29463 6.62691 3.31309 6.41731C3.31877 6.35172 3.31167 6.28613 3.27191 6.23195C3.24208 6.19203 3.14978 6.20771 3.11144 6.21627L2.92967 6.25762C2.30909 6.42729 1.69136 6.61123 1.07788 6.80799ZM2.62293 5.98243C2.61157 6.00382 2.59879 6.02378 2.58175 6.04374C2.54482 6.08509 2.49512 6.11646 2.44258 6.13357C2.29205 6.1792 2.14294 6.22625 1.99241 6.2733L1.83336 6.32321L1.84472 6.20771C1.60189 6.28043 1.36048 6.356 1.11764 6.433L1.09492 6.63974C1.67147 6.45581 2.25229 6.28328 2.83594 6.12501L3.03475 6.01522C3.1228 5.96675 3.21368 5.89973 3.2648 5.8099C3.05037 5.86551 2.83594 5.92254 2.62293 5.98243ZM2.68115 5.58034C2.67405 5.65734 2.66695 5.73433 2.65985 5.81133C2.88422 5.74859 3.11002 5.68871 3.33439 5.63025C3.34433 5.59318 3.35001 5.5561 3.35427 5.51761L3.36563 5.39784C3.137 5.4563 2.90836 5.51761 2.68115 5.58034ZM3.38835 5.14831C3.15972 5.20677 2.93251 5.26808 2.70529 5.33082L2.69677 5.41637C2.92399 5.35363 3.1512 5.29375 3.37983 5.23386L3.38835 5.14831ZM5.91752 5.05136L5.89337 4.82893C5.70024 4.866 5.50711 4.9045 5.31398 4.94442C5.31682 5.01999 5.32108 5.09413 5.32392 5.1697C5.52273 5.12835 5.72012 5.08985 5.91752 5.05136ZM5.95586 5.40639C5.94876 5.33938 5.94166 5.27236 5.93456 5.20677C5.73433 5.24527 5.53267 5.28519 5.33244 5.32654L5.34238 5.52759C5.54688 5.48624 5.75137 5.44631 5.95586 5.40639ZM4.30998 5.91256C4.20916 6.31037 4.10549 6.70818 4.00467 7.10599C3.91094 7.47386 3.81864 7.84172 3.72633 8.20959C3.96632 8.14685 4.20774 8.08412 4.44915 8.02566C4.49033 7.83887 4.5301 7.65066 4.57128 7.46388L4.58548 7.39544L4.65364 7.37975C4.8695 7.32842 5.08535 7.27994 5.30262 7.23432L5.42901 7.20723L5.43469 7.33698C5.44179 7.49097 5.45315 7.64353 5.46309 7.79752C5.70734 7.74619 5.9516 7.69772 6.19585 7.65209C6.15751 7.29563 6.11917 6.93774 6.08083 6.58128C6.0439 6.24193 6.00698 5.90258 5.97148 5.56323C5.76415 5.60316 5.55682 5.64308 5.34948 5.68586L5.35232 5.76428C5.36368 6.03946 5.37789 6.31465 5.39067 6.58984L5.39493 6.68252L5.30404 6.70248C5.15919 6.73385 5.01434 6.76522 4.8695 6.79944L4.70051 6.83936L4.73601 6.66968C4.79707 6.37739 4.8553 6.08509 4.91636 5.79279L4.9192 5.77568C4.71755 5.81988 4.51448 5.86551 4.30998 5.91256ZM4.40797 5.52759L4.35401 5.74289C4.55424 5.69584 4.75589 5.65164 4.95754 5.60886L5.00014 5.39641C4.80275 5.43919 4.60536 5.48196 4.40797 5.52759ZM4.51164 5.11837L4.45057 5.35791C4.64512 5.31371 4.83967 5.27094 5.03423 5.22959C5.04985 5.14974 5.06689 5.07132 5.08393 4.9929C4.89222 5.03282 4.70193 5.0756 4.51164 5.11837ZM5.86781 4.59081C5.43611 4.67351 5.00582 4.76334 4.57696 4.86029L4.55424 4.95012C4.99446 4.85031 5.43469 4.75906 5.87775 4.67494L5.86781 4.59081ZM6.86045 5.40354C6.87181 5.43063 6.88885 5.45772 6.91299 5.47341C6.94281 5.49337 6.97548 5.50192 7.01098 5.50335C7.0692 5.50477 7.12742 5.49907 7.18565 5.49052C7.3447 5.46485 7.50375 5.44061 7.66279 5.4178C7.72244 5.40924 7.79628 5.40354 7.85309 5.42778C7.94113 5.46485 7.95249 5.56466 7.94823 5.64878C7.92977 5.93823 7.91415 6.22767 7.89711 6.51712C7.89001 6.63974 7.80906 6.71531 7.68978 6.73385C7.38588 6.77805 7.08198 6.82795 6.77808 6.87786C6.76246 7.10314 6.74684 7.32985 6.73122 7.55513C7.126 7.49097 7.52079 7.42681 7.91557 7.3712C8.07888 7.34838 8.29615 7.29563 8.41118 7.1673C8.47792 7.09316 8.51626 6.99478 8.53898 6.89782C8.55745 6.56417 8.57449 6.23053 8.59295 5.89688C8.60715 5.64878 8.62135 5.40069 8.63413 5.15259C8.09308 5.21818 7.55203 5.29518 7.0124 5.38215C6.9627 5.38643 6.91157 5.39498 6.86045 5.40354ZM6.84341 5.04423L6.83489 5.15544C6.83347 5.18396 6.83063 5.21675 6.83205 5.25097C6.88459 5.24242 6.93571 5.23386 6.98826 5.22531C7.53783 5.13548 8.08882 5.05849 8.64123 4.99147L8.64549 4.91162C8.63839 4.88026 8.62561 4.83748 8.60147 4.81752C8.59011 4.80896 8.57875 4.80041 8.56597 4.79471C8.04764 4.85887 7.52931 4.93159 7.01382 5.01571C6.95702 5.02569 6.90021 5.03567 6.84341 5.04423ZM6.87181 4.65497L6.85477 4.88596C6.89879 4.87883 6.94423 4.8717 6.98826 4.86457C7.17855 4.8332 7.37026 4.80469 7.56197 4.77617C7.53499 4.73482 7.52647 4.68349 7.52931 4.63359L7.53499 4.55089C7.36032 4.57655 7.18707 4.60364 7.01382 4.63216C6.96554 4.63929 6.91867 4.64642 6.87181 4.65497ZM7.55061 4.30564C7.3305 4.33844 7.10896 4.37266 6.88885 4.40973L6.88317 4.49528L6.98968 4.47817C7.17429 4.44823 7.36032 4.41971 7.54635 4.39119L7.55061 4.30564ZM10.1238 4.09462L10.1281 4.00907C9.89516 4.0276 9.66369 4.04899 9.43079 4.07323L9.42653 4.15878C9.65801 4.13454 9.8909 4.11315 10.1238 4.09462ZM10.1068 4.48102C10.1096 4.40403 10.1124 4.32703 10.1167 4.25004C9.8838 4.27 9.65091 4.29138 9.41801 4.3142L9.40665 4.54518C9.63955 4.52237 9.87386 4.50098 10.1068 4.48102ZM9.37967 5.06704C9.36121 5.4235 9.34559 5.77996 9.32571 6.13499C9.30725 6.49145 9.29021 6.84934 9.27175 7.2058C9.51174 7.18299 9.75031 7.16017 9.99031 7.13879C10.0017 6.84221 10.0159 6.54564 10.0286 6.24906C10.0429 5.92397 10.0556 5.59888 10.0698 5.27379L10.0741 5.1754L10.1707 5.16828C10.2303 5.164 10.2914 5.15972 10.351 5.15544L10.4533 5.14831L10.4675 5.25097C10.5115 5.57179 10.5555 5.89118 10.6009 6.21199C10.6421 6.50286 10.6847 6.79373 10.7287 7.08318C10.9872 7.06892 11.2471 7.05324 11.5055 7.0404C11.4359 6.65685 11.3664 6.27473 11.2996 5.89118C11.2428 5.56894 11.186 5.24812 11.1292 4.92588C10.5456 4.9601 9.96191 5.00716 9.37967 5.06704ZM10.4419 4.61077L10.4348 4.63501L10.3567 4.64072C10.3127 4.64357 10.2672 4.64784 10.2232 4.6507L10.1011 4.65925L10.1025 4.63929C9.86818 4.65925 9.63387 4.68064 9.39955 4.70488L9.38819 4.91162C9.95907 4.85317 10.5314 4.80896 11.1037 4.77474L11.0809 4.64499L11.0767 4.61933L11.0838 4.59509L11.0909 4.568C10.875 4.5794 10.6577 4.59366 10.4419 4.61077ZM10.5456 4.21724L10.4831 4.45108C10.7003 4.43539 10.9176 4.42114 11.1349 4.4083L11.2002 4.17447C10.9829 4.1873 10.7643 4.20156 10.5456 4.21724ZM11.2712 3.93065C11.0511 3.94205 10.831 3.95631 10.6123 3.972L10.5896 4.05897C10.8083 4.04329 11.0284 4.02903 11.2485 4.01762L11.2712 3.93065ZM12.2 4.88026C12.19 5.23529 12.1787 5.5889 12.1687 5.94393C12.1588 6.30182 12.146 6.6597 12.1346 7.01759C12.6984 7.00476 13.2622 6.9962 13.8259 6.99478C13.8288 6.77377 13.8316 6.55277 13.8359 6.33176C13.5476 6.33034 13.2593 6.33176 12.9711 6.33319H12.8575L12.8603 6.21912C12.8688 5.87834 12.8773 5.53757 12.883 5.19679L12.8844 5.08985L12.9909 5.08843C13.2011 5.087 13.4099 5.087 13.62 5.087C13.6215 5.01286 13.6229 4.93729 13.6229 4.86315C13.5803 4.86315 13.5391 4.86315 13.4965 4.86315C13.0676 4.86172 12.6331 4.86742 12.2 4.88026ZM12.2113 4.51809L12.2056 4.72484C12.6373 4.71201 13.069 4.7063 13.5007 4.70773C13.5433 4.70773 13.586 4.70773 13.63 4.70773C13.6314 4.64214 13.6314 4.57655 13.6328 4.51096C13.4269 4.51096 13.221 4.51096 13.0165 4.51096H12.9043V4.50241C12.6728 4.50669 12.4414 4.51096 12.2113 4.51809ZM12.2227 4.13169L12.2156 4.36268C12.4456 4.35555 12.6757 4.35127 12.9057 4.34842C12.9072 4.27142 12.9086 4.19443 12.91 4.11743C12.6814 4.12028 12.4513 4.12456 12.2227 4.13169ZM12.9157 3.87646C12.687 3.87932 12.4584 3.88359 12.2298 3.89072L12.2269 3.97627C12.4556 3.96914 12.6842 3.96487 12.9143 3.96202L12.9157 3.87646ZM14.9805 4.88596C14.9791 4.9929 14.9791 5.09984 14.9776 5.20677C14.9748 5.52474 14.9734 5.84127 14.9691 6.15923C14.9663 6.4444 14.9634 6.72957 14.962 7.01474C15.1921 7.02187 15.4235 7.03042 15.6536 7.0404C15.6536 6.75809 15.655 6.47577 15.655 6.19345C15.655 5.87549 15.655 5.55896 15.6564 5.24099C15.6564 5.13263 15.6564 5.02427 15.6564 4.9159C15.4321 4.90307 15.2063 4.89451 14.9805 4.88596ZM14.9819 4.5238L14.9805 4.73054C15.2063 4.73767 15.4321 4.74765 15.6564 4.75906V4.55231C15.4321 4.54233 15.2077 4.53235 14.9819 4.5238ZM14.9862 4.13882L14.9847 4.27L14.9833 4.36981C15.2077 4.37693 15.4335 4.38692 15.6578 4.39832V4.30564V4.16876C15.4349 4.15593 15.2105 4.14595 14.9862 4.13882ZM15.6593 3.92637C15.4363 3.91496 15.2119 3.90498 14.989 3.89785L14.9876 3.9834C15.2119 3.99053 15.4349 4.00051 15.6593 4.01192V3.92637ZM17.4713 4.14737L17.4699 4.06182C17.2554 4.04044 17.041 4.0219 16.8252 4.00479V4.09034C17.041 4.10745 17.2569 4.12599 17.4713 4.14737ZM17.4741 4.53378L17.4713 4.30422C17.2569 4.28283 17.041 4.26429 16.8266 4.24576L16.828 4.47532C17.0438 4.49385 17.2597 4.51239 17.4741 4.53378ZM16.8308 4.99432C16.8323 5.3408 16.8351 5.68586 16.8365 6.03233C16.8379 6.39165 16.8408 6.75096 16.8422 7.11027C17.3477 7.15162 17.8547 7.19725 18.3588 7.25285C18.4838 7.26711 18.7039 7.27994 18.8019 7.18014C18.9056 7.07605 18.9169 6.8579 18.9127 6.72101C18.907 6.51855 18.9027 6.31608 18.8985 6.11361C18.8942 5.91256 18.89 5.71009 18.8871 5.50905C18.8857 5.42493 18.8616 5.35221 18.8161 5.28092C18.7905 5.24099 18.755 5.21248 18.7153 5.19252C18.0876 5.11124 17.4599 5.04565 16.8308 4.99432ZM18.1487 4.76191L18.1444 4.76619C18.099 4.80469 18.0407 4.81752 17.9825 4.81182C17.8476 4.79756 17.7113 4.78045 17.5764 4.76904L17.477 4.76049V4.69205C17.2611 4.67066 17.0453 4.65212 16.8294 4.63359L16.8308 4.84033C17.3392 4.88168 17.8476 4.93301 18.3546 4.99432L18.6258 4.9487C18.6812 4.93872 18.7522 4.91733 18.7792 4.86315C18.782 4.85602 18.7863 4.85031 18.7891 4.84318C18.5761 4.81182 18.3631 4.78615 18.1487 4.76191ZM18.2097 4.38264C18.2112 4.4525 18.2112 4.52094 18.2126 4.59081C18.2126 4.59794 18.2126 4.60507 18.2126 4.6122C18.4171 4.63644 18.6216 4.6621 18.826 4.68777C18.8275 4.66781 18.8275 4.64784 18.8275 4.62788L18.8232 4.45821C18.6187 4.43254 18.4142 4.40688 18.2097 4.38264ZM18.8161 4.21724C18.613 4.19015 18.41 4.16448 18.2069 4.14167L18.2083 4.22722C18.4114 4.25146 18.6159 4.2757 18.8189 4.30279L18.8161 4.21724ZM21.1976 5.07417L21.1493 4.83748C20.9803 4.80469 20.8099 4.77332 20.6409 4.74338C20.6523 4.8218 20.6651 4.90022 20.6764 4.97721C20.8497 5.00858 21.0243 5.03995 21.1976 5.07417ZM21.2743 5.45059L21.2317 5.23814C21.0556 5.20392 20.8781 5.17113 20.702 5.13833L20.7346 5.34793C20.9136 5.38215 21.0939 5.41637 21.2743 5.45059ZM19.7775 5.34508C19.7278 5.683 19.6753 6.02093 19.6256 6.35885C19.5744 6.70533 19.5233 7.05181 19.4736 7.39829C19.698 7.43251 19.9224 7.46816 20.1453 7.50523C20.1609 7.35266 20.1765 7.19867 20.195 7.04611L20.2092 6.93061L20.3242 6.95058C20.5245 6.98622 20.7261 7.02187 20.9263 7.06037L21.0016 7.07462L21.0144 7.15162C21.0428 7.32842 21.0712 7.5038 21.101 7.68061C21.3197 7.72481 21.5384 7.77043 21.7571 7.81891C21.6847 7.4653 21.6151 7.1117 21.5427 6.75809C21.4646 6.37739 21.385 5.99669 21.3084 5.61599C21.1252 5.58034 20.942 5.5447 20.7588 5.5119L20.7645 5.54612C20.8056 5.82701 20.8497 6.10648 20.8937 6.38737L20.9178 6.53993L20.7659 6.51427C20.6296 6.49003 20.4932 6.46579 20.3583 6.44298L20.2575 6.42587L20.2674 6.32321C20.2944 6.05515 20.3214 5.78709 20.3455 5.51903L20.3526 5.44204C20.2319 5.42065 20.1112 5.40069 19.9905 5.38073C19.9181 5.36789 19.8471 5.35649 19.7775 5.34508ZM19.8286 4.99147L19.7988 5.19252C19.8698 5.20392 19.9408 5.21533 20.0104 5.22674C20.1283 5.24527 20.2461 5.26523 20.364 5.28519L20.3825 5.08415C20.2504 5.06134 20.1183 5.03852 19.9863 5.01714C19.9351 5.00858 19.8826 5.00003 19.8286 4.99147ZM19.884 4.61505L19.8513 4.83891C19.9053 4.84746 19.9579 4.85602 20.0118 4.86457C20.141 4.88596 20.2703 4.90735 20.3981 4.92873C20.4052 4.86029 20.4109 4.79043 20.4165 4.72199L20.418 4.70488C20.2745 4.68064 20.1297 4.6564 19.9863 4.63216L19.884 4.61505ZM21.0982 4.58511C20.7062 4.51096 20.3143 4.4411 19.9209 4.37836L19.9082 4.46106L20.0132 4.47817C20.381 4.53805 20.7488 4.60364 21.1166 4.67351L21.0982 4.58511ZM22.2768 5.81846C22.2925 6.16494 22.3081 6.51284 22.3251 6.85932C22.3422 7.22576 22.3578 7.5922 22.3734 7.95864C22.9031 8.09267 23.4314 8.23526 23.9582 8.3864C23.9454 8.16824 23.9341 7.95152 23.9213 7.73336C23.6501 7.65494 23.3788 7.57652 23.1076 7.49952L23.0323 7.47814L23.0281 7.39971C23.0096 7.08175 22.994 6.76379 22.9769 6.44583L22.9528 5.97388C22.727 5.92112 22.5026 5.86836 22.2768 5.81846ZM22.2612 5.45344L22.2697 5.65876C22.4955 5.70867 22.7199 5.76 22.9443 5.81418L22.9343 5.60886C22.71 5.55468 22.4856 5.50335 22.2612 5.45344ZM22.2442 5.06419L22.2541 5.29232C22.4785 5.34223 22.7029 5.39356 22.9258 5.44631L22.9145 5.21675C22.6915 5.164 22.4671 5.11267 22.2442 5.06419ZM22.9017 4.97151C22.6801 4.91875 22.4572 4.86742 22.2342 4.81752L22.2385 4.90307C22.4615 4.95155 22.6844 5.00288 22.9074 5.05563L22.9017 4.97151ZM25.0645 5.6331L25.0588 5.54898C24.8373 5.48339 24.6143 5.41922 24.3913 5.35649L24.397 5.44061C24.62 5.50335 24.8429 5.56751 25.0645 5.6331ZM25.0914 6.02663L25.0758 5.7985C24.8529 5.73148 24.6299 5.66732 24.407 5.60601L24.4212 5.83414C24.6441 5.89545 24.8685 5.95962 25.0914 6.02663ZM25.117 6.39592C25.1127 6.32748 25.1071 6.25904 25.1028 6.19203C24.8799 6.12501 24.6555 6.06085 24.4311 5.99811L24.4439 6.20201C24.6683 6.26475 24.8926 6.32891 25.117 6.39592ZM24.5859 8.58316C25.1213 8.75997 25.6552 8.94675 26.1849 9.14066C26.1693 8.92394 26.1537 8.70721 26.1366 8.49048C25.8597 8.38782 25.5828 8.28516 25.3045 8.18535L25.2363 8.16111L25.232 8.0884C25.2107 7.76901 25.1894 7.44962 25.1681 7.12881C25.1554 6.93917 25.1426 6.74953 25.1284 6.5599C24.904 6.49288 24.6782 6.42729 24.4524 6.36456L24.5192 7.46958C24.5419 7.84173 24.5632 8.21244 24.5859 8.58316Z" fill="#ED7620"/>
<path d="M12.1715 7.34711L12.4086 8.86278L12.0124 7.35139H12.0266L12.1715 7.34711ZM13.5475 7.32715L13.441 8.84567L13.3927 7.32857L13.5475 7.32715ZM10.8494 7.40842L11.3421 8.91268L10.6832 7.4184L10.8494 7.40842ZM9.40657 7.52534L10.128 9.00964L9.23474 7.54245L9.40657 7.52534ZM8.0717 7.6779L8.79594 9.16791L7.90697 7.70357L7.96235 7.69501L8.0717 7.6779ZM6.78084 7.88037L7.50793 9.37608L6.61612 7.90746L6.64878 7.90176L6.78084 7.88037ZM5.49993 8.12847L6.23411 9.63843L5.33946 8.16126L5.40905 8.14701L5.49993 8.12847ZM4.2176 8.42504L5.07391 9.92931L4.05713 8.46639L4.2176 8.42504ZM2.76344 8.81002L3.83986 10.3L2.61007 8.86848L2.76344 8.81002ZM25.9079 9.39319L24.1811 10.6593L26.084 9.45735L25.9079 9.39319ZM14.7645 7.33855L14.3669 8.85565L14.9236 7.34283L14.8441 7.33998L14.7645 7.33855ZM16.0923 7.39416L15.4291 8.89985L16.2585 7.40414L16.0923 7.39416ZM17.5408 7.50395L16.639 8.98825L17.7112 7.51964L17.5408 7.50395ZM18.9012 7.61374L17.9768 9.13796L19.0361 7.69074L18.9012 7.61374ZM20.175 7.84615L19.2705 9.33616L20.3398 7.87324L20.2063 7.85043L20.175 7.84615ZM21.456 8.0914L20.5471 9.58853L21.6164 8.12562L21.456 8.0914ZM22.7383 8.3951L21.7116 9.87085L22.8973 8.43645L22.7383 8.3951ZM24.1811 8.79576L22.9485 10.2316L24.3373 8.85137L24.2691 8.82856V8.82285L24.1811 8.79576ZM1.0281 9.39462L2.60439 10.742L0.850586 9.45593L1.0281 9.39462Z" fill="white"/>
<path d="M5.32536 25.234L7.99369 24.2844C5.75565 24.6879 3.61558 25.1314 1.73682 23.7668C3.28612 23.0796 6.47137 21.1932 8.79462 17.9836C9.34561 17.2237 9.79578 16.3995 10.1849 15.5454C10.7969 14.2066 11.7512 12.3801 13.7763 11.7C10.8736 13.2384 10.787 16.6719 8.62279 19.0288C9.54442 18.554 10.2204 17.9451 10.3581 17.7968C9.91506 19.3068 9.00053 20.754 5.49861 22.7331C6.80083 22.4822 8.75628 21.5939 10.1068 20.6999C8.64977 22.6176 5.7031 23.888 3.50198 24.072C5.43045 24.571 10.5356 23.4004 11.8932 22.8072C10.8821 23.4831 9.44928 24.2345 8.29475 24.6451C10.3283 24.5453 13.2352 23.7939 14.9919 22.9726C14.056 23.6157 13.3673 24.0064 12.6871 24.2488C15.3341 23.7454 18.4909 22.6262 20.4095 20.6072C22.7171 18.179 22.4075 14.2893 19.7718 12.2475C23.1232 13.9129 22.9585 18.5639 20.7276 20.9123C16.8891 24.9517 10.1835 25.3053 5.32536 25.234Z" fill="white"/>
<path fill-rule="evenodd" clip-rule="evenodd" d="M6.22263 21.4243C7.34733 21.1847 8.07725 20.1995 8.42943 19.5365C8.02187 19.8915 7.23515 20.9081 6.22263 21.4243ZM20.2246 12.6354C17.9809 10.4867 14.4264 10.5694 12.2864 12.8222C10.7953 14.3906 10.4616 16.94 8.62399 19.0289C9.54562 18.5541 10.2216 17.9452 10.3593 17.7969C9.91768 19.3069 9.00173 20.7541 5.49981 22.7332C6.80202 22.4822 8.75747 21.594 10.108 20.7C8.65097 22.6177 5.7043 23.8867 3.50317 24.0721C5.43164 24.5711 10.5368 23.4005 11.8944 22.8073C10.8833 23.4832 9.45047 24.2346 8.29595 24.6452C10.3295 24.5454 13.2364 23.794 14.993 22.9727C14.0572 23.6158 13.3685 24.0065 12.6883 24.2489C15.3353 23.7455 18.4921 22.6263 20.4107 20.6073C22.5507 18.3544 22.4684 14.7856 20.2246 12.6354Z" fill="#001E5E"/>
<path fill-rule="evenodd" clip-rule="evenodd" d="M19.8572 16.7704C20.1085 17.2722 20.3031 17.8212 20.4352 18.4143C20.6098 19.1971 20.4451 19.4837 19.9026 20.1025C19.5391 20.516 19.0932 20.8483 18.6146 21.112C18.5081 21.1705 18.4002 21.2261 18.2894 21.2774C17.9188 21.45 17.8662 21.3174 18.0366 20.9851C18.3959 20.285 18.4882 19.3454 18.5819 18.3958C18.6388 17.8155 18.697 17.2309 18.8191 16.7105C18.9781 16.0318 19.5746 16.2071 19.8572 16.7704ZM13.4966 20.7798C14.4367 21.4471 15.5543 21.7451 16.6506 21.6781C17.9287 21.3231 18.075 19.8516 18.2212 18.3602C18.315 17.4106 18.4087 16.4538 18.7822 15.7209C18.8006 15.6839 18.8234 15.6482 18.8418 15.6111C18.9299 15.4272 18.9895 15.4629 18.8503 15.3032C18.812 15.259 18.7722 15.2176 18.7311 15.1763C18.6075 15.0479 18.4328 14.9681 18.2866 15.0408L13.4512 20.1296C13.2183 20.3749 13.1871 20.5602 13.4966 20.7798ZM16.128 13.1986C15.6168 12.9705 15.0616 12.8008 14.4651 12.6953C13.677 12.557 13.4015 12.7352 12.8107 13.3084C12.416 13.692 12.1078 14.1554 11.8678 14.6473C11.8138 14.7571 11.7641 14.8683 11.7187 14.9809C11.5639 15.3602 11.6988 15.4073 12.0212 15.2219C12.7 14.8298 13.6315 14.6915 14.5716 14.5532C15.1468 14.469 15.7247 14.3835 16.2374 14.2366C16.9048 14.0456 16.7018 13.4553 16.128 13.1986ZM12.4387 19.766C11.7542 18.8849 10.8808 16.8901 11.7755 15.9006C12.3677 15.2461 13.4895 15.0807 14.6242 14.9139C15.5643 14.7756 16.5115 14.6359 17.2229 14.2267C17.2599 14.2053 17.2939 14.1825 17.3294 14.1625C17.5084 14.0655 17.47 14.0071 17.6348 14.1397C17.6802 14.1753 17.7242 14.2152 17.7668 14.2537C17.9003 14.3721 17.9884 14.5432 17.9216 14.6929L13.0862 19.7817C12.8548 20.0255 12.6716 20.0669 12.4387 19.766ZM14.7832 12.3859C15.3484 12.5042 15.8753 12.6782 16.3652 12.9063C16.7344 13.0774 16.9474 13.2328 17.3933 13.1986C17.6305 13.1815 17.8222 13.0831 17.7824 12.8322C17.6987 12.2989 17.1193 11.8883 16.618 11.7999C16.0329 11.6958 15.3626 11.8712 14.8074 12.0594C14.3671 12.2091 14.2322 12.2704 14.7832 12.3859Z" fill="#F7BE18"/>
<path fill-rule="evenodd" clip-rule="evenodd" d="M20.8739 14.6815C21.0173 15.0252 20.9718 15.0494 20.6126 14.8641C20.4791 14.7956 20.3371 14.7471 20.1851 14.73C19.9011 14.6987 19.6398 14.7814 19.4083 14.9482C19.2422 15.068 19.2038 15.1107 19.1385 15.0651C18.8928 14.894 18.6628 14.6459 18.9127 14.3821L19.6753 13.5794C19.8514 13.394 20.1212 13.4753 20.2661 13.6606C20.5117 13.9815 20.7148 14.3237 20.8739 14.6815ZM18.1587 12.0808C17.8093 11.9539 17.788 11.9995 17.9897 12.3517C18.0635 12.4829 18.1189 12.6226 18.143 12.7738C18.1871 13.0561 18.1175 13.3227 17.9613 13.5637C17.8505 13.7362 17.8093 13.7761 17.8576 13.8403C18.0394 14.0784 18.2978 14.298 18.5478 14.0356L19.3103 13.2329C19.4864 13.0475 19.3927 12.7795 19.2024 12.644C18.873 12.4116 18.5222 12.2234 18.1587 12.0808ZM20.729 18.0807C20.5842 17.5204 20.3868 16.9985 20.1368 16.518C19.9494 16.1559 19.7846 15.9505 19.7974 15.5014C19.8045 15.2619 19.8926 15.0651 20.1439 15.0936C20.6793 15.1535 21.1138 15.7139 21.226 16.2129C21.3567 16.7961 21.2147 17.4762 21.0528 18.0408C20.9236 18.49 20.8696 18.6283 20.729 18.0807Z" fill="#C05E09"/>
<path fill-rule="evenodd" clip-rule="evenodd" d="M18.0988 21.1989C18.1173 21.1447 18.15 21.0763 18.1642 21.0506C18.3615 20.6671 18.4737 20.2322 18.5504 19.8101C18.6342 19.3482 18.6796 18.8776 18.7251 18.41C18.7791 17.8567 18.8316 17.285 18.9594 16.7432C19.0219 16.4794 19.1653 16.3297 19.3215 16.2798C19.5175 16.3211 19.7234 16.5008 19.8583 16.7703C20.1097 17.2721 20.3042 17.8211 20.4363 18.4142C20.601 19.1528 20.4633 19.4494 19.9932 19.9998C19.4252 20.5231 18.6257 20.9651 18.2323 21.1476C18.2068 21.159 18.1471 21.1847 18.0988 21.1989ZM18.3686 15.1605C18.5135 15.1163 18.8202 15.276 18.9267 15.4072C18.9495 15.4613 18.9012 15.4841 18.8401 15.611C18.8217 15.6481 18.8004 15.6838 18.7805 15.7208C18.407 16.4537 18.3133 17.4105 18.2195 18.3601C18.0988 19.5906 17.9781 20.8068 17.2226 21.3943C17.0224 21.4584 16.7838 21.4912 16.6248 21.5368C15.5398 21.5996 14.4648 21.2944 13.5759 20.6628C13.5205 20.6243 13.414 20.5416 13.4097 20.4646C13.4069 20.3862 13.502 20.2792 13.5517 20.2265L18.3686 15.1605ZM11.6559 15.2432C11.8349 14.5388 13.0916 13.0559 13.6597 12.852C13.9082 12.7636 14.1865 12.7922 14.4421 12.8364C15.0031 12.9347 15.5512 13.0973 16.0724 13.3297C16.355 13.4566 16.639 13.8359 16.5268 14.0911C16.4601 14.151 16.3649 14.2009 16.2385 14.2365C15.7259 14.3834 15.1479 14.4689 14.5728 14.5531C13.6327 14.6914 12.7011 14.8283 12.0223 15.2218C11.7994 15.3487 11.6673 15.3672 11.6559 15.2432ZM11.9314 16.0302C12.2311 15.7037 12.6258 15.4799 13.0433 15.3587C13.5617 15.209 14.1127 15.132 14.6452 15.0535C15.1124 14.9851 15.5824 14.9167 16.0411 14.8097C16.4714 14.7099 16.9074 14.5716 17.2936 14.3506C17.3292 14.3306 17.3618 14.3064 17.3973 14.2879C17.4328 14.2693 17.4655 14.2479 17.4981 14.2251C17.501 14.2237 17.5038 14.2209 17.5067 14.218C17.5209 14.2294 17.5365 14.2422 17.5464 14.2494C17.6813 14.3577 17.8929 14.506 17.9199 14.6942L13.0874 19.7802C12.9965 19.8757 12.9141 19.9399 12.8332 19.9656C12.0692 19.0573 11.0595 16.9799 11.9314 16.0302ZM14.4364 12.2161C14.9846 12.0393 16.0511 11.8426 16.5935 11.9381C17.0338 12.0165 17.5734 12.3815 17.6472 12.8535C17.6614 12.9462 17.6714 13.0388 17.6657 13.1201C17.5947 13.1657 17.4981 13.19 17.3916 13.1971C16.9457 13.2299 16.7327 13.0759 16.3635 12.9048C15.8736 12.6781 15.3453 12.5027 14.7815 12.3844C14.4734 12.3202 14.3811 12.2732 14.4364 12.2161Z" fill="#C05E09"/>
<path fill-rule="evenodd" clip-rule="evenodd" d="M20.6111 14.8639C20.4279 14.3749 20.1482 13.9129 19.7761 13.5051C19.7406 13.5222 19.7051 13.5465 19.6739 13.5792L18.9113 14.382C18.6614 14.6458 18.8914 14.8939 19.1371 15.065C19.2024 15.1106 19.2408 15.0678 19.4069 14.9481C19.6398 14.7812 19.9011 14.6971 20.1837 14.7299C20.3356 14.747 20.4776 14.7955 20.6111 14.8639ZM19.3799 13.1273C18.9582 12.7722 18.4839 12.5141 17.9897 12.353C18.0635 12.4842 18.1189 12.6239 18.143 12.7751C18.1871 13.0574 18.1175 13.324 17.9613 13.565C17.8505 13.7375 17.8093 13.7774 17.8576 13.8416C18.0394 14.0797 18.2978 14.2993 18.5478 14.0369L19.3103 13.2342C19.3416 13.2 19.3643 13.1629 19.3799 13.1273ZM20.6211 17.6985C20.4904 17.2807 20.33 16.8872 20.1382 16.5179C19.9508 16.1557 19.7861 15.9504 19.7988 15.5013C19.8059 15.2617 19.894 15.065 20.1453 15.0935C20.3825 15.1192 20.5984 15.2446 20.7773 15.4172C20.9449 16.1786 20.8952 16.9742 20.6211 17.6985Z" fill="#E78800"/>
<path fill-rule="evenodd" clip-rule="evenodd" d="M18.539 19.8673C19.0076 19.6691 19.4436 19.3739 19.8156 18.9832C20.0429 18.7437 20.2331 18.4828 20.3865 18.2062C20.2573 17.6929 20.0798 17.2138 19.8582 16.7703C19.7233 16.5023 19.5174 16.3212 19.3215 16.2798C19.1652 16.3298 19.0218 16.4795 18.9593 16.7432C18.8329 17.2851 18.7804 17.8568 18.725 18.41C18.6796 18.8777 18.6341 19.3483 18.5504 19.8102C18.5461 19.8288 18.5418 19.8473 18.539 19.8673ZM14.4577 19.277C15.4858 20.094 16.7966 20.3535 17.9766 20.0555C18.1044 19.5393 18.1627 18.9519 18.2209 18.3601C18.3146 17.4105 18.4083 16.4538 18.7818 15.7209C18.8003 15.6838 18.823 15.6482 18.8415 15.6111C18.9025 15.4842 18.9494 15.4614 18.9281 15.4072C18.8216 15.2746 18.5134 15.1164 18.37 15.1606L14.4577 19.277ZM12.9197 15.3987C12.7309 16.595 13.0901 17.8754 13.9834 18.8378L17.9198 14.6957C17.8929 14.5075 17.6813 14.3592 17.5464 14.2509C17.5364 14.2437 17.5208 14.2309 17.5066 14.2195C17.5038 14.2224 17.5009 14.2238 17.4981 14.2266C17.4654 14.2494 17.4327 14.2708 17.3972 14.2894C17.3617 14.3093 17.3277 14.3321 17.2936 14.3521C16.9073 14.5731 16.4714 14.7114 16.0411 14.8112C15.581 14.9182 15.1109 14.9866 14.6451 15.055C14.1126 15.1335 13.5616 15.2105 13.0433 15.3602C13.0007 15.3716 12.9609 15.3844 12.9197 15.3987ZM14.506 12.8478C14.3015 12.9919 14.1083 13.1573 13.9294 13.344C13.5162 13.7789 13.225 14.2865 13.0546 14.8255C13.5289 14.7057 14.0487 14.6287 14.5699 14.5517C15.145 14.4676 15.723 14.3821 16.2356 14.2352C16.362 14.1995 16.4572 14.1482 16.5239 14.0898C16.6361 13.8345 16.3521 13.4553 16.0695 13.3284C15.5696 13.1059 15.0442 12.9477 14.506 12.8478ZM17.1573 12.1749C17.4043 12.3417 17.6046 12.5798 17.6472 12.8536C17.6614 12.9462 17.6713 13.0389 17.6656 13.1202C17.5946 13.1658 17.4981 13.1901 17.3916 13.1972C16.9457 13.23 16.7326 13.076 16.3634 12.9049C15.9871 12.7295 15.5866 12.5869 15.1663 12.4757C15.7926 12.2034 16.4799 12.1036 17.1573 12.1749Z" fill="#E78800"/>
<mask id="mask0_137_1393" style="mask-type:luminance" maskUnits="userSpaceOnUse" x="17" y="12" width="4" height="5">
<path d="M20.3583 14.764C20.1964 14.3662 19.9522 13.977 19.6284 13.6276L18.9098 14.3848C18.6599 14.6485 18.89 14.8966 19.1356 15.0677C19.201 15.1134 19.2393 15.0706 19.4054 14.9508C19.6383 14.784 19.8996 14.6999 20.1822 14.7327C20.2433 14.7369 20.3015 14.7483 20.3583 14.764ZM19.2663 13.2783C18.9027 12.9718 18.5051 12.7436 18.1004 12.5996C18.1188 12.6552 18.133 12.7137 18.1416 12.7721C18.1856 13.0545 18.116 13.3211 17.9598 13.5621C17.849 13.7346 17.8079 13.7745 17.8561 13.8387C18.0379 14.0768 18.2964 14.2964 18.5463 14.034L19.2663 13.2783ZM20.347 16.9598C20.2816 16.8087 20.212 16.6618 20.1382 16.5192C19.9508 16.1571 19.786 15.9518 19.7988 15.5026C19.8059 15.2631 19.8939 15.0663 20.1453 15.0948C20.2717 15.1091 20.3938 15.1519 20.506 15.2146C20.6594 15.8348 20.6125 16.4537 20.347 16.9598Z" fill="white"/>
</mask>
<g mask="url(#mask0_137_1393)">
<path d="M20.6608 12.6011H17.8093V16.9599H20.6608V12.6011Z" fill="url(#paint0_linear_137_1393)"/>
</g>
<mask id="mask1_137_1393" style="mask-type:luminance" maskUnits="userSpaceOnUse" x="14" y="12" width="7" height="7">
<path d="M18.7635 18.0093C19.2535 17.9508 19.6994 17.7483 20.0345 17.3947C20.0572 17.3705 20.0799 17.3448 20.1012 17.3206C20.0274 17.1309 19.945 16.9484 19.8556 16.7702C19.7207 16.5021 19.5148 16.3211 19.3188 16.2797C19.1626 16.3296 19.0191 16.4793 18.9567 16.7431C18.8615 17.1552 18.8076 17.5844 18.7635 18.0093ZM16.3778 17.255C16.9615 17.7141 17.626 17.9736 18.2551 18.0192C18.3418 17.1851 18.454 16.3653 18.782 15.7194C18.8005 15.6823 18.8232 15.6466 18.8416 15.6096C18.9027 15.4827 18.9496 15.4599 18.9283 15.4057C18.8218 15.2731 18.5136 15.1148 18.3702 15.159L16.3778 17.255ZM14.9804 15.005C15.0869 15.6295 15.3994 16.2712 15.9035 16.8173L17.92 14.6956C17.893 14.5074 17.6814 14.3591 17.5465 14.2507C17.5366 14.2436 17.521 14.2308 17.5068 14.2194C17.5039 14.2222 17.5011 14.2237 17.4982 14.2265C17.4656 14.2493 17.4329 14.2707 17.3974 14.2892C17.3619 14.3092 17.3278 14.332 17.2937 14.352C16.9075 14.573 16.4715 14.7113 16.0412 14.8111C15.6919 14.8924 15.3355 14.9508 14.9804 15.005ZM15.459 13.0915C15.1168 13.4737 14.9478 13.967 14.9407 14.4974C15.3908 14.429 15.8339 14.3506 16.2372 14.2365C16.3636 14.2008 16.4587 14.1495 16.5255 14.0911C16.6377 13.8358 16.3537 13.4566 16.0711 13.3297C15.8708 13.2398 15.6663 13.1614 15.459 13.0915ZM17.4542 12.4428C17.5536 12.5654 17.6246 12.7037 17.6473 12.8534C17.6615 12.9461 17.6715 13.0388 17.6658 13.1201C17.5948 13.1657 17.4982 13.1899 17.3917 13.1971C16.9458 13.2298 16.7328 13.0759 16.3636 12.9048C16.2173 12.8363 16.0682 12.7736 15.9148 12.7151C16.3565 12.4556 16.8961 12.3672 17.4542 12.4428Z" fill="white"/>
</mask>
<g mask="url(#mask1_137_1393)">
<path d="M20.1012 12.3674H14.9407V18.0209H20.1012V12.3674Z" fill="url(#paint1_linear_137_1393)"/>
</g>
<path fill-rule="evenodd" clip-rule="evenodd" d="M14.7831 12.3859C15.3426 12.5028 15.8652 12.6753 16.3509 12.8992C15.7459 12.4173 14.1923 12.306 14.935 12.0166C14.8924 12.0309 14.8498 12.0451 14.8072 12.0594C14.367 12.2091 14.2335 12.2704 14.7831 12.3859ZM20.729 18.0807C20.587 17.526 20.3896 17.0099 20.1453 16.5322C20.6523 17.1154 20.8369 18.6681 21.0897 17.9096C21.0783 17.9538 21.0655 17.9966 21.0542 18.0393C20.9235 18.4899 20.8695 18.6282 20.729 18.0807ZM20.0317 17.1482C19.7008 16.7019 19.0618 16.0375 18.88 16.8944C18.8459 17.0527 18.7891 17.633 18.7039 18.1876C18.6698 18.6368 18.5846 20.1553 18.0919 20.8725C18.4071 20.1867 18.4952 19.2941 18.5832 18.3944C18.6244 17.9709 18.667 17.5474 18.7337 17.1468C18.7593 16.9971 18.7877 16.8502 18.8204 16.709C18.9794 16.0303 19.5759 16.2057 19.857 16.7689C19.9181 16.893 19.9763 17.0199 20.0317 17.1482ZM20.3115 14.7528C20.4165 14.777 20.5159 14.8155 20.6125 14.864C20.9718 15.0494 21.0172 15.0251 20.8738 14.6815C20.7943 14.5018 20.7034 14.3279 20.6012 14.1568C20.631 14.2338 20.6622 14.3208 20.6892 14.4035C20.8639 14.9538 20.5415 14.6173 20.0686 14.6601C19.7335 14.6031 19.5034 14.864 19.2649 14.8825C19.0774 14.8968 18.8204 14.643 18.8516 14.4862C18.8545 14.4719 18.8573 14.4576 18.8616 14.4448C18.6954 14.6858 18.9098 14.9111 19.1371 15.0679C19.2024 15.1135 19.2407 15.0707 19.4069 14.951C19.6398 14.7842 19.9011 14.7 20.1837 14.7328C20.2277 14.7357 20.2703 14.7428 20.3115 14.7528ZM15.7459 13.0418C16.206 13.3526 16.8962 13.9614 16.0526 14.1853C15.8978 14.2267 15.3284 14.3094 14.7817 14.422C14.3358 14.4776 12.8049 14.5974 12.1304 15.1634C12.6288 14.9039 13.248 14.7656 13.8998 14.6573L13.897 14.6587C14.1199 14.6216 14.3457 14.5888 14.5729 14.5546C15.148 14.4705 15.726 14.3849 16.2387 14.2381C16.9061 14.047 16.7045 13.4567 16.1307 13.2C16.0044 13.143 15.8751 13.0917 15.7459 13.0418ZM18.2183 12.8849C18.2921 13.22 18.0422 13.4638 18.0365 13.7034C18.0322 13.8916 18.2964 14.1368 18.4512 14.0998C18.4654 14.0969 18.4781 14.0926 18.4923 14.0883C18.2609 14.2666 18.0265 14.0627 17.859 13.8417C17.8107 13.7775 17.8519 13.7376 17.9626 13.5651C18.0138 13.4866 18.0549 13.4039 18.0862 13.3212L18.0848 13.3241C18.1515 13.1501 18.1742 12.9662 18.143 12.7751C18.1189 12.624 18.0649 12.4843 17.9896 12.3531C17.7894 12.0009 17.8107 11.9553 18.1586 12.0822C18.3404 12.1535 18.5193 12.2362 18.694 12.3303C18.6159 12.3046 18.5278 12.2761 18.4455 12.2547C17.8888 12.1036 18.2381 12.4101 18.2183 12.8849ZM16.4062 12.9249C16.7513 13.0888 16.9643 13.2314 17.3932 13.1986C17.6303 13.1815 17.8221 13.0831 17.7823 12.8322C17.7326 12.5156 17.5082 12.2419 17.2299 12.0537C17.4983 12.326 17.6417 12.6782 17.5679 12.9049C17.4741 13.1929 17.0197 13.1858 16.4062 12.9249ZM16.9814 14.3593C17.4173 14.211 17.5948 14.4063 17.5892 14.6316C17.5778 15.0879 13.9722 18.5498 13.3587 19.4966C14.8711 17.9053 16.3679 16.3383 17.9271 14.6972C17.9939 14.546 17.9044 14.3749 17.7724 14.258C17.7283 14.2195 17.6857 14.181 17.6403 14.144C17.4756 14.0114 17.5125 14.0698 17.335 14.1668C17.298 14.1867 17.264 14.211 17.2285 14.2309C17.1475 14.2766 17.0652 14.3193 16.9814 14.3593ZM17.1248 16.2628L13.7223 19.8445C14.661 19.18 17.8746 15.413 18.3688 15.3773C18.5917 15.3616 18.7948 15.5313 18.6684 15.9747C18.7039 15.8878 18.7423 15.8036 18.7834 15.7209C18.8019 15.6839 18.8246 15.6482 18.8431 15.6111C18.9311 15.4272 18.9908 15.4629 18.8516 15.3032C18.8133 15.259 18.7735 15.2176 18.7323 15.1763C18.6088 15.0479 18.4341 14.9681 18.2878 15.0408L17.1248 16.2642V16.2628ZM20.1169 16.4795C19.938 16.1416 19.786 15.9334 19.7974 15.5014C19.8045 15.2618 19.8925 15.065 20.1439 15.0936C20.4606 15.1292 20.7432 15.3402 20.9434 15.6111C20.6608 15.3545 20.3029 15.2262 20.08 15.3131C19.8002 15.4215 19.8286 15.8763 20.1169 16.4795Z" fill="white"/>
<path d="M24.0333 13.113L22.6515 13.6962L23.4624 12.9248C23.6527 12.9861 23.843 13.0489 24.0333 13.113ZM2.96777 13.113L4.34951 13.6962L3.53865 12.9248C3.34694 12.9861 3.15664 13.0489 2.96777 13.113Z" fill="white"/>
<path d="M13.5005 9.06665C17.5591 9.06665 21.3152 9.77244 24.3812 10.9716V13.0005C21.2741 11.9012 17.5307 11.2596 13.5005 11.2596C9.47034 11.2596 5.72701 11.9012 2.61987 13.0005V10.9716C5.68583 9.77244 9.44194 9.06665 13.5005 9.06665Z" fill="white"/>
<path fill-rule="evenodd" clip-rule="evenodd" d="M5.6889 10.8473L4.86525 11.0768L4.82975 11.0868C4.79425 11.0968 4.76585 11.1096 4.74313 11.1253C4.72041 11.141 4.70336 11.1595 4.69484 11.1823C4.6849 11.2051 4.67922 11.2365 4.67638 11.275C4.67354 11.3135 4.67212 11.3577 4.67212 11.4062C4.67212 11.4632 4.67354 11.5103 4.67638 11.5459C4.67922 11.5816 4.68774 11.6087 4.70194 11.6272C4.71614 11.6457 4.73603 11.6557 4.76017 11.6571C4.78573 11.6586 4.81839 11.6529 4.85957 11.64L4.89649 11.63L5.17199 11.5502L5.70452 11.4062C5.7031 11.4219 5.70026 11.4376 5.69884 11.4532C5.69032 11.5074 5.67044 11.5573 5.6392 11.6001C5.60796 11.6443 5.56819 11.6771 5.52133 11.7013C5.47447 11.7256 5.41908 11.747 5.35376 11.7655L4.82549 11.9195C4.73319 11.9466 4.6565 11.9637 4.59686 11.9694C4.53721 11.9765 4.48609 11.9623 4.44207 11.9309C4.39805 11.8981 4.37107 11.8568 4.36112 11.8054C4.35118 11.7541 4.34692 11.6742 4.34692 11.5659V11.4404C4.34692 11.3363 4.35118 11.2579 4.3597 11.2023C4.36822 11.1467 4.39379 11.0911 4.43781 11.034C4.48041 10.977 4.53721 10.9328 4.60538 10.9C4.67496 10.8672 4.75023 10.8387 4.83259 10.8145L5.34808 10.6633C5.42761 10.6405 5.49151 10.6305 5.53837 10.6334C5.58665 10.6362 5.62074 10.6548 5.64204 10.6876C5.66334 10.7204 5.67612 10.7646 5.68322 10.8173C5.68748 10.8287 5.68748 10.8387 5.6889 10.8473ZM6.03114 10.4951L6.35634 10.4252V10.8216L7.03656 10.6747V10.2798L7.36318 10.2099V11.3135L7.03656 11.3834V10.9642L6.35634 11.111V11.5302L6.03114 11.6001V10.4951ZM8.2067 10.063L8.63841 9.99888L9.22916 11.0141L8.86704 11.0683L8.76054 10.8858L8.0931 10.9856L7.99511 11.198L7.62873 11.2522L8.2067 10.063ZM8.21664 10.7346L8.63557 10.6719L8.42256 10.2955L8.21664 10.7346ZM9.48194 9.85772L10.0003 9.81495L10.3794 10.4908L10.7586 9.75364L11.2911 9.71086V10.8145L10.9588 10.8416V10.0459L10.5058 10.8786L10.2545 10.8986L9.81282 10.1429V10.9342L9.48194 10.9613V9.85772ZM11.6064 9.69518L12.4428 9.65383C12.5323 9.64955 12.6132 9.65383 12.6856 9.66809C12.7581 9.68234 12.8078 9.71371 12.8362 9.76219C12.8646 9.81067 12.883 9.85772 12.8916 9.90478C12.9001 9.95183 12.9043 10.0017 12.9043 10.0559C12.9043 10.1129 12.9001 10.1629 12.8916 10.2085C12.883 10.2541 12.8646 10.2997 12.8376 10.3468C12.8106 10.3938 12.7751 10.4281 12.7282 10.448C12.6828 10.468 12.6232 10.4794 12.5522 10.4822L12.4882 10.4851L11.9373 10.5122V10.7817L11.605 10.7988V9.69518H11.6064ZM11.9387 10.2427L12.3817 10.2213L12.403 10.2199C12.4357 10.2185 12.4641 10.2142 12.4882 10.2056C12.5124 10.1985 12.5294 10.1871 12.538 10.1714C12.5479 10.1557 12.5536 10.1415 12.555 10.1272C12.5564 10.1129 12.5578 10.0958 12.5578 10.0745C12.5578 10.0559 12.5564 10.0374 12.555 10.0217C12.5536 10.006 12.5465 9.98748 12.5365 9.96894C12.5252 9.9504 12.5024 9.93757 12.4684 9.93329C12.4343 9.92759 12.3803 9.92759 12.3065 9.93044L11.9401 9.94898V10.2427H11.9387ZM13.2196 9.64242L13.5547 9.63672V10.7403L13.2196 10.746V9.64242ZM14.394 10.7574C14.3102 10.756 14.2335 10.7489 14.1639 10.736C14.0944 10.7232 14.0404 10.6961 14.0006 10.6548C13.9609 10.6134 13.9353 10.5607 13.924 10.4951C13.9126 10.4295 13.9069 10.3653 13.9069 10.2997V10.0716C13.9069 9.97892 13.914 9.90905 13.9268 9.862C13.941 9.81495 13.9666 9.7736 14.0049 9.73653C14.0432 9.69946 14.0929 9.67522 14.1526 9.66666C14.2136 9.65811 14.2903 9.65383 14.3841 9.65525L14.9208 9.66524C15.0146 9.66666 15.0913 9.67379 15.1523 9.6852C15.2134 9.6966 15.2617 9.72084 15.3 9.75792C15.3369 9.79499 15.3611 9.83776 15.371 9.88624C15.381 9.93329 15.3852 9.9889 15.3852 10.0502V10.1001V10.3283V10.3995C15.3852 10.4623 15.381 10.5165 15.371 10.5621C15.3611 10.6077 15.3412 10.6462 15.3099 10.6762C15.2787 10.7075 15.229 10.7303 15.1623 10.7474C15.0941 10.7631 15.0117 10.7703 14.9152 10.7688L14.394 10.7574ZM14.8356 10.4951H14.864C14.9024 10.4951 14.9365 10.4922 14.9663 10.4837C14.9961 10.4751 15.0174 10.4623 15.0288 10.4423C15.0401 10.4224 15.0472 10.401 15.0501 10.3767C15.0529 10.3539 15.0543 10.3254 15.0543 10.2926V10.1429C15.0543 10.1087 15.0529 10.0802 15.0501 10.0573C15.0472 10.0331 15.0401 10.0117 15.0288 9.99318C15.0174 9.97322 14.9975 9.95896 14.9663 9.94898C14.9365 9.939 14.9024 9.93329 14.8669 9.93329H14.8342L14.4607 9.92616H14.4323C14.3926 9.92616 14.3585 9.92902 14.3287 9.93757C14.2989 9.94613 14.2761 9.96181 14.2619 9.98462C14.2477 10.0074 14.2406 10.0559 14.2406 10.1301V10.2798C14.2406 10.314 14.242 10.3425 14.2435 10.3653C14.2449 10.3881 14.252 10.4095 14.2648 10.4295C14.2776 10.4494 14.2974 10.4637 14.3273 10.4737C14.3571 10.4837 14.3912 10.4879 14.4323 10.4894H14.4607L14.8356 10.4951ZM15.6962 9.71086L16.2089 9.75221L16.838 10.6006V9.80354L17.1703 9.83063V10.9342L16.6562 10.8929L16.0285 10.0545V10.8416L15.6962 10.8145V9.71086ZM18.7934 10.3325L17.9655 10.2099L17.9371 10.2056C17.9101 10.2014 17.8874 10.2014 17.8675 10.2042C17.8476 10.2071 17.8334 10.2156 17.8278 10.2284C17.8207 10.2413 17.8178 10.2555 17.8178 10.2726C17.8178 10.294 17.8207 10.3097 17.8249 10.3211C17.8377 10.3439 17.8604 10.3596 17.8931 10.3682C17.9257 10.3767 17.9683 10.3853 18.0223 10.3938L18.427 10.4637L18.4753 10.4708C18.5548 10.4822 18.6216 10.5008 18.6798 10.5236C18.7366 10.5478 18.7749 10.5792 18.7948 10.6191C18.8147 10.659 18.8275 10.6947 18.8332 10.7246C18.8389 10.756 18.8417 10.7888 18.8417 10.823C18.8417 10.8629 18.8374 10.9014 18.8303 10.9371C18.8232 10.9727 18.8062 11.0098 18.7806 11.0483C18.7551 11.0868 18.7011 11.1082 18.6202 11.1139C18.5392 11.1182 18.4497 11.1139 18.3518 11.0996L17.8093 11.0184C17.7383 11.0084 17.6786 10.9884 17.6332 10.9613C17.5878 10.9342 17.5537 10.9043 17.5324 10.8701C17.5111 10.8358 17.4983 10.7974 17.494 10.7517C17.4926 10.736 17.4912 10.7204 17.4898 10.7032L17.9399 10.7674L18.3234 10.8244L18.3432 10.8273C18.383 10.833 18.4157 10.8358 18.4412 10.8358C18.4668 10.8358 18.4838 10.8301 18.4924 10.8202C18.5023 10.8102 18.5066 10.7959 18.5066 10.7788C18.5066 10.7617 18.5023 10.7446 18.4952 10.7289C18.4881 10.7118 18.4711 10.699 18.4441 10.6904C18.4171 10.6819 18.383 10.6733 18.3404 10.6676L18.2992 10.6619L17.8689 10.5878C17.7823 10.5749 17.7085 10.5564 17.6517 10.5336C17.5934 10.5108 17.5551 10.478 17.5338 10.4352C17.5139 10.3924 17.4997 10.3539 17.4955 10.3168C17.4898 10.2812 17.4869 10.2427 17.4869 10.2014C17.4869 10.1557 17.4898 10.1158 17.4955 10.0816C17.5011 10.0488 17.5153 10.0146 17.5381 9.97892C17.5608 9.9447 17.5977 9.92331 17.6502 9.91476C17.7028 9.9062 17.771 9.90905 17.8547 9.92189L17.9172 9.93187L18.4781 10.016C18.535 10.0245 18.5889 10.0417 18.64 10.0659C18.6912 10.0901 18.7281 10.1215 18.7494 10.1572C18.7707 10.1928 18.7835 10.2327 18.7877 10.2755C18.7906 10.294 18.792 10.3126 18.7934 10.3325ZM19.1569 10.1272L19.4836 10.1871V10.5821L20.168 10.7061V10.3111L20.4961 10.371V11.4746L20.168 11.4147V10.9955L19.4836 10.8715V11.2907L19.1569 11.2308V10.1272ZM20.8241 10.4623L21.1479 10.545V11.6486L20.8241 11.5659V10.4623ZM21.5001 10.6234L22.3038 10.8572C22.3905 10.8829 22.4686 10.9143 22.5382 10.9513C22.6077 10.9898 22.656 11.0369 22.683 11.0939C22.71 11.151 22.727 11.2051 22.7356 11.2536C22.7441 11.3035 22.7483 11.3549 22.7483 11.4076C22.7483 11.4646 22.7441 11.5131 22.7356 11.5559C22.727 11.5987 22.71 11.6386 22.6844 11.6771C22.6589 11.7156 22.6234 11.737 22.5793 11.7427C22.5353 11.747 22.4785 11.7398 22.4104 11.7199L22.3493 11.7028L21.8196 11.5488V11.8197L21.5001 11.727V10.6234ZM21.8196 11.2807L22.2456 11.4048L22.2655 11.4105C22.2967 11.419 22.3237 11.4247 22.3479 11.4247C22.3706 11.4247 22.3862 11.419 22.3962 11.4062C22.4047 11.3948 22.4104 11.3819 22.4118 11.3677C22.4132 11.3534 22.4146 11.3363 22.4146 11.3164C22.4146 11.2978 22.4132 11.2793 22.4118 11.2622C22.4104 11.2451 22.4033 11.2251 22.3933 11.2037C22.3834 11.1809 22.3607 11.1624 22.328 11.1453C22.2953 11.1281 22.2428 11.1096 22.1732 11.0896L21.821 10.987V11.2807H21.8196Z" fill="#001E5E"/>
<path fill-rule="evenodd" clip-rule="evenodd" d="M5.6889 10.7022L4.86525 10.9318L4.82975 10.9417C4.79425 10.9517 4.76585 10.9646 4.74313 10.9802C4.72041 10.9959 4.70336 11.0145 4.69484 11.0373C4.6849 11.0601 4.67922 11.0915 4.67638 11.13C4.67354 11.1684 4.67212 11.2126 4.67212 11.2611C4.67212 11.3182 4.67354 11.3652 4.67638 11.4009C4.67922 11.4365 4.68774 11.4636 4.70194 11.4821C4.71614 11.5007 4.73603 11.5106 4.76017 11.5121C4.78573 11.5135 4.81839 11.5078 4.85957 11.495L4.89649 11.485L5.17199 11.4051L5.70452 11.2611C5.7031 11.2768 5.70026 11.2925 5.69884 11.3082C5.69032 11.3624 5.67044 11.4123 5.6392 11.455C5.60796 11.4992 5.56819 11.532 5.52133 11.5563C5.47447 11.5805 5.41908 11.6019 5.35376 11.6204L4.82549 11.7744C4.73319 11.8015 4.6565 11.8186 4.59686 11.8243C4.53721 11.8315 4.48609 11.8172 4.44207 11.7858C4.39805 11.753 4.37107 11.7117 4.36112 11.6604C4.35118 11.609 4.34692 11.5292 4.34692 11.4208V11.2953C4.34692 11.1913 4.35118 11.1128 4.3597 11.0572C4.36822 11.0016 4.39379 10.946 4.43781 10.889C4.48041 10.832 4.53721 10.7877 4.60538 10.755C4.67496 10.7222 4.75023 10.6936 4.83259 10.6694L5.34808 10.5183C5.42761 10.4955 5.49151 10.4855 5.53837 10.4883C5.58665 10.4912 5.62074 10.5097 5.64204 10.5425C5.66334 10.5753 5.67612 10.6195 5.68322 10.6723C5.68748 10.6822 5.68748 10.6922 5.6889 10.7022ZM6.03114 10.35L6.35634 10.2801V10.6751L7.03656 10.5282V10.1333L7.36318 10.0634V11.167L7.03656 11.2369V10.8177L6.35634 10.9646V11.3838L6.03114 11.4536V10.35ZM8.2067 9.91799L8.63841 9.85382L9.22916 10.869L8.86704 10.9232L8.76054 10.7407L8.0931 10.8405L7.99511 11.053L7.62873 11.1071L8.2067 9.91799ZM8.21664 10.5881L8.63557 10.5254L8.42256 10.149L8.21664 10.5881ZM9.48194 9.71267L10.0003 9.66989L10.3794 10.3457L10.7586 9.60858L11.2911 9.5658V10.6694L10.9588 10.6965V9.90088L10.5058 10.7336L10.2545 10.7535L9.81282 9.99783V10.7892L9.48194 10.8163V9.71267ZM11.6064 9.54869L12.4428 9.50734C12.5323 9.50307 12.6132 9.50734 12.6856 9.5216C12.7581 9.53586 12.8078 9.56723 12.8362 9.61571C12.8646 9.66419 12.883 9.71124 12.8916 9.75829C12.9001 9.80535 12.9043 9.85525 12.9043 9.90943C12.9043 9.96647 12.9001 10.0164 12.8916 10.062C12.883 10.1076 12.8646 10.1533 12.8376 10.2003C12.8106 10.2474 12.7751 10.2816 12.7282 10.3015C12.6828 10.3215 12.6232 10.3329 12.5522 10.3358L12.4882 10.3386L11.9373 10.3657V10.6366L11.605 10.6537V9.54869H11.6064ZM11.9387 10.0962L12.3817 10.0748L12.403 10.0734C12.4357 10.072 12.4641 10.0677 12.4882 10.0591C12.5124 10.052 12.5294 10.0406 12.538 10.0249C12.5479 10.0092 12.5536 9.99498 12.555 9.98072C12.5564 9.96647 12.5578 9.94935 12.5578 9.92797C12.5578 9.90943 12.5564 9.8909 12.555 9.87521C12.5536 9.85953 12.5465 9.84099 12.5365 9.82246C12.5252 9.80392 12.5024 9.79109 12.4684 9.78681C12.4343 9.78111 12.3803 9.78111 12.3065 9.78396L11.9401 9.80249V10.0962H11.9387ZM13.2196 9.49594L13.5547 9.49023V10.5938L13.2196 10.5995V9.49594ZM14.394 10.6109C14.3102 10.6095 14.2335 10.6024 14.1639 10.5896C14.0944 10.5767 14.0404 10.5496 14.0006 10.5083C13.9609 10.4669 13.9353 10.4142 13.924 10.3486C13.9126 10.283 13.9069 10.2188 13.9069 10.1532V9.92512C13.9069 9.83244 13.914 9.76257 13.9268 9.71552C13.941 9.66847 13.9666 9.62711 14.0049 9.59004C14.0432 9.55297 14.0929 9.52873 14.1526 9.52018C14.2136 9.51162 14.2903 9.50735 14.3841 9.50877L14.9208 9.51875C15.0146 9.52018 15.0913 9.52731 15.1523 9.53871C15.2134 9.55012 15.2617 9.57436 15.3 9.61143C15.3369 9.6485 15.3611 9.69128 15.371 9.73976C15.381 9.78681 15.3852 9.84242 15.3852 9.90373V9.95363V10.1818V10.2531C15.3852 10.3158 15.381 10.37 15.371 10.4156C15.3611 10.4612 15.3412 10.4997 15.3099 10.5297C15.2787 10.561 15.229 10.5839 15.1623 10.601C15.0941 10.6166 15.0117 10.6238 14.9152 10.6224L14.394 10.6109ZM14.8356 10.35H14.864C14.9024 10.35 14.9365 10.3472 14.9663 10.3386C14.9961 10.3301 15.0174 10.3172 15.0288 10.2973C15.0401 10.2773 15.0472 10.2559 15.0501 10.2317C15.0529 10.2089 15.0543 10.1803 15.0543 10.1475V9.99783C15.0543 9.96361 15.0529 9.9351 15.0501 9.91228C15.0472 9.88804 15.0401 9.86666 15.0288 9.84812C15.0174 9.82816 14.9975 9.8139 14.9663 9.80392C14.9365 9.79394 14.9024 9.78824 14.8669 9.78824H14.8342L14.4607 9.78111H14.4323C14.3926 9.78111 14.3585 9.78396 14.3287 9.79251C14.2989 9.80107 14.2761 9.81675 14.2619 9.83957C14.2477 9.86238 14.2406 9.91086 14.2406 9.985V10.1347C14.2406 10.1689 14.242 10.1975 14.2435 10.2203C14.2449 10.2431 14.252 10.2645 14.2648 10.2844C14.2776 10.3044 14.2974 10.3186 14.3273 10.3286C14.3571 10.3386 14.3912 10.3429 14.4323 10.3443H14.4607L14.8356 10.35ZM15.6962 9.56438L16.2089 9.60573L16.838 10.4541V9.65706L17.1703 9.68415V10.7877L16.6562 10.7464L16.0285 9.90801V10.6951L15.6962 10.668V9.56438ZM18.7934 10.186L17.9655 10.0634L17.9371 10.0591C17.9101 10.0549 17.8874 10.0549 17.8675 10.0577C17.8476 10.0606 17.8334 10.0691 17.8278 10.082C17.8207 10.0948 17.8178 10.109 17.8178 10.1262C17.8178 10.1475 17.8207 10.1632 17.8249 10.1746C17.8377 10.1975 17.8604 10.2131 17.8931 10.2217C17.9257 10.2302 17.9683 10.2388 18.0223 10.2474L18.427 10.3172L18.4753 10.3244C18.5548 10.3358 18.6216 10.3543 18.6798 10.3771C18.7366 10.4013 18.7749 10.4327 18.7948 10.4726C18.8147 10.5126 18.8275 10.5482 18.8332 10.5782C18.8389 10.6095 18.8417 10.6423 18.8417 10.6765C18.8417 10.7165 18.8374 10.755 18.8303 10.7906C18.8232 10.8262 18.8062 10.8633 18.7806 10.9018C18.7551 10.9403 18.7011 10.9617 18.6202 10.9674C18.5392 10.9717 18.4497 10.9674 18.3518 10.9531L17.8093 10.8719C17.7383 10.8619 17.6786 10.8419 17.6332 10.8148C17.5878 10.7877 17.5537 10.7578 17.5324 10.7236C17.5111 10.6894 17.4983 10.6509 17.494 10.6052C17.4926 10.5896 17.4912 10.5739 17.4898 10.5568L17.9399 10.6209L18.3234 10.678L18.3432 10.6808C18.383 10.6865 18.4157 10.6894 18.4412 10.6894C18.4668 10.6894 18.4838 10.6837 18.4924 10.6737C18.5023 10.6637 18.5066 10.6494 18.5066 10.6323C18.5066 10.6152 18.5023 10.5981 18.4952 10.5824C18.4881 10.5653 18.4711 10.5525 18.4441 10.5439C18.4171 10.5354 18.383 10.5268 18.3404 10.5211L18.2992 10.5154L17.8689 10.4413C17.7823 10.4284 17.7085 10.4099 17.6517 10.3871C17.5934 10.3643 17.5551 10.3315 17.5338 10.2887C17.5139 10.2459 17.4997 10.2074 17.4955 10.1704C17.4898 10.1347 17.4869 10.0962 17.4869 10.0549C17.4869 10.0092 17.4898 9.96932 17.4955 9.9351C17.5011 9.90088 17.5153 9.86808 17.5381 9.83244C17.5608 9.79822 17.5977 9.77683 17.6502 9.76827C17.7028 9.75972 17.771 9.76257 17.8547 9.7754L17.9172 9.78538L18.4781 9.86951C18.535 9.87806 18.5889 9.89517 18.64 9.91941C18.6912 9.94365 18.7281 9.97502 18.7494 10.0107C18.7707 10.0463 18.7835 10.0862 18.7877 10.129C18.7906 10.1475 18.792 10.1675 18.7934 10.186ZM19.1569 9.98072L19.4836 10.0406V10.4356L20.168 10.5596V10.1647L20.4961 10.2245V11.3281L20.168 11.2683V10.8491L19.4836 10.725V11.1442L19.1569 11.0843V9.98072ZM20.8241 10.3172L21.1479 10.3999V11.5035L20.8241 11.4208V10.3172ZM21.5001 10.4783L22.3038 10.7122C22.3905 10.7378 22.4686 10.7692 22.5382 10.8063C22.6077 10.8448 22.656 10.8918 22.683 10.9489C22.71 11.0059 22.727 11.0601 22.7356 11.1086C22.7441 11.1585 22.7483 11.2098 22.7483 11.2626C22.7483 11.3196 22.7441 11.3681 22.7356 11.4108C22.727 11.4536 22.71 11.4935 22.6844 11.532C22.6589 11.5705 22.6234 11.5919 22.5793 11.5976C22.5353 11.6019 22.4785 11.5948 22.4104 11.5748L22.3493 11.5577L21.8196 11.4037V11.6732L21.5001 11.5805V10.4783ZM21.8196 11.1342L22.2456 11.2583L22.2655 11.264C22.2967 11.2725 22.3237 11.2782 22.3479 11.2782C22.3706 11.2782 22.3862 11.2725 22.3962 11.2597C22.4047 11.2483 22.4104 11.2355 22.4118 11.2212C22.4132 11.2069 22.4146 11.1898 22.4146 11.1699C22.4146 11.1513 22.4132 11.1328 22.4118 11.1157C22.4104 11.0986 22.4033 11.0786 22.3933 11.0572C22.3834 11.0344 22.3607 11.0159 22.328 10.9988C22.2953 10.9817 22.2428 10.9631 22.1732 10.9432L21.821 10.8405V11.1342H21.8196Z" fill="#ED7620"/>
<path d="M7.93533 1.27709L7.16848 1.40969C7.14434 1.41397 7.12446 1.41967 7.10742 1.42823C7.09038 1.43678 7.08044 1.44819 7.07618 1.46102C7.07192 1.47385 7.07192 1.48811 7.07334 1.5038C7.07618 1.52233 7.08044 1.53659 7.08754 1.54515C7.10174 1.56083 7.12446 1.56939 7.15428 1.56796C7.18411 1.56653 7.22245 1.56226 7.27073 1.5537L7.63569 1.49952L7.67971 1.49239C7.75072 1.47956 7.81178 1.47671 7.86574 1.48098C7.91971 1.48526 7.95805 1.50237 7.98077 1.53231C8.00491 1.56226 8.02053 1.58935 8.03047 1.61501C8.04041 1.64068 8.04751 1.66919 8.05319 1.70056C8.05887 1.73621 8.06172 1.77185 8.06029 1.80465C8.05887 1.83887 8.05035 1.87594 8.03473 1.91729C8.01769 1.95864 7.97509 1.99286 7.90409 2.02138C7.8345 2.04847 7.75498 2.06986 7.66835 2.08554L7.18127 2.16966C7.11736 2.18107 7.0634 2.18107 7.01938 2.16966C6.97535 2.15826 6.94127 2.14115 6.91855 2.11691C6.89583 2.09267 6.87879 2.0613 6.86743 2.0228C6.86459 2.0114 6.86033 1.99856 6.85749 1.98716L7.60445 1.84885L7.62149 1.846C7.65699 1.8403 7.68539 1.83317 7.70812 1.82461C7.72942 1.81748 7.74362 1.8075 7.75072 1.79609C7.75782 1.78469 7.75924 1.77043 7.7564 1.75474C7.75356 1.73906 7.74788 1.72623 7.73936 1.7134C7.73084 1.70056 7.7138 1.69486 7.68823 1.69343C7.66267 1.69343 7.63143 1.69629 7.59309 1.70199L7.55617 1.70912L7.1699 1.76615C7.0918 1.77898 7.02506 1.78469 6.97109 1.78041C6.91713 1.77756 6.87737 1.75902 6.85323 1.72765C6.82909 1.69629 6.81204 1.66492 6.80068 1.63355C6.79074 1.60361 6.78222 1.56939 6.77654 1.53374C6.76944 1.49239 6.7666 1.45674 6.7666 1.42538C6.7666 1.39401 6.7737 1.35979 6.7879 1.32272C6.8021 1.28564 6.83193 1.2557 6.87595 1.23289C6.92139 1.21007 6.98103 1.19296 7.0563 1.18013L7.1131 1.17015L7.61581 1.08317C7.66693 1.07462 7.71664 1.07319 7.76492 1.08032C7.8132 1.08745 7.85012 1.10456 7.87426 1.13023C7.89841 1.15589 7.91545 1.18726 7.92681 1.22433C7.92681 1.24287 7.93107 1.25998 7.93533 1.27709ZM8.28609 0.989069L9.03305 0.887834C9.114 0.876427 9.18642 0.875002 9.25316 0.882131C9.31991 0.88926 9.36819 0.913499 9.39943 0.953423C9.43067 0.994772 9.45197 1.0347 9.46618 1.07604C9.47896 1.11739 9.4889 1.1616 9.496 1.20865C9.5031 1.25855 9.50452 1.30418 9.50168 1.34553C9.49884 1.38688 9.4889 1.42965 9.47044 1.47385C9.45197 1.51806 9.42357 1.55085 9.38523 1.57224C9.34689 1.59362 9.29577 1.60788 9.23186 1.61644L9.17506 1.62357L8.68371 1.69058L8.71637 1.93155L8.421 1.97147L8.28609 0.989069ZM8.64963 1.45104L9.04441 1.39828L9.06287 1.39543C9.09269 1.39116 9.11684 1.38545 9.13814 1.3769C9.15802 1.36834 9.17222 1.35694 9.17932 1.34268C9.18642 1.32842 9.18926 1.31559 9.18926 1.30275C9.18926 1.28992 9.18784 1.27424 9.185 1.2557C9.18216 1.23859 9.17932 1.22291 9.17648 1.20865C9.17222 1.19439 9.16512 1.17871 9.15376 1.16302C9.1424 1.14734 9.11968 1.13878 9.08843 1.13593C9.05719 1.1345 9.00749 1.13736 8.94359 1.14591L8.61555 1.19011L8.64963 1.45104ZM10.3225 1.74904C10.2472 1.75617 10.1776 1.7576 10.1152 1.75332C10.0527 1.74904 10.0015 1.73051 9.96178 1.69771C9.92202 1.66492 9.89504 1.61929 9.87942 1.56226C9.8638 1.50522 9.85386 1.44676 9.84818 1.38973L9.8283 1.18298C9.81978 1.09886 9.8212 1.03612 9.8283 0.993346C9.83682 0.950571 9.8567 0.910648 9.88794 0.87215C9.91918 0.835078 9.96178 0.809413 10.0143 0.793729C10.0683 0.77947 10.1365 0.768064 10.2202 0.759509L10.7016 0.713882C10.7854 0.705327 10.855 0.703901 10.9104 0.708178C10.9658 0.712456 11.0112 0.729566 11.0481 0.759509C11.0851 0.789451 11.1092 0.825097 11.122 0.866447C11.1348 0.907796 11.1433 0.956274 11.149 1.01188L11.1532 1.05608L11.1731 1.2614L11.1788 1.32414C11.1845 1.38117 11.1845 1.42965 11.1802 1.471C11.176 1.51235 11.1603 1.54942 11.1348 1.57937C11.1092 1.61073 11.0666 1.6364 11.0084 1.65779C10.9487 1.67918 10.8763 1.69343 10.7883 1.70199L10.3225 1.74904ZM10.6945 1.46958L10.7201 1.46673C10.7542 1.46387 10.7854 1.45674 10.811 1.44676C10.8366 1.43678 10.855 1.42252 10.8635 1.40256C10.8721 1.38403 10.8763 1.36264 10.8777 1.34125C10.8777 1.31986 10.8777 1.2942 10.8749 1.26568L10.8621 1.13165C10.8593 1.10171 10.855 1.07604 10.8508 1.05466C10.8465 1.03327 10.838 1.01473 10.8266 0.99905C10.8153 0.983365 10.7954 0.971959 10.767 0.966255C10.74 0.960552 10.7087 0.959126 10.6761 0.961978L10.6477 0.964829L10.3125 0.996198L10.287 0.99905C10.2515 1.0019 10.2217 1.00903 10.1947 1.02044C10.1691 1.03042 10.1507 1.04753 10.1393 1.06892C10.1294 1.0903 10.1265 1.1345 10.1322 1.20152L10.145 1.33555C10.1478 1.36549 10.1507 1.39116 10.1549 1.41254C10.1592 1.4325 10.1663 1.45104 10.1791 1.46815C10.1918 1.48526 10.2117 1.49524 10.2387 1.50095C10.2657 1.50665 10.2969 1.50807 10.3338 1.5038L10.3594 1.50095L10.6945 1.46958ZM12.3447 0.624054C12.4199 0.621202 12.4796 0.622628 12.5222 0.629757C12.5648 0.636886 12.5989 0.655422 12.6244 0.685365C12.65 0.716733 12.6685 0.756657 12.6798 0.805135C12.6912 0.853614 12.6969 0.904944 12.6997 0.954849C12.7025 1.0076 12.6983 1.05181 12.6912 1.08745C12.6827 1.1231 12.6685 1.14876 12.6486 1.16445C12.6273 1.18013 12.5932 1.19867 12.5449 1.22005C12.5648 1.22576 12.5818 1.23004 12.5946 1.23431C12.6074 1.23859 12.6244 1.24715 12.6457 1.25998C12.667 1.27281 12.6841 1.29848 12.6954 1.33983C12.7082 1.38117 12.7153 1.42823 12.7167 1.48384L12.7182 1.52661L12.721 1.60218L12.4214 1.61501L12.4185 1.53659C12.4171 1.49382 12.4143 1.46102 12.4086 1.43821C12.4043 1.41397 12.3958 1.39828 12.383 1.38688C12.3702 1.3769 12.3518 1.36977 12.3276 1.36692C12.3035 1.36406 12.2779 1.36264 12.2524 1.36406L12.2297 1.36549L11.815 1.3826L11.8249 1.64068L11.5253 1.65351L11.4884 0.658274L12.3447 0.624054ZM11.8065 1.12595L12.2382 1.10884H12.2552C12.2893 1.10741 12.3191 1.10314 12.3447 1.09743C12.3702 1.0903 12.3873 1.08032 12.3958 1.06749C12.4043 1.05466 12.4086 1.04182 12.41 1.02899C12.4114 1.01616 12.4114 1.00333 12.4114 0.987643C12.41 0.954849 12.4057 0.932035 12.3972 0.916351C12.3887 0.902093 12.3731 0.88926 12.3518 0.882131C12.3291 0.873576 12.2964 0.870724 12.2538 0.87215L12.2311 0.873576L11.7979 0.890686L11.8065 1.12595ZM14.1439 0.599814V0.842207L13.7179 0.840781L13.7165 1.59077H13.4183L13.4197 0.840781H13.0022V0.598389L14.1439 0.599814ZM15.973 0.909222L15.1792 0.879279C15.1465 0.877853 15.1195 0.880705 15.0968 0.887834C15.0755 0.894963 15.0599 0.90637 15.0499 0.924906C15.04 0.942016 15.0329 0.969107 15.0301 1.00333C15.0258 1.03755 15.023 1.07604 15.0215 1.12025C15.0187 1.17158 15.0187 1.21435 15.0201 1.24715C15.0215 1.27994 15.0286 1.30703 15.04 1.32842C15.0528 1.34981 15.0698 1.36406 15.0925 1.37262C15.1153 1.38117 15.1465 1.38688 15.1863 1.3883L15.2203 1.38973L15.9772 1.42395C15.9744 1.44106 15.9716 1.45817 15.9687 1.47385C15.9588 1.52091 15.9389 1.55798 15.9077 1.58792C15.8764 1.61786 15.8395 1.6364 15.7941 1.64353C15.75 1.65066 15.6975 1.65351 15.6378 1.65066L15.1437 1.62927C15.057 1.62499 14.986 1.61786 14.9306 1.60503C14.8753 1.5922 14.8284 1.56511 14.7886 1.52376C14.7489 1.48098 14.7262 1.43536 14.7191 1.38688C14.712 1.3384 14.7105 1.26426 14.7148 1.1673L14.7191 1.05466C14.7233 0.961978 14.7304 0.892112 14.7404 0.845059C14.7503 0.798006 14.7759 0.755231 14.8185 0.716733C14.8611 0.678236 14.9136 0.655422 14.9789 0.646867C15.0443 0.638312 15.1153 0.632609 15.1934 0.638312L15.6691 0.67681C15.7429 0.682513 15.8026 0.689642 15.8466 0.706752C15.8906 0.723863 15.9219 0.750954 15.9403 0.7866C15.9588 0.82082 15.9687 0.862169 15.973 0.909222ZM16.3734 0.698197L16.6717 0.723863L16.6092 1.471L17.2823 1.52804L17.2624 1.77043L16.2897 1.68916L16.3734 0.698197ZM17.6728 0.809413L17.971 0.846485L17.9114 1.32984L17.9071 1.36834C17.9015 1.41397 17.8986 1.45104 17.9 1.48098C17.9015 1.51093 17.9086 1.53517 17.9242 1.5537C17.9384 1.57366 17.9568 1.5865 17.9767 1.59362C17.998 1.60075 18.0222 1.60646 18.0506 1.61073L18.0889 1.61501L18.3289 1.64496C18.3403 1.64638 18.3502 1.64781 18.3587 1.64923C18.39 1.65351 18.4169 1.65208 18.4368 1.64781C18.4567 1.64353 18.4737 1.63497 18.4851 1.62357C18.5007 1.61216 18.5107 1.59505 18.5178 1.57224C18.5249 1.54942 18.5306 1.51806 18.5348 1.47956L18.5433 1.41397L18.603 0.924906L18.9012 0.961978L18.8302 1.54657L18.8231 1.60218C18.8146 1.6749 18.8018 1.72908 18.7847 1.76187C18.7677 1.79467 18.7407 1.82746 18.7024 1.85741C18.664 1.88735 18.62 1.90446 18.5689 1.90731C18.5178 1.91016 18.4482 1.90588 18.3601 1.8959L17.9228 1.84172L17.8844 1.83744C17.829 1.83031 17.7836 1.81891 17.7495 1.80465C17.714 1.78896 17.6813 1.76045 17.6487 1.7191C17.6174 1.67775 17.599 1.62927 17.5947 1.57366C17.5905 1.51948 17.5919 1.46245 17.6004 1.40256L17.6047 1.36406L17.6728 0.809413ZM19.2491 1.00618L20.0969 1.14163C20.1608 1.15161 20.2204 1.16872 20.2758 1.19011C20.3312 1.21293 20.3681 1.24144 20.3852 1.27566C20.4022 1.31131 20.4107 1.3441 20.4122 1.3769C20.4136 1.40827 20.4122 1.44106 20.4065 1.47385C20.3994 1.5152 20.3894 1.548 20.3767 1.57081C20.3639 1.59505 20.3468 1.61359 20.3255 1.62499C20.3042 1.6364 20.2744 1.64781 20.2346 1.65636C20.2787 1.67347 20.3099 1.69058 20.3312 1.70627C20.3525 1.72195 20.3667 1.74762 20.3738 1.78326C20.3809 1.81891 20.3809 1.86026 20.3738 1.90874C20.3681 1.94438 20.3596 1.97575 20.3483 2.00569C20.3369 2.03563 20.3213 2.0613 20.2986 2.08411C20.2758 2.10693 20.2389 2.12404 20.1864 2.13259C20.1338 2.14115 20.0699 2.13972 19.9947 2.12831L19.0929 1.9843L19.2491 1.00618ZM19.482 1.44961L19.9407 1.52376L19.9677 1.52804C19.9947 1.53231 20.0188 1.53374 20.0373 1.53231C20.0557 1.53089 20.0713 1.52376 20.0827 1.51093C20.0941 1.49809 20.0997 1.48384 20.1026 1.46958C20.1054 1.45389 20.1026 1.43963 20.0969 1.42538C20.0912 1.41112 20.0784 1.39971 20.0586 1.39116C20.0387 1.3826 20.0145 1.3769 19.9861 1.37119L19.9577 1.36692L19.5061 1.2942L19.482 1.44961ZM19.945 1.87737L19.9677 1.88164C19.9904 1.88592 20.0103 1.88592 20.0259 1.8845C20.0429 1.88307 20.0543 1.87737 20.0614 1.87024C20.0685 1.86168 20.0728 1.8517 20.0756 1.8403C20.0784 1.82889 20.0799 1.82318 20.0799 1.82176C20.0827 1.80322 20.0813 1.78754 20.077 1.77328C20.0728 1.75902 20.06 1.74762 20.0401 1.73906C20.0202 1.73051 19.9947 1.72338 19.9677 1.7191L19.9393 1.71482L19.455 1.63783L19.4295 1.79752L19.945 1.87737Z" fill="white"/>
<defs>
<linearGradient id="paint0_linear_137_1393" x1="18.6993" y1="15.3433" x2="17.2507" y2="16.8553" gradientUnits="userSpaceOnUse">
<stop stop-color="#E78800"/>
<stop offset="1" stop-color="#EBB522"/>
</linearGradient>
<linearGradient id="paint1_linear_137_1393" x1="18.0082" y1="14.6814" x2="16.5595" y2="16.1935" gradientUnits="userSpaceOnUse">
<stop stop-color="#E78800"/>
<stop offset="1" stop-color="#EBB522"/>
</linearGradient>
</defs>
</svg>
