<svg width="74" height="76" viewBox="0 0 74 76" fill="none" xmlns="http://www.w3.org/2000/svg">
<path d="M53.6607 23.2047L35.9143 5.45825L1.40576 39.9527L19.1522 57.6992L36.8986 75.4456L71.4072 40.9371L53.6607 23.2047Z" fill="#003D6C"/>
<path d="M52.1559 24.6952L35.9563 8.48157L4.42896 39.9949L20.6426 56.2085L36.8563 72.4222L68.3696 40.8948L52.1559 24.6952Z" fill="#60BA46"/>
<path d="M55.4746 51.9195L56.459 50.9352V30.8122L55.4746 29.8279V51.9195ZM53.1825 54.2116L54.1668 53.2273V28.5201L53.1825 27.5357V54.2116ZM60.0589 47.3352L61.0432 46.3509V35.3965L60.0589 34.4121V47.3352ZM62.351 45.0431L63.3354 44.0588V37.6886L62.351 36.7043V45.0431ZM50.8904 56.5038L51.8747 55.5194V26.228L50.8904 25.2436V56.5038ZM57.7667 49.6274L58.7511 48.643V33.1044L57.7667 32.12V49.6274ZM39.4156 67.9644L40.4 66.9801V14.7673L39.4156 13.783V67.9644ZM41.7078 65.6723L42.6921 64.6879V17.0594L41.7078 16.0751V65.6723ZM48.5982 58.7959L49.5826 57.8116V23.9358L48.5982 22.9515V58.7959ZM64.6431 38.9964V42.7369L65.6275 41.7526V39.9667L64.6431 38.9964ZM37.1235 70.2566L38.1079 69.2722V12.4752L37.1235 11.4908V70.2566ZM46.3061 61.088L47.2904 60.1037V21.6437L46.3061 20.6593V61.088ZM44.014 63.3802L44.9983 62.3958V19.3516L44.014 18.3672V63.3802ZM18.7865 52.5101L19.7708 53.4945V26.5514L18.7865 27.5357V52.5101ZM27.955 61.6786L28.9393 62.663V17.3829L27.955 18.3672V61.6786ZM25.6628 59.3865L26.6472 60.3709V19.675L25.6628 20.6593V59.3865ZM30.2471 63.9848L31.2315 64.9692V15.0907L30.2471 16.0751V63.9848ZM34.8314 68.5691L35.8157 69.5534V10.5065L34.8314 11.4908V68.5691ZM32.5392 66.277L33.5236 67.2613V12.7986L32.5392 13.783V66.277ZM9.61794 43.3416L10.6023 44.3259V35.7199L9.61794 36.7043V43.3416ZM23.3707 57.0944L24.3551 58.0787V21.9671L23.3707 22.9515V57.0944ZM11.9101 45.6337L12.8944 46.6181V33.4278L11.9101 34.4121V45.6337ZM7.32581 41.0495L8.31016 42.0338V38.012L7.32581 38.9964V41.0495ZM14.2022 47.9259L15.1865 48.9102V31.1356L14.2022 32.12V47.9259ZM21.0786 54.8022L22.0629 55.7866V24.2593L21.0786 25.2436V54.8022ZM16.4943 50.218L17.4787 51.2023V28.8435L16.4943 29.8279V50.218Z" fill="white"/>
<path d="M62.1542 28.253C62.1542 27.9436 62.1542 27.789 62.1542 27.4796C62.6042 27.2265 62.8292 27.114 63.2792 26.8749C62.8292 26.3124 62.6042 26.0312 62.1542 25.4687C62.1542 23.6547 62.1542 21.8266 62.1542 20.0126C60.5933 19.4923 59.0183 19.0142 57.4153 18.5783C57.4153 20.2235 57.4153 21.8547 57.4153 23.5C57.0637 23.3875 56.7122 23.2891 56.3465 23.1766C56.3465 21.5454 56.3465 19.9282 56.3465 18.297C54.7575 17.8892 53.1544 17.5377 51.5373 17.2283C51.5373 18.2689 51.5373 18.8032 51.5373 19.8438C51.3123 18.7611 51.1998 18.2126 50.9748 17.1298C49.2733 16.8205 47.5718 16.5674 45.8562 16.3564C45.7015 17.0314 45.6312 17.3689 45.4765 18.058C44.6328 17.2705 44.2109 16.8767 43.3531 16.1033C41.7078 15.9627 40.0626 15.8643 38.4173 15.8221C37.672 15.808 37.3064 15.7939 36.5751 15.7939C34.4799 15.808 32.4127 15.8924 30.3315 16.0189C30.3315 16.1174 30.3315 16.1736 30.3315 16.2721C30.205 16.1736 30.1487 16.1314 30.0222 16.033C28.5175 16.1736 27.0129 16.3283 25.5223 16.5111C24.6645 17.3267 24.2286 17.7486 23.3708 18.5923C23.2161 17.9173 23.1458 17.5658 22.9911 16.8908C21.2896 17.172 19.5881 17.5236 17.9006 17.9173C17.7459 18.6486 17.6756 19.0142 17.535 19.7454C16.7053 19.2532 16.2835 19.0001 15.4538 18.5361C13.246 19.1267 11.0664 19.8157 8.91489 20.5891C8.91489 22.4032 8.91489 24.2312 8.91489 26.0453C8.4649 26.6077 8.23991 26.903 7.78992 27.4796C8.23991 27.7046 8.4649 27.8311 8.91489 28.0561C8.91489 29.8702 8.91489 31.6842 8.91489 33.4982L12.0648 36.0013C13.8929 35.3544 15.735 34.7497 17.6053 34.2576C17.7037 34.2294 17.76 34.2154 17.8584 34.1872C19.2084 33.8357 20.5724 33.5123 21.9364 33.217C22.0771 32.556 22.1333 32.2185 22.2739 31.5576C22.4146 32.1623 22.4708 32.4717 22.6114 33.0763C23.9895 32.8091 25.3817 32.5701 26.7738 32.3873C26.8582 32.3732 26.9004 32.3732 26.9848 32.3592C28.2363 32.1904 29.5019 32.0498 30.7534 31.9654C30.8659 31.867 30.9222 31.8107 31.0347 31.7123C31.0347 31.8107 31.0347 31.8529 31.0347 31.9373C32.8768 31.8248 34.7189 31.7545 36.5751 31.7404C37.2501 31.7404 37.5736 31.7404 38.2485 31.7686C39.6126 31.8107 40.9625 31.8951 42.3125 31.9935C42.4109 32.0076 42.4672 32.0076 42.5656 32.0217C43.9578 32.1623 45.3218 32.317 46.714 32.4998C46.8546 31.881 46.9249 31.5717 47.0514 30.967C47.1921 31.6279 47.2624 31.9514 47.3889 32.6123C48.3592 32.767 48.8373 32.8513 49.8076 33.0341C50.5811 33.1888 50.9748 33.2591 51.7482 33.4279C53.056 33.7091 53.7028 33.8779 54.9966 34.2154C55.6434 34.3982 55.9809 34.4825 56.6278 34.6794C58.3434 35.1997 60.0308 35.7763 61.7183 36.3809L64.9948 33.9201C64.9948 32.3592 64.9948 30.7983 64.9948 29.2374C63.8698 28.8436 63.2932 28.6327 62.1542 28.253Z" fill="#003D6C"/>
<path d="M10.2931 26.9594C10.1243 26.875 10.054 26.8328 9.88525 26.7344C10.054 26.5375 10.1243 26.425 10.2931 26.2281C10.2931 24.6672 10.2931 23.1063 10.2931 21.5454C11.8399 21.0251 13.3867 20.547 14.9617 20.1111C15.4679 20.3923 15.721 20.547 16.2273 20.8423C16.2273 22.0798 16.2273 22.6985 16.2273 23.9501C15.9179 24.3719 15.7632 24.5969 15.4679 25.0188C15.7773 25.3 15.9179 25.4266 16.2273 25.7078C16.2273 26.9453 16.2273 27.5781 16.2273 28.8156C15.721 29.364 15.4679 29.6452 14.9617 30.2077C13.3867 30.6436 11.8399 31.1217 10.2931 31.642C10.2931 30.0812 10.2931 28.5203 10.2931 26.9594ZM12.2336 25.0188C13.0352 24.7657 13.443 24.6532 14.2445 24.4141C14.2445 23.5141 14.2445 23.0641 14.2445 22.1642C13.443 22.3892 13.0352 22.5157 12.2336 22.7688C12.2336 23.6688 12.2336 24.1188 12.2336 25.0188ZM12.2336 29.139C13.0352 28.8859 13.443 28.7734 14.2445 28.5343C14.2445 27.6343 14.2445 27.1843 14.2445 26.2844C13.443 26.5094 13.0352 26.6359 12.2336 26.889C12.2336 27.789 12.2336 28.239 12.2336 29.139Z" fill="white"/>
<path d="M21.9786 28.6045C21.7818 27.7327 21.6833 27.3108 21.5005 26.439C20.6568 26.5936 20.249 26.678 19.4193 26.8608C19.2225 27.803 19.1381 28.267 18.9412 29.2092C18.1256 29.392 17.7319 29.4764 16.9163 29.6873C17.6334 26.1577 18.3506 22.6141 19.0678 19.0845C20.1787 18.8454 20.7412 18.7329 21.8661 18.522C22.5833 21.7703 23.3145 25.0046 24.0317 28.253C23.202 28.3936 22.7942 28.4639 21.9786 28.6045ZM21.0927 24.6671C20.8396 23.514 20.699 22.9234 20.4459 21.7703C20.1927 23.0359 20.0521 23.6547 19.799 24.9203C20.3193 24.8078 20.5724 24.7656 21.0927 24.6671Z" fill="white"/>
<path d="M30.8097 26.4531C30.2894 26.9171 30.0363 27.1421 29.516 27.6062C28.1238 27.7187 27.4207 27.803 26.0426 27.9858C25.5223 27.6343 25.2692 27.4515 24.7489 27.114C24.7489 26.4671 24.7489 26.1437 24.7489 25.4828C25.5504 25.3703 25.9582 25.314 26.7598 25.2156C26.7598 25.539 26.7598 25.7078 26.7598 26.0312C27.5754 25.9328 27.9832 25.8906 28.7988 25.8062C28.7988 24.9062 28.7988 24.4562 28.7988 23.5563C27.702 23.6547 27.1535 23.725 26.0567 23.8656C25.5364 23.5141 25.2833 23.3313 24.763 22.9797C24.763 21.686 24.763 20.4063 24.763 19.1126C25.2833 18.6064 25.5364 18.3673 26.0567 17.8752C27.4488 17.6924 28.1379 17.622 29.53 17.4955C30.0503 17.8752 30.3035 18.058 30.8238 18.4517C30.8238 19.0845 30.8238 19.3939 30.8238 20.0267C30.0222 20.0829 29.6144 20.111 28.8129 20.1954C28.8129 19.886 28.8129 19.7454 28.8129 19.4361C27.9973 19.5064 27.5895 19.5626 26.7739 19.6611C26.7739 20.561 26.7739 21.011 26.7739 21.911C27.8848 21.7844 28.4332 21.7282 29.5441 21.6298C30.0644 22.0094 30.3175 22.2063 30.8378 22.586C30.8097 23.8797 30.8097 25.1594 30.8097 26.4531Z" fill="white"/>
<path d="M37.0532 27.3108C35.2954 27.2967 33.5377 27.3389 31.7799 27.4374C31.7799 25.8765 31.7799 24.3156 31.7799 22.7547C31.6112 22.6141 31.5268 22.5578 31.358 22.4172C31.5268 22.2625 31.6112 22.1781 31.7799 22.0234C31.7799 20.4625 31.7799 18.9016 31.7799 17.3407C33.5236 17.2423 35.2673 17.2001 37.011 17.2142C37.011 17.9595 37.011 18.3392 37.011 19.0845C35.7314 19.0704 35.0845 19.0845 33.7908 19.1266C33.7908 20.0266 33.7908 20.4766 33.7908 21.3766C34.9017 21.3344 35.4501 21.3344 36.561 21.3344C36.561 22.0797 36.561 22.4594 36.561 23.2047C35.4501 23.2047 34.9017 23.2047 33.7908 23.2468C33.7908 24.1468 33.7908 24.5968 33.7908 25.4968C35.0986 25.4546 35.7454 25.4405 37.0532 25.4546C37.0532 26.1999 37.0532 26.5655 37.0532 27.3108Z" fill="white"/>
<path d="M38.0376 22.6423C37.8688 22.5017 37.7845 22.4173 37.6157 22.2767C37.7845 22.1361 37.8688 22.0658 38.0376 21.9111C38.0376 20.3502 38.0376 18.7893 38.0376 17.2284C39.6547 17.2565 41.2578 17.3409 42.8609 17.4675C43.3812 17.9315 43.6343 18.1706 44.1546 18.6487C44.1546 19.8861 44.1546 20.5049 44.1546 21.7564C43.8453 22.0798 43.6906 22.2345 43.3812 22.558C43.6906 22.9376 43.8453 23.1345 44.1546 23.5282C44.1546 24.7657 44.1546 25.3985 44.1546 26.636C43.6343 27.0016 43.3812 27.1985 42.8609 27.5781C41.2578 27.4516 39.6407 27.3672 38.0376 27.3391C38.0376 25.7641 38.0376 24.2032 38.0376 22.6423ZM40.0485 21.4189C40.8781 21.4611 41.3 21.4752 42.1297 21.5455C42.1297 20.6455 42.1297 20.1955 42.1297 19.2955C41.3 19.2393 40.8781 19.2112 40.0485 19.169C40.0485 20.0689 40.0485 20.5189 40.0485 21.4189ZM40.0485 25.5391C40.8781 25.5813 41.3 25.5954 42.1297 25.6657C42.1297 24.7657 42.1297 24.3157 42.1297 23.4157C41.3 23.3595 40.8781 23.3314 40.0485 23.2892C40.0485 24.1892 40.0485 24.6391 40.0485 25.5391Z" fill="white"/>
<path d="M49.9623 28.464C49.7655 27.5359 49.667 27.0718 49.4842 26.1297C48.6405 25.989 48.2186 25.9328 47.389 25.8203C47.1921 26.6921 47.0937 27.1281 46.9109 27.9999C46.0953 27.8874 45.6734 27.8452 44.8578 27.7609C45.589 24.4844 46.3062 21.2079 47.0374 17.9174C48.1624 18.072 48.7389 18.1564 49.8639 18.3392C50.5811 21.8407 51.3123 25.3281 52.0295 28.8296C51.1998 28.6749 50.792 28.6046 49.9623 28.464ZM49.0905 24.2031C48.8374 22.9516 48.6968 22.3329 48.4436 21.0813C48.1905 22.2485 48.0499 22.8391 47.7968 24.0063C48.303 24.0766 48.5702 24.1188 49.0905 24.2031Z" fill="white"/>
<path d="M57.8652 30.2077C56.248 29.7577 54.6028 29.3639 52.9575 29.0264C52.9575 27.4655 52.9575 25.9046 52.9575 24.3437C52.7887 24.1609 52.7044 24.0766 52.5497 23.8937C52.7184 23.7813 52.8028 23.725 52.9575 23.6125C52.9575 22.0516 52.9575 20.4907 52.9575 18.9298C53.759 19.0986 54.1528 19.1829 54.9543 19.3657C54.9543 20.9266 54.9543 22.4875 54.9543 24.0484C55.1231 24.2312 55.2074 24.3297 55.3762 24.5125C55.2074 24.6109 55.1231 24.6672 54.9543 24.7797C54.9543 25.9046 54.9543 26.4671 54.9543 27.6062C56.1215 27.8874 56.7121 28.028 57.8652 28.3515C57.8652 29.0967 57.8652 29.4624 57.8652 30.2077Z" fill="white"/>
<path d="M63.6308 32.0357C62.0418 31.4732 60.4246 30.9529 58.8075 30.4748C58.8075 28.9139 58.8075 27.353 58.8075 25.7921C58.6387 25.5952 58.5684 25.5109 58.3997 25.314C58.5684 25.2156 58.6387 25.1593 58.8075 25.0609C58.8075 23.5 58.8075 21.9391 58.8075 20.3782C59.5949 20.6032 59.9887 20.7297 60.7762 20.9688C60.7762 22.5297 60.7762 24.0906 60.7762 25.6515C60.9449 25.8484 61.0293 25.9468 61.184 26.1437C61.0152 26.228 60.9449 26.2843 60.7762 26.3686C60.7762 27.4936 60.7762 28.0561 60.7762 29.1951C61.9293 29.5608 62.5058 29.7576 63.6448 30.1654C63.6308 30.9248 63.6308 31.2904 63.6308 32.0357Z" fill="white"/>
<path d="M29.1222 69.5395C28.9112 69.3005 28.7706 69.1317 28.7565 69.1036L28.6862 69.0192C28.5456 68.8505 28.405 68.6536 28.2503 68.4567L28.1378 68.302C27.6034 67.5286 27.1956 66.6427 27.7159 65.8412C28.4894 64.6599 29.5721 64.8568 30.0784 64.9552C30.4299 65.0256 30.6831 65.0677 31.0487 64.9271C32.3002 64.3787 40.7234 56.4617 42.3406 54.7039C42.6078 54.4086 43.1421 53.804 43.8171 53.0305C46.8827 49.515 53.2669 42.2168 59.1027 36.9716L66.5697 30.2639C68.0181 28.9702 69.9868 28.7311 71.3649 29.7014L71.4352 29.7436L71.9977 30.278C72.1242 30.3905 72.2367 30.517 72.3492 30.6436C72.4898 30.7983 72.6305 30.967 72.757 31.1358L73.2211 31.7545L73.2633 31.8248C74.0789 33.3013 73.6429 35.2419 72.1945 36.5356L64.7275 43.2433C58.8777 48.4885 50.9326 54.043 47.1076 56.7008C46.2639 57.2914 45.603 57.7554 45.2796 57.9945C43.3531 59.4148 34.5783 66.938 33.8892 68.1192C33.7205 68.4567 33.7345 68.7239 33.7627 69.0895C33.8049 69.6379 33.9033 70.7629 32.5814 71.3676C31.4143 71.902 30.4018 70.8754 29.6565 70.1301C29.6143 70.0879 29.5862 70.0598 29.544 70.0176L29.4737 69.9614C29.4596 69.9473 29.3331 69.8348 29.1643 69.6379L29.1222 69.5395Z" fill="#003D6C"/>
<path d="M64.0243 42.4136L71.4913 35.706C72.4335 34.8623 72.9538 33.4701 72.335 32.3592L71.9132 31.7967C71.7163 31.5436 71.5054 31.3045 71.2663 31.0796L70.7601 30.6014C69.7195 29.8702 68.2851 30.2218 67.343 31.0796L59.876 37.7872C52.7324 44.1995 44.6888 53.8181 43.1842 55.4493C41.6795 57.0805 32.9188 65.4053 31.4704 65.9537C30.022 66.5162 29.347 65.3912 28.658 66.4318C28.3767 66.8537 29.1361 67.7818 29.6423 68.4286C29.6423 68.4286 29.7548 68.5833 29.9517 68.7942C30.1486 69.0052 30.2892 69.1458 30.2892 69.1458C30.8798 69.7223 31.6532 70.5801 32.1595 70.3411C33.2985 69.8208 32.2298 68.9771 32.9469 67.599C33.65 66.2209 42.8748 58.4164 44.6607 57.0945C46.4325 55.7727 56.8807 48.8119 64.0243 42.4136Z" fill="#AEB0B3"/>
<path d="M28.9814 66.0944C28.8689 66.1647 28.7564 66.2772 28.658 66.4319C28.3767 66.8537 29.1361 67.7818 29.6423 68.4287C29.6423 68.4287 29.7548 68.5834 29.9517 68.7943C30.1486 69.0052 30.2892 69.1458 30.2892 69.1458C30.8798 69.7224 31.6532 70.5802 32.1595 70.3411C32.3563 70.2568 32.4688 70.1583 32.5673 70.0458C30.5142 68.4427 29.4455 66.8678 28.9814 66.0944Z" fill="#6F7073"/>
<path d="M64.0243 42.4136L71.4913 35.7059C72.4335 34.8622 72.9538 33.47 72.3351 32.3591L71.9132 31.7966C71.7866 32.6404 70.296 34.3278 66.6399 37.6887C61.5072 42.3854 52.7887 50.204 49.1325 52.6649C45.4763 55.1398 42.3545 58.0929 39.3874 60.8069C36.4203 63.5208 33.186 66.4739 32.286 67.3036C31.4564 68.0629 32.2017 69.7363 31.6251 70.2988C31.822 70.3972 32.0048 70.4254 32.1595 70.3551C33.2985 69.8348 32.2298 68.991 32.947 67.6129C33.6501 66.2348 42.8748 58.4303 44.6607 57.1085C46.4326 55.7726 56.8807 48.8118 64.0243 42.4136Z" fill="#6F7073"/>
<path d="M40.7374 57.8679C40.7374 57.8679 45.5607 53.7617 48.106 50.7946C50.6653 47.8275 54.9683 43.1167 65.0931 33.8357C68.9602 30.292 69.4805 30.7279 70.5914 30.4889C69.5648 29.8983 68.2289 30.2639 67.343 31.0654L59.876 37.7731C52.7324 44.1854 44.6889 53.8039 43.1842 55.4351C42.7764 55.8851 41.8765 56.771 40.7374 57.8679Z" fill="white"/>
<path d="M44.5906 69.5395C44.8015 69.3005 44.9422 69.1317 44.9562 69.1036L45.0265 69.0052C45.1672 68.8364 45.3078 68.6396 45.4625 68.4427L45.575 68.288C46.1093 67.5146 46.5171 66.6287 45.9968 65.8271C45.2234 64.6459 44.1406 64.8428 43.6344 64.9412C43.2828 65.0115 43.0297 65.0537 42.6641 64.9131C41.4126 64.3647 32.9893 56.4477 31.3722 54.6899C31.105 54.3946 30.5706 53.7899 29.8957 53.0165C26.8301 49.501 20.4459 42.2027 14.6101 36.9575L7.14309 30.2499C5.69469 28.9562 3.72599 28.7171 2.3479 29.6874L2.27759 29.7296L1.7151 30.2639C1.58854 30.3764 1.47604 30.503 1.36355 30.6296C1.22293 30.7842 1.0823 30.953 0.955745 31.1217L0.449507 31.7545L0.407321 31.8248C-0.408284 33.3014 0.0276426 35.2419 1.47604 36.5357L8.94305 43.2433C14.7929 48.4885 22.738 54.043 26.5629 56.7008C27.4066 57.2914 28.0676 57.7555 28.391 57.9945C30.3175 59.4148 39.0923 66.938 39.7813 68.1193C39.9501 68.4568 39.936 68.7239 39.9079 69.0896C39.8657 69.638 39.7673 70.7629 41.0891 71.3676C42.2563 71.902 43.2688 70.8754 44.0141 70.1301C44.0562 70.088 44.0844 70.0598 44.1265 70.0177L44.1969 69.9614C44.2109 69.9473 44.3375 69.8348 44.5062 69.638L44.5906 69.5395Z" fill="#003D6C"/>
<path d="M9.6883 42.4135L2.2213 35.7059C1.27914 34.8622 0.758838 33.47 1.37757 32.3591L1.79944 31.7966C1.99631 31.5435 2.20724 31.3044 2.4463 31.0794L2.95253 30.6013C3.99313 29.8701 5.42747 30.2216 6.36964 31.0794L13.8366 37.7871C20.9802 44.1994 29.0238 53.8179 30.5284 55.4491C32.0331 57.0804 40.7938 65.4051 42.2422 65.9536C43.6906 66.5161 44.3656 65.3911 45.0546 66.4317C45.3359 66.8535 44.5765 67.7816 44.0703 68.4285C44.0703 68.4285 43.9578 68.5832 43.7609 68.7941C43.564 69.0051 43.4234 69.1457 43.4234 69.1457C42.8328 69.7222 42.0594 70.58 41.5531 70.341C40.4141 69.8207 41.4828 68.9769 40.7657 67.5988C40.0626 66.2207 30.8378 58.4163 29.0519 57.0944C27.2801 55.7726 16.8319 48.8118 9.6883 42.4135Z" fill="#AEB0B3"/>
<path d="M44.7311 66.0942C44.8436 66.1645 44.9561 66.277 45.0545 66.4317C45.3358 66.8536 44.5764 67.7817 44.0702 68.4286C44.0702 68.4286 43.9577 68.5832 43.7608 68.7942C43.564 69.0051 43.4233 69.1457 43.4233 69.1457C42.8327 69.7223 42.0593 70.5801 41.5531 70.341C41.3562 70.2566 41.2437 70.1582 41.1453 70.0457C43.1983 68.4426 44.2671 66.8677 44.7311 66.0942Z" fill="#6F7073"/>
<path d="M9.68831 42.4136L2.2213 35.7059C1.27914 34.8622 0.758838 33.47 1.37757 32.3591L1.79944 31.7966C1.926 32.6404 3.41658 34.3278 7.07274 37.6887C12.2054 42.3854 20.924 50.204 24.5801 52.6649C28.2363 55.1398 31.3581 58.0929 34.3252 60.8069C37.2923 63.5208 40.5266 66.4739 41.4266 67.3036C42.2563 68.0629 41.511 69.7363 42.0875 70.2988C41.8906 70.3972 41.7078 70.4254 41.5531 70.3551C40.4141 69.8348 41.4828 68.991 40.7657 67.6129C40.0626 66.2348 30.8378 58.4303 29.0519 57.1085C27.2801 55.7726 16.8319 48.8118 9.68831 42.4136Z" fill="#6F7073"/>
<path d="M32.9752 57.8679C32.9752 57.8679 28.1518 53.7617 25.6066 50.7946C23.0473 47.8275 18.7443 43.1167 8.61952 33.8357C4.75243 30.292 4.23213 30.7279 3.12122 30.4889C4.14775 29.8983 5.48366 30.2639 6.36957 31.0654L13.8366 37.7731C20.9802 44.1854 29.0237 53.8039 30.5284 55.4351C30.9362 55.8851 31.8361 56.771 32.9752 57.8679Z" fill="white"/>
<path d="M65.0088 54.2258C65.0088 52.9462 65.0088 51.6665 65.0088 50.3868C63.8557 49.5853 63.2651 49.1634 62.0979 48.3197C60.5933 48.7416 59.1027 49.1212 57.584 49.4869C56.9934 49.6275 56.6981 49.6837 56.1215 49.8103C54.7856 50.0915 54.1247 50.2322 52.7747 50.4572C52.1982 50.5556 51.9029 50.6118 51.3263 50.6962C50.2857 50.865 49.7654 50.9353 48.7248 51.0759C48.1342 51.1462 47.8249 51.1884 47.2342 51.2587C46.6014 51.329 46.2921 51.3571 45.6593 51.4274C45.4624 51.8493 45.378 52.0602 45.1812 52.4821C44.9843 52.0884 44.8999 51.8915 44.7031 51.5118C43.4796 51.6102 42.8609 51.6524 41.6234 51.7087C41.6234 51.9899 41.6234 52.1305 41.6234 52.4118C41.5672 52.1305 41.5391 51.9899 41.4828 51.7227C40.0344 51.7931 39.3032 51.8071 37.8548 51.8212C37.7985 52.1024 37.7704 52.243 37.7142 52.5243C37.7142 52.243 37.7142 52.1024 37.7142 51.8212C35.5908 51.8352 33.4815 51.7649 31.3581 51.6243C31.3581 51.7227 31.3581 51.7649 31.3581 51.8493C31.2596 51.7509 31.2034 51.6946 31.0909 51.5962C29.8253 51.5118 29.1925 51.4556 27.9269 51.329C27.3222 51.2728 27.0269 51.2306 26.4363 51.1603C24.8473 50.9634 23.2583 50.7384 21.6833 50.4572C21.6833 50.4712 21.6833 50.4712 21.6833 50.4853C21.6693 50.4712 21.6693 50.4712 21.6552 50.4572C20.3474 50.2322 19.7006 50.1056 18.4068 49.8244L18.3928 49.8384V49.8244C16.3819 49.3744 14.3991 48.8681 12.4164 48.3197C11.2492 49.1634 10.6727 49.5853 9.50549 50.3868C9.50549 51.6665 9.50549 52.9462 9.50549 54.2258C10.082 54.4086 10.3633 54.5071 10.9398 54.6758C10.9398 54.8867 10.9398 54.9992 10.9398 55.2102C10.6023 55.4352 10.4336 55.5336 10.0961 55.7586C10.4336 56.1804 10.6023 56.3914 10.9398 56.8132C10.9398 58.2757 10.9398 59.7241 10.9398 61.1866C12.1914 61.5662 13.457 61.9319 14.7226 62.2553C14.7226 61.735 14.7226 61.4678 14.7226 60.9335C15.3132 61.6084 15.6085 61.9459 16.1991 62.6209C17.6475 62.9725 18.3646 63.1272 19.813 63.4225C20.1505 63.1834 20.3334 63.0709 20.6708 62.8318C21.0083 63.1975 21.1771 63.3803 21.5286 63.7459C22.963 63.999 23.6801 64.1115 25.1145 64.3084C25.1285 64.2943 25.1426 64.2943 25.1567 64.2802C25.1567 64.2943 25.1567 64.3084 25.1567 64.3224C26.9847 64.5756 28.8269 64.7584 30.669 64.899C31.5549 64.9693 32.0049 64.9974 32.8908 65.0396C34.0721 65.0959 34.6627 65.1099 35.8439 65.138C36.1392 65.138 36.2939 65.138 36.5892 65.1521C37.8829 65.1662 38.5157 65.1521 39.8094 65.124C39.8797 64.8005 39.9079 64.6459 39.9641 64.3224C40.0344 64.6459 40.0625 64.8005 40.1188 65.1099C40.9344 65.0818 41.3422 65.0677 42.1437 65.0255C42.9172 64.9834 43.2968 64.9552 44.0703 64.899C44.8437 64.8427 45.2374 64.8005 46.0108 64.7302C46.0952 64.7162 46.1515 64.7162 46.2218 64.7162C47.1077 64.6318 47.5436 64.5756 48.4295 64.4631C49.0904 64.3787 49.4279 64.3365 50.1029 64.2381C51.2701 64.0693 51.8466 63.9709 53.0138 63.774C53.6747 63.6615 54.0122 63.5912 54.6591 63.4646C56.0512 63.1975 57.4574 62.8881 58.8355 62.5365C59.2293 62.4381 59.4261 62.3819 59.8199 62.2834C61.0855 61.96 62.3511 61.5944 63.6026 61.2147C63.6026 59.7522 63.6026 58.3038 63.6026 56.8414C63.9401 56.4195 64.0948 56.2086 64.4323 55.7867C64.0948 55.5758 63.9401 55.4633 63.6026 55.2383C63.6026 55.0274 63.6026 54.9149 63.6026 54.6899C64.151 54.5071 64.4323 54.4086 65.0088 54.2258Z" fill="#003D6C"/>
<path d="M14.9757 54.6336C14.3991 54.4789 14.1038 54.4086 13.5273 54.2539C13.5273 55.1398 13.5273 55.5898 13.5273 56.4898C13.6538 56.6444 13.7101 56.7148 13.8226 56.8554C13.696 56.9397 13.6398 56.9819 13.5273 57.0522C13.5273 58.5288 13.5273 59.2741 13.5273 60.7646C12.9507 60.61 12.6554 60.5256 12.0789 60.3568C12.0789 58.8803 12.0789 58.135 12.0789 56.6444C11.9523 56.4898 11.8961 56.4194 11.7695 56.2648C11.8961 56.1804 11.9523 56.1382 12.0789 56.0679C12.0789 55.182 12.0789 54.732 12.0789 53.832C11.5023 53.6633 11.2211 53.5789 10.6445 53.3961C10.6445 52.8055 10.6445 52.5102 10.6445 51.9196C12.0789 52.3555 13.5273 52.7633 14.9757 53.143C14.9757 53.7617 14.9757 54.057 14.9757 54.6336Z" fill="white"/>
<path d="M20.2911 61.5099C19.9114 61.7771 19.7286 61.9037 19.349 62.1568C18.2521 61.9318 17.7037 61.8193 16.6209 61.5521C16.2412 61.1303 16.0584 60.9193 15.6928 60.4975C15.6928 59.3444 15.6928 58.7678 15.6928 57.6288C15.5662 57.4882 15.51 57.4178 15.3834 57.2632C15.51 57.1788 15.5662 57.1366 15.6928 57.0522C15.6928 55.8991 15.6928 55.3366 15.6928 54.1836C16.0584 53.9445 16.2553 53.8179 16.6209 53.5648C17.7037 53.8179 18.2521 53.9445 19.349 54.1695C19.7286 54.5773 19.9114 54.7882 20.2911 55.196C20.2911 56.3491 20.2911 56.9116 20.2911 58.0647C20.4177 58.2053 20.4739 58.2756 20.6005 58.4163C20.4739 58.5006 20.4177 58.5569 20.2911 58.6413C20.2911 59.7803 20.2911 60.3568 20.2911 61.5099ZM18.8286 58.346C18.7021 58.2053 18.6458 58.135 18.5193 57.9944C18.6458 57.91 18.7021 57.8538 18.8286 57.7694C18.8286 56.8835 18.8286 56.4335 18.8286 55.5335C18.1537 55.3929 17.8302 55.3226 17.1553 55.1679C17.1553 56.0538 17.1553 56.5038 17.1553 57.4038C17.2818 57.5444 17.3381 57.6147 17.4646 57.7694C17.3381 57.8538 17.2818 57.896 17.1553 57.9803C17.1553 58.8663 17.1553 59.3162 17.1553 60.2162C17.8302 60.3709 18.1537 60.4412 18.8286 60.5818C18.8286 59.6819 18.8286 59.2319 18.8286 58.346Z" fill="white"/>
<path d="M25.6207 62.3538C25.227 62.6351 25.0442 62.7757 24.6504 63.0569C23.5677 62.9022 23.0333 62.8179 21.9505 62.6351C21.5708 62.2413 21.388 62.0304 21.0083 61.6366C21.0083 60.4835 21.0083 59.907 21.0083 58.768C20.8818 58.6273 20.8255 58.557 20.699 58.4305C20.8255 58.332 20.8818 58.2898 21.0083 58.1914C21.0083 56.7149 21.0083 55.9696 21.0083 54.479C21.599 54.5915 21.8943 54.6337 22.4849 54.7321C22.4849 56.2086 22.4849 56.9539 22.4849 58.4445C22.6114 58.5851 22.6677 58.6555 22.7942 58.782C22.6677 58.8805 22.6114 58.9226 22.4849 59.0211C22.4849 59.907 22.4849 60.357 22.4849 61.257C23.1458 61.3695 23.4833 61.4257 24.1442 61.5241C24.1442 60.6382 24.1442 60.1882 24.1442 59.2883C24.0176 59.1617 23.9614 59.0914 23.8348 58.9508C23.9614 58.8523 24.0176 58.8101 24.1442 58.7117C24.1442 57.2352 24.1442 56.4899 24.1442 54.9993C24.7348 55.0837 25.0301 55.1259 25.6207 55.2102C25.6207 56.6868 25.6207 57.4321 25.6207 58.9226C25.7473 59.0492 25.8035 59.1195 25.9301 59.2461C25.8035 59.3445 25.7473 59.3867 25.6207 59.4851C25.6207 60.6382 25.6207 61.2148 25.6207 62.3538Z" fill="white"/>
<path d="M26.3238 59.5834C26.1972 59.4568 26.141 59.3865 26.0144 59.26C26.141 59.1615 26.1972 59.1053 26.3238 59.0068C26.3238 59.2318 26.3238 59.3584 26.3238 59.5834ZM31.119 63.7458C30.4862 63.7036 30.1627 63.6755 29.5159 63.6192C29.0096 62.2693 28.7565 61.5943 28.2503 60.2443C28.0675 60.2303 27.9831 60.2162 27.8144 60.2021C27.8144 61.5099 27.8144 62.1568 27.8144 63.4505C27.2237 63.3942 26.9144 63.352 26.3238 63.2817C26.3238 60.624 26.3238 57.9522 26.3238 55.2944C27.744 55.4632 28.4612 55.5476 29.8956 55.6601C30.2752 56.0257 30.4721 56.2085 30.8518 56.5741C30.8518 57.7412 30.8518 58.3319 30.8518 59.5131C30.444 59.8646 30.2471 60.0334 29.8393 60.3709C30.3455 61.7208 30.5987 62.3958 31.119 63.7458ZM27.8144 58.7256C28.4331 58.7959 28.7425 58.824 29.3612 58.8803C29.3612 58.1631 29.3612 57.8116 29.3612 57.0944C28.7425 57.0381 28.4331 57.01 27.8144 56.9397C27.8144 57.6569 27.8144 58.0084 27.8144 58.7256Z" fill="white"/>
<path d="M34.958 63.9287C34.4096 62.5225 33.8752 61.1022 33.3268 59.682C33.3268 61.0741 33.3268 62.4663 33.3268 63.8584C32.7362 63.8303 32.4409 63.8162 31.8362 63.7881C31.8362 62.3116 31.8362 61.5663 31.8362 60.0757C31.7097 59.9491 31.6534 59.8929 31.5269 59.7663C31.6534 59.6538 31.7097 59.5976 31.8362 59.4992C31.8362 58.0226 31.8362 57.2773 31.8362 55.7867C32.469 55.8289 32.7925 55.843 33.4393 55.8711C33.9877 57.2914 34.5221 58.6976 35.0705 60.1179C35.0705 58.7257 35.0705 57.3195 35.0705 55.9274C35.6611 55.9414 35.9564 55.9414 36.547 55.9555C36.547 57.432 36.547 58.1773 36.547 59.6679C36.6736 59.7804 36.7299 59.8366 36.8564 59.9632C36.7299 60.0757 36.6736 60.1319 36.547 60.2444C36.547 61.721 36.547 62.4663 36.547 63.9428C36.547 63.9428 36.547 63.9428 36.547 63.9569C35.9142 63.9428 35.5908 63.9428 34.958 63.9287Z" fill="white"/>
<path d="M41.089 63.8725C40.9484 63.1694 40.8781 62.8179 40.7234 62.1148C40.1047 62.1429 39.7813 62.1429 39.1625 62.1569C39.0219 62.8741 38.9516 63.2257 38.7969 63.9428C38.1922 63.9569 37.8829 63.9569 37.2782 63.9569C37.8126 61.2851 38.361 58.6273 38.8953 55.9555C39.7391 55.9415 40.1609 55.9274 40.9906 55.8993C41.525 58.5289 42.0593 61.1726 42.6078 63.8022C42.0031 63.8303 41.6937 63.8444 41.089 63.8725ZM40.4281 60.6523C40.2312 59.7101 40.1328 59.232 39.95 58.2758C39.7531 59.232 39.6547 59.7242 39.4719 60.6804C39.8516 60.6664 40.0344 60.6664 40.4281 60.6523Z" fill="white"/>
<path d="M48.8935 63.1975C48.3029 63.2819 47.9935 63.31 47.4029 63.3803C47.4029 61.8757 47.4029 60.3851 47.4029 58.8804C46.8826 60.0335 46.6295 60.6101 46.1092 61.7632C45.5889 60.7226 45.3358 60.1882 44.8155 59.1336C44.8155 60.6382 44.8155 62.1288 44.8155 63.6335C44.2249 63.6897 43.9155 63.7038 43.3249 63.746C43.3249 62.2694 43.3249 61.5241 43.3249 60.0335C43.1983 59.9351 43.1421 59.8789 43.0155 59.7664C43.1421 59.6398 43.1983 59.5836 43.3249 59.457C43.3249 57.9805 43.3249 57.2352 43.3249 55.7446C43.9155 55.7024 44.2249 55.6883 44.8155 55.6321C45.3358 56.6868 45.5889 57.2071 46.1092 58.2617C46.6295 57.1086 46.8826 56.5321 47.4029 55.379C47.9935 55.3087 48.3029 55.2805 48.8935 55.1962C48.8935 56.6727 48.8935 57.418 48.8935 58.9086C49.02 59.007 49.0763 59.0633 49.2029 59.1617C49.0763 59.2883 49.02 59.3586 48.8935 59.4851C48.8935 60.9757 48.8935 61.721 48.8935 63.1975Z" fill="white"/>
<path d="M53.4637 62.4804C52.184 62.7194 50.8903 62.9304 49.6106 63.0991C49.6106 61.6226 49.6106 60.8773 49.6106 59.3867C49.4841 59.2883 49.4278 59.2461 49.3013 59.1476C49.4278 59.0211 49.4841 58.9508 49.6106 58.8101C49.6106 57.3336 49.6106 56.5883 49.6106 55.0977C50.8903 54.929 52.1699 54.7181 53.4355 54.479C53.4355 55.0696 53.4355 55.3649 53.4355 55.9555C52.4934 56.1243 52.0293 56.2086 51.0872 56.3493C51.0872 57.0664 51.0872 57.418 51.0872 58.1352C51.9028 58.0086 52.2965 57.9383 53.1121 57.7977C53.1121 58.3883 53.1121 58.6836 53.1121 59.2742C52.3106 59.4148 51.9028 59.4851 51.0872 59.6117C51.0872 60.3289 51.0872 60.6804 51.0872 61.3976C52.0434 61.2429 52.5215 61.1726 53.4637 60.9898C53.4637 61.5945 53.4637 61.8898 53.4637 62.4804Z" fill="white"/>
<path d="M57.2464 61.7068C56.712 60.4271 56.1777 59.1474 55.6433 57.8678C55.6433 59.2599 55.6433 60.6521 55.6433 62.0442C55.0527 62.1708 54.7714 62.2271 54.1808 62.3395C54.1808 60.863 54.1808 60.1177 54.1808 58.6271C54.0543 58.5428 53.998 58.4865 53.8715 58.4021C53.998 58.2615 54.0543 58.1912 54.1808 58.0506C54.1808 56.5741 54.1808 55.8288 54.1808 54.3382C54.8136 54.2116 55.123 54.1554 55.7558 54.0148C56.2901 55.2944 56.8245 56.5741 57.3589 57.8537C57.3589 56.4616 57.3589 55.0554 57.3589 53.6632C57.9354 53.5226 58.2307 53.4663 58.8073 53.3116C58.8073 54.7882 58.8073 55.5335 58.8073 57.0241C58.9338 57.1084 58.9901 57.1506 59.1166 57.235C58.9901 57.3756 58.9338 57.4459 58.8073 57.6006C58.8073 59.0771 58.8073 59.8224 58.8073 61.299C58.8073 61.299 58.8073 61.299 58.8073 61.313C58.1885 61.4818 57.8651 61.5521 57.2464 61.7068Z" fill="white"/>
<path d="M63.8416 53.4101C63.2651 53.593 62.9838 53.6773 62.4073 53.8461C62.4073 54.732 62.4073 55.182 62.4073 56.082C62.5339 56.1663 62.5901 56.2085 62.7026 56.2788C62.576 56.4335 62.5198 56.5038 62.4073 56.6444C62.4073 58.121 62.4073 58.8663 62.4073 60.3568C61.8307 60.5256 61.5354 60.61 60.9589 60.7646C60.9589 59.2881 60.9589 58.5428 60.9589 57.0522C60.8323 56.9679 60.7761 56.9257 60.6495 56.8554C60.7761 56.7007 60.8323 56.6304 60.9589 56.4757C60.9589 55.5898 60.9589 55.1398 60.9589 54.2398C60.3823 54.3945 60.087 54.4789 59.5105 54.6195C59.5105 54.0289 59.5105 53.7336 59.5105 53.143C60.9589 52.7633 62.4073 52.3555 63.8416 51.9196C63.8416 52.5242 63.8416 52.8195 63.8416 53.4101Z" fill="white"/>
<path d="M37.3266 15.2093C41.1128 14.4994 43.6067 10.8545 42.8967 7.06833C42.1868 3.28211 38.5419 0.78829 34.7557 1.49823C30.9695 2.20817 28.4757 5.85303 29.1856 9.63925C29.8955 13.4255 33.5404 15.9193 37.3266 15.2093Z" fill="#003D6C"/>
<path d="M40.2123 12.5286C42.5188 10.2222 42.5188 6.48267 40.2123 4.17621C37.9059 1.86976 34.1664 1.86976 31.8599 4.17621C29.5535 6.48267 29.5535 10.2222 31.8599 12.5286C34.1664 14.8351 37.9059 14.8351 40.2123 12.5286Z" fill="#C4DBE7"/>
<path d="M34.0442 2.80047C32.2021 3.46139 30.8803 4.95198 30.374 6.69569C30.4021 6.80818 30.4443 6.90662 30.4725 7.01912C31.5693 10.0987 34.9583 11.6878 38.0238 10.5909C39.866 9.92998 41.1878 8.43939 41.6941 6.69569C41.6659 6.58319 41.6237 6.48475 41.5956 6.37226C40.4988 3.29265 37.1098 1.68956 34.0442 2.80047Z" fill="white"/>
<path d="M40.6955 4.7269C40.3861 4.33316 40.0346 3.98161 39.6549 3.6863C38.5862 5.02221 37.5034 6.9206 37.5315 9.18461C37.5456 10.6611 38.0377 12.0955 39.008 13.4736C39.4299 13.2204 39.8236 12.9251 40.1611 12.5876C39.3877 11.4767 38.994 10.3236 38.9799 9.17054C38.9518 7.39871 39.8096 5.85187 40.6955 4.7269ZM31.3864 4.71284C32.2723 5.85188 33.1301 7.39871 33.1019 9.15648C33.0879 10.3236 32.6801 11.4627 31.9067 12.5876C32.2582 12.9251 32.6519 13.2204 33.0597 13.4595C34.03 12.0955 34.5222 10.6471 34.5503 9.17054C34.5785 6.90654 33.4957 4.99408 32.427 3.67224C32.0332 3.98161 31.6817 4.33316 31.3864 4.71284Z" fill="#C4DBE7"/>
<path d="M34.3957 10.9424C34.0441 11.0268 33.7207 11.1112 33.3691 11.1533L33.4254 11.519C33.7629 11.4768 34.1144 11.4205 34.466 11.3502C34.5644 11.3221 34.6347 11.2096 34.6207 11.0971C34.6066 10.9705 34.4941 10.9143 34.3957 10.9424ZM32.5535 7.90499C32.5254 7.98936 32.5676 8.07373 32.666 8.08779C32.8348 8.12998 32.9895 8.17217 33.1582 8.21435C33.327 8.25654 33.4816 8.31279 33.6363 8.3831C33.6785 8.2706 33.7348 8.1581 33.7629 8.04561C33.4254 7.93311 33.102 7.84874 32.7785 7.77843C32.6801 7.76436 32.5817 7.82061 32.5535 7.90499ZM32.3567 11.1533C32.5957 11.3924 32.8207 11.6455 33.0316 11.9127C33.1301 11.8424 33.2285 11.7721 33.327 11.6877C33.102 11.4205 32.8629 11.1674 32.6238 10.9424C32.5535 10.8721 32.441 10.8721 32.3707 10.9283C32.2864 10.9846 32.2864 11.083 32.3567 11.1533ZM32.5254 6.9347C32.427 6.9347 32.3285 6.99094 32.3145 7.08938C32.3004 7.17375 32.3567 7.25813 32.4551 7.25813C32.6238 7.27219 32.7926 7.30031 32.9613 7.32844C33.1301 7.35656 33.2988 7.38469 33.4676 7.42687C33.4957 7.31437 33.5238 7.18782 33.5519 7.07532C33.2004 7.00501 32.8629 6.96282 32.5254 6.9347ZM34.0441 12.0111C33.6926 12.0533 33.341 12.0674 32.9895 12.0814C32.9895 12.208 33.0035 12.3346 32.9895 12.4471C33.341 12.4611 33.6785 12.4471 34.0301 12.4189C34.1285 12.4049 34.2269 12.3064 34.2269 12.1939C34.241 12.0814 34.1426 11.9971 34.0441 12.0111ZM32.9895 5.61285C33.1863 5.33161 33.3832 5.03631 33.5519 4.72694C33.6082 4.64257 33.566 4.51601 33.4816 4.45976C33.3832 4.40351 33.2707 4.43163 33.2285 4.51601C33.0598 4.82537 32.877 5.12068 32.6942 5.40192L32.9895 5.61285ZM32.5535 4.93787C32.216 4.96599 31.8645 5.02224 31.5411 5.07849C31.4426 5.09255 31.3723 5.19099 31.3723 5.27536C31.3723 5.3738 31.4567 5.43005 31.5551 5.41598C31.8926 5.35974 32.2301 5.33161 32.5676 5.30349L32.5535 4.93787ZM33.0316 6.17534L33.0457 5.80972C32.7082 5.79566 32.3567 5.82379 32.0192 5.83785C31.9207 5.85191 31.8364 5.92222 31.8364 6.02066C31.8364 6.11909 31.9067 6.17534 32.0051 6.17534C32.3426 6.16128 32.6801 6.16128 33.0316 6.17534ZM32.2582 11.7721C32.1879 11.6877 32.0754 11.6736 32.0051 11.7158C31.9348 11.758 31.9067 11.8565 31.977 11.9408C32.1739 12.208 32.3707 12.4892 32.5535 12.7846L32.8629 12.6017C32.6801 12.3064 32.4832 12.0393 32.2582 11.7721ZM32.9473 3.8129C32.9895 3.71446 32.9473 3.60197 32.8488 3.54572C32.7504 3.50353 32.6379 3.53166 32.5957 3.63009C32.4551 3.95352 32.3004 4.26289 32.1457 4.57225C32.2582 4.6285 32.3567 4.68475 32.4692 4.741C32.6379 4.43163 32.8067 4.12227 32.9473 3.8129ZM33.3551 13.3189C33.1441 13.3049 32.9332 13.2908 32.7363 13.2627C32.9613 13.4173 33.1863 13.5439 33.4395 13.6705C33.4816 13.6423 33.5238 13.5861 33.5379 13.5298C33.5379 13.4033 33.4676 13.3189 33.3551 13.3189ZM33.7207 10.408C33.4395 10.1971 33.1723 10.0002 32.891 9.81744C32.8067 9.76119 32.6942 9.77525 32.6379 9.84556C32.5817 9.91587 32.5957 10.0002 32.6801 10.0565C32.8207 10.1549 32.9613 10.2534 33.102 10.3518C33.2285 10.4502 33.3691 10.5627 33.4957 10.6752C33.5519 10.5909 33.6504 10.4924 33.7207 10.408ZM34.8738 9.55026C34.8316 9.43776 34.7191 9.39557 34.6347 9.45182C34.3113 9.60651 34.0019 9.74713 33.6785 9.87369L33.791 10.2112C34.1144 10.1127 34.466 9.98618 34.7754 9.8315C34.8738 9.78931 34.916 9.66275 34.8738 9.55026ZM33.5238 6.85032C33.6504 6.72376 33.7629 6.5972 33.8754 6.47065C33.9879 6.34409 34.1004 6.20346 34.2129 6.06284C34.2832 5.97847 34.2691 5.85191 34.1847 5.7816C34.1004 5.71129 33.9879 5.72535 33.9176 5.80972C33.7066 6.09097 33.4816 6.35815 33.2566 6.61127C33.341 6.68158 33.4254 6.76595 33.5238 6.85032ZM33.7769 7.84874C33.9176 7.73624 34.0582 7.6378 34.1847 7.51124C34.3113 7.39875 34.4379 7.27219 34.5644 7.14563C34.6347 7.07532 34.6347 6.9347 34.5644 6.85032C34.4941 6.76595 34.3676 6.76595 34.2972 6.83626C34.0582 7.08938 33.791 7.32844 33.5379 7.55343C33.6363 7.65187 33.7066 7.7503 33.7769 7.84874ZM32.9332 8.94558C32.8488 8.9034 32.7363 8.94558 32.6801 9.0159C32.6379 9.08621 32.666 9.18464 32.7645 9.22683C33.0598 9.36745 33.3551 9.52213 33.6504 9.70494L33.8473 9.39557C33.5519 9.22683 33.2285 9.07214 32.9332 8.94558ZM33.7207 8.87527L33.8894 9.1987C34.1988 9.04402 34.4941 8.87527 34.8035 8.6784C34.8879 8.62216 34.916 8.4956 34.8597 8.3831C34.8035 8.28466 34.691 8.25654 34.6066 8.31279C34.3113 8.52372 34.0301 8.70653 33.7207 8.87527Z" fill="#ED232F"/>
<path d="M37.4612 11.0831C37.4471 11.1956 37.5034 11.3081 37.6159 11.3363C37.9674 11.4206 38.319 11.4769 38.6565 11.505L38.7127 11.1394C38.3612 11.0972 38.0377 11.0128 37.6862 10.9285C37.5737 10.9144 37.4752 10.9706 37.4612 11.0831ZM39.2893 7.79259C38.9658 7.8629 38.6424 7.94728 38.3049 8.05977C38.333 8.17227 38.3893 8.28477 38.4315 8.39727C38.5862 8.34102 38.7549 8.28477 38.9096 8.22852C39.0783 8.18633 39.233 8.13008 39.4018 8.10196C39.5002 8.07384 39.5424 8.00353 39.5143 7.91915C39.4861 7.82072 39.3877 7.76447 39.2893 7.79259ZM39.7252 10.9285C39.6549 10.8722 39.5424 10.8863 39.4721 10.9425C39.233 11.1675 38.994 11.4206 38.769 11.6878C38.8674 11.7581 38.9658 11.8425 39.0643 11.9128C39.2752 11.6456 39.4861 11.3925 39.7392 11.1534C39.7955 11.0831 39.7955 10.9847 39.7252 10.9285ZM38.5299 7.06136C38.544 7.17386 38.5862 7.30042 38.6143 7.41292C38.783 7.37073 38.9518 7.3426 39.1205 7.31448C39.2893 7.28636 39.458 7.27229 39.6267 7.24417C39.7252 7.23011 39.7955 7.1598 39.7674 7.07542C39.7392 6.99105 39.6549 6.92074 39.5564 6.92074C39.2189 6.96293 38.8815 7.00511 38.5299 7.06136ZM37.8409 12.18C37.8409 12.2925 37.9252 12.3909 38.0377 12.405C38.3893 12.4331 38.7268 12.4472 39.0783 12.4331C39.0643 12.3206 39.0783 12.194 39.0783 12.0675C38.7408 12.0675 38.3893 12.0394 38.0237 11.9972C37.9252 11.9972 37.8409 12.0815 37.8409 12.18ZM39.3877 5.41609C39.1908 5.13485 39.0221 4.83954 38.8533 4.53017C38.7971 4.43174 38.6846 4.40361 38.6002 4.47393C38.5018 4.53017 38.4737 4.65673 38.5299 4.74111C38.6986 5.05047 38.8955 5.34578 39.0924 5.62702L39.3877 5.41609ZM39.5143 5.28953C39.8658 5.31765 40.1892 5.34578 40.5267 5.40203C40.6252 5.41609 40.7095 5.35984 40.7095 5.26141C40.7095 5.16297 40.6392 5.0786 40.5408 5.06454C40.2033 5.00829 39.8658 4.9661 39.5283 4.92391L39.5143 5.28953ZM40.0627 6.18951C40.1611 6.18951 40.2455 6.13326 40.2314 6.03482C40.2314 5.93639 40.147 5.86608 40.0486 5.85202C39.7111 5.82389 39.3596 5.80983 39.0221 5.82389L39.0361 6.18951C39.4018 6.16138 39.7392 6.16138 40.0627 6.18951ZM39.2189 12.6018L39.5283 12.7847C39.7111 12.4894 39.908 12.2081 40.1049 11.9409C40.1611 11.8566 40.1471 11.7581 40.0767 11.7159C40.0064 11.6737 39.8939 11.6878 39.8236 11.7722C39.5986 12.0394 39.4018 12.3065 39.2189 12.6018ZM39.6127 4.74111C39.7252 4.68486 39.8236 4.62861 39.9361 4.57236C39.7814 4.27706 39.6267 3.95363 39.4861 3.6302C39.4439 3.53176 39.3314 3.48958 39.233 3.54582C39.1346 3.60207 39.0924 3.71457 39.1346 3.813C39.2752 4.12237 39.4439 4.43174 39.6127 4.74111ZM38.544 13.5159C38.558 13.5721 38.5862 13.6284 38.6424 13.6565C38.8815 13.544 39.1205 13.4034 39.3455 13.2487C39.1346 13.2768 38.9236 13.2909 38.7268 13.305C38.6143 13.319 38.544 13.4034 38.544 13.5159ZM38.6002 10.6753C38.7268 10.5628 38.8533 10.4503 38.994 10.3519C39.1346 10.2535 39.2752 10.155 39.4158 10.0566C39.5002 10.0004 39.5143 9.90192 39.458 9.84567C39.4018 9.77536 39.2752 9.76129 39.2049 9.81754C38.9236 9.98629 38.6424 10.1832 38.3752 10.4082C38.4315 10.4925 38.5299 10.591 38.6002 10.6753ZM37.3065 9.8316C37.6159 9.98629 37.9674 10.0988 38.2908 10.2113L38.4033 9.87379C38.0799 9.76129 37.7705 9.62067 37.4471 9.45193C37.3487 9.40974 37.2362 9.45193 37.2081 9.55036C37.1659 9.66286 37.2081 9.78942 37.3065 9.8316ZM38.8252 6.61137C38.6002 6.35825 38.3752 6.09107 38.1643 5.80983C38.108 5.72546 37.9815 5.7114 37.8971 5.78171C37.8127 5.85202 37.7987 5.99264 37.869 6.06295C37.9815 6.20357 38.094 6.33013 38.2065 6.47075C38.319 6.59731 38.4455 6.73793 38.558 6.85043C38.6424 6.76606 38.7268 6.68168 38.8252 6.61137ZM38.5299 7.5676C38.2768 7.3426 38.0096 7.10355 37.7705 6.85043C37.7002 6.78012 37.5737 6.78012 37.5034 6.86449C37.4331 6.94886 37.4331 7.08949 37.5034 7.1598C37.6299 7.28636 37.7565 7.39885 37.883 7.52541C38.0096 7.63791 38.1502 7.75041 38.2908 7.8629C38.3752 7.75041 38.4455 7.65197 38.5299 7.5676ZM38.2346 9.39568L38.4315 9.70505C38.7268 9.52224 39.0221 9.35349 39.3174 9.22693C39.4158 9.18475 39.4439 9.10037 39.4018 9.016C39.3596 8.94569 39.2471 8.9035 39.1486 8.94569C38.8393 9.07225 38.5158 9.22693 38.2346 9.39568ZM37.4752 8.31289C37.3909 8.25664 37.2784 8.27071 37.2221 8.3832C37.1659 8.48164 37.194 8.6082 37.2784 8.67851C37.5877 8.87538 37.883 9.05819 38.1924 9.19881L38.3612 8.87538C38.0518 8.70663 37.7705 8.52383 37.4752 8.31289Z" fill="#ED232F"/>
<path d="M31.1191 3.79892C32.1597 4.93795 33.5238 6.87853 33.4956 9.17066C33.4816 10.6191 32.905 12.0393 31.7941 13.3893C31.991 13.5018 32.1879 13.6143 32.3847 13.7127C33.5378 12.2643 34.1284 10.7456 34.1566 9.17066C34.1847 6.6676 32.7785 4.61452 31.6676 3.39111C31.4707 3.53173 31.3019 3.65829 31.1191 3.79892Z" fill="#003D6C"/>
<path d="M40.9487 3.79892C39.9081 4.93795 38.5441 6.87853 38.5722 9.17066C38.5863 10.6191 39.1628 12.0393 40.2737 13.3893C40.0769 13.5018 39.88 13.6143 39.6831 13.7127C38.53 12.2643 37.9394 10.7456 37.9113 9.17066C37.8832 6.6676 39.2894 4.61452 40.4003 3.39111C40.5972 3.53173 40.78 3.65829 40.9487 3.79892Z" fill="#003D6C"/>
<path d="M49.4278 42.0479V41.851C49.4138 41.1479 49.3856 40.4026 49.2731 39.6573C49.1888 39.123 49.0482 38.6027 48.8794 38.0964L48.8653 38.0542L48.8513 38.012C48.57 37.3511 48.3029 36.8308 47.9935 36.3668C47.5576 35.6918 47.0091 35.0168 46.2779 34.2153C43.8311 31.5856 41.0468 29.856 37.9953 29.0966C36.7156 28.7732 35.4641 28.6185 34.297 28.6185C32.9189 28.6185 31.6814 28.8435 30.5986 29.2935L30.5564 29.3076L30.5142 29.3357C29.6002 29.8138 28.7705 30.4747 27.969 31.3185C27.2378 32.0919 26.4081 33.02 25.7472 34.0465L25.4378 34.5387L25.2972 34.5528C25.1847 34.5668 25.0581 34.5809 24.8894 34.5809C24.6925 34.5809 24.4675 34.5668 24.2566 34.5528L24.0175 34.5387C23.6941 34.5246 23.3847 34.4965 23.0613 34.4684C22.7941 34.4543 22.5269 34.4262 22.2457 34.4121C21.866 34.384 21.5426 34.384 21.2191 34.384H21.0504C20.7832 34.384 20.5582 34.3981 20.3614 34.4262C19.3489 34.5809 19.0958 35.9308 19.9817 36.4511C23.455 39.6292 27.9549 42.0338 27.9549 42.0338C27.8143 42.1744 27.6596 42.3151 27.519 42.4838C26.8018 43.2572 26.5768 44.1713 26.4643 44.79C26.1972 46.3509 26.3378 47.8556 26.8721 49.1633C27.2659 50.1196 27.8987 50.9774 28.8268 51.7789L29.1221 52.0601H29.2346C30.1627 52.6507 31.1611 53.1007 32.047 53.4664L32.0611 53.4804L32.1173 53.5085C32.7923 53.7476 33.4673 53.9585 34.1282 54.1413C34.7048 54.296 35.2813 54.3663 35.8438 54.3663C36.8422 54.3663 37.8125 54.1273 38.6843 53.6632C38.7547 53.6351 38.8109 53.5929 38.8672 53.5648L38.9093 53.5367C38.9656 53.5085 39.0078 53.4804 39.064 53.4382C39.289 53.2976 39.514 53.1429 39.7249 52.9742L40.6109 52.8757C41.4405 52.7773 42.1436 52.6648 42.8046 52.5242C43.4936 52.3695 44.1967 52.2008 44.8717 51.9898C45.1951 51.8914 45.5186 51.7648 45.9123 51.5961L46.1373 51.4977L46.306 51.3148C47.1216 50.4149 47.7685 49.2899 48.3169 47.8837C48.795 46.6462 49.2591 45.3103 49.3997 43.9041C49.456 43.2713 49.4419 42.6526 49.4278 42.0479Z" fill="#003D6C"/>
<path d="M48.3308 41.865C48.3167 41.1901 48.3027 40.501 48.1902 39.826C48.1199 39.362 47.9933 38.8979 47.8386 38.4339C47.6136 37.9276 47.3746 37.4355 47.0652 36.9574C46.6012 36.2402 46.0387 35.5793 45.4621 34.9605C43.3387 32.6825 40.7513 30.9106 37.7139 30.1513C35.6186 29.631 33.0734 29.4341 30.9922 30.2919C30.1484 30.7419 29.4031 31.3466 28.7422 32.0637C27.9969 32.8653 27.2376 33.709 26.647 34.6371C27.7719 35.3824 30.8375 37.112 31.6531 38.7433C31.6672 38.7433 31.6531 38.7714 31.6531 38.7714C30.8797 38.0964 28.1657 36.2683 25.4095 35.6355C24.9314 35.6918 24.4111 35.6496 23.947 35.6215C23.3564 35.5933 22.7658 35.5371 22.1752 35.4949C21.8518 35.4808 21.5424 35.4668 21.219 35.4668C21.0221 35.4668 20.9518 35.734 21.1205 35.8324C22.133 36.3808 23.1736 36.887 24.2283 37.323C26.0985 38.0964 28.0251 38.7151 29.9938 39.2214C30.0359 39.2354 30.0922 39.2495 30.1484 39.2636C30.2609 39.2917 30.3734 39.3198 30.5 39.3479C30.5141 39.3479 30.5281 39.3479 30.5422 39.362C31.7234 39.6573 32.9187 39.9104 34.114 40.1354C35.7311 40.4448 37.517 40.712 38.9232 41.5979C40.1044 42.3291 40.8919 43.4681 41.3279 44.7759C41.3279 44.79 41.3138 44.79 41.2997 44.7759C41.2857 44.7478 41.2716 44.7197 41.2575 44.6915C40.6107 43.8056 38.431 41.9775 35.5764 41.4572C33.5093 41.0916 31.4703 40.6838 30.4156 40.4166C30.3031 40.712 30.1484 40.9932 29.9797 41.2744C29.9375 41.3448 29.8953 41.401 29.8531 41.4713C29.6985 41.6963 29.5297 41.9213 29.375 42.1182C29.0657 42.5119 28.6719 42.8353 28.3344 43.215C27.8704 43.7072 27.6735 44.3119 27.561 44.9728C27.3501 46.2243 27.4204 47.5602 27.8985 48.7414C28.2641 49.6414 28.8547 50.3445 29.5719 50.9633C30.4578 51.582 31.4843 52.032 32.4968 52.4679H32.5109C33.1437 52.6929 33.7765 52.9038 34.4233 53.0585C35.7311 53.396 37.0248 53.2976 38.2061 52.6648C38.2623 52.6367 38.3186 52.5945 38.3889 52.5663C38.431 52.5382 38.4732 52.5242 38.5014 52.496C38.7404 52.3554 38.9654 52.1867 39.1763 52.0039C39.2185 51.9617 39.2607 51.9336 39.3029 51.8914C39.9919 51.2867 40.5263 50.5273 40.9341 49.6977C41.4966 48.5446 42.0872 46.8852 41.5388 45.6337C41.5247 45.6056 41.5669 45.5775 41.581 45.6056C41.6091 45.6478 43.5637 48.1086 41.1732 51.6804C41.8763 51.5961 41.8763 51.582 42.5653 51.4273C43.2262 51.2867 43.8872 51.1179 44.534 50.9211C44.8575 50.8226 45.1668 50.6961 45.4762 50.5695C46.2777 49.6695 46.8402 48.6008 47.2902 47.4758C47.7402 46.2946 48.1761 45.0431 48.3027 43.7916C48.373 43.1728 48.3449 42.5119 48.3308 41.865Z" fill="#ED232F"/>
<path d="M37.5171 46.6039C37.5171 46.5476 37.503 46.5055 37.489 46.4492C37.3202 46.1117 37.053 45.8164 36.6734 45.6336L36.603 45.6055L36.364 45.493L34.9015 44.7899C34.0437 44.3821 33.0172 44.7477 32.6094 45.6055L32.4828 45.8586C32.3141 46.2242 32.2719 46.618 32.3563 46.9836C32.3844 47.0258 32.3985 47.0679 32.4266 47.1101C32.5672 47.5601 32.9047 47.9679 33.3687 48.1929L35 48.9663C35.8999 49.3882 36.9687 49.0085 37.4046 48.1085L37.4608 47.996C37.6858 47.5461 37.6858 47.0539 37.5171 46.6039Z" fill="#A3121B"/>
<path d="M36.6875 45.6478L34.9156 44.804C34.0578 44.3962 33.0313 44.7619 32.6235 45.6196L32.4969 45.8728C32.4266 46.0134 32.3844 46.154 32.3563 46.2946C32.4829 46.7727 32.8063 47.1946 33.2844 47.4337L34.8313 48.1649C35.6891 48.5727 36.7156 48.2071 37.1234 47.3493L37.1937 47.1946C37.3484 46.8712 37.3906 46.5196 37.3343 46.1821C37.1656 45.9571 36.9546 45.7743 36.6875 45.6478Z" fill="#003D6C"/>
<path d="M23.933 35.6356C23.3424 35.6075 22.7518 35.5512 22.1612 35.5091C21.8377 35.495 21.5284 35.4809 21.2049 35.4809C21.0081 35.4809 20.9378 35.7481 21.1065 35.8465C21.3174 35.959 21.5424 36.0856 21.7674 36.1981C23.1455 36.2965 25.3251 36.3668 27.0689 36.17C26.5204 35.959 25.9579 35.7762 25.3955 35.6497C24.9173 35.7059 24.4111 35.6637 23.933 35.6356ZM37.7139 30.1654C35.6186 29.6451 33.0734 29.4483 30.9922 30.3061C30.1485 30.756 29.4032 31.3607 28.7422 32.0779C27.997 32.8794 27.2376 33.7232 26.647 34.6513C27.0126 34.8903 27.561 35.2278 28.1938 35.6356C30.9219 31.8388 33.3265 29.1389 41.5107 31.7404C40.3295 31.0373 39.0639 30.5029 37.7139 30.1654Z" fill="white"/>
<path d="M41.5388 45.6619C41.6373 45.9713 41.6935 46.2666 41.7357 46.5619C41.7216 46.2385 41.6654 45.9432 41.5388 45.6619ZM48.3309 41.8651C48.3168 41.3167 48.3027 40.7824 48.2465 40.248C47.3887 43.3979 39.9639 40.1636 33.2562 39.9949C33.5375 40.0511 33.8187 40.1074 34.1 40.1636C35.7171 40.473 37.503 40.7402 38.9092 41.6261C40.0904 42.3573 40.8779 43.4963 41.3138 44.8041L41.5529 45.6619C41.5388 45.6338 41.581 45.6057 41.5951 45.6338C41.6232 45.676 43.5778 48.1369 41.1873 51.7086C41.8904 51.6243 41.8904 51.6102 42.5794 51.4555C43.2404 51.3149 43.9013 51.1462 44.5481 50.9493C44.8716 50.8509 45.1809 50.7243 45.4903 50.5977C46.2918 49.6978 46.8543 48.629 47.3043 47.5041C47.7543 46.3228 48.1902 45.0713 48.3168 43.8198C48.373 43.1729 48.3449 42.512 48.3309 41.8651Z" fill="#A3121B"/>
<path d="M30.4157 40.4448C30.3032 40.7401 30.1485 41.0214 29.9798 41.3026C29.9376 41.3729 29.8954 41.4292 29.8532 41.4995C29.6985 41.7245 29.5298 41.9495 29.3751 42.1463C29.0657 42.5401 28.672 42.8635 28.3345 43.2432C27.8704 43.7354 27.6736 44.34 27.5611 45.001C27.3501 46.2525 27.4204 47.5884 27.8986 48.7696C28.1376 49.3602 28.4751 49.8524 28.8688 50.3024C28.0673 48.3196 27.772 45.015 28.8267 44.0026C29.8251 43.0323 30.9922 41.4151 31.4703 40.712C31.0485 40.5995 30.6969 40.5151 30.4157 40.4448Z" fill="white"/>
</svg>
