<svg width="27" height="34" viewBox="0 0 27 34" fill="none" xmlns="http://www.w3.org/2000/svg">
<g id="logo">
<path id="Vector" d="M2.5094 14.1888C2.5094 14.1888 13.0028 10.5353 24.1578 14.1951C20.8931 19.5252 5.66802 19.1499 2.5094 14.1888Z" fill="#003D6C"/>
<path id="Vector_2" d="M3.37085 27.8768V5.24254L13.1026 0L22.8344 5.24254V27.8768L13.1026 33.1256L3.37085 27.8768Z" fill="#003D6C"/>
<path id="Vector_3" d="M13.1027 0.926025L4.18237 5.73065V15.0208V18.0988V27.3952L13.1027 32.1999L22.0229 27.3952V18.0988V15.0208V5.73065L13.1027 0.926025Z" fill="white"/>
<path id="Vector_4" d="M13.1027 1.23877L4.5257 5.94955V15.0521V18.0737V27.1762L13.1027 31.887L21.6796 27.1762V18.0737V15.0521V5.94955L13.1027 1.23877Z" fill="#509AD3"/>
<path id="Vector_5" d="M13.3336 21.8649C7.7592 21.8649 3.04 19.6503 2.84024 19.5565L2.5094 19.4001V14.1951L3.44575 14.927C3.45199 14.9333 4.28846 15.5714 5.91771 16.197C7.42211 16.7788 9.93153 17.467 13.3336 17.467C16.7357 17.467 19.2451 16.7725 20.7495 16.197C22.3787 15.5651 23.2152 14.9333 23.2214 14.927L24.1578 14.2076V15.39V19.4063L23.827 19.5627C23.6334 19.6503 18.9142 21.8649 13.3336 21.8649Z" fill="#003D6C"/>
<path id="Vector_6" d="M13.3399 18.0486C6.51699 18.0486 3.09619 15.3835 3.09619 15.3835V19.0308C3.09619 19.0308 7.82788 21.283 13.3399 21.283C18.8518 21.283 23.5835 19.0308 23.5835 19.0308V15.3835C23.5835 15.3835 20.1627 18.0486 13.3399 18.0486Z" fill="#C4DBE7"/>
<g id="Group">
<path id="Vector_7" d="M18.059 29.0342C18.1714 28.9466 18.2401 28.8778 18.2463 28.8716L18.2838 28.834C18.3587 28.7652 18.4336 28.6901 18.5147 28.6151L18.5771 28.5525C18.8705 28.2522 19.114 27.8831 18.933 27.489C18.6708 26.9134 18.1839 26.9259 17.9529 26.9322C17.7906 26.9385 17.6783 26.9385 17.5222 26.8509C17.0103 26.5193 13.8517 22.4216 13.2587 21.527C13.1588 21.3769 12.9653 21.0703 12.7218 20.6824C11.617 18.912 9.31353 15.2272 7.10375 12.4933L4.27597 8.9962C3.72665 8.32055 2.87145 8.07656 2.19728 8.40813L2.16606 8.4269L1.87892 8.62083C1.81649 8.66463 1.75407 8.70842 1.69789 8.75221C1.62298 8.80851 1.54807 8.87733 1.47941 8.93989L1.22972 9.18388L1.20475 9.21516C0.742814 9.80948 0.798995 10.6978 1.34832 11.3735L4.17609 14.8706C6.38588 17.6045 9.50704 20.6199 11.0052 22.0713C11.336 22.3903 11.592 22.6406 11.7231 22.7719C12.4721 23.5414 15.818 27.4827 16.0365 28.0583C16.0865 28.2209 16.0615 28.3335 16.024 28.4962C15.9679 28.7339 15.843 29.2219 16.3861 29.5847C16.8605 29.8976 17.3849 29.5222 17.7656 29.2407C17.7844 29.2282 17.8031 29.2156 17.8218 29.1969L17.853 29.1719C17.8593 29.1656 17.9217 29.1218 18.0153 29.053L18.059 29.0342Z" fill="#003D6C"/>
<path id="Vector_8" d="M4.56315 14.564L1.73537 11.0669C1.37956 10.6227 1.24847 9.97207 1.59804 9.52789L1.82277 9.30893C1.92888 9.20883 2.035 9.12125 2.15985 9.03992L2.41579 8.86475C2.92766 8.61451 3.53316 8.87101 3.89522 9.31519L6.72299 12.8123C9.42592 16.153 12.2974 20.9827 12.8467 21.8085C13.396 22.6342 16.6795 26.9384 17.2788 27.2825C17.878 27.6328 18.2588 27.1886 18.4835 27.6954C18.5772 27.9018 18.1777 28.2584 17.9092 28.5086C17.9092 28.5086 17.8468 28.565 17.7469 28.6463C17.6471 28.7276 17.5784 28.7777 17.5784 28.7777C17.2788 28.9904 16.8793 29.3157 16.667 29.178C16.2051 28.8715 16.7294 28.5712 16.5172 27.9081C16.2987 27.2449 12.7843 23.141 12.0852 22.4341C11.386 21.7209 7.26608 17.9047 4.56315 14.564Z" fill="#C4DBE7"/>
<path id="Vector_9" d="M18.365 27.5203C18.4087 27.5578 18.4524 27.6141 18.4836 27.6954C18.5772 27.9019 18.1777 28.2585 17.9093 28.5087C17.9093 28.5087 17.8468 28.565 17.747 28.6463C17.6471 28.7277 17.5784 28.7777 17.5784 28.7777C17.2788 28.9904 16.8793 29.3157 16.667 29.1781C16.5859 29.1281 16.5422 29.0718 16.511 29.0217C17.5222 28.4462 18.109 27.8268 18.365 27.5203Z" fill="#6B9BB1"/>
<path id="Vector_10" d="M4.56315 14.5641L1.73537 11.067C1.37956 10.6228 1.24847 9.97222 1.59804 9.52804L1.82277 9.30908C1.81652 9.6907 2.35336 10.5415 3.73916 12.2869C5.67428 14.7268 8.97023 18.7995 10.4122 20.1508C11.8542 21.5021 13.0215 23.0348 14.1389 24.4424C15.2563 25.85 16.4735 27.389 16.8168 27.8144C17.129 28.2085 16.6795 28.8967 16.898 29.1845C16.8044 29.2095 16.7232 29.2157 16.6608 29.1719C16.1988 28.8654 16.7232 28.5651 16.511 27.902C16.2925 27.2388 12.7781 23.1349 12.0789 22.428C11.386 21.721 7.26608 17.9049 4.56315 14.5641Z" fill="#6B9BB1"/>
<path id="Vector_11" d="M13.7581 23.0535C13.7581 23.0535 11.9166 20.8952 10.999 19.4C10.0814 17.9048 8.51453 15.515 4.69423 10.6979C3.23353 8.85861 2.97759 9.00876 2.50317 8.82733C2.99632 8.63965 3.55813 8.89615 3.90146 9.3153L6.72923 12.8124C9.43216 16.1531 12.3036 20.9828 12.853 21.8086C12.9965 22.0213 13.3274 22.4842 13.7581 23.0535Z" fill="white"/>
</g>
<g id="Group_2">
<path id="Vector_12" d="M8.28986 29.0342C8.17749 28.9466 8.10883 28.8778 8.10259 28.8716L8.06513 28.834C7.99023 28.7652 7.91532 28.6901 7.83417 28.6151L7.77174 28.5525C7.47835 28.2522 7.2349 27.8831 7.41593 27.489C7.67811 26.9134 8.16501 26.9259 8.39598 26.9322C8.55828 26.9385 8.67064 26.9385 8.8267 26.8509C9.33857 26.5193 12.4972 22.4216 13.0902 21.527C13.1901 21.3769 13.3836 21.0703 13.627 20.6824C14.7319 18.912 17.0354 15.2272 19.2451 12.4933L22.0729 8.9962C22.6222 8.32055 23.4774 8.07656 24.1516 8.40813L24.1828 8.4269L24.47 8.62083C24.5324 8.66463 24.5948 8.70842 24.651 8.75221C24.7259 8.80851 24.8008 8.87733 24.8695 8.93989L25.1192 9.18388L25.1441 9.21516C25.6061 9.80948 25.5499 10.6978 25.0006 11.3735L22.1666 14.8769C19.9568 17.6107 16.8356 20.6261 15.3374 22.0775C15.0066 22.3966 14.7507 22.6468 14.6196 22.7782C13.8705 23.5477 10.5246 27.489 10.3061 28.0645C10.2562 28.2272 10.2812 28.3398 10.3186 28.5025C10.3748 28.7402 10.4996 29.2282 9.95656 29.591C9.48214 29.9038 8.95779 29.5285 8.577 29.2469C8.55828 29.2344 8.53955 29.2219 8.52082 29.2031L8.48961 29.1781C8.48337 29.1719 8.42095 29.1281 8.32731 29.0592L8.28986 29.0342Z" fill="#003D6C"/>
<path id="Vector_13" d="M21.7858 14.564L24.6135 11.0669C24.9693 10.6227 25.1004 9.97207 24.7509 9.52789L24.5261 9.30893C24.42 9.20883 24.3139 9.12125 24.1891 9.03992L23.9331 8.86475C23.4212 8.61451 22.8157 8.87101 22.4537 9.31519L19.6259 12.8123C16.923 16.1468 14.0515 20.9764 13.5022 21.8085C12.9529 22.6342 9.6694 26.9384 9.07013 27.2825C8.47087 27.6328 8.09009 27.1886 7.86536 27.6954C7.77173 27.9018 8.17124 28.2584 8.43966 28.5086C8.43966 28.5086 8.50208 28.565 8.60196 28.6463C8.70184 28.7276 8.7705 28.7777 8.7705 28.7777C9.07013 28.9904 9.46964 29.3157 9.68188 29.178C10.1438 28.8715 9.61946 28.5712 9.8317 27.9081C10.0502 27.2449 13.5646 23.141 14.2638 22.4341C14.9629 21.7209 19.0828 17.9047 21.7858 14.564Z" fill="#C4DBE7"/>
<path id="Vector_14" d="M7.98397 27.5203C7.94027 27.5578 7.89658 27.6141 7.86536 27.6954C7.77173 27.9019 8.17124 28.2585 8.43966 28.5087C8.43966 28.5087 8.50208 28.565 8.60196 28.6463C8.70184 28.7277 8.7705 28.7777 8.7705 28.7777C9.07013 28.9904 9.46964 29.3157 9.68188 29.1781C9.76303 29.1281 9.80673 29.0718 9.83794 29.0217C8.82668 28.4462 8.2399 27.8268 7.98397 27.5203Z" fill="#6B9BB1"/>
<path id="Vector_15" d="M21.7857 14.5641L24.6135 11.067C24.9693 10.6228 25.1004 9.97222 24.7508 9.52804L24.5261 9.30908C24.5323 9.6907 23.9955 10.5415 22.6097 12.2869C20.6745 14.7268 17.3786 18.7995 15.9366 20.1508C14.4946 21.5021 13.3273 23.0348 12.2099 24.4424C11.0926 25.85 9.87532 27.389 9.53199 27.8144C9.21987 28.2085 9.66932 28.8967 9.45084 29.1845C9.54447 29.2095 9.62563 29.2157 9.68805 29.1719C10.15 28.8654 9.62563 28.5651 9.83786 27.902C10.0563 27.2388 13.5708 23.1349 14.2699 22.428C14.9628 21.721 19.0828 17.9049 21.7857 14.5641Z" fill="#6B9BB1"/>
<path id="Vector_16" d="M12.5908 23.0535C12.5908 23.0535 14.4322 20.8952 15.3499 19.4C16.2675 17.9048 17.8343 15.515 21.6546 10.6979C23.1153 8.85861 23.3713 9.00876 23.8457 8.82733C23.3525 8.63965 22.7907 8.89615 22.4474 9.3153L19.6196 12.8124C16.9229 16.1469 14.0515 20.9765 13.5021 21.8086C13.3523 22.0213 13.0215 22.4842 12.5908 23.0535Z" fill="white"/>
</g>
<g id="Group_3">
<path id="Vector_17" d="M16.8908 20.3256C17.5254 18.2656 16.3735 16.08 14.318 15.444C12.2624 14.808 10.0816 15.9624 9.447 18.0224C8.81238 20.0824 9.96425 22.268 12.0198 22.904C14.0753 23.5401 16.2561 22.3857 16.8908 20.3256Z" fill="#003D6C"/>
<path id="Vector_18" d="M13.2713 22.6021C15.1598 22.547 16.6461 20.968 16.5911 19.0753C16.5361 17.1827 14.9605 15.6931 13.072 15.7483C11.1835 15.8034 9.6972 17.3824 9.75223 19.2751C9.80726 21.1677 11.3828 22.6573 13.2713 22.6021Z" fill="#C4DBE7"/>
<path id="Vector_19" d="M12.0165 15.9464C10.9491 16.328 10.1875 17.1914 9.88788 18.2048C9.90661 18.2674 9.92533 18.33 9.9503 18.3925C10.587 20.1755 12.5471 21.1014 14.3199 20.4633C15.3874 20.0816 16.1489 19.2183 16.4486 18.2048C16.4298 18.1423 16.4111 18.0797 16.3861 18.0172C15.7557 16.2404 13.7956 15.3083 12.0165 15.9464Z" fill="white"/>
<path id="Vector_20" d="M15.868 17.0663C15.6933 16.8411 15.4873 16.6409 15.2625 16.4657C14.6445 17.2352 14.0141 18.3425 14.0328 19.6563C14.0453 20.5134 14.3324 21.3454 14.888 22.1399C15.1377 21.996 15.3562 21.8271 15.5559 21.6269C15.1065 20.9826 14.8755 20.3194 14.8693 19.6438C14.8568 18.6241 15.3499 17.7232 15.868 17.0663ZM10.4747 17.0663C10.9865 17.7232 11.4797 18.6241 11.4672 19.6438C11.461 20.3194 11.23 20.9826 10.7805 21.6269C10.9803 21.8271 11.2113 21.996 11.4485 22.1337C12.0103 21.3392 12.2974 20.5071 12.3099 19.65C12.3286 18.3363 11.6982 17.229 11.0802 16.4595C10.8555 16.6409 10.6495 16.8411 10.4747 17.0663Z" fill="#C4DBE7"/>
<path id="Vector_21" d="M12.2225 20.6698C12.0228 20.7199 11.8355 20.7637 11.6295 20.795L11.6607 21.0014C11.8605 20.9764 12.0602 20.9451 12.2662 20.9013C12.3224 20.8888 12.3661 20.82 12.3536 20.7574C12.3411 20.6949 12.2849 20.6573 12.2225 20.6698ZM11.1551 18.9182C11.1363 18.9682 11.1676 19.012 11.2175 19.0245C11.3111 19.0495 11.4048 19.0746 11.5046 19.0996C11.5983 19.1309 11.6919 19.1621 11.7855 19.1934C11.8105 19.1309 11.8417 19.0621 11.8605 18.9932C11.6669 18.9307 11.4797 18.8806 11.2924 18.8431C11.23 18.8368 11.1738 18.8681 11.1551 18.9182ZM11.0365 20.795C11.18 20.9326 11.2986 21.0827 11.4235 21.2391C11.4797 21.1954 11.5359 21.1578 11.592 21.1078C11.4609 20.9514 11.3236 20.8075 11.18 20.6761C11.1363 20.6386 11.0677 20.6323 11.0302 20.6636C10.999 20.6949 10.999 20.7512 11.0365 20.795ZM11.1426 18.3489C11.0864 18.3426 11.0302 18.3864 11.0177 18.4365C11.0053 18.4865 11.0427 18.5303 11.0989 18.5365C11.1925 18.5491 11.2924 18.5553 11.3923 18.5741C11.4859 18.5866 11.5858 18.6054 11.6794 18.6304C11.6982 18.5616 11.7169 18.4928 11.7231 18.4239C11.5296 18.3927 11.3361 18.3676 11.1426 18.3489ZM12.0165 21.2892C11.8105 21.3142 11.6108 21.3205 11.411 21.3267C11.411 21.3955 11.4172 21.4706 11.4172 21.5394C11.6232 21.5457 11.8168 21.5332 12.0228 21.5207C12.0852 21.5144 12.1351 21.4581 12.1351 21.3955C12.1289 21.333 12.0789 21.2829 12.0165 21.2892ZM11.4048 17.5856C11.5171 17.423 11.6295 17.2478 11.7294 17.0726C11.7606 17.0226 11.7418 16.9475 11.6857 16.9162C11.6295 16.8787 11.5671 16.8975 11.5359 16.9538C11.436 17.1352 11.3361 17.3041 11.2237 17.473L11.4048 17.5856ZM11.1551 17.1915C10.9553 17.2103 10.7556 17.2353 10.5683 17.2728C10.5121 17.2853 10.4684 17.3354 10.4747 17.3917C10.4747 17.448 10.5246 17.4793 10.5808 17.473C10.7743 17.4417 10.9678 17.423 11.1676 17.4105L11.1551 17.1915ZM11.4297 17.9109L11.4422 17.6982C11.2487 17.692 11.0427 17.7045 10.8492 17.717C10.793 17.7233 10.7431 17.7671 10.7431 17.8234C10.7431 17.8734 10.7868 17.9172 10.843 17.9109C11.0365 17.9047 11.23 17.9047 11.4297 17.9109ZM10.9865 21.1516C10.9491 21.1078 10.8866 21.0953 10.843 21.1203C10.7993 21.1516 10.7868 21.2016 10.8242 21.2517C10.9366 21.4081 11.0489 21.5707 11.1551 21.7396L11.3361 21.627C11.2237 21.4644 11.1176 21.308 10.9865 21.1516ZM11.3798 16.5346C11.4048 16.4783 11.3798 16.4095 11.3236 16.3845C11.2674 16.3532 11.205 16.3782 11.18 16.4345C11.0989 16.6222 11.0115 16.8036 10.9179 16.9788C10.9803 17.0101 11.0427 17.0414 11.1051 17.0789C11.205 16.9037 11.2986 16.7223 11.3798 16.5346ZM11.6232 22.0462C11.5046 22.0399 11.386 22.0274 11.2612 22.0149C11.3923 22.1025 11.5234 22.1776 11.6669 22.2464C11.6919 22.2276 11.7169 22.1963 11.7231 22.165C11.7231 22.1025 11.6794 22.0524 11.6232 22.0462ZM11.8292 20.3633C11.6732 20.2382 11.5109 20.1256 11.3486 20.0192C11.2986 19.9879 11.23 20.0005 11.1988 20.038C11.1613 20.0755 11.1738 20.1318 11.2237 20.1631C11.3049 20.2194 11.386 20.2757 11.4672 20.332C11.5421 20.3883 11.617 20.4509 11.6919 20.5197C11.7356 20.4697 11.7855 20.4196 11.8292 20.3633ZM12.4972 19.8691C12.4722 19.8065 12.4098 19.7815 12.3536 19.8065C12.1663 19.9004 11.9853 19.9817 11.798 20.0505L11.8667 20.2507C12.054 20.1881 12.2537 20.1193 12.4347 20.0317C12.4972 20.0067 12.5221 19.9316 12.4972 19.8691ZM11.7169 18.3051C11.7855 18.2363 11.8542 18.1612 11.9229 18.0799C11.9915 18.0048 12.054 17.9235 12.1164 17.8484C12.1538 17.7983 12.1476 17.7233 12.0977 17.6795C12.0477 17.6357 11.9791 17.6419 11.9478 17.692C11.823 17.8546 11.6982 18.011 11.5608 18.1612C11.617 18.205 11.6607 18.255 11.7169 18.3051ZM11.8605 18.8744C11.9416 18.8118 12.0165 18.7493 12.0977 18.6804C12.1726 18.6116 12.2475 18.5428 12.3224 18.474C12.3661 18.4302 12.3661 18.3551 12.3286 18.3051C12.2849 18.255 12.2163 18.255 12.1726 18.2988C12.0352 18.449 11.8792 18.5866 11.7294 18.7117C11.7793 18.768 11.8168 18.8181 11.8605 18.8744ZM11.3736 19.5187C11.3236 19.4937 11.2549 19.5187 11.23 19.5563C11.205 19.6001 11.2237 19.6501 11.2799 19.6751C11.4547 19.7565 11.6232 19.8503 11.7918 19.9567L11.9041 19.7815C11.7356 19.6751 11.5483 19.5876 11.3736 19.5187ZM11.8292 19.4749L11.9291 19.6626C12.1039 19.575 12.2849 19.4687 12.4597 19.3561C12.5097 19.3248 12.5221 19.2435 12.4909 19.1872C12.4597 19.1309 12.3911 19.1121 12.3411 19.1496C12.1726 19.2685 12.0103 19.3749 11.8292 19.4749Z" fill="#ED232F"/>
<path id="Vector_22" d="M13.9953 20.7574C13.9829 20.82 14.0265 20.8888 14.0827 20.9013C14.2825 20.9451 14.4885 20.9764 14.6882 21.0014L14.7194 20.795C14.5134 20.7699 14.3262 20.7262 14.1264 20.6698C14.064 20.6573 14.0078 20.6949 13.9953 20.7574ZM15.0565 18.8493C14.863 18.8869 14.682 18.9369 14.4885 18.9995C14.5072 19.0683 14.5384 19.1309 14.5634 19.1997C14.657 19.1621 14.7444 19.1309 14.8443 19.1058C14.9379 19.0746 15.0316 19.0495 15.1314 19.0308C15.1876 19.0183 15.2188 18.9682 15.1939 18.9244C15.1689 18.8681 15.1127 18.8368 15.0565 18.8493ZM15.3062 20.6636C15.2625 20.6323 15.2001 20.6386 15.1564 20.6761C15.0191 20.8075 14.8817 20.9514 14.7444 21.1078C14.8006 21.1516 14.8568 21.1954 14.913 21.2391C15.0378 21.0827 15.1627 20.9389 15.3 20.795C15.3437 20.7512 15.3499 20.6949 15.3062 20.6636ZM14.6133 18.4239C14.6258 18.4928 14.6445 18.5616 14.657 18.6304C14.7569 18.6116 14.8505 18.5929 14.9442 18.5741C15.044 18.5616 15.1377 18.5491 15.2376 18.5365C15.2937 18.5303 15.3312 18.4865 15.3187 18.4365C15.3062 18.3864 15.2563 18.3489 15.1939 18.3489C15.0066 18.3676 14.8131 18.3927 14.6133 18.4239ZM14.2138 21.3955C14.2138 21.4581 14.2638 21.5207 14.3262 21.5207C14.5322 21.5394 14.7257 21.5457 14.9317 21.5394C14.9254 21.4706 14.9317 21.3955 14.9379 21.3267C14.7382 21.3267 14.5384 21.3142 14.3324 21.2892C14.27 21.2829 14.2138 21.333 14.2138 21.3955ZM15.1127 17.4668C15.0004 17.2979 14.9005 17.1289 14.8006 16.9475C14.7694 16.8975 14.707 16.8787 14.6508 16.91C14.5946 16.9475 14.5759 17.0163 14.6071 17.0664C14.707 17.2416 14.8193 17.4167 14.9317 17.5794L15.1127 17.4668ZM15.1814 17.398C15.3811 17.4105 15.5746 17.4292 15.7682 17.4605C15.8243 17.4668 15.8743 17.4355 15.8743 17.3792C15.8743 17.3229 15.8368 17.2728 15.7806 17.2603C15.5871 17.229 15.3936 17.1978 15.1939 17.179L15.1814 17.398ZM15.506 17.9109C15.5622 17.9109 15.6059 17.8734 15.6059 17.8234C15.6059 17.7733 15.5559 17.7233 15.4997 17.717C15.3062 17.7045 15.1065 17.692 14.9067 17.6982L14.9192 17.9109C15.1127 17.9047 15.3125 17.9047 15.506 17.9109ZM15.0128 21.6333L15.1939 21.7459C15.3 21.577 15.4123 21.4143 15.5247 21.2579C15.5622 21.2141 15.5497 21.1578 15.506 21.1265C15.4623 21.1015 15.3999 21.114 15.3624 21.1578C15.2313 21.308 15.119 21.4644 15.0128 21.6333ZM15.2376 17.0789C15.3 17.0476 15.3624 17.0101 15.4248 16.9788C15.3312 16.8036 15.2438 16.6222 15.1627 16.4345C15.1377 16.3782 15.0753 16.3532 15.0191 16.3845C14.9629 16.4158 14.9379 16.4846 14.9629 16.5346C15.044 16.7223 15.1377 16.9037 15.2376 17.0789ZM14.6258 22.1713C14.6321 22.2088 14.6508 22.2339 14.682 22.2526C14.8193 22.1838 14.9567 22.1087 15.0877 22.0211C14.9691 22.0337 14.8443 22.0462 14.7257 22.0524C14.6633 22.0524 14.6196 22.1025 14.6258 22.1713ZM14.657 20.5197C14.7319 20.4571 14.8068 20.3946 14.8817 20.332C14.9567 20.2695 15.044 20.2132 15.1252 20.1631C15.1751 20.1318 15.1876 20.0755 15.1502 20.038C15.1127 20.0005 15.0503 19.9879 15.0004 20.0192C14.8381 20.1193 14.6757 20.2319 14.5197 20.3633C14.5571 20.4196 14.6133 20.4697 14.657 20.5197ZM13.9017 20.0317C14.0827 20.1193 14.2825 20.1881 14.4698 20.2507L14.5384 20.0505C14.3511 19.9817 14.1701 19.9004 13.9829 19.8065C13.9267 19.7815 13.8642 19.8065 13.8393 19.8691C13.8206 19.9316 13.8455 20.0067 13.9017 20.0317ZM14.7819 18.1612C14.6508 18.0173 14.5197 17.8609 14.3948 17.692C14.3574 17.6419 14.2887 17.6357 14.245 17.6795C14.1951 17.7233 14.1888 17.7983 14.2263 17.8484C14.2887 17.9297 14.3511 18.0048 14.4198 18.0799C14.4885 18.1549 14.5571 18.23 14.6258 18.3051C14.682 18.255 14.7319 18.205 14.7819 18.1612ZM14.6133 18.7117C14.4635 18.5866 14.3137 18.4427 14.1701 18.2988C14.1264 18.255 14.0578 18.255 14.0141 18.3051C13.9704 18.3551 13.9766 18.4302 14.0203 18.474C14.0952 18.5491 14.1701 18.6179 14.245 18.6804C14.3199 18.7493 14.4011 18.8118 14.4822 18.8744C14.5259 18.8181 14.5634 18.768 14.6133 18.7117ZM14.4448 19.7752L14.5571 19.9504C14.7257 19.8441 14.8942 19.7502 15.069 19.6689C15.1252 19.6439 15.1439 19.5938 15.119 19.55C15.094 19.5062 15.0253 19.4875 14.9754 19.5125C14.7944 19.5876 14.6071 19.6751 14.4448 19.7752ZM14.0016 19.1496C13.9516 19.1121 13.883 19.1309 13.8518 19.1872C13.8206 19.2435 13.833 19.3185 13.883 19.3561C14.0578 19.4687 14.2325 19.575 14.4136 19.6626L14.5134 19.4749C14.3324 19.3749 14.1701 19.2685 14.0016 19.1496Z" fill="#ED232F"/>
<g id="Group_4">
<path id="Vector_23" d="M10.3248 16.5345C10.9241 17.1914 11.7169 18.3175 11.6981 19.65C11.6857 20.4946 11.3611 21.3141 10.7119 22.1024C10.8242 22.1712 10.9366 22.2338 11.0552 22.2901C11.7231 21.4518 12.0664 20.5759 12.0789 19.6626C12.0976 18.2112 11.2799 17.0225 10.6369 16.3093C10.5308 16.3719 10.4247 16.447 10.3248 16.5345Z" fill="#003D6C"/>
<path id="Vector_24" d="M16.0178 16.5345C15.4186 17.1914 14.6258 18.3175 14.6445 19.65C14.657 20.4946 14.9816 21.3141 15.6308 22.1024C15.5185 22.1712 15.4061 22.2338 15.2875 22.2901C14.6196 21.4518 14.2762 20.5759 14.2637 19.6626C14.245 18.2112 15.0628 17.0225 15.7057 16.3093C15.8118 16.3719 15.918 16.447 16.0178 16.5345Z" fill="#003D6C"/>
</g>
</g>
<g id="Group_5">
<path id="Vector_25" d="M25.3064 24.7175C25.3064 23.9856 25.3064 23.2473 25.3064 22.5154C24.2951 22.3089 23.2776 22.1275 22.2539 21.9711C22.2414 21.9711 22.2352 21.9649 22.2164 21.9649C21.2302 21.8147 20.2439 21.6896 19.2513 21.5895C19.2076 21.5832 19.1889 21.5832 19.1452 21.577C18.3649 21.4957 17.5784 21.4331 16.7919 21.3893C16.7232 21.6833 16.692 21.8272 16.6233 22.1213C16.5297 21.9586 16.4111 21.821 16.2613 21.7084C15.9179 21.4519 15.3936 21.3142 14.5571 21.2955C14.1701 21.2892 13.9766 21.283 13.5895 21.283C13.1713 21.283 12.9591 21.283 12.5408 21.283C11.6856 21.2955 11.2549 21.308 10.3997 21.3455C9.99397 21.3643 9.79421 21.3768 9.38846 21.4018C9.0701 21.4206 8.91404 21.4331 8.59569 21.4581C8.43963 21.4268 8.27733 21.4143 8.10254 21.4268C7.84036 21.4519 7.15995 21.577 6.76668 22.1901C6.71674 21.9711 6.69177 21.8585 6.63559 21.6396C5.81785 21.7271 5.0001 21.8335 4.1886 21.9586C4.11994 22.2652 4.08872 22.4216 4.0263 22.7281C3.93267 22.5842 3.81406 22.4716 3.66425 22.3903C3.32092 22.2026 2.80281 22.1838 1.98506 22.3402C1.18604 22.4904 0.792776 22.5717 0 22.7531C0 23.5539 0 24.3484 0 25.1492C0.131089 25.1179 0.193512 25.1054 0.324601 25.0741C0.324601 25.3181 0.324601 25.437 0.324601 25.6809C0.193512 25.7122 0.131089 25.7247 0 25.756C0 26.5693 0 27.3826 0 28.1959L2.1973 29.0154C2.8902 28.859 3.23353 28.7902 3.93267 28.6588C4.26351 28.5962 4.53817 28.5212 4.76914 28.4273C4.76914 28.4586 4.76914 28.4774 4.76914 28.5087C5.73046 28.3523 6.68553 28.2146 7.65309 28.102C8.0526 28.0582 8.2586 28.0395 8.65811 28.0019C8.87659 27.9832 8.98271 27.9706 9.20119 27.9581C9.33852 27.9832 9.4821 27.9894 9.63191 27.9832C9.72555 27.9769 9.88161 27.9581 10.0564 27.9018C10.9178 27.8455 11.7855 27.8142 12.647 27.808C13.0215 27.8017 13.2025 27.8017 13.5771 27.808C13.9141 27.808 14.0764 27.8142 14.4135 27.8205C14.7506 27.8268 15.0315 27.8142 15.2625 27.7704C15.2625 27.8017 15.2625 27.8205 15.2625 27.8518C16.2301 27.9018 17.1914 27.9644 18.1527 28.052C18.5584 28.0895 18.7644 28.1145 19.1702 28.1646C19.7882 28.2397 20.1003 28.2834 20.712 28.371C21.1053 28.4273 21.2988 28.4649 21.6858 28.5274C22.5348 28.6713 23.3838 28.8402 24.2202 29.0342L26.4175 28.2146C26.4175 27.1323 26.4175 26.0563 26.4175 24.974C25.9868 24.8551 25.7621 24.8051 25.3064 24.7175Z" fill="#003D6C"/>
<g id="Group_6">
<path id="Vector_26" d="M0.742798 23.2661C1.24218 23.1597 1.49188 23.1097 1.99126 23.0158C2.60925 22.897 3.02125 22.897 3.221 23.0033C3.41451 23.1097 3.51439 23.3849 3.51439 23.8229C3.51439 24.1482 3.46445 24.3796 3.35833 24.511C3.25221 24.6424 3.03373 24.755 2.69665 24.8551C3.07743 24.8551 3.32088 24.8989 3.42076 24.9927C3.52063 25.0866 3.57057 25.3118 3.57057 25.6684C3.57057 26.1376 3.4707 26.4629 3.27718 26.6506C3.08367 26.8383 2.68416 26.9821 2.09114 27.0948C1.5543 27.1948 1.27964 27.2512 0.742798 27.3638C0.742798 26.9258 0.742798 26.7069 0.742798 26.269C0.873887 26.2439 0.93631 26.2252 1.0674 26.2001C1.0674 25.4181 1.0674 25.0303 1.0674 24.2483C0.93631 24.2733 0.873887 24.2858 0.742798 24.3171C0.742798 23.8979 0.742798 23.6852 0.742798 23.2661ZM1.99126 24.0606C1.99126 24.3421 1.99126 24.486 1.99126 24.7738C2.05993 24.7613 2.09738 24.755 2.16605 24.7425C2.42198 24.6924 2.54683 24.5548 2.54683 24.3108C2.54683 24.0793 2.4095 23.9855 2.14108 24.0356C2.07866 24.0481 2.04744 24.0543 1.99126 24.0606ZM1.99126 25.2242C1.99126 25.5433 1.99126 25.6997 1.99126 26.0187C2.05369 26.0062 2.07866 25.9999 2.14108 25.9874C2.4532 25.9311 2.60925 25.756 2.60925 25.4682C2.60925 25.2305 2.4532 25.1366 2.14108 25.1929C2.07866 25.2054 2.04744 25.2117 1.99126 25.2242Z" fill="white"/>
<path id="Vector_27" d="M7.01017 25.2806C7.01017 25.7185 7.01017 25.9375 7.01017 26.3754C6.36097 26.4442 6.03637 26.4817 5.38716 26.5631C5.38716 26.1251 5.38716 25.9062 5.38716 25.4683C5.5245 25.4495 5.59316 25.4432 5.73673 25.4245C5.69304 25.2055 5.67431 25.0991 5.63686 24.8802C5.34971 24.9177 5.19989 24.9365 4.91275 24.974C4.86905 25.1992 4.85032 25.3181 4.80663 25.5433C4.95644 25.5246 5.03135 25.512 5.18117 25.4933C5.18117 25.9312 5.18117 26.1502 5.18117 26.5881C4.64433 26.6632 4.36966 26.7007 3.83282 26.7883C3.83282 26.3504 3.83282 26.1314 3.83282 25.6935C3.95767 25.6747 4.02009 25.6622 4.1387 25.6434C4.35718 24.6112 4.5819 23.5789 4.80039 22.5467C5.29353 22.4779 5.53698 22.4466 6.03012 22.384C6.26109 23.36 6.48581 24.3297 6.71678 25.3056C6.83538 25.2993 6.89781 25.2931 7.01017 25.2806ZM5.54322 24.4735C5.4371 23.9856 5.38092 23.7353 5.2748 23.2474C5.16244 23.7666 5.10626 24.0231 4.9939 24.5424C5.21238 24.5173 5.32474 24.5048 5.54322 24.4735Z" fill="white"/>
<path id="Vector_28" d="M9.65688 22.0649C9.65688 22.6405 9.65688 22.9283 9.65688 23.5101C9.30106 23.5288 9.12004 23.5414 8.76422 23.5726C8.75798 23.5288 8.75798 23.5101 8.75174 23.4663C8.73301 23.2786 8.64562 23.1973 8.4958 23.2098C8.31478 23.2223 8.22114 23.3036 8.22114 23.4475C8.22114 23.6102 8.3772 23.7353 8.69556 23.8354C9.19494 23.9918 9.5133 24.1482 9.65063 24.2983C9.78796 24.4485 9.85663 24.7237 9.85663 25.1241C9.85663 25.8623 9.55076 26.244 8.93277 26.2878C8.60192 26.3128 8.3335 26.2127 8.13999 25.9937C8.13999 26.1126 8.13999 26.1689 8.13999 26.2878C7.8029 26.319 7.63436 26.3315 7.30352 26.3628C7.30352 25.7372 7.30352 25.4307 7.30352 24.8051C7.6406 24.7738 7.80915 24.755 8.13999 24.73C8.13999 24.755 8.13999 24.7675 8.13999 24.7926C8.13999 25.0616 8.25859 25.1867 8.48956 25.1679C8.70804 25.1492 8.81416 25.0491 8.81416 24.8551C8.81416 24.6612 8.68931 24.5173 8.44586 24.436C8.25235 24.3672 8.15247 24.3359 7.95272 24.2671C7.45958 24.1044 7.21613 23.7916 7.21613 23.3161C7.21613 22.5717 7.51576 22.165 8.11502 22.115C8.41465 22.09 8.65186 22.1901 8.8204 22.4153C8.8204 22.3027 8.8204 22.2401 8.8204 22.1275C9.15125 22.0962 9.31979 22.0837 9.65688 22.0649Z" fill="white"/>
<path id="Vector_29" d="M12.8467 21.9585C12.8467 22.6154 12.8467 22.9407 12.8467 23.5976C12.5345 23.5976 12.3785 23.6038 12.0664 23.6101C12.0664 23.3724 12.0664 23.2535 12.0664 23.022C11.8042 23.0283 11.6731 23.0283 11.4047 23.0408C11.4047 23.3348 11.4047 23.485 11.4047 23.779C11.7355 23.7665 11.8978 23.7665 12.2287 23.7602C12.2287 23.9291 12.2287 24.0105 12.2287 24.1794C11.8978 24.1856 11.7355 24.1856 11.4047 24.1982C11.4047 24.5172 11.4047 24.6799 11.4047 24.9989C11.6669 24.9927 11.798 24.9864 12.0664 24.9802C12.0664 24.7424 12.0664 24.6236 12.0664 24.3858C12.4035 24.3796 12.572 24.3796 12.9091 24.3733C12.9091 25.049 12.9091 25.3868 12.9091 26.0687C11.9852 26.075 11.0614 26.1 10.1437 26.1438C10.1437 25.7059 10.1437 25.4869 10.1437 25.049C10.2748 25.0427 10.3373 25.0365 10.4683 25.0302C10.4683 24.2482 10.4683 23.8603 10.4683 23.0783C10.3373 23.0846 10.2748 23.0846 10.1437 23.0971C10.1437 22.6779 10.1437 22.4715 10.1437 22.0523C11.0489 21.996 11.9478 21.971 12.8467 21.9585Z" fill="white"/>
<path id="Vector_30" d="M13.2962 21.9585C13.8018 21.9585 14.0577 21.9648 14.5696 21.971C15.2001 21.9835 15.6121 22.0711 15.8118 22.2212C16.0116 22.3651 16.1114 22.6654 16.1114 23.1033C16.1114 23.4287 16.0553 23.6476 15.9491 23.7602C15.843 23.8728 15.6183 23.9354 15.2812 23.9667C15.6682 24.048 15.9117 24.1481 16.0116 24.2607C16.1114 24.3733 16.1614 24.611 16.1614 24.9676C16.1614 25.4368 16.0615 25.7434 15.8618 25.8873C15.662 26.0312 15.2625 26.0937 14.657 26.075C14.1077 26.0624 13.833 26.0562 13.2899 26.0562C13.2899 25.6183 13.2899 25.3993 13.2899 24.9614C13.421 24.9614 13.4897 24.9614 13.6208 24.9614C13.6208 24.1794 13.6208 23.7915 13.6208 23.0095C13.4897 23.0095 13.421 23.0095 13.2899 23.0095C13.2962 22.5841 13.2962 22.3776 13.2962 21.9585ZM14.5696 23.022C14.5696 23.3035 14.5696 23.4474 14.5696 23.7352C14.6383 23.7352 14.6757 23.7352 14.7444 23.7415C15.0066 23.7477 15.1314 23.6351 15.1314 23.3911C15.1314 23.1597 14.9941 23.0345 14.7194 23.0283C14.657 23.022 14.6258 23.022 14.5696 23.022ZM14.5696 24.1794C14.5696 24.4984 14.5696 24.6548 14.5696 24.9739C14.632 24.9739 14.6632 24.9739 14.7194 24.9802C15.0315 24.9864 15.1938 24.8488 15.1938 24.561C15.1938 24.3233 15.0315 24.1982 14.7132 24.1856C14.657 24.1856 14.6258 24.1856 14.5696 24.1794Z" fill="white"/>
<path id="Vector_31" d="M19.6258 25.2992C19.6258 25.7371 19.6258 25.9561 19.6258 26.394C18.9766 26.3252 18.652 26.2939 18.0028 26.2439C18.0028 25.8059 18.0028 25.587 18.0028 25.1491C18.1402 25.1616 18.2151 25.1678 18.3524 25.1803C18.3087 24.9551 18.29 24.8425 18.2463 24.6173C17.9529 24.5923 17.8093 24.5798 17.5222 24.561C17.4785 24.78 17.4598 24.8863 17.4161 25.1115C17.5659 25.124 17.6408 25.1303 17.7968 25.1366C17.7968 25.5745 17.7968 25.7934 17.7968 26.2314C17.2538 26.1876 16.9853 26.1751 16.4423 26.1438C16.4423 25.7059 16.4423 25.4869 16.4423 25.049C16.5671 25.0552 16.6295 25.0615 16.7544 25.0677C16.9791 24.0793 17.1976 23.0971 17.4223 22.1086C17.9155 22.1462 18.1651 22.1649 18.6583 22.2087C18.8893 23.2285 19.114 24.2545 19.3449 25.2742C19.4511 25.2804 19.5072 25.2867 19.6258 25.2992ZM18.1527 24.1856C18.0465 23.6726 17.9904 23.4162 17.8842 22.9032C17.7719 23.3974 17.7157 23.6476 17.6033 24.1418C17.8218 24.1606 17.9342 24.1669 18.1527 24.1856Z" fill="white"/>
<path id="Vector_32" d="M22.6534 24.9052C22.6534 25.6622 22.6534 26.0438 22.6534 26.8008C21.7358 26.6569 20.8182 26.5318 19.8943 26.4254C19.8943 25.9875 19.8943 25.7685 19.8943 25.3306C20.0254 25.3431 20.094 25.3556 20.2251 25.3682C20.2251 24.5862 20.2251 24.1983 20.2251 23.4163C20.094 23.4038 20.0254 23.3913 19.8943 23.3787C19.8943 22.9596 19.8943 22.7531 19.8943 22.334C20.5435 22.4091 20.8681 22.4466 21.511 22.5342C21.511 22.9533 21.511 23.1598 21.511 23.5789C21.3675 23.5602 21.2988 23.5477 21.1615 23.5289C21.1615 24.3109 21.1615 24.6988 21.1615 25.4808C21.4237 25.5183 21.5547 25.5308 21.8169 25.5746C21.8169 25.2555 21.8169 25.0929 21.8169 24.7738C22.154 24.8239 22.3163 24.8489 22.6534 24.9052Z" fill="white"/>
<path id="Vector_33" d="M25.6997 25.4684C25.6997 26.2254 25.6997 26.607 25.6997 27.364C24.7945 27.17 23.8769 27.0011 22.9655 26.851C22.9655 26.413 22.9655 26.1941 22.9655 25.7562C23.0966 25.7749 23.1653 25.7874 23.2964 25.8125C23.2964 25.0305 23.2964 24.6426 23.2964 23.8606C23.1653 23.8356 23.0966 23.8293 22.9655 23.8043C22.9655 23.3851 22.9655 23.1787 22.9655 22.7595C23.6085 22.8659 23.9331 22.9222 24.576 23.0473C24.576 23.4665 24.576 23.6729 24.576 24.0921C24.4387 24.067 24.3638 24.0545 24.2265 24.0232C24.2265 24.8052 24.2265 25.1931 24.2265 25.9751C24.4886 26.0252 24.6197 26.0502 24.8757 26.1002C24.8757 25.7812 24.8757 25.6185 24.8757 25.2995C25.2065 25.3683 25.3688 25.3996 25.6997 25.4684Z" fill="white"/>
</g>
</g>
<g id="Group_7">
<path id="Vector_34" d="M13.0465 15.8216C11.5795 15.8216 8.54576 14.6079 7.21614 14.3764C6.90403 14.3264 6.62937 14.2763 6.38591 14.2325C5.01884 14.0073 4.40085 13.901 4.19486 13.0126C4.18862 12.9813 4.18237 12.95 4.18237 12.9188V12.9062C4.18237 12.8812 4.18237 12.8562 4.18237 12.8374V12.8249C4.2011 12.5371 4.38213 12.0554 5.74296 11.2547C6.25483 10.9544 6.75421 10.7104 6.99142 10.5978C7.05384 10.1098 7.16621 9.24648 7.22863 8.63964L7.23487 8.58334C7.28481 8.05783 7.40341 6.8254 8.32728 5.69931C9.45714 4.31673 11.386 3.59729 14.0515 3.57227H14.0577H14.064C16.099 3.65359 17.6471 4.32924 18.6771 5.56794C19.6384 6.7253 19.8756 8.08911 19.9255 8.8023C20.0504 10.4226 19.9505 11.2984 19.9255 11.4549C19.9193 11.6613 19.8069 12.4934 18.5272 12.8437C18.0216 13.6695 16.1801 15.3086 14.3074 15.7027C13.9516 15.784 13.5209 15.8216 13.0465 15.8216Z" fill="#193F6E"/>
<path id="Vector_35" d="M7.72177 10.8418H7.27233C7.27233 10.8418 4.34467 12.1493 4.5257 12.9438C4.70673 13.7321 5.26854 13.6883 7.27233 14.0511C9.27611 14.414 12.3286 15.7841 14.245 15.3774C16.1614 14.9708 17.9904 13.2754 18.3088 12.5559C17.8156 11.9741 17.4036 11.8115 17.2413 11.8115C17.0665 11.8115 7.72177 10.8418 7.72177 10.8418Z" fill="#B6D1DF"/>
<path id="Vector_36" d="M7.27228 11.0481C7.27228 11.0481 7.47203 9.57796 7.56567 8.67709C7.65306 7.77622 7.90275 3.98508 14.0514 3.91626C18.446 4.09768 19.4573 7.08806 19.5946 8.83349C19.732 10.5789 19.5946 11.436 19.5946 11.436C19.5946 11.436 19.6383 12.3181 18.1776 12.5871C16.7107 12.8499 8.82662 12.8373 7.27228 11.0481Z" fill="#ED232F"/>
<path id="Vector_37" d="M18.1839 12.5435C18.1278 12.5435 18.0903 12.5435 18.0591 12.5497L18.0029 12.5622L17.9655 12.606C15.9367 14.6893 14.4448 15.1022 12.9466 15.0709C12.5471 15.0646 8.0464 13.8635 6.71054 13.6007C5.77419 13.4193 5.01263 13.338 4.67554 13.0001C4.63185 12.9501 4.58191 12.875 4.53197 12.7812C4.51948 12.8375 4.51324 12.8938 4.52573 12.9438C4.70675 13.7321 5.26856 13.6883 7.27235 14.0512C9.27614 14.414 12.3286 15.7841 14.245 15.3774C16.1614 14.9708 17.9904 13.2754 18.3088 12.556C18.3025 12.5497 18.2963 12.5435 18.2901 12.5309L18.2339 12.5247C18.1153 12.5184 18.2464 12.5435 18.1839 12.5435Z" fill="#6B9BB1"/>
<path id="Vector_38" d="M18.4648 12.5122C19.6259 12.1869 19.5884 11.4299 19.5884 11.4299C19.5884 11.4299 19.7258 10.5728 19.5884 8.82739C19.4511 7.08196 18.4398 4.09158 14.0452 3.91016C13.9641 3.91016 13.8892 3.91016 13.8143 3.91641C15.2812 4.34182 17.4535 5.34278 17.9966 7.63874C18.5772 10.0786 18.546 11.7239 18.4648 12.5122Z" fill="#A3121B"/>
<path id="Vector_39" d="M18.1714 12.5808C18.7332 12.4745 19.0703 12.2868 19.2763 12.0866L18.9954 8.92108L17.9529 5.4615L17.5159 4.95476C16.6982 4.37921 15.5808 3.97882 14.0514 3.91626C13.7268 3.92252 13.4147 3.93503 13.1213 3.96005C13.1213 3.96005 16.6046 5.205 17.26 7.46968C17.853 9.54668 17.6533 12.218 17.6158 12.6497C17.8468 12.6309 18.034 12.6059 18.1714 12.5808Z" fill="#A3121B"/>
<g id="Group_8">
<path id="Vector_40" d="M15.275 12.9126C12.5034 12.9126 10.3498 12.6311 8.83911 12.0805C7.27229 11.505 6.99763 10.8356 6.97266 10.7605L7.15368 10.698L7.33471 10.6292C7.33471 10.6354 7.59065 11.236 9.07632 11.7552C10.4559 12.2369 13.7643 12.7249 19.0016 12.3996L18.4648 12.8062C17.3224 12.8751 16.2612 12.9126 15.275 12.9126Z" fill="#193F6E"/>
</g>
<g id="Group_9">
<path id="Vector_41" d="M10.0751 12.1492L9.82544 12.1367C9.82544 12.1179 9.92532 10.2849 10.2062 7.38212C10.4934 4.39175 13.0714 3.84122 13.0964 3.83496L13.1464 4.07895C13.1339 4.07895 12.5284 4.21032 11.8979 4.67952C11.0552 5.31138 10.5683 6.22476 10.4559 7.40089C10.175 10.3037 10.0751 12.1304 10.0751 12.1492Z" fill="#193F6E"/>
</g>
<g id="Group_10">
<path id="Vector_42" d="M17.6595 12.6997C17.6595 12.681 17.5597 10.8542 17.2788 7.95768C17.0103 5.14247 13.1276 4.09146 13.0839 4.07895L13.1463 3.83496C13.19 3.84747 14.1763 4.11023 15.2188 4.74208C16.6108 5.58665 17.4099 6.69396 17.5222 7.93265C17.7969 10.8354 17.903 12.6685 17.903 12.6872L17.6595 12.6997Z" fill="#193F6E"/>
</g>
<path id="Vector_43" d="M13.1713 4.34801C12.6656 4.34801 12.1288 4.21663 12.1288 3.83502C12.1288 3.4534 12.6656 3.32202 13.1713 3.32202C13.6769 3.32202 14.2137 3.4534 14.2137 3.83502C14.2137 4.21663 13.6706 4.34801 13.1713 4.34801Z" fill="#193F6E"/>
<path id="Vector_44" d="M13.9641 3.83502C13.9641 3.97891 13.6083 4.09777 13.1713 4.09777C12.7344 4.09777 12.3785 3.97891 12.3785 3.83502C12.3785 3.69113 12.7344 3.57227 13.1713 3.57227C13.6083 3.57227 13.9641 3.69113 13.9641 3.83502Z" fill="#ED232F"/>
<g id="Group_11">
<path id="Vector_45" d="M13.1775 14.5641C13.1151 14.5641 13.0527 14.5641 12.9902 14.5578C12.9528 14.5578 12.9278 14.5265 12.9278 14.4953C12.9278 14.4577 12.959 14.4327 12.9902 14.4327C13.0527 14.4327 13.1151 14.4389 13.1775 14.4389C13.215 14.4389 13.2399 14.4702 13.2399 14.5015C13.2399 14.5328 13.2087 14.5641 13.1775 14.5641ZM13.3648 14.5578C13.3336 14.5578 13.3024 14.5328 13.3024 14.4953C13.3024 14.4577 13.3273 14.4327 13.3648 14.4327C13.4272 14.4327 13.4896 14.4264 13.5521 14.4264C13.5833 14.4264 13.6145 14.4515 13.6207 14.4827C13.6207 14.5203 13.5958 14.5453 13.5645 14.5516C13.4896 14.5578 13.4272 14.5578 13.3648 14.5578ZM12.803 14.5453C12.7343 14.539 12.6719 14.5328 12.6095 14.5265C12.5783 14.5203 12.5533 14.489 12.5533 14.4577C12.5595 14.4264 12.5907 14.3952 12.6219 14.4014C12.6844 14.4077 12.7468 14.4139 12.8092 14.4202C12.8467 14.4202 12.8716 14.4515 12.8654 14.489C12.8654 14.5203 12.8342 14.5453 12.803 14.5453ZM13.7393 14.539C13.7081 14.539 13.6831 14.514 13.6769 14.4827C13.6707 14.4515 13.6956 14.4202 13.7331 14.4139C13.7955 14.4077 13.8579 14.4014 13.9141 14.3952C13.9453 14.3889 13.9828 14.4139 13.9828 14.4515C13.989 14.4827 13.964 14.5203 13.9266 14.5203C13.8704 14.5265 13.808 14.5328 13.7393 14.539ZM12.4284 14.5015H12.4222C12.3598 14.4953 12.2973 14.4827 12.2349 14.4702C12.2037 14.464 12.1787 14.4327 12.185 14.3952C12.1912 14.3639 12.2224 14.3389 12.2599 14.3451C12.3223 14.3576 12.3847 14.3639 12.4409 14.3764C12.4721 14.3826 12.4971 14.4139 12.4909 14.4452C12.4909 14.4827 12.4596 14.5015 12.4284 14.5015ZM14.1076 14.489C14.0764 14.489 14.0514 14.4702 14.0452 14.4389C14.039 14.4077 14.0639 14.3701 14.0951 14.3639C14.1576 14.3514 14.2137 14.3389 14.2762 14.3263C14.3074 14.3201 14.3448 14.3389 14.3511 14.3764C14.3573 14.4077 14.3386 14.4452 14.3011 14.4515C14.2387 14.464 14.1763 14.4765 14.1139 14.489C14.1139 14.489 14.1139 14.489 14.1076 14.489ZM12.0601 14.4389C12.0539 14.4389 12.0539 14.4389 12.0477 14.4389C11.9852 14.4264 11.9228 14.4139 11.8604 14.4014C11.8292 14.3952 11.8042 14.3576 11.8104 14.3263C11.8167 14.2951 11.8541 14.27 11.8854 14.2763C11.9478 14.2888 12.004 14.3013 12.0664 14.3138C12.0976 14.3201 12.1226 14.3514 12.1163 14.3889C12.1163 14.4202 12.0914 14.4389 12.0601 14.4389ZM14.4759 14.4077C14.451 14.4077 14.426 14.3889 14.4135 14.3639C14.4073 14.3326 14.426 14.2951 14.4572 14.2888C14.5196 14.27 14.5758 14.2575 14.632 14.2388C14.6632 14.2262 14.7006 14.245 14.7069 14.2825C14.7194 14.3138 14.7006 14.3514 14.6632 14.3576C14.6008 14.3764 14.5446 14.3952 14.4822 14.4077C14.4822 14.4077 14.4822 14.4077 14.4759 14.4077ZM11.6981 14.3576C11.6918 14.3576 11.6856 14.3576 11.6856 14.3576C11.6419 14.3451 11.592 14.3326 11.5483 14.3201L11.5046 14.3076C11.4734 14.3013 11.4546 14.2638 11.4609 14.2325C11.4671 14.2012 11.5046 14.1762 11.5358 14.1887L11.5795 14.2012C11.6232 14.2137 11.6731 14.2262 11.7168 14.2388C11.748 14.245 11.773 14.2825 11.7605 14.3138C11.748 14.3389 11.7231 14.3576 11.6981 14.3576ZM14.8317 14.2951C14.8068 14.2951 14.7818 14.2763 14.7756 14.2513C14.7631 14.22 14.7818 14.1825 14.813 14.1699C14.8692 14.1512 14.9316 14.1261 14.9878 14.1074C15.019 14.0949 15.0565 14.1074 15.0689 14.1449C15.0814 14.1762 15.0689 14.2137 15.0315 14.2262C14.9753 14.2513 14.9129 14.27 14.8567 14.2951C14.8442 14.2951 14.838 14.2951 14.8317 14.2951ZM11.336 14.2575C11.3298 14.2575 11.3235 14.2575 11.3173 14.2575C11.2549 14.245 11.1987 14.2262 11.1363 14.2137C11.1051 14.2075 11.0801 14.1699 11.0926 14.1387C11.0988 14.1074 11.1363 14.0824 11.1675 14.0949C11.2299 14.1136 11.2923 14.1261 11.3485 14.1449C11.3797 14.1512 11.4047 14.1887 11.3922 14.22C11.386 14.2388 11.361 14.2575 11.336 14.2575ZM10.974 14.1699C10.9677 14.1699 10.9615 14.1699 10.9615 14.1699C10.8991 14.1574 10.8429 14.1387 10.7805 14.1261C10.7493 14.1199 10.7243 14.0824 10.7368 14.0511C10.743 14.0198 10.7805 13.9948 10.8117 14.0073C10.8741 14.0198 10.9365 14.0386 10.9927 14.0511C11.0239 14.0573 11.0489 14.0949 11.0364 14.1261C11.0239 14.1512 10.9989 14.1699 10.974 14.1699ZM15.1813 14.1574C15.1563 14.1574 15.1376 14.1449 15.1251 14.1199C15.1126 14.0886 15.1251 14.0511 15.1563 14.0386C15.2125 14.0135 15.2687 13.9885 15.3249 13.9572C15.3561 13.9447 15.3935 13.9572 15.406 13.9885C15.4185 14.0198 15.406 14.0573 15.3748 14.0698C15.3186 14.0949 15.2625 14.1261 15.2 14.1512C15.2 14.1574 15.1875 14.1574 15.1813 14.1574ZM10.6057 14.0761C10.5994 14.0761 10.5932 14.0761 10.5932 14.0761C10.5308 14.0636 10.4746 14.0448 10.4122 14.0323C10.381 14.026 10.356 13.9885 10.3685 13.9572C10.3747 13.926 10.4122 13.9009 10.4434 13.9134C10.5058 13.926 10.5682 13.9447 10.6244 13.9572C10.6556 13.9635 10.6806 14.001 10.6681 14.0323C10.6619 14.0573 10.6369 14.0761 10.6057 14.0761ZM15.5184 13.9948C15.4934 13.9948 15.4747 13.9823 15.4622 13.9635C15.4435 13.9322 15.456 13.8947 15.4872 13.8759C15.5434 13.8446 15.5933 13.8133 15.6495 13.7821C15.6807 13.7633 15.7181 13.7758 15.7369 13.8071C15.7556 13.8384 15.7431 13.8759 15.7119 13.8947C15.6557 13.926 15.5995 13.9572 15.5496 13.9885C15.5371 13.9885 15.5246 13.9948 15.5184 13.9948ZM10.2436 13.9948C10.2374 13.9948 10.2311 13.9948 10.2311 13.9948L10.0501 13.951C10.0189 13.9447 9.99393 13.9072 10.0002 13.8759C10.0064 13.8446 10.0439 13.8196 10.0751 13.8259L10.2561 13.8696C10.2873 13.8759 10.3123 13.9134 10.2998 13.9447C10.2936 13.9697 10.2686 13.9948 10.2436 13.9948ZM9.87532 13.9072C9.86908 13.9072 9.86908 13.9072 9.86284 13.9072L9.68181 13.8634C9.6506 13.8571 9.62563 13.8196 9.63187 13.7883C9.63812 13.757 9.67557 13.732 9.70678 13.7383L9.88781 13.7821C9.91902 13.7883 9.94399 13.8259 9.93775 13.8571C9.93151 13.8884 9.90654 13.9072 9.87532 13.9072ZM9.51327 13.8259C9.50703 13.8259 9.50703 13.8259 9.50078 13.8259L9.31976 13.7883C9.28855 13.7821 9.26358 13.7445 9.26982 13.7132C9.27606 13.682 9.31352 13.6569 9.34473 13.6632L9.52575 13.7007C9.55697 13.707 9.58193 13.7445 9.57569 13.7758C9.56321 13.8071 9.53824 13.8259 9.51327 13.8259ZM15.8367 13.8008C15.818 13.8008 15.7931 13.7883 15.7868 13.7696C15.7681 13.7383 15.7743 13.7007 15.8055 13.682C15.8555 13.6507 15.9117 13.6132 15.9616 13.5819C15.9928 13.5631 16.0303 13.5694 16.049 13.6006C16.0677 13.6319 16.0615 13.6695 16.0303 13.6882C15.9803 13.7258 15.9241 13.757 15.8742 13.7946C15.8617 13.8008 15.8492 13.8008 15.8367 13.8008ZM9.14497 13.7445C9.13873 13.7445 9.13873 13.7445 9.13249 13.7445L8.95146 13.707C8.92025 13.7007 8.89528 13.6695 8.90152 13.6319C8.90776 13.6006 8.94522 13.5756 8.97643 13.5819L9.15746 13.6194C9.18867 13.6257 9.21364 13.6632 9.20739 13.6945C9.20115 13.7258 9.17618 13.7445 9.14497 13.7445ZM8.77667 13.6632C8.77043 13.6632 8.77043 13.6632 8.76419 13.6632L8.58316 13.6257C8.55195 13.6194 8.52698 13.5881 8.53322 13.5506C8.53947 13.5193 8.57692 13.4943 8.60813 13.5005L8.78916 13.5381C8.82037 13.5443 8.84534 13.5756 8.8391 13.6132C8.83286 13.6444 8.80789 13.6632 8.77667 13.6632ZM16.1489 13.5944C16.1301 13.5944 16.1114 13.5881 16.0989 13.5694C16.0802 13.5443 16.0864 13.5005 16.1114 13.4818C16.1613 13.4442 16.2113 13.4067 16.2612 13.3692C16.2862 13.3504 16.3299 13.3504 16.3486 13.3817C16.3673 13.4067 16.3673 13.4505 16.3361 13.4693C16.2862 13.5068 16.2363 13.5443 16.1863 13.5819C16.1738 13.5881 16.1613 13.5944 16.1489 13.5944ZM8.41462 13.5881C8.40838 13.5881 8.40838 13.5881 8.40213 13.5881L8.22111 13.5506C8.1899 13.5443 8.16493 13.5131 8.17117 13.4755C8.17741 13.4442 8.20862 13.4192 8.24608 13.4255L8.4271 13.463C8.45832 13.4693 8.48328 13.5005 8.47704 13.5381C8.46456 13.5631 8.43959 13.5881 8.41462 13.5881ZM8.04632 13.5068C8.04008 13.5068 8.04008 13.5068 8.03384 13.5068L7.85281 13.4693C7.8216 13.463 7.79663 13.4317 7.80287 13.3942C7.80911 13.3629 7.84033 13.3379 7.87778 13.3441L8.05881 13.3817C8.09002 13.3879 8.11499 13.4192 8.10875 13.4568C8.1025 13.488 8.07129 13.5068 8.04632 13.5068ZM7.67802 13.4255C7.67178 13.4255 7.67178 13.4255 7.66554 13.4255L7.48451 13.3879C7.4533 13.3817 7.42833 13.3504 7.43457 13.3129C7.44082 13.2816 7.47827 13.2566 7.50948 13.2628L7.69051 13.3004C7.72172 13.3066 7.74669 13.3379 7.74045 13.3754C7.73421 13.4067 7.70924 13.4255 7.67802 13.4255ZM16.4485 13.3629C16.4298 13.3629 16.411 13.3567 16.3986 13.3379C16.3798 13.3129 16.3798 13.2691 16.4048 13.2503C16.4547 13.2128 16.4984 13.169 16.5484 13.1314C16.5733 13.1064 16.617 13.1127 16.6358 13.1377C16.6607 13.1627 16.6545 13.2003 16.6295 13.2253C16.5796 13.2691 16.5359 13.3066 16.4859 13.3441C16.4735 13.3567 16.461 13.3629 16.4485 13.3629ZM7.30973 13.3504C7.30349 13.3504 7.30349 13.3504 7.29724 13.3504C7.23482 13.3379 7.1724 13.3254 7.11622 13.3066C7.085 13.3004 7.06003 13.2628 7.06628 13.2315C7.07252 13.2003 7.10997 13.1752 7.14118 13.1815C7.19737 13.194 7.25979 13.2065 7.32221 13.2253C7.35342 13.2315 7.37839 13.2691 7.37215 13.3004C7.36591 13.3316 7.34094 13.3504 7.30973 13.3504ZM6.94767 13.2628C6.94143 13.2628 6.93519 13.2628 6.93519 13.2628C6.86652 13.244 6.8041 13.2315 6.75416 13.219C6.72295 13.2128 6.69798 13.1752 6.71046 13.144C6.71671 13.1127 6.75416 13.0876 6.78537 13.1002C6.83531 13.1127 6.89773 13.1252 6.9664 13.144C6.99761 13.1502 7.02258 13.1877 7.0101 13.219C6.99761 13.244 6.97264 13.2628 6.94767 13.2628ZM6.57938 13.1752C6.57313 13.1752 6.56689 13.1752 6.56689 13.1752C6.51071 13.1627 6.44829 13.1502 6.38586 13.1377C6.35465 13.1314 6.32968 13.1002 6.33592 13.0626C6.34217 13.0313 6.37338 13.0063 6.41083 13.0126C6.47326 13.0251 6.53568 13.0376 6.5981 13.0564C6.62931 13.0626 6.65428 13.1002 6.6418 13.1314C6.63556 13.1565 6.61059 13.1752 6.57938 13.1752ZM16.7294 13.1189C16.7107 13.1189 16.6982 13.1127 16.6857 13.1002C16.6607 13.0751 16.667 13.0376 16.6919 13.0126C16.7356 12.9688 16.7856 12.9312 16.8293 12.8875C16.8542 12.8624 16.8917 12.8624 16.9167 12.8875C16.9416 12.9125 16.9416 12.95 16.9167 12.975C16.873 13.0188 16.823 13.0626 16.7793 13.1002C16.7606 13.1127 16.7419 13.1189 16.7294 13.1189ZM6.21732 13.0939C6.21108 13.0939 6.21108 13.0939 6.20484 13.0939L6.17987 13.0876C6.12369 13.0751 6.07375 13.0689 6.01757 13.0564C5.98635 13.0501 5.96138 13.0188 5.96763 12.9813C5.97387 12.95 6.00508 12.925 6.04253 12.9312C6.09872 12.9438 6.14865 12.95 6.20484 12.9625L6.2298 12.9688C6.26102 12.975 6.28599 13.0063 6.27974 13.0439C6.2735 13.0751 6.24229 13.0939 6.21732 13.0939ZM5.84902 13.0188C5.84278 13.0188 5.84278 13.0188 5.83654 13.0188C5.77411 13.0063 5.71169 12.9876 5.64927 12.975C5.61806 12.9688 5.59309 12.9312 5.60557 12.9C5.61181 12.8687 5.64927 12.8437 5.68048 12.8562C5.73666 12.8687 5.79908 12.8875 5.86151 12.9C5.89272 12.9062 5.91769 12.9438 5.91145 12.975C5.9052 13.0001 5.87399 13.0188 5.84902 13.0188ZM5.48697 12.925C5.48073 12.925 5.47448 12.925 5.46824 12.925C5.39958 12.9 5.33715 12.8812 5.28721 12.8562C5.256 12.8437 5.24352 12.8061 5.256 12.7748C5.26849 12.7436 5.30594 12.7311 5.33715 12.7436C5.38085 12.7623 5.43703 12.7874 5.50569 12.8061C5.53691 12.8186 5.55563 12.8499 5.54315 12.8875C5.53691 12.9062 5.51194 12.925 5.48697 12.925ZM17.0041 12.8624C16.9853 12.8624 16.9729 12.8562 16.9604 12.8437C16.9354 12.8186 16.9354 12.7811 16.9604 12.7561C16.9791 12.7373 17.0041 12.7123 17.0228 12.6935C17.0478 12.6685 17.0852 12.6685 17.1102 12.6935C17.1352 12.7185 17.1352 12.7561 17.1102 12.7811C17.0915 12.7999 17.0665 12.8249 17.0478 12.8437C17.0353 12.8562 17.0165 12.8624 17.0041 12.8624ZM5.15612 12.7561C5.1374 12.7561 5.12491 12.7498 5.11243 12.7373C5.06873 12.6873 5.04376 12.6372 5.04376 12.5809C5.04376 12.5559 5.05 12.5246 5.06249 12.4996C5.07497 12.4683 5.11243 12.4495 5.14364 12.462C5.17485 12.4746 5.19358 12.5121 5.18109 12.5434C5.17485 12.5559 5.17485 12.5684 5.17485 12.5809C5.17485 12.6059 5.18734 12.6247 5.20606 12.6497C5.23103 12.6747 5.23103 12.7123 5.20606 12.7373C5.18734 12.7498 5.16861 12.7561 5.15612 12.7561ZM5.22479 12.437C5.20606 12.437 5.19358 12.4308 5.18109 12.4183C5.15612 12.3932 5.15612 12.3557 5.18109 12.3307C5.21855 12.2931 5.26849 12.2493 5.32467 12.1993C5.34964 12.1805 5.39333 12.1805 5.41206 12.2055C5.43079 12.2306 5.43079 12.2744 5.40582 12.2931C5.34964 12.3369 5.30594 12.3807 5.26849 12.412C5.256 12.4308 5.24352 12.437 5.22479 12.437ZM5.51818 12.1993C5.49945 12.1993 5.48073 12.193 5.46824 12.1743C5.44951 12.1492 5.45576 12.1055 5.48073 12.0867C5.53066 12.0491 5.5806 12.0116 5.63678 11.9741C5.66799 11.9553 5.70545 11.9616 5.72418 11.9866C5.7429 12.0179 5.73666 12.0554 5.71169 12.0742C5.66175 12.1117 5.60557 12.1492 5.56188 12.1805C5.54315 12.193 5.53066 12.1993 5.51818 12.1993ZM5.82405 11.9866C5.80533 11.9866 5.7866 11.9741 5.77411 11.9616C5.75539 11.9303 5.76163 11.8927 5.79284 11.874C5.84278 11.8364 5.89896 11.8052 5.9489 11.7676C5.98011 11.7489 6.01757 11.7551 6.03629 11.7864C6.05502 11.8177 6.04878 11.8552 6.01757 11.874C5.96763 11.9053 5.91145 11.9428 5.86151 11.9741C5.84902 11.9803 5.83654 11.9866 5.82405 11.9866ZM6.14241 11.7801C6.12369 11.7801 6.09872 11.7676 6.09247 11.7489C6.07375 11.7176 6.07999 11.68 6.1112 11.6613C6.16738 11.63 6.21732 11.5925 6.2735 11.5612C6.30471 11.5424 6.34217 11.5549 6.36089 11.5799C6.37962 11.6112 6.36714 11.6488 6.34217 11.6675C6.29223 11.6988 6.23605 11.7301 6.18611 11.7676C6.16114 11.7739 6.14865 11.7801 6.14241 11.7801ZM6.46077 11.5799C6.44204 11.5799 6.41707 11.5674 6.40459 11.5487C6.38586 11.5174 6.39835 11.4798 6.42332 11.4611C6.4795 11.4298 6.52944 11.3923 6.58562 11.3672C6.61683 11.3485 6.65428 11.361 6.67301 11.386C6.69174 11.4173 6.67925 11.4548 6.65428 11.4736C6.60434 11.5049 6.54816 11.5362 6.49198 11.5674C6.4795 11.5799 6.47326 11.5799 6.46077 11.5799ZM6.77913 11.3923C6.7604 11.3923 6.73543 11.3798 6.72295 11.361C6.70422 11.3297 6.71671 11.2922 6.74792 11.2734C6.8041 11.2421 6.86028 11.2046 6.91022 11.1796C6.94143 11.1608 6.97888 11.1733 6.99761 11.2046C7.01634 11.2359 7.00385 11.2734 6.97264 11.2922C6.9227 11.3234 6.86652 11.3547 6.81034 11.386C6.8041 11.386 6.79161 11.3923 6.77913 11.3923ZM7.10997 11.1983C7.09125 11.1983 7.06628 11.1858 7.05379 11.167C7.03507 11.1358 7.04755 11.0982 7.07876 11.0795C7.18488 11.0232 7.24106 10.9856 7.24106 10.9856C7.27227 10.9669 7.30973 10.9794 7.32845 11.0106C7.34718 11.0419 7.3347 11.0795 7.30349 11.0982C7.30349 11.0982 7.24106 11.1295 7.14118 11.1921C7.1287 11.1983 7.11622 11.1983 7.10997 11.1983Z" fill="#193F6E"/>
</g>
<g id="Group_12">
<path id="Vector_46" d="M13.2337 14.3389C13.1713 14.3389 13.1089 14.3389 13.0464 14.3326C13.009 14.3326 12.984 14.3013 12.984 14.27C12.984 14.2325 13.0152 14.2075 13.0464 14.2075C13.1089 14.2075 13.1713 14.2137 13.2337 14.2137C13.2712 14.2137 13.2961 14.245 13.2961 14.2763C13.2961 14.3138 13.2712 14.3389 13.2337 14.3389ZM13.421 14.3389C13.3898 14.3389 13.3586 14.3138 13.3586 14.2763C13.3586 14.2388 13.3835 14.2137 13.421 14.2137C13.4834 14.2137 13.5458 14.2075 13.6083 14.2075C13.6457 14.2075 13.6707 14.2325 13.6769 14.2638C13.6769 14.3013 13.652 14.3263 13.6207 14.3326C13.5521 14.3326 13.4897 14.3389 13.421 14.3389ZM12.8592 14.3263C12.7905 14.3201 12.7281 14.3138 12.6657 14.3076C12.6345 14.3013 12.6095 14.27 12.6095 14.2388C12.6157 14.2075 12.6469 14.1825 12.6782 14.1825C12.7406 14.1887 12.803 14.195 12.8654 14.2012C12.9029 14.2012 12.9278 14.2325 12.9216 14.27C12.9216 14.3013 12.8904 14.3263 12.8592 14.3263ZM13.7955 14.3138C13.7643 14.3138 13.7393 14.2888 13.7331 14.2575C13.7269 14.2262 13.7518 14.195 13.7893 14.1887C13.8517 14.1825 13.9141 14.1762 13.9703 14.1637C14.0015 14.1574 14.039 14.1825 14.039 14.2137C14.0452 14.245 14.0203 14.2825 13.989 14.2825C13.9266 14.2951 13.8642 14.3013 13.8018 14.3076C13.8018 14.3138 13.7955 14.3138 13.7955 14.3138ZM12.4909 14.2825H12.4846C12.4222 14.2763 12.3598 14.2638 12.2974 14.2513C12.2662 14.245 12.2412 14.2137 12.2474 14.1762C12.2537 14.1449 12.2849 14.1199 12.3223 14.1261C12.3848 14.1387 12.4472 14.1449 12.5034 14.1574C12.5346 14.1637 12.5595 14.195 12.5533 14.2262C12.5471 14.2575 12.5159 14.2825 12.4909 14.2825ZM14.1638 14.2575C14.1326 14.2575 14.1076 14.2388 14.1014 14.2075C14.0952 14.1762 14.1139 14.1387 14.1513 14.1324C14.2138 14.1199 14.2699 14.1074 14.3324 14.0949C14.3636 14.0886 14.401 14.1074 14.4073 14.1387C14.4135 14.1699 14.3948 14.2075 14.3636 14.2137C14.3012 14.2262 14.2387 14.245 14.1763 14.2513C14.1701 14.2575 14.1701 14.2575 14.1638 14.2575ZM12.1163 14.22C12.1101 14.22 12.1101 14.22 12.1039 14.22C12.0414 14.2075 11.979 14.195 11.9166 14.1825C11.8854 14.1762 11.8604 14.1387 11.8729 14.1074C11.8791 14.0761 11.9166 14.0511 11.9478 14.0636C12.0102 14.0761 12.0664 14.0886 12.1288 14.1011C12.16 14.1074 12.185 14.1387 12.1788 14.1762C12.1725 14.195 12.1476 14.22 12.1163 14.22ZM14.5259 14.1699C14.5009 14.1699 14.4759 14.1512 14.4635 14.1261C14.451 14.0949 14.4759 14.0573 14.5072 14.0511C14.5696 14.0323 14.6258 14.0135 14.6819 13.9948C14.7132 13.9823 14.7506 14.001 14.7631 14.0323C14.7756 14.0636 14.7568 14.1011 14.7256 14.1136C14.6632 14.1324 14.607 14.1512 14.5446 14.1699C14.5384 14.1699 14.5321 14.1699 14.5259 14.1699ZM11.7543 14.1324C11.748 14.1324 11.7418 14.1324 11.7356 14.1324C11.7106 14.1261 11.6856 14.1199 11.6607 14.1136L11.5545 14.0824C11.5233 14.0761 11.4984 14.0386 11.5108 14.0073C11.5171 13.976 11.5545 13.9572 11.5857 13.9635L11.6919 13.9948C11.7168 14.001 11.7418 14.0073 11.7668 14.0135C11.798 14.0198 11.823 14.0573 11.8105 14.0886C11.8105 14.1136 11.7855 14.1324 11.7543 14.1324ZM14.8817 14.0511C14.8567 14.0511 14.8318 14.0386 14.8255 14.0135C14.813 13.9823 14.8318 13.9447 14.863 13.9322C14.9191 13.9072 14.9753 13.8884 15.0315 13.8634C15.0627 13.8509 15.1002 13.8634 15.1127 13.8947C15.1251 13.926 15.1127 13.9635 15.0814 13.976C15.0253 14.001 14.9628 14.0261 14.9067 14.0448C14.9004 14.0511 14.8942 14.0511 14.8817 14.0511ZM11.3922 14.0386C11.386 14.0386 11.3797 14.0386 11.3735 14.0386C11.3111 14.0261 11.2549 14.0073 11.1925 13.9948C11.1613 13.9885 11.1363 13.951 11.1488 13.9197C11.155 13.8884 11.1925 13.8634 11.2237 13.8759C11.2861 13.8884 11.3485 13.9072 11.4047 13.9197C11.4359 13.926 11.4609 13.9635 11.4484 13.9948C11.4484 14.0198 11.4172 14.0386 11.3922 14.0386ZM11.0302 13.9447C11.0239 13.9447 11.0177 13.9447 11.0177 13.9447C10.9553 13.9322 10.8991 13.9134 10.8367 13.9009C10.8055 13.8947 10.7805 13.8571 10.793 13.8259C10.7992 13.7946 10.8367 13.7696 10.8679 13.7821C10.9303 13.7946 10.9927 13.8133 11.0489 13.8259C11.0801 13.8321 11.1051 13.8697 11.0926 13.9009C11.0801 13.926 11.0551 13.9447 11.0302 13.9447ZM15.225 13.9009C15.2001 13.9009 15.1813 13.8884 15.1688 13.8634C15.1564 13.8321 15.1688 13.7946 15.2001 13.7821C15.2562 13.757 15.3124 13.7258 15.3624 13.7007C15.3936 13.682 15.431 13.6945 15.4497 13.7258C15.4685 13.757 15.456 13.7946 15.4248 13.8133C15.3686 13.8446 15.3124 13.8697 15.2562 13.9009C15.2437 13.9009 15.2375 13.9009 15.225 13.9009ZM10.6619 13.8571C10.6556 13.8571 10.6494 13.8571 10.6494 13.8571L10.4684 13.8133C10.4372 13.8071 10.4122 13.7696 10.4247 13.7383C10.4309 13.707 10.4684 13.682 10.4996 13.6945L10.6806 13.7383C10.7118 13.7445 10.7368 13.7821 10.7243 13.8133C10.7181 13.8384 10.6931 13.8571 10.6619 13.8571ZM10.2998 13.7696C10.2936 13.7696 10.2936 13.7696 10.2873 13.7696L10.1063 13.7258C10.0751 13.7195 10.0501 13.682 10.0564 13.6507C10.0626 13.6194 10.1001 13.5944 10.1313 13.6006L10.3123 13.6444C10.3435 13.6507 10.3685 13.6882 10.3622 13.7195C10.356 13.7508 10.3248 13.7696 10.2998 13.7696ZM15.5559 13.7258C15.5371 13.7258 15.5122 13.7133 15.4997 13.6945C15.481 13.6632 15.4934 13.6257 15.5247 13.6069C15.5808 13.5756 15.6308 13.5443 15.6807 13.5131C15.7119 13.4943 15.7494 13.5005 15.7681 13.5318C15.7868 13.5631 15.7806 13.6006 15.7494 13.6194C15.6932 13.6507 15.6433 13.6882 15.5871 13.7195C15.5808 13.7258 15.5683 13.7258 15.5559 13.7258ZM9.93153 13.6882C9.92528 13.6882 9.92528 13.6882 9.91904 13.6882L9.73801 13.6444C9.7068 13.6382 9.68183 13.6006 9.68808 13.5694C9.69432 13.5381 9.72553 13.5131 9.76298 13.5193L9.94401 13.5631C9.97522 13.5694 10.0002 13.6069 9.99395 13.6382C9.98771 13.6695 9.96274 13.6882 9.93153 13.6882ZM9.56947 13.6069C9.56323 13.6069 9.56323 13.6069 9.55699 13.6069L9.37596 13.5694C9.34475 13.5631 9.31978 13.5256 9.32602 13.4943C9.33226 13.463 9.36972 13.438 9.40093 13.4442L9.58196 13.4818C9.61317 13.488 9.63814 13.5256 9.6319 13.5569C9.61941 13.5881 9.59444 13.6069 9.56947 13.6069ZM9.20117 13.5256C9.19493 13.5256 9.19493 13.5256 9.18869 13.5256L9.00766 13.488C8.97645 13.4818 8.95148 13.4505 8.95772 13.413C8.96397 13.3817 8.99518 13.3567 9.03263 13.3629L9.21366 13.4004C9.24487 13.4067 9.26984 13.438 9.2636 13.4755C9.25736 13.5068 9.23239 13.5256 9.20117 13.5256ZM15.8742 13.5256C15.8555 13.5256 15.8368 13.5131 15.8243 13.5005C15.8056 13.4693 15.8118 13.4317 15.843 13.413C15.8929 13.3754 15.9429 13.3441 15.9928 13.3066C16.0178 13.2878 16.0615 13.2941 16.0802 13.3191C16.0989 13.3441 16.0927 13.3879 16.0677 13.4067C16.0178 13.4442 15.9679 13.4818 15.9117 13.5193C15.8992 13.5193 15.8867 13.5256 15.8742 13.5256ZM8.83288 13.4442C8.82663 13.4442 8.82663 13.4442 8.82039 13.4442L8.63937 13.4067C8.60815 13.4005 8.58318 13.3692 8.58943 13.3316C8.59567 13.3004 8.62688 13.2753 8.66433 13.2816L8.84536 13.3191C8.87657 13.3254 8.90154 13.3567 8.8953 13.3942C8.88906 13.4255 8.86409 13.4442 8.83288 13.4442ZM8.47082 13.3692C8.46458 13.3692 8.46458 13.3692 8.45834 13.3692L8.27731 13.3316C8.2461 13.3254 8.22113 13.2941 8.22737 13.2566C8.23361 13.2253 8.26483 13.2003 8.30228 13.2065L8.48331 13.244C8.51452 13.2503 8.53949 13.2816 8.53325 13.3191C8.52076 13.3504 8.49579 13.3692 8.47082 13.3692ZM16.1801 13.3066C16.1614 13.3066 16.1426 13.3004 16.1302 13.2816C16.1114 13.2566 16.1114 13.2128 16.1426 13.194C16.1926 13.1565 16.2425 13.1189 16.2862 13.0751C16.3112 13.0501 16.3549 13.0564 16.3736 13.0814C16.3986 13.1064 16.3923 13.1502 16.3674 13.169C16.3174 13.2065 16.2675 13.2503 16.2176 13.2878C16.2051 13.3004 16.1926 13.3066 16.1801 13.3066ZM8.10252 13.2878C8.09628 13.2878 8.09628 13.2878 8.09004 13.2878L7.90901 13.2503C7.8778 13.244 7.85283 13.2128 7.85907 13.1752C7.86532 13.144 7.89653 13.1189 7.93398 13.1252L8.11501 13.1627C8.14622 13.169 8.17119 13.2003 8.16495 13.2378C8.15871 13.2691 8.12749 13.2878 8.10252 13.2878ZM7.73423 13.2128C7.72799 13.2128 7.72799 13.2128 7.72174 13.2128C7.65932 13.2003 7.5969 13.1877 7.54072 13.1752C7.5095 13.169 7.48453 13.1314 7.49078 13.1002C7.49702 13.0689 7.53447 13.0439 7.56568 13.0501C7.62187 13.0626 7.68429 13.0751 7.74671 13.0876C7.77792 13.0939 7.80289 13.1314 7.79665 13.1627C7.79041 13.1877 7.76544 13.2128 7.73423 13.2128ZM7.36593 13.1252C7.35969 13.1252 7.35345 13.1252 7.35345 13.1252C7.28478 13.1064 7.22236 13.0939 7.17242 13.0814C7.14121 13.0751 7.11624 13.0376 7.12872 13.0063C7.13496 12.975 7.17242 12.95 7.20363 12.9625C7.25357 12.975 7.31599 12.9876 7.38466 13.0063C7.41587 13.0126 7.44084 13.0501 7.42835 13.0814C7.42211 13.1064 7.39714 13.1252 7.36593 13.1252ZM16.4672 13.0626C16.4485 13.0626 16.4298 13.0564 16.4173 13.0439C16.3923 13.0188 16.3986 12.9813 16.4235 12.9563C16.4735 12.9125 16.5172 12.8749 16.5609 12.8312C16.5858 12.8061 16.6233 12.8124 16.6483 12.8374C16.6732 12.8624 16.667 12.9 16.642 12.925C16.5983 12.9688 16.5484 13.0063 16.4985 13.0501C16.4985 13.0564 16.4797 13.0626 16.4672 13.0626ZM7.00388 13.0376C6.99763 13.0376 6.99139 13.0376 6.99139 13.0376C6.93521 13.0251 6.87279 13.0126 6.81036 13.0001C6.77915 12.9938 6.75418 12.9625 6.76042 12.925C6.76667 12.8937 6.79788 12.8687 6.83533 12.8749C6.89776 12.8875 6.96018 12.9 7.0226 12.9125C7.05381 12.9187 7.07878 12.9563 7.0663 12.9876C7.06006 13.0188 7.03509 13.0376 7.00388 13.0376ZM6.63558 12.9625C6.62934 12.9625 6.62934 12.9625 6.62309 12.9625L6.43582 12.9312C6.40461 12.925 6.37964 12.8937 6.38588 12.8562C6.39213 12.8249 6.42334 12.7999 6.46079 12.8061L6.64806 12.8374C6.67927 12.8437 6.70424 12.8749 6.698 12.9125C6.69176 12.9438 6.66679 12.9625 6.63558 12.9625ZM6.26728 12.9C6.26104 12.9 6.26104 12.9 6.2548 12.9C6.19237 12.8875 6.12995 12.8749 6.06753 12.8624C6.03631 12.8562 6.01135 12.8249 6.01759 12.7874C6.02383 12.7561 6.05504 12.7311 6.0925 12.7373C6.14868 12.7498 6.2111 12.7623 6.27352 12.7748C6.30473 12.7811 6.3297 12.8124 6.32346 12.8499C6.32346 12.8749 6.29849 12.9 6.26728 12.9ZM5.89898 12.8186C5.89274 12.8186 5.8865 12.8186 5.88026 12.8186C5.81159 12.7999 5.74917 12.7811 5.69299 12.7623C5.66177 12.7498 5.64305 12.7123 5.65553 12.681C5.66802 12.6497 5.70547 12.631 5.73668 12.6435C5.78662 12.6622 5.8428 12.681 5.91147 12.6935C5.94268 12.6998 5.96765 12.7373 5.95516 12.7686C5.95516 12.7999 5.9302 12.8186 5.89898 12.8186ZM16.7419 12.8124C16.7232 12.8124 16.7107 12.8061 16.6982 12.7936C16.6732 12.7686 16.6732 12.7311 16.6982 12.706C16.7419 12.6622 16.7856 12.6184 16.8293 12.5747C16.8543 12.5496 16.8917 12.5496 16.9167 12.5747C16.9417 12.5997 16.9417 12.6372 16.9167 12.6622C16.873 12.706 16.8293 12.7498 16.7794 12.7936C16.7731 12.8061 16.7606 12.8124 16.7419 12.8124ZM5.55566 12.681C5.54317 12.681 5.53069 12.6748 5.5182 12.6685C5.44329 12.6122 5.3996 12.5496 5.3996 12.4808C5.3996 12.4746 5.3996 12.462 5.3996 12.4558C5.40584 12.4245 5.43705 12.3995 5.46826 12.4057C5.49947 12.412 5.52444 12.4433 5.5182 12.4746V12.4808C5.5182 12.5058 5.53693 12.5371 5.58062 12.5621C5.61184 12.5809 5.61808 12.6184 5.59935 12.6497C5.59311 12.6748 5.57438 12.681 5.55566 12.681ZM5.5619 12.3745C5.54317 12.3745 5.53069 12.3682 5.5182 12.3557C5.49323 12.3307 5.49323 12.2931 5.5182 12.2681C5.55566 12.2306 5.60559 12.1868 5.66802 12.143C5.69299 12.1242 5.73668 12.1242 5.75541 12.1555C5.77414 12.1805 5.77414 12.2243 5.74293 12.2431C5.68674 12.2869 5.64305 12.3244 5.60559 12.362C5.59935 12.3682 5.58062 12.3745 5.5619 12.3745ZM5.85529 12.1367C5.83656 12.1367 5.81783 12.1305 5.80535 12.1117C5.78662 12.0867 5.79286 12.0429 5.81783 12.0241C5.86777 11.9866 5.91771 11.9553 5.97389 11.9178C6.0051 11.899 6.04256 11.9053 6.06128 11.9365C6.08001 11.9678 6.07377 12.0054 6.04256 12.0241C5.98638 12.0617 5.93644 12.0929 5.89274 12.1305C5.88026 12.1367 5.86777 12.1367 5.85529 12.1367ZM6.1674 11.9303C6.14868 11.9303 6.12371 11.9178 6.11746 11.899C6.09874 11.8677 6.10498 11.8302 6.13619 11.8114C6.18613 11.7801 6.24231 11.7426 6.29849 11.7113C6.3297 11.6926 6.36716 11.7051 6.38588 11.7301C6.40461 11.7614 6.39213 11.7989 6.36716 11.8177C6.31098 11.849 6.26104 11.8865 6.2111 11.9178C6.19237 11.924 6.17989 11.9303 6.1674 11.9303ZM6.48576 11.7301C6.46704 11.7301 6.44207 11.7176 6.42958 11.6988C6.41085 11.6675 6.42334 11.63 6.44831 11.6112C6.50449 11.5799 6.55443 11.5487 6.61061 11.5111C6.64182 11.4924 6.67927 11.5049 6.698 11.5362C6.71673 11.5674 6.70424 11.605 6.67303 11.6237C6.61685 11.655 6.56691 11.6863 6.51073 11.7176C6.51073 11.7301 6.49825 11.7301 6.48576 11.7301ZM6.81036 11.5362C6.79164 11.5362 6.76667 11.5236 6.75418 11.5049C6.73546 11.4736 6.74794 11.4361 6.77915 11.4173C6.83533 11.386 6.89151 11.3547 6.94145 11.3235C6.97266 11.3047 7.01012 11.3172 7.02884 11.3485C7.04757 11.3798 7.03509 11.4173 7.00388 11.4361C6.95394 11.4673 6.89776 11.4986 6.84157 11.5299C6.82909 11.5362 6.82285 11.5362 6.81036 11.5362ZM7.13496 11.3485C7.11624 11.3485 7.09127 11.336 7.07878 11.3172C7.06006 11.2859 7.07254 11.2484 7.10375 11.2296C7.15993 11.1983 7.21611 11.1671 7.26605 11.1358C7.29726 11.117 7.33472 11.1295 7.35345 11.1608C7.37217 11.1921 7.35969 11.2296 7.32848 11.2484C7.27854 11.2734 7.22236 11.3047 7.16618 11.3422C7.15369 11.3485 7.14745 11.3485 7.13496 11.3485Z" fill="#193F6E"/>
</g>
<g id="Group_13">
<path id="Vector_47" d="M13.19 14.1074H13.1464C13.1089 14.1074 13.0839 14.0761 13.0839 14.0448C13.0839 14.0135 13.1151 13.9823 13.1464 13.9823H13.19C13.24 13.9823 13.2837 13.9823 13.3336 13.9823C13.3711 13.9823 13.396 14.0073 13.396 14.0448C13.396 14.0824 13.3711 14.1074 13.3336 14.1074C13.2899 14.1011 13.24 14.1074 13.19 14.1074ZM12.9591 14.1011C12.8967 14.1011 12.828 14.0949 12.7656 14.0886C12.7281 14.0886 12.7031 14.0573 12.7094 14.0198C12.7094 13.9823 12.7406 13.9572 12.7781 13.9635C12.8405 13.9697 12.9029 13.9697 12.9653 13.976C13.0028 13.976 13.0277 14.0073 13.0277 14.0386C13.0215 14.0761 12.9965 14.1011 12.9591 14.1011ZM13.5209 14.0949C13.4897 14.0949 13.4585 14.0698 13.4585 14.0386C13.4585 14.001 13.4834 13.976 13.5146 13.9697C13.5771 13.9635 13.6395 13.9572 13.6957 13.951C13.7269 13.9447 13.7581 13.9697 13.7643 14.0073C13.7706 14.0386 13.7456 14.0698 13.7082 14.0761C13.652 14.0824 13.5896 14.0886 13.5209 14.0949C13.5271 14.0949 13.5271 14.0949 13.5209 14.0949ZM12.5908 14.0698H12.5845C12.5221 14.0636 12.4597 14.0573 12.3973 14.0448C12.3661 14.0386 12.3411 14.0073 12.3473 13.976C12.3536 13.9447 12.3848 13.9197 12.416 13.926C12.4784 13.9322 12.5408 13.9447 12.597 13.951C12.6282 13.9572 12.6532 13.9885 12.6532 14.0198C12.647 14.0448 12.622 14.0698 12.5908 14.0698ZM13.8954 14.0511C13.8642 14.0511 13.8393 14.0261 13.833 14.001C13.8268 13.9697 13.8517 13.9322 13.8829 13.9322C13.9454 13.9197 14.0078 13.9134 14.064 13.9009C14.0952 13.8947 14.1326 13.9134 14.1389 13.951C14.1451 13.9823 14.1264 14.0198 14.0889 14.0261C14.0265 14.0386 13.9641 14.0511 13.9017 14.0573C13.9017 14.0511 13.8954 14.0511 13.8954 14.0511ZM12.2162 14.0135C12.21 14.0135 12.21 14.0135 12.2038 14.0135C12.1413 14.001 12.0789 13.9885 12.0165 13.976C11.9853 13.9697 11.9603 13.9385 11.9666 13.9009C11.9728 13.8697 12.004 13.8446 12.0415 13.8509C12.1039 13.8634 12.1663 13.8759 12.2225 13.8884C12.2537 13.8947 12.2787 13.926 12.2724 13.9635C12.2724 13.9948 12.2475 14.0135 12.2162 14.0135ZM14.2637 13.9823C14.2325 13.9823 14.2075 13.9635 14.2013 13.9322C14.1951 13.9009 14.2138 13.8634 14.245 13.8571C14.3074 13.8446 14.3636 13.8259 14.426 13.8071C14.4572 13.7946 14.4947 13.8196 14.5009 13.8509C14.5134 13.8822 14.4885 13.9197 14.4572 13.926C14.3948 13.9447 14.3386 13.9572 14.2762 13.976C14.27 13.976 14.27 13.9823 14.2637 13.9823ZM11.8542 13.9385C11.8479 13.9385 11.8417 13.9385 11.8417 13.9385C11.7793 13.926 11.7231 13.9072 11.6607 13.8947C11.6295 13.8884 11.6107 13.8509 11.617 13.8196C11.6232 13.7883 11.6607 13.7696 11.6919 13.7758C11.7543 13.7946 11.8105 13.8071 11.8729 13.8196C11.9041 13.8259 11.9291 13.8634 11.9166 13.8947C11.9041 13.9197 11.8792 13.9385 11.8542 13.9385ZM14.6195 13.8759C14.5946 13.8759 14.5696 13.8571 14.5634 13.8321C14.5509 13.8008 14.5696 13.7633 14.6008 13.7508C14.657 13.732 14.7194 13.707 14.7756 13.6882C14.8068 13.6757 14.8443 13.6945 14.8568 13.7258C14.8692 13.757 14.8505 13.7946 14.8193 13.8071C14.7631 13.8321 14.7007 13.8509 14.6383 13.8697C14.632 13.8759 14.6258 13.8759 14.6195 13.8759ZM11.4921 13.8446C11.4859 13.8446 11.4797 13.8446 11.4734 13.8446C11.4172 13.8259 11.3548 13.8133 11.2924 13.7946C11.2612 13.7883 11.2362 13.7508 11.2487 13.7195C11.2549 13.6882 11.2924 13.6632 11.3236 13.6757C11.386 13.6945 11.4484 13.707 11.5046 13.7258C11.5358 13.732 11.5608 13.7696 11.5483 13.8008C11.5421 13.8259 11.5171 13.8446 11.4921 13.8446ZM11.1238 13.7508C11.1176 13.7508 11.1114 13.7508 11.1114 13.7508C11.0489 13.7383 10.9927 13.7195 10.9303 13.707C10.8991 13.7007 10.8741 13.6632 10.8866 13.6319C10.8929 13.6006 10.9303 13.5756 10.9615 13.5881C11.024 13.6006 11.0864 13.6194 11.1426 13.6319C11.1738 13.6382 11.1987 13.6757 11.1863 13.707C11.18 13.732 11.155 13.7508 11.1238 13.7508ZM14.9691 13.7383C14.9441 13.7383 14.9192 13.7258 14.9129 13.7007C14.9004 13.6695 14.9129 13.6319 14.9441 13.6194C15.0003 13.5944 15.0565 13.5694 15.1127 13.5443C15.1439 13.5318 15.1814 13.5443 15.1938 13.5756C15.2063 13.6069 15.1938 13.6444 15.1626 13.6569C15.1064 13.682 15.0503 13.7133 14.9878 13.7383C14.9878 13.7383 14.9816 13.7383 14.9691 13.7383ZM10.7618 13.6632C10.7555 13.6632 10.7493 13.6632 10.7493 13.6632C10.6869 13.6507 10.6307 13.6319 10.5683 13.6194C10.5371 13.6132 10.5121 13.5756 10.5246 13.5443C10.5308 13.5131 10.5683 13.488 10.5995 13.5005C10.6619 13.5131 10.7243 13.5318 10.7805 13.5443C10.8117 13.5506 10.8367 13.5881 10.8242 13.6194C10.818 13.6382 10.7868 13.6632 10.7618 13.6632ZM10.3935 13.5756C10.3872 13.5756 10.381 13.5756 10.381 13.5756C10.3186 13.5631 10.2562 13.5506 10.2 13.5318C10.1688 13.5256 10.1438 13.488 10.15 13.4568C10.1563 13.4255 10.1937 13.4005 10.2249 13.4067C10.2874 13.4192 10.3498 13.4317 10.406 13.4505C10.4372 13.4568 10.4622 13.4943 10.4497 13.5256C10.4497 13.5569 10.4247 13.5756 10.3935 13.5756ZM15.3062 13.5756C15.2812 13.5756 15.2625 13.5631 15.25 13.5443C15.2313 13.5131 15.2438 13.4755 15.275 13.4568C15.3312 13.4255 15.3811 13.3942 15.4373 13.3629C15.4685 13.3441 15.506 13.3567 15.5247 13.3817C15.5434 13.413 15.5309 13.4505 15.506 13.4693C15.4498 13.5005 15.3998 13.5318 15.3437 13.5631C15.3249 13.5694 15.3187 13.5756 15.3062 13.5756ZM10.0314 13.4943C10.0252 13.4943 10.0252 13.4943 10.0189 13.4943L9.83792 13.4505C9.80671 13.4442 9.78174 13.4067 9.78798 13.3754C9.79422 13.3441 9.83168 13.3191 9.86289 13.3254L10.0439 13.3692C10.0751 13.3754 10.1001 13.413 10.0939 13.4442C10.0876 13.4693 10.0564 13.4943 10.0314 13.4943ZM9.66313 13.413C9.65689 13.413 9.65689 13.413 9.65065 13.413L9.46962 13.3754C9.43841 13.3692 9.41344 13.3316 9.41968 13.3004C9.42593 13.2691 9.46338 13.244 9.49459 13.2503L9.67562 13.2878C9.70683 13.2941 9.7318 13.3316 9.72556 13.3629C9.71931 13.3879 9.69434 13.413 9.66313 13.413ZM15.6308 13.3817C15.6121 13.3817 15.5933 13.3692 15.5809 13.3504C15.5621 13.3191 15.5684 13.2816 15.5996 13.2628C15.6495 13.2315 15.7057 13.194 15.7556 13.1565C15.7869 13.1377 15.8243 13.144 15.843 13.169C15.8618 13.2003 15.8555 13.2378 15.8306 13.2566C15.7806 13.2941 15.7244 13.3254 15.6745 13.3629C15.6495 13.3817 15.6433 13.3817 15.6308 13.3817ZM9.30108 13.3316C9.29484 13.3316 9.29484 13.3316 9.28859 13.3316L9.10757 13.2941C9.07635 13.2878 9.05139 13.2566 9.05763 13.219C9.06387 13.1877 9.09508 13.1627 9.13254 13.169L9.31356 13.2065C9.34477 13.2128 9.36974 13.244 9.3635 13.2816C9.35102 13.3129 9.32605 13.3316 9.30108 13.3316ZM8.93278 13.2503C8.92654 13.2503 8.92654 13.2503 8.9203 13.2503L8.73927 13.2128C8.70806 13.2065 8.68309 13.1752 8.68933 13.1377C8.69557 13.1064 8.72678 13.0814 8.76424 13.0876L8.94527 13.1252C8.97648 13.1314 9.00145 13.1627 8.9952 13.2003C8.98896 13.2315 8.95775 13.2503 8.93278 13.2503ZM8.56448 13.169C8.55824 13.169 8.55824 13.169 8.552 13.169L8.37097 13.1314C8.33976 13.1252 8.31479 13.0939 8.32103 13.0564C8.32727 13.0251 8.35849 13.0001 8.39594 13.0063L8.57697 13.0439C8.60818 13.0501 8.63315 13.0814 8.62691 13.1189C8.62066 13.1502 8.5957 13.169 8.56448 13.169ZM15.9367 13.169C15.9179 13.169 15.8992 13.1627 15.8867 13.144C15.868 13.1189 15.8743 13.0751 15.8992 13.0564C15.9492 13.0188 15.9991 12.9813 16.0428 12.9438C16.0678 12.925 16.1115 12.925 16.1302 12.95C16.1489 12.975 16.1489 13.0188 16.1239 13.0376C16.074 13.0751 16.0241 13.1189 15.9741 13.1565C15.9616 13.1627 15.9492 13.169 15.9367 13.169ZM8.19619 13.0939C8.18994 13.0939 8.18994 13.0939 8.1837 13.0939L8.00267 13.0564C7.97146 13.0501 7.94649 13.0126 7.95274 12.9813C7.95898 12.95 7.99643 12.925 8.02764 12.9312L8.20867 12.9688C8.23988 12.975 8.26485 13.0063 8.25861 13.0439C8.25237 13.0751 8.2274 13.0939 8.19619 13.0939ZM7.83413 13.0126C7.82789 13.0126 7.82789 13.0126 7.82165 13.0126C7.75298 13.0001 7.6968 12.9813 7.64062 12.9688C7.60941 12.9625 7.58444 12.925 7.59692 12.8937C7.60316 12.8624 7.64062 12.8374 7.67183 12.8499C7.72801 12.8624 7.79043 12.8749 7.85286 12.8937C7.88407 12.9 7.90904 12.9375 7.9028 12.9688C7.88407 12.9938 7.8591 13.0126 7.83413 13.0126ZM16.2238 12.9312C16.2051 12.9312 16.1864 12.925 16.1739 12.9125C16.1489 12.8875 16.1552 12.8499 16.1801 12.8249C16.2301 12.7811 16.2738 12.7436 16.3175 12.6998C16.3424 12.6748 16.3799 12.681 16.4048 12.706C16.4298 12.7311 16.4236 12.7686 16.3986 12.7936C16.3549 12.8374 16.305 12.8812 16.255 12.9187C16.255 12.925 16.2425 12.9312 16.2238 12.9312ZM7.46583 12.925C7.45959 12.925 7.45335 12.925 7.44711 12.925C7.42838 12.9187 7.4159 12.9187 7.39717 12.9125C7.35971 12.9 7.31602 12.8937 7.26608 12.8812C7.23487 12.8749 7.2099 12.8437 7.21614 12.8061C7.22238 12.7748 7.25359 12.7498 7.29105 12.7561C7.34099 12.7686 7.39093 12.7748 7.42838 12.7874C7.44086 12.7936 7.45959 12.7936 7.47208 12.7999C7.50329 12.8061 7.52826 12.8437 7.51577 12.8749C7.52201 12.9062 7.49705 12.925 7.46583 12.925ZM7.09754 12.8499C7.09129 12.8499 7.09129 12.8499 7.08505 12.8499C7.02263 12.8374 6.96645 12.8312 6.89778 12.8249C6.86657 12.8186 6.8416 12.7874 6.84784 12.7561C6.85409 12.7248 6.8853 12.6998 6.91651 12.706C6.97893 12.7123 7.04136 12.7248 7.10378 12.7373C7.13499 12.7436 7.15996 12.7748 7.15372 12.8061C7.15372 12.8249 7.12875 12.8499 7.09754 12.8499ZM6.72924 12.7936H6.723C6.66057 12.7874 6.59815 12.7748 6.53573 12.7686C6.50452 12.7623 6.47955 12.7311 6.48579 12.6998C6.49203 12.6685 6.52324 12.6435 6.55445 12.6497C6.61688 12.656 6.6793 12.6685 6.74172 12.6748C6.77294 12.681 6.7979 12.7123 6.7979 12.7436C6.78542 12.7686 6.76045 12.7936 6.72924 12.7936ZM6.36094 12.7373C6.3547 12.7373 6.3547 12.7373 6.34846 12.7373C6.27979 12.7248 6.21737 12.7123 6.16119 12.6998C6.12998 12.6935 6.10501 12.656 6.11749 12.6247C6.12373 12.5934 6.16119 12.5684 6.1924 12.5809C6.24234 12.5934 6.30476 12.6059 6.37343 12.6184C6.40464 12.6247 6.42961 12.656 6.42337 12.6935C6.41712 12.7185 6.38591 12.7373 6.36094 12.7373ZM16.5047 12.6748C16.486 12.6748 16.4735 12.6685 16.461 12.656C16.4361 12.631 16.4361 12.5934 16.461 12.5684C16.4798 12.5496 16.4985 12.5309 16.5172 12.5121C16.5422 12.4871 16.5796 12.4871 16.6046 12.5121C16.6296 12.5371 16.6296 12.5747 16.6046 12.5997C16.5859 12.6184 16.5671 12.6372 16.5484 12.656C16.5359 12.6685 16.5172 12.6748 16.5047 12.6748ZM5.99264 12.6497C5.9864 12.6497 5.98016 12.6497 5.97392 12.6435C5.88652 12.6122 5.8241 12.5747 5.78665 12.5309C5.76168 12.5058 5.76792 12.4683 5.79289 12.4433C5.81786 12.4183 5.85531 12.4245 5.88028 12.4495C5.89901 12.4683 5.93022 12.4933 6.01761 12.5246C6.04883 12.5371 6.06755 12.5747 6.05507 12.6059C6.04258 12.631 6.01761 12.6497 5.99264 12.6497ZM5.84283 12.387C5.83034 12.387 5.81786 12.3807 5.80537 12.3745C5.78041 12.3557 5.77416 12.3119 5.79289 12.2869C5.8241 12.2493 5.87404 12.1993 5.93646 12.1492C5.96143 12.1242 6.00513 12.1305 6.02386 12.1555C6.04883 12.1805 6.04258 12.2243 6.01761 12.2431C5.96143 12.2931 5.91774 12.3307 5.89277 12.362C5.88028 12.3807 5.86156 12.387 5.84283 12.387ZM6.12998 12.143C6.11125 12.143 6.09252 12.1367 6.08004 12.118C6.06131 12.0929 6.06755 12.0492 6.09252 12.0304C6.14246 11.9928 6.1924 11.9616 6.24858 11.924C6.27979 11.9053 6.31725 11.9115 6.33597 11.9428C6.3547 11.9741 6.34846 12.0116 6.31725 12.0304C6.26106 12.0679 6.21113 12.1055 6.16743 12.1367C6.15494 12.1367 6.14246 12.143 6.12998 12.143ZM6.43585 11.9303C6.41712 11.9303 6.3984 11.9178 6.38591 11.899C6.36718 11.8677 6.37343 11.8302 6.40464 11.8114C6.45458 11.7801 6.51076 11.7426 6.56694 11.7113C6.59815 11.6926 6.6356 11.7051 6.65433 11.7301C6.67306 11.7614 6.66057 11.7989 6.6356 11.8177C6.57942 11.849 6.52948 11.8865 6.47955 11.9178C6.46082 11.924 6.44833 11.9303 6.43585 11.9303ZM6.75421 11.7301C6.73548 11.7301 6.71051 11.7176 6.69803 11.6988C6.6793 11.6675 6.69179 11.63 6.71675 11.6112C6.77294 11.5799 6.82287 11.5487 6.87905 11.5174C6.91027 11.4986 6.94772 11.5111 6.96645 11.5424C6.98517 11.5737 6.97269 11.6112 6.94148 11.63C6.8853 11.6613 6.83536 11.6926 6.77918 11.7238C6.77918 11.7238 6.76669 11.7301 6.75421 11.7301ZM7.07881 11.5362C7.06008 11.5362 7.03511 11.5236 7.02263 11.5049C7.0039 11.4736 7.01639 11.4361 7.0476 11.4173C7.10378 11.386 7.15996 11.3547 7.2099 11.3235C7.24111 11.3047 7.27856 11.3172 7.29729 11.3485C7.31602 11.3798 7.30353 11.4173 7.27232 11.4361C7.22238 11.4673 7.1662 11.4986 7.11002 11.5299C7.10378 11.5362 7.09129 11.5362 7.07881 11.5362ZM7.40341 11.3485C7.38468 11.3485 7.35971 11.336 7.34723 11.3172C7.3285 11.2859 7.34099 11.2484 7.3722 11.2296C7.42838 11.1983 7.48456 11.1671 7.5345 11.1358C7.56571 11.117 7.60317 11.1295 7.62189 11.1608C7.64062 11.1921 7.62813 11.2296 7.59692 11.2484C7.54698 11.2734 7.4908 11.3047 7.43462 11.3422C7.42838 11.3485 7.4159 11.3485 7.40341 11.3485Z" fill="#193F6E"/>
</g>
</g>
</g>
</svg>
