<svg width="36" height="27" viewBox="0 0 36 27" fill="none" xmlns="http://www.w3.org/2000/svg">
<g id="logo">
<path id="Vector" d="M17.6536 27.0001C17.3955 27.0001 17.1442 26.9594 16.8997 26.8847L5.40001 23.1964C4.37435 22.8635 3.68152 21.9194 3.68152 20.8394V17.8643C3.68152 16.5058 4.74114 15.419 6.09964 15.3918L17.6604 15.1201L29.2212 15.3918C30.5797 15.4258 31.6393 16.5126 31.6393 17.8643V20.8394C31.6393 21.9194 30.9465 22.8703 29.9208 23.1964L18.4144 26.8847C18.1698 26.9594 17.9117 27.0001 17.6536 27.0001Z" fill="#003D6C"/>
<path id="Vector_2" d="M17.6536 26.2325C17.477 26.2325 17.3004 26.2054 17.1306 26.151L5.63094 22.4627C4.91773 22.2318 4.44226 21.5797 4.44226 20.8325V17.8574C4.44226 16.9201 5.17585 16.1729 6.11321 16.1457L17.6536 15.874L29.194 16.1457C30.1314 16.1661 30.8649 16.9201 30.8649 17.8574V20.8325C30.8649 21.5797 30.3895 22.2318 29.6763 22.4627L18.1766 26.151C18.0068 26.2054 17.837 26.2325 17.6536 26.2325Z" fill="white"/>
<path id="Vector_3" d="M17.6536 16.302L6.11999 16.5737C5.42716 16.5873 4.87018 17.1579 4.87018 17.8575V20.8326C4.87018 21.3896 5.23018 21.8854 5.75999 22.0552L17.2664 25.7435C17.5177 25.825 17.7962 25.825 18.0476 25.7435L29.5472 22.0552C30.077 21.8854 30.437 21.3896 30.437 20.8326V17.8575C30.437 17.1579 29.88 16.5941 29.1872 16.5737L17.6536 16.302Z" fill="#ED232F"/>
<path id="Vector_4" d="M17.6536 0C17.3955 0 17.1442 0.0407548 16.8997 0.115472L5.40001 3.81057C4.37435 4.1434 3.68152 5.08756 3.68152 6.16756V9.14266C3.68152 10.5012 4.74114 11.5879 6.09964 11.6151L17.6604 11.8868L29.2212 11.6151C30.5797 11.5812 31.6393 10.4944 31.6393 9.14266V6.16756C31.6393 5.08756 30.9465 4.13661 29.9208 3.81057L18.4144 0.115472C18.1698 0.0407548 17.9117 0 17.6536 0Z" fill="#003D6C"/>
<path id="Vector_5" d="M17.6536 0.767578C17.477 0.767578 17.3004 0.794748 17.1306 0.849088L5.63094 4.5374C4.91773 4.76834 4.44226 5.42042 4.44226 6.16759V9.14269C4.44226 10.08 5.17585 10.8272 6.11321 10.8544L17.6536 11.1261L29.194 10.8544C30.1314 10.834 30.8649 10.08 30.8649 9.14269V6.16759C30.8649 5.42042 30.3895 4.76834 29.6763 4.5374L18.1766 0.849088C18.0068 0.794748 17.837 0.767578 17.6536 0.767578Z" fill="white"/>
<path id="Vector_6" d="M17.6536 10.6982L6.11999 10.4265C5.42716 10.4129 4.87018 9.84237 4.87018 9.14274V6.16764C4.87018 5.61066 5.23018 5.11481 5.75999 4.945L17.2596 1.25669C17.511 1.17518 17.7894 1.17518 18.0408 1.25669L29.5404 4.945C30.0702 5.11481 30.4302 5.61066 30.4302 6.16764V9.14274C30.4302 9.84237 29.8732 10.4061 29.1804 10.4265L17.6536 10.6982Z" fill="#ED232F"/>
<path id="Vector_7" d="M17.6808 22.2453C27.4456 22.2453 35.3616 18.4591 35.3616 13.7886C35.3616 9.11819 27.4456 5.33203 17.6808 5.33203C7.91596 5.33203 0 9.11819 0 13.7886C0 18.4591 7.91596 22.2453 17.6808 22.2453Z" fill="#003D6C"/>
<path id="Vector_8" d="M17.6808 21.6409C26.6391 21.6409 33.9012 18.1254 33.9012 13.7889C33.9012 9.45227 26.6391 5.93677 17.6808 5.93677C8.72251 5.93677 1.46039 9.45227 1.46039 13.7889C1.46039 18.1254 8.72251 21.6409 17.6808 21.6409Z" fill="white"/>
<path id="Vector_9" d="M17.6807 21.1926C26.1288 21.1926 32.9773 17.8778 32.9773 13.7888C32.9773 9.6998 26.1288 6.38501 17.6807 6.38501C9.23263 6.38501 2.38409 9.6998 2.38409 13.7888C2.38409 17.8778 9.23263 21.1926 17.6807 21.1926Z" fill="#ED232F"/>
<path id="Vector_10" d="M25.7298 20.0854C25.9132 20.0311 26.0898 19.9767 26.2664 19.9156V7.66199C26.0898 7.60086 25.9132 7.54652 25.7298 7.49218V20.0854ZM30.8513 17.5586C31.0415 17.4024 31.2181 17.2462 31.3879 17.0831V10.508C31.2181 10.345 31.0415 10.1888 30.8513 10.0326V17.5586ZM24.4528 20.425C24.6362 20.3843 24.8128 20.3367 24.9894 20.2892V7.28161C24.8128 7.23407 24.6362 7.19331 24.4528 7.14577V20.425ZM27.0136 19.6575C27.197 19.5896 27.3736 19.5216 27.5502 19.4469V8.13067C27.3736 8.05596 27.197 7.98803 27.0136 7.92011V19.6575ZM32.1283 11.3571V16.2273C32.3457 15.9216 32.5291 15.6092 32.6649 15.2831V12.2945C32.5291 11.9752 32.3525 11.6628 32.1283 11.3571ZM29.5744 18.4484C29.7578 18.3397 29.9412 18.2243 30.111 18.1088V9.46879C29.9412 9.35332 29.7578 9.23784 29.5744 9.12916V18.4484ZM28.2906 19.1209C28.474 19.0326 28.6506 18.9443 28.8272 18.856V8.72162C28.6506 8.63332 28.474 8.54501 28.2906 8.45671V19.1209ZM19.3313 21.145C19.5079 21.1382 19.6913 21.1247 19.8679 21.1111V6.45973C19.6913 6.44614 19.5079 6.43935 19.3313 6.42576V21.145ZM23.1759 20.6967C23.3593 20.6628 23.5359 20.6288 23.7125 20.5881V6.98275C23.5359 6.94878 23.3593 6.90803 23.1759 6.87407V20.6967ZM18.0543 21.1858C18.2309 21.1858 18.4143 21.179 18.5909 21.1722V6.39859C18.4143 6.3918 18.2309 6.3918 18.0543 6.38501V21.1858ZM21.8921 20.9073C22.0755 20.8801 22.2521 20.853 22.4287 20.8258V6.7518C22.2521 6.72463 22.0755 6.69746 21.8921 6.67029V20.9073ZM20.6151 21.0567C20.7917 21.0431 20.9751 21.0228 21.1517 21.0024V6.5752C20.9751 6.55482 20.7917 6.53444 20.6151 6.52086V21.0567ZM10.3789 20.296C10.5555 20.3435 10.7321 20.3843 10.9155 20.4318V7.15256C10.7321 7.19331 10.5555 7.24086 10.3789 7.28841V20.296ZM15.4936 21.1179C15.6702 21.1314 15.8536 21.1382 16.0302 21.1518V6.43256C15.8536 6.43935 15.6702 6.45293 15.4936 6.46652V21.1179ZM14.2166 21.0024C14.3932 21.0228 14.5766 21.0431 14.7532 21.0567V6.52086C14.5766 6.53444 14.3932 6.55482 14.2166 6.5752V21.0024ZM5.25734 18.1088C5.42715 18.2243 5.61054 18.3397 5.79394 18.4484V9.12916C5.61054 9.23784 5.42715 9.35332 5.25734 9.46879V18.1088ZM12.9396 20.8258C13.1162 20.853 13.2928 20.8801 13.4762 20.9073V6.67029C13.2928 6.69746 13.1162 6.72463 12.9396 6.7518V20.8258ZM2.70337 15.2831C2.83922 15.6024 3.02262 15.9216 3.23997 16.2273V11.3571C3.02262 11.6628 2.83922 11.9752 2.70337 12.3012V15.2831ZM16.7774 21.179C16.954 21.1858 17.1374 21.1858 17.314 21.1926V6.3918C17.1374 6.3918 16.954 6.39859 16.7774 6.40539V21.179ZM11.6558 20.5948C11.8324 20.6288 12.009 20.6696 12.1924 20.7035V6.88086C12.009 6.91482 11.8324 6.94878 11.6558 6.98954V20.5948ZM3.98035 17.0763C4.15016 17.2394 4.32677 17.3956 4.51696 17.5518V10.019C4.32677 10.1752 4.15016 10.3314 3.98035 10.4945V17.0763ZM6.54111 18.856C6.71772 18.9443 6.89432 19.0326 7.07772 19.1209V8.45671C6.89432 8.54501 6.71772 8.63332 6.54111 8.72162V18.856ZM7.81809 19.4469C7.9947 19.5216 8.1713 19.5896 8.3547 19.6575V7.92011C8.1713 7.98803 7.9947 8.05596 7.81809 8.13067V19.4469ZM9.09508 19.9156C9.27168 19.9767 9.44829 20.0311 9.63168 20.0854V7.49218C9.44829 7.54652 9.27168 7.60086 9.09508 7.66199V19.9156Z" fill="white"/>
<g id="Group">
<path id="Vector_11" d="M21.8921 23.3051C21.7834 23.407 21.7019 23.4681 21.6951 23.4749L21.6543 23.5088C21.5728 23.5768 21.4845 23.6447 21.3962 23.7126L21.3283 23.767C20.9751 24.0183 20.5675 24.2085 20.1939 23.9707C19.6438 23.6175 19.7321 23.1217 19.7796 22.8839C19.8068 22.7209 19.8272 22.6054 19.766 22.4356C19.5079 21.8583 15.8264 18.0069 15.0045 17.2666C14.8687 17.1443 14.5834 16.8998 14.2234 16.5941C12.5932 15.1949 9.19695 12.2809 6.75845 9.60466L3.63392 6.18126C3.02939 5.52239 2.91392 4.6122 3.36222 3.96692L3.3826 3.93975L3.62713 3.67484C3.68146 3.6205 3.7358 3.55937 3.79014 3.51182C3.86486 3.4439 3.93958 3.38277 4.0143 3.32164L4.29958 3.10428L4.33354 3.0839C5.01279 2.70352 5.90939 2.9005 6.51392 3.55937L9.63846 6.98277C12.077 9.65901 14.6717 13.3066 15.9147 15.059C16.1864 15.4462 16.4038 15.7451 16.5124 15.8945C17.1781 16.7775 20.6762 20.7919 21.2264 21.1043C21.3826 21.1858 21.5049 21.1722 21.6747 21.1586C21.926 21.1383 22.4423 21.0839 22.7275 21.6953C22.9789 22.2319 22.5102 22.7073 22.1706 23.0537C22.1502 23.0741 22.1366 23.0877 22.123 23.1081L22.0958 23.1353C22.089 23.142 22.0347 23.1964 21.9464 23.2779L21.8921 23.3051Z" fill="#003D6C"/>
<path id="Vector_12" d="M9.24448 7.31553L6.11994 3.89213C5.72598 3.45741 5.0807 3.22647 4.57126 3.51854L4.31994 3.71552C4.20447 3.80383 4.09579 3.90571 3.9939 4.01439L3.77654 4.25213C3.44371 4.73439 3.61352 5.39326 4.00749 5.82798L7.13202 9.25138C10.1139 12.5186 14.5834 16.1933 15.3441 16.8793C16.0981 17.5654 19.9698 21.5729 20.2347 22.2386C20.4996 22.9042 19.9834 23.2235 20.4656 23.5359C20.6626 23.665 21.0837 23.3118 21.3826 23.074C21.3826 23.074 21.4505 23.0197 21.5524 22.9314C21.6475 22.8431 21.7087 22.7752 21.7087 22.7752C21.9736 22.5035 22.3675 22.1435 22.252 21.9057C22.0075 21.3827 21.6203 21.8786 20.9819 21.5525C20.3434 21.2333 16.7094 17.0084 16.0913 16.1933C15.4732 15.3714 12.2264 10.5827 9.24448 7.31553Z" fill="#C79234"/>
<path id="Vector_13" d="M20.3026 23.3797C20.3366 23.4273 20.3841 23.4816 20.4588 23.5292C20.6558 23.6582 21.077 23.305 21.3758 23.0673C21.3758 23.0673 21.4437 23.0129 21.5456 22.9246C21.6407 22.8363 21.7019 22.7684 21.7019 22.7684C21.9668 22.4967 22.3607 22.1367 22.2453 21.899C22.2045 21.8107 22.157 21.7563 22.1094 21.7156C21.3758 22.6597 20.6558 23.1624 20.3026 23.3797Z" fill="#955D22"/>
<path id="Vector_14" d="M9.24454 7.31553L6.12001 3.89213C5.72605 3.45741 5.08076 3.22647 4.57133 3.51854L4.32001 3.71552C4.70718 3.76986 5.4951 4.44911 7.05737 6.12685C9.24454 8.47704 12.8785 12.4642 14.0332 14.142C15.188 15.8197 16.5668 17.2461 17.8302 18.6046C19.0936 19.9631 20.4657 21.4371 20.8529 21.8514C21.2061 22.2318 21.9804 21.8786 22.2385 22.1435C22.2793 22.0552 22.2929 21.9669 22.2589 21.899C22.0144 21.3759 21.6272 21.8718 20.9887 21.5457C20.3502 21.2265 16.7163 17.0016 16.0981 16.1865C15.4732 15.3714 12.2264 10.5827 9.24454 7.31553Z" fill="#955D22"/>
<path id="Vector_15" d="M16.4649 17.9936C16.4649 17.9936 14.5563 15.786 13.1774 14.6177C11.7985 13.4494 9.61135 11.4864 5.29135 6.84715C3.64078 5.07432 3.83776 4.83658 3.72908 4.32715C3.46417 4.80262 3.63399 5.41394 4.00757 5.82149L7.1321 9.24489C10.114 12.5121 14.5834 16.1868 15.3442 16.8728C15.5412 17.0562 15.9555 17.4706 16.4649 17.9936Z" fill="white"/>
</g>
<g id="Group_2">
<path id="Vector_16" d="M13.4762 23.3051C13.5849 23.407 13.6664 23.4681 13.6732 23.4749L13.714 23.5088C13.7955 23.5768 13.8838 23.6447 13.9721 23.7126L14.04 23.767C14.3932 24.0183 14.8008 24.2085 15.1744 23.9707C15.7246 23.6175 15.6363 23.1217 15.5887 22.8839C15.5615 22.7209 15.5412 22.6054 15.6023 22.4356C15.8604 21.8583 19.5419 18.0069 20.3638 17.2666C20.4997 17.1443 20.7849 16.8998 21.1449 16.5941C22.7751 15.1949 26.1714 12.2809 28.6099 9.60466L31.7344 6.18126C32.3389 5.52239 32.4544 4.6122 32.0061 3.96692L31.9857 3.93975L31.7412 3.67484C31.6868 3.6205 31.6325 3.55937 31.5782 3.51182C31.5034 3.4439 31.4287 3.38277 31.354 3.32164L31.0687 3.10428L31.0348 3.0839C30.3555 2.70352 29.4589 2.9005 28.8544 3.55937L25.7299 6.98277C23.2914 9.65901 20.6966 13.3066 19.4536 15.059C19.1819 15.4462 18.9646 15.7451 18.8559 15.8945C18.1902 16.7775 14.6921 20.7919 14.1419 21.1043C13.9857 21.1858 13.8634 21.1722 13.6936 21.1586C13.4423 21.1383 12.9261 21.0839 12.6408 21.6953C12.3895 22.2319 12.8581 22.7073 13.1978 23.0537C13.2181 23.0741 13.2317 23.0877 13.2453 23.1081L13.2725 23.1353C13.2793 23.142 13.3336 23.1964 13.4219 23.2779L13.4762 23.3051Z" fill="#003D6C"/>
<path id="Vector_17" d="M26.1238 7.31553L29.2483 3.89213C29.6423 3.45741 30.2876 3.22647 30.797 3.51854L31.0483 3.71552C31.1638 3.80383 31.2725 3.90571 31.3744 4.01439L31.5917 4.25213C31.9246 4.73439 31.7548 5.39326 31.3608 5.82798L28.2363 9.25138C25.2612 12.5118 20.7849 16.1865 20.031 16.8725C19.277 17.5586 15.4053 21.5661 15.1404 22.2318C14.8755 22.8974 15.3917 23.2167 14.9094 23.5291C14.7125 23.6582 14.2913 23.305 13.9925 23.0673C13.9925 23.0673 13.9245 23.0129 13.8227 22.9246C13.7276 22.8363 13.6664 22.7684 13.6664 22.7684C13.4015 22.4967 13.0076 22.1367 13.123 21.899C13.3676 21.3759 13.7547 21.8718 14.3932 21.5457C15.0317 21.2265 18.6657 17.0016 19.2838 16.1865C19.8883 15.3714 23.1419 10.5827 26.1238 7.31553Z" fill="#C79234"/>
<path id="Vector_18" d="M15.0657 23.3797C15.0317 23.4273 14.9842 23.4816 14.9094 23.5292C14.7125 23.6582 14.2913 23.305 13.9925 23.0673C13.9925 23.0673 13.9245 23.0129 13.8227 22.9246C13.7276 22.8363 13.6664 22.7684 13.6664 22.7684C13.4015 22.4967 13.0076 22.1367 13.123 21.899C13.1638 21.8107 13.2113 21.7563 13.2589 21.7156C13.9857 22.6597 14.7125 23.1624 15.0657 23.3797Z" fill="#955D22"/>
<path id="Vector_19" d="M26.1238 7.31553L29.2484 3.89213C29.6423 3.45741 30.2876 3.22647 30.797 3.51854L31.0484 3.71552C30.6612 3.76986 29.8733 4.44911 28.311 6.12685C26.1238 8.47704 22.4899 12.4642 21.3351 14.142C20.1804 15.8197 18.8015 17.2461 17.5381 18.6046C16.2747 19.9631 14.9027 21.4371 14.5155 21.8514C14.1623 22.2318 13.388 21.8786 13.1298 22.1435C13.0891 22.0552 13.0755 21.9669 13.1095 21.899C13.354 21.3759 13.7412 21.8718 14.3796 21.5457C15.0181 21.2265 18.6521 17.0016 19.2702 16.1865C19.8883 15.3714 23.1419 10.5827 26.1238 7.31553Z" fill="#955D22"/>
<path id="Vector_20" d="M18.9034 17.9936C18.9034 17.9936 20.8121 15.786 22.1909 14.6177C23.5698 13.4494 25.757 11.4864 30.077 6.84715C31.7276 5.07432 31.5306 4.83658 31.6393 4.32715C31.9042 4.80262 31.7343 5.41394 31.3608 5.82149L28.2362 9.24489C25.2611 12.5121 20.7849 16.1868 20.0309 16.8728C19.8272 17.0562 19.4128 17.4706 18.9034 17.9936Z" fill="white"/>
</g>
<g id="Group_3">
<path id="Vector_21" d="M21.8994 9.58407C22.5927 7.2423 21.2564 4.78187 18.9146 4.08854C16.5728 3.39522 14.1124 4.73155 13.4191 7.07332C12.7257 9.4151 14.0621 11.8755 16.4039 12.5689C18.7456 13.2622 21.2061 11.9258 21.8994 9.58407Z" fill="#003D6C"/>
<path id="Vector_22" d="M20.4034 11.0769C21.9207 9.55959 21.9207 7.09959 20.4034 5.5823C18.8861 4.06502 16.4261 4.06502 14.9088 5.5823C13.3916 7.09959 13.3916 9.55959 14.9088 11.0769C16.4261 12.5942 18.8861 12.5942 20.4034 11.0769Z" fill="#C4DBE7"/>
<path id="Vector_23" d="M16.3495 4.66654C15.1336 5.10126 14.271 6.07937 13.9313 7.2273C13.9517 7.29522 13.9721 7.36994 13.9993 7.43787C14.7193 9.45523 16.9472 10.5081 18.9646 9.78806C20.1804 9.35334 21.043 8.37523 21.3827 7.2273C21.3623 7.15937 21.3419 7.08466 21.3147 7.01673C20.5879 4.99937 18.3668 3.94654 16.3495 4.66654Z" fill="white"/>
<path id="Vector_24" d="M20.7169 5.93677C20.5132 5.67866 20.2822 5.45451 20.0309 5.25752C19.3245 6.13375 18.6181 7.38357 18.6316 8.87112C18.6452 9.84244 18.9713 10.7866 19.603 11.6832C19.8815 11.5202 20.1396 11.3232 20.3637 11.1058C19.8543 10.379 19.5894 9.62508 19.5826 8.85753C19.5758 7.69602 20.1328 6.68394 20.7169 5.93677ZM14.5969 5.92998C15.1811 6.67715 15.7381 7.69602 15.7245 8.85074C15.7177 9.6115 15.4528 10.3723 14.9433 11.099C15.1743 11.3232 15.4324 11.5134 15.7041 11.6764C16.3426 10.7798 16.6686 9.83565 16.6822 8.86432C16.7026 7.37677 15.9894 6.12017 15.283 5.25073C15.0248 5.44771 14.7939 5.67866 14.5969 5.92998Z" fill="#C4DBE7"/>
<path id="Vector_25" d="M16.5803 10.0191C16.3494 10.0802 16.1388 10.1277 15.9079 10.1617L15.9418 10.3994C16.166 10.3723 16.3969 10.3383 16.6279 10.284C16.6958 10.2704 16.7365 10.1957 16.7229 10.121C16.7162 10.0462 16.6482 9.99869 16.5803 10.0191ZM15.3712 8.02888C15.3509 8.08322 15.3848 8.13756 15.446 8.15114C15.5546 8.17831 15.6633 8.20548 15.772 8.23944C15.8807 8.27341 15.9826 8.30737 16.0845 8.34812C16.1184 8.27341 16.1456 8.19869 16.1728 8.12397C15.9554 8.05605 15.7448 7.99491 15.5275 7.95416C15.4596 7.94057 15.3916 7.97454 15.3712 8.02888ZM15.2354 10.1617C15.3984 10.3179 15.5343 10.4877 15.6769 10.6644C15.738 10.6168 15.806 10.5693 15.8671 10.5217C15.7177 10.3451 15.5614 10.1821 15.4052 10.0327C15.3577 9.98511 15.2829 9.98511 15.2354 10.0191C15.1879 10.0462 15.1879 10.1142 15.2354 10.1617ZM15.3577 7.39039C15.2897 7.38359 15.2354 7.43114 15.215 7.49227C15.2014 7.5534 15.2422 7.60095 15.3101 7.60774C15.4188 7.62133 15.5343 7.63491 15.6429 7.6485C15.7516 7.66888 15.8603 7.68925 15.969 7.70963C15.9894 7.63491 16.0097 7.5534 16.0233 7.47869C15.7924 7.43793 15.575 7.40397 15.3577 7.39039ZM16.3494 10.7255C16.1184 10.7527 15.8875 10.7662 15.6633 10.7662C15.6633 10.8477 15.6701 10.9293 15.6701 11.004C15.9011 11.0108 16.1252 10.9972 16.3562 10.9836C16.4241 10.9768 16.4784 10.9157 16.4784 10.841C16.4784 10.7662 16.4173 10.7119 16.3494 10.7255ZM15.6565 6.52095C15.7856 6.33755 15.9146 6.14057 16.0301 5.94359C16.0641 5.88246 16.0437 5.80095 15.9826 5.76699C15.9214 5.72623 15.8467 5.74661 15.8128 5.80774C15.6973 6.01151 15.5818 6.2017 15.4596 6.39189L15.6565 6.52095ZM15.3645 6.07265C15.1403 6.09302 14.9162 6.12699 14.6988 6.16095C14.6377 6.17453 14.5833 6.22887 14.5901 6.29001C14.5969 6.35114 14.6512 6.39189 14.7124 6.37831C14.9365 6.34435 15.1539 6.32397 15.378 6.30359L15.3645 6.07265ZM15.6837 6.89454L15.6973 6.6568C15.4731 6.65001 15.2422 6.66359 15.0248 6.67718C14.9569 6.68397 14.9026 6.73831 14.9026 6.79944C14.9026 6.86057 14.9501 6.90133 15.018 6.90133C15.2286 6.88095 15.4528 6.88095 15.6837 6.89454ZM15.1811 10.5625C15.1403 10.5081 15.0656 10.4945 15.018 10.5285C14.9705 10.5625 14.9569 10.6236 14.9977 10.6779C15.1267 10.8545 15.2558 11.0379 15.378 11.2349L15.5818 11.1127C15.446 10.9157 15.3237 10.7391 15.1811 10.5625ZM15.6294 5.33227C15.6565 5.27114 15.6294 5.18963 15.5682 5.15566C15.5071 5.1217 15.4324 5.14887 15.4052 5.21C15.3101 5.42057 15.215 5.62434 15.1063 5.82812C15.1743 5.86208 15.249 5.90284 15.3169 5.9368C15.4256 5.74661 15.5343 5.54283 15.6294 5.33227ZM15.9011 11.5813C15.7652 11.5745 15.6294 11.561 15.4935 11.5474C15.6429 11.6493 15.7924 11.7308 15.9554 11.8123C15.9894 11.7919 16.0097 11.7579 16.0165 11.7172C16.0165 11.6425 15.969 11.5813 15.9011 11.5813ZM16.132 9.66586C15.9486 9.52322 15.772 9.39416 15.5818 9.27869C15.5275 9.24473 15.4528 9.25831 15.412 9.29907C15.3712 9.33982 15.3848 9.40095 15.4392 9.44171C15.5275 9.50284 15.6226 9.56397 15.7109 9.6319C15.7992 9.69982 15.8807 9.76775 15.969 9.84246C16.0233 9.78813 16.0845 9.73379 16.132 9.66586ZM16.8928 9.10888C16.8656 9.04095 16.7977 9.00699 16.7297 9.04095C16.5192 9.14963 16.3086 9.23794 16.098 9.31265L16.1728 9.5368C16.3901 9.46888 16.6143 9.38737 16.818 9.28548C16.8928 9.26511 16.9199 9.1768 16.8928 9.10888ZM16.0029 7.33605C16.0845 7.25454 16.1592 7.17303 16.2407 7.08472C16.3154 6.99642 16.3901 6.90812 16.458 6.81982C16.4988 6.76548 16.492 6.67718 16.4377 6.62963C16.3833 6.58208 16.3018 6.58887 16.2611 6.64321C16.1252 6.82661 15.9758 7.01001 15.8263 7.17303C15.8943 7.22737 15.9418 7.28171 16.0029 7.33605ZM16.1728 7.98812C16.2611 7.9202 16.3562 7.84548 16.4377 7.77076C16.5192 7.69605 16.6075 7.61454 16.689 7.53303C16.7365 7.48548 16.7365 7.39718 16.6958 7.34284C16.6482 7.2885 16.5667 7.2885 16.5192 7.33605C16.3629 7.50586 16.1863 7.66208 16.0165 7.80473C16.0777 7.85907 16.1252 7.9202 16.1728 7.98812ZM15.6158 8.70812C15.5546 8.68095 15.4799 8.70812 15.4528 8.75567C15.4188 8.80322 15.446 8.86435 15.5071 8.89152C15.7041 8.97982 15.8943 9.0885 16.0912 9.21077L16.2203 9.00699C16.0301 8.89152 15.8128 8.79643 15.6158 8.70812ZM16.132 8.66058L16.2475 8.87114C16.4512 8.76926 16.6482 8.65378 16.8452 8.52473C16.8996 8.48397 16.9199 8.40246 16.8792 8.33454C16.8384 8.26661 16.7637 8.25303 16.7094 8.29378C16.526 8.42963 16.3358 8.5519 16.132 8.66058Z" fill="#ED232F"/>
<path id="Vector_26" d="M18.591 10.1208C18.5774 10.1955 18.6249 10.2702 18.6861 10.2838C18.917 10.3381 19.148 10.3721 19.3721 10.3992L19.4061 10.1615C19.1751 10.1343 18.9646 10.08 18.7336 10.0189C18.6725 9.99849 18.6046 10.046 18.591 10.1208ZM19.7932 7.95396C19.5759 7.99471 19.3653 8.05585 19.148 8.12377C19.1683 8.19849 19.2023 8.2732 19.2363 8.34792C19.3449 8.30717 19.4468 8.2732 19.5487 8.23924C19.6574 8.20528 19.7661 8.17811 19.8748 8.15094C19.9359 8.13736 19.9698 8.08302 19.9495 8.02868C19.9291 7.97434 19.8612 7.94037 19.7932 7.95396ZM20.0853 10.0121C20.0378 9.97811 19.9631 9.97811 19.9155 10.0257C19.7593 10.1751 19.6031 10.3381 19.4536 10.5147C19.5147 10.5623 19.5827 10.6098 19.6438 10.6574C19.7864 10.4808 19.9223 10.3177 20.0853 10.1547C20.1261 10.114 20.1261 10.046 20.0853 10.0121ZM19.2974 7.47169C19.311 7.5532 19.3314 7.62792 19.3517 7.70264C19.4604 7.67547 19.5691 7.65509 19.6778 7.64151C19.7864 7.62113 19.9019 7.60754 20.0106 7.60075C20.0785 7.59396 20.1193 7.54641 20.1057 7.48528C20.0921 7.42415 20.031 7.38339 19.9631 7.38339C19.7457 7.40377 19.5215 7.43773 19.2974 7.47169ZM18.8423 10.8408C18.8423 10.9155 18.8966 10.9766 18.9646 10.9834C19.2023 11.0038 19.4197 11.0106 19.6506 11.0038C19.6438 10.9223 19.6506 10.8408 19.6574 10.766C19.4332 10.766 19.2023 10.7525 18.9714 10.7253C18.9034 10.7117 18.8423 10.766 18.8423 10.8408ZM19.8612 6.3849C19.7321 6.19471 19.6234 6.00452 19.508 5.80075C19.474 5.73962 19.3993 5.71924 19.3381 5.75999C19.277 5.80075 19.2566 5.88226 19.2906 5.9366C19.4061 6.13358 19.5351 6.33056 19.6642 6.51396L19.8612 6.3849ZM19.9359 6.31018C20.1668 6.32377 20.3842 6.35094 20.6015 6.3849C20.6695 6.39169 20.7238 6.35773 20.7238 6.2966C20.7238 6.23547 20.6763 6.17433 20.6151 6.16754C20.3978 6.13358 20.1736 6.09962 19.9495 6.07924L19.9359 6.31018ZM20.3095 6.89433C20.3774 6.90113 20.4249 6.85358 20.4249 6.79245C20.4249 6.73132 20.3706 6.67698 20.3027 6.67018C20.0853 6.6566 19.8544 6.64301 19.6302 6.64981L19.6438 6.88754C19.868 6.88075 20.0853 6.88075 20.3095 6.89433ZM19.7457 11.1057L19.9495 11.2279C20.0717 11.0309 20.194 10.8475 20.3298 10.6709C20.3706 10.6166 20.357 10.5555 20.3095 10.5215C20.2619 10.4875 20.1872 10.5011 20.1464 10.5555C19.997 10.7389 19.868 10.9155 19.7457 11.1057ZM20.0038 5.94339C20.0785 5.90263 20.1464 5.86867 20.2144 5.83471C20.1125 5.63773 20.0106 5.42716 19.9155 5.2166C19.8883 5.15546 19.8136 5.12829 19.7525 5.16226C19.6914 5.19622 19.6642 5.27094 19.6914 5.33886C19.7864 5.54263 19.8951 5.74641 20.0038 5.94339ZM19.311 11.717C19.3178 11.7577 19.3381 11.7917 19.3721 11.8121C19.5283 11.7374 19.6846 11.6491 19.834 11.5472C19.6981 11.5608 19.5623 11.5743 19.4264 11.5811C19.3517 11.5811 19.3042 11.6423 19.311 11.717ZM19.3449 9.84906C19.4264 9.77434 19.5148 9.70641 19.6031 9.63849C19.6914 9.57056 19.7864 9.50943 19.8748 9.4483C19.9291 9.41434 19.9427 9.35321 19.9019 9.30566C19.8612 9.2649 19.7864 9.25132 19.7321 9.28528C19.5487 9.40075 19.3653 9.52981 19.1819 9.67245C19.2295 9.73358 19.2906 9.78792 19.3449 9.84906ZM18.4891 9.29207C18.6929 9.39396 18.9238 9.46868 19.1344 9.5434L19.2091 9.31924C18.9985 9.24453 18.788 9.14943 18.5774 9.04755C18.5163 9.01358 18.4415 9.04755 18.4144 9.11547C18.394 9.1766 18.428 9.2649 18.4891 9.29207ZM19.4876 7.17283C19.3381 7.00981 19.1887 6.82641 19.0529 6.64301C19.0121 6.58867 18.9306 6.58188 18.8763 6.62943C18.8219 6.67698 18.8151 6.76528 18.8559 6.81962C18.9306 6.90792 18.9985 6.99622 19.0732 7.08452C19.148 7.17283 19.2295 7.25433 19.311 7.33584C19.3721 7.2815 19.4264 7.22716 19.4876 7.17283ZM19.2974 7.79773C19.1276 7.65509 18.9578 7.49207 18.7947 7.32905C18.7472 7.2815 18.6657 7.2815 18.6181 7.33584C18.5706 7.39018 18.5706 7.47849 18.6249 7.52603C18.7064 7.60754 18.7947 7.68905 18.8763 7.76377C18.9646 7.83849 19.0529 7.9132 19.1412 7.98113C19.1955 7.92 19.2431 7.85886 19.2974 7.79773ZM19.1004 9.00679L19.2295 9.21057C19.4264 9.0883 19.6166 8.98641 19.8136 8.89132C19.8748 8.86415 19.8951 8.80302 19.868 8.75547C19.834 8.70792 19.7661 8.68754 19.7049 8.70792C19.5012 8.79622 19.2906 8.89132 19.1004 9.00679ZM18.6046 8.29358C18.5502 8.25283 18.4755 8.2732 18.4347 8.33434C18.394 8.40226 18.4144 8.48377 18.4687 8.52453C18.6657 8.65358 18.8695 8.76905 19.0664 8.87094L19.1819 8.66037C18.9781 8.5517 18.7947 8.42943 18.6046 8.29358Z" fill="#ED232F"/>
<g id="Group_4">
<path id="Vector_27" d="M14.4271 5.33209C15.1064 6.07926 16.003 7.34945 15.9894 8.86417C15.9758 9.82191 15.6022 10.7457 14.8754 11.6423C15.0045 11.717 15.1335 11.7917 15.2626 11.8529C16.0234 10.9019 16.4105 9.91021 16.4241 8.87096C16.4445 7.22719 15.5139 5.87549 14.7871 5.07397C14.6649 5.14869 14.5426 5.23699 14.4271 5.33209Z" fill="#003D6C"/>
<path id="Vector_28" d="M20.8868 5.33209C20.2076 6.07926 19.311 7.34945 19.3246 8.86417C19.3382 9.82191 19.7117 10.7457 20.4385 11.6423C20.3095 11.717 20.1804 11.7917 20.0514 11.8529C19.2906 10.9019 18.9034 9.91021 18.8899 8.87096C18.8695 7.22719 19.8 5.87549 20.5268 5.07397C20.6559 5.14869 20.7782 5.23699 20.8868 5.33209Z" fill="#003D6C"/>
</g>
</g>
<path id="Vector_29" d="M31.6461 17.8575V17.4364L32.2778 16.893L31.6461 16.3428V13.3677H29.0242V16.3428L28.7389 16.6009L28.4401 16.3428V13.3677H25.8114V14.7941L25.5057 13.3677H22.7412L22.5374 14.3186L21.3963 13.3677H18.754H17.7623H14.4068V13.5103L14.237 13.3677H11.8121L10.6506 14.3322L10.4468 13.3677H7.68229L7.47852 14.3186L6.33738 13.3677H2.70342V16.3428L2.07172 16.893L2.70342 17.4364V20.4047H6.18116H6.33738H8.85739L9.06795 19.4266L9.27852 20.4047H11.8189H11.948H14.237L14.4068 20.262V20.4047H17.7623H18.7744H21.2401H21.3963H23.9163L24.1268 19.4266L24.3374 20.4047H25.8114H27.0069H29.0174H30.0363H33.2423V17.8507H31.6461V17.8575ZM28.4401 17.8575V17.4364L28.7389 17.1782L29.0242 17.4296V17.8507H28.4401V17.8575Z" fill="#003D6C"/>
<g id="Group_5">
<path id="Vector_30" d="M3.47093 17.0829L3.23999 16.886L3.47093 16.689V14.135H6.05886L6.75169 14.7124V16.4037L6.33056 16.8792L6.75169 17.3682V19.0663L6.05886 19.6437H3.47093V17.0829ZM4.55094 16.3765H5.6649V15.1539H4.55094V16.3765ZM4.55094 18.6248H5.6649V17.4022H4.55094V18.6248Z" fill="white"/>
<path id="Vector_31" d="M9.89651 19.6369L9.6316 18.4143H8.49726L8.23235 19.6369H7.12518L8.30028 14.135H9.82179L10.9969 19.6369H9.89651ZM9.41424 17.3954L9.06103 15.7516L8.70783 17.3954H9.41424Z" fill="white"/>
<path id="Vector_32" d="M14.6582 19.0666L13.9653 19.644H12.0906L11.391 19.0666V18.1836H12.4778V18.6251H13.5714V17.4025H12.0906L11.391 16.8251V14.7194L12.0906 14.1421H13.9653L14.6582 14.7194V15.5753H13.5714V15.161H12.4778V16.3836H13.9653L14.6582 16.961V19.0666Z" fill="white"/>
<path id="Vector_33" d="M18.0068 19.6369H15.1744V17.0829L14.9434 16.886L15.1744 16.689V14.135H17.9797V15.1539H16.2544V16.3765H17.7351V17.3954H16.2544V18.618H18V19.6369H18.0068Z" fill="white"/>
<path id="Vector_34" d="M18.5298 17.0829L18.2989 16.886L18.5298 16.689V14.135H21.1246L21.8174 14.7124V16.4037L21.3963 16.8792L21.8174 17.3682V19.0663L21.1246 19.6437H18.5366V17.0829H18.5298ZM19.6166 16.3765H20.7306V15.1539H19.6166V16.3765ZM19.6166 18.6248H20.7306V17.4022H19.6166V18.6248Z" fill="white"/>
<path id="Vector_35" d="M24.9555 19.6369L24.6906 18.4143H23.5562L23.2913 19.6369H22.1841L23.3592 14.135H24.8808L26.0558 19.6369H24.9555ZM24.48 17.3954L24.1268 15.7516L23.7736 17.3954H24.48Z" fill="white"/>
<path id="Vector_36" d="M29.2688 19.6369H26.5789V17.0829L26.3548 16.886L26.5789 16.689V14.135H27.6657V16.689L27.8967 16.886L27.6657 17.0829V18.618H29.2688V19.6369Z" fill="white"/>
<path id="Vector_37" d="M32.4748 19.6369H29.7849V17.0829L29.5608 16.886L29.7849 16.689V14.135H30.8717V16.689L31.1027 16.886L30.8717 17.0829V18.618H32.4748V19.6369Z" fill="white"/>
</g>
</g>
</svg>
