<svg width="63" height="52" viewBox="0 0 63 52" fill="none" xmlns="http://www.w3.org/2000/svg">
<g id="logo">
<path id="Vector" d="M31.5707 51.937C31.4196 51.8992 28.22 50.9545 24.1386 48.1076C24.3023 48.8004 24.5669 50.4254 22.8537 51.5591C22.4128 51.8488 21.9215 52 21.405 52C20.2587 52 19.251 51.2694 18.5203 50.7403L18.3944 50.6521L18.3314 50.6017C18.2936 50.5766 18.1298 50.4632 17.9031 50.2742L17.8023 50.1986C17.5252 49.9719 17.3362 49.7955 17.2984 49.7704L17.2103 49.6822C17.0465 49.531 16.8575 49.3546 16.6686 49.1657L15.875 48.4225L15.938 48.3469C15.4341 47.6667 14.9428 46.6337 15.4719 45.4496C15.8624 44.593 16.6812 43.5727 18.4322 43.5727C18.5203 43.5727 18.6085 43.5727 18.6715 43.5727C18.7345 43.5727 18.7975 43.5727 18.8605 43.5727C17.4496 42.0988 16.1521 40.4864 14.9806 38.7733C14.7665 38.811 14.5523 38.8614 14.3508 38.8992L14.2626 38.9244L14.187 38.937C12.436 39.3401 10.6599 39.7936 8.9215 40.2849L8.56879 40.3857L3.81976 38.093L2.34592 33.0039L2.8246 32.8653L2.78681 32.7141L2.30813 32.8527L0.670532 27.2471L1.6027 26.9826C4.0465 26.2771 6.31394 25.6977 8.5184 25.219L8.88371 25.1434L8.98449 25.2064C7.90115 20.9486 7.2965 16.3004 7.20832 11.3498L5.19282 8.85562C3.6308 6.9283 3.49224 4.35853 4.8527 2.60756L4.94088 2.48159L5.58332 1.86434C5.75968 1.68798 5.96123 1.52422 6.16278 1.36047C6.31394 1.2345 6.4777 1.12112 6.64146 1.00775L7.37208 0.516473L7.51065 0.453488C8.09011 0.151163 8.74515 0 9.42538 0C10.9748 0 12.4612 0.755814 13.532 2.06589L15.3333 4.29554C19.9438 2.54457 25.7636 1.57461 31.8227 1.57461C37.7936 1.57461 43.563 2.50678 48.1357 4.21996L49.8866 2.06589C50.9574 0.755814 52.4564 0 54.0058 0C54.686 0 55.3411 0.151163 55.9457 0.440891L56.0843 0.503876L56.8149 0.995155C56.9787 1.10853 57.1424 1.2219 57.2936 1.34787C57.4952 1.51163 57.6841 1.67539 57.8731 1.85174L58.5155 2.46899L58.6037 2.59496C59.9641 4.34593 59.8256 6.9157 58.2636 8.84302L56.4748 11.0349C56.3992 15.9477 55.845 20.5707 54.7868 24.8033L54.9254 24.8285L54.9884 24.8411C56.9031 25.2316 58.8178 25.6851 60.7074 26.1764L61.6395 26.4157L60.2413 31.7694C60.7955 31.9205 61.3372 32.0717 62.0678 32.2859L63 32.5504L61.3876 38.093L56.4118 40.3857L56.0717 40.2849C54.3837 39.8062 52.6705 39.3653 50.97 38.9748C50.3905 38.8488 50.1008 38.7859 49.5087 38.6599C49.2946 38.6095 49.0678 38.5717 48.8537 38.5213C47.6444 40.3353 46.2839 42.0107 44.8101 43.5601C44.8731 43.5601 44.936 43.5601 44.999 43.5601C46.75 43.5601 47.5814 44.5804 47.9593 45.437C48.501 46.6211 47.9971 47.6667 47.4932 48.3469L47.5436 48.4099L46.9012 49.0271L46.7626 49.1531C46.5736 49.3421 46.3721 49.5184 46.2083 49.6822L46.1327 49.7578C46.0824 49.8081 45.8934 49.9719 45.6289 50.186L45.5281 50.2616C45.2888 50.4506 45.125 50.564 45.0998 50.5891L45.0368 50.6395L44.9109 50.7277C44.1802 51.2568 43.1725 51.9874 42.0262 51.9874C41.5097 51.9874 41.0184 51.8362 40.5775 51.5465C39.0029 50.501 39.0911 49.0523 39.2422 48.2839C35.2994 50.9796 32.2384 51.874 32.0872 51.9118L31.8227 51.9874L31.5707 51.937Z" fill="#C4DBE7"/>
<path id="Vector_2" d="M8.15308 9.97682C8.15308 44.2656 31.8352 51.0049 31.8352 51.0049C31.8352 51.0049 55.5174 44.2782 55.5174 9.97682C46.6744 0.0630639 16.9961 0.0630639 8.15308 9.97682Z" fill="#003D6C"/>
<path id="Vector_3" d="M11.0757 11.5262C11.0757 41.5698 31.8228 47.4652 31.8228 47.4652C31.8228 47.4652 52.5825 41.5698 52.5825 11.5262C44.8354 2.83436 18.8354 2.83436 11.0757 11.5262Z" fill="white"/>
<path id="Vector_4" d="M31.4321 20.8982C25.0203 20.8982 18.8604 21.3895 13.1036 22.2839C16.9709 42.0988 31.8226 46.3187 31.8226 46.3187C31.8226 46.3187 46.6114 42.1114 50.5164 22.4098C44.5581 21.4399 38.1337 20.8982 31.4321 20.8982Z" fill="#ED232F"/>
<g id="Group">
<path id="Vector_5" d="M45.0242 49.4554C45.2761 49.2412 45.4525 49.0901 45.4651 49.0775L45.5533 48.9893C45.7296 48.8255 45.906 48.6618 46.0949 48.4854L46.2461 48.3469C46.9263 47.6414 47.4932 46.7849 47.0775 45.8653C46.4729 44.5174 45.3265 44.5426 44.7723 44.5678C44.3944 44.5804 44.1298 44.5804 43.7645 44.3788C42.5804 43.5852 35.186 34.0116 33.8004 31.9331C33.561 31.5804 33.1201 30.8624 32.5533 29.9554C29.9583 25.8236 24.5794 17.2199 19.4021 10.8459L12.7887 2.68311C11.5039 1.0959 9.50095 0.541633 7.91374 1.31004L7.83816 1.34784L7.17052 1.80132C7.01936 1.9021 6.88079 2.00287 6.74223 2.11625C6.56587 2.25481 6.40211 2.40597 6.23835 2.55714L5.6463 3.124L5.59591 3.18698C4.51258 4.57264 4.65114 6.65113 5.92343 8.23834L12.5368 16.4011C17.7141 22.7878 25.0077 29.8294 28.5223 33.218C29.2907 33.9612 29.8953 34.5533 30.1977 34.8556C31.9486 36.6443 39.7713 45.8527 40.2878 47.2006C40.4137 47.5785 40.3508 47.843 40.25 48.2209C40.1114 48.7752 39.8343 49.9215 41.1066 50.7655C42.2151 51.5087 43.4496 50.6143 44.344 49.9719C44.3944 49.9341 44.4322 49.9089 44.4699 49.8711L44.5455 49.8207C44.5581 49.8081 44.7093 49.7073 44.9234 49.5436L45.0242 49.4554Z" fill="#003D6C"/>
<path id="Vector_6" d="M13.4439 15.6706L6.83052 7.50779C5.98653 6.47485 5.6968 4.95062 6.5156 3.90508L7.04467 3.4012C7.28401 3.17446 7.54854 2.96031 7.82567 2.77136L8.43033 2.35566C9.62703 1.7762 11.0505 2.38086 11.8819 3.4138L18.4952 11.5766C24.8189 19.3741 31.5456 30.6483 32.8305 32.5756C34.1154 34.5029 41.7869 44.5553 43.1978 45.3615C44.596 46.1803 45.4904 45.1347 46.0195 46.3188C46.2336 46.8101 45.3014 47.6289 44.6716 48.2084C44.6716 48.2084 44.5204 48.3469 44.2937 48.5359C44.0544 48.7248 43.8906 48.8382 43.8906 48.8382C43.1978 49.3295 42.253 50.0979 41.7491 49.7704C40.6658 49.0524 41.9003 48.3469 41.3964 46.8101C40.8925 45.2733 32.6542 35.6745 31.0292 34.0243C29.4042 32.3741 19.7675 23.4681 13.4439 15.6706Z" fill="#C4DBE7"/>
<path id="Vector_7" d="M45.7423 45.9158C45.8431 46.0039 45.9439 46.1299 46.0194 46.3189C46.2336 46.8102 45.3014 47.629 44.6716 48.2084C44.6716 48.2084 44.5204 48.347 44.2937 48.5359C44.0543 48.7249 43.8906 48.8383 43.8906 48.8383C43.1977 49.3295 42.253 50.0979 41.7491 49.7704C41.5601 49.6445 41.4468 49.5311 41.3838 49.4051C43.7646 48.0824 45.1377 46.6338 45.7423 45.9158Z" fill="#6B9BB1"/>
<path id="Vector_8" d="M13.4439 15.6705L6.83052 7.50771C5.98653 6.47477 5.6968 4.95054 6.5156 3.905L7.04467 3.40112C7.03207 4.28291 8.29176 6.28581 11.5292 10.3546C16.064 16.061 23.7733 25.5591 27.1367 28.7209C30.5001 31.8827 33.2462 35.4602 35.8538 38.748C38.4739 42.0358 41.3208 45.6259 42.1144 46.6211C42.8451 47.5407 41.7995 49.1531 42.3034 49.8207C42.0892 49.8837 41.9003 49.8837 41.7365 49.7829C40.6532 49.0649 41.8877 48.3595 41.3838 46.8226C40.8799 45.2858 32.6416 35.687 31.0166 34.0368C29.4042 32.374 19.7675 23.468 13.4439 15.6705Z" fill="#6B9BB1"/>
<path id="Vector_9" d="M34.9468 35.4854C34.9468 35.4854 30.6386 30.4466 28.4972 26.9573C26.3431 23.4679 22.6774 17.8875 13.7336 6.63847C10.3324 2.34292 9.72779 2.70823 8.61926 2.27994C9.77818 1.83905 11.0883 2.4311 11.8819 3.41366L18.4952 11.5765C24.8189 19.3739 31.5456 30.6482 32.8305 32.5755C33.1706 33.092 33.9516 34.1627 34.9468 35.4854Z" fill="white"/>
</g>
<g id="Group_2">
<path id="Vector_10" d="M18.407 49.4555C18.1551 49.2414 17.9787 49.0902 17.9661 49.0776L17.8779 48.9894C17.7016 48.8257 17.5252 48.6619 17.3363 48.4856L17.1851 48.347C16.5049 47.6416 15.938 46.785 16.3537 45.8654C16.9584 44.5175 18.1047 44.5427 18.659 44.5679C19.0369 44.5805 19.3014 44.5805 19.6667 44.379C20.8634 43.598 28.2578 34.0369 29.6435 31.9458C29.8828 31.5931 30.3237 30.8751 30.8905 29.9681C33.4729 25.8363 38.8644 17.2327 44.0291 10.846L50.6425 2.68325C51.9274 1.10863 53.9303 0.541772 55.5049 1.32278L55.5805 1.36057L56.2481 1.81406C56.3993 1.91483 56.5378 2.01561 56.6764 2.12898C56.8528 2.26755 57.0165 2.41871 57.1803 2.56987L57.7723 3.13673L57.8227 3.19972C58.9061 4.58538 58.7675 6.66387 57.4952 8.25107L50.8818 16.4139C45.7045 22.8005 38.4109 29.8422 34.8964 33.2307C34.128 33.9739 33.5233 34.566 33.221 34.8683C31.47 36.6571 23.6473 45.8654 23.1309 47.2133C23.0049 47.5912 23.0679 47.8557 23.1686 48.2336C23.3072 48.7879 23.5843 49.9342 22.3121 50.7782C21.2035 51.5214 19.969 50.627 19.0747 49.9846C19.0243 49.9468 18.9865 49.9216 18.9487 49.8838L18.8731 49.8334C18.8605 49.8208 18.7093 49.7201 18.4952 49.5563L18.407 49.4555Z" fill="#003D6C"/>
<path id="Vector_11" d="M49.9875 15.6706L56.6009 7.50779C57.4449 6.47485 57.7346 4.95062 56.9158 3.90508L56.3867 3.4012C56.1474 3.17446 55.8829 2.96031 55.6057 2.77136L55.0011 2.35566C53.8044 1.7762 52.3809 2.38086 51.5495 3.4138L44.9361 11.5766C38.6125 19.3741 31.8858 30.6483 30.6009 32.5756C29.316 34.5029 21.6445 44.5553 20.2336 45.3615C18.8354 46.1803 17.941 45.1347 17.4119 46.3188C17.1978 46.8101 18.1299 47.6289 18.7598 48.2084C18.7598 48.2084 18.911 48.3469 19.1377 48.5359C19.377 48.7248 19.5408 48.8382 19.5408 48.8382C20.2336 49.3295 21.1784 50.0979 21.6823 49.7704C22.7656 49.0524 21.5311 48.3469 22.035 46.8101C22.5389 45.2733 30.7772 35.6745 32.4022 34.0243C34.0272 32.3741 43.6639 23.4681 49.9875 15.6706Z" fill="#C4DBE7"/>
<path id="Vector_12" d="M17.6891 45.9158C17.5883 46.0039 17.4875 46.1299 17.4119 46.3189C17.1978 46.8102 18.1299 47.629 18.7598 48.2084C18.7598 48.2084 18.911 48.347 19.1377 48.5359C19.377 48.7249 19.5408 48.8383 19.5408 48.8383C20.2336 49.3295 21.1784 50.0979 21.6823 49.7704C21.8712 49.6445 21.9846 49.5311 22.0476 49.4051C19.6668 48.0824 18.2937 46.6338 17.6891 45.9158Z" fill="#6B9BB1"/>
<path id="Vector_13" d="M49.9875 15.6705L56.6009 7.50771C57.4449 6.47477 57.7346 4.95054 56.9158 3.905L56.3867 3.40112C56.3993 4.28291 55.1396 6.28581 51.9022 10.3546C47.3673 16.061 39.658 25.5591 36.2947 28.7209C32.9313 31.8701 30.1852 35.4602 27.5776 38.748C24.9575 42.0358 22.1106 45.6259 21.317 46.6211C20.5863 47.5407 21.6319 49.1531 21.128 49.8207C21.3421 49.8837 21.5311 49.8837 21.6949 49.7829C22.7782 49.0649 21.5437 48.3595 22.0476 46.8226C22.5515 45.2858 30.7898 35.687 32.4148 34.0368C34.0272 32.374 43.6639 23.468 49.9875 15.6705Z" fill="#6B9BB1"/>
<path id="Vector_14" d="M28.472 35.4855C28.472 35.4855 32.7802 30.4468 34.9217 26.9574C37.0757 23.4681 40.7414 17.8876 49.6852 6.63861C53.099 2.34307 53.7036 2.69578 54.8122 2.26749C53.6532 1.8266 52.3432 2.41865 51.5496 3.40121L44.9362 11.564C38.6125 19.3615 31.8858 30.6357 30.6009 32.563C30.2608 33.0921 29.4798 34.1628 28.472 35.4855Z" fill="white"/>
</g>
<g id="Group_3">
<path id="Vector_15" d="M39.5118 13.8474C40.0137 9.60525 36.9816 5.7594 32.7395 5.25749C28.4973 4.75557 24.6514 7.78764 24.1495 12.0298C23.6476 16.272 26.6797 20.1178 30.9219 20.6197C35.164 21.1217 39.0099 18.0896 39.5118 13.8474Z" fill="#003D6C"/>
<path id="Vector_16" d="M33.9692 19.3808C37.5286 18.2011 39.4577 14.3593 38.278 10.7999C37.0983 7.24054 33.2565 5.31144 29.6971 6.49115C26.1378 7.67086 24.2087 11.5126 25.3884 15.072C26.5681 18.6314 30.4099 20.5605 33.9692 19.3808Z" fill="#C4DBE7"/>
<path id="Vector_17" d="M29.5426 6.53792C27.4137 7.29373 25.9147 9.00691 25.3101 11.0224C25.3478 11.1484 25.3856 11.2744 25.436 11.3877C26.6957 14.9275 30.5882 16.7666 34.1279 15.4943C36.2568 14.7385 37.7558 13.0253 38.3604 11.0098C38.3227 10.8838 38.2849 10.7579 38.2345 10.6445C36.9622 7.11738 33.0823 5.27823 29.5426 6.53792Z" fill="white"/>
<path id="Vector_18" d="M37.1888 8.75506C36.8361 8.30157 36.433 7.91106 35.9921 7.55835C34.7576 9.08257 33.5105 11.2744 33.5483 13.882C33.5735 15.5826 34.1404 17.2328 35.2489 18.8074C35.7402 18.5177 36.1811 18.1775 36.5842 17.7996C35.6898 16.5273 35.2363 15.2047 35.2237 13.8694C35.1859 11.8413 36.1685 10.0651 37.1888 8.75506ZM26.4814 8.75506C27.5018 10.0651 28.4844 11.8413 28.4592 13.8694C28.4466 15.2047 27.9805 16.5273 27.0861 17.8122C27.4892 18.2027 27.9427 18.5428 28.4214 18.82C29.5299 17.2454 30.1094 15.5952 30.1345 13.8946C30.1597 11.287 28.9252 9.09517 27.6907 7.57095C27.2247 7.91106 26.8216 8.31416 26.4814 8.75506Z" fill="#C4DBE7"/>
<path id="Vector_19" d="M29.9583 15.9101C29.5552 16.0108 29.1899 16.099 28.7868 16.1494L28.8498 16.5651C29.2403 16.5147 29.6434 16.4517 30.0465 16.3635C30.1599 16.3384 30.2354 16.1998 30.2228 16.0738C30.1851 15.9478 30.0717 15.8723 29.9583 15.9101ZM27.8294 12.4207C27.7916 12.5215 27.8546 12.6097 27.9554 12.6349C28.1444 12.6853 28.3333 12.723 28.5223 12.786C28.7112 12.8364 28.8876 12.8994 29.0765 12.975C29.1269 12.849 29.1899 12.7104 29.2277 12.5845C28.8498 12.4585 28.4719 12.3577 28.094 12.2822C27.9806 12.2696 27.8672 12.3325 27.8294 12.4207ZM27.6027 16.1494C27.8798 16.4265 28.1318 16.7163 28.3711 17.0186C28.4845 16.9304 28.5978 16.8548 28.7112 16.7666C28.4467 16.4643 28.1696 16.1746 27.8924 15.9101C27.8042 15.8345 27.6783 15.8219 27.5901 15.8849C27.5145 15.9604 27.5145 16.0738 27.6027 16.1494ZM27.8042 11.3122C27.6909 11.2996 27.5901 11.3878 27.5649 11.4885C27.5397 11.5893 27.6153 11.6775 27.7287 11.6901C27.9176 11.7153 28.1192 11.7279 28.3081 11.7657C28.4971 11.7909 28.686 11.8287 28.8876 11.8791C28.9128 11.7405 28.9632 11.6019 28.9758 11.4634C28.5727 11.3878 28.1822 11.3374 27.8042 11.3122ZM29.5426 17.132C29.1269 17.1697 28.7364 17.1949 28.3333 17.2075C28.3333 17.3461 28.3459 17.4973 28.3459 17.6232C28.749 17.6358 29.1395 17.6106 29.5426 17.5854C29.6686 17.5729 29.7568 17.4595 29.7568 17.3335C29.7694 17.2075 29.656 17.1194 29.5426 17.132ZM28.3333 9.78797C28.5601 9.46045 28.7868 9.12033 28.9884 8.78021C29.0513 8.67944 29.0135 8.54087 28.9002 8.46529C28.7994 8.40231 28.6608 8.4275 28.6104 8.54087C28.4089 8.89359 28.2073 9.2337 27.9932 9.56122L28.3333 9.78797ZM27.8294 8.99436C27.4389 9.03215 27.0358 9.08254 26.6579 9.14552C26.5446 9.17072 26.4564 9.27149 26.469 9.37227C26.469 9.47304 26.5697 9.54862 26.6831 9.53603C27.0736 9.47304 27.4515 9.43525 27.8546 9.41006L27.8294 8.99436ZM28.3711 10.4304L28.3963 10.0147C28.0058 10.0021 27.6027 10.0273 27.2248 10.0525C27.1114 10.0651 27.0106 10.1533 27.0106 10.2666C27.0106 10.3674 27.0988 10.443 27.2122 10.443C27.5901 10.4178 27.9806 10.4178 28.3711 10.4304ZM27.5019 16.8674C27.4263 16.7792 27.3004 16.7541 27.2122 16.8044C27.1366 16.8548 27.1114 16.9682 27.1744 17.069C27.4011 17.3713 27.6279 17.6988 27.8294 18.0389L28.1822 17.8248C27.968 17.4847 27.7539 17.1697 27.5019 16.8674ZM28.2829 7.70948C28.3333 7.59611 28.2829 7.47014 28.1696 7.40715C28.0562 7.35676 27.9302 7.39455 27.8798 7.50793C27.7161 7.87324 27.5397 8.23855 27.3634 8.59126C27.4893 8.65424 27.6153 8.71723 27.7287 8.79281C27.9302 8.4275 28.1192 8.07479 28.2829 7.70948ZM28.7616 18.6436C28.5223 18.631 28.2829 18.6058 28.0436 18.5806C28.2955 18.757 28.5727 18.9081 28.8498 19.0467C28.9002 19.0089 28.9506 18.9459 28.9632 18.8829C28.9632 18.7444 28.875 18.6436 28.7616 18.6436ZM29.1647 15.2928C28.8498 15.0409 28.5349 14.8141 28.2073 14.6126C28.1066 14.5496 27.9806 14.5748 27.905 14.6504C27.842 14.726 27.8546 14.8393 27.9554 14.9023C28.1192 15.0031 28.2829 15.1165 28.4341 15.2424C28.5853 15.3558 28.7364 15.4818 28.8876 15.6077C28.9758 15.507 29.0891 15.4062 29.1647 15.2928ZM30.5 14.3103C30.4496 14.1843 30.3236 14.1339 30.2228 14.1969C29.8575 14.3858 29.4922 14.537 29.1269 14.6756L29.2655 15.0661C29.6434 14.9401 30.0339 14.8015 30.3992 14.6252C30.5 14.5874 30.5504 14.4362 30.5 14.3103ZM28.938 11.2114C29.0765 11.0728 29.2151 10.9217 29.3537 10.7705C29.4796 10.6194 29.6056 10.4682 29.7442 10.3044C29.8197 10.2163 29.8072 10.0651 29.7064 9.97692C29.6056 9.88874 29.467 9.91394 29.4041 10.0021C29.1647 10.3296 28.9002 10.6446 28.6356 10.9343C28.749 11.0225 28.8372 11.1106 28.938 11.2114ZM29.2403 12.3451C29.3915 12.2192 29.5552 12.0932 29.7064 11.9672C29.8575 11.8413 29.9961 11.7027 30.1473 11.5515C30.2354 11.4634 30.2354 11.3122 30.1599 11.2114C30.0717 11.1106 29.9331 11.1106 29.8575 11.1988C29.5804 11.4885 29.2781 11.7657 28.9758 12.0176C29.0639 12.131 29.1521 12.2318 29.2403 12.3451ZM28.2577 13.6174C28.157 13.5796 28.0184 13.6174 27.968 13.693C27.9176 13.7812 27.9554 13.882 28.0562 13.9323C28.4089 14.0961 28.7364 14.2725 29.0765 14.4866L29.3033 14.1339C28.9758 13.9323 28.6104 13.7686 28.2577 13.6174ZM29.1647 13.5292L29.3663 13.8946C29.719 13.7182 30.0717 13.5166 30.4118 13.2899C30.5126 13.2269 30.5378 13.0758 30.4748 12.9624C30.4118 12.849 30.2732 12.8238 30.1725 12.8868C29.8449 13.1261 29.53 13.3403 29.1647 13.5292Z" fill="#ED232F"/>
<path id="Vector_20" d="M33.4729 16.0863C33.4477 16.2123 33.5233 16.3509 33.6492 16.376C34.0523 16.4642 34.4554 16.5272 34.8459 16.5776L34.9089 16.1619C34.5058 16.1115 34.1279 16.0233 33.7374 15.9226C33.6114 15.8722 33.4981 15.9478 33.4729 16.0863ZM35.5766 12.2821C35.1986 12.3576 34.8207 12.4584 34.4428 12.5844C34.4806 12.7229 34.5436 12.8489 34.594 12.9749C34.7829 12.9119 34.9593 12.8489 35.1483 12.7859C35.3372 12.7355 35.5262 12.6852 35.7151 12.6348C35.8285 12.6096 35.8789 12.5088 35.8411 12.4206C35.8033 12.3324 35.6899 12.2695 35.5766 12.2821ZM36.0804 15.8974C36.0048 15.8344 35.8663 15.847 35.7781 15.9226C35.501 16.1871 35.2238 16.4768 34.9593 16.7791C35.0727 16.8673 35.186 16.9555 35.2994 17.0311C35.5514 16.7162 35.7907 16.439 36.0678 16.1619C36.156 16.0737 36.156 15.9603 36.0804 15.8974ZM34.7074 11.4507C34.7326 11.5892 34.7704 11.7278 34.7955 11.8664C34.9845 11.8286 35.186 11.7908 35.375 11.753C35.564 11.7278 35.7655 11.7026 35.9545 11.6774C36.0678 11.6648 36.1434 11.5766 36.1182 11.4759C36.093 11.3751 35.9923 11.2995 35.8789 11.2995C35.4884 11.3373 35.0979 11.3877 34.7074 11.4507ZM33.9138 17.346C33.9138 17.472 34.0145 17.5853 34.1279 17.5979C34.5436 17.6357 34.9215 17.6483 35.3246 17.6357C35.312 17.4972 35.3246 17.3586 35.3372 17.22C34.9467 17.22 34.5436 17.1948 34.1279 17.1445C34.0145 17.1193 33.9138 17.2074 33.9138 17.346ZM35.6899 9.54853C35.4632 9.22101 35.2742 8.88089 35.0727 8.52818C35.0097 8.4274 34.8837 8.38961 34.7829 8.4526C34.6822 8.51558 34.6444 8.66674 34.6948 8.76752C34.8963 9.12023 35.1231 9.46035 35.3498 9.77527L35.6899 9.54853ZM35.8285 9.42256C36.2316 9.44775 36.6095 9.48554 37 9.54853C37.1134 9.56112 37.2142 9.49814 37.2142 9.38477C37.2142 9.28399 37.1386 9.17062 37.0252 9.15802C36.6473 9.09504 36.2568 9.04465 35.8537 9.00686L35.8285 9.42256ZM36.4709 10.4429C36.5843 10.4429 36.6725 10.3673 36.6725 10.2665C36.6725 10.1658 36.5717 10.065 36.4583 10.0524C36.0804 10.0272 35.6773 10.002 35.2868 10.0146L35.312 10.4303C35.7025 10.4177 36.093 10.4177 36.4709 10.4429ZM35.4884 17.8121L35.8411 18.0262C36.0552 17.6861 36.2694 17.3586 36.4961 17.0563C36.5591 16.9681 36.5339 16.8547 36.4583 16.7917C36.3702 16.7414 36.2442 16.7665 36.1686 16.8547C35.9293 17.1697 35.7025 17.4846 35.4884 17.8121ZM35.9419 8.78011C36.0678 8.71713 36.1938 8.64155 36.3072 8.57856C36.1308 8.22585 35.9545 7.87314 35.7907 7.49523C35.7403 7.38186 35.6143 7.34407 35.501 7.39446C35.3876 7.45744 35.3372 7.58341 35.3876 7.69678C35.564 8.07469 35.7529 8.4274 35.9419 8.78011ZM34.72 18.8828C34.7326 18.9584 34.7704 19.0088 34.8333 19.0466C35.1105 18.908 35.375 18.7569 35.6395 18.5805C35.4002 18.6057 35.1609 18.6309 34.9215 18.6435C34.7955 18.6435 34.7074 18.7443 34.72 18.8828ZM34.7829 15.6076C34.9341 15.4817 35.0853 15.3557 35.2364 15.2423C35.3876 15.129 35.5514 15.0156 35.7151 14.9022C35.8159 14.8392 35.8285 14.7259 35.7655 14.6503C35.7025 14.5747 35.564 14.5621 35.4632 14.6125C35.1357 14.814 34.8207 15.0408 34.5058 15.2927C34.594 15.4061 34.6948 15.5069 34.7829 15.6076ZM33.2839 14.6377C33.6492 14.814 34.0397 14.9526 34.4176 15.0786L34.5562 14.6881C34.1909 14.5495 33.8256 14.3983 33.4603 14.2094C33.3469 14.159 33.2209 14.2094 33.1831 14.3228C33.1328 14.4361 33.1831 14.5873 33.2839 14.6377ZM35.0475 10.9342C34.7829 10.6445 34.531 10.3295 34.2791 10.002C34.2035 9.90124 34.0649 9.88864 33.9767 9.97682C33.8886 10.065 33.8634 10.2162 33.939 10.3043C34.0649 10.4681 34.1909 10.6193 34.3295 10.7704C34.468 10.9216 34.6066 11.0728 34.7452 11.2113C34.8333 11.1105 34.9341 11.0224 35.0475 10.9342ZM34.7074 12.0175C34.405 11.7656 34.1153 11.4884 33.8256 11.1987C33.75 11.1105 33.6114 11.1105 33.5233 11.2113C33.4351 11.3121 33.4477 11.4633 33.5359 11.5514C33.687 11.69 33.8256 11.8286 33.9767 11.9671C34.1279 12.1057 34.2917 12.2317 34.4428 12.345C34.531 12.2317 34.6066 12.1309 34.7074 12.0175ZM34.3673 14.1338L34.594 14.4865C34.9341 14.2724 35.2742 14.096 35.6143 13.9322C35.7151 13.8819 35.7655 13.7811 35.7025 13.6929C35.6521 13.6047 35.5262 13.5669 35.4128 13.6173C35.0601 13.7685 34.6948 13.9322 34.3673 14.1338ZM33.4855 12.8867C33.3847 12.8111 33.2587 12.8489 33.1831 12.9623C33.1202 13.0757 33.1454 13.2268 33.2461 13.2898C33.5988 13.5165 33.9516 13.7181 34.2917 13.8945L34.4932 13.5291C34.1531 13.3402 33.8256 13.126 33.4855 12.8867Z" fill="#ED232F"/>
<g id="Group_4">
<path id="Vector_21" d="M26.1919 7.69665C27.3886 9.00673 28.9506 11.2364 28.9254 13.8691C28.9002 15.5445 28.2452 17.1695 26.9729 18.7315C27.1996 18.8701 27.4264 18.9835 27.6531 19.0968C28.9884 17.4341 29.6686 15.6957 29.6812 13.8817C29.719 11.0096 28.094 8.64142 26.8217 7.24316C26.595 7.38173 26.3808 7.53289 26.1919 7.69665Z" fill="#003D6C"/>
<path id="Vector_22" d="M37.4913 7.69665C36.2946 9.00673 34.7326 11.2364 34.7578 13.8691C34.783 15.5445 35.438 17.1695 36.7103 18.7315C36.4836 18.8701 36.2568 18.9835 36.0301 19.0968C34.6948 17.4341 34.0146 15.6957 34.002 13.8817C33.9642 11.0096 35.5892 8.64142 36.8615 7.24316C37.0882 7.38173 37.2898 7.53289 37.4913 7.69665Z" fill="#003D6C"/>
</g>
</g>
<path id="Vector_23" d="M58.5784 32.3363C58.7422 31.7064 58.8177 31.3915 58.9815 30.7617C59.1705 30.812 59.2712 30.8372 59.4728 30.8876C59.8633 29.376 60.0648 28.6202 60.4553 27.1086C58.5784 26.6173 56.6889 26.1764 54.7867 25.7859C54.4718 27.3101 54.3207 28.0785 54.0057 29.6153C54.2073 29.6531 54.2955 29.6783 54.497 29.7161C54.4592 29.8799 54.434 30.0184 54.4088 30.1444C53.7664 29.9932 53.1239 29.8421 52.4815 29.7035C52.5067 29.5901 52.5319 29.4642 52.5571 29.3256C52.7586 29.3634 52.8468 29.376 53.0484 29.4264C53.3507 27.8896 53.5019 27.1337 53.8042 25.5969C51.902 25.219 49.9999 24.9041 48.0852 24.627H48.0726C45.7674 24.2994 43.4621 24.0475 41.1443 23.8711C41.0435 25.2442 40.9805 25.937 40.8798 27.3101C40.7916 27.4865 40.7412 27.5746 40.6404 27.7636C40.7034 26.9448 40.7286 26.5417 40.7916 25.7229C40.0358 24.9167 39.6453 24.5136 38.8643 23.72C37.1385 23.6192 35.4001 23.5688 33.6617 23.5436C32.9311 23.531 32.5784 23.531 31.8478 23.5436C29.5426 23.5562 27.2499 23.657 24.9447 23.8082C24.9573 23.8963 24.9573 23.9467 24.9573 24.0349C24.8439 23.9467 24.7935 23.9089 24.6801 23.8208C23.0929 23.9467 21.5057 24.0979 19.9185 24.2742C19.1753 25.1182 18.8226 25.5339 18.1172 26.3905C18.092 26.252 18.0416 25.9622 17.8526 24.5388C15.5474 24.8411 13.2422 25.2442 10.9621 25.6977C11.2393 27.0582 11.3652 27.7258 11.6424 29.0863C11.6046 29.2878 11.5794 29.3886 11.5416 29.5775C11.3778 28.7713 11.3022 28.3808 11.1385 27.5746C10.1937 27.0078 9.70244 26.718 8.73247 26.1638C6.42724 26.6677 4.1472 27.2597 1.87976 27.9148C2.32065 29.4138 2.5348 30.1696 2.96309 31.6686C3.15205 31.6182 3.25282 31.5805 3.44178 31.5301C3.66852 32.3363 3.78189 32.7394 4.02123 33.5456C3.83228 33.596 3.7315 33.6211 3.54255 33.6841C3.98344 35.1832 4.19759 35.939 4.62588 37.438L8.6443 39.4031C10.4079 38.9118 12.1714 38.4584 13.9602 38.0427C14.0232 37.9545 14.0484 37.9041 14.1114 37.8159C14.1239 37.8915 14.1365 37.9293 14.1491 38.0049C16.9457 37.4128 19.7296 36.9467 22.5639 36.594C22.5639 36.5562 22.5639 36.5436 22.5513 36.5058C22.5891 36.531 22.6143 36.5562 22.652 36.5814C23.8739 36.4303 25.1084 36.3169 26.3429 36.2287C26.4185 36.1405 26.4563 36.1027 26.5319 36.0146C26.5319 36.0901 26.5445 36.1279 26.5445 36.2161C28.3332 36.1027 30.1094 36.0398 31.8982 36.0146C32.465 36.0146 32.7422 36.0146 33.309 36.0146C34.6569 36.0398 35.9922 36.0775 37.34 36.1531C37.4156 36.0775 37.466 36.0398 37.5416 35.9768C37.5416 36.0523 37.529 36.0901 37.529 36.1657C39.8594 36.3295 42.1646 36.5562 44.4825 36.8586C45.0871 36.9467 45.3895 36.9845 45.9941 37.0853C47.2286 37.2868 48.4757 37.501 49.6976 37.7655C50.2896 37.8915 50.592 37.9545 51.184 38.0804C52.9098 38.4835 54.623 38.9244 56.3362 39.4031L60.5813 37.438C60.9844 36.0398 61.3875 34.6415 61.8032 33.2432C60.5183 32.8527 59.8759 32.6764 58.5784 32.3363ZM47.9718 28.8343C47.8836 28.8217 47.7955 28.8091 47.7199 28.7965C47.6947 28.7084 47.6695 28.6202 47.6443 28.5068C47.7955 28.532 47.871 28.5446 48.0222 28.5572C47.997 28.658 47.9844 28.7461 47.9718 28.8343Z" fill="#003D6C"/>
<g id="Group_5">
<path id="Vector_24" d="M10.685 31.1648C10.8739 32.0466 10.9747 32.5001 11.1637 33.3819C10.7606 33.9739 10.5716 34.2636 10.1811 34.8683C8.5813 35.2462 6.99409 35.6493 5.39428 36.0776C5.20533 35.41 5.11715 35.0698 4.9282 34.3896C5.11715 34.3392 5.20533 34.314 5.39428 34.2636C5.01638 32.9032 4.65107 31.5301 4.27316 30.1697C4.07161 30.22 3.98343 30.2452 3.78188 30.3082C3.59293 29.6406 3.50475 29.3005 3.3158 28.6202C5.01638 28.1416 6.74215 27.7133 8.46793 27.3228C9.11037 27.6881 9.42529 27.877 10.0677 28.2423C10.2315 29.0107 10.3197 29.4012 10.4834 30.1697C10.3071 30.409 10.2315 30.535 10.0551 30.7869C10.3071 30.9381 10.433 31.0136 10.685 31.1648ZM7.96405 29.4768C7.83808 29.4012 7.7751 29.3635 7.63653 29.3005C7.18304 29.4138 6.9689 29.4642 6.51541 29.5776C6.62878 30.0059 6.67917 30.2326 6.79254 30.6609C7.23343 30.5476 7.46018 30.4972 7.90107 30.3838C7.98925 30.2578 8.02704 30.1948 8.10262 30.0815C8.05223 29.8421 8.02704 29.7162 7.96405 29.4768ZM8.61909 32.2607C8.49312 32.1852 8.43014 32.16 8.30417 32.0844C7.86328 32.1852 7.64913 32.2481 7.20824 32.3489C7.3468 32.8906 7.40979 33.1551 7.54835 33.6968C7.97665 33.5834 8.1908 33.533 8.61909 33.4323C8.69467 33.3189 8.73246 33.2559 8.82064 33.1425C8.74506 32.7898 8.70727 32.6135 8.61909 32.2607Z" fill="white"/>
<path id="Vector_25" d="M16.8198 25.7605C16.9205 26.4533 16.9709 26.7934 17.0717 27.4863C16.9079 27.5115 16.8198 27.5241 16.656 27.5493C17.4622 28.8593 18.2558 30.1694 19.0368 31.5047C19.2258 31.4795 19.3265 31.4669 19.5155 31.4417C19.6037 32.1345 19.6541 32.4872 19.7422 33.1801C18.5329 33.3312 17.9283 33.4194 16.7316 33.6084C16.6182 32.9155 16.5678 32.5754 16.4544 31.8826C16.5552 31.87 16.6056 31.8574 16.719 31.8448C16.656 31.7188 16.6182 31.6558 16.5552 31.5173C15.7112 31.6558 15.2829 31.7188 14.4389 31.87C14.4137 32.0086 14.4012 32.0841 14.376 32.2353C14.4767 32.2227 14.5271 32.2101 14.6279 32.1849C14.7539 32.8777 14.8168 33.2179 14.9302 33.9107C13.7335 34.1248 13.1415 34.2382 11.9448 34.4901C11.8062 33.8099 11.7306 33.4698 11.592 32.777C11.781 32.7392 11.8818 32.714 12.0707 32.6762C12.373 31.1646 12.7006 29.6655 13.0407 28.1665C12.9021 28.1917 12.8265 28.2043 12.688 28.2295C12.562 27.5367 12.499 27.1965 12.3605 26.5163C13.8217 26.2266 15.3207 25.9746 16.8198 25.7605ZM14.7161 30.308C15.1318 30.2324 15.3333 30.2072 15.749 30.1316C15.4593 29.6781 15.3207 29.4514 15.031 29.0105C14.905 29.5396 14.842 29.7915 14.7161 30.308Z" fill="white"/>
<path id="Vector_26" d="M23.4457 29.779C22.4883 29.8672 22.0097 29.905 21.0649 30.0183C20.498 29.5901 20.2083 29.3759 19.6162 28.9476C19.5029 28.0406 19.4525 27.5871 19.3391 26.6802C19.8178 26.1259 20.0571 25.8362 20.5358 25.2819C22.0223 25.1182 22.7781 25.0426 24.2771 24.9292C24.8566 25.3827 25.1463 25.6094 25.7131 26.0755C25.7509 26.6802 25.7761 26.9825 25.8139 27.5871C24.9069 27.6501 24.4535 27.6753 23.5339 27.7635C23.5087 27.4612 23.4961 27.31 23.4709 27.0077C23.3575 26.9195 23.3071 26.8691 23.1938 26.7809C22.7025 26.8187 22.4631 26.8439 21.9719 26.8943C21.8711 27.0077 21.8207 27.0581 21.7325 27.1714C21.7703 27.4738 21.7829 27.6375 21.8081 27.9399C21.9215 28.028 21.9845 28.0658 22.0978 28.154C23.0678 28.0532 23.5465 28.0154 24.5164 27.9399C25.0833 28.3933 25.3604 28.6201 25.9147 29.0862C25.9777 29.9806 26.0029 30.434 26.0533 31.3284C25.5746 31.8575 25.3352 32.122 24.8692 32.6511C23.4835 32.7519 22.7907 32.8275 21.3924 32.9786C20.8381 32.5377 20.5484 32.3236 19.9816 31.8953C19.906 31.3032 19.8682 31.0135 19.7926 30.4214C20.6744 30.3081 21.1279 30.2577 22.0097 30.1695C22.0348 30.4592 22.06 30.5978 22.0852 30.8875C22.1986 30.9757 22.2616 31.0261 22.375 31.1143C22.8411 31.0639 23.0804 31.0513 23.5465 31.0009C23.6347 30.9001 23.685 30.8371 23.7732 30.7364C23.748 30.434 23.7354 30.2955 23.7102 29.9932C23.6095 29.9176 23.5591 29.8672 23.4457 29.779Z" fill="white"/>
<path id="Vector_27" d="M29.2403 30.6609C29.8072 30.6483 30.0843 30.6357 30.6512 30.6231C30.6512 30.4971 30.6512 30.4341 30.6512 30.3208C31.3818 30.3082 31.7471 30.3082 32.4651 30.3082C32.4651 31.127 32.4651 31.5427 32.4651 32.3614C30.5252 32.3614 28.5853 32.4244 26.6454 32.5378C26.6076 31.845 26.5824 31.4923 26.5446 30.7994C26.7336 30.7868 26.8343 30.7868 27.0233 30.7742C26.9477 29.3634 26.8721 27.9525 26.7965 26.5291C26.595 26.5417 26.4942 26.5417 26.2927 26.5543C26.2549 25.8614 26.2297 25.5087 26.1919 24.8159C28.283 24.7151 30.3615 24.6521 32.4526 24.627C32.4526 25.4458 32.4526 25.8489 32.4526 26.6677C31.6967 26.6677 31.3188 26.6677 30.563 26.6928C30.563 26.5795 30.563 26.5165 30.563 26.3905C29.971 26.4031 29.6812 26.4031 29.1018 26.4283C29.1144 26.9322 29.127 27.1715 29.1396 27.6754C29.2781 27.6754 29.3411 27.6628 29.4797 27.6628C29.4797 27.5494 29.4797 27.4864 29.4671 27.3605C30.2103 27.3353 30.5882 27.3353 31.3314 27.3227C31.344 28.2675 31.344 28.7335 31.3566 29.6783C30.626 29.6909 30.2607 29.6909 29.5301 29.7161C29.5301 29.5901 29.5301 29.5271 29.5175 29.4138C29.3789 29.4138 29.3159 29.4138 29.19 29.4264C29.2151 29.9051 29.2277 30.157 29.2403 30.6609Z" fill="white"/>
<path id="Vector_28" d="M39.3808 29.0736C39.3178 29.9805 39.2926 30.434 39.2296 31.341C38.6879 31.8071 38.4234 32.0338 37.8943 32.4999C36.2567 32.4243 34.6317 32.3865 32.9941 32.3614C32.9941 31.6685 32.9941 31.3158 33.0067 30.6104C33.1957 30.6104 33.2965 30.6104 33.4854 30.6104C33.498 29.1995 33.5106 27.7761 33.5232 26.3652C33.3217 26.3652 33.2209 26.3652 33.0193 26.3652C33.0193 25.6724 33.0193 25.3197 33.0319 24.6143C34.7955 24.6269 36.5465 24.6646 38.2974 24.7654C38.8139 25.2945 39.0658 25.559 39.5697 26.0881C39.5193 26.8817 39.4941 27.2722 39.4438 28.0532C39.217 28.2422 39.1036 28.3429 38.8643 28.5319C39.0784 28.746 39.1792 28.8468 39.3808 29.0736ZM37.2267 26.7053C37.1259 26.6046 37.0755 26.5542 36.9622 26.4408C36.5087 26.4282 36.2693 26.4156 35.8158 26.403C35.8032 26.8439 35.7907 27.0707 35.7781 27.5241C36.2315 27.5367 36.4583 27.5493 36.9118 27.5619C37.0251 27.4612 37.0755 27.4234 37.1889 27.3226C37.2141 27.0833 37.2267 26.9573 37.2267 26.7053ZM37.1133 29.5648C37.0125 29.4641 36.9622 29.4137 36.8614 29.3129C36.4205 29.3003 36.1938 29.2877 35.7529 29.2751C35.7403 29.8294 35.7277 30.1065 35.7151 30.6608C36.156 30.6734 36.3701 30.686 36.811 30.6986C36.9244 30.6104 36.9748 30.56 37.0881 30.4718C37.0881 30.1065 37.0881 29.9176 37.1133 29.5648Z" fill="white"/>
<path id="Vector_29" d="M46.7248 25.5339C46.6366 26.2267 46.5862 26.5794 46.498 27.2722C46.3343 27.247 46.2461 27.2344 46.0823 27.2218C46.5106 28.7083 46.9137 30.1821 47.3042 31.6685C47.4932 31.6937 47.594 31.7063 47.7829 31.7441C47.6821 32.437 47.6317 32.7771 47.531 33.4699C46.3217 33.2936 45.717 33.2054 44.5203 33.0668C44.6085 32.374 44.6463 32.0213 44.7219 31.3284C44.8226 31.341 44.873 31.341 44.9864 31.3536C44.9612 31.2151 44.936 31.1395 44.9108 31.0009C44.0542 30.9001 43.6385 30.8498 42.7819 30.7742C42.719 30.9001 42.6812 30.9757 42.6182 31.1017C42.719 31.1143 42.7693 31.1143 42.8827 31.1269C42.8071 31.8197 42.7819 32.1724 42.7064 32.8653C41.4971 32.7393 40.8924 32.6889 39.6831 32.6133C39.7335 31.9205 39.7587 31.5678 39.8091 30.8749C39.998 30.8875 40.0988 30.9001 40.2878 30.9127C40.9932 29.5397 41.7112 28.1792 42.4418 26.8313C42.3033 26.8187 42.2277 26.8061 42.0765 26.7935C42.1395 26.1007 42.1647 25.748 42.2277 25.0552C43.7267 25.1685 45.2383 25.3323 46.7248 25.5339ZM43.4748 29.3381C43.8905 29.3759 44.092 29.4011 44.5077 29.4515C44.3566 28.935 44.281 28.6831 44.1172 28.1792C43.8653 28.6453 43.7267 28.872 43.4748 29.3381Z" fill="white"/>
<path id="Vector_30" d="M51.5998 28.0533C51.3479 29.4515 51.0959 30.8372 50.844 32.2355C51.4109 32.3362 51.7006 32.3866 52.2675 32.5C52.3053 32.3236 52.3178 32.2229 52.3556 32.0465C53.0737 32.1851 53.4264 32.2607 54.1444 32.4118C53.9554 33.281 53.8673 33.7093 53.6783 34.5785C51.7636 34.1754 49.8363 33.8227 47.9089 33.5203C48.0097 32.8275 48.0727 32.4874 48.1735 31.7946C48.3624 31.8198 48.4632 31.845 48.6522 31.8701C48.8789 30.4719 49.093 29.0736 49.3198 27.6754C49.1182 27.6502 49.0175 27.625 48.8159 27.5998C48.9167 26.907 48.9797 26.5669 49.0804 25.874C50.4157 26.0756 51.0834 26.1889 52.406 26.4409C52.2801 27.1337 52.2171 27.4738 52.0911 28.1541C51.9022 28.1037 51.8014 28.0911 51.5998 28.0533Z" fill="white"/>
<path id="Vector_31" d="M58.1123 29.4389C57.7722 30.8119 57.4447 32.185 57.1046 33.5707C57.6714 33.7092 57.9485 33.7848 58.5154 33.9234C58.5658 33.747 58.591 33.6588 58.6288 33.4699C59.3342 33.6588 59.6869 33.747 60.3923 33.9486C60.153 34.8052 60.0396 35.2334 59.8003 36.0774C57.9108 35.5484 56.0086 35.0823 54.0813 34.6666C54.2325 33.9864 54.308 33.6462 54.4466 32.9534C54.6356 32.9912 54.7363 33.0164 54.9253 33.0542C55.2276 31.6685 55.5425 30.2955 55.8449 28.9098C55.6433 28.872 55.5425 28.8468 55.3536 28.7964C55.5047 28.1162 55.5803 27.7761 55.7189 27.0833C57.0416 27.373 57.6966 27.5241 59.0193 27.8517C58.8555 28.5319 58.7673 28.872 58.591 29.5522C58.4146 29.5145 58.3139 29.4893 58.1123 29.4389Z" fill="white"/>
</g>
</g>
</svg>
