<svg width="64" height="52" viewBox="0 0 64 52" fill="none" xmlns="http://www.w3.org/2000/svg">
<g id="logo">
<path id="Vector" fill-rule="evenodd" clip-rule="evenodd" d="M9.79057 47.5074C9.37303 49.1079 8.38274 50.6762 6.65373 51.0038C5.95249 51.1381 5.2459 51.0307 4.59284 50.7407C3.20642 50.123 1.81465 48.6245 1.31148 47.1851C1.03847 46.3956 1.00636 45.5523 1.30077 44.7628C1.97524 42.9528 3.90766 42.2922 5.6902 42.3083L6.99632 41.175L4.83908 39.4671L4.05219 39.596V26.1256L3.83272 25.9001L0 21.9094H11.9532C11.7337 20.4915 11.5999 19.0521 11.6159 17.6127L11.6213 17.0273C9.44262 15.4267 7.26932 13.8208 5.10137 12.1988C4.44831 11.71 3.7899 11.2213 3.14219 10.7271C2.94413 10.5768 2.38742 10.1847 2.2536 9.98058C2.0823 9.71741 1.91636 9.49183 1.76112 9.21254C1.48277 8.70767 1.28471 8.1652 1.17765 7.60125C0.824356 5.74291 1.54701 4.02421 2.70325 2.59554C3.8809 1.13464 5.43861 0.10879 7.34426 0.00674159C8.06691 -0.030855 9.01974 0.0873057 9.68886 0.39882L9.70492 0.404191L9.72098 0.414933C9.87621 0.495497 10.0529 0.645884 10.1867 0.753303C10.4543 0.96814 10.7166 1.18298 10.9789 1.40319C11.8836 2.15512 12.7775 2.91242 13.6715 3.6751C16.5139 6.09202 19.3402 8.53043 22.172 10.9688C23.1944 10.6627 24.2329 10.4049 25.2767 10.1954C27.2787 8.87954 29.6072 8.18669 32 8.18669C34.3981 8.18669 36.7213 8.87954 38.7233 10.1954C39.7671 10.4049 40.8056 10.6627 41.828 10.9688C44.6544 8.53043 47.4861 6.09739 50.3285 3.6751C51.2225 2.91242 52.1164 2.15512 53.0211 1.40319C53.2834 1.18298 53.5457 0.96814 53.8133 0.753303C53.9471 0.645884 54.1291 0.495497 54.279 0.414933L54.2951 0.404191L54.3111 0.39882C54.9803 0.0873057 55.9331 -0.030855 56.6557 0.00674159C58.5614 0.103419 60.1191 1.13464 61.2968 2.59554C62.4476 4.02421 63.1703 5.74291 62.8223 7.60125C62.7153 8.1652 62.5119 8.70767 62.2389 9.21254C62.0836 9.49183 61.923 9.71741 61.7464 9.98058C61.6126 10.1847 61.0559 10.5768 60.8578 10.7271C60.2101 11.2213 59.557 11.71 58.8986 12.1988C56.7307 13.8154 54.5574 15.4213 52.3787 17.0273L52.3841 17.6127C52.4001 19.0467 52.2663 20.4861 52.0468 21.9094H64L60.1673 25.9001L59.9478 26.1256V39.7463L59.2573 39.6336L57.373 41.4973L58.3098 42.3137C60.0923 42.2975 62.0248 42.9582 62.6992 44.7682C62.9936 45.5577 62.9615 46.4009 62.6885 47.1905C62.1853 48.6245 60.7936 50.1284 59.4072 50.746C58.7541 51.0361 58.0475 51.1435 57.3463 51.0092C55.6173 50.6816 54.627 49.1079 54.2094 47.5127C53.7437 47.2334 53.2887 46.9327 52.8337 46.6319C52.0308 46.1055 51.2385 45.5631 50.4463 45.0206C48.5781 43.7423 46.726 42.4372 44.8792 41.132V42.3083L44.1405 42.8346L43.6373 43.1945L43.0539 43.6134L42.3419 43.5006C41.9083 43.4308 41.4694 43.3664 41.0358 43.3073C38.6751 45.461 36.0147 47.2496 33.1509 48.6621L32 49.2314L30.8491 48.6621C28.0067 47.2603 25.3623 45.4879 23.0124 43.3556C22.825 43.3825 22.6377 43.4093 22.4557 43.4416L20.4215 43.7584V40.7131C20.3305 40.6057 20.2395 40.5037 20.1485 40.3962C18.0127 41.9108 15.8769 43.4147 13.7196 44.8971C12.8953 45.4664 12.0602 46.0303 11.2252 46.5836C10.7541 46.9004 10.2777 47.212 9.79057 47.5074Z" fill="white"/>
<path id="Vector_2" fill-rule="evenodd" clip-rule="evenodd" d="M12.3011 16.6082L12.2904 17.618C12.2689 19.5945 12.542 21.6032 12.9327 23.5314C13.3288 25.5079 13.8641 27.4683 14.5547 29.3642C17.5791 37.6784 23.2104 44.1343 31.1435 48.0497L32 48.4686L32.8564 48.0497C40.7895 44.1343 46.4208 37.6784 49.4453 29.3642C50.1358 27.4683 50.6711 25.5079 51.0672 23.5314C51.458 21.5978 51.7256 19.5891 51.7096 17.618L51.6989 16.6082L50.8691 16.0389C39.6065 8.27252 24.3934 8.27252 13.1308 16.0389L12.3011 16.6082Z" fill="#081329"/>
<path id="Vector_3" fill-rule="evenodd" clip-rule="evenodd" d="M14.5708 17.8221C14.5708 19.5837 14.8224 21.3615 15.1703 23.0802C15.545 24.9493 16.0482 26.7915 16.7013 28.5801C19.5009 36.2874 24.6772 42.2598 32 45.9228C39.3229 42.2652 44.4992 36.2874 47.3042 28.5854C47.9572 26.7969 48.4604 24.9493 48.8351 23.0856C49.183 21.3669 49.4346 19.5837 49.4346 17.8274C39.0071 10.727 24.993 10.727 14.5708 17.8221Z" fill="#C10F18"/>
<path id="Vector_4" fill-rule="evenodd" clip-rule="evenodd" d="M54.5948 1.01647C54.5948 1.01647 57.919 -0.519616 60.7721 3.01984C63.6253 6.55929 61.4787 9.15882 61.1843 9.59924C60.8899 10.0397 15.4325 43.4093 9.2017 47.0669C8.59681 49.833 6.70186 50.9286 4.87115 50.1176C3.66138 49.5805 2.39273 48.2217 1.95379 46.9595C1.21508 44.8434 2.77814 42.84 5.93639 42.9958C5.93639 42.9958 53.4814 1.60728 54.5948 1.01647Z" fill="#081329"/>
<path id="Vector_5" fill-rule="evenodd" clip-rule="evenodd" d="M55.1784 2.74048C55.1784 2.74048 55.0071 7.89121 60.0228 8.91706C60.0228 8.91706 58.4811 9.94828 56.4042 8.22958C56.4042 8.22958 56.9181 9.51861 57.63 9.91606C57.63 9.91606 54.9643 9.003 54.0114 6.52699C54.0114 6.52699 54.1667 7.64415 54.5253 8.20273C54.5253 8.20273 11.4072 43.3287 7.41391 45.3589C7.41391 45.3589 6.75014 45.5899 6.38079 45.4019C6.38079 45.4019 7.6762 46.3901 7.45138 47.1904C7.2212 47.9907 6.25231 48.3183 6.02749 48.2753C5.79731 48.2324 4.07366 46.5996 4.35737 45.0581C4.35737 45.0581 4.6839 45.9605 5.62602 46.605C5.62602 46.605 4.38413 44.2042 5.43866 43.7315C5.43866 43.7315 5.39584 44.3331 5.95255 44.7627C5.95255 44.7627 52.9408 3.71799 55.1784 2.74048Z" fill="#BEC1C6"/>
<path id="Vector_6" fill-rule="evenodd" clip-rule="evenodd" d="M55.4674 8.60033L24.265 33.4087L56.4845 9.35226L55.9117 8.18677L55.4674 8.60033Z" fill="#BEC1C6"/>
<path id="Vector_7" fill-rule="evenodd" clip-rule="evenodd" d="M6.38067 45.4072C6.38067 45.4072 7.55297 48.3774 5.13343 47.4214C4.65702 46.7983 4.20201 45.9175 4.35725 45.0635C4.35725 45.0635 4.68378 45.9658 5.6259 46.6103C5.6259 46.6103 4.38402 44.2095 5.43855 43.7369C5.43855 43.7369 5.39572 44.3384 5.95243 44.7681C5.95243 44.7681 52.9407 3.72336 55.1783 2.75122C55.1783 2.75122 55.1568 3.4011 55.3549 4.28194C55.3549 4.27657 7.10332 44.0215 6.38067 45.4072Z" fill="white"/>
<path id="Vector_8" fill-rule="evenodd" clip-rule="evenodd" d="M9.40512 1.01647C9.40512 1.01647 6.08093 -0.519616 3.23316 3.01984C0.38003 6.55929 2.52657 9.15882 2.82098 9.59924C3.11539 10.0397 48.5727 43.4093 54.8036 47.0669C55.4085 49.833 57.3034 50.9286 59.1341 50.1176C60.3439 49.5805 61.6125 48.2217 62.0515 46.9595C62.7902 44.8434 61.2271 42.84 58.0689 42.9958C58.0689 42.9958 10.5239 1.60728 9.40512 1.01647Z" fill="#081329"/>
<path id="Vector_9" fill-rule="evenodd" clip-rule="evenodd" d="M8.82172 2.74048C8.82172 2.74048 8.99302 7.89121 3.97729 8.91706C3.97729 8.91706 5.51895 9.94828 7.5959 8.22958C7.5959 8.22958 7.08201 9.51861 6.37007 9.91606C6.37007 9.91606 9.03584 9.003 9.98867 6.52699C9.98867 6.52699 9.83343 7.64415 9.47479 8.20273C9.47479 8.20273 52.5929 43.3287 56.5862 45.3589C56.5862 45.3589 57.25 45.5899 57.6193 45.4019C57.6193 45.4019 56.3239 46.3901 56.5487 47.1904C56.7789 47.9907 57.7478 48.3183 57.9726 48.2753C58.2028 48.2324 59.9264 46.5996 59.6427 45.0581C59.6427 45.0581 59.3162 45.9605 58.3741 46.605C58.3741 46.605 59.616 44.2042 58.5614 43.7315C58.5614 43.7315 58.6043 44.3331 58.0476 44.7627C58.0476 44.7627 11.0593 3.71799 8.82172 2.74048Z" fill="#BEC1C6"/>
<path id="Vector_10" fill-rule="evenodd" clip-rule="evenodd" d="M8.53258 8.60033L39.735 33.4087L7.52087 9.35226L8.09364 8.18677L8.53258 8.60033Z" fill="#BEC1C6"/>
<path id="Vector_11" fill-rule="evenodd" clip-rule="evenodd" d="M57.6193 45.4072C57.6193 45.4072 56.447 48.3774 58.8665 47.4214C59.3429 46.7983 59.7979 45.9175 59.6427 45.0635C59.6427 45.0635 59.3161 45.9658 58.374 46.6103C58.374 46.6103 59.6159 44.2095 58.5614 43.7369C58.5614 43.7369 58.6042 44.3384 58.0475 44.7681C58.0475 44.7681 11.0592 3.72336 8.82167 2.75122C8.82167 2.75122 8.84308 3.4011 8.64502 4.28194C8.65037 4.27657 56.8966 44.0215 57.6193 45.4072Z" fill="white"/>
<path id="Vector_12" fill-rule="evenodd" clip-rule="evenodd" d="M32.0001 9.54565C38.0382 9.54565 42.9362 14.4601 42.9362 20.5185C42.9362 26.5769 38.0382 31.4913 32.0001 31.4913C25.9619 31.4913 21.064 26.5769 21.064 20.5185C21.064 14.4601 25.9619 9.54565 32.0001 9.54565Z" fill="#BEC1C6"/>
<path id="Vector_13" fill-rule="evenodd" clip-rule="evenodd" d="M32 9.54565C35.3777 9.54565 38.3967 11.0817 40.3988 13.4933C40.3988 13.5524 40.3988 13.6168 40.3988 13.6759C40.3988 18.9072 36.6356 23.1449 31.9946 23.1449C27.3536 23.1449 23.5905 18.9072 23.5905 13.6759C23.5905 13.6168 23.5905 13.5524 23.5905 13.4933C25.6085 11.0817 28.6222 9.54565 32 9.54565Z" fill="white"/>
<path id="Vector_14" fill-rule="evenodd" clip-rule="evenodd" d="M39.2533 13.2408C37.3959 11.3771 34.8318 10.2277 32.0001 10.2277C29.1684 10.2277 26.6043 11.3771 24.7468 13.2408C22.8893 15.1046 21.7438 17.6772 21.7438 20.5185C21.7438 23.3597 22.8893 25.9324 24.7468 27.7961C26.6043 29.6598 29.1684 30.8092 32.0001 30.8092C34.8318 30.8092 37.3959 29.6598 39.2533 27.7961C41.1108 25.9378 42.2564 23.3651 42.2564 20.5185C42.2564 17.6772 41.1108 15.1046 39.2533 13.2408ZM32.0001 8.8689C35.2065 8.8689 38.1132 10.174 40.2115 12.2848C42.3152 14.3956 43.6107 17.3066 43.6107 20.5238C43.6107 23.741 42.3099 26.6575 40.2115 28.7629C38.1132 30.8683 35.2065 32.1734 32.0001 32.1734C28.7937 32.1734 25.887 30.8683 23.7886 28.7629C21.6849 26.6521 20.3842 23.741 20.3842 20.5238C20.3842 17.3066 21.6849 14.3902 23.7886 12.2848C25.8924 10.174 28.7937 8.8689 32.0001 8.8689Z" fill="#081329"/>
<path id="Vector_15" fill-rule="evenodd" clip-rule="evenodd" d="M38.6805 11.7584C38.7983 11.6134 39.0124 11.5973 39.157 11.7154C39.3015 11.8336 39.3176 12.0484 39.1998 12.1934C39.1784 12.2149 32.2088 20.4163 39.3604 28.6715C39.4835 28.8111 39.4674 29.026 39.3283 29.1495C39.1891 29.273 38.975 29.2569 38.8518 29.1173C31.3202 20.4217 38.6645 11.7852 38.6805 11.7584Z" fill="#081329"/>
<path id="Vector_16" fill-rule="evenodd" clip-rule="evenodd" d="M37.0371 12.1022C36.9461 11.941 37.005 11.7316 37.1709 11.6403C37.3315 11.549 37.5403 11.6081 37.6313 11.7746L38.2576 12.9024L39.2372 12.9078C39.4245 12.9078 39.5744 13.0636 39.5744 13.2462C39.5744 13.4342 39.4245 13.5846 39.2372 13.5846L38.0702 13.5738C37.9471 13.5792 37.824 13.5147 37.7651 13.4019L37.0371 12.1022Z" fill="#081329"/>
<path id="Vector_17" fill-rule="evenodd" clip-rule="evenodd" d="M36.4055 13.2084C36.3145 13.0419 36.3734 12.8378 36.5393 12.7465C36.6999 12.6552 36.9087 12.7143 36.9997 12.8808L37.626 14.0086L38.6056 14.014C38.7929 14.014 38.9428 14.1698 38.9428 14.3524C38.9428 14.5404 38.7876 14.6908 38.6056 14.6908L37.4386 14.68C37.3155 14.6854 37.1924 14.6209 37.1335 14.5081L36.4055 13.2084Z" fill="#081329"/>
<path id="Vector_18" fill-rule="evenodd" clip-rule="evenodd" d="M35.8702 14.3471C35.7792 14.1859 35.8381 13.9765 36.0041 13.8851C36.17 13.7938 36.3734 13.8529 36.4644 14.0194L37.0907 15.1473L38.0703 15.1527C38.2577 15.1527 38.4075 15.3084 38.4075 15.4911C38.4075 15.679 38.2523 15.8294 38.0703 15.8294L36.9034 15.8187C36.7802 15.8241 36.6571 15.7596 36.5982 15.6468L35.8702 14.3471Z" fill="#081329"/>
<path id="Vector_19" fill-rule="evenodd" clip-rule="evenodd" d="M35.4526 15.4642C35.3616 15.3031 35.4205 15.0936 35.5865 15.0023C35.747 14.911 35.9558 14.9701 36.0468 15.1366L36.6731 16.2645L37.6527 16.2699C37.8401 16.2699 37.9899 16.4256 37.9899 16.6083C37.9899 16.7962 37.8347 16.9466 37.6527 16.9466L36.4858 16.9359C36.3626 16.9412 36.2395 16.8768 36.1806 16.764L35.4526 15.4642Z" fill="#081329"/>
<path id="Vector_20" fill-rule="evenodd" clip-rule="evenodd" d="M35.11 16.6835C35.019 16.5223 35.0779 16.3129 35.2385 16.2216C35.4044 16.1303 35.6079 16.1893 35.6989 16.3558L36.3252 17.4837L37.3047 17.4891C37.4921 17.4891 37.642 17.6449 37.642 17.8275C37.642 18.0155 37.4867 18.1659 37.3047 18.1659L36.1378 18.1551C36.0147 18.1605 35.8916 18.096 35.8327 17.9832L35.11 16.6835Z" fill="#081329"/>
<path id="Vector_21" fill-rule="evenodd" clip-rule="evenodd" d="M34.7568 18.2464C34.639 18.1014 34.6551 17.8866 34.7996 17.7684C34.9441 17.6502 35.1582 17.6663 35.276 17.8114L36.0522 18.7405L37.005 18.5042C37.187 18.4612 37.369 18.5687 37.4172 18.7513C37.46 18.9339 37.353 19.1165 37.171 19.1648L36.0254 19.4495C35.9023 19.4871 35.7631 19.4495 35.6721 19.3421L34.7568 18.2464Z" fill="#081329"/>
<path id="Vector_22" fill-rule="evenodd" clip-rule="evenodd" d="M34.5962 19.7235C34.4731 19.5785 34.4891 19.369 34.6337 19.2455C34.7782 19.122 34.987 19.1381 35.1101 19.2831L35.8916 20.1962L36.8391 19.9384C37.0211 19.89 37.2031 19.9974 37.2566 20.1801C37.3048 20.3627 37.1977 20.5453 37.0157 20.5936L35.8595 20.9051C35.7364 20.9374 35.6025 20.8998 35.5169 20.7977L34.5962 19.7235Z" fill="#081329"/>
<path id="Vector_23" fill-rule="evenodd" clip-rule="evenodd" d="M34.6497 21.5335C34.5052 21.4154 34.4837 21.2005 34.6015 21.0555C34.7193 20.9105 34.9334 20.889 35.0779 21.0072L35.9612 21.7215L36.8605 21.2596C37.0264 21.1737 37.2298 21.2381 37.3155 21.4046C37.4011 21.5711 37.3369 21.7752 37.1709 21.8611L36.0896 22.4143C35.9719 22.4788 35.822 22.4734 35.7096 22.3821L34.6497 21.5335Z" fill="#081329"/>
<path id="Vector_24" fill-rule="evenodd" clip-rule="evenodd" d="M34.8799 23.3112C34.714 23.2253 34.6551 23.0158 34.7408 22.8547C34.8264 22.6882 35.0352 22.6291 35.1958 22.715L36.1539 23.2253L36.9837 22.5754C37.1282 22.4626 37.3423 22.4841 37.4601 22.6344C37.5725 22.7795 37.5511 22.9943 37.4012 23.1125L36.3948 23.902C36.2931 23.9826 36.1486 23.9987 36.0255 23.9342L34.8799 23.3112Z" fill="#081329"/>
<path id="Vector_25" d="M35.3831 25.0731C35.2011 25.0301 35.0887 24.8475 35.1315 24.6649C35.1744 24.4823 35.3564 24.3695 35.5384 24.4124L36.5554 24.6595L37.2781 23.784C37.3958 23.639 37.61 23.6175 37.7545 23.7411C37.899 23.8592 37.9204 24.0741 37.7973 24.2191L36.9408 25.2557C36.8605 25.3524 36.7321 25.4007 36.5982 25.3685L35.3831 25.0731Z" fill="#01152A"/>
<path id="Vector_26" d="M35.9505 26.3189C35.7631 26.2974 35.6293 26.1309 35.6507 25.9429C35.6721 25.7549 35.838 25.6206 36.0254 25.6421L37.0639 25.7603L37.7169 24.7881C37.824 24.6324 38.0328 24.5894 38.188 24.6968C38.3432 24.8043 38.386 25.0137 38.279 25.1695L37.5082 26.3135C37.4386 26.4155 37.3208 26.4746 37.1923 26.4639L35.9505 26.3189Z" fill="#01152A"/>
<path id="Vector_27" d="M36.7374 27.6993C36.55 27.7047 36.3948 27.5543 36.3894 27.3663C36.3841 27.1784 36.534 27.0226 36.7213 27.0172L37.7705 26.9904L38.3486 25.9216C38.4396 25.7551 38.643 25.696 38.809 25.7819C38.9749 25.8732 39.0338 26.0773 38.9481 26.2438L38.2737 27.4845C38.2201 27.5865 38.1077 27.6617 37.9846 27.6617L36.7374 27.6993Z" fill="#01152A"/>
<path id="Vector_28" d="M37.4546 28.6821C37.2673 28.709 37.1013 28.5747 37.0746 28.3921C37.0478 28.2041 37.1816 28.0376 37.3636 28.0107L38.4128 27.8711L38.9214 26.7325C38.9963 26.5606 39.1997 26.4854 39.371 26.5606C39.5423 26.6358 39.6172 26.8399 39.5423 27.0118L38.9535 28.3223C38.9053 28.4243 38.8089 28.5049 38.6912 28.521L37.4546 28.6821Z" fill="#01152A"/>
<path id="Vector_29" fill-rule="evenodd" clip-rule="evenodd" d="M25.3462 12.1988C25.2231 12.0591 25.2338 11.8443 25.373 11.7208C25.5121 11.5972 25.7263 11.608 25.8494 11.7476C25.8708 11.7745 33.7771 20.4217 25.6674 29.1226C25.5389 29.2623 25.3248 29.2676 25.191 29.1387C25.0518 29.0098 25.0464 28.795 25.1749 28.6607C32.8564 20.4163 25.3676 12.2256 25.3462 12.1988Z" fill="#081329"/>
<path id="Vector_30" fill-rule="evenodd" clip-rule="evenodd" d="M27.0431 11.7583C27.1395 11.5972 27.3482 11.5435 27.5088 11.6402C27.6694 11.7369 27.7229 11.9463 27.6266 12.1075L26.8504 13.4072C26.7862 13.5146 26.6684 13.5737 26.5506 13.5737L25.2981 13.5845C25.1107 13.5845 24.9608 13.4341 24.9608 13.2461C24.9608 13.0581 25.1107 12.9077 25.2981 12.9077L26.374 12.9024L27.0431 11.7583Z" fill="#081329"/>
<path id="Vector_31" fill-rule="evenodd" clip-rule="evenodd" d="M27.7177 12.8648C27.814 12.7037 28.0228 12.65 28.1834 12.7466C28.344 12.8433 28.3975 13.0528 28.3012 13.2139L27.525 14.5137C27.4607 14.6211 27.343 14.6802 27.2252 14.6802L25.9726 14.6909C25.7853 14.6909 25.6354 14.5405 25.6354 14.3525C25.6354 14.1646 25.7853 14.0142 25.9726 14.0142L27.0486 14.0088L27.7177 12.8648Z" fill="#081329"/>
<path id="Vector_32" fill-rule="evenodd" clip-rule="evenodd" d="M28.2957 14.0088C28.392 13.8477 28.6008 13.794 28.7614 13.8907C28.922 13.9874 28.9755 14.1968 28.8792 14.3579L28.103 15.6577C28.0387 15.7651 27.921 15.8242 27.8032 15.8242L26.5506 15.835C26.3633 15.835 26.2134 15.6846 26.2134 15.4966C26.2134 15.3086 26.3633 15.1582 26.5506 15.1582L27.6266 15.1528L28.2957 14.0088Z" fill="#081329"/>
<path id="Vector_33" fill-rule="evenodd" clip-rule="evenodd" d="M28.7454 15.126C28.8417 14.9649 29.0505 14.9112 29.2111 15.0079C29.3717 15.1045 29.4252 15.314 29.3289 15.4751L28.5527 16.7749C28.4884 16.8823 28.3707 16.9414 28.2529 16.9414L27.0003 16.9521C26.813 16.9521 26.6631 16.8018 26.6631 16.6138C26.6631 16.4258 26.813 16.2754 27.0003 16.2754L28.0763 16.27L28.7454 15.126Z" fill="#081329"/>
<path id="Vector_34" fill-rule="evenodd" clip-rule="evenodd" d="M29.1094 16.345C29.2058 16.1839 29.4145 16.1302 29.5751 16.2269C29.7357 16.3235 29.7892 16.533 29.6929 16.6941L28.9167 17.9939C28.8525 18.1013 28.7347 18.1604 28.6169 18.1604L27.3643 18.1711C27.177 18.1711 27.0271 18.0208 27.0271 17.8328C27.0271 17.6448 27.177 17.4944 27.3643 17.4944L28.4403 17.489L29.1094 16.345Z" fill="#081329"/>
<path id="Vector_35" fill-rule="evenodd" clip-rule="evenodd" d="M29.5697 17.8006C29.6928 17.661 29.9069 17.6502 30.0461 17.7738C30.1853 17.8973 30.196 18.1121 30.0729 18.2518L29.0933 19.3421C29.0023 19.4387 28.8738 19.4763 28.7507 19.4441L27.5195 19.1595C27.3375 19.1165 27.2251 18.9339 27.2626 18.7513C27.3054 18.5687 27.4874 18.4559 27.6694 18.4935L28.7186 18.7405L29.5697 17.8006Z" fill="#081329"/>
<path id="Vector_36" fill-rule="evenodd" clip-rule="evenodd" d="M29.7464 19.2723C29.8748 19.1326 30.089 19.1272 30.2228 19.2561C30.362 19.385 30.3673 19.5999 30.2389 19.7342L29.2486 20.8083C29.1629 20.8996 29.0344 20.9372 28.922 20.905L27.6801 20.5935C27.4981 20.5505 27.3857 20.3626 27.4339 20.1799C27.4767 19.9973 27.6641 19.8845 27.8461 19.9329L28.8953 20.1961L29.7464 19.2723Z" fill="#081329"/>
<path id="Vector_37" fill-rule="evenodd" clip-rule="evenodd" d="M29.7839 20.9964C29.9337 20.8836 30.1425 20.9159 30.2549 21.0662C30.3673 21.2166 30.3352 21.4261 30.1853 21.5389L29.0559 22.3929C28.9542 22.4734 28.8203 22.4788 28.7079 22.4305L27.5303 21.8719C27.359 21.7913 27.2894 21.5872 27.3697 21.4207C27.45 21.2489 27.6534 21.179 27.8193 21.2596L28.815 21.7322L29.7839 20.9964Z" fill="#081329"/>
<path id="Vector_38" fill-rule="evenodd" clip-rule="evenodd" d="M29.6501 22.7096C29.8161 22.6291 30.0195 22.6935 30.1051 22.8654C30.1854 23.0319 30.1212 23.236 29.9499 23.3219L28.7133 23.9396C28.5956 23.9986 28.4618 23.9825 28.3654 23.9073L27.2841 23.1178C27.1342 23.0104 27.0967 22.7956 27.2092 22.6452C27.3162 22.4948 27.5303 22.4572 27.6802 22.57L28.5956 23.236L29.6501 22.7096Z" fill="#081329"/>
<path id="Vector_39" d="M29.2647 24.4124C29.4467 24.3694 29.6287 24.4876 29.6715 24.6702C29.7143 24.8528 29.5966 25.0354 29.4146 25.0784L28.0977 25.3738C27.9693 25.4007 27.8408 25.3523 27.7605 25.261L26.8505 24.2298C26.7274 24.0902 26.7381 23.8753 26.8773 23.7518C27.0164 23.6283 27.2306 23.639 27.3537 23.7786L28.1406 24.6648L29.2647 24.4124Z" fill="#01152A"/>
<path id="Vector_40" d="M28.7401 25.6477C28.9274 25.6262 29.0934 25.7659 29.1094 25.9485C29.1255 26.1365 28.9917 26.303 28.8097 26.3191L27.4714 26.4587C27.3483 26.4695 27.2305 26.4157 27.161 26.3191L26.3366 25.1804C26.2295 25.03 26.2617 24.8152 26.4115 24.7078C26.5614 24.6004 26.7755 24.6326 26.8826 24.783L27.5945 25.7659L28.7401 25.6477Z" fill="#01152A"/>
<path id="Vector_41" d="M27.9853 27.0172C28.1726 27.0225 28.3172 27.1783 28.3172 27.3663C28.3118 27.5543 28.1566 27.6993 27.9692 27.6993L26.631 27.6671C26.5079 27.6617 26.4062 27.5972 26.3473 27.4952L25.63 26.2545C25.5336 26.0934 25.5925 25.8839 25.7531 25.7926C25.9137 25.6959 26.1224 25.755 26.2134 25.9161L26.8397 26.9957L27.9853 27.0172Z" fill="#01152A"/>
<path id="Vector_42" d="M27.2841 28.0054C27.4714 28.0269 27.5999 28.1987 27.5785 28.3867C27.5571 28.5747 27.3858 28.7036 27.1984 28.6821L25.8655 28.5156C25.7371 28.4995 25.6354 28.4189 25.5925 28.3061L24.9716 27.0171C24.8913 26.8506 24.9609 26.6465 25.1268 26.566C25.2928 26.4854 25.4962 26.5552 25.5765 26.7217L26.1278 27.8604L27.2841 28.0054Z" fill="#01152A"/>
<path id="Vector_43" fill-rule="evenodd" clip-rule="evenodd" d="M48.2195 22.5862H51.3296C51.9238 22.5862 52.5233 22.5862 53.1175 22.5862C53.5296 22.5862 53.9418 22.5862 54.3594 22.5862H56.0295C56.8485 22.5862 57.6675 22.5862 58.4865 22.5862H62.4156L59.6909 25.4274C59.6481 25.4757 59.5999 25.5187 59.5571 25.5671L59.2841 25.8517V26.2492C59.2841 26.8185 59.2841 27.3878 59.2841 27.9571V31.5879C59.2841 32.4848 59.2841 33.3818 59.2841 34.2787C59.2841 34.8104 59.2841 35.3422 59.2841 35.8739V38.9461L59.0378 38.9031L57.1322 40.7883L56.9288 40.7346C53.1549 39.7678 49.3222 39.032 45.4574 38.5379C32.6745 36.9159 19.9826 38.0276 7.38712 40.4553L7.22118 40.4875L5.02646 38.7527L4.7267 38.8011V36.8353C4.7267 34.891 4.7267 32.9467 4.7267 31.0024C4.7267 29.418 4.7267 27.8336 4.7267 26.2492V25.8517L4.4537 25.5671C4.41087 25.5187 4.3627 25.4757 4.31987 25.4274L1.59521 22.5862H5.52429C7.31218 22.5862 9.10007 22.5862 10.888 22.5862H12.0656C13.8535 22.5862 15.6414 22.5862 17.4293 22.5862H18.6069C20.5822 22.5862 22.5521 22.5862 24.5273 22.5862H25.1536C27.1556 22.5862 29.1576 22.5862 31.1596 22.5862H31.6949C33.4828 22.5862 35.276 22.5862 37.0639 22.5862H38.2416C40.0295 22.5862 41.8174 22.5862 43.6053 22.5862H44.7829C45.7893 22.5862 46.801 22.5862 47.8073 22.5862H48.2195Z" fill="#081329"/>
<path id="Vector_44" d="M51.3296 24.262C52.3359 24.262 53.3476 24.262 54.354 24.262C54.354 25.9484 54.354 27.6349 54.354 29.3214C54.354 31.0079 54.354 32.689 54.354 34.3754C54.718 34.4238 55.082 34.4775 55.4514 34.5258C55.4514 34.1767 55.4514 33.8276 55.4514 33.4785C56.2329 32.7856 56.9448 32.1519 57.6032 31.5879C57.6032 32.4849 57.6032 33.3818 57.6032 34.2788C57.6032 35.1757 57.6032 36.0727 57.6032 36.9696C55.7993 36.6742 54.0061 36.3842 52.2075 36.1264C52.2075 34.2895 52.2075 32.4526 52.2075 30.6212C52.2075 28.7843 52.2075 26.9474 52.2075 25.1106C51.9131 24.8313 51.6186 24.5466 51.3296 24.262ZM44.7829 24.262C45.7893 24.262 46.801 24.262 47.8073 24.262C47.8073 25.8303 47.8073 27.3986 47.8073 28.9615C47.8073 30.5299 47.8073 32.0928 47.8073 33.6611C48.1713 33.6987 48.5353 33.7309 48.9047 33.7685C48.9047 33.4463 48.9047 33.124 48.9047 32.7964C49.6862 32.1358 50.4035 31.5342 51.0566 31.0025C51.0566 31.8296 51.0566 32.6567 51.0566 33.4839C51.0566 34.311 51.0566 35.1381 51.0566 35.9599C49.2526 35.745 47.4594 35.5356 45.6608 35.3637C45.6608 33.645 45.6608 31.9263 45.6608 30.213C45.6608 28.4943 45.6608 26.7756 45.6608 25.0569C45.3664 24.7937 45.072 24.5251 44.7829 24.262ZM41.266 26.0881C41.266 26.7595 41.266 27.4308 41.266 28.1022C41.266 28.1183 41.63 28.4406 42.3634 29.069C42.3634 28.5748 42.3634 28.0807 42.3634 27.5866C42.3634 27.0924 42.3634 26.5983 42.3634 26.1042C41.994 26.0935 41.63 26.0881 41.266 26.0881ZM38.2416 24.262C40.0295 24.262 41.812 24.262 43.6053 24.262C43.632 24.262 43.9318 24.5251 44.5153 25.0515C44.5153 26.7541 44.5153 28.4567 44.5153 30.1593C44.5153 31.8618 44.5153 33.5591 44.5153 35.2617C43.798 35.2079 43.0753 35.1542 42.3634 35.1005C42.3634 34.456 42.3634 33.8169 42.3634 33.1724C42.3634 32.5278 42.3634 31.8833 42.3634 31.2388C42.3634 31.2173 41.9994 30.8897 41.266 30.2559C41.266 31.0508 41.266 31.8457 41.266 32.6353C41.266 33.4302 41.266 34.2251 41.266 35.0146C40.5487 34.977 39.8314 34.9394 39.1195 34.9018C39.1195 33.2583 39.1195 31.6094 39.1195 29.9659C39.1195 28.3224 39.1195 26.6735 39.1195 25.03C38.8251 24.7722 38.5307 24.5198 38.2416 24.262ZM34.7193 30.1002C34.7193 30.5782 34.7193 31.0562 34.7193 31.5342C34.7193 32.0122 34.7193 32.4902 34.7193 32.9683C35.0833 32.9736 35.4473 32.9844 35.8167 32.9951C35.8167 32.3399 35.8167 31.6846 35.8167 31.0294C35.8167 31.0079 35.4527 30.6964 34.7193 30.1002ZM34.7193 26.0397C34.7193 26.695 34.7193 27.3449 34.7193 28.0001C34.7193 28.0163 34.821 28.0968 35.0138 28.2472C35.0352 28.2472 35.3028 28.027 35.8167 27.5866C35.8167 27.0763 35.8167 26.5607 35.8167 26.0451C35.4473 26.0451 35.0833 26.0397 34.7193 26.0397ZM31.6949 24.262C33.4828 24.262 35.2707 24.262 37.0639 24.262C37.0854 24.262 37.3851 24.5144 37.9686 25.0193C37.9686 25.5026 37.9686 25.986 37.9686 26.4694C37.9686 26.9528 37.9686 27.4362 37.9686 27.9196C37.4065 28.3868 36.8445 28.8541 36.2824 29.3214C36.8445 29.8048 37.4065 30.2882 37.9686 30.7715C37.9686 31.3248 37.9686 31.878 37.9686 32.4312C37.9686 32.9844 37.9686 33.5376 37.9686 34.0908C37.9686 34.1069 37.6688 34.354 37.0639 34.8159C35.5651 34.7675 34.0716 34.7407 32.5728 34.7246C32.5728 33.1079 32.5728 31.4913 32.5728 29.8746C32.5728 28.2579 32.5728 26.6359 32.5728 25.0193C32.2784 24.7615 31.984 24.5144 31.6949 24.262ZM25.1536 24.262C27.2413 24.262 29.3343 24.262 31.4273 24.262C31.4273 25.0032 31.4273 25.739 31.4273 26.4802C31.4273 27.216 31.4273 27.9572 31.4273 28.693C30.619 28.0538 29.9017 27.463 29.2754 26.9259C29.2754 26.6305 29.2754 26.3351 29.2754 26.0397C28.906 26.0397 28.542 26.0397 28.178 26.0397C28.178 26.9045 28.178 27.7638 28.178 28.6285C28.6544 28.6232 29.1362 28.6232 29.618 28.6178C29.6394 28.6178 29.998 28.9132 30.6886 29.4986C30.3299 29.7887 29.9713 30.0841 29.618 30.3741C29.1362 30.3795 28.6544 30.3795 28.178 30.3848C28.178 31.2496 28.178 32.1089 28.178 32.9736C28.542 32.9683 28.906 32.9629 29.2754 32.9575C29.2754 32.6621 29.2754 32.3667 29.2754 32.0713C30.0569 31.3999 30.7689 30.8038 31.4273 30.2828C31.4273 31.024 31.4273 31.7598 31.4273 32.4956C31.4273 33.2314 31.4273 33.9726 31.4273 34.7084C29.6233 34.7299 27.8301 34.7622 26.0315 34.8212C26.0315 33.1885 26.0315 31.5503 26.0315 29.9176C26.0315 28.2848 26.0315 26.6467 26.0315 25.0139C25.7371 24.7668 25.4427 24.5198 25.1536 24.262ZM18.6069 24.262C20.6946 24.262 22.7876 24.262 24.8806 24.262C24.8806 25.0139 24.8806 25.7605 24.8806 26.5124C24.8806 27.2589 24.8806 28.0109 24.8806 28.7574C24.0723 28.1183 23.3604 27.5275 22.7341 26.9904C22.7341 26.6896 22.7341 26.3835 22.7341 26.0827C22.3647 26.0881 21.9954 26.0881 21.6314 26.0935C21.6314 26.7648 21.6314 27.4416 21.6314 28.1129C22.172 28.5641 22.7127 29.0152 23.2587 29.461C23.7993 29.9068 24.34 30.3472 24.886 30.7877C24.886 31.3409 24.886 31.8994 24.886 32.4527C24.886 33.0059 24.886 33.5644 24.886 34.1176C24.886 34.1338 24.5862 34.4023 23.9813 34.9233C22.4825 35.0038 20.989 35.1059 19.4902 35.2187C19.4902 34.4453 19.4902 33.6719 19.4902 32.8984C19.4902 32.125 19.4902 31.3516 19.4902 30.5782C20.2931 31.212 21.0104 31.792 21.6367 32.313C21.6367 32.6191 21.6367 32.9253 21.6367 33.2261C22.0007 33.2046 22.3701 33.1885 22.7394 33.1724C22.7394 32.5064 22.7394 31.835 22.7394 31.1636C22.1988 30.7178 21.6528 30.2774 21.1121 29.837C20.5715 29.3912 20.0308 28.9401 19.4848 28.4835C19.4848 27.9088 19.4848 27.3395 19.4848 26.7648C19.4848 26.1901 19.4848 25.6208 19.4848 25.0461C19.1904 24.7883 18.896 24.5251 18.6069 24.262ZM15.09 26.1901C15.09 26.8991 15.09 27.6081 15.09 28.317C15.09 28.3331 15.454 28.65 16.1874 29.2516C16.1874 28.736 16.1874 28.2257 16.1874 27.7101C16.1874 27.1999 16.1874 26.6843 16.1874 26.1686C15.818 26.1794 15.454 26.1848 15.09 26.1901ZM12.0656 24.262C13.8535 24.262 15.636 24.262 17.4293 24.262C17.456 24.262 17.7558 24.5251 18.3393 25.0515C18.3393 26.7595 18.3393 28.4728 18.3393 30.1807C18.3393 31.8887 18.3393 33.5967 18.3393 35.3046C17.622 35.3744 16.8993 35.4443 16.1874 35.5141C16.1874 34.8481 16.1874 34.1767 16.1874 33.5107C16.1874 32.8447 16.1874 32.1734 16.1874 31.502C16.1874 31.4805 15.8234 31.1797 15.09 30.5889C15.09 31.4268 15.09 32.27 15.09 33.1079C15.09 33.9458 15.09 34.7836 15.09 35.6215C14.3727 35.7074 13.6554 35.7934 12.9435 35.8739C12.9435 34.0747 12.9435 32.2808 12.9435 30.4815C12.9435 28.6822 12.9435 26.883 12.9435 25.0837C12.6491 24.8205 12.3547 24.5413 12.0656 24.262ZM8.54336 31.0723C8.54336 31.6309 8.54336 32.1895 8.54336 32.7427C8.54336 33.3013 8.54336 33.8598 8.54336 34.413C8.90736 34.3647 9.27672 34.3217 9.64607 34.2788C9.64607 33.5268 9.64607 32.7749 9.64607 32.023C9.64607 32.0069 9.27672 31.69 8.54336 31.0723ZM8.54336 26.3351C8.54336 27.0978 8.54336 27.8605 8.54336 28.6232C8.54336 28.6447 8.63972 28.7306 8.83778 28.8863C8.85919 28.8863 9.12683 28.6124 9.64607 28.0753C9.64607 27.4845 9.64607 26.8991 9.64607 26.3083C9.27672 26.319 8.90736 26.3244 8.54336 26.3351ZM5.52429 24.262C7.31218 24.262 9.09472 24.262 10.888 24.262C10.9094 24.262 11.2091 24.5466 11.7926 25.1052C11.7926 25.6423 11.7926 26.1794 11.7926 26.7165C11.7926 27.2536 11.7926 27.7907 11.7926 28.3278C11.2305 28.8863 10.6685 29.4503 10.1064 30.025C10.6685 30.5245 11.2305 31.0132 11.7926 31.4966C11.7926 32.1143 11.7926 32.7266 11.7926 33.3442C11.7926 33.9619 11.7926 34.5742 11.7926 35.1918C11.7926 35.2079 11.4928 35.5356 10.888 36.1586C9.38913 36.3681 7.8903 36.5936 6.39682 36.8353C6.39682 34.8911 6.39682 32.9468 6.39682 31.0025C6.39682 29.0582 6.39682 27.1139 6.39682 25.1643C6.10776 24.8689 5.81335 24.5681 5.52429 24.262Z" fill="white"/>
<path id="Vector_45" fill-rule="evenodd" clip-rule="evenodd" d="M57.4052 36.7332C57.4052 35.9168 57.4052 35.0951 57.4052 34.2787C57.4052 33.5267 57.4052 32.7748 57.4052 32.0229C56.8163 32.5331 56.2382 33.0487 55.6547 33.5643C55.6547 33.8812 55.6547 34.2035 55.6547 34.5204V34.7513L55.4246 34.7191C55.0606 34.6708 54.6912 34.617 54.3272 34.5687L54.1559 34.5472V30.997C53.5724 30.9165 52.9943 30.8359 52.4108 30.7607V35.9544C54.0756 36.1961 55.7404 36.4593 57.4052 36.7332ZM45.8642 30.0249V30.2182C45.8642 31.8779 45.8642 33.5321 45.8642 35.1917C47.5289 35.3582 49.1937 35.5462 50.8585 35.7449C50.8585 34.993 50.8585 34.2464 50.8585 33.4945C50.8585 32.807 50.8585 32.1249 50.8585 31.4374C50.2697 31.9208 49.6862 32.4096 49.1081 32.8983C49.1081 33.1884 49.1081 33.4838 49.1081 33.7738V33.994L48.8886 33.9725C48.5246 33.9349 48.1552 33.8973 47.7912 33.8651L47.6092 33.849V30.2021C47.0258 30.1377 46.4423 30.0786 45.8642 30.0249ZM39.3228 29.5522V29.9658C39.3228 31.5502 39.3228 33.1293 39.3228 34.7137C39.9063 34.7459 40.4844 34.7782 41.0679 34.805C41.0679 34.0799 41.0679 33.3602 41.0679 32.6352C41.0679 31.8403 41.0679 31.0454 41.0679 30.2558V29.8154L41.3998 30.1001C41.6782 30.3418 41.9565 30.5781 42.2295 30.8252C42.3312 30.9165 42.5721 31.0937 42.5721 31.2333C42.5721 31.8779 42.5721 32.5224 42.5721 33.1669C42.5721 33.7469 42.5721 34.327 42.5721 34.9071C43.1556 34.95 43.739 34.9984 44.3225 35.0413C44.3225 33.4139 44.3225 31.7866 44.3225 30.1538V29.8852C42.6524 29.751 40.9876 29.6382 39.3228 29.5522ZM34.8478 29.9443C35.1261 30.1699 35.4045 30.3955 35.6775 30.6264C35.7792 30.7124 36.0254 30.8789 36.0254 31.0239C36.0254 31.6791 36.0254 32.3344 36.0254 32.9896V33.1937H35.8113C35.4473 33.183 35.078 33.1723 34.714 33.1669L34.5159 33.1615V32.9628C34.5159 32.4848 34.5159 32.0068 34.5159 31.5287C34.5159 31.0507 34.5159 30.5727 34.5159 30.0947V29.6704L34.8478 29.9443ZM37.7705 34.0048C37.7705 33.4784 37.7705 32.952 37.7705 32.4257C37.7705 31.9047 37.7705 31.3784 37.7705 30.8574C37.2298 30.3955 36.6945 29.9282 36.1539 29.4663L36.095 29.418C34.987 29.3857 33.8842 29.3643 32.7762 29.3535V29.8691C32.7762 31.4213 32.7762 32.9735 32.7762 34.5204C34.184 34.5365 35.5918 34.5633 36.9997 34.6063C37.1924 34.4559 37.3851 34.3055 37.5778 34.1551C37.642 34.1068 37.7063 34.0585 37.7705 34.0048ZM26.2349 29.4448V29.9282C26.2349 31.4912 26.2349 33.0595 26.2349 34.6224C27.8996 34.5687 29.5644 34.5365 31.2292 34.515C31.2292 33.8436 31.2292 33.1723 31.2292 32.5009C31.2292 31.9047 31.2292 31.3032 31.2292 30.707C30.6404 31.185 30.0569 31.6791 29.4788 32.1733C29.4788 32.4364 29.4788 32.705 29.4788 32.9682V33.1669H29.2807C28.9167 33.1723 28.5473 33.1723 28.1833 33.183L27.9799 33.1884V32.9789C27.9799 32.1142 27.9799 31.2548 27.9799 30.3901V30.1914H28.178C28.633 30.186 29.0933 30.186 29.5483 30.1806C29.8267 29.9551 30.0997 29.7295 30.3781 29.5039L30.2068 29.3589C28.8792 29.3643 27.557 29.3965 26.2349 29.4448ZM21.262 29.7026C21.7973 30.1377 22.3272 30.5781 22.8625 31.0131L22.9374 31.0722V31.1689C22.9374 31.8403 22.9374 32.5063 22.9374 33.1776V33.371L22.7447 33.3817C22.3754 33.3978 22.0114 33.4139 21.642 33.4354L21.4279 33.4462V33.2313C21.4279 32.9574 21.4279 32.6835 21.4279 32.4096C20.8551 31.9316 20.2717 31.4589 19.6828 30.997C19.6828 31.6308 19.6828 32.2699 19.6828 32.9037C19.6828 33.6019 19.6828 34.3055 19.6828 35.0037C21.0853 34.8963 22.4878 34.805 23.8903 34.7298C24.0883 34.558 24.281 34.3915 24.4791 34.2196C24.5433 34.1605 24.6129 34.1068 24.6772 34.0423C24.6772 33.5106 24.6772 32.9843 24.6772 32.4526C24.6772 31.9316 24.6772 31.4052 24.6772 30.8842C24.1579 30.4653 23.6387 30.041 23.1248 29.6167L23.0927 29.5898C22.4824 29.6221 21.8722 29.6597 21.262 29.7026ZM14.8866 30.2612C14.3031 30.3257 13.725 30.3901 13.1415 30.4546V30.4922C13.1415 32.2162 13.1415 33.9349 13.1415 35.659C13.725 35.5892 14.3031 35.5194 14.8866 35.4495C14.8866 34.6707 14.8866 33.892 14.8866 33.1132C14.8866 32.2753 14.8866 31.4321 14.8866 30.5942V30.2612ZM18.1412 35.1273C18.1412 33.4784 18.1412 31.8295 18.1412 30.186V29.9443C17.0867 30.0356 16.0321 30.1377 14.9829 30.2505L15.2185 30.4384C15.4968 30.6587 15.7698 30.8842 16.0482 31.1098C16.1552 31.1957 16.3961 31.3622 16.3961 31.5073C16.3961 32.1786 16.3961 32.8446 16.3961 33.516C16.3961 34.1122 16.3961 34.703 16.3961 35.2991C16.9742 35.2401 17.5577 35.181 18.1412 35.1273ZM8.78956 31.0185C9.02509 31.2172 9.26598 31.416 9.49615 31.6201C9.59786 31.7114 9.8441 31.8779 9.8441 32.0282C9.8441 32.7802 9.8441 33.5321 9.8441 34.284V34.4613L9.66745 34.4828C9.29809 34.5257 8.93409 34.5687 8.56474 34.617L8.33991 34.6439V34.4129C8.33991 33.8544 8.33991 33.2958 8.33991 32.7426C8.33991 32.1894 8.33991 31.6362 8.33991 31.083C7.75644 31.1689 7.17832 31.2548 6.59485 31.3408V36.5935C7.99197 36.368 9.38909 36.1585 10.7862 35.9598C10.9843 35.7557 11.1823 35.5462 11.3804 35.3367C11.45 35.2616 11.5249 35.1917 11.5892 35.1165C11.5892 34.5257 11.5892 33.9296 11.5892 33.3388C11.5892 32.7533 11.5892 32.1679 11.5892 31.5825C11.2733 31.3085 10.9575 31.0346 10.6417 30.7607C10.0261 30.8466 9.41051 30.9326 8.78956 31.0185Z" fill="#BEC1C6"/>
<path id="Vector_46" fill-rule="evenodd" clip-rule="evenodd" d="M40.5487 36.54L40.8378 36.3144L41.2607 36.352C41.7478 36.395 42.2349 36.438 42.722 36.4863L43.1021 36.5239L43.3751 36.7925C43.541 36.9536 43.707 37.1201 43.8729 37.2812L44.1994 37.6035V38.06C44.1994 38.6186 44.1994 39.1718 44.1994 39.7304C44.1994 40.2836 44.1994 40.8421 44.1994 41.4007V41.9593L43.7444 42.2869C43.5785 42.4051 43.4125 42.5286 43.2466 42.6468L42.888 42.9046L42.449 42.8348C41.9726 42.7596 41.5015 42.6898 41.0251 42.6253L40.6665 42.577L40.3774 42.2923L40.083 42.5018L39.6708 42.4534C39.2158 42.3997 38.7555 42.3514 38.3005 42.3084L37.9365 42.2762L37.6474 42.0076L37.3583 42.2279L36.9569 42.201C36.4805 42.1688 36.0094 42.1365 35.533 42.1097L35.1583 42.0882L35.1476 42.0828L34.6819 42.0667C34.0502 42.0452 33.4132 42.0291 32.7816 42.0238L32.2944 42.0184C32.0643 42.0184 31.8287 42.0184 31.5986 42.0238L30.8706 42.0345L30.7314 42.0399C30.4744 42.0506 30.2121 42.056 29.9552 42.0667L29.4253 42.0828L29.0934 42.0989C28.6277 42.1258 28.162 42.1473 27.6963 42.1795L27.2948 42.2064L27.0004 41.9862L26.7113 42.2547L26.3473 42.2869C25.8709 42.3299 25.3998 42.3782 24.9234 42.4319L24.5059 42.4803L24.0616 42.158V42.534L23.1195 42.6629C22.8625 42.6951 22.6109 42.7327 22.354 42.7757L21.1014 42.969V41.6961C21.1014 41.4383 21.1014 41.1805 21.1014 40.9281C21.1014 40.7401 21.1014 40.5575 21.1014 40.3695V40.3534L21.0961 40.3373C20.9622 39.9828 20.8338 39.6283 20.7053 39.2738C20.55 38.8495 20.3948 38.4199 20.2396 37.9955L19.7578 36.6743L21.1496 36.54C21.4172 36.5132 21.6795 36.4863 21.9472 36.4648L22.3005 36.4272V36.4219L22.4878 36.4057L22.7983 36.3735V36.3789L23.0124 36.3628C23.2854 36.3413 23.5638 36.3144 23.8368 36.293L25.523 36.1533L25.5122 36.1802L25.6461 36.1748C25.7478 36.1694 25.8495 36.1641 25.9512 36.1587L26.0368 36.1533V36.1426L27.0753 36.0942C27.252 36.0889 27.4233 36.0781 27.5999 36.0727L27.6855 36.0674V36.062L28.0495 36.0513L28.9863 36.0083V36.0137L29.5858 36.0029L30.6297 35.9761V35.9868H30.7207C31.0258 35.9814 31.3256 35.9814 31.6307 35.9761H31.7163V35.9707L32.8083 35.9814C33.0706 35.9814 33.3276 35.9868 33.5899 35.9868L34.6658 35.9976V36.4756L34.8103 36.3628C34.8478 36.3306 34.8853 36.3037 34.9281 36.2715L35.2386 36.0244L35.6347 36.0352C36.1218 36.0513 36.6089 36.0728 37.0907 36.0942L37.4708 36.1103L37.7759 36.3789L38.081 36.1426L38.4878 36.1641C38.9535 36.1909 39.4246 36.2231 39.8903 36.2554L40.265 36.2822L40.5487 36.54Z" fill="#081329"/>
<path id="Vector_47" d="M42.3419 40.9386C42.3419 40.4982 42.3419 40.0631 42.3419 39.6227C42.3419 39.1823 42.3419 38.7473 42.3419 38.3069C42.0475 38.2746 41.7531 38.2424 41.4586 38.2155C41.4586 38.6506 41.4586 39.0803 41.4586 39.5153C41.4586 39.9504 41.4586 40.38 41.4586 40.8151C41.7477 40.8527 42.0421 40.8956 42.3419 40.9386ZM43.1181 41.3951C42.9521 41.5133 42.7808 41.6368 42.6149 41.755C42.1331 41.6798 41.6514 41.6046 41.1696 41.5402C41.0036 41.3737 40.8377 41.2125 40.6718 41.046C40.6718 40.5089 40.6718 39.9718 40.6718 39.4347C40.6718 38.8977 40.6718 38.3606 40.6718 37.8235C40.8377 37.6946 41.0036 37.5657 41.1696 37.4368C41.6514 37.4797 42.1331 37.5227 42.6149 37.571C42.7808 37.7322 42.9468 37.8987 43.1181 38.0652C43.1181 38.6237 43.1181 39.1769 43.1181 39.7355C43.1181 40.2834 43.1181 40.8366 43.1181 41.3951ZM40.3024 40.9977C40.1365 41.1212 39.9652 41.2448 39.7992 41.3629C39.3335 41.3092 38.8678 41.2609 38.4021 41.2179C38.2362 41.0621 38.0702 40.9118 37.9043 40.7614C37.9043 40.2404 37.9043 39.714 37.9043 39.1931C37.9043 38.6721 37.9043 38.1457 37.9043 37.6247C38.0702 37.4958 38.2415 37.3669 38.4075 37.238C38.8678 37.2649 39.3335 37.2971 39.7939 37.3293C39.9598 37.4851 40.1311 37.6355 40.2971 37.7912C40.2971 38.0007 40.2971 38.2155 40.2971 38.425C40.0348 38.4035 39.7778 38.382 39.5209 38.3606C39.5209 38.2585 39.5209 38.1511 39.5209 38.049C39.2425 38.0276 38.9588 38.0061 38.6805 37.9846C38.6805 38.4035 38.6805 38.8225 38.6805 39.2468C38.6805 39.6657 38.6805 40.0846 38.6805 40.5036C38.9588 40.525 39.2425 40.5573 39.5209 40.5895C39.5209 40.2887 39.5209 39.9933 39.5209 39.6926C39.3442 39.6764 39.1676 39.6603 38.9909 39.6388C38.9909 39.3918 38.9909 39.1447 38.9909 38.8977C39.4245 38.9353 39.8635 38.9728 40.2971 39.0104C40.2971 39.3434 40.2971 39.6711 40.2971 40.0041C40.3024 40.3371 40.3024 40.6701 40.3024 40.9977ZM36.7534 40.3532C36.7534 39.9396 36.7534 39.5261 36.7534 39.1125C36.7534 38.6989 36.7534 38.2854 36.7534 37.8718C36.459 37.8557 36.1646 37.845 35.8702 37.8342C35.8702 38.2478 35.8702 38.656 35.8702 39.0695C35.8702 39.4831 35.8702 39.8913 35.8702 40.3048C36.1592 40.3156 36.459 40.3371 36.7534 40.3532ZM37.5349 40.7238C37.369 40.8473 37.203 40.9762 37.0317 41.0997C36.55 41.0621 36.0682 41.0353 35.5864 41.0084C35.4205 40.8634 35.2546 40.7238 35.0886 40.5788C35.0886 40.0631 35.0886 39.5529 35.0886 39.0373C35.0886 38.5217 35.0886 38.0114 35.0886 37.4958C35.2546 37.3669 35.4205 37.2327 35.5864 37.1038C36.0682 37.1199 36.55 37.136 37.0317 37.1575C37.1977 37.3025 37.3636 37.4529 37.5349 37.5979C37.5349 38.1189 37.5349 38.6398 37.5349 39.1608C37.5349 39.6818 37.5349 40.2028 37.5349 40.7238ZM34.7139 40.9708C34.0716 40.9494 33.4292 40.9332 32.7869 40.9279C32.7869 40.2834 32.7869 39.6388 32.7869 38.989C32.7869 38.3444 32.7869 37.6946 32.7869 37.05C33.0438 37.05 33.3061 37.0554 33.563 37.0554C33.563 37.5818 33.563 38.1081 33.563 38.6345C33.563 39.1608 33.563 39.6872 33.563 40.2135C33.9431 40.2243 34.3285 40.235 34.7086 40.2458C34.7139 40.4928 34.7139 40.7291 34.7139 40.9708ZM30.6938 38.6398C30.9615 38.6345 31.2345 38.6345 31.5021 38.6291C31.5021 38.3391 31.5021 38.0544 31.5021 37.7644C31.2345 37.7644 30.9615 37.7698 30.6938 37.7698C30.6938 38.0598 30.6938 38.3498 30.6938 38.6398ZM32.4175 40.9225C32.1391 40.9225 31.8608 40.9225 31.5878 40.9279C31.4754 40.6647 31.363 40.4015 31.2559 40.1437C31.1488 39.8805 31.0364 39.6174 30.9294 39.3542C30.8491 39.3542 30.7741 39.3542 30.6992 39.3596C30.6992 39.6227 30.6992 39.8859 30.6992 40.1491C30.6992 40.4123 30.6992 40.6754 30.6992 40.9386C30.4369 40.9494 30.18 40.9547 29.923 40.9655C29.923 40.3156 29.923 39.6657 29.923 39.0212C29.923 38.3713 29.923 37.7214 29.923 37.0715C30.544 37.0608 31.1649 37.05 31.7858 37.05C31.9518 37.1843 32.1177 37.3186 32.2837 37.4582C32.2837 37.6946 32.2837 37.9309 32.2837 38.1672C32.2837 38.4035 32.2837 38.6398 32.2837 38.8762C32.107 39.0266 31.9304 39.1823 31.7537 39.3327C31.8661 39.5959 31.9786 39.8591 32.0856 40.1222C32.1873 40.3908 32.2997 40.6593 32.4175 40.9225ZM29.5376 40.568C29.3663 40.713 29.2004 40.858 29.0291 41.0031C28.558 41.0299 28.087 41.0514 27.6105 41.089C27.4446 40.9655 27.2787 40.8419 27.1127 40.713C27.1127 40.1222 27.1127 39.5314 27.1127 38.9406C27.1127 38.3498 27.1127 37.759 27.1127 37.1682C27.3697 37.1575 27.6266 37.1467 27.8889 37.1306C27.8889 37.6677 27.8889 38.1994 27.8889 38.7365C27.8889 39.2682 27.8889 39.8053 27.8889 40.3371C28.178 40.321 28.467 40.3048 28.7561 40.2887C28.7561 39.757 28.7561 39.2253 28.7561 38.6936C28.7561 38.1618 28.7561 37.6301 28.7561 37.0984C29.013 37.0876 29.27 37.0823 29.5323 37.0769C29.5323 37.657 29.5323 38.2424 29.5323 38.8225C29.5376 39.4079 29.5376 39.988 29.5376 40.568ZM25.9618 40.4875C25.9618 40.0685 25.9618 39.6496 25.9618 39.2307C25.9618 38.8117 25.9618 38.3928 25.9618 37.9739C25.6674 37.9953 25.373 38.0114 25.0786 38.0329C25.0786 38.4572 25.0786 38.8815 25.0786 39.3005C25.0786 39.7248 25.0786 40.1491 25.0786 40.568C25.373 40.5358 25.6674 40.5143 25.9618 40.4875ZM26.738 40.7399C26.5721 40.8903 26.4061 41.046 26.2348 41.1964C25.7531 41.2394 25.2713 41.2877 24.7895 41.3414C24.6236 41.2179 24.4576 41.0997 24.2971 40.9762C24.2971 40.4391 24.2971 39.9074 24.2971 39.3703C24.2971 38.8332 24.2971 38.3015 24.2971 37.7644C24.463 37.6086 24.6236 37.4582 24.7895 37.3025C25.2713 37.2703 25.7531 37.238 26.2348 37.2112C26.4008 37.3401 26.5667 37.469 26.738 37.5979C26.738 38.1189 26.738 38.6452 26.738 39.1662C26.738 39.6872 26.738 40.2189 26.738 40.7399ZM22.9695 40.0524C22.9695 40.3048 22.9695 40.5573 22.9695 40.8097C22.9695 41.0621 22.9695 41.3146 22.9695 41.567C22.7072 41.6046 22.4449 41.6422 22.1826 41.6798C22.1826 41.422 22.1826 41.1642 22.1826 40.9118C22.1826 40.654 22.1826 40.3961 22.1826 40.1437C22.0274 39.7248 21.8722 39.3058 21.7169 38.8869C21.5617 38.4626 21.4065 38.0383 21.2512 37.6086C21.5135 37.5818 21.7812 37.5549 22.0488 37.5281C22.1345 37.7805 22.2255 38.0276 22.3111 38.28C22.3968 38.5271 22.4878 38.7741 22.5788 39.0212C22.6644 38.7526 22.75 38.4895 22.8357 38.2263C22.9213 37.9631 23.0123 37.6999 23.098 37.4368C23.371 37.4153 23.6493 37.3884 23.9223 37.3669C23.7618 37.8127 23.6012 38.2585 23.4459 38.7043C23.2853 39.1501 23.1248 39.6012 22.9695 40.0524Z" fill="#C10F18"/>
<path id="Vector_48" opacity="0.23" fill-rule="evenodd" clip-rule="evenodd" d="M41.2232 41.4435C41.6835 41.508 42.1385 41.5778 42.5935 41.6476C42.7327 41.5456 42.8772 41.4435 43.0164 41.3415V39.8269C42.8237 39.8 42.631 39.7678 42.4383 39.7409V40.9387V41.0568L42.3205 41.0407C42.0261 40.9977 41.7317 40.9548 41.4373 40.9172L41.3463 40.9064V40.8151V39.5959C41.1536 39.5691 40.9662 39.5476 40.7735 39.5261V41.0031C40.9287 41.1481 41.0733 41.2985 41.2232 41.4435ZM40.2007 40.944C40.2007 40.6325 40.2007 40.3156 40.2007 40.0041V39.4509C39.8314 39.4079 39.462 39.3704 39.098 39.3328V39.5422C39.2426 39.5583 39.3924 39.5691 39.537 39.5852L39.628 39.5959V39.6872C39.628 39.988 39.628 40.2834 39.628 40.5842V40.697L39.5156 40.6862C39.2372 40.654 38.9589 40.6272 38.6752 40.6057L38.5842 40.6003V40.5036V39.2898C38.3914 39.2737 38.1987 39.2576 38.006 39.2414V40.7131C38.1506 40.8474 38.2951 40.9816 38.445 41.1159C38.8893 41.1589 39.3282 41.2072 39.7672 41.2556C39.917 41.1535 40.0562 41.0515 40.2007 40.944ZM35.1904 39.0588V40.5305C35.3349 40.6594 35.4794 40.7829 35.624 40.9064C36.0843 40.9279 36.5393 40.9602 36.9997 40.9924C37.1442 40.885 37.2834 40.7775 37.4279 40.6701V39.1877C37.2352 39.1716 37.0425 39.1609 36.8498 39.1448V40.3479V40.4553L36.7427 40.4499C36.4483 40.4284 36.1539 40.4123 35.8595 40.3962L35.7631 40.3908V40.2942V39.0803C35.5758 39.0803 35.3831 39.0696 35.1904 39.0588ZM34.6123 40.8635C34.6123 40.6916 34.6123 40.5197 34.6123 40.3532C34.2643 40.3425 33.9164 40.3317 33.5631 40.3264L33.4667 40.321V40.219V39.0051C33.274 38.9998 33.0813 38.9998 32.894 38.9944V40.8259C33.4667 40.8312 34.0395 40.8474 34.6123 40.8635ZM31.6521 40.8259C31.8555 40.8259 32.0589 40.8205 32.2623 40.8205C32.1713 40.6057 32.0803 40.3855 31.984 40.1706C31.8715 39.9074 31.7591 39.6443 31.6521 39.3811L31.6253 39.3113L31.6842 39.2629L31.9947 38.9944C31.3362 38.9944 30.6832 39.0051 30.0248 39.0266V40.8635C30.2175 40.8581 30.4102 40.8527 30.5975 40.842C30.5975 40.611 30.5975 40.3801 30.5975 40.1491C30.5975 39.886 30.5975 39.6228 30.5975 39.3596V39.2576H30.6992C30.7795 39.2576 30.8545 39.2522 30.9348 39.2522H31.0044L31.0311 39.3166C31.1382 39.5798 31.2506 39.843 31.3577 40.1062C31.4487 40.3425 31.5504 40.5842 31.6521 40.8259ZM28.8632 39.0696V40.2942V40.3908L28.7668 40.3962C28.4778 40.4123 28.1887 40.4231 27.8996 40.4445L27.7926 40.4499V40.3425V39.1287C27.5999 39.1394 27.4125 39.1555 27.2198 39.1663V40.6594C27.359 40.7668 27.5035 40.8742 27.6427 40.9816C28.0924 40.9494 28.542 40.9279 28.9916 40.9011C29.1415 40.7722 29.2861 40.6486 29.4359 40.5197V39.0481C29.2432 39.0535 29.0559 39.0588 28.8632 39.0696ZM26.6363 40.6916V39.2092C26.4436 39.2253 26.2509 39.2414 26.0636 39.2576V40.4875V40.5788L25.9726 40.5896C25.6782 40.6164 25.3838 40.6433 25.0893 40.6701L24.9769 40.6809V40.5681V39.3596C24.7842 39.3811 24.5969 39.4026 24.4042 39.4187V40.9226C24.5433 41.0246 24.6825 41.132 24.8217 41.2341C25.2767 41.1804 25.737 41.1374 26.1974 41.0944C26.3419 40.9655 26.4918 40.8259 26.6363 40.6916ZM22.1292 39.7141L22.279 40.1169L22.2844 40.133V40.1491C22.2844 40.4069 22.2844 40.6647 22.2844 40.9172C22.2844 41.132 22.2844 41.3522 22.2844 41.5671C22.4771 41.5348 22.6698 41.508 22.8679 41.4811C22.8679 41.2556 22.8679 41.0353 22.8679 40.8098C22.8679 40.5573 22.8679 40.3049 22.8679 40.0525V40.0363L22.8732 40.0202C22.9214 39.8752 22.9749 39.7356 23.0231 39.5906C22.7233 39.6282 22.4289 39.6711 22.1292 39.7141Z" fill="black"/>
<path id="Vector_49" fill-rule="evenodd" clip-rule="evenodd" d="M32 42.2922L32.3158 43.2697H33.3329L32.5085 43.8659L32.8244 44.8434L32 44.2365L31.1756 44.8434L31.4915 43.8659L30.6671 43.2697H31.6895L32 42.2922Z" fill="white"/>
</g>
</svg>
