<svg width="76" height="85" viewBox="0 0 76 85" fill="none" xmlns="http://www.w3.org/2000/svg">
<path d="M49.1678 47.9232L60.2668 47.3008L50.3088 46.6785L60.2668 46.0561L51.3461 45.4337L60.2668 44.8113L52.1759 44.1889L60.2668 43.5666L52.902 42.9442L60.2668 42.3218L53.6281 41.6994L60.2668 41.0771L54.0431 40.4547L60.2668 39.8323L54.458 39.2099L60.3706 38.5875L54.8729 37.9652L60.3706 37.3428L55.1841 36.7204L60.3706 36.098L55.3916 35.4757L60.578 34.8533C58.6072 34.8533 17.5302 34.8533 14.8332 34.8533L19.916 35.4757L14.937 36.098L20.1234 36.7204L14.937 37.3428L20.4346 37.9652L14.937 38.5875L20.8495 39.2099L15.0407 39.8323L21.2645 40.4547L15.0407 41.0771L21.6794 41.6994L15.1444 42.5293L22.5092 43.1517L15.1444 43.774L23.2353 44.3964L15.1444 45.0188L24.0652 45.6412L15.1444 46.2635L25.1025 46.8859L15.1444 47.5083L26.2435 48.1307L14.7295 48.7531C14.7295 53.9395 14.7295 58.7111 14.7295 58.7111C14.7295 70.2251 34.5419 80.0794 37.6538 81.5317C40.7657 80.0794 60.578 70.2251 60.578 58.7111C60.578 58.7111 60.578 53.9395 60.578 48.7531L49.1678 47.9232Z" fill="#101115"/>
<path d="M12.4475 32.4673V58.6072C12.4475 72.6107 36.5128 83.6061 37.5501 84.021L37.8613 84.1247L38.1725 84.021C39.2098 83.6061 63.2751 72.6107 63.2751 58.6072V32.4673H12.4475ZM61.6154 34.0232C61.6154 35.4754 61.6154 58.6072 61.6154 58.6072C61.6154 70.7436 40.662 81.1165 37.7576 82.465C34.9569 81.1165 13.8997 70.7436 13.8997 58.6072C13.8997 58.6072 13.8997 35.4754 13.8997 34.0232C15.5594 34.0232 60.1632 34.0232 61.6154 34.0232Z" fill="#101115"/>
<path d="M26.6587 19.19C22.9244 22.1982 20.5386 26.4511 20.0199 31.2227C18.8789 41.077 26.0363 49.894 35.8906 51.0351C40.6622 51.5537 45.33 50.2052 49.0643 47.1971C52.7985 44.1889 55.1843 39.936 55.703 35.1644C56.844 25.3101 49.6867 16.493 39.8323 15.352C35.0608 14.8334 30.3929 16.1819 26.6587 19.19Z" fill="#101115"/>
<path d="M54.0432 35.0608C53.0059 43.9816 45.0188 50.5166 35.9943 49.4793C27.0735 48.442 20.5385 40.4548 21.5758 31.4303C22.6131 22.5095 30.6003 15.9746 39.6248 17.0119C48.6493 17.9454 55.0805 26.0364 54.0432 35.0608Z" fill="#F49117"/>
<path opacity="0.4" d="M41.9069 44.8115C32.9861 43.7742 26.4512 35.787 27.4885 26.7625C27.7996 23.6506 29.0444 20.8499 30.9115 18.4641C25.9325 20.8499 22.302 25.5177 21.6796 31.4303C20.6423 40.3511 27.1773 48.442 36.098 49.4793C41.9069 50.1017 47.4046 47.6122 50.7239 43.3593C48.0269 44.5003 45.0188 45.1227 41.9069 44.8115Z" fill="#F49117"/>
<path d="M50.3091 39.5211C50.3091 39.5211 42.3219 31.8451 30.9116 26.5549C30.9116 26.5549 43.9816 31.0153 50.3091 39.5211Z" fill="url(#paint0_radial_137_980)"/>
<path d="M47.4047 24.1692C47.4047 24.1692 47.0935 29.252 43.9816 35.1645C40.9734 41.0771 34.3347 45.0189 34.3347 45.0189C34.3347 45.0189 40.4548 40.351 43.048 34.6459C45.745 28.9408 47.4047 24.1692 47.4047 24.1692Z" fill="url(#paint1_radial_137_980)"/>
<path d="M41.5959 25.8289C41.5959 25.8289 43.3594 30.7042 46.2638 31.9489C49.1682 33.1937 50.7242 32.4676 51.9689 31.534C51.9689 31.534 48.5458 32.1564 46.9899 31.3265C45.5377 30.393 41.5959 25.8289 41.5959 25.8289Z" fill="url(#paint2_radial_137_980)"/>
<path d="M36.7205 35.3722C36.7205 35.3722 39.8323 35.2684 41.5958 36.5132C43.4629 37.7579 44.5002 40.5586 43.9815 43.6705C43.9815 43.6705 45.5375 38.2766 42.3219 35.6833C39.9361 33.7125 36.7205 35.3722 36.7205 35.3722Z" fill="url(#paint3_radial_137_980)"/>
<path d="M47.8196 32.0527L48.6494 32.2602C50.3091 32.4677 52.0725 31.8453 53.9396 30.6005H54.0434L53.8359 29.667L53.6285 29.7707C51.5539 31.2229 49.6867 31.7416 47.9233 31.2229C47.1972 31.0155 46.4711 30.6005 45.745 29.9782C47.0935 26.1402 47.7159 22.8208 47.9233 20.5387V20.3313L47.7159 20.1238L47.1972 19.7089V19.9164C47.1972 20.1238 47.1972 20.2276 47.0935 20.435C46.886 22.3022 46.3674 25.5178 45.1226 29.252C43.3592 27.3849 42.0107 24.6879 41.1809 22.6133C39.8324 19.0865 37.5503 17.738 35.6832 16.9082C35.5795 16.9082 34.5422 17.0119 34.5422 17.0119L34.231 17.1157L34.5422 17.3231L35.0608 17.6343C36.513 18.3604 39.1063 19.7089 40.2473 23.0283C40.8697 24.7917 42.3219 28.111 44.7077 30.2893C44.604 30.3931 43.8779 32.2602 43.7741 32.5714C36.513 27.4886 28.0072 24.6879 24.6878 23.6506H24.5841L24.0655 24.4805H24.2729C27.696 25.414 36.2019 28.3185 43.4629 33.4012C43.3592 33.6087 42.5294 35.1646 42.4256 35.3721C39.7287 33.9199 36.2019 34.5423 33.1937 35.1646C31.8452 35.3721 30.6004 35.6833 29.4594 35.6833C25.7251 35.8908 23.2356 35.787 21.8871 35.6833H21.6797L21.7834 36.0982L21.8871 36.6169H21.9909C23.4431 36.7206 25.9326 36.8243 29.5631 36.6169C30.7042 36.5131 32.0527 36.3057 33.4012 36.0982C36.3056 35.5796 39.6249 34.9572 42.0107 36.2019C38.8988 41.181 34.6459 44.9152 29.3557 47.1973L29.0445 47.0936L29.9781 47.6122C35.372 45.2264 39.5212 41.4922 42.6331 36.5131C43.3592 37.1355 43.8779 38.0691 44.0853 39.2101C44.2928 40.1437 44.2928 41.181 44.189 42.322C43.9816 44.3966 43.1517 46.6786 41.907 48.857L41.6995 49.1682L42.9443 48.7532C44.189 46.5749 44.9152 44.3966 45.1226 42.4257C45.2263 41.181 45.2263 40.0399 45.0189 39.0026C44.7077 37.5504 44.0853 36.4094 43.1517 35.6833C43.2555 35.5796 44.0853 34.0236 44.189 33.7124C47.4047 36.0982 49.9979 38.7952 51.7613 41.5959L51.865 41.8033L52.3837 40.8698V40.766C50.5166 37.8616 47.9233 35.2684 44.604 32.8826C44.7077 32.6751 45.4338 31.0155 45.5375 30.7043C46.2636 31.4304 46.9897 31.8453 47.8196 32.0527Z" fill="#101115"/>
<path d="M45.7451 12.3438C46.5749 12.0326 47.5085 11.4103 47.8197 10.5804C48.2346 9.33568 47.8197 6.84616 47.6122 5.70514C48.1309 5.70514 48.5458 5.29022 48.5458 4.66784C48.5458 4.14919 48.1309 3.63054 47.5085 3.63054C46.9898 3.63054 46.4712 4.04546 46.4712 4.66784C46.4712 4.97903 46.6787 5.29022 46.8861 5.49768C45.9525 6.22378 43.9817 7.88346 43.5668 9.02449C43.2556 9.95806 43.5668 10.9954 43.9817 11.7215C43.9817 11.7215 41.3884 12.7588 38.2765 10.2692C38.8989 9.64687 39.9362 8.50584 39.9362 7.15735C39.9362 5.70514 38.6915 3.11189 38.0691 1.97087C38.484 1.86714 38.6915 1.45222 38.6915 1.0373C38.6915 0.518649 38.2765 0 37.6542 0C37.1355 0 36.6169 0.414919 36.6169 1.0373C36.6169 1.45222 36.9281 1.86714 37.2392 1.97087C36.6169 3.21562 35.3721 5.70514 35.3721 7.15735C35.3721 8.50584 36.4094 9.64687 37.0318 10.2692C33.9199 12.655 31.3267 11.7215 31.3267 11.7215C31.7416 10.9954 32.0528 9.95806 31.7416 9.02449C31.3267 7.77973 29.3558 6.22378 28.4222 5.49768C28.9409 5.29022 29.0446 4.97903 29.0446 4.66784C29.0446 4.14919 28.6297 3.63054 28.0073 3.63054C27.4887 3.63054 26.97 4.04546 26.97 4.66784C26.97 5.18649 27.3849 5.60141 27.9036 5.70514C27.6961 6.84616 27.2812 9.43941 27.6961 10.5804C28.0073 11.514 29.0446 12.0326 29.7707 12.3438C29.7707 15.6632 23.5469 16.8042 23.5469 16.8042L24.273 19.8124C24.7917 19.2937 25.3103 18.8788 25.829 18.4639C29.7707 15.2483 34.7497 13.8998 39.8325 14.4184C44.2929 14.9371 48.2346 16.9079 51.139 19.9161L51.8651 16.9079C51.9689 16.8042 45.7451 15.6632 45.7451 12.3438ZM54.3547 7.77973C53.836 7.77973 53.3174 8.19465 53.3174 8.81703C53.3174 9.12822 53.4211 9.43941 53.7323 9.54314C52.7987 10.373 51.139 11.9289 50.8278 13.0699C50.3092 14.7296 52.0726 16.7005 52.0726 16.7005L54.2509 9.64687C54.3547 9.64687 54.3547 9.64687 54.4584 9.64687C54.977 9.64687 55.4957 9.23195 55.4957 8.60957C55.392 8.29838 54.977 7.77973 54.3547 7.77973ZM24.8954 13.1737C24.5842 12.0327 22.9245 10.4767 21.991 9.64687C22.1984 9.43941 22.4059 9.23195 22.4059 8.92076C22.4059 8.40211 21.991 7.88346 21.3686 7.88346C20.8499 7.88346 20.3313 8.29838 20.3313 8.92076C20.3313 9.43941 20.7462 9.95806 21.3686 9.95806C21.4723 9.95806 21.4723 9.95806 21.5761 9.95806L23.7544 17.0117C23.6507 16.8042 25.4141 14.8334 24.8954 13.1737Z" fill="#F49117"/>
<path opacity="0.5" d="M37.8614 3.63062V9.33575C38.2763 8.92083 39.0024 7.98727 39.0024 7.15743C39.0024 6.43132 38.5875 5.18656 37.8614 3.63062ZM46.8859 10.1656C46.9896 9.95813 46.9896 9.54321 46.9896 9.02456C46.9896 8.50591 46.8859 7.77981 46.7822 6.94997C46.0561 8.8171 45.5374 10.1656 45.1225 11.4103C45.2262 11.4103 45.3299 11.3066 45.3299 11.3066C46.1598 11.0992 46.6784 10.6842 46.8859 10.1656ZM44.8113 12.5514C44.7076 12.5514 44.5001 12.6551 44.5001 12.6551C44.3964 12.6551 41.3882 13.7961 37.8614 11.0992C37.8614 12.3439 37.8614 13.2775 37.8614 14.1073C38.5875 14.1073 39.3136 14.1073 39.936 14.2111C43.9815 14.626 47.5083 16.3894 50.4127 18.8789C50.5164 18.3602 50.6202 18.1528 50.7239 17.5304C48.753 17.1155 44.915 15.6633 44.8113 12.5514ZM28.8369 7.0537C29.563 8.8171 30.3929 11.5141 30.4966 11.5141C30.4966 11.4103 30.6003 11.3066 30.6003 11.3066C30.9115 10.788 31.0152 10.2693 31.0152 9.8544C31.0152 9.64694 31.0152 9.54321 30.9115 9.43948C30.8078 8.8171 29.9779 7.98727 28.8369 7.0537Z" fill="#F49117"/>
<path d="M5.70514 54.8729C4.77157 55.7027 0 60.4743 0 60.4743L1.76341 60.8892C6.12006 61.9265 11.7215 62.7563 11.9289 62.7563C11.9289 62.7563 12.1364 62.7563 12.2401 62.7563C12.2401 63.275 12.2401 65.2459 12.2401 65.2459L13.0699 65.3496C13.1737 65.3496 24.4802 67.113 37.8614 67.113C51.3462 67.113 62.4453 65.3496 62.549 65.3496L63.3789 65.2459C63.3789 65.2459 63.3789 63.275 63.3789 62.7563C63.4826 62.7563 63.6901 62.7563 63.6901 62.7563C63.8975 62.7563 69.4989 61.9265 73.8556 60.8892L75.619 60.4743C75.619 60.4743 70.8474 55.7027 69.9138 54.7691C70.64 53.6281 75.3078 45.8484 75.3078 45.8484L72.8183 46.5745C72.7146 46.5745 64.5199 48.8565 55.0805 48.8565H54.0432C54.0432 48.8565 54.0432 51.3461 54.0432 51.4498C49.6866 51.761 44.0851 52.0722 37.8614 52.0722C31.6376 52.0722 25.9324 51.761 21.6795 51.4498C21.6795 51.3461 21.6795 48.8565 21.6795 48.8565H20.6422C11.2028 48.8565 2.90443 46.5745 2.90443 46.5745L0.414919 45.8484C0.311189 45.8484 4.97903 53.7319 5.70514 54.8729ZM71.0549 49.1677C69.7064 51.3461 67.4243 55.1841 67.4243 55.1841C67.4243 55.1841 70.225 57.9848 71.5735 59.3333C68.7728 59.9556 65.8684 60.3706 64.4162 60.6817C64.105 59.3333 63.4826 56.0139 63.4826 56.0139L61.408 56.2214C61.408 56.2214 61.408 62.134 61.408 63.5862C58.6073 64.0011 49.0642 65.1421 37.8614 65.1421C26.6585 65.1421 17.1154 63.8974 14.211 63.5862C14.211 62.134 14.211 56.2214 14.211 56.2214L12.1364 56.0139C12.1364 56.0139 11.4103 59.3333 11.2028 60.6817C9.7506 60.4743 6.84616 59.9556 4.04546 59.3333C5.49768 57.881 8.19465 55.1841 8.19465 55.1841C8.19465 55.1841 5.9126 51.3461 4.56411 49.1677C6.6387 49.5827 9.7506 50.205 13.5886 50.62C13.4849 50.62 12.9662 50.7237 12.9662 50.7237V52.7983C13.0699 52.7983 24.169 54.2505 37.6539 54.2505C51.1388 54.2505 62.2378 52.7983 62.3416 52.7983V50.7237C62.3416 50.7237 61.8229 50.62 61.7192 50.62C65.7647 50.205 68.9803 49.5827 71.0549 49.1677Z" fill="#101115"/>
<path d="M2.07446 59.9556C6.43111 60.9929 12.1362 61.8228 12.1362 61.8228L13.2773 56.2214V64.416C13.2773 64.416 24.3764 66.1794 37.965 66.1794C51.4498 66.1794 62.5489 64.416 62.5489 64.416V56.2214L63.6899 61.8228C63.6899 61.8228 69.3951 60.9929 73.7517 59.9556L68.669 54.9766L73.1293 47.5081C73.1293 47.5081 64.831 49.7901 55.0804 49.7901V50.6199L62.4452 51.6572C62.4452 51.6572 51.4498 53.1095 37.8612 53.1095C24.2726 53.1095 13.2773 51.6572 13.2773 51.6572L20.6421 50.6199V49.7901C10.8915 49.7901 2.59311 47.5081 2.59311 47.5081L6.94976 54.9766L2.07446 59.9556Z" fill="#F49117"/>
<path d="M15.248 55.0801C16.2853 55.1838 17.2189 55.2875 18.2562 55.3913C18.5674 55.3913 18.7749 55.495 18.9823 55.7025C19.1898 55.9099 19.2935 56.1174 19.2935 56.4286C19.2935 56.9472 19.2935 57.4659 19.2935 57.8808C19.2935 58.2957 19.1898 58.6069 18.8786 58.9181C19.2935 59.2293 19.501 59.6442 19.501 60.1628C19.501 60.3703 19.501 60.5778 19.501 60.7852C19.501 61.3039 19.2935 61.7188 18.8786 62.03C18.4637 62.3412 18.0487 62.4449 17.4264 62.3412C16.7003 62.2374 16.0779 62.2374 15.3518 62.1337C15.248 59.8516 15.248 57.4659 15.248 55.0801ZM16.7003 56.5323C16.7003 57.0509 16.7003 57.5696 16.7003 58.0882C16.9077 58.0882 17.1152 58.0882 17.3226 58.192C17.4264 58.192 17.5301 58.192 17.6338 58.0882C17.7376 57.9845 17.7376 57.8808 17.7376 57.7771C17.7376 57.3621 17.7376 57.0509 17.7376 56.636C17.5301 56.5323 17.1152 56.5323 16.7003 56.5323ZM16.7003 60.9927C16.9077 60.9927 17.1152 60.9927 17.3226 61.0964C17.7376 61.0964 17.945 60.9927 17.945 60.6815C17.945 60.474 17.945 60.2666 17.945 60.0591C17.945 59.9554 17.945 59.8516 17.8413 59.7479C17.7376 59.6442 17.6338 59.6442 17.5301 59.5405C17.2189 59.5405 17.0115 59.5405 16.7003 59.4367C16.7003 59.9554 16.7003 60.474 16.7003 60.9927Z" fill="#101115"/>
<path d="M21.7832 61.304C21.6795 61.8227 21.5757 62.2376 21.472 62.7562C20.9533 62.7562 20.5384 62.6525 20.0198 62.6525C20.4347 60.2667 20.9533 57.9847 21.3683 55.5989C21.9906 55.5989 22.613 55.7026 23.2354 55.7026C23.6503 58.0884 24.169 60.5779 24.5839 62.9637C24.0652 62.9637 23.6503 62.86 23.1317 62.86C23.0279 62.3413 22.9242 61.9264 22.8205 61.4077C22.613 61.304 22.1981 61.304 21.7832 61.304ZM21.9906 59.9555C22.1981 59.9555 22.4056 59.9555 22.7167 59.9555C22.613 58.9182 22.5093 57.8809 22.4056 56.8436C22.1981 57.9847 22.0944 58.9182 21.9906 59.9555Z" fill="#101115"/>
<path d="M27.903 57.2586C27.4881 57.2586 26.9694 57.2586 26.5545 57.1548C26.5545 57.5698 26.5545 57.8809 26.5545 58.2959C26.5545 58.6071 26.762 58.8145 27.1769 58.8145C27.7993 58.8145 28.2142 59.022 28.6291 59.3332C29.044 59.6443 29.2515 60.163 29.2515 60.6816C29.2515 61.2003 29.2515 61.7189 29.2515 62.1339C29.2515 62.4451 29.1478 62.6525 28.9403 62.86C28.7328 63.0674 28.5254 63.1712 28.2142 63.0674C27.4881 63.0674 26.8657 62.9637 26.1396 62.9637C25.8284 62.9637 25.6209 62.86 25.4135 62.6525C25.206 62.4451 25.1023 62.2376 25.1023 61.9264C25.1023 61.4078 25.1023 60.9928 25.1023 60.4742C25.6209 60.4742 26.0359 60.4742 26.5545 60.5779C26.5545 60.9928 26.5545 61.304 26.5545 61.7189C26.9694 61.7189 27.4881 61.7189 27.903 61.8227C27.903 61.4078 27.903 61.0966 27.903 60.6816C27.903 60.3705 27.6955 60.163 27.2806 60.163C26.6582 60.163 26.2433 59.9555 25.8284 59.6443C25.4135 59.3332 25.206 58.8145 25.206 58.2959C25.206 57.7772 25.206 57.2586 25.206 56.8436C25.206 56.5325 25.3098 56.325 25.5172 56.1175C25.7247 55.9101 25.9321 55.8063 26.2433 55.9101C26.9694 55.9101 27.5918 56.0138 28.3179 56.0138C28.6291 56.0138 28.8366 56.1175 29.044 56.325C29.2515 56.5325 29.3552 56.7399 29.3552 57.0511C29.3552 57.5698 29.3552 57.9847 29.3552 58.5033C28.8366 58.5033 28.4216 58.5033 27.903 58.3996C27.903 57.9847 27.903 57.5698 27.903 57.2586Z" fill="#101115"/>
<path d="M31.741 60.2666C31.741 61.2002 31.741 62.2375 31.741 63.171C31.2224 63.171 30.8075 63.171 30.2888 63.171C30.2888 60.7852 30.2888 58.3995 30.2888 56.0137C30.8075 56.0137 31.2224 56.0137 31.741 56.0137C31.741 56.9472 31.741 57.9845 31.741 58.9181C31.9485 58.9181 32.156 58.9181 32.2597 58.9181C32.5709 57.9845 32.8821 56.9472 33.1933 56.0137C33.7119 56.0137 34.1268 56.0137 34.6455 56.0137C34.3343 57.1547 33.9194 58.3995 33.6082 59.5405C33.9194 60.7852 34.3343 61.9263 34.6455 63.171C34.1268 63.171 33.7119 63.171 33.1933 63.171C32.8821 62.2375 32.5709 61.2002 32.2597 60.2666C32.0522 60.2666 31.9485 60.2666 31.741 60.2666Z" fill="#101115"/>
<path d="M36.6163 61.9263C37.4461 61.9263 38.1722 61.9263 39.0021 61.9263C39.0021 62.3412 39.0021 62.8599 39.0021 63.2748C37.7573 63.2748 36.5125 63.2748 35.1641 63.2748C35.1641 60.889 35.1641 58.5032 35.1641 56.1174C36.4088 56.1174 37.6536 56.1174 39.0021 56.1174C39.0021 56.5324 39.0021 57.051 39.0021 57.4659C38.1722 57.4659 37.4461 57.4659 36.6163 57.4659C36.6163 57.9846 36.6163 58.5032 36.6163 59.0219C37.2387 59.0219 37.9648 59.0219 38.5871 59.0219C38.5871 59.4368 38.5871 59.9554 38.5871 60.3704C37.9648 60.3704 37.2387 60.3704 36.6163 60.3704C36.6163 60.889 36.6163 61.4077 36.6163 61.9263Z" fill="#101115"/>
<path d="M40.662 57.4659C40.247 57.4659 39.7284 57.4659 39.3135 57.4659C39.3135 57.051 39.3135 56.5323 39.3135 56.1174C40.662 56.1174 42.1142 56.1174 43.4627 56.0137C43.4627 56.4286 43.4627 56.9472 43.4627 57.3622C43.0477 57.3622 42.5291 57.3622 42.1142 57.3622C42.1142 59.333 42.1142 61.3039 42.1142 63.171C41.5955 63.171 41.1806 63.171 40.662 63.171C40.662 61.3039 40.662 59.4368 40.662 57.4659Z" fill="#101115"/>
<path d="M43.9812 56.1174C45.0185 56.1174 45.9521 56.1174 46.9894 56.0137C47.3006 56.0137 47.508 56.1174 47.7155 56.2211C47.9229 56.4286 48.0267 56.6361 48.0267 56.9472C48.0267 57.4659 48.0267 57.9845 48.0267 58.3995C48.0267 58.8144 47.9229 59.2293 47.6117 59.4368C48.0267 59.7479 48.2341 60.0591 48.2341 60.5778C48.2341 60.7852 48.2341 60.9927 48.2341 61.2002C48.2341 61.7188 48.0267 62.2375 47.6117 62.5486C47.1968 62.8598 46.6782 63.0673 46.1595 63.0673C45.4334 63.0673 44.811 63.0673 44.0849 63.171C43.9812 60.889 43.9812 58.5032 43.9812 56.1174ZM45.3297 57.3622C45.3297 57.8808 45.3297 58.3995 45.3297 58.9181C45.5371 58.9181 45.7446 58.9181 45.9521 58.9181C46.0558 58.9181 46.1595 58.9181 46.2633 58.8144C46.367 58.7106 46.4707 58.6069 46.4707 58.5032C46.4707 58.0883 46.4707 57.7771 46.4707 57.3622C46.1595 57.3622 45.7446 57.3622 45.3297 57.3622ZM45.3297 61.8225C45.5371 61.8225 45.7446 61.8225 45.9521 61.8225C46.367 61.8225 46.6782 61.6151 46.6782 61.3039C46.6782 61.0964 46.6782 60.889 46.6782 60.6815C46.6782 60.5778 46.6782 60.4741 46.5744 60.3703C46.4707 60.2666 46.367 60.2666 46.2633 60.2666C45.9521 60.2666 45.7446 60.2666 45.4334 60.2666C45.3297 60.7852 45.3297 61.3039 45.3297 61.8225Z" fill="#101115"/>
<path d="M50.4123 61.5117C50.3086 62.0304 50.2049 62.4453 50.1011 62.964C49.5825 62.964 49.1676 62.964 48.6489 63.0677C49.0638 60.6819 49.5825 58.2961 49.9974 55.8066C50.6198 55.8066 51.2422 55.7029 51.8645 55.7029C52.2795 58.0887 52.7981 60.4744 53.213 62.7565C52.6944 62.7565 52.2795 62.8602 51.7608 62.8602C51.6571 62.3416 51.5534 61.9267 51.4496 61.408C51.2422 61.5117 50.8272 61.5117 50.4123 61.5117ZM50.7235 60.1633C50.931 60.1633 51.1384 60.1633 51.4496 60.1633C51.3459 59.126 51.2422 58.0887 51.1384 57.1551C50.931 58.1924 50.8273 59.2297 50.7235 60.1633Z" fill="#101115"/>
<path d="M53.9395 62.7562C53.9395 60.3704 53.9395 57.9846 53.9395 55.5988C54.4581 55.5988 54.873 55.4951 55.3917 55.4951C55.3917 57.466 55.3917 59.4368 55.3917 61.304C56.0141 61.304 56.7402 61.2003 57.3625 61.2003C57.3625 61.6152 57.3625 62.1338 57.3625 62.5487C56.2215 62.6525 55.0805 62.7562 53.9395 62.7562Z" fill="#101115"/>
<path d="M57.9846 62.5487C57.9846 60.1629 57.9846 57.7771 57.9846 55.3913C58.5033 55.3913 58.9182 55.2876 59.4368 55.2876C59.4368 57.2585 59.4368 59.2293 59.4368 61.0965C60.0592 60.9927 60.7853 60.9927 61.4077 60.889C61.4077 61.3039 61.4077 61.8226 61.4077 62.2375C60.2667 62.3412 59.1256 62.445 57.9846 62.5487Z" fill="#101115"/>
<path d="M23.339 66.9058C23.6502 66.9058 24.3763 67.1132 24.3763 67.5282C24.3763 67.6319 24.3763 67.7356 24.3763 67.8393C24.2725 67.8393 24.1688 67.8393 24.0651 67.8393C24.0651 67.7356 24.0651 67.7356 24.0651 67.6319C24.0651 67.4244 23.6502 67.3207 23.4427 67.217C22.8203 67.1132 22.4054 67.4244 22.4054 68.0468C22.4054 68.6692 22.8203 69.0841 23.4427 69.1878C23.6502 69.1878 24.0651 69.1878 24.0651 68.9804C24.0651 68.8766 24.0651 68.8766 24.0651 68.7729C24.1688 68.7729 24.2725 68.7729 24.3763 68.7729C24.3763 68.8766 24.3763 68.9804 24.3763 69.0841C24.3763 69.499 23.6502 69.499 23.339 69.3953C22.5091 69.2916 21.9905 68.5655 21.9905 67.8393C21.9905 67.217 22.5091 66.802 23.339 66.9058Z" fill="white"/>
<path d="M24.791 69.3953C24.8947 69.3953 24.9985 69.3953 25.1022 69.3953C25.1022 68.773 25.1022 68.0469 25.1022 67.4245C24.9985 67.4245 24.8947 67.4245 24.791 67.4245C24.791 67.3207 24.791 67.217 24.791 67.1133C25.1022 67.1133 25.5171 67.217 25.8283 67.217C25.8283 67.3207 25.8283 67.4245 25.8283 67.5282C25.7246 67.5282 25.6209 67.5282 25.5171 67.5282C25.5171 67.8394 25.5171 68.0469 25.5171 68.358C25.932 68.4618 26.4507 68.4618 26.8656 68.4618C26.8656 68.1506 26.8656 67.9431 26.8656 67.6319C26.7619 67.6319 26.6582 67.6319 26.5544 67.6319C26.5544 67.5282 26.5544 67.4245 26.5544 67.3207C26.8656 67.3207 27.2805 67.4245 27.5917 67.4245C27.5917 67.5282 27.5917 67.6319 27.5917 67.7357C27.488 67.7357 27.3843 67.7357 27.2805 67.7357C27.2805 68.358 27.2805 69.0841 27.2805 69.7065C27.3843 69.7065 27.488 69.7065 27.5917 69.7065C27.5917 69.8103 27.5917 69.914 27.5917 70.0177C27.2805 70.0177 26.8656 69.914 26.5544 69.914C26.5544 69.8103 26.5544 69.7065 26.5544 69.6028C26.6582 69.6028 26.7619 69.6028 26.8656 69.6028C26.8656 69.2916 26.8656 69.0842 26.8656 68.773C26.4507 68.773 25.932 68.6692 25.5171 68.6692C25.5171 68.9804 25.5171 69.1879 25.5171 69.4991C25.6209 69.4991 25.7246 69.4991 25.8283 69.4991C25.8283 69.6028 25.8283 69.7065 25.8283 69.8103C25.5171 69.8103 25.1022 69.7065 24.791 69.7065C24.791 69.6028 24.791 69.4991 24.791 69.3953Z" fill="white"/>
<path d="M27.9031 69.7064C28.0068 69.7064 28.1105 69.7064 28.2143 69.7064C28.5255 68.9803 28.8366 68.2542 29.0441 67.5281C29.1478 67.5281 29.3553 67.5281 29.459 67.5281C29.7702 68.2542 30.0814 69.084 30.2889 69.8101C30.3926 69.8101 30.4963 69.8101 30.6001 69.8101C30.6001 69.9139 30.6001 70.0176 30.6001 70.1213C30.2889 70.1213 29.9777 70.1213 29.6665 70.0176C29.6665 69.9139 29.6665 69.8101 29.6665 69.7064C29.7702 69.7064 29.8739 69.7064 29.9777 69.7064C29.8739 69.4989 29.8739 69.2915 29.7702 69.084C29.459 69.084 29.1478 69.084 28.8366 68.9803C28.7329 69.1878 28.7329 69.2915 28.6292 69.4989C28.7329 69.4989 28.8366 69.4989 28.9404 69.4989C28.9404 69.6027 28.9404 69.7064 28.9404 69.8101C28.6292 69.8101 28.318 69.7064 28.0068 69.7064C27.9031 69.9139 27.9031 69.8101 27.9031 69.7064ZM29.5628 68.9803C29.459 68.6691 29.3553 68.3579 29.2516 68.0467C29.1478 68.3579 29.0441 68.5654 28.9404 68.8766C29.0441 68.9803 29.3553 68.9803 29.5628 68.9803Z" fill="white"/>
<path d="M30.7036 69.9139C30.8073 69.9139 30.9111 69.9139 31.0148 69.9139C31.1185 69.2915 31.1185 68.5654 31.2223 67.943C31.1185 67.943 31.0148 67.943 30.9111 67.943C30.9111 67.8393 30.9111 67.7356 30.9111 67.6318C31.1185 67.6318 31.4297 67.6318 31.6372 67.6318C31.8446 68.1505 32.0521 68.6691 32.3633 69.1878C32.3633 69.2915 32.467 69.3952 32.467 69.3952C32.467 69.3952 32.467 69.2915 32.5707 69.1878C32.7782 68.6691 32.9857 68.1505 33.2969 67.7356C33.5043 67.7356 33.8155 67.7356 34.023 67.7356C34.023 67.8393 34.023 67.943 34.023 68.0468C33.9192 68.0468 33.8155 68.0468 33.7118 68.0468C33.8155 68.6691 33.8155 69.3952 33.9192 70.0176C34.023 70.0176 34.1267 70.0176 34.2304 70.0176C34.2304 70.1214 34.2304 70.2251 34.2304 70.3288C33.9192 70.3288 33.5043 70.3288 33.1931 70.3288C33.1931 70.2251 33.1931 70.1214 33.1931 70.0176C33.2969 70.0176 33.4006 70.0176 33.5043 70.0176C33.5043 69.499 33.4006 68.9803 33.4006 68.4617C33.4006 68.3579 33.4006 68.2542 33.4006 68.2542C33.4006 68.2542 33.4006 68.3579 33.2969 68.4617C33.0894 68.8766 32.8819 69.2915 32.6745 69.7064C32.5707 69.7064 32.467 69.7064 32.3633 69.7064C32.1558 69.2915 31.9484 68.7729 31.7409 68.3579C31.7409 68.2542 31.6372 68.1505 31.6372 68.1505C31.6372 68.1505 31.6372 68.2542 31.6372 68.3579C31.6372 68.8766 31.5335 69.3952 31.5335 69.8102C31.6372 69.8102 31.7409 69.8102 31.8446 69.8102C31.8446 69.9139 31.8446 70.0176 31.8446 70.1214C31.5335 70.1214 31.1185 70.1214 30.8073 70.0176C30.7036 70.1214 30.7036 70.0176 30.7036 69.9139Z" fill="white"/>
<path d="M34.4382 70.1212C34.5419 70.1212 34.6457 70.1212 34.7494 70.1212C34.7494 69.4988 34.7494 68.7727 34.7494 68.1503C34.6457 68.1503 34.5419 68.1503 34.4382 68.1503C34.4382 68.0466 34.4382 67.9428 34.4382 67.8391C34.8531 67.8391 35.268 67.8391 35.683 67.8391C35.8904 67.8391 35.9941 67.8391 36.0979 67.9428C36.4091 68.0466 36.5128 68.3578 36.5128 68.6689C36.5128 68.9801 36.3053 69.2913 35.9942 69.3951C35.8904 69.3951 35.7867 69.3951 35.5792 69.3951C35.3718 69.3951 35.1643 69.3951 35.0606 69.3951C35.0606 69.6025 35.0606 69.81 35.0606 70.0174C35.1643 70.0174 35.268 70.0174 35.3718 70.0174C35.3718 70.1212 35.3718 70.2249 35.3718 70.3286C35.0606 70.3286 34.6457 70.3286 34.3345 70.3286C34.4382 70.3286 34.4382 70.2249 34.4382 70.1212ZM35.683 69.1876C35.7867 69.1876 35.8904 69.1876 35.9942 69.1876C36.2016 69.0839 36.3053 68.9801 36.3053 68.7727C36.3053 68.5652 36.2016 68.4615 36.0979 68.3578C35.9941 68.3578 35.8904 68.254 35.7867 68.254C35.5792 68.254 35.4755 68.254 35.268 68.254C35.268 68.5652 35.268 68.8764 35.268 69.2913C35.3718 69.1876 35.4755 69.1876 35.683 69.1876Z" fill="white"/>
<path d="M36.9275 70.1212C37.0312 70.1212 37.135 70.1212 37.2387 70.1212C37.2387 69.4988 37.2387 68.7727 37.2387 68.1503C37.135 68.1503 37.0312 68.1503 36.9275 68.1503C36.9275 68.0466 36.9275 67.9428 36.9275 67.8391C37.2387 67.8391 37.6536 67.8391 37.9648 67.8391C37.9648 67.9428 37.9648 68.0466 37.9648 68.1503C37.8611 68.1503 37.7573 68.1503 37.6536 68.1503C37.6536 68.7727 37.6536 69.4988 37.6536 70.1212C37.7573 70.1212 37.8611 70.1212 37.9648 70.1212C37.9648 70.2249 37.9648 70.3286 37.9648 70.4324C37.6536 70.4324 37.2387 70.4324 36.9275 70.4324C36.9275 70.3286 36.9275 70.2249 36.9275 70.1212Z" fill="white"/>
<path d="M39.7284 67.8391C40.5582 67.8391 41.0769 68.3578 41.0769 69.0839C41.0769 69.81 40.4545 70.4324 39.7284 70.4324C38.8985 70.4324 38.3799 69.9137 38.3799 69.0839C38.3799 68.4615 39.0023 67.8391 39.7284 67.8391ZM39.7284 70.1212C40.247 70.1212 40.7657 69.7062 40.7657 69.0839C40.7657 68.5652 40.3507 68.1503 39.7284 68.1503C39.2097 68.1503 38.6911 68.5652 38.6911 69.0839C38.7948 69.7062 39.2097 70.1212 39.7284 70.1212Z" fill="white"/>
<path d="M41.4919 70.1214C41.5957 70.1214 41.6994 70.1214 41.8031 70.1214C41.8031 69.499 41.8031 68.7729 41.8031 68.1505C41.6994 68.1505 41.5957 68.1505 41.4919 68.1505C41.4919 68.0468 41.4919 67.943 41.4919 67.8393C41.6994 67.8393 42.0106 67.8393 42.2181 67.8393C42.633 68.4617 43.1516 68.9803 43.5665 69.6027C43.5665 69.7064 43.6703 69.8102 43.6703 69.8102C43.6703 69.8102 43.6703 69.7064 43.6703 69.6027C43.6703 69.0841 43.6703 68.5654 43.6703 68.0468C43.5665 68.0468 43.4628 68.0468 43.3591 68.0468C43.3591 67.943 43.3591 67.8393 43.3591 67.7356C43.6703 67.7356 44.0852 67.7356 44.3964 67.6318C44.3964 67.7356 44.3964 67.8393 44.3964 67.943C44.2926 67.943 44.1889 67.943 44.0852 67.943C44.0852 68.6691 44.0852 69.3952 44.0852 70.2251C43.9815 70.2251 43.8777 70.2251 43.6703 70.2251C43.2553 69.6027 42.7367 69.0841 42.3218 68.4617C42.3218 68.3579 42.2181 68.2542 42.2181 68.2542C42.2181 68.2542 42.2181 68.3579 42.2181 68.4617C42.2181 68.9803 42.2181 69.499 42.2181 70.0176C42.3218 70.0176 42.4255 70.0176 42.5292 70.0176C42.5292 70.1214 42.5292 70.2251 42.5292 70.3288C42.2181 70.3288 41.8031 70.3288 41.4919 70.3288C41.4919 70.3288 41.4919 70.2251 41.4919 70.1214Z" fill="white"/>
<path d="M45.1225 69.4988C45.1225 69.6025 45.1225 69.6025 45.1225 69.7062C45.1225 69.9137 45.3299 70.0174 45.6411 70.0174C45.9523 70.0174 46.1598 69.81 46.1598 69.6025C46.1598 69.2913 45.8486 69.1876 45.5374 69.1876C45.2262 69.0839 44.8113 68.9801 44.8113 68.5652C44.8113 68.0466 45.2262 67.8391 45.6411 67.8391C46.056 67.8391 46.471 67.9428 46.471 68.1503C46.471 68.254 46.471 68.3578 46.471 68.4615C46.3672 68.4615 46.2635 68.4615 46.1598 68.4615C46.1598 68.3578 46.1598 68.3578 46.1598 68.254C46.1598 68.1503 45.9523 68.0466 45.7448 68.0466C45.4337 68.0466 45.2262 68.1503 45.2262 68.4615C45.2262 68.7727 45.5374 68.7727 45.8486 68.8764C46.2635 68.9801 46.6784 69.0839 46.6784 69.6025C46.6784 70.1212 46.2635 70.3286 45.7448 70.4324C45.3299 70.4324 44.8113 70.3286 44.8113 69.9137C44.8113 69.81 44.8113 69.7062 44.8113 69.6025C44.8113 69.4988 45.0187 69.4988 45.1225 69.4988Z" fill="white"/>
<path d="M46.9893 69.81C47.093 69.81 47.1967 69.81 47.3004 69.81C47.3004 69.1877 47.3004 68.4616 47.3004 67.8392C47.1967 67.8392 47.093 67.8392 46.9893 67.8392C46.9893 67.7354 46.9893 67.6317 46.9893 67.528C47.3004 67.528 47.7154 67.4243 48.0266 67.4243C48.0266 67.528 48.0266 67.6317 48.0266 67.7354C47.9228 67.7354 47.8191 67.7354 47.7154 67.7354C47.7154 68.0466 47.7154 68.2541 47.7154 68.5653C48.234 68.5653 48.6489 68.4616 49.0639 68.4616C49.0639 68.1504 49.0639 67.9429 49.0639 67.6317C48.9601 67.6317 48.8564 67.6317 48.7527 67.6317C48.7527 67.528 48.7527 67.4243 48.7527 67.3205C49.0639 67.3205 49.4788 67.2168 49.79 67.2168C49.79 67.3205 49.79 67.4243 49.79 67.528C49.6862 67.528 49.5825 67.528 49.4788 67.528C49.4788 68.1504 49.4788 68.8765 49.4788 69.4988C49.5825 69.4988 49.6862 69.4988 49.79 69.4988C49.79 69.6026 49.79 69.7063 49.79 69.81C49.4788 69.81 49.0639 69.9138 48.7527 69.9138C48.7527 69.81 48.7527 69.7063 48.7527 69.6026C48.8564 69.6026 48.9601 69.6026 49.0639 69.6026C49.0639 69.2914 49.0639 69.0839 49.0639 68.7727C48.6489 68.7727 48.1303 68.8765 47.7154 68.8765C47.7154 69.1877 47.7154 69.3951 47.7154 69.7063C47.8191 69.7063 47.9228 69.7063 48.0266 69.7063C48.0266 69.81 48.0266 69.9138 48.0266 70.0175C47.7154 70.0175 47.3004 70.1212 46.9893 70.1212C46.9893 70.0175 46.9893 69.9138 46.9893 69.81Z" fill="white"/>
<path d="M50.2048 69.4991C50.3086 69.4991 50.4123 69.4991 50.516 69.4991C50.516 68.8767 50.516 68.1506 50.516 67.5282C50.4123 67.5282 50.3086 67.5282 50.2048 67.5282C50.2048 67.4245 50.2048 67.3207 50.2048 67.217C50.516 67.217 50.9309 67.1133 51.2421 67.1133C51.2421 67.217 51.2421 67.3207 51.2421 67.4245C51.1384 67.4245 51.0347 67.4245 50.9309 67.4245C50.9309 68.0469 50.9309 68.773 50.9309 69.3953C51.0347 69.3953 51.1384 69.3953 51.2421 69.3953C51.2421 69.4991 51.2421 69.6028 51.2421 69.7065C50.9309 69.7065 50.516 69.8103 50.2048 69.8103C50.2048 69.7065 50.2048 69.6028 50.2048 69.4991Z" fill="white"/>
<path d="M51.6575 69.2913C51.7612 69.2913 51.8649 69.2913 51.9687 69.2913C51.9687 68.6689 51.9687 67.9428 51.9687 67.3204C51.8649 67.3204 51.7612 67.3204 51.6575 67.3204C51.6575 67.2167 51.6575 67.1129 51.6575 67.0092C52.0724 66.9055 52.4873 66.9055 52.9022 66.8018C53.1097 66.8018 53.2134 66.8018 53.3171 66.8018C53.6283 66.9055 53.7321 67.1129 53.7321 67.4241C53.7321 67.7353 53.5246 68.0465 53.2134 68.254C53.2134 68.4614 53.006 68.4614 52.9022 68.4614C52.6948 68.4614 52.591 68.4614 52.3836 68.5652C52.3836 68.7726 52.3836 68.9801 52.3836 69.1875C52.4873 69.1875 52.591 69.1875 52.6948 69.1875C52.6948 69.2913 52.6948 69.395 52.6948 69.4987C52.3836 69.4987 51.9687 69.6025 51.6575 69.6025C51.6575 69.4987 51.6575 69.395 51.6575 69.2913ZM52.9022 68.1502C53.006 68.1502 53.1097 68.1502 53.2134 68.0465C53.4209 67.9428 53.5246 67.7353 53.5246 67.5279C53.5246 67.3204 53.4209 67.2167 53.3171 67.1129C53.2134 67.1129 53.1097 67.1129 53.006 67.1129C52.7985 67.1129 52.6948 67.1129 52.4873 67.2167C52.4873 67.5279 52.4873 67.8391 52.4873 68.254C52.4873 68.254 52.6948 68.1502 52.9022 68.1502Z" fill="white"/>
<path d="M37.8615 72.5068L38.6913 74.2702L40.6622 74.5814L39.3137 76.0336L39.6249 77.9008L37.8615 77.0709L36.0981 77.9008L36.4092 76.0336L34.957 74.5814L36.9279 74.2702L37.8615 72.5068Z" fill="#F49117"/>
<path d="M42.633 72.7146L43.5666 73.5444L44.6039 73.2332L44.1889 74.2705L44.7076 75.3078L43.6703 75.2041L42.8405 76.034L42.633 74.8929L41.5957 74.478L42.5293 73.8556L42.633 72.7146Z" fill="#F49117"/>
<path d="M32.8822 72.7146L32.0524 73.5444L30.9113 73.2332L31.3263 74.2705L30.8076 75.3078L31.9486 75.2041L32.6748 76.034L32.8822 74.8929L34.0232 74.478L32.9859 73.8556L32.8822 72.7146Z" fill="#F49117"/>
<defs>
<radialGradient id="paint0_radial_137_980" cx="0" cy="0" r="1" gradientUnits="userSpaceOnUse" gradientTransform="translate(40.6193 33.0732) rotate(6.34399) scale(10.5431)">
<stop stop-color="white"/>
<stop offset="0.4143" stop-color="#FAFAFA"/>
<stop offset="0.8914" stop-color="#ECECEC"/>
<stop offset="1" stop-color="#E8E8E8"/>
</radialGradient>
<radialGradient id="paint1_radial_137_980" cx="0" cy="0" r="1" gradientUnits="userSpaceOnUse" gradientTransform="translate(40.9147 34.6397) rotate(6.34399) scale(11.1458)">
<stop stop-color="white"/>
<stop offset="0.4143" stop-color="#FAFAFA"/>
<stop offset="0.8914" stop-color="#ECECEC"/>
<stop offset="1" stop-color="#E8E8E8"/>
</radialGradient>
<radialGradient id="paint2_radial_137_980" cx="0" cy="0" r="1" gradientUnits="userSpaceOnUse" gradientTransform="translate(46.7683 29.4151) rotate(6.34399) scale(4.43829)">
<stop stop-color="white"/>
<stop offset="0.4143" stop-color="#FAFAFA"/>
<stop offset="0.8914" stop-color="#ECECEC"/>
<stop offset="1" stop-color="#E8E8E8"/>
</radialGradient>
<radialGradient id="paint3_radial_137_980" cx="0" cy="0" r="1" gradientUnits="userSpaceOnUse" gradientTransform="translate(40.5202 39.0019) rotate(6.34399) scale(4.17833)">
<stop stop-color="white"/>
<stop offset="0.4143" stop-color="#FAFAFA"/>
<stop offset="0.8914" stop-color="#ECECEC"/>
<stop offset="1" stop-color="#E8E8E8"/>
</radialGradient>
</defs>
</svg>
