<svg width="64" height="76" viewBox="0 0 64 76" fill="none" xmlns="http://www.w3.org/2000/svg">
<path d="M60.0998 23.6175C60.0998 23.6175 51.4998 23.6175 49.7998 13.1175L31.5998 8.91748L13.4998 13.1175C11.7998 23.6175 3.19978 23.6175 3.19978 23.6175C1.09978 55.6175 31.6998 72.3175 31.6998 72.3175C32.1998 72.0175 62.1998 55.6175 60.0998 23.6175Z" fill="#101115"/>
<path opacity="0.2" d="M32.2999 9.01758L4.29985 37.0176C4.49985 38.0176 4.69985 38.9176 4.99985 39.8176L35.0999 9.71758L32.2999 9.01758ZM38.5999 10.5176L6.09985 43.0176C6.39985 43.8176 6.79985 44.7176 7.09985 45.5176L41.3999 11.1176L38.5999 10.5176ZM22.4999 11.0176L3.19985 30.3176C3.29985 31.4176 3.39985 32.4176 3.59985 33.4176L27.0999 9.91758L22.4999 11.0176ZM3.19985 23.6176C3.09985 24.4176 3.09985 25.2176 3.09985 26.1176L6.19985 23.0176C4.49985 23.6176 3.19985 23.6176 3.19985 23.6176ZM60.0999 23.6176C60.0999 23.6176 58.8999 23.6176 57.2999 23.1176L18.4999 61.9176C19.0999 62.5176 19.6999 63.1176 20.2999 63.6176L60.0999 23.8176C60.0999 23.7176 60.0999 23.7176 60.0999 23.6176ZM13.4999 13.1176C13.2999 14.4176 12.9999 15.6176 12.4999 16.6176L16.7999 12.3176L13.4999 13.1176ZM28.8999 70.6176L57.5999 41.9176C58.0999 40.3176 58.5999 38.7176 58.9999 37.0176L26.8999 69.2176C27.5999 69.7176 28.2999 70.2176 28.8999 70.6176ZM22.4999 65.7176C23.1999 66.3176 23.7999 66.8176 24.3999 67.3176L59.8999 31.8176C59.9999 30.6176 60.0999 29.3176 60.0999 28.1176L22.4999 65.7176ZM31.6999 72.3176C32.0999 72.1176 45.8999 64.5176 54.0999 49.8176L31.6999 72.3176ZM44.9999 12.0176L8.49985 48.4176C8.89985 49.2176 9.29985 49.9176 9.69985 50.6176L47.6999 12.6176L44.9999 12.0176ZM52.6999 19.9176L14.7999 57.8176C15.2999 58.4176 15.8999 59.1176 16.3999 59.7176L54.4999 21.6176C53.8999 21.2176 53.2999 20.6176 52.6999 19.9176ZM50.0999 14.7176L11.4999 53.3176C11.9999 54.0176 12.4999 54.7176 12.8999 55.3176L50.9999 17.3176C50.6999 16.5176 50.2999 15.6176 50.0999 14.7176Z" fill="#3F3F3F"/>
<path d="M12.6999 8.51758C10.0999 11.4176 8.19987 15.0176 7.19987 18.9176C5.29987 20.4176 3.19987 20.6176 3.19987 20.6176L0.399868 20.7176L0.199868 23.5176L0.0998683 26.9176C-0.000131711 58.1176 28.8999 74.3176 30.1999 75.0176L31.6999 75.8176L33.1999 75.0176C34.3999 74.3176 63.3999 58.3176 63.3999 26.8176L63.2999 23.4176L62.9999 20.6176L60.1999 20.5176C60.1999 20.5176 58.0999 20.3176 56.0999 18.8176C54.7999 13.9176 52.1999 9.61758 48.4999 6.41758C37.9999 -2.88242 21.9999 -1.98242 12.6999 8.51758ZM3.19987 21.8176C3.19987 21.8176 5.79987 21.7176 8.09987 19.8176L8.29987 19.7176V19.5176C9.29987 15.7176 11.0999 12.2176 13.5999 9.41758C22.3999 -0.582419 37.6999 -1.48242 47.6999 7.41758C51.2999 10.6176 53.7999 14.7176 54.9999 19.5176V19.7176L55.1999 19.8176C57.4999 21.7176 60.0999 21.9176 60.1999 21.9176C60.1999 21.9176 61.2999 21.9176 61.8999 21.9176C61.8999 22.5176 61.9999 23.6176 61.9999 23.6176L62.0999 26.9176C62.0999 57.7176 33.7999 73.3176 32.5999 74.0176C32.5999 74.0176 31.9999 74.3176 31.6999 74.5176C31.3999 74.3176 30.7999 74.0176 30.7999 74.0176C29.5999 73.3176 1.19987 57.4176 1.19987 26.8176L1.29987 23.5176C1.29987 23.5176 1.39987 22.4176 1.39987 21.8176C2.09987 21.8176 3.19987 21.8176 3.19987 21.8176Z" fill="#101115"/>
<path d="M31.6999 63.8176L32.3999 65.4176L34.1999 65.6176L32.8999 66.9176L33.1999 68.6176L31.6999 67.8176L30.0999 68.6176L30.3999 66.9176L29.0999 65.6176L30.8999 65.4176L31.6999 63.8176Z" fill="#F49117"/>
<path d="M9.39984 26.7175C9.69984 32.6175 12.3998 38.1175 16.7998 42.1175C25.9998 50.3175 40.0998 49.4175 48.2998 40.3175C52.2998 35.8175 54.1998 30.1175 53.8998 24.2175C53.5998 18.3175 50.8998 12.8175 46.4998 8.81747C37.2998 0.517468 23.0998 1.41747 14.9998 10.6175C10.9998 15.0175 8.99984 20.7175 9.39984 26.7175Z" fill="#101115"/>
<path d="M45.1 10.2176C53.5 17.6176 54.2 30.5176 46.8 38.9176C39.4 47.3176 26.5 48.0176 18.1 40.6176C9.79995 33.1176 8.99995 20.3176 16.5 11.9176C23.9 3.51755 36.7 2.81755 45.1 10.2176Z" fill="#F49117"/>
<path opacity="0.4" d="M46.2998 29.6174C38.8998 38.0174 25.9998 38.7174 17.5998 31.3174C14.6998 28.7174 12.6998 25.4174 11.6998 21.9174C10.4998 28.6174 12.6998 35.7174 18.1998 40.6174C26.5998 48.1174 39.3998 47.3174 46.8998 38.9174C51.6998 33.4174 53.0998 26.1174 51.1998 19.6174C50.3998 23.2174 48.8998 26.6174 46.2998 29.6174Z" fill="#F49117"/>
<path d="M46.9999 17.3174C46.9999 17.3174 33.3999 19.9174 19.8999 27.7174C19.8999 27.7174 33.8999 17.5174 46.9999 17.3174Z" fill="url(#paint0_radial_137_1147)"/>
<path d="M29.2998 9.21753C29.2998 9.21753 34.2998 13.2175 38.0998 20.5175C41.8998 27.8175 41.1998 37.3175 41.1998 37.3175C41.1998 37.3175 40.8998 27.7175 36.9998 21.0175C32.9998 14.3175 29.2998 9.21753 29.2998 9.21753Z" fill="url(#paint1_radial_137_1147)"/>
<path d="M26.7998 16.2175C26.7998 16.2175 33.0998 17.9175 36.3998 15.8175C39.7998 13.7175 40.0998 11.7175 40.0998 9.71753C40.0998 9.71753 38.2998 13.6175 36.2998 14.5175C34.3998 15.5175 26.7998 16.2175 26.7998 16.2175Z" fill="url(#paint2_radial_137_1147)"/>
<path d="M32.9998 28.0175C32.9998 28.0175 35.0998 24.8175 37.6998 23.9175C40.2998 22.9175 43.8998 23.9175 46.6998 26.6175C46.6998 26.6175 42.2998 21.1175 37.3998 22.5175C33.5998 23.6175 32.9998 28.0175 32.9998 28.0175Z" fill="url(#paint3_radial_137_1147)"/>
<path d="M37.5998 14.4174L38.3998 13.6174C39.7998 12.1174 40.4998 9.91743 40.5998 7.01743V6.91743L39.4998 6.41743V6.61743C39.4998 9.71743 38.5998 12.0174 36.8998 13.4174C36.1998 14.0174 35.1998 14.5174 34.0998 14.8174C31.1998 10.7174 28.1998 7.61743 26.0998 5.81743L25.8998 5.61743L25.5998 5.71743L24.5998 6.01743L24.7998 6.21743C24.9998 6.31743 25.0998 6.51743 25.2998 6.61743C27.0998 8.21743 29.9998 11.0174 32.7998 14.9174C29.5998 15.4174 25.8998 14.8174 23.2998 14.1174C18.6998 13.0174 15.6998 14.3174 13.5998 15.6174C13.4998 15.7174 12.9998 16.8174 12.9998 16.8174L12.7998 17.2174L13.1998 17.0174L13.8998 16.7174C15.7998 15.7174 18.8998 14.1174 23.0998 15.2174C25.3998 15.8174 29.6998 16.7174 33.5998 15.9174C33.6998 16.0174 34.9998 18.2174 35.1998 18.5174C24.7998 22.2174 15.7998 28.8174 12.3998 31.5174L12.2998 31.6174L12.6998 32.7174L12.8998 32.6174C16.2998 29.9174 25.3998 23.2174 35.7998 19.5174C35.8998 19.7174 36.8998 21.7174 36.9998 22.0174C33.5998 23.7174 31.6998 27.7174 30.0998 31.3174C29.3998 32.9174 28.6998 34.3174 27.9998 35.5174C25.4998 39.4174 23.6998 41.9174 22.4998 43.2174L22.3998 43.4174L22.8998 43.6174L23.4998 43.9174L23.5998 43.8174C24.6998 42.4174 26.5998 39.9174 28.9998 36.1174C29.7998 34.9174 30.4998 33.4174 31.1998 31.8174C32.6998 28.4174 34.4998 24.6174 37.4998 23.1174C40.1998 30.0174 40.8998 37.0174 39.3998 44.0174L39.2998 44.3174L40.4998 43.8174C41.9998 36.7174 41.1998 29.7174 38.2998 22.9174C39.4998 22.6174 40.7998 22.8174 42.1998 23.3174C43.2998 23.8174 44.3998 24.5174 45.4998 25.4174C47.4998 27.1174 49.1998 29.6174 50.3998 32.4174L50.5998 32.8174L51.0998 31.3174C49.7998 28.5174 48.0998 26.2174 46.1998 24.5174C45.0998 23.5174 43.8998 22.7174 42.6998 22.2174C40.9998 21.5174 39.3998 21.3174 37.9998 21.7174C37.8998 21.5174 36.8998 19.5174 36.7998 19.2174C41.5998 17.6174 46.0998 16.9174 50.1998 17.2174H50.4998L49.9998 16.0174H49.8998C45.6998 15.8174 41.0998 16.6174 36.2998 18.2174C36.1998 18.0174 34.9998 16.0174 34.7998 15.7174C35.7998 15.5174 36.7998 15.0174 37.5998 14.4174Z" fill="#101115"/>
<path d="M31.1 28.9174V29.4174C30.6 29.1174 30 28.9174 29.2999 28.9174H25.7999C24.9 28.9174 24.2 29.2174 23.5 29.8174C23.1 30.2174 22.8 30.6174 22.7 31.0174L22.3 28.9174H16.6L16.3 31.0174C16.1 30.6174 15.9 30.1174 15.5 29.8174C14.9 29.2174 14.1 28.9174 13.2 28.9174H6.69995V43.9174H11.7C12.5 43.9174 13.2 43.8174 13.8 43.5174L13.7 43.9174H15.5V56.6174H20.5C21.3 56.6174 22.0999 56.4174 22.7999 56.1174L22.7 56.6174H28.2C28.2 56.6174 28.4 55.8174 28.4 55.5174C28.5 55.8174 28.6 56.6174 28.6 56.6174H47.4V51.3174C47.4 51.3174 45 51.3174 44.0999 51.3174V43.8174H54.0999C54.0999 43.8174 54.0999 36.3174 54.0999 34.1174C54.3999 34.1174 56.4 34.1174 56.4 34.1174V28.8174H31.1V28.9174ZM48.0999 34.2174C48.3999 34.2174 48.7999 34.2174 48.7999 34.2174H48.9V38.6174H48.2V34.2174H48.0999Z" fill="#101115"/>
<path d="M8.30005 30.5176H13.2C13.7 30.5176 14.1 30.7176 14.4 31.0176C14.7 31.3176 14.9 31.7176 14.9 32.1176V34.5176C14.9 35.2176 14.6 35.8176 14.1 36.3176C14.8 36.8176 15.2 37.4176 15.2 38.3176V39.4176C15.2 40.3176 14.9 41.0176 14.2 41.6176C13.5 42.1176 12.7 42.4176 11.8 42.4176H8.30005V30.5176ZM10.6 32.7176V35.3176H11.7C11.9 35.3176 12.1 35.2176 12.3 35.1176C12.5 34.9176 12.6 34.8176 12.6 34.6176V32.7176H10.6ZM10.6 40.1176H11.7C12.4 40.1176 12.8 39.8176 12.8 39.3176V38.2176C12.8 38.0176 12.7 37.8176 12.5 37.7176C12.3 37.6176 12.1 37.5176 11.9 37.5176H10.5V40.1176H10.6Z" fill="white"/>
<path d="M18.5001 39.9175L18.0001 42.3175H15.6001L17.9001 30.4175H21.0001L23.3001 42.3175H21.0001L20.5001 39.9175H18.5001ZM18.9001 37.7175H20.1001L19.5001 32.6175L18.9001 37.7175Z" fill="white"/>
<path d="M28.7001 32.7174H26.5001V34.6174C26.5001 35.1174 26.9001 35.4174 27.6001 35.4174C28.6001 35.4174 29.4001 35.7174 30.0001 36.2174C30.7001 36.8174 31.0001 37.5174 31.0001 38.4174V40.9174C31.0001 41.3174 30.8001 41.7174 30.5001 42.0174C30.2001 42.3174 29.8001 42.5174 29.3001 42.5174H25.8001C25.3001 42.5174 24.9001 42.3174 24.6001 42.0174C24.3001 41.7174 24.1001 41.3174 24.1001 40.9174V38.5174H26.5001V40.3174H28.7001V38.4174C28.7001 37.9174 28.3001 37.6174 27.6001 37.6174C26.6001 37.6174 25.8001 37.3174 25.2001 36.8174C24.5001 36.2174 24.2001 35.5174 24.2001 34.6174V32.2174C24.2001 31.8174 24.4001 31.4174 24.7001 31.1174C25.0001 30.8174 25.4001 30.6174 25.9001 30.6174H29.4001C29.9001 30.6174 30.3001 30.8174 30.6001 31.1174C30.9001 31.4174 31.1001 31.8174 31.1001 32.2174V34.6174H28.7001V32.7174Z" fill="white"/>
<path d="M35.0001 37.5176V42.3176H32.6001V30.5176H35.0001V35.3176H35.9001L37.4001 30.5176H39.8001L38.0001 36.4176L39.8001 42.3176H37.4001L35.9001 37.5176H35.0001Z" fill="white"/>
<path d="M43.2001 40.1176H47.1V42.3176H40.8V30.5176H47.1V32.7176H43.2001V35.3176H46.5V37.5176H43.2001V40.1176Z" fill="white"/>
<path d="M50.3 32.7176H48V30.5176H55V32.7176H52.7V42.4176H50.3V32.7176Z" fill="white"/>
<path d="M17.1001 43.2175H22.0001C22.5001 43.2175 22.9001 43.4175 23.2001 43.7175C23.5001 44.0175 23.7001 44.4175 23.7001 44.8175V47.3175C23.7001 48.0175 23.4001 48.6175 22.9001 49.1175C23.6001 49.6175 24.0001 50.2175 24.0001 51.1175V52.2175C24.0001 53.1175 23.7001 53.8175 23.0001 54.4175C22.3001 54.9175 21.5001 55.2175 20.6001 55.2175H17.1001V43.2175ZM19.5001 45.4175V48.0175H20.6001C20.8001 48.0175 21.0001 47.9175 21.2001 47.8175C21.4001 47.6175 21.5001 47.5175 21.5001 47.3175V45.4175H19.5001ZM19.5001 52.9175H20.6001C21.3001 52.9175 21.7001 52.6175 21.7001 52.1175V51.0175C21.7001 50.8175 21.6001 50.6175 21.4001 50.5175C21.2001 50.4175 21.0001 50.3175 20.8001 50.3175H19.4001V52.9175H19.5001Z" fill="white"/>
<path d="M27.5001 52.7175L27.0001 55.1175H24.6001L27.0001 43.2175H30.1001L32.4001 55.1175H30.0001L29.5001 52.7175H27.5001ZM27.9001 50.5175H29.1001L28.5001 45.4175L27.9001 50.5175Z" fill="white"/>
<path d="M33.5 55.1175V43.2175H35.9V52.9175H39.2V55.1175H33.5Z" fill="white"/>
<path d="M40.3 55.1175V43.2175H42.7001V52.9175H46V55.1175H40.3Z" fill="white"/>
<path d="M17.1 49.3175V55.1175H20.6C21.6 55.1175 22.4 54.8175 23 54.3175C23.7 53.7175 24 53.0175 24 52.1175V51.0175C24 50.3175 23.8 49.7175 23.3 49.3175H17.1ZM21.7 52.1175C21.7 52.6175 21.3 52.9175 20.6 52.9175H19.5V50.3175H20.9C21.1 50.3175 21.3 50.4175 21.5 50.5175C21.7 50.6175 21.8 50.8175 21.8 51.0175V52.1175H21.7ZM42.7001 49.3175H40.3V55.1175H45.9001V52.9175H42.6V49.3175H42.7001ZM29 49.3175L29.1 50.5175H27.9L28 49.3175H25.7001L24.6 55.1175H27L27.5 52.7175H29.5L30 55.1175H32.4001L31.3 49.3175H29ZM35.9001 49.3175H33.5V55.1175H39.1V52.9175H35.8V49.3175H35.9001ZM43.2001 37.5175H46.5V36.5175H40.9001V42.4175H47.2001V40.2175H43.3V37.5175H43.2001ZM29.3 42.3175C29.8 42.3175 30.2001 42.1175 30.5 41.8175C30.8 41.5175 31 41.1175 31 40.7175V38.2175C31 37.5175 30.8 36.9175 30.4 36.4175H24.9C25 36.5175 25.1 36.6175 25.2001 36.7175C25.8001 37.2175 26.7 37.5175 27.6 37.5175C28.3 37.5175 28.7001 37.8175 28.7001 38.3175V40.2175H26.5V38.4175H24.1V40.8175C24.1 41.2175 24.3 41.6175 24.6 41.9175C24.9 42.2175 25.3 42.4175 25.8 42.4175H29.3V42.3175ZM50.3 36.5175V42.4175H52.7001V36.5175H50.3ZM32.6 36.5175V42.4175H35V37.6175H35.9001L37.4001 42.4175H39.8L38 36.5175H32.6ZM18.5 39.9175H20.5L21 42.3175H23.4L22.3 36.4175H20L20.1 37.7175H18.9L19 36.4175H16.7L15.6 42.3175H18L18.5 39.9175ZM8.30005 36.5175V42.4175H11.8C12.8 42.4175 13.6 42.1175 14.2 41.6175C14.9 41.0175 15.2 40.3175 15.2 39.4175V38.3175C15.2 37.5175 14.9 37.0175 14.4 36.5175H8.30005ZM12.9 39.4175C12.9 39.9175 12.5 40.2175 11.8 40.2175H10.7V37.6175H12C12.2 37.6175 12.4 37.7175 12.6 37.8175C12.8 37.9175 12.9 38.1175 12.9 38.3175V39.4175Z" fill="#CFCFCF"/>
<path d="M21.3998 61.5176H21.7998V58.7176H21.3998V58.3176H22.7998V58.7176H22.2998V61.4176H23.4998V60.8176H23.8998V61.8176H21.2998V61.5176H21.3998Z" fill="white"/>
<path d="M24.4998 61.5176H24.8998V58.7176H24.4998V58.3176H27.0998V59.1176H26.6998V58.7176H25.4998V59.8176H26.7998V60.2176H25.4998V61.4176H26.7998V61.0176H27.1998V61.8176H24.4998V61.5176Z" fill="white"/>
<path d="M27.4998 61.5176H27.7998L28.8998 58.3176H29.4998L30.5998 61.5176H30.9998V61.9176H29.7998V61.5176H30.1998L29.8998 60.7176H28.5998L28.2998 61.5176H28.6998V61.9176H27.4998V61.5176ZM29.7998 60.3176L29.3998 59.1176C29.2998 59.0176 29.2998 58.8176 29.2998 58.8176C29.2998 58.8176 29.2998 58.9176 29.1998 59.1176L28.7998 60.3176H29.7998Z" fill="white"/>
<path d="M33.0997 58.3176C33.6997 58.3176 34.4997 58.6176 34.4997 59.0176V59.4176H33.9997V59.1176C33.9997 58.8176 33.4997 58.7176 33.0997 58.7176C32.2997 58.7176 31.6997 59.3176 31.6997 60.1176C31.6997 60.9176 32.1997 61.5176 33.0997 61.5176C33.3997 61.5176 34.0997 61.4176 34.0997 61.1176V60.6176H33.3997V60.2176H34.5997V61.2176C34.5997 61.8176 33.6997 61.9176 33.0997 61.9176C31.9997 61.9176 31.1997 61.1176 31.1997 60.0176C31.1997 59.0176 31.9997 58.3176 33.0997 58.3176Z" fill="white"/>
<path d="M35.4998 58.7176H34.9998V58.3176H36.3998V58.7176H35.9998V60.5176C35.9998 60.7176 35.9998 60.9176 36.0998 61.1176C36.1998 61.3176 36.4998 61.5176 36.8998 61.5176C37.1998 61.5176 37.4998 61.4176 37.6998 61.1176C37.7998 61.0176 37.7998 60.8176 37.7998 60.5176V58.7176H37.2998V58.3176H38.6998V58.7176H38.2998V60.6176C38.2998 60.9176 38.1998 61.2176 38.0998 61.5176C37.8998 61.8176 37.3998 62.0176 36.8998 62.0176C36.3998 62.0176 35.9998 61.8176 35.6998 61.5176C35.4998 61.3176 35.4998 61.0176 35.4998 60.6176V58.7176Z" fill="white"/>
<path d="M39.1997 61.5176H39.5997V58.7176H39.1997V58.3176H41.7997V59.1176H41.3997V58.7176H40.1997V59.8176H41.4997V60.2176H40.1997V61.4176H41.4997V61.0176H41.8997V61.8176H39.1997V61.5176Z" fill="white"/>
<path fill-rule="evenodd" clip-rule="evenodd" d="M56.3999 15.1177C56.9999 17.7177 58.2999 18.8177 60.1999 18.6177C60.1999 16.8177 58.8999 15.7177 56.3999 15.1177Z" fill="#101115"/>
<path fill-rule="evenodd" clip-rule="evenodd" d="M55.0999 11.7175C56.1999 14.1175 57.6999 15.0175 59.4999 14.4175C59.1999 12.6175 57.6999 11.8175 55.0999 11.7175Z" fill="#101115"/>
<path fill-rule="evenodd" clip-rule="evenodd" d="M52.8999 8.41769C54.2999 10.6177 55.8999 11.3177 57.5999 10.4177C57.0999 8.81769 55.4999 8.11769 52.8999 8.41769Z" fill="#101115"/>
<path fill-rule="evenodd" clip-rule="evenodd" d="M50.1997 5.41757C51.7997 7.51757 53.4997 8.01757 55.0997 6.91757C54.3997 5.31757 52.7997 4.81757 50.1997 5.41757Z" fill="#101115"/>
<path fill-rule="evenodd" clip-rule="evenodd" d="M48.7998 1.31763C49.8998 3.71763 51.3998 4.61763 53.1998 3.91763C52.7998 2.31763 51.3998 1.41763 48.7998 1.31763Z" fill="#101115"/>
<path fill-rule="evenodd" clip-rule="evenodd" d="M54.1999 1.51758C56.2999 3.01758 56.8999 4.71758 55.8999 6.31758C54.3999 5.71758 53.7999 4.11758 54.1999 1.51758Z" fill="#101115"/>
<path fill-rule="evenodd" clip-rule="evenodd" d="M57.8998 4.81763C59.3998 6.91763 59.4998 8.71763 57.9998 9.91763C56.6998 8.81763 56.6998 7.11763 57.8998 4.81763Z" fill="#101115"/>
<path fill-rule="evenodd" clip-rule="evenodd" d="M60.4997 8.91772C61.7997 11.2177 61.6997 12.9177 60.0997 14.0177C58.8997 12.8177 59.0997 11.0177 60.4997 8.91772Z" fill="#101115"/>
<path fill-rule="evenodd" clip-rule="evenodd" d="M62.4998 13.4177C63.2998 15.9177 62.7998 17.6177 60.9998 18.3177C60.0998 16.8177 60.5998 15.2177 62.4998 13.4177Z" fill="#101115"/>
<path fill-rule="evenodd" clip-rule="evenodd" d="M6.89985 15.1177C6.29985 17.7177 4.99985 18.8177 3.09985 18.6177C3.09985 16.8177 4.29985 15.7177 6.89985 15.1177Z" fill="#101115"/>
<path fill-rule="evenodd" clip-rule="evenodd" d="M8.1998 11.7175C7.0998 14.1175 5.6998 15.0175 3.7998 14.4175C4.0998 12.6175 5.5998 11.8175 8.1998 11.7175Z" fill="#101115"/>
<path fill-rule="evenodd" clip-rule="evenodd" d="M10.4 8.41769C8.99995 10.6177 7.39995 11.3177 5.69995 10.4177C6.19995 8.81769 7.79995 8.11769 10.4 8.41769Z" fill="#101115"/>
<path fill-rule="evenodd" clip-rule="evenodd" d="M12.9999 5.41757C11.3999 7.51757 9.79985 8.01757 8.09985 6.91757C8.79985 5.31757 10.4999 4.81757 12.9999 5.41757Z" fill="#101115"/>
<path fill-rule="evenodd" clip-rule="evenodd" d="M14.4999 1.31763C13.3999 3.71763 11.8999 4.61763 10.0999 3.91763C10.3999 2.31763 11.8999 1.41763 14.4999 1.31763Z" fill="#101115"/>
<path fill-rule="evenodd" clip-rule="evenodd" d="M9.0998 1.51758C6.8998 3.01758 6.2998 4.61758 7.2998 6.31758C8.8998 5.71758 9.4998 4.11758 9.0998 1.51758Z" fill="#101115"/>
<path fill-rule="evenodd" clip-rule="evenodd" d="M5.29993 4.81763C3.79993 6.91763 3.79993 8.61763 5.19993 9.91763C6.49993 8.81763 6.59993 7.11763 5.29993 4.81763Z" fill="#101115"/>
<path fill-rule="evenodd" clip-rule="evenodd" d="M2.79989 8.91772C1.49989 11.2177 1.59989 12.9177 3.19989 14.0177C4.29989 12.8177 4.19989 11.0177 2.79989 8.91772Z" fill="#101115"/>
<path fill-rule="evenodd" clip-rule="evenodd" d="M0.799895 13.4177C-0.000105172 15.9177 0.499895 17.6177 2.29989 18.3177C3.19989 16.8177 2.69989 15.2177 0.799895 13.4177Z" fill="#101115"/>
<defs>
<radialGradient id="paint0_radial_137_1147" cx="0" cy="0" r="1" gradientUnits="userSpaceOnUse" gradientTransform="translate(33.4792 22.469) rotate(-48.3646) scale(13.1081)">
<stop stop-color="white"/>
<stop offset="0.4143" stop-color="#FAFAFA"/>
<stop offset="0.8914" stop-color="#ECECEC"/>
<stop offset="1" stop-color="#E8E8E8"/>
</radialGradient>
<radialGradient id="paint1_radial_137_1147" cx="0" cy="0" r="1" gradientUnits="userSpaceOnUse" gradientTransform="translate(35.2815 23.2941) rotate(-48.3646) scale(13.8577 13.8577)">
<stop stop-color="white"/>
<stop offset="0.4143" stop-color="#FAFAFA"/>
<stop offset="0.8914" stop-color="#ECECEC"/>
<stop offset="1" stop-color="#E8E8E8"/>
</radialGradient>
<radialGradient id="paint2_radial_137_1147" cx="0" cy="0" r="1" gradientUnits="userSpaceOnUse" gradientTransform="translate(34.1846 13.6023) rotate(-48.3646) scale(5.51709)">
<stop stop-color="white"/>
<stop offset="0.4143" stop-color="#FAFAFA"/>
<stop offset="0.8914" stop-color="#ECECEC"/>
<stop offset="1" stop-color="#E8E8E8"/>
</radialGradient>
<radialGradient id="paint3_radial_137_1147" cx="0" cy="0" r="1" gradientUnits="userSpaceOnUse" gradientTransform="translate(39.4259 26.828) rotate(-48.3646) scale(5.19479)">
<stop stop-color="white"/>
<stop offset="0.4143" stop-color="#FAFAFA"/>
<stop offset="0.8914" stop-color="#ECECEC"/>
<stop offset="1" stop-color="#E8E8E8"/>
</radialGradient>
</defs>
</svg>
