<svg width="61" height="77" viewBox="0 0 61 77" fill="none" xmlns="http://www.w3.org/2000/svg">
<g id="logo">
<path id="Vector" d="M5.79443 32.7627C5.79443 32.7627 30.0243 24.3265 55.7821 32.7772C48.2436 45.0848 13.0879 44.2181 5.79443 32.7627Z" fill="#003D6C"/>
<path id="Vector_2" d="M7.78357 64.3696V12.1054L30.255 0L52.7264 12.1054V64.3696L30.255 76.4895L7.78357 64.3696Z" fill="#003D6C"/>
<path id="Vector_3" d="M30.2549 2.13794L9.65735 13.2322V34.6839V41.7911V63.2573L30.2549 74.3515L50.8525 63.2573V41.7911V34.6839V13.2322L30.2549 2.13794Z" fill="white"/>
<path id="Vector_4" d="M30.255 2.86011L10.4502 13.7376V34.756V41.7332V62.7516L30.255 73.6291L50.0598 62.7516V41.7332V34.756V13.7376L30.255 2.86011Z" fill="#509AD3"/>
<path id="Vector_5" d="M30.7883 50.4874C17.9166 50.4874 7.01962 45.3737 6.55838 45.157L5.79443 44.7958V32.7771L7.95653 34.4672C7.97095 34.4817 9.90242 35.9551 13.6645 37.3997C17.1382 38.7431 22.9327 40.3322 30.7883 40.3322C38.6439 40.3322 44.4383 38.7287 47.9121 37.3997C51.6742 35.9407 53.6056 34.4817 53.62 34.4672L55.7821 32.806V35.5362V44.8103L55.0182 45.1714C54.5714 45.3737 43.6744 50.4874 30.7883 50.4874Z" fill="#003D6C"/>
<path id="Vector_6" d="M30.8026 41.6756C15.0482 41.6756 7.14929 35.5217 7.14929 35.5217V43.9435C7.14929 43.9435 18.0751 49.1439 30.8026 49.1439C43.5302 49.1439 54.456 43.9435 54.456 43.9435V35.5217C54.456 35.5217 46.5571 41.6756 30.8026 41.6756Z" fill="#C4DBE7"/>
<g id="Group">
<path id="Vector_7" d="M41.6997 67.042C41.9591 66.8398 42.1177 66.6809 42.1321 66.6664L42.2186 66.5798C42.3915 66.4209 42.5645 66.2475 42.7519 66.0742L42.896 65.9297C43.5735 65.2363 44.1356 64.384 43.7176 63.474C43.1122 62.145 41.9879 62.1739 41.4546 62.1883C41.0799 62.2028 40.8204 62.2028 40.4601 62.0005C39.2781 61.2349 31.9846 51.773 30.6153 49.7073C30.3847 49.3606 29.9379 48.6528 29.3757 47.7572C26.8244 43.6691 21.5057 35.1606 16.4031 28.8479L9.87358 20.7728C8.60515 19.2126 6.63043 18.6493 5.07372 19.4149L5.00165 19.4582L4.33861 19.906C4.19447 20.0072 4.05033 20.1083 3.92061 20.2094C3.74764 20.3394 3.57467 20.4983 3.41612 20.6428L2.83956 21.2061L2.7819 21.2784C1.71527 22.6507 1.84499 24.702 3.11342 26.2621L9.64296 34.3372C14.7455 40.6499 21.9525 47.6127 25.4119 50.9641C26.1758 51.7008 26.7668 52.2786 27.0695 52.582C28.7991 54.3588 36.525 63.4595 37.0295 64.7885C37.1448 65.1641 37.0872 65.4241 37.0007 65.7997C36.871 66.3486 36.5827 67.4754 37.8367 68.3132C38.9322 69.0355 40.143 68.1688 41.0222 67.5187C41.0655 67.4898 41.1087 67.461 41.1519 67.4176L41.224 67.3598C41.2384 67.3454 41.3826 67.2443 41.5988 67.0854L41.6997 67.042Z" fill="#003D6C"/>
<path id="Vector_8" d="M10.5366 33.6293L4.00704 25.5542C3.18544 24.5285 2.88275 23.0262 3.68993 22.0005L4.20883 21.495C4.45387 21.2638 4.69891 21.0616 4.98719 20.8738L5.57816 20.4693C6.76011 19.8915 8.15827 20.4838 8.99428 21.5094L15.5238 29.5845C21.7651 37.2984 28.3955 48.4504 29.6639 50.3573C30.9324 52.2641 38.5141 62.2027 39.8979 62.9972C41.2816 63.8061 42.1609 62.7805 42.6798 63.9506C42.896 64.4273 41.9735 65.2507 41.3537 65.8285C41.3537 65.8285 41.2095 65.9585 40.9789 66.1463C40.7483 66.3341 40.5897 66.4497 40.5897 66.4497C39.8979 66.9408 38.9754 67.692 38.4853 67.3742C37.4187 66.6663 38.6294 65.973 38.1394 64.4417C37.6349 62.9105 29.5198 53.4342 27.9054 51.8018C26.2911 50.155 16.7778 41.3432 10.5366 33.6293Z" fill="#C4DBE7"/>
<path id="Vector_9" d="M42.406 63.5461C42.5069 63.6328 42.6078 63.7628 42.6798 63.9506C42.896 64.4273 41.9735 65.2507 41.3537 65.8286C41.3537 65.8286 41.2096 65.9586 40.979 66.1464C40.7483 66.3341 40.5898 66.4497 40.5898 66.4497C39.8979 66.9409 38.9754 67.692 38.4853 67.3742C38.298 67.2587 38.1971 67.1287 38.125 67.0131C40.4601 65.6841 41.815 64.254 42.406 63.5461Z" fill="#6B9BB1"/>
<path id="Vector_10" d="M10.5366 33.6294L4.00704 25.5543C3.18544 24.5287 2.88275 23.0264 3.68993 22.0007L4.20883 21.4951C4.19442 22.3763 5.43402 24.3409 8.63393 28.3712C13.1023 34.005 20.7129 43.4091 24.0425 46.5293C27.3721 49.6496 30.0675 53.1888 32.6476 56.439C35.2277 59.6893 38.0385 63.2429 38.8312 64.2252C39.5519 65.1353 38.5141 66.7243 39.0186 67.3888C38.8024 67.4466 38.615 67.461 38.4709 67.3599C37.4042 66.6521 38.615 65.9587 38.1249 64.4275C37.6205 62.8962 29.5054 53.4199 27.891 51.7875C26.2911 50.1552 16.7778 41.3434 10.5366 33.6294Z" fill="#6B9BB1"/>
<path id="Vector_11" d="M31.7684 53.232C31.7684 53.232 27.5163 48.2483 25.3975 44.7958C23.2786 41.3433 19.6607 35.8251 10.8393 24.7019C7.46647 20.4549 6.87549 20.8016 5.78003 20.3827C6.91873 19.9493 8.21599 20.5416 9.00876 21.5095L15.5383 29.5846C21.7796 37.2985 28.41 48.4505 29.6784 50.3573C30.0099 50.8485 30.7739 51.9175 31.7684 53.232Z" fill="white"/>
</g>
<g id="Group_2">
<path id="Vector_12" d="M19.1419 67.042C18.8824 66.8398 18.7239 66.6809 18.7094 66.6664L18.623 66.5798C18.45 66.4209 18.277 66.2475 18.0896 66.0742L17.9455 65.9297C17.268 65.2363 16.7059 64.384 17.1239 63.474C17.7293 62.145 18.8536 62.1739 19.3869 62.1883C19.7617 62.2028 20.0211 62.2028 20.3815 62.0005C21.5634 61.2349 28.8569 51.773 30.2262 49.7073C30.4568 49.3606 30.9037 48.6528 31.4658 47.7572C34.0171 43.6691 39.3359 35.1606 44.4384 28.8479L50.9679 20.7728C52.2364 19.2126 54.2111 18.6493 55.7678 19.4149L55.8399 19.4582L56.5029 19.906C56.6471 20.0072 56.7912 20.1083 56.9209 20.2094C57.0939 20.3394 57.2669 20.4983 57.4254 20.6428L58.002 21.2061L58.0596 21.2784C59.1263 22.6507 58.9965 24.702 57.7281 26.2621L51.1842 34.3516C46.0816 40.6644 38.8746 47.6271 35.4153 50.9785C34.6513 51.7152 34.0603 52.2931 33.7576 52.5964C32.028 54.3732 24.3021 63.474 23.7976 64.803C23.6823 65.1786 23.7399 65.4386 23.8264 65.8142C23.9561 66.3631 24.2444 67.4898 22.9904 68.3277C21.8949 69.05 20.6842 68.1832 19.8049 67.5332C19.7617 67.5043 19.7184 67.4754 19.6752 67.4321L19.6031 67.3743C19.5887 67.3598 19.4446 67.2587 19.2283 67.0998L19.1419 67.042Z" fill="#003D6C"/>
<path id="Vector_13" d="M50.3049 33.6293L56.8344 25.5542C57.656 24.5285 57.9587 23.0262 57.1515 22.0005L56.6326 21.495C56.3876 21.2638 56.1425 21.0616 55.8542 20.8738L55.2633 20.4693C54.0813 19.8915 52.6832 20.4838 51.8472 21.5094L45.3176 29.5845C39.0764 37.284 32.4459 48.436 31.1775 50.3573C29.9091 52.2641 22.3273 62.2027 20.9436 62.9972C19.5598 63.8061 18.6806 62.7805 18.1617 63.9506C17.9455 64.4273 18.868 65.2507 19.4878 65.8285C19.4878 65.8285 19.6319 65.9585 19.8625 66.1463C20.0931 66.3341 20.2517 66.4497 20.2517 66.4497C20.9436 66.9408 21.8661 67.692 22.3561 67.3742C23.4228 66.6663 22.212 65.973 22.7021 64.4417C23.2066 62.9105 31.3216 53.4342 32.936 51.8018C34.5504 50.155 44.0636 41.3432 50.3049 33.6293Z" fill="#C4DBE7"/>
<path id="Vector_14" d="M18.4355 63.5461C18.3346 63.6328 18.2337 63.7628 18.1617 63.9506C17.9455 64.4273 18.868 65.2507 19.4878 65.8286C19.4878 65.8286 19.6319 65.9586 19.8625 66.1464C20.0931 66.3341 20.2517 66.4497 20.2517 66.4497C20.9436 66.9409 21.8661 67.692 22.3561 67.3742C22.5435 67.2587 22.6444 67.1287 22.7165 67.0131C20.3814 65.6841 19.0265 64.254 18.4355 63.5461Z" fill="#6B9BB1"/>
<path id="Vector_15" d="M50.3049 33.6294L56.8344 25.5543C57.656 24.5287 57.9587 23.0264 57.1515 22.0007L56.6326 21.4951C56.6471 22.3763 55.4075 24.3409 52.2075 28.3712C47.7392 34.005 40.1286 43.4091 36.799 46.5293C33.4694 49.6496 30.7739 53.1888 28.1938 56.439C25.6137 59.6893 22.803 63.2429 22.0102 64.2252C21.2895 65.1353 22.3274 66.7243 21.8229 67.3888C22.0391 67.4466 22.2265 67.461 22.3706 67.3599C23.4372 66.6521 22.2265 65.9587 22.7165 64.4275C23.221 62.8962 31.3361 53.4199 32.9505 51.7875C34.5504 50.1552 44.0636 41.3434 50.3049 33.6294Z" fill="#6B9BB1"/>
<path id="Vector_16" d="M29.073 53.232C29.073 53.232 33.3251 48.2483 35.444 44.7958C37.5628 41.3433 41.1807 35.8251 50.0021 24.7019C53.375 20.4549 53.966 20.8016 55.0614 20.3827C53.9227 19.9493 52.6255 20.5416 51.8327 21.5095L45.3032 29.5846C39.0763 37.2841 32.4459 48.4361 31.1774 50.3573C30.8315 50.8485 30.0676 51.9175 29.073 53.232Z" fill="white"/>
</g>
<g id="Group_3">
<path id="Vector_17" d="M39.0019 46.9331C40.4673 42.1764 37.8075 37.1297 33.0611 35.6611C28.3148 34.1925 23.2791 36.8581 21.8137 41.6149C20.3483 46.3716 23.0081 51.4183 27.7545 52.8869C32.5009 54.3555 37.5365 51.6899 39.0019 46.9331Z" fill="#003D6C"/>
<path id="Vector_18" d="M30.6442 52.1897C35.0049 52.0623 38.4369 48.4163 38.3098 44.0461C38.1828 39.6758 34.5447 36.2363 30.184 36.3636C25.8234 36.491 22.3913 40.137 22.5184 44.5073C22.6455 48.8775 26.2835 52.317 30.6442 52.1897Z" fill="#C4DBE7"/>
<path id="Vector_19" d="M27.747 36.8217C25.2822 37.7028 23.5237 39.6963 22.8318 42.0365C22.875 42.181 22.9183 42.3254 22.9759 42.4699C24.4462 46.5869 28.9721 48.7248 33.0657 47.2514C35.5305 46.3702 37.289 44.3767 37.9809 42.0365C37.9376 41.8921 37.8944 41.7476 37.8367 41.6031C36.3809 37.5006 31.8549 35.3482 27.747 36.8217Z" fill="white"/>
<path id="Vector_20" d="M36.6403 39.4076C36.2367 38.8875 35.7611 38.4253 35.2422 38.0208C33.8152 39.7976 32.3594 42.3545 32.4026 45.3881C32.4314 47.3671 33.0945 49.2884 34.3773 51.123C34.9539 50.7907 35.4584 50.4007 35.9196 49.9384C34.8818 48.4505 34.3485 46.9193 34.3341 45.3592C34.3053 43.0045 35.444 40.9244 36.6403 39.4076ZM24.1866 39.4076C25.3686 40.9244 26.5073 43.0045 26.4785 45.3592C26.4641 46.9193 25.9307 48.4505 24.8929 49.9384C25.3542 50.4007 25.8875 50.7907 26.4352 51.1085C27.7325 49.2739 28.3955 47.3527 28.4244 45.3736C28.4676 42.34 27.0118 39.7832 25.5848 38.0063C25.0659 38.4253 24.5902 38.8875 24.1866 39.4076Z" fill="#C4DBE7"/>
<path id="Vector_21" d="M28.2226 47.7282C27.7613 47.8438 27.3289 47.9449 26.8533 48.0171L26.9253 48.4938C27.3866 48.4361 27.8478 48.3638 28.3235 48.2627C28.4532 48.2338 28.5541 48.0749 28.5253 47.9305C28.4965 47.786 28.3667 47.6993 28.2226 47.7282ZM25.7578 43.6834C25.7146 43.799 25.7866 43.9001 25.9019 43.929C26.1182 43.9868 26.3344 44.0446 26.565 44.1024C26.7812 44.1746 26.9974 44.2468 27.2136 44.3191C27.2713 44.1746 27.3433 44.0157 27.3866 43.8568C26.9397 43.7123 26.5073 43.5968 26.0749 43.5101C25.9308 43.4957 25.801 43.5679 25.7578 43.6834ZM25.4839 48.0171C25.8155 48.3349 26.0893 48.6816 26.3776 49.0428C26.5073 48.9416 26.6371 48.855 26.7668 48.7394C26.4641 48.3783 26.147 48.046 25.8155 47.7427C25.7146 47.656 25.556 47.6415 25.4695 47.7138C25.3975 47.786 25.3975 47.916 25.4839 48.0171ZM25.729 42.3689C25.5992 42.3545 25.4695 42.4556 25.4407 42.5711C25.4119 42.6867 25.4983 42.7878 25.6281 42.8023C25.8443 42.8312 26.0749 42.8456 26.3055 42.8889C26.5217 42.9178 26.7524 42.9612 26.9686 43.0189C27.0118 42.86 27.0551 42.7011 27.0695 42.5422C26.6226 42.47 26.1758 42.4122 25.729 42.3689ZM27.7469 49.1583C27.2713 49.2161 26.81 49.2306 26.3488 49.245C26.3488 49.4039 26.3632 49.5773 26.3632 49.7362C26.8389 49.7506 27.2857 49.7217 27.7613 49.6928C27.9055 49.6784 28.0208 49.5484 28.0208 49.4039C28.0064 49.2594 27.8911 49.1439 27.7469 49.1583ZM26.3344 40.6065C26.5938 40.2309 26.8533 39.8265 27.0839 39.422C27.156 39.3064 27.1127 39.1331 26.983 39.0609C26.8533 38.9742 26.7091 39.0175 26.6371 39.1475C26.4064 39.5665 26.1758 39.9565 25.9164 40.3465L26.3344 40.6065ZM25.7578 39.6965C25.2966 39.7398 24.8353 39.7976 24.4029 39.8843C24.2732 39.9131 24.1723 40.0287 24.1867 40.1587C24.1867 40.2887 24.302 40.361 24.4317 40.3465C24.8785 40.2743 25.3254 40.2309 25.7866 40.2021L25.7578 39.6965ZM26.392 41.3577L26.4208 40.8666C25.974 40.8521 25.4983 40.881 25.0515 40.9099C24.9218 40.9243 24.8065 41.0255 24.8065 41.1555C24.8065 41.271 24.9074 41.3721 25.0371 41.3577C25.4839 41.3433 25.9308 41.3433 26.392 41.3577ZM25.3686 48.8405C25.2821 48.7394 25.138 48.7105 25.0371 48.7683C24.9362 48.8405 24.9074 48.9561 24.9939 49.0717C25.2533 49.4328 25.5128 49.8084 25.7578 50.1984L26.1758 49.9384C25.9164 49.5628 25.6713 49.2017 25.3686 48.8405ZM26.2767 38.1797C26.3344 38.0497 26.2767 37.8908 26.147 37.833C26.0173 37.7607 25.8731 37.8185 25.8155 37.9485C25.6281 38.3819 25.4263 38.8008 25.2101 39.2053C25.3542 39.2775 25.4983 39.3498 25.6425 39.4364C25.8731 39.032 26.0893 38.613 26.2767 38.1797ZM26.8389 50.9062C26.565 50.8918 26.2911 50.8629 26.0028 50.834C26.3055 51.0363 26.6082 51.2096 26.9397 51.3685C26.9974 51.3252 27.0551 51.2529 27.0695 51.1807C27.0695 51.0363 26.9686 50.9207 26.8389 50.9062ZM27.3145 47.0204C26.9542 46.7315 26.5794 46.4714 26.2046 46.2259C26.0893 46.1536 25.9308 46.1825 25.8587 46.2692C25.7722 46.3559 25.801 46.4859 25.9164 46.5581C26.1037 46.6881 26.2911 46.8181 26.4785 46.9482C26.6515 47.0782 26.8244 47.2226 26.9974 47.3815C27.0983 47.266 27.2136 47.1504 27.3145 47.0204ZM28.8568 45.8792C28.7992 45.7347 28.655 45.6769 28.5253 45.7347C28.0929 45.9514 27.6749 46.1392 27.2424 46.2981L27.401 46.7604C27.8334 46.6159 28.2947 46.457 28.7127 46.2548C28.8568 46.197 28.9145 46.0236 28.8568 45.8792ZM27.0551 42.2678C27.2136 42.1089 27.3722 41.9355 27.5307 41.7477C27.6893 41.5744 27.8334 41.3866 27.9776 41.2132C28.064 41.0977 28.0496 40.9243 27.9343 40.8232C27.819 40.7221 27.6604 40.7365 27.5884 40.8521C27.3001 41.2277 27.0118 41.5888 26.6947 41.9355C26.8244 42.0366 26.9253 42.1522 27.0551 42.2678ZM27.3866 43.5823C27.574 43.4379 27.7469 43.2934 27.9343 43.1345C28.1073 42.9756 28.2802 42.8167 28.4532 42.6578C28.5541 42.5567 28.5541 42.3833 28.4676 42.2678C28.3667 42.1522 28.2082 42.1522 28.1073 42.2533C27.7902 42.6 27.4298 42.9178 27.0839 43.2067C27.1992 43.3368 27.2857 43.4523 27.3866 43.5823ZM26.2623 45.0702C26.147 45.0124 25.9884 45.0702 25.9308 45.1569C25.8731 45.258 25.9164 45.3736 26.0461 45.4314C26.4497 45.6192 26.8389 45.8358 27.228 46.0814L27.4875 45.6769C27.0983 45.4314 26.6659 45.2291 26.2623 45.0702ZM27.3145 44.9691L27.5451 45.4025C27.9487 45.2002 28.3667 44.9547 28.7703 44.6946C28.8856 44.6224 28.9145 44.4346 28.8424 44.3046C28.7703 44.1746 28.6118 44.1313 28.4965 44.2179C28.1073 44.4924 27.7325 44.738 27.3145 44.9691Z" fill="#ED232F"/>
<path id="Vector_22" d="M32.3161 47.9305C32.2872 48.0749 32.3881 48.2338 32.5179 48.2627C32.9791 48.3638 33.4548 48.4361 33.916 48.4938L33.9881 48.0171C33.5124 47.9593 33.08 47.8582 32.6188 47.7282C32.4746 47.6993 32.3449 47.786 32.3161 47.9305ZM34.7665 43.5245C34.3196 43.6112 33.9016 43.7268 33.4548 43.8712C33.498 44.0301 33.5701 44.1746 33.6277 44.3335C33.844 44.2468 34.0458 44.1746 34.2764 44.1168C34.4926 44.0446 34.7088 43.9868 34.9394 43.9435C35.0691 43.9146 35.1412 43.799 35.0836 43.6979C35.0259 43.5679 34.8962 43.4957 34.7665 43.5245ZM35.343 47.7138C35.2421 47.6415 35.098 47.656 34.9971 47.7427C34.68 48.046 34.3629 48.3783 34.0458 48.7394C34.1755 48.8405 34.3052 48.9416 34.4349 49.0428C34.7232 48.6816 35.0115 48.3494 35.3286 48.0171C35.4295 47.916 35.4439 47.786 35.343 47.7138ZM33.7431 42.5422C33.7719 42.7011 33.8151 42.86 33.844 43.0189C34.0746 42.9756 34.2908 42.9323 34.507 42.8889C34.7376 42.86 34.9538 42.8312 35.1845 42.8023C35.3142 42.7878 35.4007 42.6867 35.3718 42.5711C35.343 42.4556 35.2277 42.3689 35.0836 42.3689C34.6511 42.4122 34.2043 42.47 33.7431 42.5422ZM32.8206 49.4039C32.8206 49.5484 32.9359 49.6928 33.08 49.6928C33.5557 49.7362 34.0025 49.7506 34.4782 49.7362C34.4638 49.5773 34.4782 49.4039 34.4926 49.245C34.0313 49.245 33.5701 49.2161 33.0944 49.1583C32.9503 49.1439 32.8206 49.2595 32.8206 49.4039ZM34.8962 40.3321C34.6367 39.942 34.4061 39.552 34.1755 39.1331C34.1034 39.0175 33.9593 38.9742 33.8295 39.0464C33.6998 39.1331 33.6566 39.292 33.7286 39.4075C33.9593 39.812 34.2187 40.2165 34.4782 40.5921L34.8962 40.3321ZM35.0547 40.1732C35.516 40.2021 35.9628 40.2454 36.4096 40.3176C36.5394 40.3321 36.6547 40.2598 36.6547 40.1298C36.6547 39.9998 36.5682 39.8843 36.4385 39.8554C35.9916 39.7831 35.5448 39.7109 35.0836 39.6676L35.0547 40.1732ZM35.8043 41.3577C35.934 41.3577 36.0349 41.271 36.0349 41.1555C36.0349 41.0399 35.9196 40.9243 35.7898 40.9099C35.343 40.881 34.8818 40.8521 34.4205 40.8666L34.4493 41.3577C34.8962 41.3433 35.3574 41.3433 35.8043 41.3577ZM34.6656 49.9528L35.0836 50.2129C35.3286 49.8228 35.5881 49.4472 35.8475 49.0861C35.934 48.985 35.9052 48.855 35.8043 48.7827C35.7034 48.725 35.5592 48.7539 35.4727 48.855C35.17 49.2017 34.9106 49.5628 34.6656 49.9528ZM35.1845 39.4364C35.3286 39.3642 35.4727 39.2775 35.6169 39.2053C35.4007 38.8008 35.1989 38.3819 35.0115 37.9485C34.9538 37.8185 34.8097 37.7607 34.68 37.833C34.5502 37.9052 34.4926 38.0641 34.5502 38.1797C34.7376 38.613 34.9538 39.032 35.1845 39.4364ZM33.7719 51.1952C33.7863 51.2818 33.8295 51.3396 33.9016 51.383C34.2187 51.2241 34.5358 51.0507 34.8385 50.8485C34.5647 50.8774 34.2764 50.9062 34.0025 50.9207C33.8584 50.9207 33.7575 51.0363 33.7719 51.1952ZM33.844 47.3815C34.0169 47.2371 34.1899 47.0926 34.3629 46.9482C34.5358 46.8037 34.7376 46.6737 34.925 46.5581C35.0403 46.4859 35.0691 46.3559 34.9827 46.2692C34.8962 46.1825 34.752 46.1536 34.6367 46.2259C34.262 46.457 33.8872 46.717 33.5268 47.0204C33.6133 47.1504 33.7431 47.266 33.844 47.3815ZM32.0999 46.2548C32.5179 46.457 32.9791 46.6159 33.4115 46.7604L33.5701 46.2981C33.1377 46.1392 32.7197 45.9514 32.2872 45.7347C32.1575 45.6769 32.0134 45.7347 31.9557 45.8792C31.9125 46.0236 31.9701 46.197 32.0999 46.2548ZM34.1322 41.9355C33.8295 41.6033 33.5268 41.2421 33.2386 40.8521C33.1521 40.7365 32.9935 40.7221 32.8926 40.8232C32.7773 40.9243 32.7629 41.0977 32.8494 41.2132C32.9935 41.401 33.1377 41.5744 33.2962 41.7477C33.4548 41.9211 33.6133 42.0944 33.7719 42.2678C33.9016 42.1522 34.0169 42.0366 34.1322 41.9355ZM33.7431 43.2067C33.3971 42.9178 33.0512 42.5856 32.7197 42.2533C32.6188 42.1522 32.4602 42.1522 32.3593 42.2678C32.2584 42.3833 32.2728 42.5567 32.3737 42.6578C32.5467 42.8312 32.7197 42.9901 32.8926 43.1345C33.0656 43.2934 33.253 43.4379 33.4404 43.5823C33.5413 43.4523 33.6277 43.3368 33.7431 43.2067ZM33.3539 45.6625L33.6133 46.067C34.0025 45.8214 34.3917 45.6047 34.7953 45.4169C34.925 45.3591 34.9682 45.2436 34.9106 45.1425C34.8529 45.0413 34.6944 44.998 34.5791 45.0558C34.1611 45.2291 33.7286 45.4314 33.3539 45.6625ZM32.3305 44.2179C32.2152 44.1313 32.0566 44.1746 31.9846 44.3046C31.9125 44.4346 31.9413 44.608 32.0566 44.6946C32.4602 44.9547 32.8638 45.2002 33.2818 45.4025L33.5124 44.9691C33.0944 44.738 32.7197 44.4924 32.3305 44.2179Z" fill="#ED232F"/>
<g id="Group_4">
<path id="Vector_23" d="M23.8408 38.1797C25.2246 39.6965 27.0551 42.2967 27.0119 45.3736C26.9831 47.3238 26.2335 49.2161 24.7345 51.0363C24.9939 51.1952 25.2534 51.3397 25.5273 51.4697C27.0696 49.5339 27.8623 47.5116 27.8911 45.4025C27.9344 42.0511 26.0462 39.3065 24.5615 37.6597C24.3165 37.8041 24.0714 37.9775 23.8408 38.1797Z" fill="#003D6C"/>
<path id="Vector_24" d="M36.9862 38.1797C35.6025 39.6965 33.7719 42.2967 33.8152 45.3736C33.844 47.3238 34.5935 49.2161 36.0926 51.0363C35.8331 51.1952 35.5737 51.3397 35.2998 51.4697C33.7575 49.5339 32.9647 47.5116 32.9359 45.4025C32.8927 42.0511 34.7809 39.3065 36.2655 37.6597C36.5106 37.8041 36.7556 37.9775 36.9862 38.1797Z" fill="#003D6C"/>
</g>
</g>
<g id="Group_5">
<path id="Vector_25" d="M58.4343 57.0744C58.4343 55.3843 58.4343 53.6797 58.4343 51.9896C56.0992 51.5129 53.7498 51.094 51.3859 50.7328C51.357 50.7328 51.3426 50.7184 51.2994 50.7184C49.022 50.3717 46.7446 50.0828 44.4527 49.8516C44.3518 49.8372 44.3086 49.8372 44.2077 49.8227C42.406 49.6349 40.5898 49.4905 38.7736 49.3894C38.6151 50.0683 38.543 50.4006 38.3845 51.0795C38.1682 50.7039 37.8944 50.3861 37.5484 50.1261C36.7557 49.5338 35.5449 49.216 33.6134 49.1727C32.7198 49.1582 32.2729 49.1438 31.3793 49.1438C30.4135 49.1438 29.9234 49.1438 28.9577 49.1438C26.983 49.1727 25.9884 49.2016 24.0137 49.2883C23.0768 49.3316 22.6155 49.3605 21.6786 49.4183C20.9435 49.4616 20.5832 49.4905 19.8481 49.5483C19.4877 49.476 19.1129 49.4472 18.7094 49.476C18.104 49.5338 16.5328 49.8227 15.6248 51.2384C15.5095 50.7328 15.4518 50.4728 15.3221 49.9672C13.4338 50.1694 11.5456 50.415 9.67179 50.7039C9.51323 51.4118 9.44116 51.7729 9.29702 52.4807C9.08081 52.1485 8.80695 51.8885 8.46101 51.7007C7.66824 51.2673 6.47188 51.224 4.58365 51.5851C2.73866 51.9318 1.83058 52.1196 0 52.5385C0 54.3876 0 56.2221 0 58.0712C0.302694 57.999 0.446834 57.9701 0.749527 57.8978C0.749527 58.4612 0.749527 58.7357 0.749527 59.2991C0.446834 59.3713 0.302694 59.4002 0 59.4724C0 61.3503 0 63.2283 0 65.1062L5.07372 66.9986C6.67368 66.6374 7.46645 66.4785 9.08081 66.1752C9.84475 66.0307 10.479 65.8574 11.0123 65.6407C11.0123 65.7129 11.0123 65.7562 11.0123 65.8285C13.232 65.4673 15.4374 65.1495 17.6715 64.8895C18.594 64.7884 19.0697 64.745 19.9922 64.6584C20.4967 64.615 20.7417 64.5861 21.2462 64.5573C21.5633 64.615 21.8948 64.6295 22.2408 64.615C22.457 64.6006 22.8173 64.5573 23.2209 64.4272C25.2101 64.2972 27.2136 64.225 29.2027 64.2106C30.0676 64.1961 30.4856 64.1961 31.3504 64.2106C32.1288 64.2106 32.5035 64.225 33.2819 64.2395C34.0603 64.2539 34.7089 64.225 35.2422 64.1239C35.2422 64.1961 35.2422 64.2395 35.2422 64.3117C37.4764 64.4272 39.6961 64.5717 41.9159 64.7739C42.8528 64.8606 43.3284 64.9184 44.2654 65.034C45.6923 65.2073 46.413 65.3084 47.8256 65.5107C48.7337 65.6407 49.1805 65.7273 50.0742 65.8718C52.0345 66.2041 53.9948 66.5941 55.9263 67.0419L61 65.1495C61 62.6504 61 60.1658 61 57.6667C60.0054 57.3922 59.4865 57.2767 58.4343 57.0744Z" fill="#003D6C"/>
<g id="Group_6">
<path id="Vector_26" d="M1.71521 53.723C2.86833 53.4774 3.44489 53.3618 4.59801 53.1452C6.02499 52.8707 6.97632 52.8707 7.43756 53.1163C7.8844 53.3618 8.11502 53.9974 8.11502 55.0086C8.11502 55.7598 7.99971 56.2943 7.75467 56.5977C7.50963 56.901 7.00514 57.161 6.22679 57.3922C7.10604 57.3922 7.66819 57.4933 7.89881 57.71C8.12944 57.9267 8.24475 58.4467 8.24475 59.2701C8.24475 60.3535 8.01412 61.1047 7.56729 61.5381C7.12046 61.9714 6.19796 62.3037 4.82863 62.5637C3.58903 62.7948 2.95481 62.9248 1.71521 63.1849C1.71521 62.1737 1.71521 61.6681 1.71521 60.6569C2.0179 60.5991 2.16204 60.5558 2.46474 60.498C2.46474 58.6923 2.46474 57.7966 2.46474 55.9909C2.16204 56.0487 2.0179 56.0776 1.71521 56.1498C1.71521 55.182 1.71521 54.6908 1.71521 53.723ZM4.59801 55.5576C4.59801 56.2076 4.59801 56.5399 4.59801 57.2044C4.75656 57.1755 4.84305 57.161 5.0016 57.1321C5.59257 57.0166 5.88085 56.6988 5.88085 56.1354C5.88085 55.6009 5.56375 55.3842 4.94394 55.4998C4.7998 55.5287 4.72773 55.5431 4.59801 55.5576ZM4.59801 58.2445C4.59801 58.9812 4.59801 59.3423 4.59801 60.079C4.74215 60.0502 4.7998 60.0357 4.94394 60.0068C5.66464 59.8768 6.02499 59.4723 6.02499 58.8078C6.02499 58.2589 5.66464 58.0422 4.94394 58.1722C4.7998 58.2011 4.72773 58.2156 4.59801 58.2445Z" fill="white"/>
<path id="Vector_27" d="M16.1869 58.3746C16.1869 59.3858 16.1869 59.8914 16.1869 60.9026C14.6879 61.0615 13.9384 61.1481 12.4393 61.3359C12.4393 60.3248 12.4393 59.8192 12.4393 58.808C12.7564 58.7646 12.915 58.7502 13.2465 58.7068C13.1456 58.2012 13.1023 57.9557 13.0159 57.4501C12.3528 57.5368 12.0069 57.5801 11.3438 57.6668C11.2429 58.1868 11.1997 58.4613 11.0988 58.9813C11.4447 58.938 11.6177 58.9091 11.9636 58.8657C11.9636 59.8769 11.9636 60.3825 11.9636 61.3937C10.724 61.5671 10.0898 61.6537 8.85022 61.856C8.85022 60.8448 8.85022 60.3392 8.85022 59.328C9.1385 59.2847 9.28264 59.2558 9.5565 59.2124C10.061 56.8289 10.5799 54.4454 11.0844 52.0619C12.2231 51.903 12.7852 51.8307 13.9239 51.6863C14.4573 53.9398 14.9762 56.1789 15.5095 58.4324C15.7833 58.4179 15.9275 58.4035 16.1869 58.3746ZM12.7997 56.5111C12.5546 55.3844 12.4249 54.8065 12.1799 53.6798C11.9204 54.8788 11.7907 55.471 11.5312 56.67C12.0357 56.6122 12.2952 56.5833 12.7997 56.5111Z" fill="white"/>
<path id="Vector_28" d="M22.2985 50.9495C22.2985 52.2785 22.2985 52.943 22.2985 54.2864C21.4769 54.3297 21.0589 54.3586 20.2373 54.4308C20.2229 54.3297 20.2229 54.2864 20.2084 54.1853C20.1652 53.7519 19.9634 53.5641 19.6175 53.593C19.1995 53.6219 18.9833 53.8097 18.9833 54.1419C18.9833 54.5175 19.3436 54.8064 20.0787 55.0376C21.2318 55.3987 21.9669 55.7598 22.2841 56.1065C22.6012 56.4532 22.7597 57.0888 22.7597 58.0134C22.7597 59.7179 22.0534 60.5991 20.6264 60.7002C19.8625 60.758 19.2427 60.5269 18.7959 60.0213C18.7959 60.2958 18.7959 60.4258 18.7959 60.7002C18.0175 60.7725 17.6283 60.8014 16.8644 60.8736C16.8644 59.429 16.8644 58.7212 16.8644 57.2766C17.6427 57.2044 18.0319 57.1611 18.7959 57.1033C18.7959 57.1611 18.7959 57.19 18.7959 57.2477C18.7959 57.8689 19.0697 58.1578 19.6031 58.1145C20.1075 58.0711 20.3526 57.84 20.3526 57.3922C20.3526 56.9444 20.0643 56.6121 19.5022 56.4243C19.0553 56.2654 18.8247 56.1932 18.3634 56.0343C17.2247 55.6587 16.6626 54.9364 16.6626 53.8386C16.6626 52.1196 17.3545 51.1806 18.7382 51.065C19.4301 51.0072 19.9778 51.2384 20.367 51.7584C20.367 51.4984 20.367 51.3539 20.367 51.0939C21.1309 51.0217 21.5201 50.9928 22.2985 50.9495Z" fill="white"/>
<path id="Vector_29" d="M29.664 50.7039C29.664 52.2206 29.664 52.9718 29.664 54.4886C28.9433 54.4886 28.5829 54.5031 27.8622 54.5175C27.8622 53.9686 27.8622 53.6941 27.8622 53.1596C27.2569 53.1741 26.9542 53.1741 26.3344 53.2029C26.3344 53.8819 26.3344 54.2286 26.3344 54.9075C27.0983 54.8786 27.4731 54.8786 28.237 54.8642C28.237 55.2542 28.237 55.442 28.237 55.832C27.4731 55.8465 27.0983 55.8465 26.3344 55.8754C26.3344 56.6121 26.3344 56.9877 26.3344 57.7244C26.9397 57.71 27.2424 57.6955 27.8622 57.6811C27.8622 57.1321 27.8622 56.8577 27.8622 56.3087C28.6406 56.2943 29.0298 56.2943 29.8081 56.2799C29.8081 57.84 29.8081 58.62 29.8081 60.1946C27.6749 60.2091 25.5416 60.2668 23.4227 60.368C23.4227 59.3568 23.4227 58.8512 23.4227 57.84C23.7254 57.8255 23.8696 57.8111 24.1723 57.7966C24.1723 55.9909 24.1723 55.0953 24.1723 53.2896C23.8696 53.3041 23.7254 53.3041 23.4227 53.333C23.4227 52.3651 23.4227 51.8884 23.4227 50.9205C25.5128 50.7905 27.5884 50.7327 29.664 50.7039Z" fill="white"/>
<path id="Vector_30" d="M30.7018 50.7039C31.8693 50.7039 32.4603 50.7183 33.6422 50.7328C35.0981 50.7616 36.0494 50.9639 36.5106 51.3106C36.9719 51.6428 37.2025 52.3362 37.2025 53.3474C37.2025 54.0986 37.0728 54.6042 36.8277 54.8642C36.5827 55.1242 36.0638 55.2687 35.2854 55.3409C36.1791 55.5287 36.7413 55.7598 36.9719 56.0198C37.2025 56.2799 37.3178 56.8288 37.3178 57.6522C37.3178 58.7356 37.0872 59.4434 36.6259 59.7757C36.1647 60.1079 35.2422 60.2524 33.844 60.2091C32.5756 60.1802 31.9414 60.1657 30.6874 60.1657C30.6874 59.1545 30.6874 58.6489 30.6874 57.6377C30.9901 57.6377 31.1486 57.6377 31.4513 57.6377C31.4513 55.832 31.4513 54.9364 31.4513 53.1307C31.1486 53.1307 30.9901 53.1307 30.6874 53.1307C30.7018 52.1484 30.7018 51.6717 30.7018 50.7039ZM33.6422 53.1596C33.6422 53.8097 33.6422 54.1419 33.6422 54.8064C33.8008 54.8064 33.8873 54.8064 34.0458 54.8209C34.6512 54.8353 34.9395 54.5753 34.9395 54.0119C34.9395 53.4774 34.6224 53.1885 33.9882 53.1741C33.844 53.1596 33.772 53.1596 33.6422 53.1596ZM33.6422 55.832C33.6422 56.5688 33.6422 56.9299 33.6422 57.6666C33.7864 57.6666 33.8585 57.6666 33.9882 57.6811C34.7089 57.6955 35.0836 57.3777 35.0836 56.7132C35.0836 56.1643 34.7089 55.8754 33.9738 55.8465C33.844 55.8465 33.772 55.8465 33.6422 55.832Z" fill="white"/>
<path id="Vector_31" d="M45.3176 58.4178C45.3176 59.429 45.3176 59.9346 45.3176 60.9458C43.8185 60.7869 43.069 60.7146 41.5699 60.5991C41.5699 59.5879 41.5699 59.0823 41.5699 58.0711C41.887 58.1 42.06 58.1144 42.3771 58.1433C42.2762 57.6233 42.233 57.3633 42.1321 56.8432C41.4546 56.7854 41.1231 56.7566 40.4601 56.7132C40.3592 57.2188 40.3159 57.4644 40.215 57.9844C40.5609 58.0133 40.7339 58.0278 41.0943 58.0422C41.0943 59.0534 41.0943 59.559 41.0943 60.5702C39.8403 60.4691 39.2204 60.4402 37.9664 60.368C37.9664 59.3568 37.9664 58.8512 37.9664 57.84C38.2547 57.8544 38.3989 57.8689 38.6871 57.8833C39.206 55.6009 39.7105 53.3329 40.2294 51.0505C41.3681 51.1372 41.9447 51.1805 43.0834 51.2817C43.6167 53.6363 44.1356 56.0054 44.6689 58.36C44.914 58.3745 45.0437 58.3889 45.3176 58.4178ZM41.9159 55.8465C41.6708 54.6619 41.5411 54.0697 41.2961 52.8851C41.0366 54.0263 40.9069 54.6042 40.6474 55.7454C41.1519 55.7887 41.4114 55.8031 41.9159 55.8465Z" fill="white"/>
<path id="Vector_32" d="M52.3084 57.5077C52.3084 59.2556 52.3084 60.1368 52.3084 61.8847C50.1895 61.5525 48.0706 61.2636 45.9374 61.018C45.9374 60.0068 45.9374 59.5012 45.9374 58.49C46.2401 58.5189 46.3986 58.5478 46.7013 58.5767C46.7013 56.771 46.7013 55.8753 46.7013 54.0696C46.3986 54.0408 46.2401 54.0119 45.9374 53.983C45.9374 53.0151 45.9374 52.5384 45.9374 51.5706C47.4364 51.7439 48.186 51.8306 49.6706 52.0328C49.6706 53.0007 49.6706 53.4774 49.6706 54.4452C49.3391 54.4019 49.1805 54.373 48.8634 54.3297C48.8634 56.1354 48.8634 57.031 48.8634 58.8367C49.4688 58.9234 49.7715 58.9523 50.3769 59.0534C50.3769 58.3167 50.3769 57.9411 50.3769 57.2043C51.1552 57.3199 51.53 57.3777 52.3084 57.5077Z" fill="white"/>
<path id="Vector_33" d="M59.3424 58.8079C59.3424 60.5558 59.3424 61.437 59.3424 63.1849C57.2524 62.7371 55.1335 62.3471 53.0291 62.0004C53.0291 60.9892 53.0291 60.4836 53.0291 59.4724C53.3317 59.5158 53.4903 59.5447 53.793 59.6024C53.793 57.7967 53.793 56.9011 53.793 55.0954C53.4903 55.0376 53.3317 55.0232 53.0291 54.9654C53.0291 53.9975 53.0291 53.5208 53.0291 52.553C54.5137 52.7986 55.2632 52.9286 56.7479 53.2175C56.7479 54.1853 56.7479 54.662 56.7479 55.6299C56.4308 55.5721 56.2578 55.5432 55.9407 55.471C55.9407 57.2767 55.9407 58.1723 55.9407 59.978C56.5461 60.0936 56.8488 60.1514 57.4397 60.2669C57.4397 59.5302 57.4397 59.1546 57.4397 58.4179C58.2037 58.5768 58.5784 58.649 59.3424 58.8079Z" fill="white"/>
</g>
</g>
<g id="Group_7">
<path id="Vector_34" d="M30.1252 36.533C26.7379 36.533 19.7327 33.7306 16.6625 33.1961C15.9418 33.0805 15.3076 32.965 14.7455 32.8638C11.5888 32.3438 10.1618 32.0982 9.68618 30.0469C9.67176 29.9747 9.65735 29.9025 9.65735 29.8303V29.8014C9.65735 29.7436 9.65735 29.6858 9.65735 29.6425V29.6136C9.70059 28.9491 10.1186 27.8368 13.2608 25.9877C14.4428 25.2943 15.5959 24.731 16.1436 24.4709C16.2878 23.3442 16.5472 21.3507 16.6914 19.9495L16.7058 19.8195C16.8211 18.606 17.095 15.7602 19.2282 13.16C21.8372 9.96756 26.2911 8.30632 32.4459 8.24854H32.4603H32.4747C37.1737 8.43633 40.7483 9.99645 43.1266 12.8567C45.3464 15.5291 45.8941 18.6783 46.0094 20.3251C46.2977 24.0665 46.0671 26.0889 46.0094 26.45C45.995 26.9267 45.7356 28.848 42.7807 29.6569C41.6132 31.5637 37.361 35.3485 33.0368 36.2586C32.2152 36.4464 31.2207 36.533 30.1252 36.533Z" fill="#193F6E"/>
<path id="Vector_35" d="M17.8301 25.0344H16.7923C16.7923 25.0344 10.0321 28.0536 10.4501 29.8881C10.8681 31.7083 12.1654 31.6072 16.7923 32.445C21.4192 33.2829 28.4676 36.4464 32.8927 35.5075C37.3178 34.5685 41.5411 30.6538 42.2762 28.9925C41.1375 27.6491 40.1862 27.2735 39.8114 27.2735C39.4078 27.2735 17.8301 25.0344 17.8301 25.0344Z" fill="#B6D1DF"/>
<path id="Vector_36" d="M16.7922 25.511C16.7922 25.511 17.2535 22.1162 17.4697 20.0361C17.6715 17.9559 18.248 9.20187 32.4458 9.04297C42.5933 9.46189 44.9283 16.3669 45.2454 20.3972C45.5626 24.4275 45.2454 26.4066 45.2454 26.4066C45.2454 26.4066 45.3463 28.4434 41.9735 29.0646C38.5862 29.6713 20.3813 29.6424 16.7922 25.511Z" fill="#ED232F"/>
<path id="Vector_37" d="M41.988 28.9636C41.8582 28.9636 41.7718 28.9636 41.6997 28.9781L41.57 29.007L41.4835 29.1081C36.7989 33.9185 33.354 34.8719 29.8946 34.7996C28.9721 34.7852 18.5797 32.0116 15.4951 31.4049C13.333 30.986 11.5745 30.7982 10.7961 30.0182C10.6952 29.9026 10.5799 29.7292 10.4646 29.5126C10.4357 29.6426 10.4213 29.7726 10.4502 29.8881C10.8682 31.7083 12.1654 31.6072 16.7923 32.445C21.4192 33.2829 28.4676 36.4464 32.8927 35.5075C37.3178 34.5685 41.5411 30.6538 42.2763 28.9925C42.2618 28.9781 42.2474 28.9636 42.233 28.9347L42.1033 28.9203C41.8294 28.9058 42.1321 28.9636 41.988 28.9636Z" fill="#6B9BB1"/>
<path id="Vector_38" d="M42.6366 28.8913C45.3176 28.1401 45.2311 26.3922 45.2311 26.3922C45.2311 26.3922 45.5482 24.4131 45.2311 20.3828C44.914 16.3525 42.579 9.44749 32.4315 9.02856C32.2441 9.02856 32.0712 9.02856 31.8982 9.04301C35.2855 10.0253 40.3016 12.3366 41.5556 17.6381C42.8961 23.2719 42.824 27.0711 42.6366 28.8913Z" fill="#A3121B"/>
<path id="Vector_39" d="M41.9591 29.0501C43.2564 28.8046 44.0347 28.3712 44.5104 27.9089L43.8618 20.5995L41.4546 12.611L40.4457 11.4409C38.5574 10.1119 35.9773 9.18742 32.4459 9.04297C31.6964 9.05741 30.9757 9.08631 30.2982 9.14409C30.2982 9.14409 38.3412 12.0188 39.8547 17.2481C41.224 22.044 40.7628 28.2123 40.6763 29.209C41.2096 29.1657 41.642 29.1079 41.9591 29.0501Z" fill="#A3121B"/>
<g id="Group_8">
<path id="Vector_40" d="M35.2709 29.8159C28.8711 29.8159 23.8983 29.1658 20.4101 27.8946C16.7922 26.5656 16.158 25.0199 16.1003 24.8466L16.5183 24.7021L16.9364 24.5432C16.9364 24.5577 17.5273 25.9444 20.9579 27.1434C24.1433 28.2557 31.7828 29.3825 43.8761 28.6313L42.6365 29.5703C39.9987 29.7292 37.5484 29.8159 35.2709 29.8159Z" fill="#193F6E"/>
</g>
<g id="Group_9">
<path id="Vector_41" d="M23.2642 28.0534L22.6876 28.0245C22.6876 27.9812 22.9182 23.7486 23.5669 17.0459C24.2299 10.1409 30.1829 8.86967 30.2406 8.85522L30.3559 9.4186C30.327 9.4186 28.9289 9.72196 27.4731 10.8054C25.5272 12.2644 24.4029 14.3734 24.1434 17.0892C23.4948 23.792 23.2642 28.0101 23.2642 28.0534Z" fill="#193F6E"/>
</g>
<g id="Group_10">
<path id="Vector_42" d="M40.7771 29.3246C40.7771 29.2813 40.5465 25.0632 39.8979 18.3749C39.2781 11.8744 30.3126 9.44749 30.2117 9.4186L30.3558 8.85522C30.4567 8.88412 32.7341 9.49083 35.1413 10.9498C38.3556 12.9 40.2006 15.4569 40.46 18.3171C41.0942 25.0199 41.3393 29.2524 41.3393 29.2957L40.7771 29.3246Z" fill="#193F6E"/>
</g>
<path id="Vector_43" d="M30.4135 10.0397C29.246 10.0397 28.0063 9.73638 28.0063 8.85519C28.0063 7.97401 29.246 7.67065 30.4135 7.67065C31.581 7.67065 32.8206 7.97401 32.8206 8.85519C32.8206 9.73638 31.5666 10.0397 30.4135 10.0397Z" fill="#193F6E"/>
<path id="Vector_44" d="M32.244 8.85525C32.244 9.1875 31.4224 9.46197 30.4135 9.46197C29.4045 9.46197 28.5829 9.1875 28.5829 8.85525C28.5829 8.523 29.4045 8.24854 30.4135 8.24854C31.4224 8.24854 32.244 8.523 32.244 8.85525Z" fill="#ED232F"/>
<g id="Group_11">
<path id="Vector_45" d="M30.4279 33.6294C30.2838 33.6294 30.1396 33.6294 29.9955 33.615C29.909 33.615 29.8514 33.5428 29.8514 33.4705C29.8514 33.3839 29.9234 33.3261 29.9955 33.3261C30.1396 33.3261 30.2838 33.3405 30.4279 33.3405C30.5144 33.3405 30.5721 33.4128 30.5721 33.485C30.5721 33.5572 30.5 33.6294 30.4279 33.6294ZM30.8603 33.615C30.7883 33.615 30.7162 33.5572 30.7162 33.4705C30.7162 33.3839 30.7738 33.3261 30.8603 33.3261C31.0045 33.3261 31.1486 33.3116 31.2927 33.3116C31.3648 33.3116 31.4369 33.3694 31.4513 33.4416C31.4513 33.5283 31.3936 33.5861 31.3216 33.6005C31.1486 33.615 31.0045 33.615 30.8603 33.615ZM29.5631 33.5861C29.4045 33.5717 29.2604 33.5572 29.1162 33.5428C29.0442 33.5283 28.9865 33.4561 28.9865 33.3839C29.0009 33.3116 29.073 33.2394 29.1451 33.2539C29.2892 33.2683 29.4333 33.2827 29.5775 33.2972C29.664 33.2972 29.7216 33.3694 29.7072 33.4561C29.7072 33.5283 29.6351 33.5861 29.5631 33.5861ZM31.7252 33.5717C31.6531 33.5717 31.5954 33.5139 31.581 33.4416C31.5666 33.3694 31.6243 33.2972 31.7108 33.2827C31.8549 33.2683 31.999 33.2539 32.1288 33.2394C32.2008 33.225 32.2873 33.2827 32.2873 33.3694C32.3017 33.4416 32.2441 33.5283 32.1576 33.5283C32.0279 33.5428 31.8837 33.5572 31.7252 33.5717ZM28.6982 33.485H28.6838C28.5397 33.4705 28.3955 33.4416 28.2514 33.4128C28.1793 33.3983 28.1217 33.3261 28.1361 33.2394C28.1505 33.1672 28.2226 33.1094 28.3091 33.1238C28.4532 33.1527 28.5973 33.1672 28.7271 33.1961C28.7991 33.2105 28.8568 33.2827 28.8424 33.355C28.8424 33.4416 28.7703 33.485 28.6982 33.485ZM32.5756 33.4561C32.5035 33.4561 32.4459 33.4128 32.4315 33.3405C32.417 33.2683 32.4747 33.1816 32.5468 33.1672C32.6909 33.1383 32.8206 33.1094 32.9648 33.0805C33.0368 33.0661 33.1233 33.1094 33.1377 33.1961C33.1522 33.2683 33.1089 33.355 33.0224 33.3694C32.8783 33.3983 32.7341 33.4272 32.59 33.4561C32.59 33.4561 32.59 33.4561 32.5756 33.4561ZM27.8478 33.3405C27.8334 33.3405 27.8334 33.3405 27.819 33.3405C27.6748 33.3116 27.5307 33.2827 27.3866 33.2539C27.3145 33.2394 27.2568 33.1527 27.2712 33.0805C27.2857 33.0083 27.3721 32.9505 27.4442 32.9649C27.5884 32.9938 27.7181 33.0227 27.8622 33.0516C27.9343 33.0661 27.9919 33.1383 27.9775 33.225C27.9775 33.2972 27.9199 33.3405 27.8478 33.3405ZM33.426 33.2683C33.3684 33.2683 33.3107 33.225 33.2819 33.1672C33.2675 33.095 33.3107 33.0083 33.3828 32.9938C33.5269 32.9505 33.6566 32.9216 33.7864 32.8783C33.8584 32.8494 33.9449 32.8927 33.9593 32.9794C33.9882 33.0516 33.9449 33.1383 33.8584 33.1527C33.7143 33.1961 33.5846 33.2394 33.4404 33.2683C33.4404 33.2683 33.4404 33.2683 33.426 33.2683ZM27.0118 33.1527C26.9974 33.1527 26.983 33.1527 26.983 33.1527C26.8821 33.1238 26.7668 33.0949 26.6659 33.0661L26.565 33.0372C26.4929 33.0227 26.4496 32.936 26.4641 32.8638C26.4785 32.7916 26.565 32.7338 26.637 32.7627L26.7379 32.7916C26.8388 32.8205 26.9541 32.8494 27.055 32.8783C27.1271 32.8927 27.1848 32.9794 27.1559 33.0516C27.1271 33.1094 27.0695 33.1527 27.0118 33.1527ZM34.2476 33.0083C34.19 33.0083 34.1323 32.9649 34.1179 32.9072C34.0891 32.8349 34.1323 32.7483 34.2044 32.7194C34.3341 32.676 34.4782 32.6182 34.608 32.5749C34.68 32.546 34.7665 32.5749 34.7953 32.6616C34.8242 32.7338 34.7953 32.8205 34.7089 32.8494C34.5791 32.9072 34.435 32.9505 34.3053 33.0083C34.2764 33.0083 34.262 33.0083 34.2476 33.0083ZM26.1758 32.9216C26.1614 32.9216 26.147 32.9216 26.1325 32.9216C25.9884 32.8927 25.8587 32.8494 25.7145 32.8205C25.6425 32.806 25.5848 32.7194 25.6136 32.6471C25.6281 32.5749 25.7145 32.5171 25.7866 32.546C25.9307 32.5894 26.0749 32.6182 26.2046 32.6616C26.2767 32.676 26.3343 32.7627 26.3055 32.8349C26.2911 32.8783 26.2334 32.9216 26.1758 32.9216ZM25.3398 32.7194C25.3254 32.7194 25.3109 32.7194 25.3109 32.7194C25.1668 32.6905 25.0371 32.6471 24.8929 32.6182C24.8209 32.6038 24.7632 32.5171 24.792 32.4449C24.8065 32.3727 24.8929 32.3149 24.965 32.3438C25.1091 32.3727 25.2533 32.416 25.383 32.4449C25.4551 32.4593 25.5127 32.546 25.4839 32.6182C25.4551 32.676 25.3974 32.7194 25.3398 32.7194ZM35.0548 32.6905C34.9971 32.6905 34.9539 32.6616 34.9251 32.6038C34.8962 32.5316 34.9251 32.4449 34.9971 32.416C35.1269 32.3582 35.2566 32.3004 35.3863 32.2282C35.4584 32.1993 35.5449 32.2282 35.5737 32.3004C35.6025 32.3727 35.5737 32.4593 35.5016 32.4882C35.3719 32.546 35.2422 32.6182 35.098 32.676C35.098 32.6905 35.0692 32.6905 35.0548 32.6905ZM24.4893 32.5027C24.4749 32.5027 24.4605 32.5027 24.4605 32.5027C24.3164 32.4738 24.1867 32.4305 24.0425 32.4016C23.9704 32.3871 23.9128 32.3004 23.9416 32.2282C23.956 32.156 24.0425 32.0982 24.1146 32.1271C24.2587 32.156 24.4029 32.1993 24.5326 32.2282C24.6047 32.2427 24.6623 32.3293 24.6335 32.4016C24.6191 32.4593 24.5614 32.5027 24.4893 32.5027ZM35.8332 32.3149C35.7755 32.3149 35.7323 32.286 35.7034 32.2427C35.6602 32.1704 35.689 32.0838 35.7611 32.0404C35.8908 31.9682 36.0061 31.896 36.1358 31.8237C36.2079 31.7804 36.2944 31.8093 36.3376 31.8815C36.3809 31.9537 36.3521 32.0404 36.28 32.0838C36.1503 32.156 36.0205 32.2282 35.9052 32.3004C35.8764 32.3004 35.8476 32.3149 35.8332 32.3149ZM23.6533 32.3149C23.6389 32.3149 23.6245 32.3149 23.6245 32.3149L23.2065 32.2138C23.1344 32.1993 23.0768 32.1126 23.0912 32.0404C23.1056 31.9682 23.1921 31.9104 23.2642 31.9249L23.6822 32.026C23.7542 32.0404 23.8119 32.1271 23.7831 32.1993C23.7686 32.2571 23.711 32.3149 23.6533 32.3149ZM22.8029 32.1126C22.7885 32.1126 22.7885 32.1126 22.7741 32.1126L22.3561 32.0115C22.284 31.9971 22.2264 31.9104 22.2408 31.8382C22.2552 31.766 22.3417 31.7082 22.4137 31.7226L22.8317 31.8237C22.9038 31.8382 22.9615 31.9249 22.9471 31.9971C22.9326 32.0693 22.875 32.1126 22.8029 32.1126ZM21.9669 31.9249C21.9525 31.9249 21.9525 31.9249 21.9381 31.9249L21.5201 31.8382C21.448 31.8237 21.3903 31.7371 21.4048 31.6648C21.4192 31.5926 21.5057 31.5348 21.5777 31.5493L21.9957 31.6359C22.0678 31.6504 22.1255 31.7371 22.111 31.8093C22.0822 31.8815 22.0246 31.9249 21.9669 31.9249ZM36.5683 31.8671C36.525 31.8671 36.4674 31.8382 36.453 31.7948C36.4097 31.7226 36.4241 31.6359 36.4962 31.5926C36.6115 31.5204 36.7412 31.4337 36.8565 31.3615C36.9286 31.3181 37.0151 31.3326 37.0583 31.4048C37.1016 31.477 37.0872 31.5637 37.0151 31.6071C36.8998 31.6937 36.7701 31.766 36.6548 31.8526C36.6259 31.8671 36.5971 31.8671 36.5683 31.8671ZM21.1165 31.7371C21.1021 31.7371 21.1021 31.7371 21.0876 31.7371L20.6696 31.6504C20.5976 31.6359 20.5399 31.5637 20.5543 31.477C20.5687 31.4048 20.6552 31.347 20.7273 31.3615L21.1453 31.4482C21.2174 31.4626 21.275 31.5493 21.2606 31.6215C21.2462 31.6937 21.1885 31.7371 21.1165 31.7371ZM20.266 31.5493C20.2516 31.5493 20.2516 31.5493 20.2372 31.5493L19.8192 31.4626C19.7471 31.4482 19.6895 31.3759 19.7039 31.2892C19.7183 31.217 19.8048 31.1592 19.8769 31.1737L20.2949 31.2604C20.3669 31.2748 20.4246 31.347 20.4102 31.4337C20.3958 31.5059 20.3381 31.5493 20.266 31.5493ZM37.289 31.3904C37.2457 31.3904 37.2025 31.3759 37.1737 31.3326C37.1304 31.2748 37.1448 31.1737 37.2025 31.1303C37.3178 31.0437 37.4331 30.957 37.5484 30.8703C37.6061 30.827 37.707 30.827 37.7502 30.8992C37.7935 30.957 37.7935 31.0581 37.7214 31.1015C37.6061 31.1881 37.4908 31.2748 37.3755 31.3615C37.3466 31.3759 37.3178 31.3904 37.289 31.3904ZM19.43 31.3759C19.4156 31.3759 19.4156 31.3759 19.4012 31.3759L18.9832 31.2892C18.9111 31.2748 18.8535 31.2026 18.8679 31.1159C18.8823 31.0437 18.9544 30.9859 19.0409 31.0003L19.4589 31.087C19.5309 31.1015 19.5886 31.1737 19.5742 31.2604C19.5453 31.3181 19.4877 31.3759 19.43 31.3759ZM18.5796 31.1881C18.5652 31.1881 18.5652 31.1881 18.5508 31.1881L18.1328 31.1015C18.0607 31.087 18.0031 31.0148 18.0175 30.9281C18.0319 30.8559 18.104 30.7981 18.1904 30.8125L18.6084 30.8992C18.6805 30.9137 18.7382 30.9859 18.7238 31.0726C18.7093 31.1448 18.6373 31.1881 18.5796 31.1881ZM17.7292 31.0003C17.7148 31.0003 17.7148 31.0003 17.7004 31.0003L17.2824 30.9137C17.2103 30.8992 17.1526 30.827 17.167 30.7403C17.1815 30.6681 17.2679 30.6103 17.34 30.6248L17.758 30.7114C17.8301 30.7259 17.8877 30.7981 17.8733 30.8848C17.8589 30.957 17.8013 31.0003 17.7292 31.0003ZM37.9808 30.8559C37.9376 30.8559 37.8944 30.8414 37.8655 30.7981C37.8223 30.7403 37.8223 30.6392 37.8799 30.5959C37.9953 30.5092 38.0962 30.4081 38.2115 30.3214C38.2691 30.2636 38.37 30.2781 38.4133 30.3358C38.4709 30.3936 38.4565 30.4803 38.3988 30.5381C38.2835 30.6392 38.1826 30.7259 38.0673 30.8125C38.0385 30.8414 38.0097 30.8559 37.9808 30.8559ZM16.8788 30.827C16.8643 30.827 16.8643 30.827 16.8499 30.827C16.7058 30.7981 16.5617 30.7692 16.4319 30.7259C16.3599 30.7114 16.3022 30.6248 16.3166 30.5525C16.331 30.4803 16.4175 30.4225 16.4896 30.437C16.6193 30.4658 16.7634 30.4947 16.9076 30.5381C16.9797 30.5525 17.0373 30.6392 17.0229 30.7114C17.0085 30.7837 16.9508 30.827 16.8788 30.827ZM16.0428 30.6248C16.0283 30.6248 16.0139 30.6248 16.0139 30.6248C15.8554 30.5814 15.7112 30.5525 15.5959 30.5236C15.5238 30.5092 15.4662 30.4225 15.495 30.3503C15.5094 30.2781 15.5959 30.2203 15.668 30.2492C15.7833 30.2781 15.9274 30.3069 16.086 30.3503C16.1581 30.3647 16.2157 30.4514 16.1869 30.5236C16.1581 30.5814 16.1004 30.6248 16.0428 30.6248ZM15.1923 30.4225C15.1779 30.4225 15.1635 30.4225 15.1635 30.4225C15.0338 30.3936 14.8896 30.3647 14.7455 30.3358C14.6734 30.3214 14.6158 30.2492 14.6302 30.1625C14.6446 30.0903 14.7167 30.0325 14.8031 30.0469C14.9473 30.0758 15.0914 30.1047 15.2356 30.148C15.3076 30.1625 15.3653 30.2492 15.3365 30.3214C15.3221 30.3792 15.2644 30.4225 15.1923 30.4225ZM38.6295 30.2925C38.5862 30.2925 38.5574 30.2781 38.5286 30.2492C38.4709 30.1914 38.4853 30.1047 38.543 30.0469C38.6439 29.9458 38.7592 29.8591 38.8601 29.758C38.9177 29.7002 39.0042 29.7002 39.0619 29.758C39.1195 29.8158 39.1195 29.9025 39.0619 29.9603C38.961 30.0614 38.8457 30.1625 38.7448 30.2492C38.7015 30.2781 38.6583 30.2925 38.6295 30.2925ZM14.3563 30.2347C14.3419 30.2347 14.3419 30.2347 14.3275 30.2347L14.2698 30.2203C14.1401 30.1914 14.0248 30.1769 13.8951 30.148C13.823 30.1336 13.7653 30.0614 13.7798 29.9747C13.7942 29.9025 13.8662 29.8447 13.9527 29.8591C14.0824 29.888 14.1978 29.9025 14.3275 29.9314L14.3851 29.9458C14.4572 29.9603 14.5149 30.0325 14.5005 30.1192C14.486 30.1914 14.414 30.2347 14.3563 30.2347ZM13.5059 30.0614C13.4915 30.0614 13.4915 30.0614 13.4771 30.0614C13.3329 30.0325 13.1888 29.9891 13.0446 29.9603C12.9726 29.9458 12.9149 29.8591 12.9437 29.7869C12.9582 29.7147 13.0446 29.6569 13.1167 29.6858C13.2464 29.7147 13.3906 29.758 13.5347 29.7869C13.6068 29.8014 13.6644 29.888 13.65 29.9603C13.6356 30.018 13.5635 30.0614 13.5059 30.0614ZM12.6699 29.8447C12.6555 29.8447 12.641 29.8447 12.6266 29.8447C12.4681 29.7869 12.3239 29.7436 12.2086 29.6858C12.1366 29.6569 12.1077 29.5702 12.1366 29.498C12.1654 29.4258 12.2519 29.3969 12.3239 29.4258C12.4248 29.4691 12.5546 29.5269 12.7131 29.5702C12.7852 29.5991 12.8284 29.6713 12.7996 29.758C12.7852 29.8014 12.7275 29.8447 12.6699 29.8447ZM39.2637 29.7002C39.2204 29.7002 39.1916 29.6858 39.1628 29.6569C39.1051 29.5991 39.1051 29.5124 39.1628 29.4547C39.206 29.4113 39.2637 29.3535 39.3069 29.3102C39.3646 29.2524 39.4511 29.2524 39.5087 29.3102C39.5664 29.368 39.5664 29.4547 39.5087 29.5124C39.4655 29.5558 39.4078 29.6136 39.3646 29.6569C39.3358 29.6858 39.2925 29.7002 39.2637 29.7002ZM11.9059 29.4547C11.8627 29.4547 11.8339 29.4402 11.805 29.4113C11.7041 29.2958 11.6465 29.1802 11.6465 29.0502C11.6465 28.9924 11.6609 28.9202 11.6897 28.8624C11.7186 28.7902 11.805 28.7468 11.8771 28.7757C11.9492 28.8046 11.9924 28.8913 11.9636 28.9635C11.9492 28.9924 11.9492 29.0213 11.9492 29.0502C11.9492 29.108 11.978 29.1513 12.0212 29.2091C12.0789 29.2669 12.0789 29.3535 12.0212 29.4113C11.978 29.4402 11.9348 29.4547 11.9059 29.4547ZM12.0645 28.7179C12.0212 28.7179 11.9924 28.7035 11.9636 28.6746C11.9059 28.6168 11.9059 28.5301 11.9636 28.4724C12.0501 28.3857 12.1654 28.2846 12.2951 28.169C12.3528 28.1257 12.4537 28.1257 12.4969 28.1834C12.5402 28.2412 12.5402 28.3423 12.4825 28.3857C12.3528 28.4868 12.2519 28.5879 12.1654 28.6601C12.1366 28.7035 12.1077 28.7179 12.0645 28.7179ZM12.7419 28.169C12.6987 28.169 12.6555 28.1546 12.6266 28.1112C12.5834 28.0534 12.5978 27.9523 12.6555 27.909C12.7708 27.8223 12.8861 27.7356 13.0158 27.649C13.0879 27.6056 13.1744 27.6201 13.2176 27.6778C13.2609 27.7501 13.2464 27.8368 13.1888 27.8801C13.0735 27.9668 12.9437 28.0534 12.8428 28.1257C12.7996 28.1546 12.7708 28.169 12.7419 28.169ZM13.4482 27.6778C13.405 27.6778 13.3617 27.649 13.3329 27.6201C13.2897 27.5478 13.3041 27.4612 13.3762 27.4178C13.4915 27.3312 13.6212 27.2589 13.7365 27.1723C13.8086 27.1289 13.8951 27.1434 13.9383 27.2156C13.9816 27.2878 13.9671 27.3745 13.8951 27.4178C13.7798 27.4901 13.65 27.5767 13.5347 27.649C13.5059 27.6634 13.4771 27.6778 13.4482 27.6778ZM14.1833 27.2011C14.1401 27.2011 14.0824 27.1723 14.068 27.1289C14.0248 27.0567 14.0392 26.97 14.1113 26.9267C14.241 26.8544 14.3563 26.7678 14.486 26.6955C14.5581 26.6522 14.6446 26.6811 14.6878 26.7389C14.7311 26.8111 14.7023 26.8978 14.6446 26.9411C14.5293 27.0134 14.3996 27.0856 14.2842 27.1723C14.2266 27.1867 14.1978 27.2011 14.1833 27.2011ZM14.9185 26.7389C14.8752 26.7389 14.8176 26.71 14.7887 26.6667C14.7455 26.5944 14.7743 26.5078 14.832 26.4644C14.9617 26.3922 15.077 26.3055 15.2067 26.2477C15.2788 26.2044 15.3653 26.2333 15.4085 26.2911C15.4518 26.3633 15.4229 26.45 15.3653 26.4933C15.25 26.5655 15.1203 26.6378 14.9905 26.71C14.9617 26.7389 14.9473 26.7389 14.9185 26.7389ZM15.6536 26.3055C15.6103 26.3055 15.5527 26.2766 15.5238 26.2333C15.4806 26.1611 15.5094 26.0744 15.5815 26.031C15.7112 25.9588 15.841 25.8721 15.9563 25.8144C16.0283 25.771 16.1148 25.7999 16.1581 25.8721C16.2013 25.9444 16.1725 26.0311 16.1004 26.0744C15.9851 26.1466 15.8554 26.2188 15.7256 26.2911C15.7112 26.2911 15.6824 26.3055 15.6536 26.3055ZM16.4175 25.8577C16.3743 25.8577 16.3166 25.8288 16.2878 25.7855C16.2445 25.7132 16.2734 25.6266 16.3454 25.5832C16.5905 25.4532 16.7202 25.3666 16.7202 25.3666C16.7923 25.3232 16.8788 25.3521 16.922 25.4243C16.9652 25.4966 16.9364 25.5832 16.8643 25.6266C16.8643 25.6266 16.7202 25.6988 16.4896 25.8433C16.4608 25.8577 16.4319 25.8577 16.4175 25.8577Z" fill="#193F6E"/>
</g>
<g id="Group_12">
<path id="Vector_46" d="M30.5577 33.1094C30.4136 33.1094 30.2694 33.1094 30.1253 33.0949C30.0388 33.0949 29.9811 33.0227 29.9811 32.9505C29.9811 32.8638 30.0532 32.806 30.1253 32.806C30.2694 32.806 30.4136 32.8205 30.5577 32.8205C30.6442 32.8205 30.7018 32.8927 30.7018 32.9649C30.7018 33.0516 30.6442 33.1094 30.5577 33.1094ZM30.9901 33.1094C30.918 33.1094 30.846 33.0516 30.846 32.9649C30.846 32.8783 30.9036 32.8205 30.9901 32.8205C31.1343 32.8205 31.2784 32.806 31.4225 32.806C31.509 32.806 31.5667 32.8638 31.5811 32.936C31.5811 33.0227 31.5234 33.0805 31.4514 33.0949C31.2928 33.0949 31.1487 33.1094 30.9901 33.1094ZM29.6929 33.0805C29.5343 33.066 29.3902 33.0516 29.246 33.0372C29.174 33.0227 29.1163 32.9505 29.1163 32.8783C29.1307 32.806 29.2028 32.7482 29.2749 32.7482C29.419 32.7627 29.5631 32.7771 29.7073 32.7916C29.7938 32.7916 29.8514 32.8638 29.837 32.9505C29.837 33.0227 29.7649 33.0805 29.6929 33.0805ZM31.855 33.0516C31.7829 33.0516 31.7252 32.9938 31.7108 32.9216C31.6964 32.8494 31.7541 32.7771 31.8405 32.7627C31.9847 32.7482 32.1288 32.7338 32.2585 32.7049C32.3306 32.6905 32.4171 32.7482 32.4171 32.8205C32.4315 32.8927 32.3739 32.9794 32.3018 32.9794C32.1576 33.0083 32.0135 33.0227 31.8694 33.0372C31.8694 33.0516 31.855 33.0516 31.855 33.0516ZM28.8424 32.9794H28.828C28.6839 32.9649 28.5397 32.936 28.3956 32.9071C28.3235 32.8927 28.2659 32.8205 28.2803 32.7338C28.2947 32.6616 28.3668 32.6038 28.4533 32.6182C28.5974 32.6471 28.7415 32.6616 28.8713 32.6905C28.9433 32.7049 29.001 32.7771 28.9866 32.8494C28.9722 32.9216 28.9001 32.9794 28.8424 32.9794ZM32.7054 32.9216C32.6333 32.9216 32.5757 32.8783 32.5612 32.806C32.5468 32.7338 32.5901 32.6471 32.6766 32.6327C32.8207 32.6038 32.9504 32.5749 33.0946 32.546C33.1666 32.5316 33.2531 32.5749 33.2675 32.6471C33.2819 32.7193 33.2387 32.806 33.1666 32.8205C33.0225 32.8494 32.8783 32.8927 32.7342 32.9071C32.7198 32.9216 32.7198 32.9216 32.7054 32.9216ZM27.9776 32.8349C27.9632 32.8349 27.9632 32.8349 27.9488 32.8349C27.8046 32.806 27.6605 32.7771 27.5163 32.7482C27.4443 32.7338 27.3866 32.6471 27.4154 32.5749C27.4299 32.5027 27.5163 32.4449 27.5884 32.4738C27.7326 32.5027 27.8623 32.5316 28.0064 32.5604C28.0785 32.5749 28.1361 32.6471 28.1217 32.7338C28.1073 32.7771 28.0497 32.8349 27.9776 32.8349ZM33.5414 32.7193C33.4837 32.7193 33.4261 32.676 33.3973 32.6182C33.3684 32.546 33.4261 32.4593 33.4981 32.4449C33.6423 32.4015 33.772 32.3582 33.9017 32.3149C33.9738 32.286 34.0603 32.3293 34.0891 32.4015C34.118 32.4738 34.0747 32.5604 34.0026 32.5893C33.8585 32.6327 33.7288 32.676 33.5846 32.7193C33.5702 32.7193 33.5558 32.7193 33.5414 32.7193ZM27.1416 32.6327C27.1272 32.6327 27.1128 32.6327 27.0983 32.6327C27.0407 32.6182 26.983 32.6038 26.9254 32.5893L26.6803 32.5171C26.6083 32.5027 26.5506 32.416 26.5794 32.3438C26.5938 32.2715 26.6803 32.2282 26.7524 32.2426L26.9974 32.3149C27.0551 32.3293 27.1128 32.3438 27.1704 32.3582C27.2425 32.3727 27.3001 32.4593 27.2713 32.5316C27.2713 32.5893 27.2136 32.6327 27.1416 32.6327ZM34.363 32.4449C34.3053 32.4449 34.2477 32.416 34.2333 32.3582C34.2044 32.286 34.2477 32.1993 34.3197 32.1704C34.4495 32.1126 34.5792 32.0693 34.7089 32.0115C34.781 31.9826 34.8675 32.0115 34.8963 32.0837C34.9251 32.156 34.8963 32.2426 34.8242 32.2715C34.6945 32.3293 34.5504 32.3871 34.4206 32.4304C34.4062 32.4449 34.3918 32.4449 34.363 32.4449ZM26.3056 32.416C26.2912 32.416 26.2767 32.416 26.2623 32.416C26.1182 32.3871 25.9885 32.3438 25.8443 32.3149C25.7723 32.3004 25.7146 32.2138 25.7434 32.1415C25.7578 32.0693 25.8443 32.0115 25.9164 32.0404C26.0605 32.0693 26.2047 32.1126 26.3344 32.1415C26.4065 32.156 26.4641 32.2426 26.4353 32.3149C26.4353 32.3727 26.3632 32.416 26.3056 32.416ZM25.4696 32.1993C25.4551 32.1993 25.4407 32.1993 25.4407 32.1993C25.2966 32.1704 25.1669 32.1271 25.0227 32.0982C24.9507 32.0837 24.893 31.9971 24.9218 31.9248C24.9362 31.8526 25.0227 31.7948 25.0948 31.8237C25.2389 31.8526 25.3831 31.896 25.5128 31.9248C25.5849 31.9393 25.6425 32.026 25.6137 32.0982C25.5849 32.156 25.5272 32.1993 25.4696 32.1993ZM35.1558 32.0982C35.0981 32.0982 35.0549 32.0693 35.026 32.0115C34.9972 31.9393 35.026 31.8526 35.0981 31.8237C35.2278 31.7659 35.3576 31.6937 35.4729 31.6359C35.5449 31.5926 35.6314 31.6215 35.6747 31.6937C35.7179 31.7659 35.6891 31.8526 35.617 31.896C35.4873 31.9682 35.3576 32.026 35.2278 32.0982C35.199 32.0982 35.1846 32.0982 35.1558 32.0982ZM24.6191 31.9971C24.6047 31.9971 24.5903 31.9971 24.5903 31.9971L24.1723 31.896C24.1002 31.8815 24.0426 31.7948 24.0714 31.7226C24.0858 31.6504 24.1723 31.5926 24.2444 31.6215L24.6624 31.7226C24.7344 31.7371 24.7921 31.8237 24.7633 31.896C24.7489 31.9537 24.6912 31.9971 24.6191 31.9971ZM23.7831 31.7948C23.7687 31.7948 23.7687 31.7948 23.7543 31.7948L23.3363 31.6937C23.2642 31.6793 23.2066 31.5926 23.221 31.5204C23.2354 31.4481 23.3219 31.3904 23.3939 31.4048L23.8119 31.5059C23.884 31.5204 23.9417 31.607 23.9273 31.6793C23.9128 31.7515 23.8408 31.7948 23.7831 31.7948ZM35.9197 31.6937C35.8765 31.6937 35.8188 31.6648 35.79 31.6215C35.7467 31.5493 35.7756 31.4626 35.8476 31.4192C35.9774 31.347 36.0927 31.2748 36.208 31.2026C36.2801 31.1592 36.3665 31.1737 36.4098 31.2459C36.453 31.3181 36.4386 31.4048 36.3665 31.4481C36.2368 31.5204 36.1215 31.607 35.9918 31.6793C35.9774 31.6937 35.9485 31.6937 35.9197 31.6937ZM22.9327 31.607C22.9183 31.607 22.9183 31.607 22.9039 31.607L22.4859 31.5059C22.4138 31.4915 22.3561 31.4048 22.3706 31.3326C22.385 31.2603 22.457 31.2026 22.5435 31.217L22.9615 31.3181C23.0336 31.3326 23.0912 31.4192 23.0768 31.4915C23.0624 31.5637 23.0048 31.607 22.9327 31.607ZM22.0967 31.4192C22.0823 31.4192 22.0823 31.4192 22.0679 31.4192L21.6499 31.3326C21.5778 31.3181 21.5201 31.2315 21.5345 31.1592C21.549 31.087 21.6354 31.0292 21.7075 31.0437L22.1255 31.1303C22.1976 31.1448 22.2552 31.2315 22.2408 31.3037C22.212 31.3759 22.1543 31.4192 22.0967 31.4192ZM21.2463 31.2315C21.2318 31.2315 21.2318 31.2315 21.2174 31.2315L20.7994 31.1448C20.7274 31.1303 20.6697 31.0581 20.6841 30.9714C20.6985 30.8992 20.7706 30.8414 20.8571 30.8559L21.2751 30.9425C21.3472 30.957 21.4048 31.0292 21.3904 31.1159C21.376 31.1881 21.3183 31.2315 21.2463 31.2315ZM36.6548 31.2315C36.6116 31.2315 36.5683 31.2026 36.5395 31.1737C36.4963 31.1014 36.5107 31.0148 36.5827 30.9714C36.6981 30.8848 36.8134 30.8125 36.9287 30.7259C36.9863 30.6825 37.0872 30.697 37.1305 30.7547C37.1737 30.8125 37.1593 30.9137 37.1016 30.957C36.9863 31.0437 36.871 31.1303 36.7413 31.217C36.7125 31.217 36.6836 31.2315 36.6548 31.2315ZM20.3958 31.0437C20.3814 31.0437 20.3814 31.0437 20.367 31.0437L19.949 30.957C19.8769 30.9425 19.8193 30.8703 19.8337 30.7836C19.8481 30.7114 19.9202 30.6536 20.0067 30.6681L20.4247 30.7547C20.4967 30.7692 20.5544 30.8414 20.54 30.9281C20.5256 31.0003 20.4679 31.0437 20.3958 31.0437ZM19.5598 30.8703C19.5454 30.8703 19.5454 30.8703 19.531 30.8703L19.113 30.7836C19.0409 30.7692 18.9833 30.697 18.9977 30.6103C19.0121 30.5381 19.0842 30.4803 19.1706 30.4947L19.5887 30.5814C19.6607 30.5958 19.7184 30.6681 19.704 30.7547C19.6751 30.827 19.6175 30.8703 19.5598 30.8703ZM37.3611 30.7259C37.3179 30.7259 37.2746 30.7114 37.2458 30.6681C37.2025 30.6103 37.2025 30.5092 37.2746 30.4658C37.3899 30.3792 37.5052 30.2925 37.6061 30.1914C37.6638 30.1336 37.7647 30.148 37.8079 30.2058C37.8656 30.2636 37.8512 30.3647 37.7935 30.4081C37.6782 30.4947 37.5629 30.5958 37.4476 30.6825C37.4188 30.7114 37.3899 30.7259 37.3611 30.7259ZM18.7094 30.6825C18.695 30.6825 18.695 30.6825 18.6806 30.6825L18.2626 30.5958C18.1905 30.5814 18.1328 30.5092 18.1473 30.4225C18.1617 30.3503 18.2337 30.2925 18.3202 30.3069L18.7382 30.3936C18.8103 30.4081 18.8679 30.4803 18.8535 30.567C18.8391 30.6392 18.7671 30.6825 18.7094 30.6825ZM17.859 30.5092C17.8446 30.5092 17.8446 30.5092 17.8301 30.5092C17.686 30.4803 17.5419 30.4514 17.4121 30.4225C17.3401 30.4081 17.2824 30.3214 17.2968 30.2492C17.3112 30.1769 17.3977 30.1191 17.4698 30.1336C17.5995 30.1625 17.7437 30.1914 17.8878 30.2203C17.9599 30.2347 18.0175 30.3214 18.0031 30.3936C17.9887 30.4514 17.931 30.5092 17.859 30.5092ZM17.0085 30.3069C16.9941 30.3069 16.9797 30.3069 16.9797 30.3069C16.8212 30.2636 16.677 30.2347 16.5617 30.2058C16.4896 30.1914 16.432 30.1047 16.4608 30.0325C16.4752 29.9602 16.5617 29.9025 16.6338 29.9313C16.7491 29.9602 16.8932 29.9891 17.0518 30.0325C17.1239 30.0469 17.1815 30.1336 17.1527 30.2058C17.1383 30.2636 17.0806 30.3069 17.0085 30.3069ZM38.0241 30.1625C37.9809 30.1625 37.9377 30.148 37.9088 30.1191C37.8512 30.0614 37.8656 29.9747 37.9232 29.9169C38.0386 29.8158 38.1395 29.7291 38.2404 29.628C38.298 29.5702 38.3845 29.5847 38.4421 29.6424C38.4998 29.7002 38.4854 29.7869 38.4277 29.8447C38.3268 29.9458 38.2115 30.0325 38.0962 30.1336C38.0962 30.148 38.053 30.1625 38.0241 30.1625ZM16.1725 30.1047C16.1581 30.1047 16.1437 30.1047 16.1437 30.1047C16.014 30.0758 15.8698 30.0469 15.7257 30.018C15.6536 30.0036 15.596 29.9313 15.6104 29.8447C15.6248 29.7724 15.6969 29.7147 15.7834 29.7291C15.9275 29.758 16.0716 29.7869 16.2158 29.8158C16.2878 29.8302 16.3455 29.9169 16.3167 29.9891C16.3023 30.0614 16.2446 30.1047 16.1725 30.1047ZM15.3221 29.9313C15.3077 29.9313 15.3077 29.9313 15.2933 29.9313L14.8609 29.8591C14.7888 29.8447 14.7311 29.7724 14.7455 29.6858C14.76 29.6135 14.832 29.5558 14.9185 29.5702L15.3509 29.6424C15.423 29.6569 15.4807 29.7291 15.4662 29.8158C15.4518 29.888 15.3942 29.9313 15.3221 29.9313ZM14.4717 29.7869C14.4573 29.7869 14.4573 29.7869 14.4429 29.7869C14.2987 29.758 14.1546 29.7291 14.0104 29.7002C13.9384 29.6858 13.8807 29.6135 13.8951 29.5269C13.9095 29.4546 13.9816 29.3969 14.0681 29.4113C14.1978 29.4402 14.342 29.4691 14.4861 29.498C14.5582 29.5124 14.6158 29.5847 14.6014 29.6713C14.6014 29.7291 14.5438 29.7869 14.4717 29.7869ZM13.6213 29.5991C13.6068 29.5991 13.5924 29.5991 13.578 29.5991C13.4195 29.5558 13.2753 29.5124 13.1456 29.4691C13.0735 29.4402 13.0303 29.3535 13.0591 29.2813C13.0879 29.2091 13.1744 29.1657 13.2465 29.1946C13.3618 29.238 13.4915 29.2813 13.6501 29.3102C13.7222 29.3246 13.7798 29.4113 13.751 29.4835C13.751 29.5558 13.6933 29.5991 13.6213 29.5991ZM38.6584 29.5847C38.6151 29.5847 38.5863 29.5702 38.5575 29.5413C38.4998 29.4835 38.4998 29.3969 38.5575 29.3391C38.6584 29.238 38.7593 29.1368 38.8602 29.0357C38.9178 28.9779 39.0043 28.9779 39.0619 29.0357C39.1196 29.0935 39.1196 29.1802 39.0619 29.238C38.9611 29.3391 38.8602 29.4402 38.7448 29.5413C38.7304 29.5702 38.7016 29.5847 38.6584 29.5847ZM12.8285 29.2813C12.7997 29.2813 12.7708 29.2669 12.742 29.2524C12.569 29.1224 12.4681 28.9779 12.4681 28.819C12.4681 28.8046 12.4681 28.7757 12.4681 28.7613C12.4826 28.689 12.5546 28.6312 12.6267 28.6457C12.6988 28.6601 12.7564 28.7324 12.742 28.8046V28.819C12.742 28.8768 12.7852 28.949 12.8861 29.0068C12.9582 29.0502 12.9726 29.1368 12.9294 29.2091C12.915 29.2669 12.8717 29.2813 12.8285 29.2813ZM12.8429 28.5735C12.7997 28.5735 12.7708 28.559 12.742 28.5301C12.6843 28.4723 12.6843 28.3857 12.742 28.3279C12.8285 28.2412 12.9438 28.1401 13.0879 28.039C13.1456 27.9956 13.2465 27.9956 13.2897 28.0679C13.333 28.1256 13.333 28.2268 13.2609 28.2701C13.1312 28.3712 13.0303 28.4579 12.9438 28.5446C12.9294 28.559 12.8861 28.5735 12.8429 28.5735ZM13.5204 28.0245C13.4771 28.0245 13.4339 28.0101 13.405 27.9667C13.3618 27.909 13.3762 27.8078 13.4339 27.7645C13.5492 27.6778 13.6645 27.6056 13.7942 27.5189C13.8663 27.4756 13.9528 27.49 13.996 27.5623C14.0393 27.6345 14.0248 27.7212 13.9528 27.7645C13.8231 27.8512 13.7077 27.9234 13.6068 28.0101C13.578 28.0245 13.5492 28.0245 13.5204 28.0245ZM14.2411 27.5478C14.1978 27.5478 14.1402 27.5189 14.1257 27.4756C14.0825 27.4034 14.0969 27.3167 14.169 27.2734C14.2843 27.2011 14.414 27.1145 14.5438 27.0422C14.6158 26.9989 14.7023 27.0278 14.7455 27.0856C14.7888 27.1578 14.76 27.2445 14.7023 27.2878C14.5726 27.36 14.4573 27.4467 14.342 27.5189C14.2987 27.5334 14.2699 27.5478 14.2411 27.5478ZM14.9762 27.0856C14.9329 27.0856 14.8753 27.0567 14.8464 27.0133C14.8032 26.9411 14.832 26.8544 14.8897 26.8111C15.0194 26.7389 15.1347 26.6666 15.2645 26.58C15.3365 26.5366 15.423 26.5655 15.4662 26.6378C15.5095 26.71 15.4807 26.7967 15.4086 26.84C15.2789 26.9122 15.1636 26.9844 15.0338 27.0567C15.0338 27.0856 15.005 27.0856 14.9762 27.0856ZM15.7257 26.6378C15.6825 26.6378 15.6248 26.6089 15.596 26.5655C15.5527 26.4933 15.5816 26.4066 15.6536 26.3633C15.7834 26.2911 15.9131 26.2188 16.0284 26.1466C16.1005 26.1033 16.1869 26.1322 16.2302 26.2044C16.2734 26.2766 16.2446 26.3633 16.1725 26.4066C16.0572 26.4789 15.9275 26.5511 15.7978 26.6233C15.7689 26.6378 15.7545 26.6378 15.7257 26.6378ZM16.4752 26.2044C16.432 26.2044 16.3743 26.1755 16.3455 26.1322C16.3023 26.0599 16.3311 25.9733 16.4032 25.9299C16.5329 25.8577 16.6626 25.7855 16.7779 25.7132C16.85 25.6699 16.9365 25.6988 16.9797 25.771C17.023 25.8432 16.9941 25.9299 16.9221 25.9733C16.8068 26.031 16.677 26.1033 16.5473 26.1899C16.5185 26.2044 16.5041 26.2044 16.4752 26.2044Z" fill="#193F6E"/>
</g>
<g id="Group_13">
<path id="Vector_47" d="M30.4568 32.5749H30.3559C30.2694 32.5749 30.2117 32.5027 30.2117 32.4304C30.2117 32.3582 30.2838 32.286 30.3559 32.286H30.4568C30.5721 32.286 30.673 32.286 30.7883 32.286C30.8748 32.286 30.9324 32.3438 30.9324 32.4304C30.9324 32.5171 30.8748 32.5749 30.7883 32.5749C30.6874 32.5604 30.5721 32.5749 30.4568 32.5749ZM29.9235 32.5604C29.7793 32.5604 29.6208 32.546 29.4766 32.5316C29.3901 32.5316 29.3325 32.4593 29.3469 32.3727C29.3469 32.286 29.419 32.2282 29.5054 32.2426C29.6496 32.2571 29.7937 32.2571 29.9379 32.2715C30.0243 32.2715 30.082 32.3438 30.082 32.416C30.0676 32.5027 30.0099 32.5604 29.9235 32.5604ZM31.2207 32.546C31.1486 32.546 31.0766 32.4882 31.0766 32.416C31.0766 32.3293 31.1342 32.2715 31.2063 32.2571C31.3504 32.2426 31.4946 32.2282 31.6243 32.2138C31.6964 32.1993 31.7684 32.2571 31.7829 32.3438C31.7973 32.416 31.7396 32.4882 31.6531 32.5027C31.5234 32.5171 31.3793 32.5316 31.2207 32.546C31.2351 32.546 31.2351 32.546 31.2207 32.546ZM29.073 32.4882H29.0586C28.9145 32.4738 28.7703 32.4593 28.6262 32.4304C28.5541 32.416 28.4965 32.3438 28.5109 32.2715C28.5253 32.1993 28.5974 32.1415 28.6694 32.156C28.8136 32.1704 28.9577 32.1993 29.0874 32.2138C29.1595 32.2282 29.2172 32.3004 29.2172 32.3727C29.2028 32.4304 29.1451 32.4882 29.073 32.4882ZM32.0855 32.4449C32.0135 32.4449 31.9558 32.3871 31.9414 32.3293C31.927 32.2571 31.9847 32.1704 32.0567 32.1704C32.2009 32.1415 32.345 32.1271 32.4747 32.0982C32.5468 32.0837 32.6333 32.1271 32.6477 32.2138C32.6621 32.286 32.6189 32.3727 32.5324 32.3871C32.3882 32.416 32.2441 32.4449 32.1 32.4593C32.1 32.4449 32.0855 32.4449 32.0855 32.4449ZM28.2082 32.3582C28.1938 32.3582 28.1938 32.3582 28.1794 32.3582C28.0352 32.3293 27.8911 32.3004 27.7469 32.2715C27.6749 32.2571 27.6172 32.1849 27.6316 32.0982C27.646 32.026 27.7181 31.9682 27.8046 31.9826C27.9487 32.0115 28.0929 32.0404 28.2226 32.0693C28.2947 32.0837 28.3523 32.156 28.3379 32.2426C28.3379 32.3149 28.2803 32.3582 28.2082 32.3582ZM32.936 32.286C32.8639 32.286 32.8062 32.2426 32.7918 32.1704C32.7774 32.0982 32.8207 32.0115 32.8927 31.9971C33.0369 31.9682 33.1666 31.9248 33.3107 31.8815C33.3828 31.8526 33.4693 31.9104 33.4837 31.9826C33.5125 32.0549 33.4549 32.1415 33.3828 32.156C33.2387 32.1993 33.1089 32.2282 32.9648 32.2715C32.9504 32.2715 32.9504 32.286 32.936 32.286ZM27.3722 32.1849C27.3578 32.1849 27.3433 32.1849 27.3433 32.1849C27.1992 32.156 27.0695 32.1126 26.9253 32.0837C26.8533 32.0693 26.81 31.9826 26.8244 31.9104C26.8389 31.8382 26.9253 31.7948 26.9974 31.8093C27.1416 31.8526 27.2713 31.8815 27.4154 31.9104C27.4875 31.9248 27.5451 32.0115 27.5163 32.0837C27.4875 32.1415 27.4298 32.1849 27.3722 32.1849ZM33.7576 32.0404C33.6999 32.0404 33.6423 31.9971 33.6278 31.9393C33.599 31.8671 33.6423 31.7804 33.7143 31.7515C33.8441 31.7082 33.9882 31.6504 34.1179 31.607C34.19 31.5781 34.2765 31.6215 34.3053 31.6937C34.3341 31.7659 34.2909 31.8526 34.2188 31.8815C34.0891 31.9393 33.945 31.9826 33.8008 32.026C33.7864 32.0404 33.772 32.0404 33.7576 32.0404ZM26.5362 31.9682C26.5217 31.9682 26.5073 31.9682 26.4929 31.9682C26.3632 31.9248 26.2191 31.896 26.0749 31.8526C26.0028 31.8382 25.9452 31.7515 25.974 31.6793C25.9884 31.607 26.0749 31.5493 26.147 31.5781C26.2911 31.6215 26.4353 31.6504 26.565 31.6937C26.6371 31.7082 26.6947 31.7948 26.6659 31.8671C26.6515 31.9248 26.5938 31.9682 26.5362 31.9682ZM25.6857 31.7515C25.6713 31.7515 25.6569 31.7515 25.6569 31.7515C25.5128 31.7226 25.383 31.6793 25.2389 31.6504C25.1668 31.6359 25.1092 31.5493 25.138 31.477C25.1524 31.4048 25.2389 31.347 25.311 31.3759C25.4551 31.4048 25.5993 31.4481 25.729 31.477C25.801 31.4915 25.8587 31.5781 25.8299 31.6504C25.8155 31.7082 25.7578 31.7515 25.6857 31.7515ZM34.5648 31.7226C34.5071 31.7226 34.4494 31.6937 34.435 31.6359C34.4062 31.5637 34.435 31.477 34.5071 31.4481C34.6368 31.3904 34.7666 31.3326 34.8963 31.2748C34.9683 31.2459 35.0548 31.2748 35.0837 31.347C35.1125 31.4192 35.0837 31.5059 35.0116 31.5348C34.8819 31.5926 34.7521 31.6648 34.608 31.7226C34.608 31.7226 34.5936 31.7226 34.5648 31.7226ZM24.8497 31.5493C24.8353 31.5493 24.8209 31.5493 24.8209 31.5493C24.6768 31.5204 24.547 31.477 24.4029 31.4481C24.3308 31.4337 24.2732 31.347 24.302 31.2748C24.3164 31.2026 24.4029 31.1448 24.475 31.1737C24.6191 31.2026 24.7632 31.2459 24.893 31.2748C24.965 31.2892 25.0227 31.3759 24.9939 31.4481C24.9795 31.4915 24.9074 31.5493 24.8497 31.5493ZM23.9993 31.347C23.9849 31.347 23.9705 31.347 23.9705 31.347C23.8263 31.3181 23.6822 31.2892 23.5525 31.2459C23.4804 31.2315 23.4227 31.1448 23.4372 31.0726C23.4516 31.0003 23.5381 30.9425 23.6101 30.957C23.7543 30.9859 23.8984 31.0148 24.0281 31.0581C24.1002 31.0726 24.1579 31.1592 24.129 31.2315C24.129 31.3037 24.0714 31.347 23.9993 31.347ZM35.3431 31.347C35.2855 31.347 35.2422 31.3181 35.2134 31.2748C35.1701 31.2026 35.199 31.1159 35.271 31.0726C35.4008 31.0003 35.5161 30.9281 35.6458 30.8559C35.7179 30.8125 35.8044 30.8414 35.8476 30.8992C35.8908 30.9714 35.862 31.0581 35.8044 31.1014C35.6746 31.1737 35.5593 31.2459 35.4296 31.3181C35.3864 31.3326 35.3719 31.347 35.3431 31.347ZM23.1633 31.1592C23.1489 31.1592 23.1489 31.1592 23.1345 31.1592L22.7165 31.0581C22.6444 31.0437 22.5867 30.957 22.6011 30.8848C22.6156 30.8125 22.702 30.7547 22.7741 30.7692L23.1921 30.8703C23.2642 30.8848 23.3218 30.9714 23.3074 31.0437C23.293 31.1014 23.2209 31.1592 23.1633 31.1592ZM22.3129 30.9714C22.2984 30.9714 22.2984 30.9714 22.284 30.9714L21.866 30.8848C21.794 30.8703 21.7363 30.7836 21.7507 30.7114C21.7651 30.6392 21.8516 30.5814 21.9237 30.5958L22.3417 30.6825C22.4138 30.697 22.4714 30.7836 22.457 30.8559C22.4426 30.9137 22.3849 30.9714 22.3129 30.9714ZM36.0926 30.8992C36.0494 30.8992 36.0062 30.8703 35.9773 30.827C35.9341 30.7547 35.9485 30.6681 36.0206 30.6247C36.1359 30.5525 36.2656 30.4658 36.3809 30.3792C36.453 30.3358 36.5395 30.3503 36.5827 30.4081C36.626 30.4803 36.6115 30.567 36.5539 30.6103C36.4386 30.697 36.3088 30.7692 36.1935 30.8559C36.1359 30.8992 36.1215 30.8992 36.0926 30.8992ZM21.4769 30.7836C21.4624 30.7836 21.4624 30.7836 21.448 30.7836L21.03 30.697C20.9579 30.6825 20.9003 30.6103 20.9147 30.5236C20.9291 30.4514 21.0012 30.3936 21.0877 30.4081L21.5057 30.4947C21.5778 30.5092 21.6354 30.5814 21.621 30.6681C21.5922 30.7403 21.5345 30.7836 21.4769 30.7836ZM20.6264 30.5958C20.612 30.5958 20.612 30.5958 20.5976 30.5958L20.1796 30.5092C20.1075 30.4947 20.0499 30.4225 20.0643 30.3358C20.0787 30.2636 20.1508 30.2058 20.2372 30.2203L20.6553 30.3069C20.7273 30.3214 20.785 30.3936 20.7706 30.4803C20.7562 30.5525 20.6841 30.5958 20.6264 30.5958ZM19.776 30.4081C19.7616 30.4081 19.7616 30.4081 19.7472 30.4081L19.3292 30.3214C19.2571 30.3069 19.1994 30.2347 19.2139 30.148C19.2283 30.0758 19.3003 30.018 19.3868 30.0325L19.8048 30.1191C19.8769 30.1336 19.9346 30.2058 19.9201 30.2925C19.9057 30.3647 19.8481 30.4081 19.776 30.4081ZM36.7989 30.4081C36.7557 30.4081 36.7124 30.3936 36.6836 30.3503C36.6404 30.2925 36.6548 30.1914 36.7124 30.148C36.8278 30.0614 36.9431 29.9747 37.044 29.888C37.1016 29.8447 37.2025 29.8447 37.2458 29.9025C37.289 29.9602 37.289 30.0614 37.2313 30.1047C37.116 30.1914 37.0007 30.2925 36.8854 30.3792C36.8566 30.3936 36.8278 30.4081 36.7989 30.4081ZM18.9256 30.2347C18.9112 30.2347 18.9112 30.2347 18.8967 30.2347L18.4787 30.148C18.4067 30.1336 18.349 30.0469 18.3634 29.9747C18.3778 29.9025 18.4643 29.8447 18.5364 29.8591L18.9544 29.9458C19.0265 29.9602 19.0841 30.0325 19.0697 30.1191C19.0553 30.1914 18.9976 30.2347 18.9256 30.2347ZM18.0896 30.0469C18.0752 30.0469 18.0752 30.0469 18.0607 30.0469C17.9022 30.018 17.7725 29.9747 17.6427 29.9458C17.5707 29.9313 17.513 29.8447 17.5418 29.7724C17.5562 29.7002 17.6427 29.6424 17.7148 29.6713C17.8445 29.7002 17.9887 29.7291 18.1328 29.7724C18.2049 29.7869 18.2625 29.8736 18.2481 29.9458C18.2049 30.0036 18.1472 30.0469 18.0896 30.0469ZM37.462 29.8591C37.4187 29.8591 37.3755 29.8447 37.3467 29.8158C37.289 29.758 37.3034 29.6713 37.3611 29.6135C37.4764 29.5124 37.5773 29.4258 37.6782 29.3246C37.7358 29.2669 37.8223 29.2813 37.88 29.3391C37.9376 29.3969 37.9232 29.4835 37.8656 29.5413C37.7647 29.6424 37.6493 29.7436 37.534 29.8302C37.534 29.8447 37.5052 29.8591 37.462 29.8591ZM17.2391 29.8447C17.2247 29.8447 17.2103 29.8447 17.1959 29.8447C17.1527 29.8302 17.1238 29.8302 17.0806 29.8158C16.9941 29.7869 16.8932 29.7724 16.7779 29.7436C16.7058 29.7291 16.6482 29.6569 16.6626 29.5702C16.677 29.498 16.7491 29.4402 16.8355 29.4546C16.9509 29.4835 17.0662 29.498 17.1527 29.5269C17.1815 29.5413 17.2247 29.5413 17.2536 29.5558C17.3256 29.5702 17.3833 29.6569 17.3545 29.7291C17.3689 29.8013 17.3112 29.8447 17.2391 29.8447ZM16.3887 29.6713C16.3743 29.6713 16.3743 29.6713 16.3599 29.6713C16.2157 29.6424 16.086 29.628 15.9275 29.6135C15.8554 29.5991 15.7977 29.5269 15.8122 29.4546C15.8266 29.3824 15.8986 29.3246 15.9707 29.3391C16.1148 29.3535 16.259 29.3824 16.4031 29.4113C16.4752 29.4258 16.5329 29.498 16.5184 29.5702C16.5184 29.6135 16.4608 29.6713 16.3887 29.6713ZM15.5383 29.5413H15.5239C15.3797 29.5269 15.2356 29.498 15.0915 29.4835C15.0194 29.4691 14.9617 29.3969 14.9761 29.3246C14.9906 29.2524 15.0626 29.1946 15.1347 29.2091C15.2788 29.2235 15.423 29.2524 15.5671 29.2669C15.6392 29.2813 15.6968 29.3535 15.6968 29.4258C15.668 29.4835 15.6104 29.5413 15.5383 29.5413ZM14.6879 29.4113C14.6735 29.4113 14.6735 29.4113 14.659 29.4113C14.5005 29.3824 14.3563 29.3535 14.2266 29.3246C14.1545 29.3102 14.0969 29.2235 14.1257 29.1513C14.1401 29.0791 14.2266 29.0213 14.2987 29.0502C14.414 29.0791 14.5581 29.1079 14.7167 29.1368C14.7888 29.1513 14.8464 29.2235 14.832 29.3102C14.8176 29.368 14.7455 29.4113 14.6879 29.4113ZM38.1106 29.2669C38.0674 29.2669 38.0385 29.2524 38.0097 29.2235C37.952 29.1657 37.952 29.0791 38.0097 29.0213C38.0529 28.9779 38.0962 28.9346 38.1394 28.8913C38.1971 28.8335 38.2836 28.8335 38.3412 28.8913C38.3989 28.949 38.3989 29.0357 38.3412 29.0935C38.298 29.1368 38.2547 29.1802 38.2115 29.2235C38.1827 29.2524 38.1394 29.2669 38.1106 29.2669ZM13.8374 29.2091C13.823 29.2091 13.8086 29.2091 13.7942 29.1946C13.5924 29.1224 13.4483 29.0357 13.3618 28.9346C13.3041 28.8768 13.3185 28.7901 13.3762 28.7324C13.4338 28.6746 13.5203 28.689 13.578 28.7468C13.6212 28.7901 13.6933 28.8479 13.8951 28.9202C13.9672 28.949 14.0104 29.0357 13.9816 29.1079C13.9528 29.1657 13.8951 29.2091 13.8374 29.2091ZM13.4915 28.6024C13.4627 28.6024 13.4338 28.5879 13.405 28.5735C13.3474 28.5301 13.3329 28.429 13.3762 28.3712C13.4483 28.2845 13.5636 28.169 13.7077 28.0534C13.7654 27.9956 13.8663 28.0101 13.9095 28.0679C13.9672 28.1256 13.9528 28.2268 13.8951 28.2701C13.7654 28.3857 13.6645 28.4723 13.6068 28.5446C13.578 28.5879 13.5347 28.6024 13.4915 28.6024ZM14.1545 28.039C14.1113 28.039 14.0681 28.0245 14.0392 27.9812C13.996 27.9234 14.0104 27.8223 14.0681 27.779C14.1834 27.6923 14.2987 27.6201 14.4284 27.5334C14.5005 27.49 14.587 27.5045 14.6302 27.5767C14.6735 27.6489 14.659 27.7356 14.587 27.779C14.4572 27.8656 14.3419 27.9523 14.241 28.0245C14.2122 28.0245 14.1834 28.039 14.1545 28.039ZM14.8608 27.5478C14.8176 27.5478 14.7743 27.5189 14.7455 27.4756C14.7023 27.4034 14.7167 27.3167 14.7888 27.2734C14.9041 27.2011 15.0338 27.1145 15.1635 27.0422C15.2356 26.9989 15.3221 27.0278 15.3653 27.0856C15.4086 27.1578 15.3797 27.2445 15.3221 27.2878C15.1924 27.36 15.077 27.4467 14.9617 27.5189C14.9185 27.5334 14.8897 27.5478 14.8608 27.5478ZM15.5959 27.0856C15.5527 27.0856 15.495 27.0567 15.4662 27.0133C15.423 26.9411 15.4518 26.8544 15.5095 26.8111C15.6392 26.7389 15.7545 26.6666 15.8842 26.5944C15.9563 26.5511 16.0428 26.58 16.086 26.6522C16.1293 26.7244 16.1004 26.8111 16.0284 26.8544C15.8986 26.9267 15.7833 26.9989 15.6536 27.0711C15.6536 27.0711 15.6248 27.0856 15.5959 27.0856ZM16.3455 26.6378C16.3022 26.6378 16.2446 26.6089 16.2157 26.5655C16.1725 26.4933 16.2013 26.4066 16.2734 26.3633C16.4031 26.2911 16.5329 26.2188 16.6482 26.1466C16.7202 26.1033 16.8067 26.1322 16.85 26.2044C16.8932 26.2766 16.8644 26.3633 16.7923 26.4066C16.677 26.4789 16.5473 26.5511 16.4175 26.6233C16.4031 26.6378 16.3743 26.6378 16.3455 26.6378ZM17.095 26.2044C17.0518 26.2044 16.9941 26.1755 16.9653 26.1322C16.922 26.0599 16.9509 25.9733 17.0229 25.9299C17.1527 25.8577 17.2824 25.7855 17.3977 25.7132C17.4698 25.6699 17.5562 25.6988 17.5995 25.771C17.6427 25.8432 17.6139 25.9299 17.5418 25.9733C17.4265 26.031 17.2968 26.1033 17.1671 26.1899C17.1527 26.2044 17.1238 26.2044 17.095 26.2044Z" fill="#193F6E"/>
</g>
</g>
</g>
</svg>
