<svg width="31" height="32" viewBox="0 0 31 32" fill="none" xmlns="http://www.w3.org/2000/svg">
<path fill-rule="evenodd" clip-rule="evenodd" d="M2.23945 10.5052C2.84258 8.04987 4.11299 5.85718 5.84537 4.12578C8.31562 1.6592 11.729 0.132812 15.5002 0.132812C19.2697 0.132812 22.6832 1.6592 25.155 4.12578C26.8874 5.85558 28.1578 8.04987 28.7609 10.5052H30.7435L29.6881 12.0012L30.7083 19.1959L28.3711 21.1852C27.9846 21.1035 27.6012 21.0234 27.2194 20.9481C25.0732 25.5914 20.7759 29.4498 15.5002 31.5207C10.2244 29.4498 5.92718 25.5914 3.78095 20.9481C3.39918 21.0234 3.01581 21.1019 2.62924 21.1852L0.292125 19.1959L1.31231 12.0012L0.256836 10.5052H2.23945Z" fill="#120B2D"/>
<path d="M2.135 10.3724C2.43656 9.18238 2.89532 8.0548 3.48562 7.01051C4.10478 5.91497 4.86831 4.91393 5.75054 4.03301C7.02096 2.76448 8.54 1.74102 10.2275 1.04429C11.8524 0.371588 13.6329 0 15.5 0C17.3671 0 19.1476 0.371588 20.7725 1.04269C22.46 1.74102 23.979 2.76288 25.2495 4.0314C26.1317 4.91232 26.8952 5.91337 27.5144 7.00891C28.1047 8.0532 28.5618 9.18238 28.865 10.3708H31L29.8274 12.035L30.8508 19.2489C30.036 19.9424 29.2227 20.6359 28.4078 21.3278L28.3437 21.3134C28.1336 21.2686 27.9411 21.2285 27.7678 21.1933C27.6299 21.1645 27.4727 21.134 27.2978 21.0988C26.2199 23.3956 24.6175 25.4986 22.6348 27.2877C20.6185 29.1072 18.2076 30.6015 15.5497 31.6442L15.5016 31.6634L15.4535 31.6442C12.7972 30.6015 10.3863 29.1072 8.36836 27.2877C6.38575 25.4986 4.7833 23.3956 3.70537 21.0988C3.52892 21.134 3.37173 21.1661 3.23538 21.1933C3.06214 21.2285 2.86966 21.2686 2.65953 21.3134L2.59536 21.3278L0.150781 19.2505L1.17417 12.0366L0 10.3724H2.135ZM3.7182 7.14025C3.1231 8.19254 2.66594 9.33294 2.36919 10.5374L2.34353 10.6399H0.514902L1.45167 11.9693L0.434699 19.1432L2.66594 21.0411C2.82474 21.0075 2.99477 20.9723 3.17924 20.9338C3.399 20.889 3.58988 20.8505 3.75349 20.8185L3.85615 20.7977L3.90107 20.8938C4.96456 23.1954 6.56059 25.3032 8.54481 27.0923C10.5242 28.8781 12.8902 30.3485 15.4984 31.3783C18.1066 30.3469 20.4726 28.8781 22.452 27.0923C24.4362 25.3032 26.0322 23.1954 27.0957 20.8938L27.139 20.7977L27.2417 20.8185C27.4053 20.8505 27.5978 20.889 27.8159 20.9338C28.0004 20.9723 28.172 21.0075 28.3292 21.0411L30.5605 19.1432L29.5467 11.9693L30.4835 10.6399H28.6549L28.6292 10.5374C28.3325 9.33294 27.8753 8.19254 27.2802 7.14025C26.6739 6.06873 25.9248 5.08691 25.0586 4.2204C23.8122 2.9759 22.3221 1.97166 20.6699 1.28774C19.077 0.629457 17.3318 0.265877 15.5 0.265877C13.6682 0.265877 11.9213 0.629457 10.3301 1.28774C8.67474 1.97326 7.18617 2.9759 5.93982 4.2204C5.07203 5.08691 4.32293 6.06873 3.7182 7.14025Z" fill="#F0631E"/>
<path d="M15.4998 30.5006C19.2918 28.939 22.7694 26.2978 25.0568 22.8687C22.9539 25.4746 19.9335 28.0629 15.4998 29.7895V29.2145C11.8362 27.8547 8.43558 25.6748 5.94287 22.8703C8.23026 26.2978 11.7079 28.939 15.4998 30.5006Z" fill="#AC2A1D"/>
<path d="M19.6833 10.5054C19.4331 10.105 19.1989 9.69817 18.9839 9.28174C18.3904 8.12693 18.1113 7.12909 18.0857 6.29142C17.3863 6.17289 16.6677 6.10082 15.9378 6.0816V10.507L19.6833 10.5054ZM18.1594 5.4153C18.2412 5.0293 18.3904 4.68494 18.5957 4.38383C18.8765 3.9722 19.2598 3.64866 19.7234 3.41001C20.126 3.2034 20.588 3.06405 21.0965 2.98877C19.5437 2.18313 17.7937 1.70263 15.9378 1.63696V5.20388C16.6933 5.22471 17.4344 5.29678 18.1594 5.4153ZM18.9727 6.4676C19.0304 7.1419 19.2791 7.94594 19.7619 8.88452C20.0426 9.43229 20.3698 9.97046 20.7211 10.5054H26.215C25.0922 9.36502 23.7752 8.40402 22.3139 7.67046C21.2697 7.14671 20.1485 6.73989 18.9727 6.4676ZM22.4551 3.81043C21.5328 3.75277 20.7259 3.8761 20.1212 4.18682C19.7876 4.3582 19.5149 4.58564 19.3192 4.87234C19.1812 5.07575 19.0802 5.3112 19.0208 5.58188C20.3185 5.87018 21.5536 6.31384 22.7069 6.89204C24.3768 7.72972 25.8701 8.84768 27.1181 10.1819C26.5278 8.27108 25.4771 6.5621 24.0961 5.18466C23.5908 4.68014 23.0406 4.22046 22.4551 3.81043ZM11.979 5.58188C11.9197 5.3112 11.8186 5.07575 11.6807 4.87234C11.485 4.58564 11.2139 4.3582 10.8786 4.18682C10.2723 3.8761 9.46545 3.75277 8.54312 3.81043C7.95603 4.22046 7.40745 4.68014 6.90217 5.18306C5.52108 6.5621 4.47202 8.27108 3.88013 10.1803C5.12808 8.84608 6.61986 7.72812 8.29128 6.89044C9.4462 6.31384 10.6829 5.87018 11.979 5.58188ZM15.0604 10.5054V6.08C14.329 6.10082 13.6119 6.17129 12.9126 6.28982C12.8869 7.12909 12.6078 8.12533 12.0143 9.28174C11.801 9.69817 11.5652 10.105 11.3149 10.5054H15.0604ZM15.0604 5.20388V1.63696C13.2045 1.70263 11.4561 2.18313 9.90176 2.98877C10.4102 3.06405 10.8738 3.205 11.2748 3.41001C11.7384 3.64706 12.1218 3.9706 12.4025 4.38383C12.6078 4.68494 12.7554 5.0293 12.8388 5.4153C13.5638 5.29678 14.3065 5.22471 15.0604 5.20388ZM10.2787 10.5054C10.63 9.97046 10.9556 9.43229 11.2379 8.88452C11.7208 7.94594 11.9694 7.1419 12.0271 6.4676C10.8514 6.73989 9.73173 7.14671 8.68428 7.67206C7.22298 8.40402 5.90605 9.36502 4.78321 10.507L10.2787 10.5054Z" fill="#F0631E"/>
<path d="M19.0192 5.58188C19.0786 5.3112 19.1796 5.07575 19.3176 4.87234C19.5133 4.58564 19.7843 4.3582 20.1196 4.18682C20.7259 3.8761 21.5328 3.75277 22.4551 3.81043C23.0422 4.22046 23.5908 4.68014 24.0961 5.18306C25.4771 6.5621 26.5262 8.27108 27.1181 10.1803C26.0434 7.59037 24.2789 5.56906 22.1279 4.22206C20.9521 4.21245 19.5502 4.43828 19.0192 5.58188ZM11.979 5.58188C11.9197 5.3112 11.8186 5.07575 11.6807 4.87234C11.485 4.58564 11.2139 4.3582 10.8786 4.18682C10.2723 3.8761 9.46545 3.75277 8.54312 3.81043C7.95603 4.22046 7.40745 4.68014 6.90217 5.18306C5.52108 6.5621 4.47202 8.27108 3.88013 10.1803C4.95484 7.59037 6.71931 5.56906 8.87035 4.22206C10.0477 4.21245 11.4497 4.43828 11.979 5.58188ZM10.8401 3.22262C11.9758 2.76614 13.1837 2.47304 14.4252 2.35932V5.23432C14.6353 5.2199 14.8487 5.21029 15.0604 5.20549V1.63696C13.2045 1.70263 11.4561 2.18313 9.90176 2.98877C10.237 3.03842 10.5498 3.11691 10.8401 3.22262ZM14.6145 10.5054L14.4043 6.83118C13.875 6.88884 13.3489 6.96572 12.8243 7.06342C12.8757 6.79274 12.9062 6.53327 12.9126 6.28982C13.6119 6.17129 14.3306 6.09922 15.0604 6.08V10.5054H14.6145ZM9.89213 10.5054C10.4423 9.51558 10.9332 8.49692 11.2411 7.4238C8.99707 8.03243 6.87169 9.03989 5.07515 10.5054H4.78161C5.90445 9.36502 7.22138 8.40402 8.68267 7.67046C9.72852 7.14671 10.8481 6.73828 12.0255 6.466C11.9678 7.1403 11.7192 7.94434 11.2363 8.88292C10.9556 9.43069 10.6284 9.96885 10.2771 10.5038L9.89213 10.5054ZM20.1581 3.22262C19.0224 2.76614 17.8146 2.47304 16.573 2.35932V5.23432C16.3629 5.2199 16.1496 5.21029 15.9378 5.20549V1.63696C17.7937 1.70263 19.5421 2.18313 21.0965 2.98877C20.7628 3.03842 20.4484 3.11691 20.1581 3.22262ZM16.3854 10.5054L16.5955 6.83118C17.1248 6.88884 17.651 6.96572 18.1755 7.06342C18.1242 6.79274 18.0937 6.53327 18.0873 6.28982C17.3879 6.17129 16.6693 6.09922 15.9394 6.08V10.5054H16.3854ZM21.1061 10.5054C20.5559 9.51558 20.0651 8.49692 19.7571 7.4238C22.0012 8.03243 24.1265 9.03989 25.9231 10.5054H26.2166C25.0938 9.36502 23.7768 8.40402 22.3155 7.67046C21.2697 7.14671 20.1501 6.73828 18.9727 6.466C19.0304 7.1403 19.2791 7.94434 19.7619 8.88292C20.0426 9.43069 20.3698 9.96885 20.7211 10.5038L21.1061 10.5054Z" fill="white"/>
<path d="M3.24351 12.5635C3.20983 12.8358 3.17293 13.1097 3.14085 13.3804C3.10877 13.6527 3.07669 13.925 3.0398 14.1972C3.1986 14.1828 3.3574 14.1684 3.51941 14.154C3.55309 14.1508 3.58678 14.1348 3.61405 14.1075C3.63971 14.0819 3.65415 14.0387 3.66217 13.9826C3.71671 13.5422 3.76643 13.1001 3.81776 12.6596C3.82739 12.5811 3.80333 12.5427 3.74558 12.5459C3.58036 12.5507 3.41354 12.5571 3.24351 12.5635ZM26.5713 11.4712C26.9066 11.4712 27.2418 11.4712 27.5771 11.4712C27.6893 12.3169 27.7984 13.1626 27.9043 14.0082C28.0101 14.8539 28.1144 15.698 28.2251 16.5437C28.5748 16.6045 28.9309 16.6686 29.2886 16.7343C29.2822 17.1235 29.2741 17.5111 29.2693 17.8971C28.5988 17.7497 27.9348 17.6152 27.2755 17.4903C27.1584 16.4876 27.0413 15.485 26.9242 14.4823C26.8055 13.4781 26.6916 12.4738 26.5713 11.4712ZM24.2791 11.4712C24.6112 11.4712 24.9464 11.4712 25.2816 11.4712C25.3651 12.256 25.4469 13.0408 25.5271 13.824C25.6073 14.6073 25.6827 15.3921 25.7677 16.1753C26.1174 16.2217 26.4654 16.2698 26.8199 16.3194C26.8007 16.6782 26.7814 17.037 26.7638 17.3958C26.1045 17.2869 25.4517 17.186 24.8004 17.0947C24.7106 16.1577 24.624 15.2207 24.5374 14.2837C24.4523 13.3467 24.3673 12.4082 24.2791 11.4712ZM22.6029 16.1753C22.5868 16.3947 22.5724 16.6142 22.558 16.832C22.2067 16.8 21.857 16.7695 21.5105 16.7391C21.6116 15.8726 21.7142 15.0013 21.8057 14.1252C21.8987 13.2458 21.9901 12.3601 22.0767 11.4712C22.4264 11.4712 22.7713 11.4712 23.1242 11.4712C23.3472 12.3857 23.5685 13.3083 23.7963 14.2341C24.0257 15.1678 24.2679 16.108 24.5085 17.0562C24.1572 17.0098 23.8043 16.9681 23.4562 16.9265C23.4033 16.6974 23.3552 16.4684 23.3054 16.241C23.0745 16.2185 22.8403 16.1961 22.6029 16.1753ZM22.6542 15.3312C22.8098 15.344 22.9702 15.3552 23.129 15.3681C23.0648 15.0445 23.0007 14.721 22.9397 14.399C22.8788 14.0771 22.8146 13.7552 22.7553 13.4332C22.7392 13.7504 22.7168 14.0691 22.7023 14.3846C22.6879 14.7002 22.6702 15.0173 22.6542 15.3312ZM19.4653 12.3729C19.4734 12.5972 19.4814 12.823 19.491 13.0472C19.5006 13.2715 19.5103 13.4973 19.5215 13.7215C19.6771 13.7247 19.8311 13.7295 19.9899 13.7344C20.0284 13.736 20.0556 13.7231 20.0765 13.7039C20.1005 13.6815 20.1102 13.6495 20.107 13.6014C20.0893 13.2282 20.0733 12.8534 20.054 12.4802C20.0508 12.413 20.0235 12.3793 19.9642 12.3793C19.7974 12.3761 19.6322 12.3745 19.4653 12.3729ZM20.1743 14.6729C20.1711 14.6153 20.1551 14.5752 20.1262 14.5528C20.0989 14.5304 20.0588 14.5176 20.0139 14.516C19.8583 14.5096 19.7076 14.5048 19.5504 14.5C19.5664 14.9052 19.584 15.3088 19.5985 15.714C19.7749 15.7204 19.9449 15.73 20.1182 15.738C20.1567 15.7396 20.1888 15.7348 20.2016 15.7172C20.2128 15.7028 20.2208 15.674 20.2176 15.6371C20.2016 15.3168 20.1888 14.9949 20.1743 14.6729ZM21.0646 13.5486C21.071 13.6799 21.0534 13.7904 21.0116 13.8833C20.9699 13.9762 20.8801 14.0371 20.7486 14.0707C20.8881 14.0851 20.9908 14.1428 21.055 14.2341C21.1239 14.3302 21.1624 14.4327 21.1688 14.5496C21.1833 14.777 21.1961 15.0045 21.2073 15.2303C21.2202 15.4561 21.233 15.6836 21.2458 15.911C21.2635 16.2009 21.2186 16.4043 21.1063 16.5213C20.994 16.6382 20.7887 16.683 20.4871 16.6638C19.8615 16.6238 19.236 16.5949 18.6136 16.5693C18.5863 15.7204 18.559 14.8699 18.5334 14.0211C18.5061 13.1722 18.4837 12.3201 18.4516 11.4712C19.0884 11.4712 19.722 11.4712 20.362 11.4712C20.5545 11.4712 20.7037 11.5272 20.8079 11.6458C20.909 11.7595 20.9683 11.9165 20.978 12.1087C20.9908 12.3489 21.0068 12.5892 21.0197 12.8294C21.0357 13.0697 21.0517 13.3099 21.0646 13.5486ZM17.9399 11.4712C18.0313 11.7867 18.1211 12.1022 18.211 12.4194C17.9896 12.4178 17.7698 12.4162 17.5485 12.4162C17.5645 13.1049 17.579 13.792 17.5934 14.4791C17.6078 15.1662 17.6207 15.8534 17.6383 16.5405C17.287 16.5309 16.9373 16.5261 16.5893 16.5197C16.5812 15.8357 16.5716 15.1502 16.5636 14.4663C16.5572 13.7824 16.5492 13.0969 16.5411 12.413C16.3198 12.413 16.1032 12.413 15.8819 12.4114C15.9621 12.099 16.0487 11.7851 16.1305 11.4712C16.7336 11.4712 17.3368 11.4712 17.9399 11.4712ZM13.6025 11.4712C14.2329 11.4712 14.8697 11.4712 15.5065 11.4712C15.5627 11.7851 15.6188 12.0974 15.6766 12.4114C15.3156 12.4114 14.9563 12.4114 14.5986 12.413C14.5954 12.8118 14.5938 13.2122 14.5874 13.6094C14.8633 13.6094 15.1376 13.6078 15.4167 13.6078C15.4135 13.8977 15.4135 14.1876 15.4135 14.4775C15.1344 14.4791 14.8553 14.4791 14.5794 14.4807C14.5762 14.8475 14.573 15.2143 14.5682 15.5811C14.9259 15.5795 15.2804 15.5779 15.6429 15.5763C15.5819 15.8886 15.5194 16.2009 15.4648 16.5149C14.8088 16.5181 14.1559 16.5261 13.5015 16.5389C13.5175 15.6948 13.5319 14.8507 13.5496 14.0066C13.5656 13.161 13.5849 12.3153 13.6025 11.4712ZM11.583 13.6767C11.6359 13.6751 11.6841 13.6751 11.7338 13.6735C11.8316 13.3051 11.9327 12.9383 12.0305 12.5699C12.1268 12.2032 12.2262 11.838 12.3209 11.4712C12.6593 11.4712 12.9962 11.4712 13.3314 11.4712C13.2223 11.8604 13.1117 12.2512 13.0042 12.642C12.8967 13.0312 12.786 13.4252 12.6754 13.8176C12.762 14.2725 12.8534 14.729 12.94 15.1823C13.0283 15.6355 13.1165 16.092 13.2111 16.5437C12.831 16.5533 12.454 16.5677 12.0803 16.5821C12.0209 16.233 11.9632 15.8854 11.9102 15.5362C11.8573 15.1871 11.8044 14.8363 11.7546 14.4855C11.6841 14.4871 11.6183 14.4887 11.5509 14.4919C11.5365 14.8459 11.5204 15.1999 11.506 15.5522C11.4916 15.9046 11.4803 16.2586 11.4675 16.611C11.1162 16.6286 10.7633 16.651 10.412 16.6718C10.4537 15.8053 10.4971 14.9388 10.5404 14.0723C10.5837 13.2058 10.6302 12.3377 10.6751 11.4712C11.0071 11.4712 11.3392 11.4712 11.6744 11.4712C11.66 11.8396 11.6456 12.2064 11.6295 12.5747C11.6119 12.9415 11.5974 13.3099 11.583 13.6767ZM7.9065 16.8864C7.8648 16.5581 7.82791 16.2266 7.79743 15.8934C8.16315 15.863 8.53529 15.8309 8.90102 15.8037C8.98443 15.7973 9.02774 15.7589 9.03255 15.6852C9.05501 15.3633 9.07426 15.0397 9.09351 14.7178C9.09832 14.6441 9.08549 14.6009 9.05982 14.588C9.03416 14.5752 8.98122 14.5688 8.91546 14.5736C8.73901 14.5832 8.56417 14.5928 8.39093 14.6041C8.31875 14.6089 8.24496 14.6073 8.17919 14.5993C8.11182 14.5912 8.05247 14.5672 8.00114 14.524C7.95302 14.4839 7.91613 14.4231 7.89207 14.343C7.86801 14.2661 7.86159 14.1588 7.87282 14.0227C7.89848 13.7151 7.92094 13.4076 7.9434 13.1001C7.96585 12.7926 7.99152 12.485 8.01558 12.1759C8.03322 11.9613 8.09578 11.7883 8.21448 11.6618C8.33158 11.5337 8.50482 11.4712 8.7342 11.4712C9.18333 11.4712 9.63247 11.4712 10.0832 11.4712C10.1217 11.7963 10.1618 12.1215 10.2003 12.4466C9.82335 12.453 9.45281 12.4578 9.08067 12.4642C8.99726 12.4658 8.95556 12.5043 8.94914 12.5844C8.92668 12.9079 8.90423 13.2314 8.88177 13.5566C8.87856 13.6094 8.88979 13.6463 8.91546 13.6655C8.94112 13.6847 8.97641 13.6927 9.02774 13.6895C9.23787 13.6815 9.44319 13.6735 9.65653 13.6655C9.81854 13.6607 9.93884 13.6959 10.019 13.7728C10.0976 13.8481 10.1361 13.9858 10.1249 14.1828C10.1089 14.4711 10.0928 14.7578 10.0768 15.0461C10.0608 15.3328 10.0479 15.6211 10.0287 15.9078C10.011 16.1961 9.94205 16.4059 9.81854 16.5341C9.69503 16.6638 9.48971 16.7375 9.19296 16.7631C8.76307 16.8016 8.33318 16.8416 7.9065 16.8864ZM5.74263 16.4604C5.68649 16.7006 5.63356 16.9409 5.58062 17.1811C5.22613 17.234 4.87163 17.2901 4.51713 17.3477C4.7802 16.3483 5.03685 15.3536 5.29029 14.3718C5.54212 13.3964 5.79075 12.4306 6.03938 11.4728C6.38586 11.4728 6.73394 11.4728 7.08362 11.4728C7.14779 12.3986 7.21836 13.3179 7.29375 14.2293C7.36754 15.1358 7.45256 16.0344 7.53918 16.9281C7.18789 16.9697 6.8382 17.0114 6.48852 17.0562C6.47248 16.8304 6.46285 16.6029 6.45162 16.3739C6.21583 16.3995 5.97682 16.4284 5.74263 16.4604ZM5.94635 15.5442C6.10034 15.5266 6.25914 15.5122 6.41794 15.4962C6.40992 15.1694 6.40029 14.8395 6.39227 14.5112C6.38586 14.1812 6.38105 13.8497 6.36982 13.5181C6.30245 13.8545 6.22545 14.1908 6.15487 14.5288C6.0859 14.8651 6.01532 15.2047 5.94635 15.5442ZM3.52262 15.2447C3.53064 15.1775 3.52422 15.131 3.50016 15.1102C3.47129 15.0862 3.436 15.0798 3.38627 15.0862C3.23068 15.1054 3.07027 15.1246 2.91949 15.1438C2.85854 15.6339 2.79438 16.124 2.73021 16.6142C2.90826 16.5837 3.08792 16.5533 3.26276 16.5245C3.30447 16.5181 3.33494 16.502 3.35259 16.4812C3.37184 16.4572 3.37986 16.4252 3.38627 16.3803C3.43279 16.0023 3.4777 15.6227 3.52262 15.2447ZM4.64546 13.816C4.62942 13.9634 4.58931 14.0915 4.52836 14.202C4.46741 14.3126 4.36314 14.3958 4.22359 14.4535C4.36635 14.4503 4.45939 14.4983 4.51072 14.5961C4.56205 14.6922 4.58129 14.8075 4.56686 14.9388C4.53798 15.1951 4.50911 15.4497 4.48345 15.706C4.45618 15.9607 4.4257 16.2169 4.39683 16.4732C4.35993 16.7983 4.27652 17.0434 4.14018 17.2036C4.00063 17.3685 3.77927 17.4759 3.47289 17.5351C2.82806 17.6584 2.18002 17.7962 1.53198 17.9371C1.67956 16.8608 1.82552 15.7813 1.9731 14.705C2.12067 13.627 2.26824 12.5491 2.41742 11.4712C3.05102 11.4712 3.68783 11.4712 4.32465 11.4712C4.51713 11.4712 4.65508 11.5401 4.73528 11.6682C4.81869 11.8011 4.84757 11.9725 4.82511 12.1903C4.79624 12.4626 4.76576 12.7333 4.73528 13.004C4.70481 13.2731 4.67433 13.5454 4.64546 13.816Z" fill="#3EA1CA"/>
<path fill-rule="evenodd" clip-rule="evenodd" d="M27.1054 14.3527L27.1166 14.4536C27.2273 15.405 27.3396 16.3564 27.4502 17.3078C27.994 17.4119 28.5362 17.5208 29.0767 17.6378C29.0816 17.3943 29.0864 17.1524 29.0896 16.909C28.7912 16.8545 28.4929 16.8001 28.1929 16.7488L28.0502 16.7248L28.0293 16.571C27.9363 15.8615 27.848 15.152 27.7582 14.4408C27.5433 14.412 27.3251 14.3832 27.1054 14.3527ZM16.7512 13.632C16.9613 13.6352 17.173 13.6384 17.3816 13.6416L17.3992 14.4825C17.412 15.0959 17.4249 15.7093 17.4393 16.3228C17.2212 16.318 17.0014 16.3148 16.7833 16.31C16.7752 15.6933 16.7672 15.0783 16.7608 14.4616L16.7512 13.632ZM18.7194 13.6784C18.9215 13.6848 19.1236 13.6928 19.3241 13.7008L19.3257 13.7345L19.3353 13.9299L19.5166 13.9331C19.6722 13.9363 19.8294 13.9411 19.985 13.9459C20.0652 13.9475 20.1422 13.9219 20.2031 13.8658C20.24 13.8322 20.2657 13.7905 20.2817 13.7457C20.4694 13.7553 20.6571 13.7649 20.8431 13.7761C20.8094 13.9795 20.4582 14.0324 20.2929 14.1013C20.54 14.1541 20.9522 14.2214 20.9747 14.5689C20.9891 14.7948 21.0003 15.0222 21.0132 15.2481C21.026 15.4755 21.0388 15.7013 21.0517 15.9288C21.0581 16.0489 21.0613 16.2811 20.9715 16.374C20.8784 16.4701 20.6154 16.4653 20.4983 16.4573C19.9336 16.4221 19.3674 16.3933 18.8028 16.3692C18.7771 15.5844 18.753 14.8012 18.729 14.0164L18.7194 13.6784ZM22.0333 13.8482C22.2002 13.8594 22.367 13.8722 22.5322 13.885C22.5226 14.0484 22.513 14.2118 22.5065 14.3767C22.4921 14.6923 22.4761 15.0062 22.46 15.3217L22.4488 15.5284L22.6413 15.5428C22.8001 15.5556 22.9573 15.5668 23.1161 15.5796L23.3759 15.6004L23.3214 15.3265C23.2572 15.0046 23.1931 14.6827 23.1321 14.3591C23.1048 14.215 23.076 14.0708 23.0487 13.9267C23.2107 13.9395 23.3711 13.9523 23.5315 13.9667L23.6117 14.2903C23.8187 15.1311 24.0336 15.972 24.2469 16.8113C24.0368 16.7857 23.8267 16.76 23.6165 16.7344C23.5764 16.555 23.5379 16.374 23.4994 16.193L23.4674 16.0457L23.3262 16.0329C23.092 16.0105 22.8562 15.9896 22.622 15.9688L22.4263 15.9512L22.4103 16.161C22.3991 16.31 22.3894 16.4573 22.3798 16.6063C22.1649 16.5871 21.9483 16.5678 21.7334 16.5486C21.8264 15.7494 21.9195 14.9517 22.0045 14.1509L22.0333 13.8482ZM24.7153 14.0756C24.9319 14.0981 25.1484 14.1205 25.3634 14.1445C25.4323 14.83 25.4997 15.5155 25.5735 16.1995L25.5911 16.3644L25.7435 16.3852C26.0339 16.4237 26.3242 16.4637 26.6145 16.5038C26.6033 16.72 26.5905 16.9362 26.5808 17.1524C26.0483 17.066 25.5141 16.9843 24.98 16.9074C24.8966 16.0265 24.8148 15.1439 24.733 14.263L24.7153 14.0756ZM2.18474 14.5994C2.79749 14.5033 3.42307 14.4136 4.05988 14.3319C3.89145 14.4296 3.8321 14.4344 3.67009 14.5209C3.99091 14.5481 4.41919 14.5145 4.37428 14.9117C4.3454 15.168 4.31653 15.4242 4.29086 15.6805C4.2636 15.9352 4.23312 16.1898 4.20425 16.4445C4.18018 16.6479 4.12885 16.9026 3.99732 17.0579C3.86258 17.2165 3.62999 17.2886 3.44071 17.3238C2.8825 17.4311 2.32429 17.5481 1.76929 17.6682C1.90403 16.6896 2.03556 15.7109 2.1703 14.7339L2.18474 14.5994ZM5.54844 14.1541C5.71366 14.1365 5.87888 14.1173 6.0457 14.0997C6.01843 14.2278 5.98956 14.3543 5.9639 14.4825C5.89332 14.8204 5.82434 15.16 5.75376 15.4979L5.69441 15.783L5.9639 15.7542C6.12109 15.7366 6.27669 15.7222 6.43388 15.7061L6.61675 15.6885L6.61194 15.4899C6.60392 15.1616 6.59429 14.8332 6.58627 14.5049C6.58306 14.3511 6.57985 14.199 6.57665 14.0452C6.74186 14.0292 6.90869 14.0132 7.0739 13.9988L7.09315 14.2454C7.16052 15.0767 7.23912 15.9079 7.31932 16.7392C7.10117 16.7648 6.88302 16.7905 6.66487 16.8193C6.65685 16.6671 6.65043 16.515 6.64241 16.3612L6.63118 16.1386L6.42586 16.1626C6.18846 16.1914 5.95106 16.2187 5.71366 16.2507L5.58053 16.2683L5.54844 16.4093C5.50353 16.6031 5.46022 16.7985 5.41691 16.9923C5.20518 17.0243 4.99344 17.0579 4.78331 17.0916C5.0159 16.2043 5.24528 15.3169 5.47466 14.428L5.54844 14.1541ZM8.07483 13.9139C8.32507 13.8946 8.5753 13.8754 8.82714 13.8562C8.8897 13.893 8.95867 13.9027 9.02925 13.8995C9.23778 13.8914 9.44791 13.8834 9.65644 13.8754C9.8794 13.8674 9.93875 13.9283 9.92431 14.1701C9.90827 14.4584 9.89223 14.7467 9.87619 15.035C9.86015 15.3217 9.84732 15.6084 9.82807 15.8935C9.81845 16.0489 9.78636 16.2683 9.67729 16.382C9.5618 16.5038 9.3244 16.539 9.17201 16.5518C8.80468 16.5839 8.43896 16.6175 8.07163 16.6543C8.04917 16.4637 8.02832 16.2747 8.00907 16.0841C8.30903 16.0585 8.61059 16.0345 8.91055 16.0121C9.08058 15.9992 9.21051 15.8887 9.22334 15.6997C9.2458 15.3762 9.26505 15.0543 9.28429 14.7307C9.29231 14.5994 9.26184 14.46 9.14153 14.3976C9.07095 14.3607 8.97792 14.3575 8.90092 14.3623C8.72608 14.3719 8.54964 14.3816 8.37479 14.3928C8.09729 14.4088 8.03473 14.3607 8.0604 14.042L8.07483 13.9139ZM10.7504 13.7409C10.9605 13.7297 11.1723 13.7201 11.3856 13.7121L11.3792 13.8914L11.5877 13.8866C11.6374 13.885 11.6888 13.885 11.7385 13.8834L11.8829 13.8802L11.923 13.7313L11.9342 13.6896C12.1267 13.6816 12.3192 13.6752 12.5133 13.6688L12.4892 13.7553L12.4748 13.8066L12.4844 13.8594C12.571 14.3143 12.6608 14.7692 12.7491 15.2256C12.8212 15.5972 12.8934 15.9688 12.9688 16.3404C12.7266 16.3484 12.4844 16.3564 12.2422 16.366C12.1941 16.0793 12.1459 15.791 12.1026 15.5027C12.0497 15.1536 11.9968 14.8044 11.947 14.4552L11.9214 14.2726L11.7513 14.2758C11.6824 14.2774 11.615 14.279 11.546 14.2823L11.3632 14.2871L11.3551 14.4841C11.3407 14.838 11.3247 15.1904 11.3102 15.5444C11.299 15.8327 11.2894 16.1226 11.2781 16.4109C11.0584 16.4221 10.837 16.4365 10.6173 16.4493C10.6558 15.6613 10.6943 14.8733 10.7344 14.0852L10.7504 13.7409ZM13.7516 13.64C13.9649 13.6368 14.1783 13.6336 14.3916 13.6304L14.3884 13.8194H14.5873C14.7974 13.8194 15.0092 13.8178 15.2193 13.8178C15.2193 13.9667 15.2177 14.1157 15.2177 14.2646C15.0044 14.2646 14.791 14.2662 14.5777 14.2678L14.3852 14.2694L14.3836 14.4777C14.3804 14.8444 14.3772 15.2096 14.3724 15.5764L14.3692 15.7926L14.5681 15.791C14.8456 15.7894 15.1231 15.7878 15.4006 15.7878C15.3669 15.9592 15.3332 16.1322 15.3027 16.3052C14.7686 16.3084 14.2344 16.3148 13.7003 16.3244C13.7147 15.554 13.7275 14.782 13.7436 14.0116L13.7516 13.64ZM20.3699 14.6634C20.3844 14.9838 20.3972 15.3057 20.4148 15.6261C20.4197 15.7077 20.402 15.7926 20.3523 15.8567C20.2913 15.9336 20.1999 15.956 20.1101 15.9512C19.9384 15.9416 19.7652 15.9336 19.592 15.9272L19.4107 15.9192L19.4043 15.7238C19.3899 15.3201 19.3738 14.9165 19.3562 14.5113L19.3465 14.2855L19.5567 14.2919C19.7123 14.2967 19.8663 14.3015 20.0218 14.3079C20.1004 14.3111 20.1807 14.3335 20.2432 14.3864C20.3266 14.452 20.3651 14.5545 20.3699 14.6634ZM3.71661 15.2705C3.6717 15.6501 3.62678 16.0297 3.58027 16.4093C3.57064 16.4878 3.54979 16.5582 3.50167 16.6191C3.44873 16.6864 3.37334 16.72 3.29475 16.7344C3.11669 16.7632 2.93864 16.7953 2.7622 16.8241L2.50234 16.8673L2.53923 16.5855C2.6034 16.0953 2.66756 15.6052 2.72851 15.1151L2.74937 14.9534L2.90015 14.9341C3.05574 14.9133 3.21133 14.8957 3.36693 14.8765C3.60593 14.846 3.74709 15.0094 3.71661 15.2705Z" fill="#81BEDB"/>
<path fill-rule="evenodd" clip-rule="evenodd" d="M19.9013 26.6005C21.661 24.1372 23.9692 21.5761 25.5909 20.093L25.2316 19.7005C23.7254 21.0796 22.3042 22.7357 21.106 24.5616C20.8574 24.1692 20.5975 23.7832 20.328 23.4068C21.6674 21.8692 23.0742 20.5863 24.4857 19.6589L24.1938 19.2136C22.5673 20.282 21.199 21.5665 20.0313 23.0032C19.7634 22.6476 19.4859 22.3001 19.1988 21.9637C19.9799 21.2141 20.7932 20.5462 21.6209 19.9937L21.3241 19.5516C20.4419 20.1394 19.6254 20.8281 18.8731 21.5905C18.5331 21.2109 18.1802 20.8441 17.8145 20.495C18.0695 20.3124 18.3278 20.1442 18.586 19.9937L18.2893 19.5516C18.0037 19.7422 17.7214 19.9424 17.4455 20.1522C16.8328 19.598 16.188 19.0903 15.5142 18.6418L15.4998 18.6627L15.4854 18.6418C14.8117 19.0903 14.1668 19.598 13.5541 20.1522C13.2782 19.9424 12.9959 19.7422 12.7104 19.5516L12.4136 19.9937C12.6719 20.1442 12.9301 20.3124 13.1852 20.495C12.8194 20.8441 12.4665 21.2093 12.1265 21.5905C11.3742 20.8265 10.5577 20.1394 9.67548 19.5516L9.37873 19.9937C10.2048 20.5462 11.0197 21.2141 11.8009 21.9637C11.5137 22.3001 11.2362 22.6476 10.9684 23.0032C9.8006 21.5665 8.43234 20.282 6.80582 19.2136L6.51389 19.6589C7.92706 20.5863 9.33221 21.8692 10.6716 23.4068C10.4005 23.7832 10.1407 24.1692 9.89363 24.5616C8.6954 22.7357 7.27421 21.0796 5.768 19.7005L5.40869 20.093C7.02879 21.5761 9.33863 24.1372 11.0983 26.6005C10.8015 26.0368 10.4807 25.4842 10.1407 24.946C10.4069 24.5424 10.686 24.1468 10.9748 23.7608C11.5201 24.4063 12.0527 25.0934 12.5692 25.8157C12.3575 26.2017 12.1602 26.5941 11.9789 26.9946C12.2131 26.6646 12.4537 26.3315 12.6991 25.9983C13.2285 26.7463 13.7402 27.5295 14.2294 28.3432C13.8188 27.4574 13.3696 26.5941 12.8756 25.7597C13.2285 25.284 13.5926 24.8115 13.9647 24.3486C14.4748 24.9877 14.956 25.6524 15.4036 26.3283C15.0443 26.9785 14.7122 27.6432 14.4058 28.3159C14.7379 27.6993 15.1036 27.0826 15.4982 26.474C15.8928 27.081 16.2601 27.6993 16.5906 28.3159C16.2858 27.6432 15.9538 26.9785 15.5928 26.3283C16.0388 25.6508 16.5216 24.9861 17.0317 24.3486C17.4038 24.8115 17.7679 25.2856 18.1208 25.7597C17.6268 26.5925 17.1793 27.4574 16.767 28.3432C17.2579 27.5311 17.7696 26.7463 18.2973 25.9983C18.5427 26.3315 18.7833 26.6646 19.0175 26.9946C18.8362 26.5941 18.639 26.2017 18.4272 25.8157C18.9437 25.0934 19.4779 24.4063 20.0216 23.7608C20.312 24.1468 20.5895 24.5424 20.8558 24.946C20.5189 25.4842 20.1981 26.0368 19.9013 26.6005ZM11.2667 23.378C11.5522 23.0112 11.849 22.6556 12.1537 22.3097C12.6879 22.8462 13.206 23.4196 13.7001 24.0187C13.3536 24.5024 13.0312 25.0037 12.7344 25.521C12.2837 24.7794 11.796 24.0635 11.2667 23.378ZM12.4746 21.9541C12.8419 21.5569 13.2204 21.1757 13.6086 20.8137C14.1364 21.2285 14.6545 21.7042 15.1646 22.2216C14.7267 22.6941 14.3128 23.1906 13.9262 23.7079C13.4739 23.0945 12.9895 22.5067 12.4746 21.9541ZM13.976 20.4838C14.47 20.0481 14.9801 19.6445 15.4998 19.2793C16.0195 19.6445 16.5296 20.0481 17.0237 20.4838C16.4927 20.913 15.9826 21.3775 15.4998 21.8724C15.0154 21.3775 14.5069 20.913 13.976 20.4838ZM17.3894 20.8153C17.7776 21.1757 18.1577 21.5569 18.5235 21.9557C18.0086 22.5083 17.5257 23.0961 17.0718 23.7111C16.6852 23.1938 16.2698 22.6973 15.8335 22.2248C16.3419 21.7058 16.8617 21.2285 17.3894 20.8153ZM18.8459 22.3097C19.1506 22.6556 19.4474 23.0112 19.7329 23.378C19.202 24.0619 18.7159 24.7778 18.2652 25.5194C17.9685 25.0037 17.646 24.5024 17.2996 24.0171C17.792 23.4196 18.3101 22.8478 18.8459 22.3097ZM14.1877 24.0715C14.6593 24.7394 15.0956 25.4377 15.4998 26.1537C15.9024 25.4377 16.3403 24.7394 16.8119 24.0715C16.3853 23.551 15.9473 23.0464 15.4998 22.5707C15.0523 23.0464 14.6144 23.551 14.1877 24.0715Z" fill="#F0631E"/>
<path fill-rule="evenodd" clip-rule="evenodd" d="M23.8972 18.2352L23.9951 18.2512C24.8228 18.3842 25.6441 18.5428 26.4589 18.7285L27.2433 18.9079L26.4493 20.2277L26.1317 21.9703C25.1596 21.7413 24.1731 21.5571 23.1818 21.4113L22.4472 21.304L22.6573 20.7386C18.028 19.9186 12.9736 19.9186 8.3443 20.7386L8.55443 21.304L7.81977 21.4113C6.82686 21.5571 5.84197 21.7413 4.86991 21.9703L4.55231 20.2277L3.7583 18.9079L4.54268 18.7285C5.35594 18.5428 6.17882 18.3842 7.00652 18.2512L7.10436 18.2352L7.28081 17.6378L7.66899 17.5657C12.7571 16.6256 18.2461 16.6256 23.3342 17.5657L23.7224 17.6378L23.8972 18.2352Z" fill="#120B2D"/>
<path d="M7.79885 18.1182L7.21658 20.0915L7.11873 18.8053C6.28943 18.9382 5.48259 19.0952 4.70142 19.273L5.25482 20.1924L4.70142 21.424C5.65743 21.1982 6.66478 21.0076 7.71223 20.8538C7.64326 20.6681 7.59674 20.4999 7.54701 20.3077C12.6479 19.3082 18.3487 19.3082 23.4496 20.3077C23.4015 20.4983 23.3534 20.6681 23.2844 20.8538C24.3319 21.0076 25.3392 21.1982 26.2952 21.424L25.7418 20.1924L26.2952 19.273C25.5141 19.0952 24.7072 18.9382 23.8779 18.8053L23.7801 20.0915L23.1978 18.1182C18.2076 17.1956 12.7907 17.1956 7.79885 18.1182Z" fill="#F0631E"/>
<path d="M7.19091 19.7567C6.68724 19.8384 5.9221 19.9873 5.21792 20.1315L5.25482 20.1923L4.70142 21.424C5.65743 21.1982 6.66478 21.0076 7.71223 20.8538C7.64326 20.668 7.59674 20.4999 7.54701 20.3077C12.6479 19.3082 18.3487 19.3082 23.4496 20.3077C23.4015 20.4983 23.3534 20.668 23.2844 20.8538C24.3319 21.0076 25.3392 21.1982 26.2952 21.424L25.7418 20.1923L25.7787 20.1315C25.0745 19.9873 24.3094 19.8384 23.8057 19.7567L23.7801 20.0914L23.501 19.1465C18.3519 18.139 12.6415 18.139 7.49247 19.1465L7.21337 20.0914L7.19091 19.7567Z" fill="#AC2A1D"/>
<path fill-rule="evenodd" clip-rule="evenodd" d="M8.76432 18.9445L8.53654 18.9861V18.4768C8.53654 18.4608 8.52531 18.4528 8.50767 18.456L8.3232 18.4896C8.30235 18.4928 8.29272 18.504 8.29272 18.5216V19.7533C8.29272 19.7694 8.30235 19.7774 8.3232 19.7742L8.50767 19.7405C8.52531 19.7373 8.53654 19.7261 8.53654 19.7101V19.2008L8.76432 19.1591V19.6684C8.76432 19.6845 8.77555 19.6925 8.79319 19.6893L8.97766 19.6556C8.99851 19.6524 9.00813 19.6396 9.00813 19.6236V18.3919C9.00813 18.3759 8.99851 18.3679 8.97766 18.3711L8.79319 18.4047C8.77555 18.4079 8.76432 18.4191 8.76432 18.4352V18.9445ZM22.702 18.52C22.702 18.504 22.6955 18.4928 22.6731 18.4896L22.0186 18.3615C22.0026 18.3583 21.9914 18.3663 21.9914 18.3823V19.614C21.9914 19.63 22.0026 19.6412 22.0186 19.6444L22.6731 19.7726C22.6939 19.7774 22.702 19.7677 22.702 19.7517V19.5916C22.702 19.5739 22.6955 19.5643 22.6731 19.5611L22.2288 19.4746V19.1511L22.5688 19.2168C22.5865 19.22 22.5977 19.212 22.5977 19.1944V19.0358C22.5977 19.0182 22.5865 19.007 22.5688 19.0038L22.2288 18.9381V18.6177L22.6731 18.7042C22.6939 18.709 22.702 18.6978 22.702 18.6818V18.52ZM21.77 18.5569C21.77 18.4063 21.6786 18.3118 21.5118 18.2846L21.3112 18.2526C21.1428 18.2253 21.0514 18.291 21.0514 18.4416V19.2632C21.0514 19.4138 21.1428 19.5083 21.3112 19.5355L21.5118 19.5675C21.6786 19.5948 21.77 19.5291 21.77 19.3769V19.204C21.77 19.1879 21.7588 19.1767 21.7411 19.1735L21.5615 19.1447C21.5422 19.1415 21.5326 19.1495 21.5326 19.1655V19.2937C21.5326 19.3369 21.5069 19.3545 21.4604 19.3465L21.3674 19.3321C21.3209 19.3241 21.2952 19.3001 21.2952 19.2568V18.5249C21.2952 18.4832 21.3193 18.464 21.3674 18.472L21.4604 18.4864C21.5069 18.4944 21.5326 18.52 21.5326 18.5617V18.6898C21.5326 18.7058 21.5422 18.7171 21.5615 18.7203L21.7411 18.7491C21.7588 18.7523 21.77 18.7443 21.77 18.7283V18.5569ZM20.6135 18.1533C20.5942 18.1517 20.5846 18.1597 20.5846 18.1757V18.8516L20.5734 18.85L20.2991 18.1356C20.2943 18.1212 20.283 18.1132 20.267 18.1116L20.089 18.0908C20.0713 18.0892 20.0601 18.0972 20.0601 18.1132V19.3449C20.0601 19.3609 20.0713 19.3721 20.089 19.3737L20.2766 19.3962C20.2959 19.3978 20.3055 19.3898 20.3055 19.3737V18.6946L20.3151 18.6962L20.591 19.4138C20.5958 19.4282 20.6071 19.4362 20.6231 19.4378L20.8012 19.4586C20.8188 19.4602 20.83 19.4522 20.83 19.4362V18.2045C20.83 18.1885 20.8188 18.1773 20.8012 18.1757L20.6135 18.1533ZM19.8467 19.3433C19.8692 19.3449 19.8756 19.3369 19.8724 19.3193L19.5725 18.0556C19.5692 18.0395 19.558 18.0315 19.542 18.0299L19.2901 18.0043C19.2741 18.0027 19.2629 18.0075 19.2597 18.0235L18.9597 19.2264C18.9549 19.244 18.9629 19.2536 18.9838 19.2568L19.1779 19.276C19.1939 19.2776 19.2035 19.2712 19.2067 19.2568L19.2548 19.0278L19.5773 19.0614L19.6286 19.3001C19.6318 19.3145 19.6414 19.3241 19.6575 19.3257L19.8467 19.3433ZM19.5291 18.8692L19.2982 18.8452L19.4137 18.2974L19.5291 18.8692ZM18.5106 17.937C18.4881 17.9354 18.4753 17.9434 18.4705 17.9627L18.2684 18.7475L18.0662 17.9354C18.0614 17.9162 18.0486 17.905 18.0261 17.9034L17.7855 17.8858C17.7615 17.8842 17.7486 17.8938 17.7486 17.9146V19.1335C17.7486 19.1543 17.7615 19.1671 17.7855 19.1687L17.9524 19.1799C17.9764 19.1815 17.9892 19.1719 17.9892 19.1511V18.4288L18.0021 18.4304L18.1817 19.1671C18.1865 19.1863 18.1994 19.1976 18.2218 19.1992L18.3101 19.2056C18.3325 19.2072 18.3453 19.1992 18.3502 19.1799L18.5298 18.4672L18.5426 18.4688V19.1911C18.5426 19.212 18.5555 19.2248 18.5795 19.2264L18.748 19.2376C18.772 19.2392 18.7849 19.2296 18.7849 19.2088V17.9899C18.7849 17.9691 18.772 17.9563 18.748 17.9547L18.5106 17.937ZM17.5273 18.1068C17.5273 17.9563 17.4358 17.873 17.2658 17.8666L16.8087 17.8505C16.791 17.8505 16.7798 17.8586 16.7798 17.8746V19.1063C16.7798 19.1223 16.791 19.1319 16.8087 19.1335L16.9979 19.1399C17.0156 19.1399 17.0268 19.1319 17.0268 19.1159V18.7122L17.1519 18.7171L17.2738 19.1287C17.277 19.1431 17.2867 19.1511 17.3043 19.1527L17.4936 19.1591C17.5128 19.1591 17.5241 19.1511 17.5193 19.1319L17.3941 18.7074C17.4808 18.677 17.5273 18.6081 17.5273 18.5008V18.1068ZM17.0252 18.5008V18.0716L17.2049 18.078C17.253 18.0796 17.277 18.1036 17.277 18.1453V18.4464C17.277 18.488 17.2514 18.5104 17.2049 18.5088L17.0252 18.5008ZM15.8254 18.8836C15.8254 19.0342 15.9168 19.1159 16.0884 19.1175L16.2922 19.1191C16.4638 19.1207 16.5552 19.0422 16.5552 18.8916V18.07C16.5552 17.9194 16.4638 17.8377 16.2922 17.8361L16.0884 17.8345C15.9168 17.8329 15.8254 17.9114 15.8254 18.062V18.8836ZM16.1398 18.9109C16.0916 18.9109 16.0676 18.8884 16.0676 18.8452V18.1052C16.0676 18.0636 16.0933 18.0411 16.1398 18.0411L16.2456 18.0427C16.2938 18.0427 16.3178 18.0668 16.3178 18.1084V18.8484C16.3178 18.8916 16.2922 18.9125 16.2456 18.9125L16.1398 18.9109ZM15.6553 17.8538C15.6553 17.8377 15.6441 17.8281 15.6265 17.8281L14.956 17.8297C14.9351 17.8297 14.9271 17.8393 14.9271 17.8554V19.087C14.9271 19.1031 14.9367 19.1127 14.956 19.1127H15.1453C15.1629 19.1127 15.1741 19.1031 15.1741 19.087V18.5761L15.5174 18.5745C15.535 18.5745 15.5463 18.5665 15.5463 18.5489V18.3887C15.5463 18.3727 15.535 18.3631 15.5174 18.3631L15.1741 18.3647V18.0427L15.6265 18.0411C15.6441 18.0411 15.6553 18.0315 15.6553 18.0155V17.8538ZM14.7009 18.0588C14.7009 17.9082 14.6095 17.8313 14.4395 17.8361L13.9823 17.8522C13.9647 17.8522 13.9534 17.8634 13.9534 17.8794V19.1111C13.9534 19.1271 13.9647 19.1367 13.9823 19.1351L14.1716 19.1287C14.1892 19.1287 14.2005 19.1175 14.2005 19.1015V18.6978L14.3256 18.693L14.4475 19.0966C14.4507 19.1111 14.4603 19.1191 14.478 19.1175L14.6672 19.1111C14.6865 19.1111 14.6977 19.0999 14.6929 19.0806L14.5678 18.6642C14.6544 18.6274 14.7009 18.5553 14.7009 18.448V18.0588ZM14.2005 18.4864V18.0572L14.3801 18.0508C14.4282 18.0492 14.4523 18.07 14.4523 18.1132V18.4143C14.4523 18.456 14.4266 18.48 14.3801 18.4816L14.2005 18.4864ZM13.7465 17.8858C13.7465 17.8698 13.7385 17.8602 13.7176 17.8618L13.0488 17.9002C13.0327 17.9018 13.0215 17.9114 13.0215 17.9274V19.1591C13.0215 19.1751 13.0327 19.1847 13.0488 19.1831L13.7176 19.1447C13.7401 19.1431 13.7465 19.1335 13.7465 19.1175V18.9573C13.7465 18.9397 13.7385 18.9317 13.7176 18.9333L13.2637 18.9589V18.6354L13.6118 18.6161C13.6294 18.6145 13.6407 18.6049 13.6407 18.5873V18.4288C13.6407 18.4111 13.6294 18.4015 13.6118 18.4031L13.2637 18.4223V18.102L13.7176 18.0764C13.7401 18.0748 13.7465 18.0636 13.7465 18.0476V17.8858ZM12.0703 19.2248C12.0703 19.2408 12.0815 19.2504 12.0992 19.2488L12.2884 19.236C12.3077 19.2344 12.3173 19.2248 12.3173 19.2088V18.8051L12.5355 18.7891C12.7055 18.7763 12.7969 18.6882 12.7969 18.5393V18.1469C12.7969 17.9963 12.7055 17.9226 12.5355 17.9338L12.0992 17.9643C12.0815 17.9659 12.0703 17.9755 12.0703 17.9915V19.2248ZM12.3173 18.5905V18.1613L12.4777 18.1501C12.5274 18.1469 12.5499 18.1677 12.5499 18.2093V18.5104C12.5499 18.5505 12.5258 18.5761 12.4777 18.5793L12.3173 18.5905ZM11.1463 18.5921L10.9154 18.621V18.1116C10.9154 18.0956 10.9041 18.0876 10.8865 18.0892L10.7004 18.1132C10.678 18.1164 10.6699 18.126 10.6699 18.1421V19.3737C10.6699 19.3898 10.6796 19.3978 10.7004 19.3962L10.8865 19.3721C10.9041 19.3705 10.9154 19.3593 10.9154 19.3433V18.834L11.1463 18.8051V19.3145C11.1463 19.3305 11.1576 19.3385 11.1752 19.3369L11.3613 19.3129C11.3837 19.3097 11.3918 19.3001 11.3918 19.284V18.0508C11.3918 18.0347 11.3821 18.0267 11.3613 18.0283L11.1752 18.0524C11.1576 18.054 11.1463 18.0652 11.1463 18.0812V18.5921ZM9.69307 19.3049C9.69307 19.4554 9.78289 19.5227 9.95132 19.4987L10.1887 19.465C10.3555 19.441 10.447 19.3481 10.447 19.1976V18.7523C10.447 18.7347 10.4357 18.7283 10.4181 18.7315L10.1165 18.7747C10.0973 18.7779 10.0877 18.7875 10.0877 18.8051V18.9653C10.0877 18.9813 10.0973 18.9893 10.1165 18.9861L10.2096 18.9733V19.1879C10.2096 19.2312 10.1839 19.2552 10.1374 19.2616L10.0075 19.2808C9.96094 19.2872 9.93528 19.2696 9.93528 19.2264V18.4944C9.93528 18.4528 9.95934 18.4271 10.0075 18.4207L10.1374 18.4015C10.1839 18.3951 10.2096 18.4143 10.2096 18.456V18.5777C10.2096 18.5937 10.2192 18.6017 10.2384 18.5985L10.4181 18.5729C10.4357 18.5697 10.447 18.5585 10.447 18.5425V18.3759C10.447 18.2253 10.3555 18.1581 10.1887 18.1821L9.95132 18.2157C9.78289 18.2398 9.69307 18.3327 9.69307 18.4832V19.3049ZM9.25676 18.3246C9.23751 18.3278 9.22789 18.3391 9.22789 18.3551V19.5868C9.22789 19.6028 9.23751 19.6108 9.25676 19.6076L9.44283 19.5772C9.46048 19.5739 9.47171 19.5627 9.47171 19.5467V18.315C9.47171 18.299 9.46048 18.291 9.44283 18.2942L9.25676 18.3246Z" fill="#120B2D"/>
</svg>
