<svg width="28" height="29" viewBox="0 0 28 29" fill="none" xmlns="http://www.w3.org/2000/svg">
<path d="M20.2578 8.75986L13.5582 2.0603L0.530701 15.0825L7.23026 21.7821L13.9298 28.4816L26.9573 15.4541L20.2578 8.75986Z" fill="#003D6C"/>
<path d="M19.6897 9.32281L13.5741 3.2019L1.672 15.0987L7.79291 21.2196L13.9138 27.3405L25.8106 15.4384L19.6897 9.32281Z" fill="#60BA46"/>
<path d="M20.9426 19.6006L21.3142 19.229V11.6323L20.9426 11.2607V19.6006ZM20.0772 20.4659L20.4488 20.0943V10.767L20.0772 10.3954V20.4659ZM22.6732 17.87L23.0448 17.4984V13.3629L22.6732 12.9913V17.87ZM23.5385 17.0047L23.9101 16.6331V14.2282L23.5385 13.8566V17.0047ZM19.2119 21.3313L19.5835 20.9596V9.90166L19.2119 9.53005V21.3313ZM21.8079 18.7353L22.1795 18.3637V12.4976L21.8079 12.126V18.7353ZM14.88 25.6578L15.2516 25.2862V5.57508L14.88 5.20348V25.6578ZM15.7454 24.7925L16.117 24.4209V6.4404L15.7454 6.06879V24.7925ZM18.3466 22.1966L18.7182 21.825V9.03634L18.3466 8.66474V22.1966ZM24.4038 14.7219V16.1341L24.7754 15.7624V15.0882L24.4038 14.7219ZM14.0147 26.5231L14.3863 26.1515V4.70977L14.0147 4.33816V26.5231ZM17.4813 23.0619L17.8529 22.6903V8.17103L17.4813 7.79942V23.0619ZM16.616 23.9272L16.9876 23.5556V7.30571L16.616 6.93411V23.9272ZM7.0922 19.8236L7.46381 20.1952V10.0238L7.0922 10.3954V19.8236ZM10.5535 23.2848L10.9251 23.6565V6.5625L10.5535 6.93411V23.2848ZM9.68815 22.4195L10.0598 22.7911V7.42781L9.68815 7.79942V22.4195ZM11.4188 24.1555L11.7904 24.5271V5.69718L11.4188 6.06879V24.1555ZM13.1494 25.8861L13.521 26.2577V3.96655L13.1494 4.33816V25.8861ZM12.2841 25.0208L12.6557 25.3924V4.83187L12.2841 5.20348V25.0208ZM3.63094 16.3623L4.00255 16.7339V13.485L3.63094 13.8566V16.3623ZM8.82283 21.5542L9.19444 21.9258V8.29313L8.82283 8.66474V21.5542ZM4.49626 17.2276L4.86786 17.5992V12.6197L4.49626 12.9913V17.2276ZM2.76562 15.497L3.13723 15.8686V14.3503L2.76562 14.7219V15.497ZM5.36157 18.093L5.73318 18.4646V11.7544L5.36157 12.126V18.093ZM7.95752 20.6889L8.32912 21.0605V9.15844L7.95752 9.53005V20.6889ZM6.22689 18.9583L6.59849 19.3299V10.8891L6.22689 11.2607V18.9583Z" fill="white"/>
<path d="M23.4642 10.6659C23.4642 10.5491 23.4642 10.4907 23.4642 10.3739C23.6341 10.2784 23.719 10.2359 23.8889 10.1456C23.719 9.9333 23.6341 9.82712 23.4642 9.61478C23.4642 8.92996 23.4642 8.23983 23.4642 7.55501C22.875 7.35859 22.2804 7.17809 21.6752 7.01352C21.6752 7.63464 21.6752 8.25044 21.6752 8.87156C21.5425 8.82909 21.4098 8.79193 21.2717 8.74946C21.2717 8.13365 21.2717 7.52315 21.2717 6.90735C20.6719 6.7534 20.0667 6.62068 19.4562 6.50389C19.4562 6.89673 19.4562 7.09846 19.4562 7.4913C19.3712 7.08253 19.3288 6.8755 19.2438 6.46673C18.6015 6.34994 17.9591 6.25438 17.3115 6.17475C17.2531 6.42957 17.2265 6.55697 17.1681 6.8171C16.8496 6.51981 16.6903 6.37117 16.3665 6.07919C15.7454 6.02611 15.1243 5.98895 14.5032 5.97302C14.2218 5.96771 14.0838 5.9624 13.8077 5.9624C13.0167 5.96771 12.2364 5.99956 11.4507 6.04734C11.4507 6.0845 11.4507 6.10574 11.4507 6.1429C11.4029 6.10574 11.3817 6.08981 11.3339 6.05265C10.7659 6.10574 10.1978 6.16413 9.63511 6.23314C9.31128 6.54105 9.14671 6.70031 8.82288 7.01883C8.76448 6.76401 8.73794 6.6313 8.67954 6.37648C8.03719 6.48265 7.39484 6.61537 6.7578 6.76401C6.6994 7.04006 6.67286 7.17809 6.61977 7.45414C6.30656 7.26834 6.1473 7.17278 5.83409 6.9976C5.00063 7.22056 4.17778 7.48069 3.36555 7.77266C3.36555 8.45748 3.36555 9.14761 3.36555 9.83243C3.19567 10.0448 3.11073 10.1563 2.94086 10.3739C3.11073 10.4589 3.19567 10.5066 3.36555 10.5916C3.36555 11.2764 3.36555 11.9612 3.36555 12.646L4.5547 13.591C5.24483 13.3468 5.94026 13.1185 6.64632 12.9327C6.68348 12.9221 6.70471 12.9168 6.74187 12.9062C7.25151 12.7734 7.76645 12.6513 8.28139 12.5399C8.33448 12.2904 8.35571 12.1629 8.4088 11.9134C8.46189 12.1417 8.48312 12.2585 8.53621 12.4868C9.05646 12.3859 9.58202 12.2957 10.1076 12.2266C10.1394 12.2213 10.1554 12.2213 10.1872 12.216C10.6597 12.1523 11.1375 12.0992 11.6099 12.0674C11.6524 12.0302 11.6736 12.009 11.7161 11.9718C11.7161 12.009 11.7161 12.0249 11.7161 12.0568C12.4115 12.0143 13.107 11.9878 13.8077 11.9824C14.0625 11.9824 14.1846 11.9824 14.4395 11.9931C14.9544 12.009 15.464 12.0408 15.9737 12.078C16.0108 12.0833 16.0321 12.0833 16.0692 12.0886C16.5948 12.1417 17.1097 12.2001 17.6353 12.2691C17.6884 12.0355 17.7149 11.9187 17.7627 11.6905C17.8158 11.94 17.8423 12.0621 17.8901 12.3116C18.2564 12.37 18.4369 12.4018 18.8032 12.4708C19.0952 12.5292 19.2438 12.5558 19.5358 12.6195C20.0295 12.7257 20.2737 12.7894 20.7621 12.9168C21.0063 12.9858 21.1337 13.0176 21.3779 13.092C22.0256 13.2884 22.6626 13.506 23.2997 13.7343L24.5366 12.8053C24.5366 12.216 24.5366 11.6268 24.5366 11.0375C24.1119 10.8889 23.8942 10.8092 23.4642 10.6659Z" fill="#003D6C"/>
<path d="M3.88582 10.1771C3.82212 10.1453 3.79558 10.1293 3.73187 10.0922C3.79558 10.0179 3.82212 9.9754 3.88582 9.90107C3.88582 9.31181 3.88582 8.72255 3.88582 8.13328C4.46978 7.93686 5.05373 7.75637 5.64831 7.5918C5.83942 7.69797 5.93498 7.75637 6.12609 7.86785C6.12609 8.33501 6.12609 8.56859 6.12609 9.04107C6.0093 9.20033 5.9509 9.28527 5.83942 9.44453C5.95621 9.5507 6.0093 9.59848 6.12609 9.70465C6.12609 10.1718 6.12609 10.4107 6.12609 10.8779C5.93498 11.0849 5.83942 11.1911 5.64831 11.4034C5.05373 11.568 4.46978 11.7485 3.88582 11.9449C3.88582 11.3557 3.88582 10.7664 3.88582 10.1771ZM4.61842 9.44453C4.92102 9.34897 5.07497 9.3065 5.37756 9.21625C5.37756 8.8765 5.37756 8.70662 5.37756 8.36686C5.07497 8.4518 4.92102 8.49958 4.61842 8.59514C4.61842 8.93489 4.61842 9.10477 4.61842 9.44453ZM4.61842 11C4.92102 10.9044 5.07497 10.8619 5.37756 10.7717C5.37756 10.4319 5.37756 10.2621 5.37756 9.92231C5.07497 10.0072 4.92102 10.055 4.61842 10.1506C4.61842 10.4903 4.61842 10.6602 4.61842 11Z" fill="white"/>
<path d="M8.29729 10.7983C8.22297 10.4691 8.18581 10.3099 8.1168 9.98073C7.79828 10.0391 7.64433 10.071 7.33111 10.14C7.25679 10.4957 7.22494 10.6709 7.15062 11.0265C6.84272 11.0956 6.69407 11.1274 6.38617 11.207C6.65691 9.87456 6.92766 8.53677 7.1984 7.20429C7.61778 7.11404 7.83013 7.07157 8.25483 6.99194C8.52557 8.21825 8.80162 9.43925 9.07236 10.6656C8.75915 10.7186 8.6052 10.7452 8.29729 10.7983ZM7.96285 9.31184C7.86729 8.87653 7.8142 8.65356 7.71865 8.21825C7.62309 8.69603 7.57001 8.92961 7.47445 9.40739C7.67087 9.36492 7.76643 9.349 7.96285 9.31184Z" fill="white"/>
<path d="M11.6312 9.98637C11.4348 10.1616 11.3392 10.2465 11.1428 10.4217C10.6172 10.4641 10.3518 10.496 9.83154 10.565C9.63512 10.4323 9.53956 10.3633 9.34314 10.2359C9.34314 9.99168 9.34314 9.86958 9.34314 9.62007C9.64573 9.5776 9.79969 9.55636 10.1023 9.5192C10.1023 9.6413 10.1023 9.70501 10.1023 9.82711C10.4102 9.78995 10.5641 9.77402 10.872 9.74217C10.872 9.40241 10.872 9.23253 10.872 8.89278C10.458 8.92994 10.2509 8.95648 9.83685 9.00957C9.64043 8.87685 9.54487 8.80784 9.34845 8.67512C9.34845 8.18672 9.34845 7.70363 9.34845 7.21523C9.54487 7.02412 9.64043 6.93387 9.83685 6.74807C10.3624 6.67906 10.6225 6.65251 11.1481 6.60474C11.3445 6.74807 11.4401 6.81708 11.6365 6.96573C11.6365 7.20462 11.6365 7.32141 11.6365 7.5603C11.3339 7.58153 11.1799 7.59215 10.8773 7.624C10.8773 7.50721 10.8773 7.45413 10.8773 7.33733C10.5694 7.36388 10.4155 7.38511 10.1076 7.42227C10.1076 7.76203 10.1076 7.93191 10.1076 8.27166C10.527 8.22388 10.734 8.20265 11.1534 8.16549C11.3498 8.30882 11.4454 8.38314 11.6418 8.52648C11.6312 9.01488 11.6312 9.49797 11.6312 9.98637Z" fill="white"/>
<path d="M13.9883 10.3102C13.3247 10.3049 12.6611 10.3208 11.9975 10.358C11.9975 9.7687 11.9975 9.17944 11.9975 8.59017C11.9338 8.53709 11.902 8.51585 11.8383 8.46277C11.902 8.40437 11.9338 8.37252 11.9975 8.31412C11.9975 7.72486 11.9975 7.1356 11.9975 6.54633C12.6558 6.50917 13.3141 6.49325 13.9723 6.49855C13.9723 6.77991 13.9723 6.92325 13.9723 7.20461C13.4893 7.1993 13.2451 7.20461 12.7567 7.22053C12.7567 7.56029 12.7567 7.73017 12.7567 8.06992C13.176 8.054 13.3831 8.054 13.8025 8.054C13.8025 8.33536 13.8025 8.47869 13.8025 8.76005C13.3831 8.76005 13.176 8.76005 12.7567 8.77598C12.7567 9.11573 12.7567 9.28561 12.7567 9.62537C13.2504 9.60944 13.4946 9.60413 13.9883 9.60944C13.9883 9.8908 13.9883 10.0288 13.9883 10.3102Z" fill="white"/>
<path d="M14.3598 8.5475C14.2961 8.49442 14.2643 8.46257 14.2006 8.40948C14.2643 8.35639 14.2961 8.32985 14.3598 8.27145C14.3598 7.68219 14.3598 7.09293 14.3598 6.50366C14.9703 6.51428 15.5755 6.54613 16.1807 6.59391C16.3771 6.7691 16.4727 6.85934 16.6691 7.03984C16.6691 7.507 16.6691 7.74058 16.6691 8.21306C16.5523 8.33516 16.4939 8.39355 16.3771 8.51565C16.4939 8.65899 16.5523 8.73331 16.6691 8.88195C16.6691 9.34912 16.6691 9.58801 16.6691 10.0552C16.4727 10.1932 16.3771 10.2675 16.1807 10.4109C15.5755 10.3631 14.965 10.3312 14.3598 10.3206C14.3598 9.72603 14.3598 9.13677 14.3598 8.5475ZM15.119 8.08565C15.4322 8.10158 15.5914 8.10688 15.9046 8.13343C15.9046 7.79367 15.9046 7.62379 15.9046 7.28404C15.5914 7.2628 15.4322 7.25219 15.119 7.23626C15.119 7.57602 15.119 7.74589 15.119 8.08565ZM15.119 9.64109C15.4322 9.65702 15.5914 9.66233 15.9046 9.68887C15.9046 9.34912 15.9046 9.17924 15.9046 8.83948C15.5914 8.81825 15.4322 8.80763 15.119 8.7917C15.119 9.13146 15.119 9.30134 15.119 9.64109Z" fill="white"/>
<path d="M18.8616 10.7452C18.7872 10.3948 18.7501 10.2196 18.6811 9.86394C18.3625 9.81086 18.2033 9.78962 17.8901 9.74715C17.8158 10.0763 17.7786 10.2409 17.7096 10.57C17.4017 10.5275 17.2424 10.5116 16.9345 10.4797C17.2106 9.24283 17.4813 8.0059 17.7574 6.76367C18.182 6.82207 18.3997 6.85392 18.8244 6.92293C19.0951 8.24479 19.3712 9.56135 19.6419 10.8832C19.3287 10.8248 19.1748 10.7983 18.8616 10.7452ZM18.5324 9.13665C18.4369 8.66418 18.3838 8.4306 18.2882 7.95813C18.1927 8.39875 18.1396 8.62171 18.044 9.06233C18.2351 9.08887 18.336 9.1048 18.5324 9.13665Z" fill="white"/>
<path d="M21.845 11.4036C21.2345 11.2337 20.6134 11.085 19.9923 10.9576C19.9923 10.3684 19.9923 9.7791 19.9923 9.18984C19.9286 9.12083 19.8967 9.08897 19.8383 9.01996C19.902 8.97749 19.9339 8.95626 19.9923 8.91379C19.9923 8.32452 19.9923 7.73526 19.9923 7.146C20.2949 7.2097 20.4435 7.24155 20.7461 7.31057C20.7461 7.89983 20.7461 8.48909 20.7461 9.07836C20.8098 9.14737 20.8417 9.18453 20.9054 9.25354C20.8417 9.2907 20.8098 9.31194 20.7461 9.35441C20.7461 9.7791 20.7461 9.99145 20.7461 10.4215C21.1867 10.5276 21.4097 10.5807 21.845 10.7028C21.845 10.9842 21.845 11.1222 21.845 11.4036Z" fill="white"/>
<path d="M24.0217 12.0938C23.4218 11.8814 22.8113 11.685 22.2008 11.5045C22.2008 10.9152 22.2008 10.326 22.2008 9.73671C22.1371 9.66239 22.1106 9.63054 22.0469 9.55622C22.1106 9.51906 22.1371 9.49782 22.2008 9.46066C22.2008 8.8714 22.2008 8.28213 22.2008 7.69287C22.4981 7.77781 22.6468 7.82559 22.944 7.91584C22.944 8.5051 22.944 9.09436 22.944 9.68363C23.0077 9.75795 23.0396 9.79511 23.098 9.86943C23.0343 9.90128 23.0077 9.92252 22.944 9.95437C22.944 10.3791 22.944 10.5914 22.944 11.0214C23.3794 11.1594 23.597 11.2338 24.027 11.3877C24.0217 11.6744 24.0217 11.8124 24.0217 12.0938Z" fill="white"/>
<path d="M10.9941 26.2524C10.9144 26.1621 10.8613 26.0984 10.856 26.0878L10.8295 26.0559C10.7764 25.9922 10.7233 25.9179 10.6649 25.8436L10.6224 25.7852C10.4207 25.4932 10.2668 25.1588 10.4632 24.8562C10.7552 24.4102 11.1639 24.4846 11.355 24.5217C11.4878 24.5483 11.5833 24.5642 11.7213 24.5111C12.1938 24.3041 15.3737 21.3153 15.9842 20.6517C16.0851 20.5402 16.2868 20.3119 16.5416 20.02C17.6989 18.6928 20.1091 15.9376 22.3122 13.9575L25.1311 11.4252C25.6779 10.9368 26.4211 10.8466 26.9413 11.2129L26.9679 11.2288L27.1802 11.4305C27.228 11.473 27.2705 11.5208 27.3129 11.5685C27.366 11.6269 27.4191 11.6906 27.4669 11.7544L27.6421 11.9879L27.658 12.0145C27.9659 12.5719 27.8013 13.3045 27.2546 13.7929L24.4356 16.3251C22.2272 18.3053 19.2278 20.4022 17.7839 21.4055C17.4653 21.6285 17.2158 21.8037 17.0937 21.8939C16.3664 22.4301 13.0538 25.2703 12.7937 25.7162C12.73 25.8436 12.7353 25.9445 12.7459 26.0825C12.7618 26.2895 12.799 26.7142 12.3 26.9425C11.8594 27.1442 11.4771 26.7567 11.1958 26.4753C11.1799 26.4594 11.1692 26.4488 11.1533 26.4329L11.1268 26.4116C11.1215 26.4063 11.0737 26.3638 11.01 26.2895L10.9941 26.2524Z" fill="#003D6C"/>
<path d="M24.1701 16.0117L26.9891 13.4795C27.3447 13.1609 27.5412 12.6354 27.3076 12.216L27.1483 12.0037C27.074 11.9081 26.9944 11.8179 26.9041 11.7329L26.713 11.5524C26.3202 11.2764 25.7787 11.4091 25.423 11.7329L22.6041 14.2652C19.9073 16.6859 16.8707 20.3171 16.3027 20.9329C15.7346 21.5487 12.4273 24.6914 11.8805 24.8984C11.3338 25.1108 11.0789 24.6861 10.8188 25.0789C10.7126 25.2382 10.9993 25.5886 11.1904 25.8328C11.1904 25.8328 11.2329 25.8912 11.3072 25.9708C11.3815 26.0504 11.4346 26.1035 11.4346 26.1035C11.6576 26.3212 11.9496 26.645 12.1407 26.5548C12.5707 26.3583 12.1672 26.0398 12.438 25.5196C12.7034 24.9993 16.1859 22.053 16.8601 21.554C17.529 21.055 21.4733 18.4272 24.1701 16.0117Z" fill="#AEB0B3"/>
<path d="M10.9409 24.9517C10.8984 24.9782 10.856 25.0207 10.8188 25.0791C10.7126 25.2383 10.9993 25.5887 11.1904 25.8329C11.1904 25.8329 11.2329 25.8913 11.3072 25.9709C11.3815 26.0506 11.4346 26.1036 11.4346 26.1036C11.6576 26.3213 11.9496 26.6451 12.1407 26.5549C12.215 26.523 12.2575 26.4859 12.2946 26.4434C11.5196 25.8382 11.1161 25.2436 10.9409 24.9517Z" fill="#6F7073"/>
<path d="M24.1702 16.012L26.9891 13.4797C27.3448 13.1612 27.5412 12.6356 27.3076 12.2163L27.1483 12.0039C27.1006 12.3224 26.5378 12.9595 25.1576 14.2282C23.2199 16.0013 19.9285 18.953 18.5483 19.882C17.168 20.8163 15.9895 21.9311 14.8694 22.9557C13.7492 23.9803 12.5282 25.0951 12.1885 25.4083C11.8753 25.695 12.1566 26.3267 11.939 26.5391C12.0133 26.5762 12.0823 26.5869 12.1407 26.5603C12.5707 26.3639 12.1672 26.0454 12.438 25.5251C12.7034 25.0049 16.1859 22.0585 16.8601 21.5595C17.529 21.0552 21.4734 18.4274 24.1702 16.012Z" fill="#6F7073"/>
<path d="M15.379 21.8461C15.379 21.8461 17.1999 20.296 18.1608 19.1758C19.127 18.0557 20.7514 16.2773 24.5737 12.7736C26.0336 11.4358 26.23 11.6003 26.6494 11.5101C26.2618 11.2871 25.7575 11.4252 25.4231 11.7278L22.6041 14.26C19.9073 16.6808 16.8708 20.3119 16.3027 20.9277C16.1488 21.0976 15.809 21.432 15.379 21.8461Z" fill="white"/>
<path d="M16.8336 26.2521C16.9133 26.1618 16.9664 26.0981 16.9717 26.0875L16.9982 26.0503C17.0513 25.9866 17.1044 25.9123 17.1628 25.838L17.2053 25.7796C17.407 25.4876 17.5609 25.1532 17.3645 24.8506C17.0725 24.4046 16.6638 24.479 16.4727 24.5161C16.3399 24.5427 16.2444 24.5586 16.1064 24.5055C15.6339 24.2985 12.454 21.3097 11.8435 20.6461C11.7426 20.5346 11.5409 20.3063 11.2861 20.0144C10.1288 18.6872 7.71864 15.932 5.51554 13.9518L2.69663 11.4196C2.14983 10.9312 1.40662 10.841 0.886368 11.2073L0.859825 11.2232L0.647477 11.4249C0.599699 11.4674 0.55723 11.5152 0.51476 11.5629C0.461673 11.6213 0.408587 11.685 0.360808 11.7487L0.169696 11.9876L0.15377 12.0142C-0.154134 12.5716 0.0104355 13.3042 0.55723 13.7926L3.37614 16.3248C5.58455 18.305 8.58395 20.4019 10.0279 21.4052C10.3464 21.6282 10.5959 21.8034 10.718 21.8936C11.4453 22.4298 14.758 25.2699 15.0181 25.7159C15.0818 25.8433 15.0765 25.9442 15.0659 26.0822C15.0499 26.2892 15.0128 26.7139 15.5118 26.9422C15.9524 27.1439 16.3346 26.7564 16.616 26.475C16.6319 26.4591 16.6425 26.4485 16.6585 26.4326L16.685 26.4113C16.6903 26.406 16.7381 26.3635 16.8018 26.2892L16.8336 26.2521Z" fill="#003D6C"/>
<path d="M3.6575 16.0115L0.838594 13.4792C0.482912 13.1607 0.286491 12.6351 0.520073 12.2158L0.679334 12.0034C0.753655 11.9079 0.833285 11.8176 0.923533 11.7327L1.11465 11.5522C1.50749 11.2761 2.04897 11.4088 2.40466 11.7327L5.22357 14.2649C7.92038 16.6857 10.9569 20.3168 11.525 20.9326C12.093 21.5484 15.4003 24.6912 15.9471 24.8982C16.4939 25.1105 16.7487 24.6859 17.0088 25.0787C17.115 25.238 16.8283 25.5883 16.6372 25.8325C16.6372 25.8325 16.5948 25.8909 16.5204 25.9706C16.4461 26.0502 16.393 26.1033 16.393 26.1033C16.1701 26.3209 15.8781 26.6448 15.687 26.5545C15.257 26.3581 15.6604 26.0396 15.3897 25.5193C15.1243 24.9991 11.6418 22.0527 10.9676 21.5537C10.2987 21.0547 6.35431 18.4269 3.6575 16.0115Z" fill="#AEB0B3"/>
<path d="M16.8867 24.9514C16.9291 24.978 16.9716 25.0204 17.0088 25.0788C17.1149 25.2381 16.8283 25.5885 16.6372 25.8327C16.6372 25.8327 16.5947 25.8911 16.5204 25.9707C16.4461 26.0503 16.393 26.1034 16.393 26.1034C16.17 26.3211 15.878 26.6449 15.6869 26.5546C15.6126 26.5228 15.5701 26.4856 15.533 26.4432C16.308 25.838 16.7115 25.2434 16.8867 24.9514Z" fill="#6F7073"/>
<path d="M3.6575 16.0117L0.838594 13.4795C0.482912 13.161 0.286491 12.6354 0.520073 12.216L0.679334 12.0037C0.727112 12.3222 1.28983 12.9592 2.67009 14.228C4.60776 16.0011 7.89914 18.9527 9.2794 19.8817C10.6597 20.8161 11.8382 21.9309 12.9583 22.9555C14.0784 23.98 15.2994 25.0949 15.6392 25.4081C15.9524 25.6948 15.6711 26.3265 15.8887 26.5388C15.8144 26.576 15.7454 26.5866 15.687 26.5601C15.257 26.3636 15.6604 26.0451 15.3897 25.5249C15.1243 25.0046 11.6418 22.0583 10.9676 21.5593C10.2987 21.055 6.35431 18.4272 3.6575 16.0117Z" fill="#6F7073"/>
<path d="M12.4487 21.8459C12.4487 21.8459 10.6278 20.2957 9.66693 19.1756C8.70075 18.0555 7.07629 16.2771 3.25404 12.7733C1.79415 11.4355 1.59773 11.6001 1.17834 11.5099C1.56588 11.2869 2.0702 11.4249 2.40465 11.7275L5.22356 14.2598C7.92037 16.6805 10.9569 20.3116 11.525 20.9275C11.6789 21.0973 12.0187 21.4318 12.4487 21.8459Z" fill="white"/>
<path d="M24.5419 20.4711C24.5419 19.988 24.5419 19.5049 24.5419 19.0218C24.1066 18.7192 23.8836 18.56 23.443 18.2415C22.8749 18.4007 22.3122 18.5441 21.7389 18.6821C21.5159 18.7352 21.4044 18.7564 21.1868 18.8042C20.6825 18.9103 20.4329 18.9634 19.9233 19.0484C19.7057 19.0855 19.5942 19.1068 19.3765 19.1386C18.9837 19.2023 18.7873 19.2289 18.3944 19.282C18.1714 19.3085 18.0547 19.3244 17.8317 19.351C17.5928 19.3775 17.476 19.3881 17.2371 19.4147C17.1628 19.5739 17.1309 19.6536 17.0566 19.8128C16.9823 19.6642 16.9505 19.5899 16.8761 19.4465C16.4143 19.4837 16.1807 19.4996 15.7135 19.5208C15.7135 19.627 15.7135 19.6801 15.7135 19.7863C15.6923 19.6801 15.6817 19.627 15.6604 19.5262C15.1136 19.5527 14.8376 19.558 14.2908 19.5633C14.2696 19.6695 14.259 19.7226 14.2377 19.8288C14.2377 19.7226 14.2377 19.6695 14.2377 19.5633C13.4361 19.5686 12.6398 19.5421 11.8382 19.489C11.8382 19.5262 11.8382 19.5421 11.8382 19.5739C11.801 19.5368 11.7798 19.5155 11.7373 19.4784C11.2595 19.4465 11.0207 19.4253 10.5429 19.3775C10.3146 19.3563 10.2031 19.3404 9.98015 19.3138C9.38027 19.2395 8.78039 19.1545 8.18582 19.0484C8.18582 19.0537 8.18582 19.0537 8.18582 19.059C8.18051 19.0537 8.18051 19.0537 8.1752 19.0484C7.68149 18.9634 7.43729 18.9157 6.9489 18.8095L6.94359 18.8148V18.8095C6.18445 18.6396 5.43592 18.4485 4.6874 18.2415C4.24678 18.56 4.02912 18.7192 3.5885 19.0218C3.5885 19.5049 3.5885 19.988 3.5885 20.4711C3.80616 20.5401 3.91233 20.5773 4.12999 20.641C4.12999 20.7206 4.12999 20.7631 4.12999 20.8427C4.00258 20.9276 3.93887 20.9648 3.81147 21.0497C3.93887 21.209 4.00258 21.2886 4.12999 21.4479C4.12999 22 4.12999 22.5468 4.12999 23.0989C4.60246 23.2422 5.08024 23.3803 5.55802 23.5024C5.55802 23.3059 5.55802 23.2051 5.55802 23.0033C5.78099 23.2582 5.89247 23.3856 6.11543 23.6404C6.66223 23.7731 6.93297 23.8315 7.47976 23.943C7.60717 23.8527 7.67619 23.8103 7.80359 23.72C7.931 23.858 7.99471 23.9271 8.12742 24.0651C8.66891 24.1606 8.93965 24.2031 9.48114 24.2774C9.48645 24.2721 9.49176 24.2721 9.49706 24.2668C9.49706 24.2721 9.49706 24.2774 9.49706 24.2827C10.1872 24.3783 10.8826 24.4473 11.5781 24.5004C11.9125 24.5269 12.0824 24.5376 12.4168 24.5535C12.8628 24.5747 13.0857 24.58 13.5317 24.5906C13.6431 24.5906 13.7015 24.5906 13.813 24.5959C14.3014 24.6013 14.5403 24.5959 15.0287 24.5853C15.0553 24.4632 15.0659 24.4048 15.0871 24.2827C15.1136 24.4048 15.1243 24.4632 15.1455 24.58C15.4534 24.5694 15.6074 24.5641 15.91 24.5482C16.2019 24.5322 16.3453 24.5216 16.6372 24.5004C16.9292 24.4792 17.0779 24.4632 17.3698 24.4367C17.4017 24.4314 17.4229 24.4314 17.4495 24.4314C17.7839 24.3995 17.9485 24.3783 18.2829 24.3358C18.5324 24.304 18.6598 24.288 18.9147 24.2509C19.3553 24.1872 19.5729 24.15 20.0136 24.0757C20.2631 24.0332 20.3905 24.0067 20.6347 23.9589C21.1602 23.858 21.6911 23.7412 22.2114 23.6085C22.36 23.5714 22.4343 23.5501 22.583 23.513C23.0607 23.3909 23.5385 23.2529 24.011 23.1095C24.011 22.5574 24.011 22.0106 24.011 21.4585C24.1384 21.2993 24.1968 21.2196 24.3242 21.0604C24.1968 20.9807 24.1384 20.9383 24.011 20.8533C24.011 20.7737 24.011 20.7312 24.011 20.6463C24.218 20.5773 24.3242 20.5401 24.5419 20.4711Z" fill="#003D6C"/>
<path d="M5.65357 20.6252C5.43591 20.5668 5.32443 20.5402 5.10677 20.4818C5.10677 20.8163 5.10677 20.9862 5.10677 21.3259C5.15455 21.3843 5.17579 21.4108 5.21826 21.4639C5.17048 21.4958 5.14924 21.5117 5.10677 21.5383C5.10677 22.0957 5.10677 22.377 5.10677 22.9397C4.88912 22.8814 4.77764 22.8495 4.55998 22.7858C4.55998 22.2284 4.55998 21.947 4.55998 21.3843C4.5122 21.3259 4.49097 21.2994 4.44319 21.241C4.49097 21.2091 4.5122 21.1932 4.55998 21.1666C4.55998 20.8322 4.55998 20.6623 4.55998 20.3226C4.34232 20.2589 4.23615 20.227 4.01849 20.158C4.01849 19.935 4.01849 19.8236 4.01849 19.6006C4.55998 19.7652 5.10677 19.9191 5.65357 20.0624C5.65357 20.296 5.65357 20.4075 5.65357 20.6252Z" fill="white"/>
<path d="M7.66029 23.2208C7.51695 23.3217 7.44794 23.3695 7.3046 23.465C6.89053 23.3801 6.68349 23.3376 6.27472 23.2368C6.13139 23.0775 6.06237 22.9979 5.92435 22.8386C5.92435 22.4033 5.92435 22.1856 5.92435 21.7556C5.87657 21.7026 5.85533 21.676 5.80756 21.6176C5.85533 21.5858 5.87657 21.5698 5.92435 21.538C5.92435 21.1027 5.92435 20.8903 5.92435 20.455C6.06237 20.3648 6.13669 20.317 6.27472 20.2214C6.68349 20.317 6.89053 20.3648 7.3046 20.4497C7.44794 20.6037 7.51695 20.6833 7.66029 20.8372C7.66029 21.2726 7.66029 21.4849 7.66029 21.9202C7.70806 21.9733 7.7293 21.9998 7.77708 22.0529C7.7293 22.0848 7.70806 22.106 7.66029 22.1379C7.66029 22.5679 7.66029 22.7855 7.66029 23.2208ZM7.10818 22.0264C7.0604 21.9733 7.03917 21.9468 6.99139 21.8937C7.03917 21.8618 7.0604 21.8406 7.10818 21.8087C7.10818 21.4743 7.10818 21.3044 7.10818 20.9647C6.85337 20.9116 6.73127 20.885 6.47645 20.8266C6.47645 21.1611 6.47645 21.3309 6.47645 21.6707C6.52423 21.7238 6.54546 21.7503 6.59324 21.8087C6.54546 21.8406 6.52423 21.8565 6.47645 21.8884C6.47645 22.2228 6.47645 22.3927 6.47645 22.7324C6.73127 22.7908 6.85337 22.8174 7.10818 22.8705C7.10818 22.5307 7.10818 22.3608 7.10818 22.0264Z" fill="white"/>
<path d="M9.67225 23.5395C9.5236 23.6457 9.45459 23.6988 9.30595 23.8049C8.89718 23.7466 8.69545 23.7147 8.28668 23.6457C8.14335 23.497 8.07433 23.4174 7.931 23.2688C7.931 22.8335 7.931 22.6158 7.931 22.1858C7.88322 22.1327 7.86199 22.1062 7.81421 22.0584C7.86199 22.0212 7.88322 22.0053 7.931 21.9681C7.931 21.4107 7.931 21.1294 7.931 20.5667C8.15396 20.6091 8.26545 20.625 8.48841 20.6622C8.48841 21.2196 8.48841 21.501 8.48841 22.0637C8.53619 22.1168 8.55742 22.1433 8.6052 22.1911C8.55742 22.2283 8.53619 22.2442 8.48841 22.2814C8.48841 22.6158 8.48841 22.7857 8.48841 23.1254C8.73792 23.1679 8.86533 23.1891 9.11484 23.2263C9.11484 22.8919 9.11484 22.722 9.11484 22.3822C9.06706 22.3344 9.04582 22.3079 8.99804 22.2548C9.04582 22.2176 9.06706 22.2017 9.11484 22.1646C9.11484 21.6072 9.11484 21.3258 9.11484 20.7631C9.3378 20.7949 9.44928 20.8108 9.67225 20.8427C9.67225 21.4001 9.67225 21.6815 9.67225 22.2442C9.72003 22.292 9.74126 22.3185 9.78904 22.3663C9.74126 22.4035 9.72003 22.4194 9.67225 22.4565C9.67225 22.8919 9.67225 23.1095 9.67225 23.5395Z" fill="white"/>
<path d="M9.93771 22.4937C9.88994 22.4459 9.8687 22.4193 9.82092 22.3716C9.8687 22.3344 9.88994 22.3132 9.93771 22.276C9.93771 22.3609 9.93771 22.4087 9.93771 22.4937ZM11.748 24.065C11.5091 24.0491 11.387 24.0385 11.1428 24.0173C10.9517 23.5076 10.8561 23.2528 10.665 22.7432C10.596 22.7379 10.5641 22.7326 10.5004 22.7272C10.5004 23.2209 10.5004 23.4651 10.5004 23.9535C10.2775 23.9323 10.1607 23.9164 9.93771 23.8898C9.93771 22.8865 9.93771 21.8779 9.93771 20.8745C10.4739 20.9382 10.7446 20.9701 11.2861 21.0125C11.4295 21.1506 11.5038 21.2196 11.6471 21.3576C11.6471 21.7982 11.6471 22.0212 11.6471 22.4671C11.4932 22.5998 11.4188 22.6635 11.2649 22.7909C11.456 23.3006 11.5516 23.5554 11.748 24.065ZM10.5004 22.1698C10.734 22.1964 10.8508 22.207 11.0844 22.2282C11.0844 21.9575 11.0844 21.8248 11.0844 21.554C10.8508 21.5328 10.734 21.5222 10.5004 21.4956C10.5004 21.7664 10.5004 21.8991 10.5004 22.1698Z" fill="white"/>
<path d="M13.1972 24.134C12.9902 23.6032 12.7885 23.067 12.5814 22.5308C12.5814 23.0564 12.5814 23.5819 12.5814 24.1075C12.3585 24.0969 12.247 24.0916 12.0187 24.0809C12.0187 23.5235 12.0187 23.2422 12.0187 22.6795C11.9709 22.6317 11.9497 22.6104 11.9019 22.5627C11.9497 22.5202 11.9709 22.499 12.0187 22.4618C12.0187 21.9044 12.0187 21.623 12.0187 21.0603C12.2576 21.0762 12.3797 21.0815 12.6239 21.0922C12.8309 21.6283 13.0327 22.1592 13.2397 22.6954C13.2397 22.1698 13.2397 21.6389 13.2397 21.1134C13.4627 21.1187 13.5742 21.1187 13.7971 21.124C13.7971 21.6814 13.7971 21.9628 13.7971 22.5255C13.8449 22.568 13.8661 22.5892 13.9139 22.637C13.8661 22.6795 13.8449 22.7007 13.7971 22.7432C13.7971 23.3006 13.7971 23.5819 13.7971 24.1393C13.7971 24.1393 13.7971 24.1393 13.7971 24.1446C13.5582 24.1393 13.4361 24.1393 13.1972 24.134Z" fill="white"/>
<path d="M15.5118 24.1128C15.4587 23.8474 15.4321 23.7147 15.3737 23.4492C15.1402 23.4598 15.0181 23.4598 14.7845 23.4651C14.7314 23.7359 14.7049 23.8686 14.6465 24.1393C14.4182 24.1447 14.3014 24.1447 14.0731 24.1447C14.2748 23.136 14.4819 22.1327 14.6836 21.124C15.0021 21.1187 15.1614 21.1134 15.4746 21.1028C15.6763 22.0955 15.8781 23.0935 16.0851 24.0863C15.8568 24.0969 15.74 24.1022 15.5118 24.1128ZM15.2623 22.8971C15.1879 22.5414 15.1508 22.3609 15.0818 22C15.0074 22.3609 14.9703 22.5467 14.9013 22.9077C15.0446 22.9024 15.1136 22.9024 15.2623 22.8971Z" fill="white"/>
<path d="M18.4581 23.858C18.2351 23.8899 18.1183 23.9005 17.8954 23.9271C17.8954 23.359 17.8954 22.7963 17.8954 22.2283C17.699 22.6636 17.6034 22.8812 17.407 23.3166C17.2106 22.9237 17.115 22.722 16.9186 22.3238C16.9186 22.8919 16.9186 23.4546 16.9186 24.0226C16.6956 24.0438 16.5788 24.0492 16.3559 24.0651C16.3559 23.5077 16.3559 23.2263 16.3559 22.6636C16.3081 22.6264 16.2869 22.6052 16.2391 22.5627C16.2869 22.5149 16.3081 22.4937 16.3559 22.4459C16.3559 21.8885 16.3559 21.6072 16.3559 21.0444C16.5788 21.0285 16.6956 21.0232 16.9186 21.002C17.115 21.4001 17.2106 21.5965 17.407 21.9947C17.6034 21.5594 17.699 21.3417 17.8954 20.9064C18.1183 20.8799 18.2351 20.8693 18.4581 20.8374C18.4581 21.3948 18.4581 21.6762 18.4581 22.2389C18.5059 22.2761 18.5271 22.2973 18.5749 22.3344C18.5271 22.3822 18.5059 22.4088 18.4581 22.4566C18.4581 23.0193 18.4581 23.3006 18.4581 23.858Z" fill="white"/>
<path d="M20.1834 23.5873C19.7003 23.6775 19.2119 23.7572 18.7289 23.8209C18.7289 23.2635 18.7289 22.9821 18.7289 22.4194C18.6811 22.3822 18.6598 22.3663 18.6121 22.3291C18.6598 22.2814 18.6811 22.2548 18.7289 22.2017C18.7289 21.6443 18.7289 21.363 18.7289 20.8002C19.2119 20.7365 19.695 20.6569 20.1728 20.5667C20.1728 20.7896 20.1728 20.9011 20.1728 21.1241C19.8171 21.1878 19.6419 21.2196 19.2863 21.2727C19.2863 21.5434 19.2863 21.6762 19.2863 21.9469C19.5942 21.8991 19.7428 21.8726 20.0507 21.8195C20.0507 22.0425 20.0507 22.1539 20.0507 22.3769C19.7481 22.43 19.5942 22.4565 19.2863 22.5043C19.2863 22.7751 19.2863 22.9078 19.2863 23.1785C19.6473 23.1201 19.8277 23.0936 20.1834 23.0246C20.1834 23.2528 20.1834 23.3643 20.1834 23.5873Z" fill="white"/>
<path d="M21.6115 23.2953C21.4098 22.8122 21.208 22.3291 21.0063 21.846C21.0063 22.3716 21.0063 22.8971 21.0063 23.4227C20.7833 23.4704 20.6772 23.4917 20.4542 23.5342C20.4542 22.9767 20.4542 22.6954 20.4542 22.1327C20.4064 22.1008 20.3852 22.0796 20.3374 22.0477C20.3852 21.9946 20.4064 21.9681 20.4542 21.915C20.4542 21.3576 20.4542 21.0762 20.4542 20.5135C20.6931 20.4657 20.8099 20.4445 21.0488 20.3914C21.2505 20.8745 21.4522 21.3576 21.654 21.8407C21.654 21.3151 21.654 20.7843 21.654 20.2587C21.8716 20.2056 21.9831 20.1844 22.2007 20.126C22.2007 20.6834 22.2007 20.9647 22.2007 21.5275C22.2485 21.5593 22.2698 21.5752 22.3175 21.6071C22.2698 21.6602 22.2485 21.6867 22.2007 21.7451C22.2007 22.3025 22.2007 22.5839 22.2007 23.1413C22.2007 23.1413 22.2007 23.1413 22.2007 23.1466C21.9672 23.2103 21.8451 23.2369 21.6115 23.2953Z" fill="white"/>
<path d="M24.1013 20.1633C23.8836 20.2323 23.7774 20.2642 23.5598 20.3279C23.5598 20.6623 23.5598 20.8322 23.5598 21.172C23.6076 21.2038 23.6288 21.2197 23.6713 21.2463C23.6235 21.3047 23.6022 21.3312 23.5598 21.3843C23.5598 21.9417 23.5598 22.2231 23.5598 22.7858C23.3421 22.8495 23.2306 22.8814 23.013 22.9397C23.013 22.3823 23.013 22.101 23.013 21.5383C22.9652 21.5064 22.944 21.4905 22.8962 21.4639C22.944 21.4055 22.9652 21.379 23.013 21.3206C23.013 20.9862 23.013 20.8163 23.013 20.4765C22.7953 20.5349 22.6838 20.5668 22.4662 20.6199C22.4662 20.3969 22.4662 20.2854 22.4662 20.0624C23.013 19.9191 23.5598 19.7652 24.1013 19.6006C24.1013 19.8289 24.1013 19.9403 24.1013 20.1633Z" fill="white"/>
<path d="M14.0914 5.7419C15.5207 5.47389 16.4622 4.0979 16.1942 2.66854C15.9261 1.23919 14.5502 0.29773 13.1208 0.565744C11.6914 0.833758 10.75 2.20975 11.018 3.63911C11.286 5.06846 12.662 6.00992 14.0914 5.7419Z" fill="#003D6C"/>
<path d="M15.1809 4.7299C16.0516 3.85918 16.0516 2.44746 15.1809 1.57674C14.3101 0.706015 12.8984 0.706015 12.0277 1.57674C11.157 2.44746 11.157 3.85918 12.0277 4.7299C12.8984 5.60063 14.3101 5.60063 15.1809 4.7299Z" fill="#C4DBE7"/>
<path d="M12.8522 1.05738C12.1568 1.30689 11.6578 1.86961 11.4667 2.52789C11.4773 2.57035 11.4932 2.60752 11.5038 2.64998C11.9179 3.81259 13.1973 4.41247 14.3546 3.99839C15.05 3.74888 15.5491 3.18616 15.7402 2.52789C15.7295 2.48542 15.7136 2.44825 15.703 2.40579C15.2889 1.24318 14.0095 0.637994 12.8522 1.05738Z" fill="white"/>
<path d="M15.3632 1.78487C15.2464 1.63623 15.1137 1.50351 14.9704 1.39203C14.5669 1.89635 14.1582 2.61302 14.1688 3.46772C14.1741 4.02513 14.3599 4.56662 14.7262 5.08687C14.8854 4.99131 15.0341 4.87983 15.1615 4.75242C14.8695 4.33304 14.7209 3.89773 14.7156 3.46241C14.7049 2.79352 15.0288 2.20956 15.3632 1.78487ZM11.8489 1.77956C12.1833 2.20956 12.5072 2.79352 12.4965 3.4571C12.4912 3.89773 12.3373 4.32773 12.0453 4.75242C12.178 4.87983 12.3267 4.99131 12.4806 5.08156C12.8469 4.56662 13.0327 4.01982 13.0433 3.46241C13.0539 2.60772 12.6452 1.88573 12.2417 1.38672C12.0931 1.50351 11.9604 1.63623 11.8489 1.77956Z" fill="#C4DBE7"/>
<path d="M12.9849 4.13108C12.8522 4.16293 12.7301 4.19478 12.5974 4.21071L12.6186 4.34873C12.746 4.33281 12.8788 4.31157 13.0115 4.28503C13.0486 4.27441 13.0752 4.23194 13.0699 4.18947C13.0646 4.14169 13.0221 4.12046 12.9849 4.13108ZM12.2895 2.9844C12.2789 3.01625 12.2948 3.04811 12.332 3.05341C12.3957 3.06934 12.4541 3.08527 12.5178 3.10119C12.5815 3.11712 12.6399 3.13835 12.6983 3.1649C12.7142 3.12243 12.7354 3.07996 12.746 3.03749C12.6186 2.99502 12.4965 2.96317 12.3744 2.93662C12.3373 2.93131 12.3001 2.95255 12.2895 2.9844ZM12.2152 4.21071C12.3054 4.30095 12.3904 4.39651 12.47 4.49738C12.5072 4.47083 12.5443 4.44429 12.5815 4.41244C12.4965 4.31157 12.4063 4.21602 12.316 4.13108C12.2895 4.10453 12.247 4.10453 12.2205 4.12577C12.1886 4.147 12.1886 4.18416 12.2152 4.21071ZM12.2789 2.6181C12.2417 2.6181 12.2046 2.63934 12.1992 2.6765C12.1939 2.70835 12.2152 2.7402 12.2523 2.7402C12.316 2.74551 12.3797 2.75613 12.4434 2.76675C12.5072 2.77736 12.5709 2.78798 12.6346 2.80391C12.6452 2.76144 12.6558 2.71366 12.6664 2.67119C12.5337 2.64465 12.4063 2.62872 12.2789 2.6181ZM12.8522 4.53454C12.7195 4.55046 12.5868 4.55577 12.4541 4.56108C12.4541 4.60886 12.4594 4.65664 12.4541 4.69911C12.5868 4.70441 12.7142 4.69911 12.8469 4.68849C12.8841 4.68318 12.9212 4.64602 12.9212 4.60355C12.9265 4.56108 12.8894 4.52923 12.8522 4.53454ZM12.4541 2.11909C12.5284 2.01291 12.6027 1.90143 12.6664 1.78464C12.6876 1.75279 12.6717 1.70501 12.6399 1.68377C12.6027 1.66254 12.5602 1.67316 12.5443 1.70501C12.4806 1.8218 12.4116 1.93328 12.3426 2.03946L12.4541 2.11909ZM12.2895 1.86427C12.1621 1.87489 12.0294 1.89612 11.9073 1.91736C11.8701 1.92266 11.8436 1.95983 11.8436 1.99168C11.8436 2.02884 11.8754 2.05007 11.9126 2.04476C12.04 2.02353 12.1674 2.01291 12.2948 2.00229L12.2895 1.86427ZM12.47 2.33143L12.4753 2.19341C12.3479 2.1881 12.2152 2.19872 12.0878 2.20402C12.0506 2.20933 12.0188 2.23588 12.0188 2.27304C12.0188 2.3102 12.0453 2.33143 12.0825 2.33143C12.2099 2.32612 12.3373 2.32612 12.47 2.33143ZM12.178 4.44429C12.1515 4.41244 12.109 4.40713 12.0825 4.42305C12.0559 4.43898 12.0453 4.47614 12.0718 4.50799C12.1462 4.60886 12.2205 4.71503 12.2895 4.82651L12.4063 4.7575C12.3373 4.64602 12.263 4.54515 12.178 4.44429ZM12.4381 1.43957C12.4541 1.40241 12.4381 1.35994 12.401 1.33871C12.3638 1.32278 12.3213 1.3334 12.3054 1.37056C12.2523 1.49266 12.1939 1.60945 12.1355 1.72624C12.178 1.74748 12.2152 1.76871 12.2576 1.78995C12.3213 1.67316 12.3851 1.55637 12.4381 1.43957ZM12.5921 5.02824C12.5125 5.02294 12.4328 5.01763 12.3585 5.00701C12.4434 5.0654 12.5284 5.11318 12.6239 5.16096C12.6399 5.15034 12.6558 5.12911 12.6611 5.10787C12.6611 5.0601 12.6346 5.02824 12.5921 5.02824ZM12.7301 3.92935C12.6239 3.84972 12.5231 3.77539 12.4169 3.70638C12.3851 3.68515 12.3426 3.69046 12.3213 3.717C12.3001 3.74354 12.3054 3.77539 12.3373 3.79663C12.3904 3.83379 12.4434 3.87095 12.4965 3.90811C12.5443 3.94527 12.5974 3.98774 12.6452 4.03021C12.6664 3.99836 12.7036 3.9612 12.7301 3.92935ZM13.1654 3.60552C13.1495 3.56305 13.107 3.54712 13.0752 3.56836C12.9531 3.62675 12.8363 3.67984 12.7142 3.72762L12.7567 3.85503C12.8788 3.81786 13.0115 3.77009 13.1283 3.71169C13.1654 3.69576 13.1814 3.64799 13.1654 3.60552ZM12.6558 2.58625C12.7036 2.53847 12.746 2.49069 12.7885 2.44292C12.831 2.39514 12.8735 2.34205 12.9159 2.28896C12.9425 2.25711 12.9372 2.20933 12.9053 2.18279C12.8735 2.15625 12.831 2.16156 12.8044 2.19341C12.7248 2.29958 12.6399 2.40045 12.5549 2.496C12.5868 2.52255 12.6186 2.5544 12.6558 2.58625ZM12.7514 2.96317C12.8044 2.9207 12.8575 2.88354 12.9053 2.83576C12.9531 2.79329 13.0009 2.74551 13.0486 2.69773C13.0752 2.67119 13.0752 2.6181 13.0486 2.58625C13.0221 2.5544 12.9743 2.5544 12.9478 2.58094C12.8575 2.6765 12.7567 2.76675 12.6611 2.85168C12.6983 2.88884 12.7248 2.92601 12.7514 2.96317ZM12.4328 3.37724C12.401 3.36132 12.3585 3.37724 12.3373 3.40379C12.3213 3.43033 12.332 3.46749 12.3691 3.48342C12.4806 3.5365 12.5921 3.5949 12.7036 3.66391L12.7779 3.54712C12.6664 3.48342 12.5443 3.42502 12.4328 3.37724ZM12.7301 3.3507L12.7938 3.4728C12.9106 3.4144 13.0221 3.3507 13.1389 3.27638C13.1707 3.25514 13.1814 3.20737 13.1601 3.1649C13.1389 3.12774 13.0964 3.11712 13.0646 3.13835C12.9531 3.21798 12.8469 3.287 12.7301 3.3507Z" fill="#ED232F"/>
<path d="M14.1422 4.18407C14.1369 4.22654 14.1582 4.269 14.2006 4.27962C14.3333 4.31147 14.4661 4.33271 14.5935 4.34333L14.6147 4.2053C14.482 4.18937 14.3599 4.15752 14.2272 4.12567C14.1847 4.12036 14.1475 4.1416 14.1422 4.18407ZM14.8324 2.94183C14.7103 2.96838 14.5882 3.00023 14.4608 3.0427C14.4714 3.08517 14.4926 3.12764 14.5085 3.17011C14.5669 3.14887 14.6306 3.12764 14.689 3.1064C14.7527 3.09048 14.8111 3.06924 14.8748 3.05863C14.912 3.04801 14.9279 3.02146 14.9173 2.98961C14.9067 2.95245 14.8695 2.93122 14.8324 2.94183ZM14.9969 4.12567C14.9704 4.10444 14.9279 4.10974 14.9014 4.13098C14.8111 4.21592 14.7209 4.31147 14.6359 4.41234C14.6731 4.43888 14.7103 4.47073 14.7474 4.49728C14.8271 4.39641 14.9067 4.30086 15.0022 4.21061C15.0235 4.18407 15.0235 4.14691 14.9969 4.12567ZM14.5457 2.66578C14.551 2.70825 14.5669 2.75603 14.5775 2.7985C14.6412 2.78257 14.705 2.77196 14.7687 2.76134C14.8324 2.75072 14.8961 2.74541 14.9598 2.7348C14.9969 2.72949 15.0235 2.70294 15.0129 2.67109C15.0022 2.63924 14.9704 2.6127 14.9332 2.6127C14.8058 2.62862 14.6784 2.64455 14.5457 2.66578ZM14.2856 4.59814C14.2856 4.64061 14.3174 4.67777 14.3599 4.68308C14.4926 4.6937 14.62 4.69901 14.7527 4.6937C14.7474 4.65123 14.7527 4.60345 14.7527 4.55567C14.6253 4.55567 14.4926 4.54506 14.3546 4.52913C14.3174 4.52913 14.2856 4.56098 14.2856 4.59814ZM14.8695 2.04467C14.7952 1.93849 14.7315 1.82701 14.6678 1.71022C14.6466 1.67306 14.6041 1.66244 14.5722 1.68899C14.5351 1.71022 14.5245 1.758 14.5457 1.78985C14.6094 1.90664 14.6837 2.01812 14.758 2.1243L14.8695 2.04467ZM14.9173 1.99689C15.05 2.00751 15.1721 2.01812 15.2995 2.03936C15.3367 2.04467 15.3685 2.02343 15.3685 1.98627C15.3685 1.94911 15.342 1.91726 15.3048 1.91195C15.1774 1.89072 15.05 1.87479 14.9226 1.85886L14.9173 1.99689ZM15.1243 2.33664C15.1615 2.33664 15.1934 2.31541 15.188 2.27825C15.188 2.24109 15.1562 2.21455 15.119 2.20924C14.9916 2.19862 14.8589 2.19331 14.7315 2.19862L14.7368 2.33664C14.8748 2.32603 15.0022 2.32603 15.1243 2.33664ZM14.8058 4.7574L14.9226 4.82642C14.9916 4.71493 15.0659 4.60876 15.1403 4.5079C15.1615 4.47604 15.1562 4.43888 15.1296 4.42296C15.1031 4.40703 15.0606 4.41234 15.0341 4.44419C14.9492 4.54506 14.8748 4.64592 14.8058 4.7574ZM14.9545 1.78985C14.9969 1.76862 15.0341 1.74738 15.0766 1.72615C15.0182 1.61466 14.9598 1.49256 14.9067 1.37046C14.8908 1.3333 14.8483 1.31738 14.8111 1.33861C14.774 1.35985 14.758 1.40232 14.774 1.43948C14.8271 1.55627 14.8908 1.67306 14.9545 1.78985ZM14.551 5.10247C14.5563 5.1237 14.5669 5.14494 14.5882 5.15555C14.6784 5.11309 14.7687 5.06 14.8536 5.0016C14.774 5.01222 14.6943 5.01753 14.62 5.02284C14.5775 5.02815 14.551 5.06 14.551 5.10247ZM14.5722 4.03011C14.62 3.98764 14.6678 3.94518 14.7209 3.90801C14.774 3.87085 14.8271 3.83369 14.8801 3.79653C14.912 3.7753 14.9173 3.73814 14.8961 3.7169C14.8748 3.69036 14.8271 3.68505 14.8005 3.70628C14.6943 3.76999 14.5882 3.84431 14.4873 3.92925C14.5085 3.9611 14.5457 3.99826 14.5722 4.03011ZM14.0838 3.71159C14.2006 3.76999 14.3333 3.81246 14.4554 3.85493L14.4979 3.72752C14.3758 3.68505 14.259 3.63196 14.1369 3.56826C14.0998 3.55233 14.0573 3.56826 14.0467 3.60542C14.0308 3.64789 14.0467 3.69567 14.0838 3.71159ZM14.6572 2.49591C14.5722 2.40035 14.4873 2.29948 14.4077 2.19331C14.3864 2.16146 14.3387 2.15615 14.3068 2.18269C14.2749 2.20924 14.2696 2.26232 14.2962 2.28887C14.3387 2.34195 14.3811 2.38973 14.4236 2.44282C14.4661 2.4906 14.5138 2.54368 14.5563 2.58615C14.5882 2.5543 14.62 2.52245 14.6572 2.49591ZM14.5457 2.8569C14.4501 2.77196 14.3493 2.68171 14.259 2.58615C14.2325 2.55961 14.1847 2.55961 14.1582 2.59146C14.1316 2.62331 14.1316 2.6764 14.1582 2.70294C14.2059 2.75072 14.2537 2.79319 14.3015 2.84097C14.3493 2.88344 14.4024 2.92591 14.4554 2.96838C14.4873 2.92591 14.5138 2.88875 14.5457 2.8569ZM14.4342 3.54702L14.5085 3.66382C14.62 3.5948 14.7315 3.5311 14.843 3.48332C14.8801 3.46739 14.8908 3.43554 14.8748 3.40369C14.8589 3.37715 14.8164 3.36122 14.7793 3.37715C14.6625 3.42492 14.5404 3.48332 14.4342 3.54702ZM14.1475 3.13826C14.1157 3.11702 14.0732 3.12233 14.052 3.1648C14.0308 3.20196 14.0414 3.24974 14.0732 3.27628C14.19 3.3506 14.3015 3.41962 14.4183 3.4727L14.482 3.3506C14.3652 3.2869 14.259 3.21789 14.1475 3.13826Z" fill="#ED232F"/>
<path d="M11.748 1.43423C12.1408 1.86423 12.6558 2.59683 12.6452 3.46214C12.6398 4.00894 12.4222 4.54511 12.0028 5.05475C12.0771 5.09722 12.1514 5.13968 12.2258 5.17685C12.6611 4.63005 12.884 4.05671 12.8947 3.46214C12.9053 2.5172 12.3744 1.74213 11.955 1.28027C11.8807 1.33336 11.817 1.38114 11.748 1.43423Z" fill="#003D6C"/>
<path d="M15.4588 1.43423C15.0659 1.86423 14.551 2.59683 14.5616 3.46214C14.5669 4.00894 14.7846 4.54511 15.204 5.05475C15.1296 5.09722 15.0553 5.13968 14.981 5.17685C14.5457 4.63005 14.3227 4.05671 14.3121 3.46214C14.3015 2.5172 14.8324 1.74213 15.2517 1.28027C15.3261 1.33336 15.3951 1.38114 15.4588 1.43423Z" fill="#003D6C"/>
<path d="M18.6598 15.8737V15.7994C18.6545 15.534 18.6439 15.2526 18.6014 14.9713C18.5695 14.7695 18.5164 14.5731 18.4527 14.382L18.4474 14.3661L18.4421 14.3502C18.3359 14.1006 18.2351 13.9042 18.1183 13.729C17.9537 13.4742 17.7467 13.2194 17.4706 12.9168C16.5469 11.9241 15.4958 11.2711 14.3438 10.9845C13.8607 10.8624 13.3883 10.804 12.9476 10.804C12.4274 10.804 11.9602 10.8889 11.5515 11.0588L11.5355 11.0641L11.5196 11.0747C11.1745 11.2552 10.8613 11.5047 10.5587 11.8232C10.2827 12.1152 9.96947 12.4656 9.71996 12.8531L9.60317 13.0389L9.55008 13.0442C9.50761 13.0495 9.45983 13.0548 9.39613 13.0548C9.32181 13.0548 9.23687 13.0495 9.15724 13.0442L9.06699 13.0389C8.94489 13.0336 8.8281 13.023 8.706 13.0124C8.60513 13.0071 8.50427 12.9964 8.39809 12.9911C8.25476 12.9805 8.13266 12.9805 8.01056 12.9805H7.94686C7.84599 12.9805 7.76105 12.9858 7.68673 12.9964C7.30451 13.0548 7.20895 13.5645 7.5434 13.7609C8.85464 14.9607 10.5534 15.8684 10.5534 15.8684C10.5003 15.9215 10.4419 15.9746 10.3889 16.0383C10.1181 16.3303 10.0332 16.6754 9.9907 16.9089C9.88983 17.4982 9.94292 18.0662 10.1447 18.5599C10.2933 18.9209 10.5322 19.2448 10.8826 19.5474L10.994 19.6535H11.0365C11.3869 19.8765 11.7638 20.0464 12.0982 20.1844L12.1036 20.1897L12.1248 20.2003C12.3796 20.2906 12.6344 20.3702 12.8839 20.4392C13.1016 20.4976 13.3192 20.5242 13.5316 20.5242C13.9085 20.5242 14.2748 20.4339 14.6039 20.2587C14.6305 20.2481 14.6517 20.2322 14.673 20.2216L14.6889 20.2109C14.7101 20.2003 14.726 20.1897 14.7473 20.1738C14.8322 20.1207 14.9172 20.0623 14.9968 19.9986L15.3312 19.9614C15.6444 19.9243 15.9099 19.8818 16.1594 19.8287C16.4195 19.7703 16.6849 19.7066 16.9398 19.627C17.0619 19.5898 17.184 19.542 17.3326 19.4783L17.4175 19.4412L17.4813 19.3722C17.7892 19.0324 18.0334 18.6077 18.2404 18.0768C18.4209 17.6097 18.5961 17.1054 18.6492 16.5745C18.6704 16.3356 18.6651 16.102 18.6598 15.8737Z" fill="#003D6C"/>
<path d="M18.2456 15.8049C18.2403 15.5501 18.235 15.2899 18.1925 15.0351C18.166 14.8599 18.1182 14.6847 18.0598 14.5096C17.9749 14.3184 17.8846 14.1326 17.7678 13.9521C17.5926 13.6814 17.3803 13.4319 17.1626 13.1983C16.361 12.3383 15.3842 11.6694 14.2376 11.3827C13.4466 11.1863 12.4857 11.112 11.7 11.4358C11.3815 11.6057 11.1001 11.834 10.8506 12.1047C10.5693 12.4073 10.2826 12.7258 10.0596 13.0762C10.4843 13.3576 11.6416 14.0105 11.9495 14.6263C11.9548 14.6263 11.9495 14.637 11.9495 14.637C11.6575 14.3821 10.633 13.692 9.59246 13.4531C9.41197 13.4744 9.21554 13.4584 9.04036 13.4478C8.81739 13.4372 8.59443 13.416 8.37146 13.4C8.24936 13.3947 8.13257 13.3894 8.01047 13.3894C7.93615 13.3894 7.90961 13.4903 7.97331 13.5275C8.35554 13.7345 8.74838 13.9256 9.14653 14.0902C9.85259 14.3821 10.5799 14.6157 11.3231 14.8068C11.339 14.8122 11.3603 14.8175 11.3815 14.8228C11.424 14.8334 11.4664 14.844 11.5142 14.8546C11.5195 14.8546 11.5248 14.8546 11.5301 14.8599C11.9761 14.9714 12.4273 15.067 12.8785 15.1519C13.489 15.2687 14.1632 15.3696 14.6941 15.704C15.14 15.9801 15.4373 16.4101 15.6019 16.9038C15.6019 16.9091 15.5966 16.9091 15.5913 16.9038C15.586 16.8932 15.5807 16.8825 15.5753 16.8719C15.3311 16.5375 14.5083 15.8473 13.4306 15.6509C12.6503 15.5129 11.8805 15.3589 11.4824 15.2581C11.4399 15.3696 11.3815 15.4757 11.3178 15.5819C11.3019 15.6085 11.2859 15.6297 11.27 15.6562C11.2116 15.7412 11.1479 15.8261 11.0895 15.9004C10.9727 16.0491 10.8241 16.1712 10.6967 16.3145C10.5215 16.5003 10.4472 16.7286 10.4047 16.9781C10.3251 17.4506 10.3516 17.9549 10.5321 18.4008C10.6701 18.7406 10.8931 19.006 11.1638 19.2396C11.4983 19.4732 11.8858 19.6431 12.268 19.8076H12.2733C12.5122 19.8926 12.7511 19.9722 12.9953 20.0306C13.489 20.158 13.9774 20.1208 14.4234 19.8819C14.4446 19.8713 14.4658 19.8554 14.4924 19.8448C14.5083 19.8342 14.5242 19.8289 14.5348 19.8182C14.6251 19.7652 14.71 19.7014 14.7897 19.6324C14.8056 19.6165 14.8215 19.6059 14.8374 19.59C15.0976 19.3617 15.2993 19.075 15.4532 18.7618C15.6656 18.3265 15.8886 17.7001 15.6815 17.2276C15.6762 17.217 15.6921 17.2064 15.6974 17.217C15.7081 17.2329 16.446 18.1619 15.5435 19.5103C15.8089 19.4785 15.8089 19.4732 16.0691 19.4148C16.3186 19.3617 16.5681 19.298 16.8123 19.2237C16.9344 19.1865 17.0512 19.1387 17.1679 19.0909C17.4705 18.7512 17.6829 18.3477 17.8528 17.923C18.0226 17.4771 18.1872 17.0046 18.235 16.5322C18.2615 16.2986 18.2509 16.0491 18.2456 15.8049Z" fill="#ED232F"/>
<path d="M14.1634 17.594C14.1634 17.5728 14.1581 17.5568 14.1528 17.5356C14.089 17.4082 13.9882 17.2967 13.8448 17.2277L13.8183 17.2171L13.7281 17.1746L13.176 16.9092C12.8521 16.7552 12.4646 16.8932 12.3106 17.2171L12.2629 17.3126C12.1992 17.4507 12.1832 17.5993 12.2151 17.7373C12.2257 17.7533 12.231 17.7692 12.2416 17.7851C12.2947 17.955 12.4221 18.1089 12.5973 18.1939L13.2131 18.4859C13.5529 18.6451 13.9563 18.5018 14.1209 18.162L14.1421 18.1196C14.2271 17.9497 14.2271 17.7639 14.1634 17.594Z" fill="#A3121B"/>
<path d="M13.85 17.2331L13.1811 16.9145C12.8573 16.7606 12.4698 16.8986 12.3158 17.2224L12.2681 17.318C12.2415 17.3711 12.2256 17.4242 12.215 17.4773C12.2627 17.6578 12.3848 17.817 12.5653 17.9073L13.1493 18.1833C13.4731 18.3373 13.8607 18.1992 14.0146 17.8754L14.0412 17.817C14.0995 17.6949 14.1155 17.5622 14.0942 17.4348C14.0305 17.3499 13.9509 17.2808 13.85 17.2331Z" fill="#003D6C"/>
<path d="M9.03511 13.4529C8.81214 13.4423 8.58918 13.4211 8.36621 13.4052C8.24412 13.3999 8.12732 13.3946 8.00522 13.3946C7.9309 13.3946 7.90436 13.4954 7.96806 13.5326C8.04769 13.575 8.13263 13.6228 8.21757 13.6653C8.73782 13.7025 9.56067 13.729 10.2189 13.6547C10.0119 13.575 9.79956 13.506 9.58721 13.4583C9.40672 13.4795 9.2156 13.4636 9.03511 13.4529ZM14.2376 11.3879C13.4466 11.1914 12.4858 11.1171 11.7001 11.441C11.3815 11.6108 11.1002 11.8391 10.8507 12.1099C10.5693 12.4124 10.2826 12.731 10.0597 13.0813C10.1977 13.1716 10.4047 13.299 10.6436 13.4529C11.6735 12.0196 12.5813 11.0003 15.671 11.9824C15.225 11.717 14.7473 11.5153 14.2376 11.3879Z" fill="white"/>
<path d="M15.6816 17.238C15.7188 17.3548 15.74 17.4663 15.7559 17.5778C15.7506 17.4557 15.7294 17.3442 15.6816 17.238ZM18.2457 15.8047C18.2404 15.5976 18.2351 15.3959 18.2139 15.1942C17.89 16.3833 15.0871 15.1623 12.5548 15.0986C12.661 15.1199 12.7672 15.1411 12.8733 15.1623C13.4838 15.2791 14.158 15.38 14.6889 15.7144C15.1348 15.9905 15.4321 16.4205 15.5967 16.9142L15.6869 17.238C15.6816 17.2274 15.6975 17.2168 15.7029 17.2274C15.7135 17.2433 16.4514 18.1724 15.5489 19.5208C15.8143 19.4889 15.8143 19.4836 16.0745 19.4252C16.324 19.3721 16.5735 19.3084 16.8177 19.2341C16.9398 19.1969 17.0566 19.1492 17.1734 19.1014C17.476 18.7616 17.6883 18.3582 17.8582 17.9335C18.0281 17.4875 18.1926 17.0151 18.2404 16.5426C18.2616 16.2984 18.251 16.0489 18.2457 15.8047Z" fill="#A3121B"/>
<path d="M11.4824 15.2688C11.4399 15.3803 11.3815 15.4865 11.3178 15.5926C11.3019 15.6192 11.286 15.6404 11.27 15.6669C11.2116 15.7519 11.1479 15.8368 11.0895 15.9111C10.9728 16.0598 10.8241 16.1819 10.6967 16.3252C10.5215 16.511 10.4472 16.7393 10.4047 16.9888C10.3251 17.4613 10.3516 17.9656 10.5321 18.4115C10.6224 18.6345 10.7498 18.8203 10.8984 18.9902C10.5958 18.2417 10.4844 16.9941 10.8825 16.6119C11.2594 16.2456 11.7 15.6351 11.8805 15.3697C11.7213 15.3272 11.5886 15.2953 11.4824 15.2688Z" fill="white"/>
</svg>
