<svg width="28" height="34" viewBox="0 0 28 34" fill="none" xmlns="http://www.w3.org/2000/svg">
<path d="M26.5401 10.4469C26.5401 10.4469 22.736 10.4469 21.984 5.80239L13.9335 3.94458L5.92722 5.80239C5.17525 10.4469 1.37115 10.4469 1.37115 10.4469C0.442247 24.6017 13.9777 31.9887 13.9777 31.9887C14.1989 31.856 27.469 24.6017 26.5401 10.4469Z" fill="#101115"/>
<path opacity="0.2" d="M14.2434 3.98877L1.85795 16.3742C1.94642 16.8165 2.03489 17.2146 2.16759 17.6127L15.4819 4.2984L14.2434 3.98877ZM17.0301 4.65227L2.65416 19.0282C2.78686 19.3821 2.96379 19.7802 3.09649 20.134L18.2686 4.91768L17.0301 4.65227ZM9.90847 4.87344L1.37138 13.4105C1.41562 13.8971 1.45985 14.3394 1.54832 14.7818L11.9432 4.38687L9.90847 4.87344ZM1.37138 10.4469C1.32715 10.8007 1.32715 11.1546 1.32715 11.5527L2.69839 10.1815C1.94642 10.4469 1.37138 10.4469 1.37138 10.4469ZM26.5403 10.4469C26.5403 10.4469 26.0095 10.4469 25.3018 10.2257L8.13913 27.3884C8.40453 27.6538 8.66993 27.9192 8.93533 28.1403L26.5403 10.5353C26.5403 10.4911 26.5403 10.4911 26.5403 10.4469ZM5.92745 5.80235C5.83898 6.37739 5.70628 6.90819 5.48511 7.35052L7.38715 5.44848L5.92745 5.80235ZM12.7394 31.2367L25.4345 18.5416C25.6556 17.8339 25.8768 17.1262 26.0537 16.3742L11.8548 30.6174C12.1644 30.8386 12.474 31.0597 12.7394 31.2367ZM9.90847 29.0692C10.2181 29.3346 10.4835 29.5558 10.7489 29.777L26.4518 14.074C26.4961 13.5432 26.5403 12.9682 26.5403 12.4374L9.90847 29.0692ZM13.978 31.9887C14.1549 31.9002 20.2591 28.5384 23.8863 22.0361L13.978 31.9887ZM19.861 5.31578L3.71576 21.4168C3.8927 21.7707 4.06963 22.0803 4.24657 22.39L21.0553 5.58118L19.861 5.31578ZM23.267 8.81023L6.50248 25.5748C6.72365 25.8402 6.98905 26.1498 7.21022 26.4152L24.0632 9.56221C23.7978 9.38527 23.5324 9.11987 23.267 8.81023ZM22.117 6.51009L5.04277 23.5843C5.26394 23.8939 5.48511 24.2035 5.66204 24.4689L22.5151 7.66016C22.3824 7.30629 22.2054 6.90819 22.117 6.51009Z" fill="#3F3F3F"/>
<path d="M5.57355 3.76763C4.42348 5.05041 3.58304 6.64282 3.1407 8.36793C2.30026 9.03144 1.37136 9.1199 1.37136 9.1199L0.132815 9.16414L0.0443482 10.4027L0.000114526 11.9066C-0.0441191 25.7075 12.7394 32.8734 13.3144 33.183L13.9779 33.5369L14.6414 33.183C15.1722 32.8734 28 25.796 28 11.8624L27.9558 10.3584L27.8231 9.1199L26.5845 9.07567C26.5845 9.07567 25.6556 8.9872 24.7709 8.3237C24.1959 6.15625 23.0458 4.2542 21.4092 2.83873C16.7647 -1.275 9.68728 -0.876896 5.57355 3.76763ZM1.37136 9.65071C1.37136 9.65071 2.52143 9.60647 3.5388 8.76604L3.62727 8.7218V8.63333C4.06961 6.95246 4.86581 5.40428 5.97165 4.16574C9.86421 -0.257625 16.632 -0.655727 21.0553 3.28106C22.6477 4.69654 23.7536 6.51012 24.2844 8.63333V8.7218L24.3728 8.76604C25.3902 9.60647 26.5403 9.69494 26.5845 9.69494C26.5845 9.69494 27.0711 9.69494 27.3365 9.69494C27.3365 9.96034 27.3807 10.4469 27.3807 10.4469L27.425 11.9066C27.425 25.5306 14.9068 32.431 14.376 32.7407C14.376 32.7407 14.1106 32.8734 13.9779 32.9618C13.8452 32.8734 13.5798 32.7407 13.5798 32.7407C13.049 32.431 0.486684 25.3979 0.486684 11.8624L0.530918 10.4027C0.530918 10.4027 0.575152 9.91611 0.575152 9.65071C0.884787 9.65071 1.37136 9.65071 1.37136 9.65071Z" fill="#101115"/>
<path d="M13.9777 28.2288L14.2873 28.9365L15.0836 29.025L14.5085 29.6L14.6412 30.352L13.9777 29.9981L13.27 30.352L13.4027 29.6L12.8276 29.025L13.6238 28.9365L13.9777 28.2288Z" fill="#F49117"/>
<path d="M4.11377 11.818C4.24647 14.4278 5.44078 16.8606 7.38706 18.6299C11.4566 22.2571 17.6935 21.859 21.3207 17.8337C23.09 15.8432 23.9304 13.3219 23.7977 10.7121C23.665 8.10235 22.4707 5.6695 20.5244 3.90015C16.455 0.228764 10.1738 0.626867 6.59086 4.69636C4.82151 6.64264 3.93684 9.16396 4.11377 11.818Z" fill="#101115"/>
<path d="M19.9051 4.51949C23.6207 7.79277 23.9303 13.4989 20.657 17.2145C17.3837 20.9302 11.6776 21.2398 7.96198 17.9665C4.29059 14.649 3.93672 8.98708 7.25424 5.27146C10.5275 1.55583 16.1894 1.2462 19.9051 4.51949Z" fill="#F49117"/>
<path opacity="0.4" d="M20.4358 13.1011C17.1625 16.8167 11.4564 17.1264 7.74077 13.8531C6.45799 12.703 5.57332 11.2433 5.13099 9.69511C4.60018 12.6588 5.57332 15.7993 8.00617 17.9668C11.7218 21.2843 17.3837 20.9304 20.7012 17.2148C22.8244 14.782 23.4437 11.5529 22.6033 8.67773C22.2494 10.2701 21.5859 11.7741 20.4358 13.1011Z" fill="#F49117"/>
<path d="M20.7456 7.65991C20.7456 7.65991 14.7298 8.80999 8.7583 12.2602C8.7583 12.2602 14.951 7.74838 20.7456 7.65991Z" fill="url(#paint0_radial_137_1231)"/>
<path d="M12.9163 4.07739C12.9163 4.07739 15.1279 5.84674 16.8088 9.07579C18.4897 12.3048 18.1801 16.507 18.1801 16.507C18.1801 16.507 18.0474 12.2606 16.3222 9.29696C14.5529 6.33331 12.9163 4.07739 12.9163 4.07739Z" fill="url(#paint1_radial_137_1231)"/>
<path d="M11.8103 7.17377C11.8103 7.17377 14.597 7.92574 16.0567 6.99684C17.5607 6.06793 17.6934 5.18326 17.6934 4.29858C17.6934 4.29858 16.8972 6.0237 16.0125 6.4218C15.1721 6.86413 11.8103 7.17377 11.8103 7.17377Z" fill="url(#paint2_radial_137_1231)"/>
<path d="M14.5527 12.3932C14.5527 12.3932 15.4816 10.9777 16.6317 10.5796C17.7818 10.1372 19.3742 10.5796 20.6127 11.7739C20.6127 11.7739 18.6665 9.34103 16.499 9.9603C14.8181 10.4469 14.5527 12.3932 14.5527 12.3932Z" fill="url(#paint3_radial_137_1231)"/>
<path d="M16.5878 6.37718L16.9417 6.02331C17.561 5.3598 17.8706 4.38666 17.9148 3.10389V3.05966L17.4283 2.83849V2.92696C17.4283 4.2982 17.0302 5.31557 16.2782 5.93484C15.9686 6.20024 15.5262 6.42141 15.0397 6.55411C13.7569 4.74053 12.4299 3.36929 11.501 2.57309L11.4125 2.48462L11.2798 2.52885L10.8375 2.66155L10.9259 2.75002C11.0144 2.79425 11.0586 2.88272 11.1471 2.92696C11.9433 3.63469 13.2261 4.87323 14.4646 6.59835C13.0491 6.81951 11.4125 6.55411 10.2624 6.24448C8.22768 5.75791 6.90067 6.33294 5.97177 6.90798C5.92753 6.95222 5.70636 7.43878 5.70636 7.43878L5.6179 7.61572L5.79483 7.52725L6.10447 7.39455C6.94491 6.95222 8.31615 6.24448 10.174 6.73105C11.1913 6.99645 13.0934 7.39455 14.8185 7.04068C14.8627 7.08492 15.4378 8.05806 15.5262 8.19076C10.9259 9.8274 6.94491 12.7468 5.44096 13.9411L5.39673 13.9854L5.57366 14.4719L5.66213 14.4277C7.16607 13.2334 11.1913 10.2697 15.7916 8.63309C15.8359 8.72156 16.2782 9.60623 16.3224 9.73893C14.8185 10.4909 13.9781 12.2602 13.2703 13.8527C12.9607 14.5604 12.651 15.1797 12.3414 15.7105C11.2356 17.4356 10.4394 18.5414 9.90856 19.1165L9.86432 19.2049L10.0855 19.2934L10.3509 19.4261L10.3951 19.3819C10.8817 18.7626 11.7221 17.6568 12.7837 15.9759C13.1376 15.4451 13.4472 14.7816 13.7569 14.0738C14.4204 12.5699 15.2166 10.889 16.5436 10.2255C17.7379 13.2776 18.0475 16.374 17.384 19.4703L17.3398 19.603L17.8706 19.3819C18.5341 16.2413 18.1802 13.1449 16.8975 10.137C17.4283 10.0043 18.0033 10.0928 18.6226 10.314C19.1092 10.5351 19.5957 10.8448 20.0823 11.2429C20.967 11.9948 21.7189 13.1007 22.2497 14.3392L22.3382 14.5162L22.5594 13.8527C21.9843 12.6141 21.2324 11.5967 20.3919 10.8448C19.9054 10.4024 19.3746 10.0486 18.8438 9.8274C18.0918 9.51777 17.384 9.4293 16.7648 9.60623C16.7205 9.51777 16.2782 8.63309 16.234 8.50039C18.3572 7.79265 20.3477 7.48302 22.1613 7.61572H22.294L22.0728 7.08492H22.0286C20.1708 6.99645 18.136 7.35032 16.0128 8.05806C15.9686 7.96959 15.4378 7.08492 15.3493 6.95222C15.7916 6.86375 16.234 6.64258 16.5878 6.37718Z" fill="#101115"/>
<path d="M13.7124 12.7913V13.0125C13.4913 12.8798 13.2259 12.7913 12.9162 12.7913H11.3681C10.97 12.7913 10.6603 12.924 10.3507 13.1894C10.1737 13.3663 10.041 13.5433 9.99681 13.7202L9.81988 12.7913H7.29856L7.16586 13.7202C7.07739 13.5433 6.98893 13.3221 6.81199 13.1894C6.54659 12.924 6.19272 12.7913 5.79462 12.7913H2.91943V19.4263H5.13111C5.48498 19.4263 5.79462 19.3821 6.06002 19.2494L6.01579 19.4263H6.81199V25.044H9.02367C9.37754 25.044 9.73141 24.9556 10.041 24.8229L9.99681 25.044H12.4297C12.4297 25.044 12.5181 24.6901 12.5181 24.5574C12.5624 24.6901 12.6066 25.044 12.6066 25.044H20.9225V22.6996C20.9225 22.6996 19.8609 22.6996 19.4628 22.6996V19.3821H23.8862C23.8862 19.3821 23.8862 16.0646 23.8862 15.0915C24.0189 15.0915 24.9035 15.0915 24.9035 15.0915V12.7471H13.7124V12.7913ZM21.2322 15.1357C21.3649 15.1357 21.5418 15.1357 21.5418 15.1357H21.586V17.082H21.2764V15.1357H21.2322Z" fill="#101115"/>
<path d="M3.6272 13.499H5.79464C6.01581 13.499 6.19275 13.5875 6.32545 13.7202C6.45815 13.8529 6.54662 14.0298 6.54662 14.2068V15.2684C6.54662 15.578 6.41392 15.8434 6.19275 16.0646C6.50238 16.2857 6.67932 16.5511 6.67932 16.9492V17.4358C6.67932 17.8339 6.54662 18.1436 6.23698 18.409C5.92735 18.6301 5.57348 18.7628 5.17537 18.7628H3.6272V13.499ZM4.64457 14.4722V15.6222H5.13114C5.21961 15.6222 5.30808 15.578 5.39654 15.5338C5.48501 15.4453 5.52924 15.4011 5.52924 15.3126V14.4722H4.64457ZM4.64457 17.7455H5.13114C5.44078 17.7455 5.61771 17.6128 5.61771 17.3916V16.905C5.61771 16.8165 5.57348 16.7281 5.48501 16.6838C5.39654 16.6396 5.30807 16.5954 5.21961 16.5954H4.60034V17.7455H4.64457Z" fill="white"/>
<path d="M8.13922 17.6568L7.91805 18.7184H6.85645L7.87382 13.4546H9.24506L10.2624 18.7184H9.24506L9.02389 17.6568H8.13922ZM8.31615 16.6836H8.84696L8.58156 14.4277L8.31615 16.6836Z" fill="white"/>
<path d="M12.651 14.4721H11.6778V15.3126C11.6778 15.5337 11.8548 15.6664 12.1644 15.6664C12.6067 15.6664 12.9606 15.7991 13.226 16.0203C13.5356 16.2857 13.6683 16.5953 13.6683 16.9934V18.0993C13.6683 18.2762 13.5799 18.4531 13.4472 18.5858C13.3145 18.7185 13.1375 18.807 12.9164 18.807H11.3682C11.147 18.807 10.9701 18.7185 10.8374 18.5858C10.7047 18.4531 10.6162 18.2762 10.6162 18.0993V17.0377H11.6778V17.8339H12.651V16.9934C12.651 16.7723 12.474 16.6396 12.1644 16.6396C11.7221 16.6396 11.3682 16.5069 11.1028 16.2857C10.7931 16.0203 10.6604 15.7107 10.6604 15.3126V14.251C10.6604 14.074 10.7489 13.8971 10.8816 13.7644C11.0143 13.6317 11.1912 13.5432 11.4124 13.5432H12.9606C13.1818 13.5432 13.3587 13.6317 13.4914 13.7644C13.6241 13.8971 13.7126 14.074 13.7126 14.251V15.3126H12.651V14.4721Z" fill="white"/>
<path d="M15.4376 16.5954V18.7186H14.376V13.499H15.4376V15.6222H15.8357L16.4992 13.499H17.5608L16.7646 16.1088L17.5608 18.7186H16.4992L15.8357 16.5954H15.4376Z" fill="white"/>
<path d="M19.0648 17.7455H20.7899V18.7186H18.0032V13.499H20.7899V14.4722H19.0648V15.6222H20.5245V16.5954H19.0648V17.7455Z" fill="white"/>
<path d="M22.2054 14.4722H21.188V13.499H24.2843V14.4722H23.267V18.7628H22.2054V14.4722Z" fill="white"/>
<path d="M7.51978 19.1165H9.68722C9.90839 19.1165 10.0853 19.2049 10.218 19.3376C10.3507 19.4703 10.4392 19.6473 10.4392 19.8242V20.93C10.4392 21.2397 10.3065 21.5051 10.0853 21.7262C10.395 21.9474 10.5719 22.2128 10.5719 22.6109V23.0975C10.5719 23.4956 10.4392 23.8052 10.1296 24.0706C9.81992 24.2918 9.46605 24.4245 9.06795 24.4245H7.51978V19.1165ZM8.58138 20.0896V21.2397H9.06795C9.15642 21.2397 9.24489 21.1954 9.33335 21.1512C9.42182 21.0627 9.46605 21.0185 9.46605 20.93V20.0896H8.58138ZM8.58138 23.4071H9.06795C9.37759 23.4071 9.55452 23.2744 9.55452 23.0532V22.5667C9.55452 22.4782 9.51029 22.3897 9.42182 22.3455C9.33335 22.3013 9.24489 22.257 9.15642 22.257H8.53715V23.4071H8.58138Z" fill="white"/>
<path d="M12.1199 23.3186L11.8988 24.3803H10.8372L11.8988 19.1165H13.27L14.2874 24.3803H13.2258L13.0046 23.3186H12.1199ZM12.2969 22.3455H12.8277L12.5623 20.0896L12.2969 22.3455Z" fill="white"/>
<path d="M14.7739 24.3803V19.1165H15.8355V23.4071H17.2952V24.3803H14.7739Z" fill="white"/>
<path d="M17.782 24.3803V19.1165H18.8436V23.4071H20.3033V24.3803H17.782Z" fill="white"/>
<path d="M7.51976 21.8148V24.3803H9.06793C9.51027 24.3803 9.86414 24.2476 10.1295 24.0265C10.4392 23.7611 10.5719 23.4514 10.5719 23.0533V22.5668C10.5719 22.2571 10.4834 21.9917 10.2622 21.8148H7.51976ZM9.5545 23.0533C9.5545 23.2745 9.37757 23.4072 9.06793 23.4072H8.58136V22.2571H9.20063C9.2891 22.2571 9.37757 22.3013 9.46603 22.3456C9.5545 22.3898 9.59874 22.4783 9.59874 22.5668V23.0533H9.5545ZM18.8436 21.8148H17.782V24.3803H20.259V23.4072H18.7993V21.8148H18.8436ZM12.7836 21.8148L12.8278 22.3456H12.297L12.3412 21.8148H11.3238L10.8373 24.3803H11.8989L12.1201 23.3187H13.0047L13.2259 24.3803H14.2875L13.8009 21.8148H12.7836ZM15.8357 21.8148H14.7741V24.3803H17.2512V23.4072H15.7914V21.8148H15.8357ZM19.0647 16.5952H20.5244V16.1529H18.0474V18.7627H20.8341V17.7895H19.109V16.5952H19.0647ZM12.9163 18.7184C13.1374 18.7184 13.3144 18.63 13.4471 18.4973C13.5798 18.3646 13.6682 18.1876 13.6682 18.0107V16.9048C13.6682 16.5952 13.5798 16.3298 13.4028 16.1086H10.97C11.0142 16.1529 11.0584 16.1971 11.1027 16.2413C11.3681 16.4625 11.7662 16.5952 12.1643 16.5952C12.4739 16.5952 12.6509 16.7279 12.6509 16.9491V17.7895H11.6777V16.9933H10.6161V18.0549C10.6161 18.2319 10.7046 18.4088 10.8373 18.5415C10.97 18.6742 11.1469 18.7627 11.3681 18.7627H12.9163V18.7184ZM22.2053 16.1529V18.7627H23.2669V16.1529H22.2053ZM14.376 16.1529V18.7627H15.4376V16.6394H15.8357L16.4992 18.7627H17.5608L16.7646 16.1529H14.376ZM8.13903 17.6568H9.0237L9.24487 18.7184H10.3065L9.8199 16.1086H8.80253L8.84676 16.6837H8.31596L8.36019 16.1086H7.34282L6.85625 18.7184H7.91786L8.13903 17.6568ZM3.6272 16.1529V18.7627H5.17537C5.61771 18.7627 5.97158 18.63 6.23698 18.4088C6.54662 18.1434 6.67932 17.8338 6.67932 17.4357V16.9491C6.67932 16.5952 6.54662 16.374 6.32545 16.1529H3.6272ZM5.66194 17.4357C5.66194 17.6568 5.48501 17.7895 5.17537 17.7895H4.6888V16.6394H5.26384C5.35231 16.6394 5.44078 16.6837 5.52924 16.7279C5.61771 16.7721 5.66194 16.8606 5.66194 16.9491V17.4357Z" fill="#CFCFCF"/>
<path d="M9.42168 27.2114H9.59861V25.9728H9.42168V25.7959H10.0409V25.9728H9.81978V27.1671H10.3506V26.9017H10.5275V27.3441H9.37744V27.2114H9.42168Z" fill="white"/>
<path d="M10.793 27.2114H10.9699V25.9728H10.793V25.7959H11.943V26.1498H11.7661V25.9728H11.2353V26.4594H11.8103V26.6363H11.2353V27.1671H11.8103V26.9902H11.9873V27.3441H10.793V27.2114Z" fill="white"/>
<path d="M12.1199 27.2114H12.2526L12.7391 25.7959H13.0045L13.4911 27.2114H13.668V27.3883H13.1372V27.2114H13.3142L13.1815 26.8575H12.6064L12.4737 27.2114H12.6507V27.3883H12.1199V27.2114ZM13.1372 26.6806L12.9603 26.1498C12.9161 26.1055 12.9161 26.0171 12.9161 26.0171C12.9161 26.0171 12.9161 26.0613 12.8718 26.1498L12.6949 26.6806H13.1372Z" fill="white"/>
<path d="M14.597 25.7959C14.8624 25.7959 15.2163 25.9286 15.2163 26.1055V26.2825H14.9951V26.1498C14.9951 26.0171 14.774 25.9728 14.597 25.9728C14.2432 25.9728 13.9778 26.2382 13.9778 26.5921C13.9778 26.946 14.1989 27.2114 14.597 27.2114C14.7297 27.2114 15.0394 27.1671 15.0394 27.0344V26.8133H14.7297V26.6363H15.2605V27.0787C15.2605 27.3441 14.8624 27.3883 14.597 27.3883C14.1105 27.3883 13.7566 27.0344 13.7566 26.5479C13.7566 26.1055 14.1105 25.7959 14.597 25.7959Z" fill="white"/>
<path d="M15.6587 25.9728H15.4375V25.7959H16.0568V25.9728H15.8798V26.769C15.8798 26.8575 15.8798 26.946 15.9241 27.0344C15.9683 27.1229 16.101 27.2114 16.2779 27.2114C16.4106 27.2114 16.5433 27.1671 16.6318 27.0344C16.676 26.9902 16.676 26.9017 16.676 26.769V25.9728H16.4549V25.7959H17.0741V25.9728H16.8972V26.8133C16.8972 26.946 16.853 27.0787 16.8087 27.2114C16.7203 27.3441 16.4991 27.4325 16.2779 27.4325C16.0568 27.4325 15.8798 27.3441 15.7471 27.2114C15.6587 27.1229 15.6587 26.9902 15.6587 26.8133V25.9728Z" fill="white"/>
<path d="M17.2952 27.2114H17.4721V25.9728H17.2952V25.7959H18.4452V26.1498H18.2683V25.9728H17.7375V26.4594H18.3125V26.6363H17.7375V27.1671H18.3125V26.9902H18.4895V27.3441H17.2952V27.2114Z" fill="white"/>
<path fill-rule="evenodd" clip-rule="evenodd" d="M24.9036 6.68701C25.169 7.83709 25.744 8.32366 26.5844 8.23519C26.5844 7.43898 26.0094 6.95241 24.9036 6.68701Z" fill="#101115"/>
<path fill-rule="evenodd" clip-rule="evenodd" d="M24.3284 5.18311C24.8149 6.24471 25.4784 6.64281 26.2746 6.37741C26.1419 5.58121 25.4784 5.22734 24.3284 5.18311Z" fill="#101115"/>
<path fill-rule="evenodd" clip-rule="evenodd" d="M23.3552 3.72337C23.9745 4.69651 24.6822 5.00614 25.4342 4.60804C25.213 3.9003 24.5053 3.59067 23.3552 3.72337Z" fill="#101115"/>
<path fill-rule="evenodd" clip-rule="evenodd" d="M22.1609 2.39617C22.8686 3.32508 23.6206 3.54625 24.3283 3.05968C24.0187 2.35194 23.311 2.13077 22.1609 2.39617Z" fill="#101115"/>
<path fill-rule="evenodd" clip-rule="evenodd" d="M21.5417 0.582764C22.0283 1.64437 22.6918 2.04247 23.488 1.73284C23.3111 1.0251 22.6918 0.626997 21.5417 0.582764Z" fill="#101115"/>
<path fill-rule="evenodd" clip-rule="evenodd" d="M23.9304 0.671387C24.8593 1.33489 25.1247 2.08686 24.6824 2.7946C24.0189 2.5292 23.7535 1.82146 23.9304 0.671387Z" fill="#101115"/>
<path fill-rule="evenodd" clip-rule="evenodd" d="M25.5671 2.1311C26.2306 3.06001 26.2748 3.85621 25.6113 4.38702C25.0363 3.90045 25.0363 3.14848 25.5671 2.1311Z" fill="#101115"/>
<path fill-rule="evenodd" clip-rule="evenodd" d="M26.7171 3.94458C27.2922 4.96195 27.2479 5.71393 26.5402 6.2005C26.0094 5.66969 26.0979 4.87349 26.7171 3.94458Z" fill="#101115"/>
<path fill-rule="evenodd" clip-rule="evenodd" d="M27.6018 5.93506C27.9557 7.0409 27.7345 7.79287 26.9383 8.10251C26.5402 7.439 26.7613 6.73126 27.6018 5.93506Z" fill="#101115"/>
<path fill-rule="evenodd" clip-rule="evenodd" d="M3.00803 6.68701C2.74262 7.83709 2.16759 8.32366 1.32715 8.23519C1.32715 7.43898 1.85795 6.95241 3.00803 6.68701Z" fill="#101115"/>
<path fill-rule="evenodd" clip-rule="evenodd" d="M3.583 5.18311C3.09643 6.24471 2.47716 6.64281 1.63672 6.37741C1.76942 5.58121 2.43292 5.22734 3.583 5.18311Z" fill="#101115"/>
<path fill-rule="evenodd" clip-rule="evenodd" d="M4.55603 3.72337C3.93676 4.69651 3.22902 5.00614 2.47705 4.60804C2.69822 3.9003 3.40596 3.59067 4.55603 3.72337Z" fill="#101115"/>
<path fill-rule="evenodd" clip-rule="evenodd" d="M5.70627 2.39617C4.99853 3.32508 4.29079 3.54625 3.53882 3.05968C3.84845 2.35194 4.60043 2.13077 5.70627 2.39617Z" fill="#101115"/>
<path fill-rule="evenodd" clip-rule="evenodd" d="M6.36962 0.582764C5.88305 1.64437 5.21955 2.04247 4.42334 1.73284C4.55604 1.0251 5.21954 0.626997 6.36962 0.582764Z" fill="#101115"/>
<path fill-rule="evenodd" clip-rule="evenodd" d="M3.98085 0.671387C3.00771 1.33489 2.7423 2.04263 3.18464 2.7946C3.89238 2.5292 4.15778 1.82146 3.98085 0.671387Z" fill="#101115"/>
<path fill-rule="evenodd" clip-rule="evenodd" d="M2.30018 2.1311C1.63667 3.06001 1.63667 3.81198 2.25594 4.38702C2.83098 3.90045 2.87521 3.14848 2.30018 2.1311Z" fill="#101115"/>
<path fill-rule="evenodd" clip-rule="evenodd" d="M1.19449 3.94458C0.619455 4.96195 0.663688 5.71393 1.37143 6.2005C1.858 5.66969 1.81376 4.87349 1.19449 3.94458Z" fill="#101115"/>
<path fill-rule="evenodd" clip-rule="evenodd" d="M0.309809 5.93506C-0.0440605 7.0409 0.177108 7.79287 0.973313 8.10251C1.37142 7.439 1.15025 6.73126 0.309809 5.93506Z" fill="#101115"/>
<defs>
<radialGradient id="paint0_radial_137_1231" cx="0" cy="0" r="1" gradientUnits="userSpaceOnUse" gradientTransform="translate(14.7649 9.93867) rotate(-48.3646) scale(5.7982)">
<stop stop-color="white"/>
<stop offset="0.4143" stop-color="#FAFAFA"/>
<stop offset="0.8914" stop-color="#ECECEC"/>
<stop offset="1" stop-color="#E8E8E8"/>
</radialGradient>
<radialGradient id="paint1_radial_137_1231" cx="0" cy="0" r="1" gradientUnits="userSpaceOnUse" gradientTransform="translate(15.5622 10.304) rotate(-48.3646) scale(6.12978)">
<stop stop-color="white"/>
<stop offset="0.4143" stop-color="#FAFAFA"/>
<stop offset="0.8914" stop-color="#ECECEC"/>
<stop offset="1" stop-color="#E8E8E8"/>
</radialGradient>
<radialGradient id="paint2_radial_137_1231" cx="0" cy="0" r="1" gradientUnits="userSpaceOnUse" gradientTransform="translate(15.0769 6.01695) rotate(-48.3646) scale(2.44041)">
<stop stop-color="white"/>
<stop offset="0.4143" stop-color="#FAFAFA"/>
<stop offset="0.8914" stop-color="#ECECEC"/>
<stop offset="1" stop-color="#E8E8E8"/>
</radialGradient>
<radialGradient id="paint3_radial_137_1231" cx="0" cy="0" r="1" gradientUnits="userSpaceOnUse" gradientTransform="translate(17.3953 11.867) rotate(-48.3646) scale(2.29784)">
<stop stop-color="white"/>
<stop offset="0.4143" stop-color="#FAFAFA"/>
<stop offset="0.8914" stop-color="#ECECEC"/>
<stop offset="1" stop-color="#E8E8E8"/>
</radialGradient>
</defs>
</svg>
