<svg width="72" height="69" viewBox="0 0 72 69" fill="none" xmlns="http://www.w3.org/2000/svg">
<path fill-rule="evenodd" clip-rule="evenodd" d="M35.5599 68.9969C46.7358 64.8493 54.7771 57.1388 59.24 46.0338C62.1207 38.8665 63.3111 30.6913 63.0723 22.9658C57.9265 19.1817 52.542 15.9071 46.7059 13.2957C43.0864 11.6772 39.3623 10.3471 35.5599 9.23438C31.7575 10.3471 28.0335 11.6809 24.4139 13.2957C18.5742 15.9034 13.1933 19.1779 8.0476 22.9658C7.80879 30.6913 8.99913 38.8665 11.8798 46.0338C16.339 57.1388 24.3804 64.8493 35.5599 68.9969Z" fill="#001E5E"/>
<path d="M35.2466 67.1237C24.9141 63.0661 17.5332 55.7789 13.3801 45.442C10.7158 38.8142 9.57021 31.3921 9.6523 24.2623L9.65603 23.8277L10.0068 23.5729C14.7383 20.171 19.7572 17.1737 25.0783 14.7983C28.4031 13.3146 31.8323 12.0708 35.3175 11.0217L35.5638 10.9468L35.8101 11.0217C39.2953 12.067 42.7246 13.3109 46.0493 14.7983C51.3704 17.1737 56.3856 20.1747 61.1171 23.5729L61.4679 23.8277L61.4716 24.2623C61.5574 31.3921 60.4081 38.8142 57.7438 45.442C53.5907 55.7789 46.206 63.0661 35.8773 67.1237L35.5638 67.2474L35.2466 67.1237Z" fill="#0063A5"/>
<path d="M14.2083 46.015C14.4844 46.6669 14.7717 47.3039 15.0777 47.9295L19.2794 45.4867L18.9062 47.5399L32.612 36.9407L20.5966 43.8607L20.91 42.1335L14.2083 46.015Z" fill="white"/>
<path d="M54.7735 20.7402C54.572 20.6166 54.3667 20.4967 54.1652 20.373L13.1785 43.2837C13.2494 43.4823 13.3203 43.6808 13.3912 43.8794L54.7735 20.7402Z" fill="white"/>
<path fill-rule="evenodd" clip-rule="evenodd" d="M6.47677 29.3651L0.0847168 25.0939C0.226514 23.6927 0.383237 22.2952 0.539959 20.8977C0.659367 19.8224 0.778775 18.7434 0.894452 17.6681C1.01013 16.6078 1.12954 15.5513 1.24521 14.491C1.36089 13.4494 1.47657 12.4116 1.58851 11.37L1.71165 10.2573C5.50658 8.99091 9.36122 7.93811 13.2494 7.10261L13.7681 2.41183C29.0785 -0.735335 41.9708 -0.787788 57.3222 2.1683C57.4901 3.70067 57.6617 5.23304 57.8296 6.76916L57.867 7.10261C61.7552 7.93436 65.6098 8.98717 69.4047 10.2573L69.5279 11.37C69.6436 12.4116 69.7592 13.4494 69.8712 14.491C69.9869 15.5513 70.1063 16.6078 70.2219 17.6681C70.3413 18.7434 70.4608 19.8224 70.5764 20.8977C70.7294 22.2952 70.8899 23.6927 71.0317 25.0939L64.9381 29.0878C55.1131 26.1954 45.6985 24.3034 35.5563 24.3334C25.4179 24.3034 16.3055 26.4727 6.47677 29.3651Z" fill="#001E5E"/>
<path fill-rule="evenodd" clip-rule="evenodd" d="M10.6374 37.5403L5.223 35.7981L5.17822 27.9602L5.96557 27.6529C15.2458 24.0225 25.6306 22.4639 35.5601 22.4639C45.4896 22.4639 55.8706 24.0225 65.1546 27.6529L65.9419 27.9602L65.9233 35.7344L60.4827 37.5403C52.4638 35.0675 43.8552 33.981 35.5601 33.981C27.265 33.981 18.6564 35.0675 10.6374 37.5403Z" fill="#001E5E"/>
<path fill-rule="evenodd" clip-rule="evenodd" d="M9.18602 14.5247C9.15617 14.8357 9.06661 15.1242 8.92854 15.3827C8.78675 15.6449 8.54047 15.8697 8.2009 16.0571C8.5442 15.9784 8.79048 16.0346 8.91735 16.2069C9.05168 16.3868 9.11139 16.6116 9.08527 16.8926C9.03303 17.4433 8.98452 17.9941 8.93228 18.5448C8.88004 19.0993 8.82779 19.6538 8.77555 20.2121C8.70839 20.9277 8.51435 21.4822 8.19344 21.8793C7.87253 22.2765 7.33893 22.5762 6.59636 22.8048C5.03659 23.2881 3.4731 23.8276 1.91333 24.3746C2.03647 23.2768 2.15588 22.1753 2.27529 21.0888C2.39469 20.006 2.5141 18.927 2.62978 17.8592C2.74545 16.7952 2.86486 15.7349 2.98054 14.6821C3.09621 13.6368 3.21189 12.5952 3.32384 11.5611C4.94331 11.0216 6.56651 10.5046 8.17478 10.0362C8.66734 9.89387 9.0181 9.93883 9.23453 10.1374C9.45469 10.3435 9.54051 10.6657 9.49946 11.1153C9.44722 11.681 9.39871 12.243 9.34647 12.8087C9.29423 13.382 9.23826 13.9515 9.18602 14.5247ZM6.54039 18.0278C6.55531 17.8854 6.53665 17.803 6.46203 17.7693C6.40232 17.7431 6.31277 17.7393 6.18963 17.7805C5.80528 17.9004 5.41721 18.0241 5.03286 18.1439C4.92838 19.1555 4.8239 20.1709 4.71568 21.19C5.14481 21.0513 5.57766 20.9127 6.00678 20.7778C6.11126 20.7441 6.18216 20.7066 6.22694 20.6504C6.26799 20.598 6.29411 20.5231 6.30157 20.4256C6.38366 19.6201 6.46203 18.8221 6.54039 18.0278ZM12.8205 17.582C13.2048 17.492 13.5892 17.4096 13.9661 17.3272C13.9325 16.6003 13.8952 15.8772 13.8653 15.1541C13.8355 14.4348 13.7981 13.7154 13.7646 12.9998C13.6116 13.7566 13.4549 14.5135 13.2981 15.2778C13.1339 16.0421 12.981 16.8139 12.8205 17.582ZM12.3802 19.6726C12.2608 20.2233 12.1414 20.7778 12.022 21.3286C11.1749 21.5309 10.3279 21.7519 9.48081 21.9767C9.7644 20.8453 10.048 19.7175 10.3316 18.601C10.6115 17.492 10.9025 16.383 11.1786 15.2853C11.4548 14.1987 11.7272 13.116 11.9996 12.0407C12.272 10.9729 12.5518 9.9126 12.8242 8.8598C13.6787 8.66498 14.537 8.48514 15.3952 8.31654C15.4922 9.28692 15.6005 10.2648 15.7049 11.2464C15.8132 12.228 15.9214 13.2246 16.0259 14.225C16.1303 15.2328 16.2423 16.2444 16.3542 17.2597C16.4662 18.2826 16.5744 19.3091 16.6863 20.3395C15.8505 20.4968 15.0183 20.6617 14.175 20.8415C14.1414 20.3282 14.1041 19.8112 14.078 19.2942C13.5108 19.4103 12.9474 19.5414 12.3802 19.6726ZM17.6267 17.818C17.6267 17.818 17.6267 17.818 17.6341 17.8142C18.511 17.6719 19.3805 17.5258 20.2536 17.3984C20.4402 17.3721 20.5372 17.2747 20.5484 17.0986C20.5969 16.3343 20.638 15.5738 20.6828 14.8169C20.694 14.6446 20.6678 14.5472 20.6081 14.521C20.5447 14.4947 20.4253 14.491 20.2611 14.5172C19.8432 14.5772 19.4215 14.6446 19.0111 14.7083C18.8394 14.7345 18.6678 14.7495 18.5036 14.7458C18.3468 14.742 18.205 14.7008 18.0856 14.6184C17.9625 14.5322 17.8804 14.4048 17.817 14.2362C17.7535 14.0676 17.7349 13.8241 17.7573 13.5206C17.8058 12.82 17.858 12.1269 17.9028 11.4337C17.9476 10.7444 17.9924 10.055 18.0409 9.36934C18.0744 8.89352 18.2274 8.48888 18.5073 8.17042C18.7834 7.84821 19.1939 7.64215 19.7499 7.56347C20.9701 7.39112 22.1866 7.23751 23.4068 7.09888C23.3657 7.84072 23.3247 8.58255 23.2836 9.32813C22.3918 9.42554 21.4962 9.54543 20.6081 9.66158C20.4141 9.6878 20.3096 9.78896 20.2984 9.96506C20.2499 10.7031 20.2051 11.4412 20.1566 12.1868C20.1492 12.3067 20.1827 12.3891 20.2387 12.4228C20.3021 12.4603 20.3805 12.4715 20.5037 12.4566C20.9962 12.3891 21.5037 12.3179 22 12.2542C22.3881 12.2055 22.6754 12.273 22.8694 12.4341C22.9851 12.5315 23.0523 12.6814 23.0933 12.8799C23.0523 13.7491 23.0038 14.6259 22.9515 15.5026C22.903 16.383 22.8582 17.2672 22.8097 18.1552C22.7314 18.5186 22.5933 18.8071 22.403 19.0169C22.1157 19.3391 21.6231 19.5489 20.9253 19.6463C19.7723 19.8112 18.6155 19.9985 17.4587 20.1896C17.5147 19.3991 17.5707 18.6048 17.6267 17.818ZM26.9256 11.9283C27.0412 11.9208 27.1606 11.9096 27.2763 11.9021C27.5114 11.0216 27.7428 10.1411 27.9741 9.26818C28.2055 8.39896 28.448 7.53349 28.6794 6.67177C29.4742 6.63805 30.2727 6.60058 31.0675 6.57061C30.8063 7.48853 30.5339 8.40646 30.2764 9.33562C30.0152 10.2685 29.7466 11.2127 29.4854 12.1531C29.6719 13.2396 29.8697 14.3336 30.0637 15.4314C30.2578 16.5404 30.4593 17.6569 30.6645 18.7771C29.7876 18.8183 28.9032 18.8708 28.0338 18.9195C27.9032 18.0653 27.7763 17.2148 27.6607 16.3643C27.5413 15.5213 27.4256 14.6783 27.3099 13.8391C27.1532 13.8503 26.989 13.8615 26.836 13.8728C26.7987 14.7233 26.7651 15.5775 26.7278 16.4355C26.6905 17.2972 26.6494 18.1627 26.6158 19.0282C25.7912 19.0956 24.9628 19.178 24.1419 19.2567C24.1978 18.2001 24.2463 17.1511 24.2986 16.1058C24.3508 15.068 24.3993 14.0339 24.4553 13.0073C24.5075 11.9882 24.5598 10.9692 24.6083 9.96131C24.6568 8.96096 24.7128 7.96061 24.7576 6.96775C25.5486 6.90031 26.3546 6.83287 27.1457 6.77667C27.1084 7.62716 27.0748 8.48139 27.0375 9.33562C27.0002 10.1936 26.9591 11.0591 26.9256 11.9283ZM32.0377 6.54438C33.6572 6.51816 35.2729 6.51066 36.8849 6.5219C36.8775 7.25624 36.8663 7.98684 36.8513 8.72117C36.8513 8.72117 36.8513 8.72117 36.8513 8.72492C36.0155 8.71368 35.1759 8.71368 34.3438 8.71368C34.3214 9.65783 34.2953 10.6057 34.2803 11.5611C34.9184 11.5574 35.5528 11.5611 36.1946 11.5611C36.1797 12.258 36.1722 12.9549 36.161 13.6555C35.5155 13.6555 34.8736 13.6555 34.2281 13.6592C34.2132 14.5509 34.1908 15.4464 34.1684 16.3493C35.0229 16.3456 35.8811 16.3418 36.7357 16.3456C36.7207 17.1174 36.7095 17.8929 36.7021 18.6685C35.0266 18.6722 33.3549 18.6947 31.672 18.7359C31.7056 17.6906 31.7429 16.6453 31.769 15.6112C31.7989 14.5809 31.8325 13.5543 31.8586 12.5352C31.8884 11.5237 31.9183 10.5158 31.9482 9.51546C31.978 8.5226 32.0079 7.52975 32.0377 6.54438ZM43.0494 8.97595C42.5419 8.93848 42.0307 8.91225 41.5232 8.88228C41.5194 9.6878 41.5232 10.4971 41.5194 11.3101C41.5157 12.1269 41.5194 12.9474 41.5157 13.7679C41.512 14.5959 41.512 15.4314 41.512 16.2669C41.512 17.1061 41.5045 17.9491 41.5082 18.7921C40.6985 18.7546 39.9037 18.7284 39.1089 18.7022C39.1126 17.8555 39.1201 17.0125 39.1313 16.1695C39.1387 15.334 39.1425 14.4985 39.1537 13.6667C39.1611 12.8425 39.1649 12.022 39.1723 11.2052C39.1798 10.3922 39.191 9.5829 39.191 8.77363C38.6835 8.75489 38.1686 8.74365 37.6573 8.73241C37.6573 8.72117 37.6573 8.71368 37.6573 8.70244C37.6685 7.9756 37.6723 7.2525 37.6835 6.5294C39.4671 6.58185 41.262 6.66053 43.0419 6.76918C43.0494 7.51101 43.0494 8.24161 43.0494 8.97595ZM49.8444 12.1568C49.8519 12.4528 49.7922 12.7038 49.6914 12.9062C49.5869 13.1047 49.378 13.2321 49.0795 13.2808C49.3929 13.3445 49.6317 13.4981 49.7735 13.7229C49.9228 13.959 49.9974 14.2025 50.0049 14.4722C50.0161 15.0005 50.0273 15.5325 50.0347 16.0608C50.0459 16.5891 50.0608 17.1211 50.072 17.6569C50.0907 18.3388 49.9564 18.8108 49.6952 19.0769C49.4339 19.3429 48.9712 19.4253 48.2921 19.3504C46.8853 19.193 45.4636 19.0656 44.0494 18.957C44.0457 17.9191 44.0382 16.8813 44.0345 15.8548C44.0307 14.8319 44.0233 13.8128 44.0195 12.805C44.0158 11.8009 44.0121 10.8006 44.0046 9.8077C43.9972 8.81859 43.9972 7.83322 43.9897 6.85535C45.4636 6.98274 46.9301 7.12136 48.4003 7.29371C48.8556 7.34616 49.1877 7.52975 49.4116 7.81449C49.6392 8.10673 49.7661 8.46266 49.7735 8.89352C49.7847 9.43678 49.7959 9.97629 49.8071 10.5196C49.8146 11.0628 49.8295 11.6098 49.8444 12.1568ZM47.7249 14.5734C47.7249 14.4385 47.6876 14.3449 47.6242 14.2849C47.557 14.2287 47.4712 14.1913 47.3667 14.18C47.0122 14.1425 46.6652 14.1013 46.3181 14.0714C46.3256 15.0342 46.3368 15.9971 46.3517 16.9638C46.7398 17.0012 47.1353 17.0424 47.5197 17.0837C47.6167 17.0949 47.6839 17.0799 47.71 17.0462C47.7399 17.0087 47.7622 16.945 47.7585 16.8551C47.7436 16.0983 47.7324 15.334 47.7249 14.5734ZM46.2584 9.11082C46.2696 9.63161 46.2734 10.1486 46.2808 10.6694C46.2846 11.1902 46.292 11.7147 46.2958 12.2393C46.654 12.2692 47.0122 12.3142 47.3704 12.3517C47.4563 12.3592 47.5272 12.3442 47.5794 12.2992C47.6316 12.2542 47.654 12.1756 47.654 12.0669C47.6428 11.2014 47.6354 10.3397 47.6204 9.48174C47.6167 9.33188 47.5458 9.2457 47.4115 9.23072C47.0346 9.1895 46.6465 9.14829 46.2584 9.11082ZM53.6244 16.6378C53.9826 16.7015 54.3409 16.7652 54.6954 16.8251C54.5797 16.087 54.464 15.349 54.3521 14.6109C54.2439 13.884 54.1282 13.1534 54.02 12.4303C53.9565 13.1235 53.8894 13.8203 53.8259 14.521C53.7662 15.2216 53.6953 15.9297 53.6244 16.6378ZM53.4378 18.5486C53.3781 19.0506 53.3296 19.5527 53.2774 20.0585C52.4975 19.9273 51.7102 19.8075 50.9303 19.6838C51.0721 18.6722 51.2213 17.6681 51.3706 16.6678C51.5161 15.6749 51.6728 14.6821 51.8146 13.6967C51.9564 12.7226 52.102 11.7485 52.2475 10.7818C52.393 9.82268 52.5386 8.86729 52.6766 7.91565C53.4789 8.06177 54.2774 8.20789 55.0797 8.36524C55.2775 9.38058 55.4864 10.3997 55.6917 11.4225C55.8969 12.4528 56.1133 13.4906 56.3223 14.5284C56.535 15.5775 56.7551 16.6341 56.9716 17.6944C57.188 18.7621 57.4007 19.8374 57.6246 20.9202C56.8372 20.7404 56.0611 20.5793 55.2737 20.4219C55.1842 19.8936 55.0984 19.3616 55.0125 18.8333C54.4901 18.7359 53.964 18.6422 53.4378 18.5486ZM58.05 9.02091C58.8187 9.21198 59.5948 9.40681 60.371 9.60913C60.412 10.4072 60.4493 11.2127 60.4941 12.0145C60.5389 12.82 60.5837 13.633 60.6247 14.4498C60.6658 15.2703 60.7068 16.0983 60.7478 16.9225C60.7889 17.7543 60.8337 18.5898 60.8822 19.429C61.6509 19.6501 62.4308 19.8711 63.2144 20.1034C63.2591 20.8752 63.3039 21.6508 63.3487 22.4301C61.7665 21.9693 60.1807 21.5421 58.5948 21.145C58.55 20.1034 58.509 19.0694 58.4604 18.039C58.4119 17.0162 58.3634 15.9934 58.3186 14.9818C58.2739 13.9739 58.2328 12.9736 58.188 11.9807C58.1395 10.9879 58.0948 9.99878 58.05 9.02091ZM63.6808 10.5832C64.4532 10.8268 65.2256 11.0928 66.0093 11.3588C66.0615 12.1606 66.1175 12.9699 66.1697 13.7791C66.2257 14.5921 66.2779 15.4127 66.3339 16.2332C66.3899 17.0574 66.4496 17.8892 66.5055 18.7209C66.5615 19.5564 66.6175 20.3957 66.6735 21.2424C67.4533 21.5234 68.2407 21.8156 69.0392 22.1079C69.0952 22.8872 69.1549 23.6702 69.2109 24.4495C67.6026 23.8538 66.0055 23.2918 64.4122 22.771C64.3487 21.7257 64.2853 20.6842 64.2256 19.6463C64.1622 18.616 64.1025 17.5932 64.0428 16.5779C63.9831 15.5663 63.9234 14.5584 63.8599 13.5543C63.8002 12.5577 63.7405 11.5686 63.6808 10.5832ZM5.57766 12.9137C5.52169 13.4569 5.46572 14.0039 5.40601 14.5509C5.35004 15.0979 5.29034 15.6524 5.23436 16.2032C5.62244 16.0796 6.01798 15.9559 6.41725 15.836C6.5068 15.8098 6.5889 15.7573 6.6486 15.6862C6.71577 15.6112 6.75681 15.5213 6.76801 15.4052C6.85383 14.4985 6.94339 13.5955 7.03294 12.6963C7.04787 12.539 6.98817 12.479 6.83518 12.5277C6.42471 12.6551 5.99559 12.7825 5.57766 12.9137Z" fill="white"/>
<path fill-rule="evenodd" clip-rule="evenodd" d="M6.8274 18.054C6.74903 18.852 6.66694 19.65 6.58858 20.4481C6.57365 20.5829 6.53634 20.7141 6.45425 20.8227C6.36469 20.9426 6.23036 21.0063 6.09229 21.0513C5.66317 21.1861 5.23405 21.3248 4.80492 21.4634L4.38326 21.5983L4.42804 21.1562C4.53252 20.1408 4.64074 19.1255 4.74522 18.1102L4.76388 17.9191L4.94672 17.8629C5.33107 17.743 5.71541 17.6193 6.10349 17.4995C6.25648 17.4507 6.43186 17.432 6.58112 17.5032C6.80501 17.6081 6.84978 17.8329 6.8274 18.054ZM48.0119 14.5696C48.0231 15.3302 48.0343 16.0907 48.0492 16.8513C48.053 16.9862 48.0194 17.1248 47.9336 17.2297C47.8254 17.3646 47.65 17.3908 47.4858 17.3721C47.0977 17.3309 46.7096 17.2859 46.3216 17.2522L46.0641 17.2297L46.0604 16.9712C46.0454 16.0046 46.0342 15.0417 46.0268 14.075L46.023 13.7566L46.3402 13.7865C46.691 13.8165 47.0417 13.8577 47.3925 13.8952C47.5455 13.9102 47.6873 13.9664 47.8067 14.0675C47.9597 14.1949 48.0119 14.3823 48.0119 14.5696ZM5.08852 14.8281L5.11091 14.6033C4.47655 14.7906 3.84593 14.9855 3.21531 15.1878L3.18919 15.4126C3.81981 15.2103 4.45416 15.0154 5.08852 14.8281ZM4.9803 15.8734L5.04374 15.2665C4.40939 15.4575 3.77503 15.6524 3.14068 15.8547L3.07351 16.4616C3.70786 16.2593 4.34222 16.0608 4.9803 15.8734ZM2.91679 17.8891C2.79738 18.9681 2.67797 20.0472 2.55856 21.1224C2.45408 22.0666 2.3496 23.007 2.24512 23.9511C3.65935 23.4566 5.07732 22.9733 6.50649 22.5274C7.01024 22.3701 7.6222 22.119 7.96177 21.6957C8.29761 21.2798 8.43194 20.7066 8.48045 20.182C8.53269 19.6275 8.58493 19.0693 8.63717 18.5148C8.68941 17.964 8.74165 17.4133 8.79016 16.8625C8.80509 16.6902 8.78643 16.5178 8.68195 16.3755C8.60359 16.2706 8.36104 16.3118 8.26029 16.3343L7.78266 16.4429C6.15199 16.8888 4.52879 17.3721 2.91679 17.8891ZM6.97666 15.7198C6.9468 15.776 6.91322 15.8285 6.86844 15.8809C6.77142 15.9896 6.64082 16.072 6.50276 16.1169C6.10722 16.2368 5.71541 16.3605 5.31987 16.4841L4.90194 16.6153L4.93179 16.3118C4.29371 16.5029 3.65935 16.7014 3.02127 16.9037L2.96156 17.447C4.47655 16.9637 6.00273 16.5103 7.53638 16.0945L8.05879 15.806C8.29014 15.6786 8.52896 15.5025 8.66329 15.2665C8.09984 15.4126 7.53638 15.5624 6.97666 15.7198ZM7.12965 14.6633C7.11099 14.8656 7.09233 15.0679 7.07367 15.2702C7.66325 15.1054 8.25656 14.948 8.84614 14.7944C8.87226 14.697 8.88718 14.5996 8.89838 14.4984L8.92823 14.1837C8.32746 14.3373 7.72669 14.4984 7.12965 14.6633ZM8.98793 13.528C8.38716 13.6816 7.79012 13.8427 7.19308 14.0076L7.17069 14.2324C7.76773 14.0675 8.36477 13.9102 8.96554 13.7528L8.98793 13.528ZM15.6337 13.2733L15.5703 12.6888C15.0628 12.7862 14.5553 12.8874 14.0478 12.9923C14.0553 13.1908 14.0665 13.3857 14.074 13.5842C14.5964 13.4756 15.1151 13.3744 15.6337 13.2733ZM15.7345 14.2062C15.7158 14.0301 15.6972 13.854 15.6785 13.6816C15.1524 13.7828 14.6225 13.8877 14.0964 13.9964L14.1225 14.5246C14.6598 14.416 15.1971 14.3111 15.7345 14.2062ZM11.4097 15.5362C11.1447 16.5815 10.8723 17.6268 10.6074 18.6722C10.3611 19.6388 10.1186 20.6054 9.87603 21.572C10.5067 21.4072 11.141 21.2423 11.7754 21.0887C11.8836 20.5979 11.9881 20.1034 12.0963 19.6126L12.1336 19.4327L12.3127 19.3915C12.8799 19.2566 13.4471 19.1292 14.018 19.0093L14.3501 18.9382L14.365 19.2791C14.3837 19.6837 14.4135 20.0846 14.4397 20.4893C15.0815 20.3544 15.7233 20.227 16.3651 20.1071C16.2644 19.1705 16.1636 18.23 16.0629 17.2934C15.9658 16.4017 15.8688 15.51 15.7755 14.6183C15.2307 14.7232 14.6859 14.8281 14.1411 14.9405L14.1486 15.1466C14.1784 15.8697 14.2158 16.5928 14.2493 17.3159L14.2605 17.5594L14.0217 17.6119C13.6411 17.6943 13.2605 17.7767 12.8799 17.8666L12.4358 17.9715L12.5291 17.5257C12.6896 16.7576 12.8426 15.9896 13.003 15.2215L13.0105 15.1765C12.4806 15.2927 11.947 15.4126 11.4097 15.5362ZM11.6671 14.5246L11.5254 15.0904C12.0515 14.9667 12.5814 14.8506 13.1112 14.7382L13.2232 14.1799C12.7045 14.2923 12.1858 14.4047 11.6671 14.5246ZM11.9395 13.4493L11.7791 14.0788C12.2903 13.9626 12.8015 13.8502 13.3127 13.7416C13.3538 13.5318 13.3986 13.3257 13.4433 13.1196C12.9396 13.2246 12.4396 13.337 11.9395 13.4493ZM15.5031 12.0631C14.3688 12.2804 13.2381 12.5164 12.1112 12.7712L12.0515 13.0072C13.2083 12.745 14.365 12.5052 15.5292 12.2841L15.5031 12.0631ZM18.1114 14.1987C18.1413 14.2699 18.1861 14.341 18.2495 14.3823C18.3279 14.4347 18.4137 14.4572 18.507 14.4609C18.66 14.4647 18.813 14.4497 18.966 14.4272C19.3839 14.3598 19.8018 14.2961 20.2197 14.2361C20.3765 14.2137 20.5705 14.1987 20.7198 14.2624C20.9511 14.3598 20.981 14.622 20.9698 14.8431C20.9213 15.6037 20.8802 16.3642 20.8354 17.1248C20.8168 17.447 20.6041 17.6456 20.2906 17.6943C19.4921 17.8104 18.6936 17.9416 17.895 18.0727C17.854 18.6647 17.8129 19.2604 17.7719 19.8523C18.8092 19.6837 19.8466 19.5151 20.8839 19.369C21.3131 19.3091 21.884 19.1705 22.1862 18.8333C22.3616 18.6384 22.4624 18.3799 22.5221 18.1251C22.5706 17.2484 22.6154 16.3717 22.6639 15.495C22.7012 14.8431 22.7385 14.1912 22.7721 13.5393C21.3504 13.7116 19.9287 13.9139 18.5107 14.1425C18.3801 14.1537 18.2458 14.1762 18.1114 14.1987ZM18.0667 13.2545L18.0443 13.5468C18.0405 13.6217 18.0331 13.7079 18.0368 13.7978C18.1749 13.7753 18.3092 13.7528 18.4473 13.7303C19.8914 13.4943 21.3392 13.292 22.7907 13.1159L22.8019 12.9061C22.7833 12.8237 22.7497 12.7113 22.6863 12.6588C22.6564 12.6363 22.6266 12.6139 22.593 12.5989C21.231 12.7675 19.869 12.9585 18.5144 13.1796C18.3652 13.2058 18.2159 13.232 18.0667 13.2545ZM18.1413 12.2317L18.0965 12.8386C18.2122 12.8199 18.3316 12.8012 18.4473 12.7824C18.9473 12.7 19.451 12.6251 19.9548 12.5502C19.8839 12.4415 19.8615 12.3066 19.869 12.1755L19.8839 11.9582C19.4249 12.0256 18.9697 12.0968 18.5144 12.1717C18.3876 12.1905 18.2644 12.2092 18.1413 12.2317ZM19.925 11.3138C19.3466 11.3999 18.7645 11.4899 18.1861 11.5873L18.1711 11.8121L18.451 11.7671C18.9361 11.6884 19.4249 11.6135 19.9138 11.5386L19.925 11.3138ZM26.6864 10.7593L26.6976 10.5345C26.0857 10.5832 25.4774 10.6394 24.8654 10.7031L24.8543 10.9279C25.4625 10.8642 26.0745 10.808 26.6864 10.7593ZM26.6416 11.7746C26.6491 11.5723 26.6566 11.37 26.6678 11.1677C26.0558 11.2201 25.4438 11.2763 24.8319 11.3363L24.802 11.9432C25.414 11.8833 26.0297 11.8271 26.6416 11.7746ZM24.7311 13.3145C24.6826 14.2511 24.6416 15.1878 24.5893 16.1207C24.5408 17.0574 24.496 17.9978 24.4475 18.9344C25.0781 18.8745 25.705 18.8145 26.3357 18.7583C26.3655 17.979 26.4028 17.1997 26.4364 16.4204C26.4737 15.5662 26.5073 14.712 26.5446 13.8577L26.5558 13.5992L26.8096 13.5805C26.9663 13.5692 27.1267 13.558 27.2835 13.5468L27.5521 13.528L27.5894 13.7978C27.7051 14.6408 27.8208 15.48 27.9402 16.323C28.0484 17.0873 28.1604 17.8516 28.276 18.6122C28.9552 18.5747 29.638 18.5335 30.3172 18.4998C30.1343 17.492 29.9515 16.4879 29.7761 15.48C29.6268 14.6333 29.4776 13.7903 29.3283 12.9436C27.7947 13.0335 26.261 13.1571 24.7311 13.3145ZM27.5223 12.1155L27.5036 12.1792L27.2984 12.1942C27.1827 12.2017 27.0633 12.213 26.9476 12.2205L26.6267 12.2429L26.6304 12.1905C26.0148 12.2429 25.3991 12.2991 24.7834 12.3628L24.7535 12.9061C26.2536 12.7525 27.7574 12.6363 29.2612 12.5464L29.2015 12.2055L29.1903 12.138L29.2089 12.0743L29.2276 12.0032C28.6604 12.0331 28.0895 12.0706 27.5223 12.1155ZM27.7947 11.0815L27.6305 11.6959C28.2014 11.6547 28.7723 11.6172 29.3432 11.5835L29.5149 10.9691C28.944 11.0028 28.3693 11.0403 27.7947 11.0815ZM29.7015 10.3284C29.1231 10.3584 28.5447 10.3958 27.9701 10.4371L27.9104 10.6656C28.485 10.6244 29.0634 10.5869 29.6418 10.557L29.7015 10.3284ZM32.1419 12.8237C32.1157 13.7566 32.0859 14.6857 32.0598 15.6186C32.0337 16.5591 32.0001 17.4995 31.9702 18.4399C33.4516 18.4061 34.933 18.3837 36.4144 18.3799C36.4219 17.7992 36.4294 17.2185 36.4406 16.6377C35.6831 16.634 34.9256 16.6377 34.1681 16.6415H33.8696L33.877 16.3417C33.8994 15.4463 33.9218 14.5509 33.9367 13.6554L33.9405 13.3744L34.2203 13.3707C34.7726 13.3669 35.3211 13.3669 35.8734 13.3669C35.8771 13.1721 35.8808 12.9735 35.8808 12.7787C35.7689 12.7787 35.6607 12.7787 35.5487 12.7787C34.4218 12.775 33.28 12.7899 32.1419 12.8237ZM32.1717 11.872L32.1568 12.4153C33.2912 12.3816 34.4255 12.3666 35.5599 12.3703C35.6719 12.3703 35.7838 12.3703 35.8995 12.3703C35.9032 12.198 35.9032 12.0256 35.907 11.8533C35.3659 11.8533 34.8248 11.8533 34.2875 11.8533H33.9927V11.8308C33.3845 11.842 32.7762 11.8533 32.1717 11.872ZM32.2016 10.8567L32.1829 11.4636C32.7874 11.4449 33.3919 11.4337 33.9964 11.4262C34.0002 11.2239 34.0039 11.0215 34.0076 10.8192C33.4068 10.8267 32.8023 10.8379 32.2016 10.8567ZM34.0225 10.186C33.4218 10.1935 32.821 10.2048 32.2202 10.2235L32.2128 10.4483C32.8135 10.4296 33.4143 10.4183 34.0188 10.4108L34.0225 10.186ZM39.4481 12.8386C39.4444 13.1196 39.4444 13.4006 39.4407 13.6816C39.4332 14.5171 39.4295 15.3489 39.4183 16.1844C39.4108 16.9337 39.4034 17.683 39.3996 18.4324C40.0041 18.4511 40.6124 18.4736 41.2169 18.4998C41.2169 17.758 41.2206 17.0161 41.2206 16.2743C41.2206 15.4388 41.2206 14.6071 41.2243 13.7716C41.2243 13.4868 41.2243 13.2021 41.2243 12.9173C40.6348 12.8836 40.0415 12.8611 39.4481 12.8386ZM39.4519 11.887L39.4481 12.4303C40.0415 12.449 40.6348 12.4752 41.2243 12.5052V11.9619C40.6348 11.9357 40.0452 11.9095 39.4519 11.887ZM39.4631 10.8754L39.4593 11.2201L39.4556 11.4824C40.0452 11.5011 40.6385 11.5273 41.2281 11.5573V11.3138V10.9541C40.6422 10.9204 40.0526 10.8941 39.4631 10.8754ZM41.2318 10.3172C40.646 10.2872 40.0564 10.261 39.4705 10.2422L39.4668 10.467C40.0564 10.4858 40.6422 10.512 41.2318 10.542V10.3172ZM45.9932 10.8979L45.9895 10.6731C45.426 10.6169 44.8625 10.5682 44.2954 10.5232V10.748C44.8625 10.793 45.4297 10.8417 45.9932 10.8979ZM46.0006 11.9132L45.9932 11.31C45.4297 11.2538 44.8625 11.2051 44.2991 11.1564L44.3028 11.7596C44.87 11.8083 45.4372 11.857 46.0006 11.9132ZM44.3103 13.1234C44.314 14.0338 44.3215 14.9405 44.3252 15.8509C44.3289 16.7951 44.3364 17.7392 44.3401 18.6834C45.6685 18.792 47.0007 18.9119 48.3254 19.0581C48.6537 19.0955 49.2321 19.1292 49.4896 18.867C49.762 18.5935 49.7919 18.0202 49.7807 17.6606C49.7657 17.1285 49.7545 16.5965 49.7433 16.0645C49.7321 15.5362 49.721 15.0042 49.7135 14.4759C49.7098 14.2549 49.6463 14.0638 49.5269 13.8765C49.4597 13.7716 49.3665 13.6966 49.262 13.6442C47.6127 13.4306 45.9633 13.2583 44.3103 13.1234ZM47.7731 12.5127L47.7619 12.5239C47.6425 12.6251 47.4895 12.6588 47.3365 12.6438C46.982 12.6064 46.6238 12.5614 46.2693 12.5314L46.0081 12.5089V12.3291C45.4409 12.2729 44.8737 12.2242 44.3065 12.1755L44.3103 12.7188C45.6462 12.8274 46.982 12.9623 48.3142 13.1234L49.0269 13.0035C49.1724 12.9773 49.359 12.9211 49.4299 12.7787C49.4374 12.76 49.4486 12.745 49.456 12.7263C48.8963 12.6438 48.3366 12.5764 47.7731 12.5127ZM47.9336 11.5161C47.9373 11.6997 47.9373 11.8795 47.941 12.0631C47.941 12.0818 47.941 12.1006 47.941 12.1193C48.4784 12.183 49.0157 12.2504 49.553 12.3179C49.5568 12.2654 49.5568 12.213 49.5568 12.1605L49.5456 11.7147C49.0082 11.6472 48.4709 11.5798 47.9336 11.5161ZM49.5269 11.0815C48.9933 11.0103 48.4597 10.9429 47.9261 10.8829L47.9298 11.1077C48.4634 11.1714 49.0008 11.2351 49.5344 11.3063L49.5269 11.0815ZM55.7846 13.3332L55.6578 12.7113C55.2137 12.6251 54.7659 12.5427 54.3219 12.464C54.3517 12.6701 54.3853 12.8761 54.4152 13.0784C54.8704 13.1609 55.3294 13.2433 55.7846 13.3332ZM55.9861 14.3223L55.8742 13.7641C55.4115 13.6741 54.945 13.588 54.4823 13.5018L54.5682 14.0526C55.0383 14.1425 55.5122 14.2324 55.9861 14.3223ZM52.0531 14.0451C51.9225 14.933 51.7845 15.821 51.6539 16.7089C51.5195 17.6193 51.3852 18.5298 51.2546 19.4402C51.8442 19.5301 52.4338 19.6238 53.0196 19.7212C53.0606 19.3203 53.1017 18.9157 53.1502 18.5148L53.1875 18.2113L53.4898 18.2638C54.0159 18.3574 54.5458 18.4511 55.0719 18.5523L55.2697 18.5897L55.3033 18.792C55.3779 19.2566 55.4525 19.7175 55.5309 20.182C56.1055 20.2982 56.6802 20.4181 57.2548 20.5455C57.0645 19.6163 56.8817 18.6871 56.6914 17.758C56.4862 16.7576 56.2772 15.7573 56.0757 14.7569C55.5943 14.6633 55.113 14.5696 54.6316 14.4834L54.6465 14.5733C54.7547 15.3114 54.8704 16.0458 54.9861 16.7838L55.0495 17.1847L54.6503 17.1173C54.292 17.0536 53.9338 16.9899 53.5793 16.93L53.3144 16.885L53.3405 16.6153C53.4114 15.9109 53.4823 15.2065 53.5457 14.5022L53.5644 14.2998C53.2472 14.2436 52.93 14.1912 52.6129 14.1387C52.4226 14.105 52.236 14.075 52.0531 14.0451ZM52.1875 13.1159L52.1091 13.6442C52.2957 13.6741 52.4823 13.7041 52.6651 13.7341C52.9748 13.7828 53.2845 13.8353 53.5942 13.8877L53.6428 13.3594C53.2957 13.2995 52.9487 13.2395 52.6017 13.1833C52.4673 13.1609 52.3293 13.1384 52.1875 13.1159ZM52.333 12.1268L52.2472 12.715C52.389 12.7375 52.527 12.76 52.6688 12.7824C53.0084 12.8386 53.348 12.8948 53.6838 12.951C53.7025 12.7712 53.7174 12.5876 53.7323 12.4078L53.736 12.3628C53.3592 12.2991 52.9785 12.2354 52.6017 12.1717L52.333 12.1268ZM55.5234 12.0481C54.4935 11.8533 53.4636 11.6697 52.43 11.5048L52.3964 11.7222L52.6726 11.7671C53.639 11.9245 54.6055 12.0968 55.5719 12.2804L55.5234 12.0481ZM58.6206 15.2889C58.6616 16.1994 58.7027 17.1136 58.7474 18.024C58.7922 18.9869 58.8333 19.9498 58.8743 20.9126C60.2662 21.2648 61.6543 21.6395 63.0387 22.0366C63.0051 21.4634 62.9752 20.8939 62.9416 20.3207C62.2289 20.1146 61.5162 19.9085 60.8035 19.7062L60.6057 19.65L60.5945 19.444C60.546 18.6085 60.505 17.773 60.4602 16.9375L60.3968 15.6973C59.8035 15.5587 59.2139 15.4201 58.6206 15.2889ZM58.5795 14.3298L58.6019 14.8693C59.1952 15.0005 59.7848 15.1353 60.3744 15.2777L60.3483 14.7382C59.7587 14.5958 59.1691 14.4609 58.5795 14.3298ZM58.5347 13.307L58.5609 13.9064C59.1504 14.0376 59.74 14.1724 60.3259 14.3111L60.296 13.7079C59.7102 13.5692 59.1206 13.4344 58.5347 13.307ZM60.2624 13.0634C59.6803 12.9248 59.0945 12.7899 58.5086 12.6588L58.5198 12.8836C59.1057 13.011 59.6915 13.1459 60.2774 13.2845L60.2624 13.0634ZM65.9455 14.8019L65.9306 14.5808C65.3485 14.4085 64.7626 14.2399 64.1768 14.075L64.1917 14.2961C64.7775 14.4609 65.3634 14.6295 65.9455 14.8019ZM66.0164 15.836L65.9754 15.2365C65.3895 15.0604 64.8037 14.8918 64.2178 14.7307L64.2551 15.3302C64.841 15.4913 65.4306 15.6599 66.0164 15.836ZM66.0836 16.8063C66.0724 16.6265 66.0574 16.4467 66.0462 16.2706C65.4604 16.0945 64.8708 15.9259 64.2813 15.761L64.3148 16.2968C64.9044 16.4616 65.494 16.6302 66.0836 16.8063ZM64.688 22.5537C66.0948 23.0182 67.4978 23.509 68.8897 24.0186C68.8486 23.4491 68.8076 22.8796 68.7628 22.3101C68.0351 22.0404 67.3075 21.7706 66.5761 21.5083L66.397 21.4447L66.3858 21.2536C66.3298 20.4143 66.2739 19.5751 66.2179 18.7321C66.1843 18.2338 66.1507 17.7355 66.1134 17.2372C65.5238 17.0611 64.9305 16.8888 64.3372 16.7239L64.5126 19.6275C64.5723 20.6054 64.6283 21.5795 64.688 22.5537Z" fill="#ED7620"/>
<path d="M32.0673 19.3051L32.6905 23.2878L31.6494 19.3164H31.6867L32.0673 19.3051ZM35.6831 19.2527L35.4033 23.2428L35.2764 19.2564L35.6831 19.2527ZM28.5933 19.4662L29.8881 23.4189L28.1567 19.4925L28.5933 19.4662ZM24.8021 19.7735L26.6977 23.6737L24.3506 19.8184L24.8021 19.7735ZM21.2945 20.1744L23.1976 24.0896L20.8616 20.2418L21.0072 20.2193L21.2945 20.1744ZM17.9026 20.7064L19.8131 24.6366L17.4697 20.7776L17.5555 20.7626L17.9026 20.7064ZM14.5367 21.3583L16.4659 25.326L14.1151 21.4445L14.2979 21.407L14.5367 21.3583ZM11.1672 22.1376L13.4173 26.0903L10.7455 22.2462L11.1672 22.1376ZM7.34615 23.1492L10.1746 27.0644L6.94315 23.3028L7.34615 23.1492ZM68.1621 24.6815L63.6246 28.0086L68.6248 24.8501L68.1621 24.6815ZM38.881 19.2827L37.8362 23.2691L39.299 19.2939L39.09 19.2864L38.881 19.2827ZM42.37 19.4288L40.6274 23.3852L42.8066 19.455L42.37 19.4288ZM46.1761 19.7173L43.8066 23.6175L46.6239 19.7585L46.1761 19.7173ZM49.7509 20.0058L47.3217 24.0109L50.1054 20.2081L49.7509 20.0058ZM53.098 20.6165L50.7211 24.5317L53.5309 20.6876L53.1801 20.6277L53.098 20.6165ZM56.4639 21.2609L54.0757 25.1948L56.8855 21.3508L56.4639 21.2609ZM59.8334 22.0589L57.1355 25.9367L60.2513 22.1676L59.8334 22.0589ZM63.6246 23.1117L60.3857 26.8846L64.0351 23.2578L63.8559 23.1979V23.1829L63.6246 23.1117ZM2.78626 24.6853L6.92822 28.2259L2.31982 24.8464L2.78626 24.6853Z" fill="white"/>
<path d="M14.0777 66.3067L21.0892 63.8114C15.2083 64.8717 9.58496 66.0369 4.64819 62.4514C8.71926 60.6455 17.089 55.6887 23.1937 47.255C24.6416 45.2581 25.8244 43.0925 26.8469 40.8483C28.4551 37.3302 30.9627 32.5308 36.2838 30.7437C28.6566 34.7863 28.429 43.8081 22.7422 50.0013C25.164 48.7537 26.9402 47.1539 27.3021 46.7642C26.1379 50.7319 23.7348 54.5347 14.5329 59.7351C17.9547 59.0757 23.093 56.7415 26.6416 54.3924C22.8131 59.4316 15.0703 62.7698 9.28644 63.2532C14.3538 64.5645 27.7685 61.4885 31.3359 59.9299C28.679 61.7058 24.914 63.6803 21.8802 64.7593C27.2237 64.497 34.8621 62.5226 39.478 60.3645C37.0189 62.0542 35.2092 63.0808 33.4218 63.7177C40.3773 62.3952 48.6724 59.4541 53.7136 54.1488C59.7773 47.7683 58.9639 37.5475 52.0382 32.1824C60.8445 36.5584 60.4117 48.7799 54.5495 54.9506C44.4633 65.5648 26.8431 66.494 14.0777 66.3067Z" fill="white"/>
<path fill-rule="evenodd" clip-rule="evenodd" d="M16.4361 56.296C19.3914 55.6666 21.3094 53.0777 22.2348 51.3355C21.1639 52.2684 19.0967 54.9397 16.4361 56.296ZM53.2287 33.2018C47.3329 27.5556 37.993 27.7729 32.3696 33.6926C28.4515 37.8139 27.5746 44.5129 22.7461 50.0017C25.1678 48.7541 26.944 47.1543 27.306 46.7646C26.1455 50.7323 23.7386 54.5351 14.5368 59.7354C17.9586 59.076 23.0968 56.7419 26.6455 54.3927C22.817 59.432 15.0741 62.7665 9.29028 63.2535C14.3577 64.5648 27.7724 61.4889 31.3397 59.9303C28.6829 61.7062 24.9178 63.6806 21.8841 64.7597C27.2276 64.4974 34.866 62.5229 39.4818 60.3649C37.0228 62.0546 35.213 63.0812 33.4256 63.7181C40.3811 62.3955 48.6762 59.4544 53.7175 54.1492C59.3409 48.2295 59.1244 38.8517 53.2287 33.2018Z" fill="#001E5E"/>
<path fill-rule="evenodd" clip-rule="evenodd" d="M52.262 44.0667C52.9225 45.3855 53.4337 46.828 53.7807 48.3866C54.2397 50.4435 53.8068 51.1966 52.3814 52.8226C51.4261 53.9091 50.2545 54.7821 48.9969 55.4752C48.7171 55.6288 48.4335 55.7749 48.1424 55.9098C47.1685 56.3632 47.0304 56.0147 47.4782 55.1418C48.4223 53.3022 48.6648 50.8331 48.9111 48.3379C49.0604 46.813 49.2134 45.2769 49.5343 43.9094C49.9522 42.126 51.5194 42.5868 52.262 44.0667ZM35.5486 54.6022C38.0189 56.3557 40.9556 57.1387 43.8363 56.9626C47.1946 56.0297 47.579 52.1632 47.9633 48.2442C48.2096 45.749 48.4559 43.235 49.4373 41.3092C49.4858 41.2118 49.5455 41.1181 49.594 41.0207C49.8253 40.5374 49.9821 40.6311 49.6164 40.2114C49.5156 40.0953 49.4111 39.9867 49.3029 39.878C48.9783 39.5408 48.5193 39.331 48.135 39.5221L35.4292 52.8938C34.8173 53.5382 34.7352 54.0253 35.5486 54.6022ZM42.4631 34.6814C41.1197 34.082 39.6607 33.6361 38.0935 33.3589C36.0225 32.9954 35.2986 33.4638 33.7463 34.9699C32.709 35.9778 31.8992 37.1954 31.2686 38.488C31.1268 38.7765 30.9962 39.0687 30.8768 39.3647C30.4701 40.3613 30.8245 40.485 31.6716 39.9979C33.4553 38.9676 35.9031 38.6041 38.3734 38.2407C39.8846 38.0197 41.4033 37.7949 42.7504 37.409C44.5042 36.9069 43.9706 35.3558 42.4631 34.6814ZM32.7687 51.9384C30.9701 49.623 28.6752 44.3814 31.0261 41.7813C32.5821 40.0616 35.53 39.627 38.5114 39.1886C40.9817 38.8252 43.4706 38.458 45.3401 37.3827C45.4371 37.3265 45.5267 37.2666 45.6199 37.2141C46.0901 36.9594 45.9894 36.8058 46.4222 37.1542C46.5416 37.2479 46.6573 37.3528 46.7692 37.4539C47.12 37.7649 47.3514 38.2145 47.176 38.6079L34.4702 51.9796C33.862 52.6203 33.3806 52.7289 32.7687 51.9384ZM38.9294 32.5458C40.4145 32.8568 41.7989 33.3139 43.0863 33.9134C44.0564 34.363 44.6162 34.7713 45.7879 34.6814C46.411 34.6365 46.9148 34.3779 46.8103 33.7185C46.5901 32.3173 45.0677 31.2383 43.7505 31.006C42.2131 30.7325 40.4518 31.1933 38.9928 31.6879C37.836 32.0813 37.4815 32.2424 38.9294 32.5458Z" fill="#F7BE18"/>
<path fill-rule="evenodd" clip-rule="evenodd" d="M54.9339 38.5777C55.3108 39.4806 55.1914 39.5443 54.2473 39.0573C53.8966 38.8774 53.5234 38.75 53.1242 38.7051C52.3779 38.6226 51.6913 38.84 51.083 39.2783C50.6464 39.593 50.5457 39.7054 50.374 39.5855C49.7285 39.1359 49.124 38.484 49.7807 37.7909L51.7846 35.6815C52.2473 35.1945 52.9562 35.408 53.3369 35.8951C53.9824 36.7381 54.516 37.6373 54.9339 38.5777ZM47.7993 31.7438C46.8814 31.4104 46.8254 31.5303 47.3553 32.4557C47.5493 32.8004 47.6948 33.1676 47.7583 33.5647C47.8739 34.3065 47.6911 35.0072 47.2806 35.6403C46.9896 36.0937 46.8814 36.1986 47.0082 36.3672C47.4859 36.9929 48.165 37.5698 48.8217 36.8805L50.8256 34.7711C51.2883 34.2841 51.042 33.5797 50.542 33.2238C49.6763 32.6131 48.7546 32.1185 47.7993 31.7438ZM54.5533 47.5097C54.1727 46.0372 53.654 44.666 52.9973 43.4033C52.5047 42.4517 52.0719 41.9122 52.1055 40.732C52.1241 40.1026 52.3555 39.5855 53.0159 39.6605C54.4227 39.8178 55.5646 41.2902 55.8593 42.6016C56.2026 44.1339 55.8295 45.9211 55.4041 47.4047C55.0645 48.5849 54.9227 48.9484 54.5533 47.5097Z" fill="#C05E09"/>
<path fill-rule="evenodd" clip-rule="evenodd" d="M47.6426 55.704C47.6911 55.5616 47.777 55.3818 47.8143 55.3144C48.3329 54.3065 48.6277 53.1638 48.8292 52.0548C49.0494 50.8409 49.1688 49.6045 49.2882 48.3756C49.43 46.9219 49.5681 45.4195 49.9039 43.9958C50.0681 43.3027 50.445 42.9093 50.8554 42.7781C51.3704 42.8868 51.9115 43.3589 52.2659 44.067C52.9264 45.3858 53.4376 46.8282 53.7847 48.3868C54.2175 50.3276 53.8556 51.1069 52.6204 52.5531C51.1278 53.9281 49.027 55.0896 47.9934 55.5691C47.9262 55.5991 47.7695 55.6665 47.6426 55.704ZM48.3516 39.837C48.7322 39.7209 49.5382 40.1405 49.8181 40.4852C49.8778 40.6276 49.7509 40.6875 49.5905 41.021C49.542 41.1184 49.486 41.212 49.4337 41.3094C48.4524 43.2352 48.2061 45.7492 47.9598 48.2445C47.6426 51.4778 47.3254 54.6737 45.3403 56.2173C44.8141 56.3859 44.1873 56.4721 43.7693 56.5919C40.9185 56.7568 38.0937 55.955 35.7578 54.2953C35.6123 54.1941 35.3324 53.9768 35.3212 53.7745C35.3138 53.5684 35.5638 53.2874 35.6944 53.1488L48.3516 39.837ZM30.7128 40.0543C31.183 38.2035 34.4854 34.307 35.978 33.7712C36.631 33.5389 37.3623 33.6139 38.034 33.73C39.508 33.9885 40.9483 34.4157 42.3178 35.0264C43.0603 35.3598 43.8066 36.3564 43.5119 37.0271C43.3365 37.1844 43.0865 37.3155 42.7544 37.4092C41.4073 37.7951 39.8886 38.0199 38.3773 38.241C35.9071 38.6044 33.4592 38.9641 31.6755 39.9981C31.0897 40.3316 30.7427 40.3803 30.7128 40.0543ZM31.4367 42.1225C32.2241 41.2645 33.2614 40.6763 34.3585 40.3578C35.7205 39.9644 37.1683 39.7621 38.5676 39.556C39.7953 39.3762 41.0304 39.1963 42.2357 38.9153C43.3663 38.6531 44.5119 38.2897 45.5269 37.7089C45.6202 37.6565 45.706 37.5928 45.7993 37.5441C45.8925 37.4954 45.9784 37.4392 46.0642 37.3792C46.0717 37.3755 46.0791 37.368 46.0866 37.3605C46.1239 37.3905 46.1649 37.4242 46.1911 37.4429C46.5456 37.7277 47.1016 38.1173 47.1725 38.6119L34.4742 51.9761C34.2353 52.2271 34.0189 52.3957 33.8062 52.4632C31.7987 50.0766 29.1456 44.6177 31.4367 42.1225ZM38.0191 32.1002C39.4594 31.6357 42.2618 31.1186 43.6872 31.3696C44.844 31.5757 46.262 32.5348 46.456 33.775C46.4933 34.0185 46.5194 34.262 46.5045 34.4756C46.3179 34.5955 46.0642 34.6592 45.7843 34.6779C44.6126 34.7641 44.0529 34.3594 43.0827 33.9099C41.7954 33.3141 40.4072 32.8533 38.9258 32.5423C38.1161 32.3737 37.8736 32.2501 38.0191 32.1002Z" fill="#C05E09"/>
<path fill-rule="evenodd" clip-rule="evenodd" d="M54.2436 39.0575C53.7622 37.7724 53.0271 36.5585 52.0495 35.487C51.9562 35.532 51.8629 35.5956 51.7808 35.6818L49.777 37.7912C49.1203 38.4843 49.7248 39.1362 50.3703 39.5858C50.542 39.7057 50.6427 39.5933 51.0793 39.2786C51.6913 38.8402 52.3779 38.6192 53.1204 38.7053C53.5197 38.7503 53.8929 38.8777 54.2436 39.0575ZM51.0084 34.4941C49.9001 33.5612 48.6538 32.8831 47.3553 32.4597C47.5493 32.8044 47.6948 33.1716 47.7583 33.5687C47.8739 34.3106 47.6911 35.0112 47.2806 35.6444C46.9896 36.0977 46.8814 36.2026 47.0082 36.3712C47.4859 36.9969 48.165 37.5739 48.8217 36.8845L50.8256 34.7751C50.9077 34.6852 50.9674 34.5878 51.0084 34.4941ZM54.2697 46.5058C53.9264 45.4081 53.5048 44.374 53.001 43.4036C52.5085 42.452 52.0756 41.9125 52.1092 40.7323C52.1279 40.1028 52.3592 39.5858 53.0197 39.6607C53.6428 39.7282 54.21 40.0579 54.6802 40.5112C55.1205 42.5119 54.9899 44.6025 54.2697 46.5058Z" fill="#E78800"/>
<path fill-rule="evenodd" clip-rule="evenodd" d="M48.7993 52.2044C50.0306 51.6837 51.1762 50.9081 52.1539 49.8815C52.7509 49.2521 53.2509 48.5665 53.6539 47.8396C53.3144 46.4908 52.8479 45.232 52.2658 44.0668C51.9113 43.3624 51.3703 42.8866 50.8553 42.7779C50.4448 42.909 50.068 43.3024 49.9038 43.9956C49.5717 45.4193 49.4336 46.9217 49.2881 48.3754C49.1687 49.6043 49.0493 50.8407 48.8291 52.0546C48.8179 52.1033 48.8067 52.152 48.7993 52.2044ZM38.0749 50.6533C40.7765 52.8001 44.2207 53.482 47.3216 52.699C47.6574 51.3427 47.8104 49.7991 47.9634 48.2442C48.2097 45.749 48.456 43.235 49.4373 41.3092C49.4858 41.2118 49.5456 41.1182 49.5941 41.0207C49.7545 40.6873 49.8777 40.6273 49.8217 40.485C49.5418 40.1365 48.7321 39.7207 48.3552 39.8368L38.0749 50.6533ZM34.0337 40.4625C33.5374 43.6059 34.4815 46.9704 36.8286 49.4994L47.1723 38.6154C47.1014 38.1209 46.5454 37.7312 46.1909 37.4465C46.1648 37.4277 46.1238 37.394 46.0865 37.364C46.079 37.3715 46.0715 37.3753 46.0641 37.3828C45.9782 37.4427 45.8924 37.4989 45.7991 37.5476C45.7058 37.6001 45.6163 37.66 45.5267 37.7125C44.5118 38.2932 43.3662 38.6566 42.2355 38.9189C41.0265 39.1999 39.7914 39.3797 38.5675 39.5596C37.1682 39.7656 35.7204 39.9679 34.3584 40.3613C34.2464 40.3913 34.1419 40.425 34.0337 40.4625ZM38.2018 33.7598C37.6645 34.1382 37.157 34.5728 36.6868 35.0636C35.6009 36.2063 34.836 37.5401 34.3882 38.9564C35.6345 38.6416 37.0003 38.4393 38.3697 38.237C39.881 38.0159 41.3997 37.7912 42.7468 37.4052C43.0789 37.3116 43.3289 37.1767 43.5043 37.0231C43.799 36.3524 43.0527 35.3558 42.3102 35.0224C40.9967 34.4379 39.616 34.022 38.2018 33.7598ZM45.1685 31.9914C45.8178 32.4297 46.3439 33.0554 46.4559 33.7748C46.4932 34.0183 46.5193 34.2618 46.5044 34.4754C46.3178 34.5953 46.0641 34.659 45.7842 34.6777C44.6125 34.7639 44.0528 34.3592 43.0826 33.9096C42.0938 33.4488 41.0415 33.0741 39.9369 32.7819C41.5825 32.0663 43.3886 31.804 45.1685 31.9914Z" fill="#E78800"/>
<mask id="mask0_137_1027" style="mask-type:luminance" maskUnits="userSpaceOnUse" x="46" y="33" width="9" height="12">
<path d="M53.5795 38.795C53.1541 37.7497 52.5123 36.7269 51.6615 35.809L49.7733 37.7984C49.1166 38.4916 49.7211 39.1435 50.3667 39.5931C50.5383 39.713 50.6391 39.6006 51.0756 39.2859C51.6876 38.8475 52.3742 38.6265 53.1168 38.7126C53.2772 38.7239 53.4302 38.7538 53.5795 38.795ZM50.71 34.8911C49.7547 34.0855 48.7099 33.4861 47.6464 33.1077C47.6949 33.2538 47.7322 33.4074 47.7546 33.561C47.8703 34.3028 47.6874 35.0035 47.277 35.6366C46.9859 36.09 46.8777 36.1949 47.0046 36.3635C47.4822 36.9892 48.1613 37.5662 48.8181 36.8768L50.71 34.8911ZM53.5496 44.5649C53.378 44.1677 53.1951 43.7818 53.0011 43.4071C52.5085 42.4555 52.0757 41.916 52.1093 40.7358C52.1279 40.1064 52.3593 39.5893 53.0197 39.6643C53.3519 39.7017 53.6728 39.8141 53.9676 39.979C54.3706 41.6088 54.2474 43.2348 53.5496 44.5649Z" fill="white"/>
</mask>
<g mask="url(#mask0_137_1027)">
<path d="M54.3742 33.1116H46.8813V44.565H54.3742V33.1116Z" fill="url(#paint0_linear_137_1027)"/>
</g>
<mask id="mask1_137_1027" style="mask-type:luminance" maskUnits="userSpaceOnUse" x="39" y="32" width="14" height="16">
<path d="M49.3889 47.3224C50.6763 47.1688 51.848 46.6368 52.7286 45.7077C52.7883 45.644 52.848 45.5765 52.904 45.5128C52.71 45.0145 52.4935 44.535 52.2585 44.0666C51.904 43.3623 51.3629 42.8864 50.848 42.7778C50.4375 42.9089 50.0606 43.3023 49.8964 43.9954C49.6464 45.0782 49.5046 46.206 49.3889 47.3224ZM43.12 45.3405C44.6537 46.5469 46.4 47.2288 48.0531 47.3487C48.2807 45.1569 48.5755 43.0026 49.4375 41.3054C49.486 41.2079 49.5457 41.1143 49.5942 41.0169C49.7546 40.6834 49.8778 40.6235 49.8218 40.4811C49.5419 40.1327 48.7322 39.7168 48.3553 39.8329L43.12 45.3405ZM39.4482 39.4283C39.7281 41.0693 40.549 42.7553 41.8737 44.1903L47.1724 38.6153C47.1015 38.1207 46.5455 37.7311 46.191 37.4463C46.1649 37.4276 46.1239 37.3939 46.0866 37.3639C46.0791 37.3714 46.0716 37.3751 46.0642 37.3826C45.9784 37.4426 45.8925 37.4988 45.7992 37.5475C45.706 37.5999 45.6164 37.6599 45.5268 37.7123C44.5119 38.2931 43.3663 38.6565 42.2357 38.9188C41.3177 39.1323 40.3811 39.2859 39.4482 39.4283ZM40.7057 34.4003C39.8065 35.4044 39.3624 36.7008 39.3438 38.0945C40.5266 37.9147 41.6909 37.7086 42.7506 37.4089C43.0827 37.3152 43.3327 37.1803 43.5081 37.0267C43.8029 36.3561 43.0566 35.3595 42.314 35.026C41.7879 34.79 41.2505 34.5839 40.7057 34.4003ZM45.9485 32.6956C46.2097 33.0178 46.3963 33.3812 46.456 33.7746C46.4933 34.0182 46.5194 34.2617 46.5045 34.4753C46.3179 34.5951 46.0642 34.6588 45.7843 34.6776C44.6126 34.7637 44.0529 34.3591 43.0827 33.9095C42.6984 33.7297 42.3066 33.5648 41.9036 33.4112C43.0641 32.7293 44.482 32.497 45.9485 32.6956Z" fill="white"/>
</mask>
<g mask="url(#mask1_137_1027)">
<path d="M52.904 32.4973H39.3438V47.3527H52.904V32.4973Z" fill="url(#paint1_linear_137_1027)"/>
</g>
<path fill-rule="evenodd" clip-rule="evenodd" d="M38.9297 32.5458C40.3999 32.853 41.7731 33.3064 43.0492 33.8946C41.4596 32.6282 37.3774 32.336 39.3289 31.5754C39.217 31.6129 39.105 31.6504 38.9931 31.6878C37.8363 32.0812 37.4856 32.2423 38.9297 32.5458ZM54.5534 47.5099C54.1803 46.0524 53.6616 44.6961 53.0198 43.441C54.3519 44.9734 54.837 49.0535 55.5012 47.0603C55.4714 47.1764 55.4378 47.2888 55.408 47.4012C55.0647 48.5851 54.9229 48.9486 54.5534 47.5099ZM52.7213 45.0596C51.8518 43.8869 50.1727 42.1409 49.695 44.3927C49.6055 44.8085 49.4562 46.3334 49.2323 47.7908C49.1428 48.971 48.9189 52.9612 47.6241 54.8458C48.4524 53.0436 48.6838 50.6982 48.9152 48.3341C49.0234 47.2214 49.1353 46.1086 49.3107 45.0558C49.3779 44.6624 49.4525 44.2765 49.5383 43.9056C49.9562 42.1222 51.5235 42.583 52.2623 44.063C52.4228 44.3889 52.5758 44.7224 52.7213 45.0596ZM53.4564 38.7652C53.7325 38.8289 53.9937 38.9301 54.2475 39.0575C55.1915 39.5445 55.3109 39.4808 54.9341 38.5779C54.7251 38.1058 54.4863 37.6487 54.2176 37.1991C54.296 37.4014 54.3781 37.63 54.449 37.8473C54.9079 39.2935 54.0609 38.4093 52.8183 38.5217C51.9377 38.3718 51.3332 39.0575 50.7063 39.1062C50.2137 39.1436 49.5383 38.4767 49.6204 38.0646C49.6279 38.0271 49.6353 37.9897 49.6465 37.9559C49.2099 38.5891 49.7734 39.1811 50.3704 39.5932C50.5421 39.7131 50.6428 39.6007 51.0794 39.286C51.6914 38.8476 52.378 38.6266 53.1206 38.7128C53.2362 38.7203 53.3482 38.739 53.4564 38.7652ZM41.4596 34.2693C42.6686 35.086 44.4821 36.6858 42.2656 37.2741C41.8589 37.3827 40.3626 37.6 38.9259 37.896C37.7542 38.0421 33.7317 38.3568 31.9592 39.8442C33.269 39.1624 34.8959 38.7989 36.6087 38.5142L36.6012 38.5179C37.1871 38.4205 37.7804 38.3344 38.3774 38.2444C39.8887 38.0234 41.4074 37.7986 42.7544 37.4127C44.5083 36.9106 43.9784 35.3595 42.4709 34.6851C42.1388 34.5353 41.7992 34.4004 41.4596 34.2693ZM47.9562 33.8571C48.1502 34.7376 47.4935 35.3783 47.4785 36.0077C47.4673 36.5023 48.1614 37.1467 48.5681 37.0493C48.6054 37.0418 48.639 37.0305 48.6763 37.0193C48.0681 37.4876 47.4524 36.9519 47.0121 36.3711C46.8852 36.2025 46.9934 36.0976 47.2845 35.6443C47.4188 35.4382 47.527 35.2209 47.6091 35.0036L47.6054 35.0111C47.7808 34.554 47.8405 34.0707 47.7584 33.5686C47.695 33.1715 47.5532 32.8043 47.3554 32.4596C46.8292 31.5342 46.8852 31.4143 47.7994 31.7478C48.2771 31.9351 48.7472 32.1524 49.2062 32.3997C49.001 32.3323 48.7696 32.2573 48.5532 32.2011C47.0905 31.804 48.0084 32.6095 47.9562 33.8571ZM43.1948 33.962C44.1015 34.3929 44.6612 34.7676 45.7882 34.6814C46.4113 34.6364 46.9151 34.3779 46.8106 33.7185C46.68 32.8868 46.0904 32.1674 45.359 31.6729C46.0643 32.3885 46.4412 33.3139 46.2471 33.9096C46.0009 34.6664 44.8068 34.6477 43.1948 33.962ZM44.706 37.7312C45.8516 37.3415 46.318 37.8548 46.3031 38.4468C46.2733 39.6457 36.799 48.7425 35.187 51.2303C39.161 47.049 43.094 42.9315 47.1912 38.6191C47.3666 38.222 47.1315 37.7724 46.7845 37.4651C46.6688 37.364 46.5568 37.2628 46.4374 37.1654C46.0046 36.817 46.1016 36.9706 45.6352 37.2254C45.5381 37.2778 45.4486 37.3415 45.3553 37.394C45.1426 37.5138 44.9262 37.6262 44.706 37.7312ZM45.0829 42.7329L36.1422 52.1444C38.6088 50.3985 47.0531 40.4999 48.3517 40.4062C48.9375 40.365 49.4711 40.8109 49.139 41.9761C49.2323 41.7475 49.3331 41.5265 49.4413 41.3092C49.4898 41.2118 49.5495 41.1181 49.598 41.0207C49.8294 40.5374 49.9861 40.631 49.6204 40.2114C49.5197 40.0953 49.4152 39.9866 49.307 39.878C48.9823 39.5408 48.5233 39.331 48.139 39.522L45.0829 42.7366V42.7329ZM52.9452 43.3024C52.475 42.4144 52.0757 41.8674 52.1056 40.7322C52.1242 40.1028 52.3556 39.5857 53.0161 39.6607C53.8482 39.7543 54.5908 40.3088 55.1169 41.0207C54.3743 40.3463 53.434 40.0091 52.8482 40.2376C52.113 40.5224 52.1877 41.7176 52.9452 43.3024Z" fill="white"/>
<path d="M63.2366 34.4567L59.6058 35.9891L61.7365 33.9622C62.2365 34.1233 62.7366 34.2881 63.2366 34.4567ZM7.88354 34.4567L11.5143 35.9891L9.38361 33.9622C8.87985 34.1233 8.37983 34.2881 7.88354 34.4567Z" fill="white"/>
<path d="M35.56 23.8237C46.2246 23.8237 56.0944 25.6783 64.1507 28.8292V34.1607C55.9862 31.272 46.15 29.586 35.56 29.586C24.97 29.586 15.1338 31.272 6.96924 34.1607V28.8292C15.0255 25.6783 24.8954 23.8237 35.56 23.8237Z" fill="white"/>
<path fill-rule="evenodd" clip-rule="evenodd" d="M15.0333 28.5032L12.8691 29.1064L12.7758 29.1326C12.6825 29.1588 12.6079 29.1925 12.5482 29.2337C12.4885 29.275 12.4437 29.3237 12.4213 29.3836C12.3952 29.4436 12.3802 29.526 12.3728 29.6271C12.3653 29.7283 12.3616 29.8444 12.3616 29.9718C12.3616 30.1217 12.3653 30.2453 12.3728 30.339C12.3802 30.4327 12.4026 30.5039 12.44 30.5526C12.4773 30.6013 12.5295 30.6275 12.5929 30.6312C12.6601 30.635 12.7459 30.62 12.8542 30.5863L12.9512 30.5601L13.6751 30.3502L15.0744 29.9718C15.0707 30.013 15.0632 30.0543 15.0595 30.0955C15.0371 30.2378 14.9848 30.369 14.9027 30.4814C14.8207 30.5975 14.7162 30.6837 14.593 30.7474C14.4699 30.8111 14.3244 30.8673 14.1527 30.916L12.7646 31.3206C12.522 31.3918 12.3205 31.4368 12.1638 31.4517C12.0071 31.4705 11.8728 31.433 11.7571 31.3506C11.6414 31.2644 11.5705 31.1558 11.5444 31.0209C11.5183 30.886 11.5071 30.6762 11.5071 30.3915V30.0618C11.5071 29.7882 11.5183 29.5822 11.5407 29.4361C11.5631 29.2899 11.6302 29.1438 11.7459 28.994C11.8578 28.8441 12.0071 28.728 12.1862 28.6418C12.3691 28.5556 12.5668 28.4807 12.7833 28.417L14.1378 28.0198C14.3467 27.9599 14.5147 27.9337 14.6378 27.9412C14.7647 27.9487 14.8542 27.9974 14.9102 28.0835C14.9662 28.1697 14.9998 28.2858 15.0184 28.4245C15.0296 28.4544 15.0296 28.4807 15.0333 28.5032ZM15.9326 27.5777L16.7871 27.3942V28.4357L18.5745 28.0498V27.012L19.4328 26.8284V29.7283L18.5745 29.9119V28.8104L16.7871 29.1963V30.2978L15.9326 30.4814V27.5777ZM21.6493 26.4425L22.7837 26.2739L24.336 28.9415L23.3844 29.0839L23.1046 28.6043L21.3508 28.8666L21.0933 29.4248L20.1306 29.5672L21.6493 26.4425ZM21.6754 28.2072L22.7762 28.0423L22.2165 27.0532L21.6754 28.2072ZM25.0002 25.903L26.3622 25.7906L27.3585 27.5665L28.3548 25.6295L29.7541 25.5171V28.417L28.8809 28.4882V26.3975L27.6906 28.5856L27.0301 28.638L25.8696 26.6523V28.7317L25.0002 28.8029V25.903ZM30.5825 25.4759L32.7803 25.3672C33.0154 25.356 33.2281 25.3672 33.4184 25.4047C33.6087 25.4422 33.7393 25.5246 33.814 25.652C33.8886 25.7794 33.9371 25.903 33.9595 26.0266C33.9819 26.1503 33.9931 26.2814 33.9931 26.4238C33.9931 26.5736 33.9819 26.7048 33.9595 26.8247C33.9371 26.9446 33.8886 27.0644 33.8177 27.1881C33.7468 27.3117 33.6535 27.4016 33.5304 27.4541C33.411 27.5065 33.2543 27.5365 33.0677 27.544L32.8998 27.5515L31.4519 27.6227V28.3308L30.5788 28.3758V25.4759H30.5825ZM31.4557 26.9146L32.6199 26.8584L32.6759 26.8546C32.7617 26.8509 32.8363 26.8396 32.8998 26.8172C32.9632 26.7984 33.008 26.7685 33.0304 26.7273C33.0565 26.686 33.0714 26.6486 33.0751 26.6111C33.0789 26.5736 33.0826 26.5287 33.0826 26.4725C33.0826 26.4238 33.0789 26.3751 33.0751 26.3339C33.0714 26.2926 33.0527 26.2439 33.0266 26.1952C32.9968 26.1465 32.9371 26.1128 32.8475 26.1016C32.758 26.0866 32.6162 26.0866 32.4221 26.0941L31.4594 26.1428V26.9146H31.4557ZM34.8215 25.3373L35.7021 25.3223V28.2222L34.8215 28.2371V25.3373ZM37.9074 28.2671C37.6873 28.2634 37.4858 28.2446 37.3029 28.2109C37.1201 28.1772 36.9783 28.106 36.8738 27.9974C36.7693 27.8887 36.7022 27.7501 36.6723 27.5777C36.6425 27.4054 36.6275 27.2368 36.6275 27.0644V26.465C36.6275 26.2215 36.6462 26.0379 36.6798 25.9142C36.7171 25.7906 36.7842 25.6819 36.885 25.5845C36.9857 25.4871 37.1163 25.4234 37.2731 25.4009C37.4335 25.3785 37.635 25.3672 37.8813 25.371L39.2918 25.3972C39.5381 25.4009 39.7396 25.4197 39.9 25.4496C40.0605 25.4796 40.1874 25.5433 40.2881 25.6407C40.3851 25.7381 40.4486 25.8505 40.4747 25.9779C40.5008 26.1016 40.512 26.2477 40.512 26.4088V26.5399V27.1394V27.3267C40.512 27.4916 40.5008 27.6339 40.4747 27.7538C40.4486 27.8737 40.3963 27.9749 40.3142 28.0536C40.2321 28.136 40.1015 28.1959 39.9262 28.2409C39.7471 28.2821 39.5306 28.3008 39.2769 28.2971L37.9074 28.2671ZM39.0679 27.5777H39.1426C39.2433 27.5777 39.3329 27.5702 39.4112 27.5478C39.4896 27.5253 39.5456 27.4916 39.5754 27.4391C39.6053 27.3867 39.6239 27.3305 39.6314 27.2668C39.6388 27.2068 39.6426 27.1319 39.6426 27.0457V26.6523C39.6426 26.5624 39.6388 26.4875 39.6314 26.4275C39.6239 26.3638 39.6053 26.3076 39.5754 26.2589C39.5456 26.2065 39.4933 26.169 39.4112 26.1428C39.3329 26.1165 39.2433 26.1016 39.15 26.1016H39.0642L38.0828 26.0828H38.0082C37.9037 26.0828 37.8141 26.0903 37.7358 26.1128C37.6574 26.1353 37.5977 26.1765 37.5604 26.2364C37.5231 26.2964 37.5044 26.4238 37.5044 26.6186V27.012C37.5044 27.1019 37.5082 27.1768 37.5119 27.2368C37.5156 27.2967 37.5343 27.3529 37.5679 27.4054C37.6014 27.4578 37.6537 27.4953 37.732 27.5215C37.8104 27.5478 37.9 27.559 38.0082 27.5627H38.0828L39.0679 27.5777ZM41.3292 25.5171L42.6763 25.6257L44.3293 27.855V25.7606L45.2025 25.8318V28.7317L43.8517 28.623L42.2024 26.42V28.4882L41.3292 28.417V25.5171ZM49.4676 27.1506L47.2921 26.8284L47.2175 26.8172C47.1466 26.8059 47.0869 26.8059 47.0347 26.8134C46.9824 26.8209 46.9451 26.8434 46.9302 26.8771C46.9115 26.9108 46.9041 26.9483 46.9041 26.9933C46.9041 27.0495 46.9115 27.0907 46.9227 27.1206C46.9563 27.1806 47.016 27.2218 47.1018 27.2443C47.1877 27.2668 47.2996 27.2892 47.4414 27.3117L48.5049 27.4953L48.6318 27.514C48.8407 27.544 49.0161 27.5927 49.1691 27.6527C49.3183 27.7164 49.4191 27.7988 49.4713 27.9037C49.5236 28.0086 49.5572 28.1023 49.5721 28.1809C49.587 28.2634 49.5945 28.3495 49.5945 28.4395C49.5945 28.5444 49.5833 28.6455 49.5646 28.7392C49.546 28.8329 49.5012 28.9303 49.434 29.0314C49.3669 29.1326 49.2251 29.1888 49.0124 29.2038C48.7997 29.215 48.5646 29.2038 48.3071 29.1663L46.8817 28.9527C46.6951 28.9265 46.5384 28.8741 46.419 28.8029C46.2996 28.7317 46.21 28.653 46.154 28.5631C46.0981 28.4732 46.0645 28.372 46.0533 28.2521C46.0496 28.2109 46.0458 28.1697 46.0421 28.1247L47.225 28.2933L48.2325 28.4432L48.2847 28.4507C48.3892 28.4657 48.475 28.4732 48.5422 28.4732C48.6094 28.4732 48.6541 28.4582 48.6765 28.432C48.7026 28.4057 48.7138 28.3683 48.7138 28.3233C48.7138 28.2784 48.7027 28.2334 48.684 28.1922C48.6653 28.1472 48.6206 28.1135 48.5497 28.091C48.4788 28.0685 48.3892 28.0461 48.2773 28.0311L48.169 28.0161L47.0384 27.8213C46.8108 27.7875 46.6167 27.7388 46.4675 27.6789C46.3145 27.6189 46.2137 27.5328 46.1578 27.4204C46.1055 27.308 46.0682 27.2068 46.057 27.1094C46.0421 27.0157 46.0346 26.9146 46.0346 26.8059C46.0346 26.686 46.0421 26.5811 46.057 26.4912C46.0719 26.405 46.1093 26.3151 46.169 26.2215C46.2287 26.1315 46.3257 26.0753 46.4638 26.0529C46.6018 26.0304 46.7809 26.0379 47.0011 26.0716L47.1653 26.0978L48.6392 26.3189C48.7885 26.3413 48.9303 26.3863 49.0646 26.45C49.1989 26.5137 49.296 26.5961 49.3519 26.6898C49.4079 26.7835 49.4415 26.8884 49.4527 27.0008C49.4601 27.0495 49.4639 27.0982 49.4676 27.1506ZM50.4229 26.6111L51.2811 26.7685V27.8063L53.0797 28.1322V27.0944L53.9417 27.2518V30.1517L53.0797 29.9943V28.8928L51.2811 28.5668V29.6684L50.4229 29.511V26.6111ZM54.8036 27.4916L55.6544 27.7089V30.6088L54.8036 30.3915V27.4916ZM56.5798 27.9149L58.6919 28.5294C58.9195 28.5968 59.1247 28.6792 59.3076 28.7767C59.4904 28.8778 59.6173 29.0015 59.6882 29.1513C59.7591 29.3012 59.8039 29.4436 59.8262 29.5709C59.8486 29.7021 59.8598 29.837 59.8598 29.9756C59.8598 30.1254 59.8486 30.2528 59.8262 30.3652C59.8039 30.4776 59.7591 30.5825 59.6919 30.6837C59.6247 30.7849 59.5315 30.841 59.4158 30.856C59.3001 30.8673 59.1508 30.8485 58.9717 30.7961L58.8113 30.7511L57.4194 30.3465V31.0584L56.5798 30.8148V27.9149ZM57.4194 29.6421L58.5389 29.9681L58.5911 29.9831C58.6732 30.0056 58.7441 30.0205 58.8075 30.0205C58.8672 30.0205 58.9083 30.0056 58.9344 29.9718C58.9568 29.9419 58.9717 29.9081 58.9755 29.8707C58.9792 29.8332 58.9829 29.7882 58.9829 29.7358C58.9829 29.6871 58.9792 29.6384 58.9755 29.5934C58.9717 29.5485 58.9531 29.496 58.927 29.4398C58.9008 29.3799 58.8411 29.3312 58.7553 29.2862C58.6695 29.2412 58.5314 29.1925 58.3486 29.1401L57.4232 28.8703V29.6421H57.4194Z" fill="#001E5E"/>
<path fill-rule="evenodd" clip-rule="evenodd" d="M15.0333 28.1214L12.8691 28.7246L12.7758 28.7508C12.6825 28.7771 12.6079 28.8108 12.5482 28.852C12.4885 28.8932 12.4437 28.9419 12.4213 29.0019C12.3952 29.0618 12.3802 29.1442 12.3728 29.2454C12.3653 29.3465 12.3616 29.4627 12.3616 29.5901C12.3616 29.7399 12.3653 29.8636 12.3728 29.9573C12.3802 30.0509 12.4026 30.1221 12.44 30.1708C12.4773 30.2195 12.5295 30.2457 12.5929 30.2495C12.6601 30.2532 12.7459 30.2382 12.8542 30.2045L12.9512 30.1783L13.6751 29.9685L15.0744 29.5901C15.0707 29.6313 15.0632 29.6725 15.0595 29.7137C15.0371 29.8561 14.9848 29.9872 14.9027 30.0996C14.8207 30.2158 14.7162 30.3019 14.593 30.3656C14.4699 30.4293 14.3244 30.4855 14.1527 30.5342L12.7646 30.9389C12.522 31.0101 12.3205 31.055 12.1638 31.07C12.0071 31.0887 11.8728 31.0513 11.7571 30.9688C11.6414 30.8827 11.5705 30.774 11.5444 30.6391C11.5183 30.5043 11.5071 30.2944 11.5071 30.0097V29.68C11.5071 29.4065 11.5183 29.2004 11.5407 29.0543C11.5631 28.9082 11.6302 28.7621 11.7459 28.6122C11.8578 28.4623 12.0071 28.3462 12.1862 28.26C12.3691 28.1739 12.5668 28.0989 12.7833 28.0352L14.1378 27.6381C14.3467 27.5781 14.5147 27.5519 14.6378 27.5594C14.7647 27.5669 14.8542 27.6156 14.9102 27.7018C14.9662 27.788 14.9998 27.9041 15.0184 28.0427C15.0296 28.069 15.0296 28.0952 15.0333 28.1214ZM15.9326 27.196L16.7871 27.0124V28.0502L18.5745 27.6643V26.6265L19.4328 26.4429V29.3428L18.5745 29.5264V28.4249L16.7871 28.8108V29.9123L15.9326 30.0959V27.196ZM21.6493 26.0608L22.7837 25.8922L24.336 28.5598L23.3844 28.7021L23.1046 28.2226L21.3508 28.4848L21.0933 29.0431L20.1306 29.1854L21.6493 26.0608ZM21.6754 27.8217L22.7762 27.6568L22.2165 26.6677L21.6754 27.8217ZM25.0002 25.5212L26.3622 25.4088L27.3585 27.1847L28.3548 25.2477L29.7541 25.1353V28.0352L28.8809 28.1064V26.0158L27.6906 28.2038L27.0301 28.2563L25.8696 26.2706V28.3499L25.0002 28.4211V25.5212ZM30.5825 25.0904L32.7803 24.9817C33.0154 24.9705 33.2281 24.9817 33.4184 25.0192C33.6087 25.0567 33.7393 25.1391 33.814 25.2665C33.8886 25.3939 33.9371 25.5175 33.9595 25.6411C33.9819 25.7648 33.9931 25.8959 33.9931 26.0383C33.9931 26.1881 33.9819 26.3193 33.9595 26.4392C33.9371 26.5591 33.8886 26.679 33.8177 26.8026C33.7468 26.9262 33.6535 27.0161 33.5304 27.0686C33.411 27.1211 33.2543 27.151 33.0677 27.1585L32.8998 27.166L31.4519 27.2372V27.9491L30.5788 27.994V25.0904H30.5825ZM31.4557 26.5291L32.6199 26.4729L32.6759 26.4691C32.7617 26.4654 32.8363 26.4542 32.8998 26.4317C32.9632 26.4129 33.008 26.383 33.0304 26.3418C33.0565 26.3005 33.0714 26.2631 33.0751 26.2256C33.0789 26.1881 33.0826 26.1432 33.0826 26.087C33.0826 26.0383 33.0789 25.9896 33.0751 25.9484C33.0714 25.9071 33.0527 25.8584 33.0266 25.8097C32.9968 25.761 32.9371 25.7273 32.8475 25.7161C32.758 25.7011 32.6162 25.7011 32.4221 25.7086L31.4594 25.7573V26.5291H31.4557ZM34.8215 24.9518L35.7021 24.9368V27.8367L34.8215 27.8516V24.9518ZM37.9074 27.8816C37.6873 27.8779 37.4858 27.8591 37.3029 27.8254C37.1201 27.7917 36.9783 27.7205 36.8738 27.6119C36.7693 27.5032 36.7022 27.3646 36.6723 27.1922C36.6425 27.0199 36.6275 26.8513 36.6275 26.679V26.0795C36.6275 25.836 36.6462 25.6524 36.6798 25.5287C36.7171 25.4051 36.7842 25.2964 36.885 25.199C36.9857 25.1016 37.1163 25.0379 37.2731 25.0154C37.4335 24.993 37.635 24.9817 37.8813 24.9855L39.2918 25.0117C39.5381 25.0154 39.7396 25.0342 39.9 25.0642C40.0605 25.0941 40.1874 25.1578 40.2881 25.2552C40.3851 25.3526 40.4486 25.465 40.4747 25.5924C40.5008 25.7161 40.512 25.8622 40.512 26.0233V26.1544V26.7539V26.9412C40.512 27.1061 40.5008 27.2484 40.4747 27.3683C40.4486 27.4882 40.3963 27.5894 40.3142 27.6681C40.2321 27.7505 40.1015 27.8104 39.9262 27.8554C39.7471 27.8966 39.5306 27.9153 39.2769 27.9116L37.9074 27.8816ZM39.0679 27.196H39.1426C39.2433 27.196 39.3329 27.1885 39.4112 27.166C39.4896 27.1435 39.5456 27.1098 39.5754 27.0574C39.6053 27.0049 39.6239 26.9487 39.6314 26.885C39.6388 26.8251 39.6426 26.7501 39.6426 26.664V26.2706C39.6426 26.1806 39.6388 26.1057 39.6314 26.0458C39.6239 25.9821 39.6053 25.9259 39.5754 25.8772C39.5456 25.8247 39.4933 25.7873 39.4112 25.761C39.3329 25.7348 39.2433 25.7198 39.15 25.7198H39.0642L38.0828 25.7011H38.0082C37.9037 25.7011 37.8141 25.7086 37.7358 25.7311C37.6574 25.7535 37.5977 25.7947 37.5604 25.8547C37.5231 25.9146 37.5044 26.042 37.5044 26.2368V26.6302C37.5044 26.7202 37.5082 26.7951 37.5119 26.855C37.5156 26.915 37.5343 26.9712 37.5679 27.0236C37.6014 27.0761 37.6537 27.1136 37.732 27.1398C37.8104 27.166 37.9 27.1773 38.0082 27.181H38.0828L39.0679 27.196ZM41.3292 25.1316L42.6763 25.2402L44.3293 27.4695V25.3751L45.2025 25.4463V28.3462L43.8517 28.2375L42.2024 26.0345V28.1027L41.3292 28.0315V25.1316ZM49.4676 26.7651L47.2921 26.4429L47.2175 26.4317C47.1466 26.4204 47.0869 26.4204 47.0347 26.4279C46.9824 26.4354 46.9451 26.4579 46.9302 26.4916C46.9115 26.5253 46.9041 26.5628 46.9041 26.6078C46.9041 26.664 46.9115 26.7052 46.9227 26.7351C46.9563 26.7951 47.016 26.8363 47.1018 26.8588C47.1877 26.8813 47.2996 26.9037 47.4414 26.9262L48.5049 27.1098L48.6318 27.1285C48.8407 27.1585 49.0161 27.2072 49.1691 27.2672C49.3183 27.3309 49.4191 27.4133 49.4713 27.5182C49.5236 27.6231 49.5572 27.7168 49.5721 27.7954C49.587 27.8779 49.5945 27.964 49.5945 28.054C49.5945 28.1589 49.5833 28.26 49.5646 28.3537C49.546 28.4474 49.5012 28.5448 49.434 28.6459C49.3669 28.7471 49.2251 28.8033 49.0124 28.8183C48.7997 28.8295 48.5646 28.8183 48.3071 28.7808L46.8817 28.5673C46.6951 28.541 46.5384 28.4886 46.419 28.4174C46.2996 28.3462 46.21 28.2675 46.154 28.1776C46.0981 28.0877 46.0645 27.9865 46.0533 27.8666C46.0496 27.8254 46.0458 27.7842 46.0421 27.7392L47.225 27.9078L48.2325 28.0577L48.2847 28.0652C48.3892 28.0802 48.475 28.0877 48.5422 28.0877C48.6094 28.0877 48.6541 28.0727 48.6765 28.0465C48.7026 28.0202 48.7138 27.9828 48.7138 27.9378C48.7138 27.8929 48.7027 27.8479 48.684 27.8067C48.6653 27.7617 48.6206 27.728 48.5497 27.7055C48.4788 27.683 48.3892 27.6606 48.2773 27.6456L48.169 27.6306L47.0384 27.4358C46.8108 27.4021 46.6167 27.3533 46.4675 27.2934C46.3145 27.2335 46.2137 27.1473 46.1578 27.0349C46.1055 26.9225 46.0682 26.8213 46.057 26.7239C46.0421 26.6302 46.0346 26.5291 46.0346 26.4204C46.0346 26.3005 46.0421 26.1956 46.057 26.1057C46.0719 26.0158 46.1093 25.9296 46.169 25.836C46.2287 25.746 46.3257 25.6898 46.4638 25.6674C46.6018 25.6449 46.7809 25.6524 47.0011 25.6861L47.1653 25.7123L48.6392 25.9334C48.7885 25.9559 48.9303 26.0008 49.0646 26.0645C49.1989 26.1282 49.296 26.2106 49.3519 26.3043C49.4079 26.398 49.4415 26.5029 49.4527 26.6153C49.4601 26.664 49.4639 26.7164 49.4676 26.7651ZM50.4229 26.2256L51.2811 26.383V27.4208L53.0797 27.7467V26.7089L53.9417 26.8663V29.7662L53.0797 29.6088V28.5073L51.2811 28.1813V29.2829L50.4229 29.1255V26.2256ZM54.8036 27.1098L55.6544 27.3271V30.227L54.8036 30.0097V27.1098ZM56.5798 27.5332L58.6919 28.1476C58.9195 28.2151 59.1247 28.2975 59.3076 28.3949C59.4904 28.4961 59.6173 28.6197 59.6882 28.7696C59.7591 28.9194 59.8039 29.0618 59.8262 29.1892C59.8486 29.3203 59.8598 29.4552 59.8598 29.5938C59.8598 29.7437 59.8486 29.8711 59.8262 29.9835C59.8039 30.0959 59.7591 30.2008 59.6919 30.3019C59.6247 30.4031 59.5315 30.4593 59.4158 30.4743C59.3001 30.4855 59.1508 30.4668 58.9717 30.4143L58.8113 30.3694L57.4194 29.9647V30.6729L56.5798 30.4293V27.5332ZM57.4194 29.2566L58.5389 29.5826L58.5911 29.5976C58.6732 29.6201 58.7441 29.635 58.8075 29.635C58.8672 29.635 58.9083 29.6201 58.9344 29.5863C58.9568 29.5564 58.9717 29.5226 58.9755 29.4852C58.9792 29.4477 58.9829 29.4028 58.9829 29.3503C58.9829 29.3016 58.9792 29.2529 58.9755 29.2079C58.9717 29.163 58.9531 29.1105 58.927 29.0543C58.9008 28.9944 58.8411 28.9457 58.7553 28.9007C58.6695 28.8557 58.5314 28.807 58.3486 28.7546L57.4232 28.4848V29.2566H57.4194Z" fill="#ED7620"/>
<path d="M20.9365 3.35591L18.9215 3.70434C18.8581 3.71558 18.8058 3.73057 18.761 3.75305C18.7163 3.77553 18.6901 3.8055 18.6789 3.83922C18.6678 3.87294 18.6678 3.91041 18.6715 3.95162C18.6789 4.00033 18.6901 4.03779 18.7088 4.06027C18.7461 4.10148 18.8058 4.12396 18.8842 4.12022C18.9625 4.11647 19.0633 4.10523 19.1902 4.08275L20.1492 3.94038L20.2648 3.92165C20.4514 3.88793 20.6119 3.88043 20.7537 3.89167C20.8955 3.90291 20.9962 3.94787 21.0559 4.02655C21.1193 4.10523 21.1604 4.17642 21.1865 4.24386C21.2126 4.3113 21.2313 4.38623 21.2462 4.46865C21.2611 4.56232 21.2686 4.65599 21.2649 4.74216C21.2611 4.83208 21.2388 4.92949 21.1977 5.03814C21.1529 5.14679 21.041 5.23671 20.8544 5.31165C20.6716 5.38283 20.4626 5.43903 20.235 5.48024L18.9551 5.7013C18.7872 5.73127 18.6454 5.73127 18.5297 5.7013C18.414 5.67132 18.3245 5.62636 18.2647 5.56267C18.205 5.49898 18.1603 5.41655 18.1304 5.31539C18.123 5.28542 18.1118 5.2517 18.1043 5.22173L20.0671 4.8583L20.1118 4.85081C20.2051 4.83582 20.2798 4.81709 20.3395 4.79461C20.3954 4.77588 20.4327 4.74965 20.4514 4.71968C20.4701 4.68971 20.4738 4.65224 20.4663 4.61103C20.4589 4.56981 20.4439 4.53609 20.4216 4.50237C20.3992 4.46865 20.3544 4.45367 20.2872 4.44992C20.2201 4.44992 20.138 4.45741 20.0372 4.4724L19.9402 4.49113L18.9252 4.641C18.72 4.67472 18.5446 4.68971 18.4028 4.67847C18.261 4.67097 18.1565 4.62227 18.0931 4.53984C18.0297 4.45741 17.9849 4.37499 17.955 4.29256C17.9289 4.21388 17.9065 4.12396 17.8916 4.0303C17.8729 3.92165 17.8655 3.82798 17.8655 3.74555C17.8655 3.66313 17.8841 3.57321 17.9215 3.4758C17.9588 3.37839 18.0371 3.29971 18.1528 3.23976C18.2722 3.17981 18.4289 3.13485 18.6267 3.10113L18.776 3.07491L20.0969 2.84636C20.2312 2.82388 20.3618 2.82014 20.4887 2.83887C20.6156 2.8576 20.7126 2.90256 20.776 2.97C20.8395 3.03744 20.8843 3.11987 20.9141 3.21728C20.9141 3.26599 20.9253 3.31095 20.9365 3.35591ZM21.8582 2.59909L23.8209 2.33308C24.0336 2.3031 24.2239 2.29936 24.3993 2.31809C24.5747 2.33682 24.7016 2.40051 24.7837 2.50542C24.8658 2.61407 24.9217 2.71898 24.9591 2.82763C24.9926 2.93628 25.0188 3.05243 25.0374 3.17607C25.0561 3.3072 25.0598 3.42709 25.0523 3.53574C25.0449 3.6444 25.0188 3.75679 24.9703 3.87294C24.9217 3.98909 24.8471 4.07526 24.7464 4.13146C24.6456 4.18766 24.5113 4.22512 24.3434 4.2476L24.1941 4.26634L22.903 4.44243L22.9888 5.07561L22.2127 5.18051L21.8582 2.59909ZM22.8134 3.81299L23.8508 3.67437L23.8993 3.66688C23.9777 3.65564 24.0411 3.64065 24.0971 3.61817C24.1493 3.59569 24.1866 3.56572 24.2053 3.52825C24.224 3.49078 24.2314 3.45706 24.2314 3.42334C24.2314 3.38963 24.2277 3.34841 24.2202 3.29971C24.2128 3.25475 24.2053 3.21353 24.1978 3.17607C24.1866 3.1386 24.168 3.09739 24.1381 3.05617C24.1083 3.01496 24.0486 2.99248 23.9665 2.98499C23.8844 2.98124 23.7538 2.98874 23.5859 3.01122L22.7239 3.12736L22.8134 3.81299ZM27.2091 4.59604C27.0114 4.61477 26.8285 4.61852 26.6643 4.60728C26.5002 4.59604 26.3658 4.54733 26.2613 4.46116C26.1569 4.37499 26.086 4.2551 26.0449 4.10523C26.0039 3.95537 25.9778 3.80175 25.9628 3.65189L25.9106 3.10863C25.8882 2.88758 25.8919 2.72272 25.9106 2.61033C25.933 2.49793 25.9852 2.39302 26.0673 2.29186C26.1494 2.19445 26.2613 2.12701 26.3994 2.0858C26.5412 2.04833 26.7203 2.01836 26.9405 1.99588L28.2055 1.87599C28.4256 1.85351 28.6085 1.84976 28.754 1.861C28.8995 1.87224 29.0189 1.9172 29.1159 1.99588C29.213 2.07456 29.2764 2.16822 29.31 2.27688C29.3436 2.38553 29.366 2.51291 29.3809 2.65903L29.3921 2.77518L29.4443 3.31469L29.4592 3.47954C29.4742 3.62941 29.4742 3.75679 29.463 3.86545C29.4518 3.9741 29.4107 4.07151 29.3436 4.15019C29.2764 4.23262 29.1645 4.30006 29.0115 4.35626C28.8547 4.41246 28.6644 4.44992 28.4331 4.4724L27.2091 4.59604ZM28.1868 3.8617L28.254 3.85421C28.3435 3.84671 28.4256 3.82798 28.4928 3.80175C28.5599 3.77553 28.6085 3.73806 28.6308 3.68561C28.6532 3.6369 28.6644 3.5807 28.6682 3.5245C28.6682 3.4683 28.6682 3.40087 28.6607 3.32593L28.6271 2.97375C28.6197 2.89507 28.6085 2.82763 28.5973 2.77143C28.5861 2.71523 28.5637 2.66653 28.5338 2.62531C28.504 2.5841 28.4517 2.55413 28.3771 2.53914C28.3062 2.52415 28.2241 2.52041 28.1383 2.5279L28.0637 2.53539L27.183 2.61782L27.1159 2.62531C27.0226 2.63281 26.9442 2.65154 26.8733 2.68151C26.8061 2.70774 26.7576 2.7527 26.7278 2.8089C26.7017 2.8651 26.6942 2.98124 26.7091 3.15733L26.7427 3.50952C26.7502 3.5882 26.7576 3.65564 26.7688 3.71184C26.78 3.76429 26.7987 3.81299 26.8323 3.85795C26.8658 3.90291 26.9181 3.92914 26.989 3.94413C27.0599 3.95911 27.142 3.96286 27.239 3.95162L27.3062 3.94413L28.1868 3.8617ZM32.5228 1.63995C32.7206 1.63246 32.8773 1.6362 32.9892 1.65494C33.1012 1.67367 33.1907 1.72237 33.2579 1.80105C33.3251 1.88348 33.3736 1.98839 33.4034 2.11577C33.4333 2.24316 33.4482 2.37804 33.4557 2.50917C33.4631 2.64779 33.4519 2.76394 33.4333 2.8576C33.4109 2.95127 33.3736 3.01871 33.3213 3.05992C33.2654 3.10113 33.1758 3.14984 33.0489 3.20604C33.1012 3.22103 33.146 3.23227 33.1795 3.24351C33.2131 3.25475 33.2579 3.27723 33.3139 3.31095C33.3699 3.34467 33.4146 3.4121 33.4445 3.52076C33.4781 3.62941 33.4967 3.75305 33.5005 3.89917L33.5042 4.01157L33.5116 4.21014L32.7243 4.24386L32.7168 4.03779C32.7131 3.92539 32.7056 3.83922 32.6907 3.77927C32.6795 3.71558 32.6571 3.67437 32.6236 3.6444C32.59 3.61817 32.5415 3.59944 32.478 3.59194C32.4146 3.58445 32.3474 3.5807 32.2803 3.58445L32.2205 3.5882L31.131 3.63316L31.1571 4.3113L30.3697 4.34502L30.2727 1.72987L32.5228 1.63995ZM31.1086 2.95876L32.2429 2.9138H32.2877C32.3773 2.91006 32.4556 2.89882 32.5228 2.88383C32.59 2.8651 32.6347 2.83887 32.6571 2.80515C32.6795 2.77143 32.6907 2.73771 32.6945 2.70399C32.6982 2.67027 32.6982 2.63655 32.6982 2.59534C32.6944 2.50917 32.6833 2.44922 32.6609 2.40801C32.6385 2.37054 32.5974 2.33682 32.5415 2.31809C32.4818 2.29561 32.3959 2.28812 32.284 2.29186L32.2243 2.29561L31.0862 2.34057L31.1086 2.95876ZM37.2506 1.57626V2.21318L36.1312 2.20944L36.1274 4.18016H35.3438L35.3475 2.20944H34.2505V1.57251L37.2506 1.57626ZM42.0568 2.38927L39.9709 2.3106C39.885 2.30685 39.8141 2.31434 39.7544 2.33308C39.6985 2.35181 39.6574 2.38178 39.6313 2.43049C39.6052 2.47545 39.5865 2.54663 39.5791 2.63655C39.5679 2.72647 39.5604 2.82763 39.5567 2.94378C39.5492 3.07865 39.5492 3.19105 39.5529 3.27723C39.5567 3.3634 39.5753 3.43458 39.6052 3.49078C39.6388 3.54698 39.6835 3.58445 39.7432 3.60693C39.803 3.62941 39.885 3.6444 39.9895 3.64814L40.0791 3.65189L42.068 3.74181C42.0605 3.78677 42.053 3.83173 42.0456 3.87294C42.0195 3.99658 41.9672 4.09399 41.8851 4.17267C41.803 4.25135 41.706 4.30006 41.5866 4.31879C41.4709 4.33752 41.3329 4.34502 41.1761 4.33752L39.8776 4.28132C39.65 4.27008 39.4634 4.25135 39.3179 4.21763C39.1723 4.18391 39.0492 4.11272 38.9447 4.00407C38.8402 3.89167 38.7805 3.77178 38.7619 3.6444C38.7432 3.51701 38.7395 3.32219 38.7507 3.06741L38.7619 2.77143C38.7731 2.5279 38.7917 2.34432 38.8178 2.22068C38.844 2.09704 38.9111 1.98464 39.0231 1.88348C39.135 1.78232 39.2731 1.72238 39.4447 1.6999C39.6164 1.67742 39.803 1.66243 40.0082 1.67742L41.2582 1.77857C41.4523 1.79356 41.609 1.81229 41.7247 1.85725C41.8403 1.90221 41.9224 1.9734 41.971 2.06706C42.0195 2.15698 42.0456 2.26564 42.0568 2.38927ZM43.1091 1.83477L43.8927 1.90221L43.7285 3.86545L45.4972 4.01531L45.445 4.65224L42.8889 4.43868L43.1091 1.83477ZM46.5234 2.12701L47.307 2.22442L47.1503 3.49453L47.1391 3.59569C47.1241 3.71558 47.1167 3.81299 47.1204 3.89167C47.1241 3.97035 47.1428 4.03405 47.1839 4.08275C47.2212 4.1352 47.2697 4.16892 47.3219 4.18766C47.3779 4.20639 47.4413 4.22138 47.516 4.23262L47.6167 4.24386L48.2473 4.32254C48.2772 4.32628 48.3033 4.33003 48.3257 4.33378C48.4078 4.34502 48.4787 4.34127 48.5309 4.33003C48.5832 4.31879 48.6279 4.29631 48.6578 4.26634C48.6988 4.23636 48.725 4.1914 48.7436 4.13146C48.7623 4.07151 48.7772 3.98909 48.7884 3.88793L48.8108 3.71558L48.9675 2.43049L49.7511 2.5279L49.5645 4.06402L49.5459 4.21014C49.5235 4.40122 49.4899 4.54359 49.4451 4.62976C49.4004 4.71593 49.3295 4.8021 49.2287 4.88078C49.128 4.95946 49.0123 5.00442 48.878 5.01192C48.7436 5.01941 48.5608 5.00817 48.3294 4.98194L47.1801 4.83957L47.0794 4.82833C46.9338 4.8096 46.8144 4.77962 46.7249 4.74216C46.6316 4.70095 46.5458 4.62601 46.4599 4.51736C46.3779 4.40871 46.3293 4.28132 46.3181 4.1352C46.307 3.99283 46.3107 3.84297 46.3331 3.68561L46.3443 3.58445L46.5234 2.12701ZM50.6653 2.64405L52.893 2.99998C53.061 3.0262 53.2177 3.07116 53.3632 3.12736C53.5087 3.18731 53.6058 3.26224 53.6505 3.35216C53.6953 3.44582 53.7177 3.532 53.7214 3.61817C53.7252 3.7006 53.7214 3.78677 53.7065 3.87294C53.6879 3.98159 53.6617 4.06776 53.6282 4.12771C53.5946 4.1914 53.5498 4.24011 53.4938 4.27008C53.4378 4.30006 53.3595 4.33003 53.255 4.35251C53.3707 4.39747 53.4528 4.44243 53.5087 4.48364C53.5647 4.52485 53.602 4.59229 53.6207 4.68596C53.6393 4.77962 53.6393 4.88828 53.6207 5.01566C53.6058 5.10933 53.5834 5.19175 53.5535 5.27043C53.5237 5.34911 53.4826 5.41655 53.4229 5.4765C53.3632 5.53644 53.2662 5.5814 53.1281 5.60388C52.9901 5.62636 52.8221 5.62262 52.6244 5.59264L50.2549 5.21423L50.6653 2.64405ZM51.2773 3.80925L52.4826 4.00407L52.5535 4.01531C52.6244 4.02655 52.6878 4.0303 52.7363 4.02655C52.7848 4.02281 52.8259 4.00407 52.8557 3.97035C52.8856 3.93663 52.9005 3.89917 52.908 3.8617C52.9154 3.82049 52.908 3.78302 52.893 3.74555C52.8781 3.70809 52.8445 3.67812 52.7923 3.65564C52.7401 3.63316 52.6766 3.61817 52.602 3.60318L52.5274 3.59194L51.3407 3.40087L51.2773 3.80925ZM52.4938 4.93324L52.5535 4.94448C52.6132 4.95572 52.6654 4.95572 52.7065 4.95197C52.7512 4.94822 52.7811 4.93324 52.7998 4.9145C52.8184 4.89202 52.8296 4.8658 52.8371 4.83582C52.8445 4.80585 52.8483 4.79086 52.8483 4.78712C52.8557 4.73841 52.852 4.6972 52.8408 4.65973C52.8296 4.62227 52.796 4.59229 52.7438 4.56981C52.6915 4.54733 52.6244 4.5286 52.5535 4.51736L52.4788 4.50612L51.2064 4.3038L51.1392 4.72343L52.4938 4.93324Z" fill="white"/>
<defs>
<linearGradient id="paint0_linear_137_1027" x1="49.22" y1="40.3172" x2="45.4133" y2="44.2904" gradientUnits="userSpaceOnUse">
<stop stop-color="#E78800"/>
<stop offset="1" stop-color="#EBB522"/>
</linearGradient>
<linearGradient id="paint1_linear_137_1027" x1="47.4042" y1="38.5776" x2="43.5975" y2="42.5508" gradientUnits="userSpaceOnUse">
<stop stop-color="#E78800"/>
<stop offset="1" stop-color="#EBB522"/>
</linearGradient>
</defs>
</svg>
