<svg width="30" height="30" viewBox="0 0 30 30" fill="none" xmlns="http://www.w3.org/2000/svg">
<g id="Frame" clip-path="url(#clip0_43_1515)">
<g id="Group">
<path id="Vector" d="M25.3369 2.0702H24.1545V1.74711H24.3294V0H22.0732V1.64539H22.0189V0H20.0463H19.7628H17.392V0.568408L16.8189 0H15.1358H14.2249H11.9988H11.8782H10.2494L9.74868 0.502593V0H7.08832V0.568408L6.52125 0H3.92725V1.74711H4.10219V2.24372H3.92725V3.99681L4.98898 5.24731H7.215H7.32359H10.6898H10.8406H12.1557H12.2582H14.2671H15.0875H16.4931H16.6017H19.25H20.1126H21.3373H22.1939H24.2751L25.3369 3.99681V2.0702Z" fill="#003D6C"/>
<path id="Vector_2" d="M14.1404 28.7016C13.0967 28.1691 3.94531 23.2748 3.94531 15.5743C3.94531 15.5384 3.94531 15.4965 3.94531 15.4606C3.94531 15.4128 3.94531 15.3649 3.94531 15.3171V5.06177H25.3248V15.3111C25.3248 15.3589 25.3248 15.4068 25.3248 15.4547C25.3248 15.4906 25.3248 15.5324 25.3248 15.5683C25.3248 23.2688 16.1733 28.1631 15.1297 28.6956L14.6411 28.9469L14.1404 28.7016Z" fill="#003D6C"/>
<path id="Vector_3" d="M14.629 6.12695H5.01306V15.3112C5.01306 15.401 5.01306 15.4847 5.01306 15.5745C5.01306 22.6706 13.7543 27.3076 14.629 27.7564C15.5037 27.3076 24.2449 22.6706 24.2449 15.5745C24.2449 15.4907 24.2449 15.401 24.2449 15.3112V6.12695H14.629Z" fill="white"/>
<path id="Vector_4" d="M5.743 6.94654L5.01306 6.12085V15.3051C5.01306 15.3949 5.01306 15.4786 5.01306 15.5684C5.01306 22.6645 13.7543 27.3015 14.629 27.7503L15.0452 9.56122L5.743 6.94654Z" fill="#C4DBE7"/>
<path id="Vector_5" d="M23.5271 6.94654L24.257 6.12085V15.3051C24.257 15.3949 24.257 15.4786 24.257 15.5684C24.257 22.6645 15.5158 27.3015 14.6411 27.7503L14.2249 9.56122L23.5271 6.94654Z" fill="#C4DBE7"/>
<path id="Vector_6" d="M14.629 6.94653H5.74304V15.4368C5.74304 15.5145 5.74304 15.5983 5.74304 15.6761C5.74304 22.2337 13.8146 26.5177 14.629 26.9306C15.4374 26.5177 23.515 22.2277 23.515 15.6761C23.515 15.5983 23.515 15.5145 23.515 15.4368V6.94653H14.629Z" fill="#ED232F"/>
<path id="Vector_7" d="M14.4178 5.62427C14.4178 5.62427 20.921 8.2928 24.0096 12.7024C19.1172 8.66974 15.8234 7.76029 15.8234 7.76029L14.4178 5.62427Z" fill="white"/>
<path id="Vector_8" d="M14.1464 7.36548C14.1464 7.36548 12.59 8.26895 11.2327 11.123C27.9972 16.46 17.7539 20.3611 4.28918 24.1305C36.2437 18.2251 22.411 11.3264 14.1464 7.36548ZM14.629 10.034L15.1297 9.14849C15.1297 9.14849 20.9029 11.099 23.1108 14.6232C20.1549 11.835 14.629 10.034 14.629 10.034Z" fill="white"/>
<g id="Group_2">
<path id="Vector_9" d="M9.69435 29.1326C9.59179 29.0249 9.5194 28.9471 9.51337 28.9411L9.47717 28.8992C9.40478 28.8214 9.33239 28.7317 9.26 28.6479L9.19968 28.5761C8.92821 28.2231 8.71707 27.8162 8.94631 27.4273C9.29016 26.8589 9.80293 26.9307 10.0442 26.9606C10.2131 26.9846 10.3338 27.0025 10.5027 26.9247C11.0818 26.6375 14.8944 22.7484 15.6244 21.8868C15.745 21.7432 15.9863 21.4441 16.288 21.0671C17.6634 19.3559 20.5228 15.7899 23.1711 13.2051L26.5614 9.9024C27.219 9.26219 28.148 9.11261 28.8176 9.53742L28.8478 9.55537L29.1253 9.7947C29.1856 9.84855 29.2459 9.9024 29.3002 9.95624C29.3726 10.028 29.439 10.0998 29.5053 10.1776L29.7406 10.4588L29.7587 10.4888C30.1749 11.1649 30.0121 12.0803 29.3545 12.7205L25.9763 16.0352C23.328 18.62 19.6843 21.3962 17.9348 22.7245C17.5488 23.0177 17.2471 23.251 17.1024 23.3647C16.2216 24.0767 12.2341 27.7863 11.9385 28.3607C11.8661 28.5223 11.8781 28.6479 11.9023 28.8154C11.9385 29.0667 12.0048 29.5933 11.3895 29.9044C10.8526 30.1796 10.3459 29.7189 9.97788 29.3839C9.95978 29.3659 9.94168 29.3479 9.92358 29.336L9.89342 29.3061C9.88739 29.3001 9.82706 29.2462 9.73657 29.1625L9.69435 29.1326Z" fill="#003D6C"/>
<path id="Vector_10" d="M25.6083 15.6642L28.9986 12.3615C29.4269 11.9427 29.6381 11.2785 29.3244 10.7699L29.1132 10.5186C29.0167 10.405 28.9081 10.2973 28.7935 10.1955L28.5462 9.98015C28.0394 9.65706 27.3698 9.8545 26.9415 10.2733L23.5512 13.5761C20.3117 16.7412 16.7103 21.4321 16.0346 22.2279C15.359 23.0236 11.3956 27.1162 10.7259 27.4034C10.0563 27.6965 9.70644 27.188 9.40481 27.6906C9.28416 27.894 9.65818 28.3128 9.91154 28.6C9.91154 28.6 9.97187 28.6718 10.0684 28.7675C10.1649 28.8633 10.2313 28.9231 10.2313 28.9231C10.5208 29.1804 10.9069 29.5693 11.1422 29.4437C11.667 29.1804 11.1482 28.8034 11.4559 28.1393C11.7635 27.4752 15.9502 23.616 16.7645 22.9638C17.585 22.3116 22.3748 18.8234 25.6083 15.6642Z" fill="#C4DBE7"/>
<path id="Vector_11" d="M9.55557 27.5229C9.50731 27.5588 9.45302 27.6127 9.41079 27.6905C9.29014 27.8939 9.66416 28.3127 9.91752 28.5999C9.91752 28.5999 9.97785 28.6717 10.0744 28.7675C10.1709 28.8632 10.2373 28.923 10.2373 28.923C10.5268 29.1803 10.9129 29.5692 11.1482 29.4436C11.2387 29.4017 11.293 29.3478 11.3291 29.3C10.3277 28.594 9.79084 27.876 9.55557 27.5229Z" fill="#6B9BB1"/>
<path id="Vector_12" d="M25.6083 15.6641L28.9986 12.3614C29.4269 11.9426 29.6381 11.2784 29.3244 10.7699L29.1132 10.5186C29.071 10.9134 28.4074 11.7391 26.7424 13.3905C24.4138 15.706 20.4625 19.5533 18.7915 20.7918C17.1144 22.0303 15.7028 23.4843 14.3575 24.8245C13.0123 26.1588 11.5524 27.6127 11.1422 28.0196C10.7682 28.3905 11.1542 29.1624 10.8948 29.4376C10.9914 29.4795 11.0758 29.4854 11.1482 29.4495C11.673 29.1863 11.1542 28.8093 11.4619 28.1452C11.7696 27.4811 15.9562 23.6219 16.7706 22.9697C17.585 22.3115 22.3748 18.8233 25.6083 15.6641Z" fill="#6B9BB1"/>
<path id="Vector_13" d="M14.9306 23.4185C14.9306 23.4185 17.1204 21.3902 18.2666 19.9422C19.4128 18.4943 21.3432 16.1967 25.934 11.6255C27.6835 9.8844 27.9368 10.0699 28.4617 9.93825C27.967 9.68695 27.3456 9.8844 26.9354 10.2793L23.5451 13.582C20.3117 16.7412 16.7102 21.4321 16.0346 22.2278C15.8596 22.4373 15.4494 22.88 14.9306 23.4185Z" fill="white"/>
</g>
<path id="Vector_14" d="M11.5343 12.9239C11.5343 12.9239 16.2457 14.0009 18.3873 15.1556C15.8476 13.3367 13.1752 12.3555 13.1752 12.3555L11.5343 12.9239Z" fill="white"/>
<g id="Group_3">
<path id="Vector_15" d="M14.5204 16.8309V16.7412C14.5144 16.4061 14.5023 16.0471 14.442 15.6881C14.3998 15.4308 14.3334 15.1795 14.249 14.9402L14.2429 14.9223L14.2369 14.8983C14.0981 14.5872 13.9715 14.3359 13.8206 14.1085C13.6095 13.7854 13.3441 13.4564 12.9881 13.0794C11.8058 11.817 10.4545 10.9853 8.97648 10.6203C8.35513 10.4647 7.75187 10.387 7.18481 10.387C6.51519 10.387 5.91797 10.4947 5.39313 10.7101L5.369 10.722L5.34487 10.734C4.90449 10.9673 4.50031 11.2785 4.11423 11.6853C3.76434 12.0623 3.36016 12.499 3.04043 12.9897L2.88961 13.229L2.81722 13.235C2.76293 13.241 2.69657 13.247 2.62418 13.247C2.52766 13.247 2.41907 13.241 2.31652 13.235L2.2019 13.229C2.05109 13.223 1.89424 13.2111 1.74342 13.1991C1.61071 13.1871 1.48402 13.1811 1.35131 13.1692C1.1643 13.1572 1.00745 13.1512 0.850603 13.1512H0.77218C0.645496 13.1512 0.536909 13.1572 0.440388 13.1752C-0.0542832 13.247 -0.174935 13.8991 0.259411 14.1444C1.9425 15.6702 4.12026 16.8249 4.12026 16.8249C4.0539 16.8908 3.98151 16.9626 3.90912 17.0403C3.55923 17.4113 3.45064 17.8481 3.40238 18.1472C3.26967 18.8951 3.34206 19.6191 3.59543 20.2474C3.78847 20.7081 4.09613 21.1209 4.54254 21.5038L4.68732 21.6415H4.74162C5.18803 21.9227 5.67666 22.1381 6.10498 22.3176L6.11704 22.3235L6.14721 22.3355C6.47296 22.4552 6.79872 22.5569 7.11845 22.6347C7.39595 22.7065 7.67345 22.7424 7.94491 22.7424C8.43355 22.7424 8.89806 22.6287 9.32034 22.4073C9.3505 22.3894 9.38067 22.3774 9.41083 22.3594L9.42893 22.3475C9.45306 22.3355 9.47719 22.3176 9.50132 22.3056C9.6099 22.2398 9.71849 22.168 9.82104 22.0842L10.2494 22.0363C10.6535 21.9885 10.9914 21.9346 11.3111 21.8688C11.6489 21.797 11.9867 21.7133 12.3125 21.6115C12.4633 21.5637 12.6262 21.5038 12.8132 21.4261L12.9218 21.3782L13.0002 21.2884C13.3923 20.8517 13.7121 20.3132 13.9715 19.643C14.2007 19.0507 14.4299 18.4045 14.4963 17.7344C14.5325 17.4233 14.5265 17.1241 14.5204 16.8309Z" fill="#003D6C"/>
<path id="Vector_16" d="M13.9896 16.7473C13.9835 16.4182 13.9715 16.0891 13.9172 15.766C13.881 15.5446 13.8206 15.3173 13.7483 15.1019C13.6457 14.8566 13.5251 14.6172 13.3742 14.3958C13.145 14.0488 12.8796 13.7377 12.596 13.4385C11.5705 12.3436 10.3157 11.5 8.84377 11.135C7.82427 10.8837 6.59362 10.7879 5.58618 11.2008C5.17597 11.4162 4.82005 11.7094 4.49429 12.0504C4.13233 12.4333 3.76435 12.8402 3.48081 13.283C4.02375 13.642 5.50776 14.4676 5.90591 15.2574C5.91194 15.2574 5.90591 15.2754 5.90591 15.2694C5.53189 14.9463 4.21679 14.0668 2.88359 13.7676C2.65435 13.7975 2.40098 13.7736 2.17778 13.7616C1.89425 13.7497 1.61072 13.7197 1.32115 13.7018C1.1643 13.6958 1.01349 13.6898 0.856644 13.6898C0.760122 13.6898 0.723927 13.8214 0.814416 13.8633C1.30305 14.1266 1.80376 14.3659 2.32256 14.5813C3.22745 14.9583 4.16249 15.2514 5.10961 15.4968C5.13374 15.5027 5.15787 15.5087 5.182 15.5147C5.23629 15.5267 5.29662 15.5446 5.35091 15.5566C5.35694 15.5566 5.36298 15.5566 5.36901 15.5626C5.9421 15.7062 6.5152 15.8258 7.09433 15.9335C7.87253 16.0831 8.74122 16.2088 9.4229 16.6336C9.98996 16.9866 10.376 17.5311 10.5812 18.1593C10.5812 18.1653 10.5751 18.1653 10.5691 18.1593C10.5631 18.1473 10.557 18.1294 10.551 18.1174C10.2373 17.6926 9.1816 16.8131 7.80617 16.5678C6.80476 16.3883 5.81542 16.1908 5.30868 16.0652C5.25439 16.2088 5.182 16.3464 5.09754 16.472C5.07945 16.5019 5.05532 16.5319 5.03722 16.5618C4.95879 16.6695 4.88037 16.7772 4.80195 16.8669C4.65113 17.0584 4.46412 17.214 4.29521 17.3875C4.07201 17.6268 3.97549 17.914 3.92119 18.2311C3.81864 18.8354 3.8488 19.4756 4.08407 20.044C4.26505 20.4748 4.54858 20.8099 4.89244 21.109C5.32678 21.4022 5.81542 21.6236 6.30406 21.827H6.31009C6.61775 21.9347 6.92541 22.0305 7.23308 22.1142C7.8665 22.2758 8.49388 22.2279 9.06698 21.9228C9.09714 21.9108 9.12127 21.8928 9.15143 21.8749C9.16953 21.8629 9.18763 21.851 9.20573 21.839C9.32035 21.7672 9.43497 21.6894 9.53752 21.6057C9.56165 21.5877 9.57975 21.5698 9.59785 21.5518C9.92964 21.2586 10.1951 20.8936 10.3881 20.4988C10.6596 19.9483 10.9431 19.1465 10.6837 18.5482C10.6777 18.5362 10.6958 18.5243 10.7018 18.5362C10.7139 18.5542 11.661 19.7389 10.5088 21.4501C10.8466 21.4082 10.8466 21.4022 11.1844 21.3304C11.5041 21.2646 11.8239 21.1808 12.1376 21.0851C12.2944 21.0372 12.4452 20.9774 12.59 20.9176C12.9821 20.4868 13.2536 19.9722 13.4647 19.4337C13.6879 18.8713 13.893 18.267 13.9534 17.6627C14.0077 17.3695 13.9956 17.0584 13.9896 16.7473Z" fill="#C4DBE7"/>
<path id="Vector_17" d="M8.75928 19.0208C8.75325 18.9969 8.75325 18.973 8.74722 18.949C8.66879 18.7815 8.53608 18.6439 8.3551 18.5601L8.3189 18.5422L8.20428 18.4883L7.49847 18.1533C7.08223 17.9558 6.58755 18.1293 6.38848 18.5422L6.32815 18.6618C6.2437 18.8354 6.2256 19.0268 6.26783 19.2003C6.27989 19.2243 6.29196 19.2422 6.30402 19.2662C6.37641 19.4875 6.53326 19.679 6.75647 19.7807L7.54673 20.1517C7.98108 20.3551 8.50591 20.1756 8.71102 19.7448L8.73515 19.691C8.83167 19.4756 8.83771 19.2303 8.75928 19.0208Z" fill="#6B9BB1"/>
<path id="Vector_18" d="M8.3491 18.5601L7.49248 18.1533C7.07623 17.9558 6.58156 18.1293 6.38248 18.5422L6.32216 18.6618C6.29199 18.7277 6.26786 18.7995 6.2558 18.8653C6.31612 19.0926 6.47297 19.2961 6.70824 19.4098L7.45628 19.7628C7.87253 19.9602 8.3672 19.7867 8.56628 19.3739L8.60247 19.3021C8.67486 19.1465 8.69899 18.979 8.67486 18.8174C8.59041 18.7097 8.48182 18.62 8.3491 18.5601Z" fill="#003D6C"/>
<path id="Vector_19" d="M2.18382 13.7555C1.90029 13.7435 1.61676 13.7136 1.32719 13.6957C1.17035 13.6897 1.01953 13.6837 0.862686 13.6837C0.766165 13.6837 0.729969 13.8153 0.820458 13.8572C0.923012 13.9111 1.0316 13.9709 1.14018 14.0248C1.8098 14.0726 2.8655 14.1025 3.70403 14.0068C3.4386 13.9051 3.16713 13.8213 2.89566 13.7555C2.66039 13.7914 2.41306 13.7675 2.18382 13.7555ZM8.84982 11.1289C7.83031 10.8776 6.59967 10.7818 5.59223 11.1947C5.18201 11.4101 4.82609 11.7033 4.50033 12.0443C4.13837 12.4272 3.77039 12.8341 3.48686 13.2769C3.6618 13.3905 3.93327 13.5581 4.2349 13.7495C5.55 11.9246 6.72032 10.6323 10.6777 11.8768C10.1167 11.5477 9.50737 11.2904 8.84982 11.1289Z" fill="white"/>
<path id="Vector_20" d="M10.7018 18.566C10.75 18.7096 10.7802 18.8532 10.7983 18.9968C10.7923 18.8472 10.7621 18.6976 10.7018 18.566ZM13.9895 16.7471C13.9835 16.4898 13.9775 16.2266 13.9473 15.9693C13.5311 17.4771 9.93565 15.9274 6.69012 15.8496C6.82284 15.8795 6.96159 15.9035 7.09431 15.9274C7.87251 16.077 8.7412 16.2026 9.42288 16.6274C9.98994 16.9804 10.376 17.5249 10.5811 18.1532L10.6958 18.566C10.6897 18.554 10.7078 18.5421 10.7139 18.554C10.7259 18.572 11.673 19.7567 10.5208 21.4679C10.8586 21.426 10.8586 21.42 11.1965 21.3482C11.5162 21.2824 11.8359 21.1986 12.1496 21.1029C12.3065 21.055 12.4573 20.9952 12.602 20.9354C12.9942 20.5046 13.2656 19.99 13.4768 19.4515C13.7 18.8891 13.9051 18.2848 13.9654 17.6805C14.0076 17.3694 13.9956 17.0582 13.9895 16.7471Z" fill="#6B9BB1"/>
<path id="Vector_21" d="M5.3147 16.0652C5.26041 16.2088 5.18801 16.3464 5.10356 16.472C5.08546 16.502 5.06133 16.5319 5.04323 16.5618C4.96481 16.6695 4.88639 16.7772 4.80796 16.8669C4.65715 17.0584 4.47014 17.214 4.30123 17.3875C4.07802 17.6268 3.9815 17.914 3.92721 18.2311C3.82465 18.8354 3.85482 19.4756 4.09009 20.044C4.2047 20.3253 4.36758 20.5646 4.56063 20.78C4.17454 19.8227 4.02976 18.2431 4.5365 17.7525C5.02513 17.2858 5.58616 16.5079 5.8154 16.1729C5.62236 16.137 5.45345 16.1011 5.3147 16.0652Z" fill="white"/>
</g>
<g id="Group_4">
<path id="Vector_22" d="M13.9813 13.0223C16.142 12.369 17.3595 10.1021 16.7008 7.95917C16.0421 5.81621 13.7566 4.6086 11.596 5.26191C9.43538 5.91521 8.21781 8.18204 8.87651 10.325C9.5352 12.468 11.8207 13.6756 13.9813 13.0223Z" fill="#003D6C"/>
<path id="Vector_23" d="M12.7891 12.7026C14.7715 12.7026 16.3785 11.1087 16.3785 9.14255C16.3785 7.1764 14.7715 5.58252 12.7891 5.58252C10.8067 5.58252 9.19971 7.1764 9.19971 9.14255C9.19971 11.1087 10.8067 12.7026 12.7891 12.7026Z" fill="#C4DBE7"/>
<path id="Vector_24" d="M9.62799 7.44925C9.06093 8.49033 9.073 9.68698 9.54957 10.6742C9.60989 10.7101 9.66419 10.746 9.72451 10.7759C11.4679 11.7093 13.6457 11.0631 14.5868 9.33397C15.1538 8.29289 15.1418 7.09624 14.6652 6.109C14.6049 6.0731 14.5506 6.0372 14.4902 6.00729C12.7468 5.0739 10.5691 5.72009 9.62799 7.44925Z" fill="white"/>
<path id="Vector_25" d="M13.4165 5.63616C13.1209 5.58231 12.8192 5.57034 12.5236 5.59427C12.5779 6.62339 12.8675 7.90979 13.7965 8.91498C14.4058 9.56715 15.2142 10.0099 16.2035 10.2373C16.294 9.95606 16.3483 9.66288 16.3664 9.37568C15.5641 9.1902 14.9186 8.83719 14.442 8.32263C13.7181 7.53883 13.4768 6.50373 13.4165 5.63616ZM9.20572 9.38765C10.0684 9.53723 11.0819 9.89024 11.7877 10.686C12.2522 11.2125 12.5417 11.8886 12.6383 12.7024C12.9339 12.7143 13.2294 12.6904 13.519 12.6306C13.3984 11.6254 13.0424 10.7817 12.4512 10.1116C11.5403 9.08251 10.2795 8.66368 9.25398 8.50213C9.19969 8.79531 9.18762 9.09447 9.20572 9.38765Z" fill="#C4DBE7"/>
<path id="Vector_26" d="M13.0967 10.9553C12.9761 11.1348 12.8615 11.3023 12.7227 11.4639L12.8916 11.6074C13.0304 11.4519 13.1631 11.2844 13.2898 11.1108C13.326 11.057 13.3079 10.9792 13.2536 10.9373C13.2053 10.8954 13.1329 10.9014 13.0967 10.9553ZM11.0336 10.339C11.0517 10.3928 11.106 10.4048 11.1603 10.3749C11.2508 10.327 11.3413 10.2792 11.4378 10.2373C11.5343 10.1954 11.6248 10.1535 11.7213 10.1176C11.6972 10.0518 11.6731 9.98001 11.6429 9.91419C11.4498 9.99795 11.2689 10.0877 11.0939 10.1954C11.0336 10.2253 11.0155 10.2911 11.0336 10.339ZM12.2582 11.8767C12.4694 11.8827 12.6624 11.9126 12.8735 11.9485C12.8856 11.8767 12.9037 11.8049 12.9158 11.7331C12.7046 11.7032 12.4995 11.6912 12.2944 11.6852C12.2341 11.6852 12.1798 11.7271 12.1677 11.781C12.1557 11.8288 12.1979 11.8707 12.2582 11.8767ZM10.6294 9.91419C10.5812 9.95009 10.5691 10.0159 10.5932 10.0698C10.6174 10.1176 10.6777 10.1296 10.7259 10.0937C10.8104 10.0339 10.8949 9.97402 10.9793 9.92017C11.0638 9.86632 11.1543 9.81247 11.2447 9.75863C11.2085 9.69281 11.1784 9.62699 11.1362 9.56716C10.9552 9.67486 10.7863 9.79452 10.6294 9.91419ZM13.3682 11.5775C13.2234 11.7391 13.0726 11.8887 12.9218 12.0263C12.9701 12.0801 13.0304 12.134 13.0726 12.1878C13.2355 12.0502 13.3803 11.9066 13.5311 11.751C13.5733 11.7032 13.5733 11.6254 13.5251 11.5775C13.4828 11.5297 13.4104 11.5297 13.3682 11.5775ZM10.2976 9.13637C10.2735 8.93294 10.2373 8.71754 10.1951 8.51411C10.183 8.45428 10.1166 8.41239 10.0503 8.42436C9.98393 8.43633 9.9417 8.49616 9.9598 8.55599C10.0081 8.76541 10.0503 8.96884 10.0805 9.17227L10.2976 9.13637ZM9.82105 9.01072C9.67627 9.1603 9.54355 9.32185 9.41687 9.4834C9.38067 9.53126 9.38067 9.60306 9.4229 9.63896C9.46513 9.68084 9.52546 9.67486 9.56165 9.62699C9.69437 9.46545 9.82708 9.32185 9.9779 9.16628L9.82105 9.01072ZM10.545 9.3757L10.4062 9.20817C10.2494 9.3398 10.0986 9.48938 9.9598 9.63298C9.91757 9.67486 9.91154 9.74666 9.94774 9.78854C9.98393 9.83042 10.0443 9.83042 10.0865 9.78854C10.2313 9.64494 10.3821 9.50733 10.545 9.3757ZM12.4694 12.1878C12.409 12.1759 12.3487 12.2177 12.3366 12.2656C12.3246 12.3135 12.3547 12.3673 12.4151 12.3793C12.6141 12.4212 12.8132 12.469 13.0183 12.5289L13.0786 12.3195C12.8735 12.2656 12.6745 12.2177 12.4694 12.1878ZM9.54355 8.34658C9.52546 8.28675 9.4591 8.25085 9.39274 8.2688C9.32638 8.28675 9.29622 8.34658 9.31432 8.40641C9.38067 8.60386 9.441 8.80729 9.48926 9.01072C9.56165 8.99277 9.63404 8.97482 9.70643 8.95687C9.65817 8.75344 9.60388 8.54403 9.54355 8.34658ZM13.5914 12.4391C13.4949 12.5169 13.3923 12.5947 13.2898 12.6665C13.4527 12.6425 13.6095 12.6126 13.7664 12.5648C13.7724 12.5289 13.7724 12.493 13.7483 12.4631C13.7121 12.4092 13.6397 12.3972 13.5914 12.4391ZM12.5719 10.9912C12.3608 11.0031 12.1557 11.0271 11.9566 11.063C11.8963 11.0749 11.854 11.1288 11.854 11.1826C11.854 11.2365 11.9023 11.2724 11.9626 11.2604C12.0652 11.2485 12.1677 11.2305 12.2703 11.2245C12.3728 11.2185 12.4754 11.2126 12.5779 11.2126C12.5719 11.1408 12.5779 11.063 12.5719 10.9912ZM12.7469 10.1416C12.6865 10.1116 12.6202 10.1356 12.596 10.1954C12.5176 10.3988 12.4271 10.5843 12.3306 10.7698L12.5236 10.8775C12.6262 10.698 12.7348 10.5065 12.8132 10.3091C12.8434 10.2493 12.8132 10.1775 12.7469 10.1416ZM11.0396 9.4834C11.0457 9.38168 11.0457 9.27398 11.0457 9.16628C11.0457 9.05859 11.0396 8.95687 11.0336 8.84917C11.0276 8.78336 10.9672 8.73549 10.9009 8.73549C10.8345 8.73549 10.7863 8.78934 10.7923 8.84917C10.8104 9.05859 10.8225 9.27398 10.8225 9.47741C10.8949 9.47143 10.9672 9.47741 11.0396 9.4834ZM11.5584 9.81846C11.5765 9.71674 11.5946 9.60904 11.6067 9.50733C11.6188 9.40561 11.6248 9.29792 11.6369 9.19022C11.6429 9.1244 11.5886 9.06457 11.5222 9.05859C11.4559 9.0526 11.3956 9.10047 11.3956 9.1603C11.3895 9.36971 11.3714 9.58511 11.3413 9.78854C11.4137 9.79453 11.486 9.80649 11.5584 9.81846ZM11.6248 10.6561C11.5705 10.6741 11.5343 10.7339 11.5403 10.7877C11.5464 10.8416 11.6007 10.8655 11.661 10.8476C11.854 10.7877 12.0531 10.7459 12.2582 10.704L12.222 10.4886C12.0169 10.5305 11.8118 10.5903 11.6248 10.6561ZM11.9506 10.3031L12.1617 10.3749C12.2401 10.1834 12.3065 9.98001 12.3608 9.77059C12.3789 9.71076 12.3306 9.63896 12.2642 9.62101C12.1979 9.59708 12.1376 9.63298 12.1195 9.69879C12.0772 9.90821 12.0229 10.1057 11.9506 10.3031Z" fill="#ED232F"/>
<path id="Vector_27" d="M14.5385 9.78874C14.5747 9.84857 14.6532 9.87251 14.7075 9.84259C14.8945 9.73489 15.0754 9.62121 15.2504 9.50155L15.1237 9.32205C14.9488 9.44171 14.7678 9.53745 14.5747 9.63916C14.5204 9.66309 14.5023 9.73489 14.5385 9.78874ZM14.0258 7.57494C13.9051 7.73649 13.7905 7.90402 13.6879 8.0895C13.7483 8.1254 13.8207 8.1613 13.887 8.19121C13.9353 8.10147 13.9835 8.01172 14.0378 7.92197C14.0921 7.83222 14.1464 7.74846 14.2068 7.66469C14.2429 7.61682 14.2309 7.55699 14.1826 7.53306C14.1344 7.50913 14.068 7.52707 14.0258 7.57494ZM15.4977 8.80749C15.4434 8.81347 15.3952 8.86134 15.3891 8.92117C15.371 9.11862 15.365 9.32803 15.371 9.53745C15.4434 9.53146 15.5219 9.52548 15.5942 9.5195C15.5822 9.31008 15.5761 9.11263 15.5882 8.9092C15.5942 8.84339 15.552 8.80151 15.4977 8.80749ZM13.3924 7.55699C13.4466 7.60486 13.513 7.64076 13.5733 7.68264C13.6337 7.59887 13.694 7.51511 13.7603 7.43733C13.8267 7.35954 13.8931 7.28176 13.9654 7.20398C14.0077 7.1621 14.0016 7.10226 13.9594 7.06636C13.9112 7.03645 13.8448 7.04243 13.8026 7.08431C13.6578 7.2339 13.519 7.38946 13.3924 7.55699ZM15.1599 10.1298C15.2021 10.1777 15.2866 10.1896 15.3348 10.1537C15.5098 10.0221 15.6666 9.89644 15.8235 9.74686C15.7692 9.69899 15.727 9.63318 15.6787 9.57933C15.5219 9.71694 15.3529 9.84857 15.178 9.97422C15.1237 10.0041 15.1116 10.0819 15.1599 10.1298ZM13.1088 6.46804C12.9037 6.41419 12.7046 6.35436 12.5056 6.28854C12.4452 6.27059 12.3849 6.30051 12.3668 6.36632C12.3487 6.43214 12.3849 6.49796 12.4452 6.51591C12.6503 6.58172 12.8555 6.63557 13.0606 6.68344L13.1088 6.46804ZM13.1149 6.37231C13.2838 6.24666 13.4466 6.12699 13.6216 6.01331C13.6699 5.97741 13.6879 5.91758 13.6518 5.8757C13.6156 5.83382 13.5432 5.82185 13.4949 5.85177C13.32 5.95946 13.151 6.07913 12.9821 6.19879L13.1149 6.37231ZM13.7241 6.53984C13.7724 6.50394 13.7784 6.43812 13.7422 6.40222C13.706 6.36034 13.6337 6.36034 13.5854 6.39624C13.4225 6.52189 13.2596 6.65352 13.1088 6.79114L13.2657 6.9467C13.4165 6.8031 13.5673 6.66549 13.7241 6.53984ZM15.9441 9.75883L16.1613 9.71694C16.1251 9.51351 16.0949 9.31008 16.0768 9.10665C16.0708 9.04682 16.0226 9.01092 15.9683 9.0169C15.914 9.02289 15.8717 9.08272 15.8778 9.14255C15.8898 9.35197 15.914 9.5554 15.9441 9.75883ZM12.9278 6.07913C12.952 6.00733 12.9761 5.94151 13.0063 5.8757C12.8132 5.8039 12.6141 5.72612 12.4211 5.63637C12.3668 5.61244 12.2944 5.63637 12.2703 5.6962C12.2462 5.75603 12.2763 5.82783 12.3367 5.85177C12.5297 5.93553 12.7348 6.01331 12.9278 6.07913ZM16.0226 10.4409C16.0527 10.4648 16.0889 10.4708 16.1251 10.4648C16.1854 10.3153 16.2397 10.1597 16.2759 10.0041C16.1915 10.0999 16.107 10.1896 16.0165 10.2794C15.9683 10.3213 15.9683 10.393 16.0226 10.4409ZM14.8884 9.14255C14.9005 9.04084 14.9186 8.93912 14.9367 8.84339C14.9548 8.74167 14.9789 8.63996 15.003 8.54423C15.0151 8.48439 14.991 8.43653 14.9367 8.43054C14.8824 8.42456 14.8221 8.46644 14.81 8.52029C14.7557 8.71176 14.7075 8.9092 14.6713 9.11862C14.7436 9.13657 14.816 9.13657 14.8884 9.14255ZM13.9594 9.29213C14.1645 9.2323 14.3696 9.14853 14.5566 9.06477L14.4662 8.86134C14.2731 8.93912 14.074 9.00494 13.8629 9.05879C13.8026 9.07674 13.7664 9.13657 13.7965 9.20238C13.8267 9.2682 13.8991 9.31008 13.9594 9.29213ZM13.3381 7.2339C13.133 7.20996 12.9218 7.18005 12.7107 7.13816C12.6503 7.1262 12.59 7.16808 12.584 7.2339C12.578 7.29971 12.6262 7.36553 12.6865 7.37749C12.7951 7.39544 12.8977 7.41339 13.0002 7.42536C13.1088 7.43733 13.2114 7.44929 13.32 7.45528C13.326 7.37749 13.326 7.30569 13.3381 7.2339ZM13.5914 7.77837C13.3863 7.78435 13.1691 7.77837 12.958 7.7664C12.8977 7.76042 12.8434 7.80829 12.8434 7.88009C12.8434 7.9459 12.9037 8.00573 12.964 8.01172C13.0726 8.0177 13.1752 8.0177 13.2838 8.0177C13.3924 8.0177 13.5009 8.01172 13.6035 8.00573C13.5975 7.92197 13.5914 7.85017 13.5914 7.77837ZM14.2007 8.71774L14.4119 8.77757C14.4722 8.57414 14.5385 8.38866 14.617 8.20318C14.6411 8.14933 14.623 8.09548 14.5687 8.07753C14.5204 8.06557 14.4541 8.09548 14.43 8.14933C14.3455 8.32883 14.261 8.52628 14.2007 8.71774ZM13.4225 8.53824C13.3562 8.54423 13.32 8.60406 13.332 8.66987C13.3441 8.73569 13.4105 8.78954 13.4708 8.77757C13.6879 8.74167 13.8991 8.69979 14.0982 8.64594L14.0439 8.43054C13.8388 8.48439 13.6337 8.51431 13.4225 8.53824Z" fill="#ED232F"/>
<g id="Group_5">
<path id="Vector_28" d="M8.7171 9.07653C9.64612 9.16628 11.0517 9.48938 11.9747 10.5305C12.5599 11.1886 12.8735 12.0502 12.9218 13.1092C13.0545 13.0853 13.1872 13.0554 13.32 13.0135C13.2536 11.9006 12.9097 10.9792 12.2763 10.2672C11.2749 9.13637 9.80297 8.78336 8.80156 8.68164C8.76536 8.81327 8.7352 8.9449 8.7171 9.07653Z" fill="#003D6C"/>
<path id="Vector_29" d="M13.1571 5.11572C13.151 6.04313 13.3199 7.46116 14.2671 8.47831C14.8643 9.1245 15.6968 9.52538 16.7525 9.68692C16.7163 9.81855 16.668 9.9442 16.6137 10.0699C15.5037 9.89035 14.623 9.44759 13.9715 8.74755C12.9399 7.64065 12.7468 6.15082 12.7529 5.15761C12.8856 5.13367 13.0243 5.12171 13.1571 5.11572Z" fill="#003D6C"/>
</g>
</g>
<g id="Group_6">
<path id="Vector_30" d="M6.75652 2.13561V2.98523L6.29201 3.44594H4.48224V2.79377H4.65718V1.20222H4.48224V0.550049H6.29201L6.75652 1.01674V1.75866L6.56348 1.95013L6.75652 2.13561ZM5.95419 1.29197L5.85767 1.19624H5.45952V1.61507H5.85767L5.95419 1.51933V1.29197ZM5.95419 2.36297L5.8637 2.27322H5.46555V2.79377H5.8637L5.96022 2.70402V2.36297H5.95419Z" fill="white"/>
<path id="Vector_31" d="M9.19974 0.550537V1.20271H9.04892L9.68837 2.79425H9.86332V3.44643H8.74729V2.79425H8.84381L8.80159 2.66262H8.02338L7.97512 2.79425H8.07164V3.44643H6.94958V2.79425H7.12453L7.76398 1.20271H7.6373V0.550537H9.19974ZM8.22246 2.10618H8.59648L8.40947 1.64547L8.22246 2.10618Z" fill="white"/>
<path id="Vector_32" d="M11.3413 2.32744H10.4846L10.0201 1.86673V1.01113L10.4846 0.544434H11.7696L12.2341 1.01113V1.57954H11.4318V1.29234L11.3413 1.19661H10.913L10.8164 1.29234V1.58552L10.913 1.67527H11.7696L12.2341 2.14196V2.9856L11.7696 3.44631H10.4846L10.0201 2.9856V2.42916H10.8225V2.6984L10.919 2.79413H11.3473L11.4378 2.70439V2.42317L11.3413 2.32744Z" fill="white"/>
<path id="Vector_33" d="M13.4104 2.79425H13.9232V2.68057H14.5808V3.45241H12.4271V2.79425H12.6021V1.20271H12.4271V0.550537H14.5808V1.31639H13.9232V1.20271H13.4104V1.6694H13.5311V1.55572H14.1886V2.43526H13.5311V2.32158H13.4104V2.79425Z" fill="white"/>
<path id="Vector_34" d="M17.0602 2.1361V2.98572L16.5957 3.44643H14.7859V2.79425H14.9608V1.20271H14.7798V0.550537H16.5896L17.0541 1.01723V1.75915L16.8611 1.95062L17.0602 2.1361ZM16.2518 1.29246L16.1553 1.19673H15.7571V1.61556H16.1553L16.2518 1.51982V1.29246ZM16.2518 2.36346L16.1553 2.27371H15.7571V2.79425H16.1553L16.2518 2.70451V2.36346Z" fill="white"/>
<path id="Vector_35" d="M19.4973 0.550537V1.20271H19.3526L19.992 2.79425H20.167V3.44643H19.0449V2.79425H19.1414L19.0992 2.66262H18.321L18.2727 2.79425H18.3693V3.44643H17.2472V2.79425H17.4221L18.0616 1.20271H17.9349V0.550537H19.4973ZM18.5201 2.10618H18.8941L18.7071 1.64547L18.5201 2.10618Z" fill="white"/>
<path id="Vector_36" d="M21.295 1.20271V2.79425H21.8199V2.62074H22.4774V3.44643H20.3177V2.79425H20.4927V1.20271H20.3177V0.550537H21.47V1.20271H21.295Z" fill="white"/>
<path id="Vector_37" d="M23.6055 1.20271V2.79425H24.1303V2.62074H24.7879V3.44643H22.6282V2.79425H22.8032V1.20271H22.6282V0.550537H23.7805V1.20271H23.6055Z" fill="white"/>
</g>
<g id="Group_7">
<g id="Group_8">
<path id="Vector_38" d="M26.6881 26.111C26.9898 25.2734 27.1466 24.8545 27.4482 24.0169C26.29 23.622 25.1257 23.269 23.9433 22.9638C23.4909 22.8501 23.2677 22.8023 22.8152 22.7065C21.4096 22.4253 20.004 22.2099 18.5743 22.0603C18.5743 22.0723 18.5743 22.0783 18.5743 22.0843C18.5622 22.0723 18.5562 22.0663 18.5441 22.0544C17.6755 21.9886 16.8188 21.9407 15.9501 21.9108C15.5641 22.2279 15.371 22.3834 15.003 22.7125C15.003 22.3894 14.997 22.2279 14.997 21.9048C13.7362 21.9108 12.4814 21.9945 11.2327 22.1262C11.1965 22.1321 11.1844 22.1321 11.1482 22.1381C9.5918 22.3176 8.0354 22.5929 6.51519 22.9758C6.7203 23.7835 6.82285 24.1844 7.02193 24.9921C7.12448 24.9682 7.17274 24.9562 7.26926 24.9323C7.32959 25.1776 7.35975 25.2973 7.42008 25.5426C7.10638 25.6204 6.9435 25.6563 6.62981 25.74C6.56345 25.4947 6.53329 25.3751 6.46693 25.1298C6.56345 25.1058 6.61774 25.0879 6.71426 25.0639C6.50312 24.2562 6.39454 23.8553 6.1834 23.0536C5.1277 23.3288 4.08406 23.6459 3.05249 24.0169C3.33602 24.8007 3.4808 25.1896 3.76433 25.9734C3.86086 25.9375 3.90912 25.9195 4.00564 25.8896C4.12026 26.2127 4.18058 26.3743 4.2952 26.6974C4.19868 26.7333 4.15042 26.7452 4.05993 26.7811C4.34346 27.5649 4.48824 27.9538 4.77177 28.7377C5.74302 28.3906 6.73839 28.0915 7.7398 27.8402C8.15002 27.7385 8.35512 27.6906 8.77137 27.6008C9.58577 27.4273 9.98995 27.3555 10.8104 27.2359C11.2025 27.182 11.4016 27.1521 11.7937 27.1102C13.139 26.9666 14.4963 26.8948 15.8536 26.9247C15.8838 26.9247 15.8958 26.9247 15.926 26.9247C16.7887 26.9427 17.223 26.9666 18.0796 27.0444C18.3511 26.823 18.4899 26.7153 18.7674 26.4999C18.9906 26.7692 19.1052 26.9068 19.3223 27.182C20.2091 27.2957 20.6495 27.3735 21.5303 27.553C21.6389 27.4812 21.6932 27.4513 21.8017 27.3795C21.7836 27.4692 21.7716 27.5111 21.7535 27.6008C23.1108 27.912 24.4259 28.2829 25.741 28.7317C26.0426 27.894 26.1995 27.4752 26.5011 26.6316C26.2839 26.5538 26.1754 26.5179 25.9582 26.4461C26.0306 26.2307 26.0668 26.129 26.1392 25.9136C26.3563 25.9913 26.4649 26.0332 26.6881 26.111ZM10.9069 24.4058C11.0215 24.3938 11.0758 24.3818 11.1904 24.3699C11.118 24.6032 11.0818 24.7229 11.0155 24.9562C11.0034 24.9562 10.9974 24.9562 10.9793 24.9622C10.9491 24.7408 10.9371 24.6331 10.9069 24.4058Z" fill="#003D6C"/>
<g id="Group_9">
<path id="Vector_39" d="M5.62237 24.729C5.85764 25.5308 5.97226 25.9257 6.20753 26.7274C6.49106 26.6437 6.63584 26.6078 6.91937 26.53C6.89524 26.4402 6.88318 26.3984 6.85905 26.3086C7.21497 26.2129 7.39595 26.171 7.7579 26.0872C7.86045 26.512 7.90872 26.7215 8.01127 27.1403C7.05209 27.3617 6.10497 27.6309 5.16993 27.948C5.06134 27.6249 5.00705 27.4634 4.89243 27.1343C4.98895 27.1044 5.03118 27.0864 5.1277 27.0565C4.8683 26.2667 4.73558 25.8718 4.47015 25.082C4.36759 25.112 4.31933 25.1299 4.22281 25.1658C4.11422 24.8427 4.05993 24.6812 3.94531 24.3521C4.62096 24.1247 4.95879 24.023 5.64047 23.8315C5.73699 24.1606 5.77922 24.3282 5.87574 24.6572C5.77318 24.6871 5.72492 24.6991 5.62237 24.729Z" fill="white"/>
<path id="Vector_40" d="M9.36257 25.9853C9.6461 25.9315 9.78485 25.9075 10.0684 25.8657C10.0563 25.8058 10.0563 25.7759 10.0442 25.7161C10.4122 25.6562 10.5932 25.6323 10.9612 25.5844C11.0155 25.9853 11.0396 26.1828 11.0939 26.5837C10.1287 26.7093 9.16952 26.8828 8.21638 27.0982C8.13795 26.7631 8.10176 26.5956 8.02333 26.2665C8.11986 26.2426 8.16812 26.2366 8.26464 26.2127C8.08366 25.399 7.99317 24.9921 7.81219 24.1784C7.70964 24.2023 7.66138 24.2143 7.55883 24.2382C7.4804 23.9032 7.44421 23.7356 7.36578 23.4065C8.43355 23.1672 9.50735 22.9698 10.5932 22.8262C10.6475 23.2211 10.6716 23.4245 10.7259 23.8194C10.3398 23.8732 10.1468 23.8972 9.76072 23.963C9.74865 23.9032 9.74865 23.8792 9.73659 23.8194C9.43496 23.8673 9.28414 23.8912 8.98855 23.951C9.03077 24.1904 9.0549 24.31 9.10317 24.5493C9.16952 24.5374 9.20572 24.5314 9.27208 24.5194C9.26001 24.4596 9.25398 24.4357 9.24795 24.3758C9.628 24.31 9.81501 24.2801 10.1951 24.2203C10.2614 24.675 10.2976 24.9024 10.37 25.3571C10.002 25.4109 9.82104 25.4409 9.45305 25.5067C9.44099 25.4468 9.43496 25.4169 9.42892 25.3571C9.36257 25.3691 9.32637 25.375 9.26001 25.387C9.29018 25.6263 9.31431 25.746 9.36257 25.9853Z" fill="white"/>
<path id="Vector_41" d="M14.2851 22.5271C14.2972 22.8681 14.2972 23.0417 14.3092 23.3827C14.2248 23.3827 14.1765 23.3887 14.0921 23.3887C14.4299 24.0648 14.7557 24.7529 15.0573 25.4529C15.1538 25.4529 15.2021 25.4529 15.2986 25.4529C15.2986 25.794 15.2986 25.9675 15.2986 26.3085C14.6893 26.3085 14.3877 26.3145 13.7784 26.3444C13.7603 26.0034 13.7543 25.8299 13.7362 25.4888C13.7904 25.4888 13.8146 25.4828 13.8689 25.4828C13.8447 25.417 13.8266 25.3811 13.8025 25.3153C13.3682 25.3332 13.151 25.3452 12.7166 25.3811C12.6986 25.4529 12.6865 25.4828 12.6684 25.5546C12.7227 25.5486 12.7468 25.5486 12.8011 25.5427C12.8252 25.8837 12.8373 26.0572 12.8675 26.3983C12.2642 26.4461 11.9626 26.476 11.3593 26.5478C11.3171 26.2068 11.293 26.0393 11.2507 25.6982C11.3473 25.6863 11.3955 25.6803 11.492 25.6683C11.7032 24.9443 11.9445 24.2204 12.1978 23.5024C12.1255 23.5084 12.0832 23.5143 12.0108 23.5203C11.9807 23.1793 11.9626 23.0117 11.9324 22.6707C12.7106 22.5989 13.5009 22.551 14.2851 22.5271ZM12.9459 24.6332C13.157 24.6212 13.2656 24.6093 13.4768 24.6033C13.3561 24.3699 13.2958 24.2503 13.1751 24.0169C13.0786 24.2622 13.0364 24.3879 12.9459 24.6332Z" fill="white"/>
<path id="Vector_42" d="M18.7191 24.3759C18.6588 24.9742 18.6226 25.2734 18.5622 25.8717C18.2787 26.0871 18.14 26.1948 17.8685 26.4162C17.1747 26.3564 16.8248 26.3384 16.1251 26.3205C15.8777 26.0692 15.751 25.9495 15.4977 25.7042C15.5037 24.8426 15.5097 23.987 15.5158 23.1254C15.7933 22.8861 15.9381 22.7664 16.2276 22.5271C17.0119 22.551 17.3979 22.569 18.1822 22.6348C18.4416 22.8981 18.5743 23.0357 18.8277 23.3049C18.7915 23.64 18.7734 23.8075 18.7372 24.1426C18.2727 24.0947 18.0374 24.0768 17.5729 24.0409C17.585 23.8494 17.591 23.7596 17.603 23.5682C17.5548 23.5143 17.5246 23.4904 17.4764 23.4366C17.223 23.4186 17.0963 23.4126 16.8429 23.4007C16.7826 23.4485 16.7585 23.4725 16.6982 23.5143C16.668 24.2503 16.6499 24.6153 16.6197 25.3512C16.668 25.3991 16.6982 25.423 16.7464 25.4768C16.9817 25.4888 17.1023 25.4948 17.3436 25.5068C17.3979 25.4649 17.4221 25.4409 17.4764 25.3991C17.4884 25.2555 17.4884 25.1837 17.5005 25.046C17.3738 25.0401 17.3135 25.0341 17.1868 25.0281C17.2049 24.717 17.217 24.5614 17.2351 24.2503C17.8323 24.2922 18.1279 24.3161 18.7191 24.3759Z" fill="white"/>
<path id="Vector_43" d="M22.1395 26.4401C21.8319 26.6256 21.6811 26.7153 21.3855 26.9068C20.6978 26.7692 20.3539 26.7153 19.6602 26.6196C19.443 26.3443 19.3344 26.2067 19.1052 25.9375C19.2017 25.1656 19.2922 24.3938 19.3887 23.622C19.2861 23.61 19.2318 23.604 19.1293 23.5921C19.1655 23.251 19.1896 23.0835 19.2258 22.7424C19.9256 22.8202 20.2694 22.8681 20.9632 22.9818C20.9089 23.3168 20.8787 23.4903 20.8244 23.8254C20.7219 23.8074 20.6676 23.8015 20.565 23.7835C20.4444 24.5613 20.3841 24.9443 20.2574 25.7221C20.2996 25.7759 20.3237 25.8059 20.372 25.8597C20.6073 25.8956 20.7279 25.9195 20.9632 25.9614C21.0235 25.9255 21.0537 25.9076 21.108 25.8657C21.2528 25.0938 21.3191 24.7049 21.4639 23.9331C21.3613 23.9151 21.3071 23.9032 21.2045 23.8852C21.2648 23.5502 21.295 23.3767 21.3553 23.0416C22.0491 23.1613 22.3929 23.2331 23.0806 23.3886C23.0022 23.7237 22.966 23.8912 22.8876 24.2203C22.785 24.1964 22.7368 24.1844 22.6342 24.1664C22.4774 24.9263 22.3085 25.6802 22.1395 26.4401Z" fill="white"/>
<path id="Vector_44" d="M24.0338 26.6555C24.3113 26.7333 24.45 26.7752 24.7275 26.8589C24.7456 26.7991 24.7517 26.7752 24.7698 26.7153C25.1257 26.823 25.3067 26.8829 25.6566 26.9965C25.5299 27.3795 25.4635 27.5709 25.3308 27.9479C24.4018 27.6368 23.4607 27.3675 22.5015 27.1461C22.5799 26.8111 22.6222 26.6435 22.7006 26.3145C22.7971 26.3384 22.8454 26.3504 22.9419 26.3743C23.141 25.5666 23.2375 25.1597 23.4366 24.352C23.334 24.328 23.2858 24.3161 23.1832 24.2921C23.2616 23.9571 23.3039 23.7895 23.3823 23.4604C24.45 23.7117 25.5118 24.0109 26.5494 24.3579C26.4227 24.7349 26.3563 24.9263 26.2297 25.3093C25.8556 25.1836 25.6686 25.1238 25.2946 25.0101C25.3127 24.9563 25.3187 24.9263 25.3368 24.8725C25.0412 24.7827 24.8965 24.7409 24.6009 24.6571C24.5345 24.8904 24.4983 25.0101 24.432 25.2435C24.4983 25.2614 24.5345 25.2734 24.6009 25.2913C24.619 25.2375 24.625 25.2076 24.6431 25.1537C25.0171 25.2614 25.1981 25.3153 25.5721 25.4349C25.4334 25.8717 25.361 26.0931 25.2222 26.5299C24.8663 26.4162 24.6853 26.3623 24.3234 26.2606C24.3415 26.2008 24.3475 26.1768 24.3656 26.117C24.2992 26.0991 24.2691 26.0871 24.2027 26.0691C24.1303 26.3025 24.1002 26.4162 24.0338 26.6555Z" fill="white"/>
</g>
</g>
</g>
</g>
</g>
<defs>
<clipPath id="clip0_43_1515">
<rect width="30" height="30" fill="white"/>
</clipPath>
</defs>
</svg>
