<svg width="89" height="91" viewBox="0 0 89 91" fill="none" xmlns="http://www.w3.org/2000/svg">
<path d="M64.6979 27.9776L43.3013 6.58093L1.69489 48.1704L23.0915 69.567L44.4881 90.9637L86.0946 49.3572L64.6979 27.9776Z" fill="#003D6C"/>
<path d="M62.8837 29.7747L43.352 10.2261L5.33997 48.2212L24.8885 67.7698L44.4371 87.3184L82.4323 49.3063L62.8837 29.7747Z" fill="#60BA46"/>
<path d="M66.885 62.5986L68.0718 61.4118V37.1498L66.885 35.963V62.5986ZM64.1214 65.3622L65.3082 64.1754V34.3862L64.1214 33.1994V65.3622ZM72.4122 57.0714L73.599 55.8846V42.677L72.4122 41.4902V57.0714ZM75.1758 54.3078L76.3626 53.121V45.4406L75.1758 44.2538V54.3078ZM61.3578 68.1258L62.5446 66.939V31.6227L61.3578 30.4358V68.1258ZM69.6486 59.835L70.8354 58.6482V39.9134L69.6486 38.7266V59.835ZM47.5229 81.9437L48.7097 80.7569V17.8047L47.5229 16.6179V81.9437ZM50.2865 79.1801L51.4733 77.9933V20.5683L50.2865 19.3815V79.1801ZM58.5942 70.8894L59.781 69.7026V28.8591L58.5942 27.6722V70.8894ZM77.9393 47.0174V51.5273L79.1262 50.3405V48.1872L77.9393 47.0174ZM44.7593 84.7073L45.9461 83.5205V15.0411L44.7593 13.8543V84.7073ZM55.8306 73.653L57.0174 72.4661V26.0955L55.8306 24.9087V73.653ZM53.067 76.4165L54.2538 75.2297V23.3319L53.067 22.1451V76.4165ZM22.6506 63.3107L23.8374 64.4975V32.0126L22.6506 33.1994V63.3107ZM33.705 74.3651L34.8918 75.5519V20.9583L33.705 22.1451V74.3651ZM30.9414 71.6015L32.1282 72.7883V23.7218L30.9414 24.9087V71.6015ZM36.4685 77.1456L37.6554 78.3324V18.1947L36.4685 19.3815V77.1456ZM41.9957 82.6728L43.1825 83.8596V12.6675L41.9957 13.8543V82.6728ZM39.2321 79.9092L40.4189 81.096V15.4311L39.2321 16.6179V79.9092ZM11.5962 52.2563L12.783 53.4431V43.067L11.5962 44.2538V52.2563ZM28.1778 68.8379L29.3646 70.0247V26.4854L28.1778 27.6722V68.8379ZM14.3598 55.0199L15.5466 56.2067V40.3034L14.3598 41.4902V55.0199ZM8.83264 49.4927L10.0195 50.6796V45.8306L8.83264 47.0174V49.4927ZM17.1234 57.7835L18.3102 58.9703V37.5398L17.1234 38.7266V57.7835ZM25.4142 66.0743L26.601 67.2611V29.249L25.4142 30.4358V66.0743ZM19.887 60.5471L21.0738 61.7339V34.7762L19.887 35.963V60.5471Z" fill="white"/>
<path d="M74.9385 34.0642C74.9385 33.6912 74.9385 33.5047 74.9385 33.1317C75.481 32.8265 75.7523 32.6909 76.2948 32.4027C75.7523 31.7245 75.481 31.3854 74.9385 30.7072C74.9385 28.5201 74.9385 26.316 74.9385 24.1288C73.0565 23.5015 71.1576 22.9251 69.2248 22.3995C69.2248 24.3832 69.2248 26.3499 69.2248 28.3336C68.8009 28.1979 68.3771 28.0793 67.9362 27.9436C67.9362 25.9769 67.9362 24.0271 67.9362 22.0604C66.0204 21.5687 64.0876 21.1448 62.1378 20.7718C62.1378 22.0265 62.1378 22.6708 62.1378 23.9254C61.8665 22.6199 61.7309 21.9587 61.4596 20.6532C59.4081 20.2802 57.3566 19.975 55.2882 19.7207C55.1017 20.5345 55.0169 20.9414 54.8304 21.7722C53.8131 20.8227 53.3045 20.348 52.2702 19.4155C50.2866 19.2459 48.3029 19.1273 46.3192 19.0764C45.4206 19.0594 44.9798 19.0425 44.0982 19.0425C41.5719 19.0594 39.0796 19.1612 36.5703 19.3138C36.5703 19.4324 36.5703 19.5003 36.5703 19.6189C36.4177 19.5003 36.3499 19.4494 36.1973 19.3307C34.3832 19.5003 32.5691 19.6868 30.7719 19.9072C29.7377 20.8905 29.2121 21.3992 28.1778 22.4164C27.9913 21.6026 27.9066 21.1788 27.7201 20.3649C25.6686 20.704 23.6171 21.1279 21.5825 21.6026C21.396 22.4843 21.3113 22.9251 21.1417 23.8067C20.1414 23.2133 19.6328 22.9081 18.6324 22.3486C15.9706 23.0607 13.3426 23.8915 10.7486 24.824C10.7486 27.0111 10.7486 29.2152 10.7486 31.4023C10.206 32.0805 9.93476 32.4366 9.39221 33.1317C9.93476 33.403 10.206 33.5556 10.7486 33.8268C10.7486 36.014 10.7486 38.2011 10.7486 40.3882L14.5464 43.4062C16.7505 42.6262 18.9715 41.8972 21.2265 41.3038C21.3452 41.2699 21.413 41.2529 21.5317 41.219C23.1593 40.7952 24.8039 40.4052 26.4485 40.0492C26.618 39.2523 26.6858 38.8454 26.8554 38.0485C27.0249 38.7776 27.0928 39.1506 27.2623 39.8796C28.9238 39.5575 30.6023 39.2692 32.2808 39.0488C32.3826 39.0319 32.4334 39.0319 32.5352 39.0149C34.0441 38.8115 35.57 38.6419 37.079 38.5402C37.2146 38.4215 37.2824 38.3537 37.4181 38.235C37.4181 38.3537 37.4181 38.4046 37.4181 38.5063C39.6391 38.3707 41.8602 38.2859 44.0982 38.2689C44.912 38.2689 45.3019 38.2689 46.1157 38.3028C47.7603 38.3537 49.388 38.4554 51.0156 38.5741C51.1343 38.5911 51.2021 38.5911 51.3208 38.608C52.9993 38.7776 54.6439 38.9641 56.3224 39.1845C56.4919 38.4385 56.5767 38.0655 56.7293 37.3364C56.8988 38.1333 56.9836 38.5232 57.1362 39.3201C58.3061 39.5066 58.8825 39.6083 60.0524 39.8287C60.9849 40.0152 61.4596 40.1 62.3921 40.3035C63.9689 40.6426 64.7488 40.846 66.3086 41.2529C67.0885 41.4733 67.4954 41.5751 68.2753 41.8124C70.3438 42.4397 72.3783 43.1349 74.4129 43.8639L78.3633 40.8969C78.3633 39.0149 78.3633 37.133 78.3633 35.251C77.0069 34.7763 76.3118 34.522 74.9385 34.0642Z" fill="#003D6C"/>
<path d="M12.4103 32.5045C12.2068 32.4028 12.122 32.352 11.9186 32.2333C12.122 31.9959 12.2068 31.8603 12.4103 31.6229C12.4103 29.741 12.4103 27.859 12.4103 25.977C14.2753 25.3497 16.1403 24.7733 18.0392 24.2477C18.6495 24.5868 18.9547 24.7733 19.5651 25.1293C19.5651 26.6213 19.5651 27.3673 19.5651 28.8763C19.1921 29.3849 19.0056 29.6562 18.6495 30.1648C19.0225 30.5039 19.1921 30.6565 19.5651 30.9956C19.5651 32.4876 19.5651 33.2505 19.5651 34.7425C18.9547 35.4038 18.6495 35.7429 18.0392 36.421C16.1403 36.9466 14.2753 37.5231 12.4103 38.1504C12.4103 36.2685 12.4103 34.3865 12.4103 32.5045ZM14.75 30.1648C15.7164 29.8596 16.2081 29.724 17.1745 29.4358C17.1745 28.3507 17.1745 27.8081 17.1745 26.723C16.2081 26.9943 15.7164 27.1469 14.75 27.4521C14.75 28.5372 14.75 29.0797 14.75 30.1648ZM14.75 35.1325C15.7164 34.8273 16.2081 34.6917 17.1745 34.4035C17.1745 33.3184 17.1745 32.7758 17.1745 31.6907C16.2081 31.962 15.7164 32.1146 14.75 32.4198C14.75 33.5049 14.75 34.0474 14.75 35.1325Z" fill="white"/>
<path d="M26.4994 34.4881C26.262 33.4369 26.1433 32.9283 25.9229 31.8771C24.9057 32.0636 24.414 32.1653 23.4137 32.3857C23.1763 33.5217 23.0746 34.0812 22.8372 35.2171C21.8538 35.4375 21.3791 35.5393 20.3958 35.7936C21.2604 31.538 22.1251 27.2654 22.9898 23.0098C24.3292 22.7216 25.0074 22.586 26.3637 22.3317C27.2284 26.2482 28.1101 30.1477 28.9747 34.0642C27.9744 34.2338 27.4827 34.3185 26.4994 34.4881ZM25.4312 29.7408C25.1261 28.3505 24.9565 27.6384 24.6513 26.2482C24.3462 27.7741 24.1766 28.5201 23.8714 30.046C24.4988 29.9103 24.8039 29.8595 25.4312 29.7408Z" fill="white"/>
<path d="M37.1469 31.8942C36.5196 32.4537 36.2144 32.7249 35.5871 33.2844C33.9086 33.4201 33.0608 33.5218 31.3993 33.7422C30.772 33.3183 30.4668 33.0979 29.8395 32.691C29.8395 31.9111 29.8395 31.5212 29.8395 30.7243C30.8059 30.5887 31.2976 30.5208 32.264 30.4022C32.264 30.7921 32.264 30.9956 32.264 31.3855C33.2473 31.2668 33.739 31.216 34.7224 31.1142C34.7224 30.0292 34.7224 29.4866 34.7224 28.4015C33.3999 28.5202 32.7387 28.605 31.4163 28.7745C30.7889 28.3507 30.4838 28.1303 29.8564 27.7064C29.8564 26.1466 29.8564 24.6037 29.8564 23.0439C30.4838 22.4335 30.7889 22.1453 31.4163 21.5519C33.0947 21.3315 33.9255 21.2467 35.604 21.0941C36.2313 21.5519 36.5365 21.7723 37.1638 22.247C37.1638 23.01 37.1638 23.383 37.1638 24.1459C36.1974 24.2138 35.7057 24.2477 34.7393 24.3494C34.7393 23.9764 34.7393 23.8068 34.7393 23.4338C33.756 23.5186 33.2643 23.5864 32.2809 23.7051C32.2809 24.7902 32.2809 25.3328 32.2809 26.4178C33.6203 26.2653 34.2816 26.1974 35.621 26.0788C36.2483 26.5365 36.5535 26.7739 37.1808 27.2317C37.1469 28.7915 37.1469 30.3343 37.1469 31.8942Z" fill="white"/>
<path d="M44.6746 32.9282C42.5553 32.9113 40.4359 32.9622 38.3166 33.0808C38.3166 31.1989 38.3166 29.3169 38.3166 27.435C38.1132 27.2654 38.0114 27.1976 37.808 27.0281C38.0114 26.8416 38.1132 26.7398 38.3166 26.5533C38.3166 24.6714 38.3166 22.7894 38.3166 20.9075C40.419 20.7888 42.5213 20.7379 44.6237 20.7549C44.6237 21.6535 44.6237 22.1113 44.6237 23.0098C43.0808 22.9929 42.3009 23.0098 40.7411 23.0607C40.7411 24.1458 40.7411 24.6883 40.7411 25.7734C42.0805 25.7226 42.7418 25.7226 44.0812 25.7226C44.0812 26.6212 44.0812 27.0789 44.0812 27.9775C42.7418 27.9775 42.0805 27.9775 40.7411 28.0284C40.7411 29.1135 40.7411 29.656 40.7411 30.7411C42.3179 30.6902 43.0978 30.6733 44.6746 30.6902C44.6746 31.5888 44.6746 32.0297 44.6746 32.9282Z" fill="white"/>
<path d="M45.8614 27.2996C45.658 27.13 45.5562 27.0283 45.3528 26.8588C45.5562 26.6892 45.658 26.6045 45.8614 26.418C45.8614 24.536 45.8614 22.654 45.8614 20.7721C47.8112 20.806 49.744 20.9077 51.6768 21.0603C52.3041 21.6198 52.6093 21.908 53.2366 22.4845C53.2366 23.9765 53.2366 24.7225 53.2366 26.2315C52.8636 26.6214 52.6771 26.8079 52.3041 27.1979C52.6771 27.6556 52.8636 27.893 53.2366 28.3677C53.2366 29.8597 53.2366 30.6227 53.2366 32.1147C52.6093 32.5555 52.3041 32.7929 51.6768 33.2506C49.744 33.098 47.7942 32.9963 45.8614 32.9624C45.8614 31.0635 45.8614 29.1815 45.8614 27.2996ZM48.2859 25.8245C49.2862 25.8754 49.7949 25.8924 50.7952 25.9771C50.7952 24.892 50.7952 24.3495 50.7952 23.2644C49.7949 23.1966 49.2862 23.1627 48.2859 23.1118C48.2859 24.1969 48.2859 24.7395 48.2859 25.8245ZM48.2859 30.7922C49.2862 30.8431 49.7949 30.86 50.7952 30.9448C50.7952 29.8597 50.7952 29.3172 50.7952 28.2321C49.7949 28.1643 49.2862 28.1304 48.2859 28.0795C48.2859 29.1646 48.2859 29.7071 48.2859 30.7922Z" fill="white"/>
<path d="M60.239 34.3186C60.0016 33.1996 59.8829 32.6401 59.6625 31.5041C58.6452 31.3346 58.1366 31.2667 57.1363 31.1311C56.8989 32.1823 56.7802 32.7079 56.5598 33.7591C55.5765 33.6234 55.0678 33.5726 54.0845 33.4708C54.9661 29.5204 55.8308 25.57 56.7124 21.6027C58.0688 21.7892 58.7639 21.8909 60.1203 22.1113C60.985 26.333 61.8666 30.5377 62.7313 34.7594C61.731 34.5729 61.2393 34.4881 60.239 34.3186ZM59.1878 29.1813C58.8826 27.6724 58.7131 26.9264 58.4079 25.4174C58.1027 26.8247 57.9332 27.5367 57.628 28.944C58.2383 29.0287 58.5605 29.0796 59.1878 29.1813Z" fill="white"/>
<path d="M69.7673 36.4209C67.8176 35.8784 65.8339 35.4036 63.8502 34.9967C63.8502 33.1148 63.8502 31.2328 63.8502 29.3509C63.6467 29.1305 63.545 29.0287 63.3585 28.8083C63.562 28.6727 63.6637 28.6049 63.8502 28.4692C63.8502 26.5873 63.8502 24.7053 63.8502 22.8234C64.8166 23.0268 65.2913 23.1285 66.2577 23.349C66.2577 25.2309 66.2577 27.1129 66.2577 28.9948C66.4612 29.2152 66.5629 29.3339 66.7664 29.5543C66.5629 29.673 66.4612 29.7408 66.2577 29.8765C66.2577 31.2328 66.2577 31.911 66.2577 33.2843C67.665 33.6234 68.3771 33.793 69.7673 34.1829C69.7673 35.0815 69.7673 35.5223 69.7673 36.4209Z" fill="white"/>
<path d="M76.7188 38.625C74.803 37.9468 72.8532 37.3195 70.9034 36.7431C70.9034 34.8611 70.9034 32.9792 70.9034 31.0972C70.7 30.8598 70.6152 30.7581 70.4117 30.5207C70.6152 30.4021 70.7 30.3342 70.9034 30.2156C70.9034 28.3336 70.9034 26.4517 70.9034 24.5697C71.8529 24.841 72.3276 24.9936 73.2771 25.2818C73.2771 27.1637 73.2771 29.0457 73.2771 30.9277C73.4805 31.165 73.5822 31.2837 73.7687 31.5211C73.5653 31.6228 73.4805 31.6906 73.2771 31.7923C73.2771 33.1487 73.2771 33.8269 73.2771 35.2002C74.6673 35.641 75.3625 35.8784 76.7358 36.3701C76.7188 37.2856 76.7188 37.7264 76.7188 38.625Z" fill="white"/>
<path d="M35.1121 83.8428C34.8578 83.5546 34.6883 83.3511 34.6713 83.3172L34.5866 83.2155C34.417 83.012 34.2475 82.7747 34.061 82.5373L33.9253 82.3508C33.2811 81.4183 32.7894 80.3502 33.4167 79.3838C34.3492 77.9596 35.6547 78.197 36.2651 78.3156C36.6889 78.4004 36.9941 78.4513 37.4349 78.2817C38.9439 77.6205 49.0996 68.0751 51.0494 65.9558C51.3716 65.5997 52.0158 64.8707 52.8296 63.9382C56.5257 59.6995 64.2231 50.9001 71.2592 44.5761L80.2621 36.4888C82.0084 34.929 84.382 34.6407 86.0436 35.8106L86.1284 35.8615L86.8065 36.5057C86.9591 36.6414 87.0948 36.794 87.2304 36.9466C87.3999 37.1331 87.5695 37.3365 87.7221 37.54L88.2816 38.286L88.3324 38.3707C89.3158 40.151 88.7902 42.4907 87.0439 44.0505L78.041 52.1378C70.9879 58.4619 61.4086 65.1589 56.797 68.3633C55.7797 69.0754 54.9829 69.6349 54.5929 69.9231C52.2701 71.6355 41.6905 80.7062 40.8597 82.1304C40.6563 82.5373 40.6732 82.8594 40.7071 83.3003C40.758 83.9615 40.8767 85.3179 39.283 86.0469C37.8757 86.6912 36.655 85.4535 35.7564 84.5549C35.7056 84.504 35.6716 84.4701 35.6208 84.4193L35.536 84.3514C35.5191 84.3345 35.3665 84.1989 35.163 83.9615L35.1121 83.8428Z" fill="#003D6C"/>
<path d="M77.1932 51.1375L86.1961 43.0502C87.332 42.0329 87.9593 40.3544 87.2133 39.015L86.7047 38.3368C86.4673 38.0317 86.213 37.7434 85.9248 37.4722L85.3144 36.8957C84.0598 36.0141 82.3304 36.4379 81.1945 37.4722L72.1916 45.5595C63.5787 53.2907 53.8807 64.8877 52.0666 66.8544C50.2524 68.8211 39.6898 78.8582 37.9434 79.5194C36.1971 80.1976 35.3833 78.8412 34.5525 80.0959C34.2135 80.6045 35.129 81.7235 35.7394 82.5034C35.7394 82.5034 35.875 82.6899 36.1124 82.9442C36.3497 83.1986 36.5193 83.3681 36.5193 83.3681C37.2314 84.0632 38.1639 85.0975 38.7742 84.8092C40.1475 84.1819 38.859 83.1646 39.7237 81.5031C40.5714 79.8416 51.6936 70.4318 53.8468 68.8381C55.9831 67.2443 68.5803 58.8518 77.1932 51.1375Z" fill="#AEB0B3"/>
<path d="M34.9425 79.6891C34.8069 79.7739 34.6712 79.9095 34.5525 80.096C34.2135 80.6046 35.129 81.7236 35.7394 82.5035C35.7394 82.5035 35.875 82.69 36.1124 82.9444C36.3497 83.1987 36.5193 83.3682 36.5193 83.3682C37.2314 84.0634 38.1639 85.0976 38.7742 84.8094C39.0116 84.7076 39.1472 84.5889 39.2659 84.4533C36.7905 82.5205 35.502 80.6216 34.9425 79.6891Z" fill="#6F7073"/>
<path d="M77.1933 51.1375L86.1961 43.0502C87.3321 42.0329 87.9594 40.3544 87.2134 39.015L86.7048 38.3368C86.5522 39.3541 84.755 41.3886 80.3468 45.4407C74.1584 51.1036 63.6466 60.5303 59.2384 63.4973C54.8302 66.4813 51.0663 70.0418 47.4889 73.314C43.9115 76.5862 40.012 80.1467 38.9269 81.147C37.9266 82.0625 38.8251 84.0801 38.13 84.7583C38.3674 84.877 38.5878 84.9109 38.7743 84.8261C40.1476 84.1988 38.8591 83.1816 39.7237 81.52C40.5715 79.8585 51.6936 70.4487 53.8469 68.855C55.9831 67.2443 68.5804 58.8518 77.1933 51.1375Z" fill="#6F7073"/>
<path d="M49.1166 69.7706C49.1166 69.7706 54.932 64.8199 58.0008 61.2425C61.0865 57.665 66.2746 51.9853 78.4818 40.7953C83.1443 36.5227 83.7717 37.0483 85.1111 36.7601C83.8734 36.048 82.2627 36.4888 81.1946 37.4552L72.1917 45.5425C63.5788 53.2738 53.8808 64.8707 52.0667 66.8375C51.575 67.38 50.4899 68.4481 49.1166 69.7706Z" fill="white"/>
<path d="M53.7623 83.8428C54.0166 83.5546 54.1861 83.3511 54.2031 83.3172L54.2879 83.1985C54.4574 82.9951 54.6269 82.7577 54.8134 82.5203L54.9491 82.3338C55.5934 81.4013 56.085 80.3332 55.4577 79.3668C54.5252 77.9426 53.2197 78.18 52.6094 78.2987C52.1855 78.3834 51.8803 78.4343 51.4395 78.2648C49.9305 77.6035 39.7748 68.0581 37.825 65.9388C37.5029 65.5828 36.8586 64.8537 36.0448 63.9212C32.3487 59.6826 24.6513 50.8832 17.6152 44.5591L8.61232 36.4718C6.86601 34.912 4.49237 34.6238 2.83083 35.7936L2.74605 35.8445L2.06787 36.4888C1.91528 36.6244 1.77965 36.777 1.64401 36.9296C1.47446 37.1161 1.30492 37.3195 1.15233 37.523L0.541964 38.286L0.491101 38.3707C-0.492262 40.151 0.0333283 42.4907 1.77965 44.0505L10.7825 52.1378C17.8356 58.4619 27.4149 65.1589 32.0265 68.3633C33.0438 69.0754 33.8407 69.6349 34.2306 69.9231C36.5534 71.6355 47.133 80.7062 47.9638 82.1304C48.1673 82.5373 48.1503 82.8594 48.1164 83.3003C48.0655 83.9615 47.9469 85.3178 49.5406 86.0469C50.9478 86.6912 52.1685 85.4535 53.0671 84.5549C53.118 84.504 53.1519 84.4701 53.2028 84.4193L53.2875 84.3514C53.3045 84.3345 53.4571 84.1988 53.6605 83.9615L53.7623 83.8428Z" fill="#003D6C"/>
<path d="M11.6811 51.1374L2.67826 43.0501C1.5423 42.0328 0.914987 40.3543 1.66099 39.0149L2.16962 38.3367C2.40699 38.0315 2.6613 37.7433 2.94953 37.472L3.5599 36.8956C4.81453 36.014 6.54389 36.4378 7.67985 37.472L16.6827 45.5594C25.2956 53.2906 34.9936 64.8875 36.8078 66.8543C38.6219 68.821 49.1846 78.8581 50.9309 79.5193C52.6772 80.1975 53.491 78.8411 54.3218 80.0958C54.6609 80.6044 53.7453 81.7234 53.135 82.5033C53.135 82.5033 52.9993 82.6898 52.762 82.9441C52.5246 83.1984 52.3551 83.368 52.3551 83.368C51.643 84.0631 50.7105 85.0973 50.1001 84.8091C48.7268 84.1818 50.0153 83.1645 49.1507 81.503C48.3029 79.8414 37.1808 70.4317 35.0275 68.8379C32.8913 67.2442 20.294 58.8517 11.6811 51.1374Z" fill="#AEB0B3"/>
<path d="M53.9317 79.6888C54.0673 79.7736 54.203 79.9093 54.3216 80.0958C54.6607 80.6044 53.7452 81.7234 53.1348 82.5033C53.1348 82.5033 52.9992 82.6898 52.7618 82.9441C52.5245 83.1984 52.3549 83.368 52.3549 83.368C51.6428 84.0631 50.7103 85.0973 50.1 84.8091C49.8626 84.7074 49.727 84.5887 49.6083 84.4531C52.0836 82.5202 53.3722 80.6213 53.9317 79.6888Z" fill="#6F7073"/>
<path d="M11.6811 51.1375L2.67826 43.0502C1.5423 42.0329 0.914987 40.3544 1.66099 39.015L2.16962 38.3368C2.32221 39.3541 4.11939 41.3886 8.52758 45.4407C14.716 51.1036 25.2278 60.5303 29.636 63.4973C34.0442 66.4813 37.8081 70.0418 41.3855 73.314C44.9629 76.5862 48.8624 80.1467 49.9475 81.147C50.9478 82.0625 50.0492 84.0801 50.7444 84.7583C50.507 84.877 50.2866 84.9109 50.1001 84.8261C48.7268 84.1988 50.0153 83.1816 49.1507 81.52C48.3029 79.8585 37.1808 70.4487 35.0275 68.855C32.8913 67.2443 20.294 58.8518 11.6811 51.1375Z" fill="#6F7073"/>
<path d="M39.7577 69.7706C39.7577 69.7706 33.9423 64.8199 30.8736 61.2425C27.7878 57.665 22.5997 51.9853 10.3925 40.7953C5.72997 36.5227 5.10265 37.0483 3.76324 36.7601C5.00093 36.048 6.61161 36.4888 7.67974 37.4552L16.6826 45.5425C25.2955 53.2738 34.9935 64.8707 36.8076 66.8375C37.2993 67.38 38.3844 68.4481 39.7577 69.7706Z" fill="white"/>
<path d="M78.3801 65.3793C78.3801 63.8365 78.3801 62.2936 78.3801 60.7507C76.9899 59.7843 76.2778 59.2757 74.8705 58.2584C73.0564 58.7671 71.2592 59.2248 69.4281 59.6657C68.716 59.8352 68.36 59.903 67.6649 60.0556C66.0542 60.3947 65.2573 60.5642 63.6297 60.8355C62.9346 60.9542 62.5785 61.022 61.8834 61.1237C60.6287 61.3272 60.0014 61.412 58.7468 61.5815C58.0347 61.6663 57.6617 61.7172 56.9496 61.8019C56.1866 61.8867 55.8136 61.9206 55.0507 62.0054C54.8133 62.514 54.7116 62.7683 54.4742 63.277C54.2369 62.8022 54.1351 62.5649 53.8978 62.1071C52.4227 62.2258 51.6767 62.2766 50.1847 62.3445C50.1847 62.6836 50.1847 62.8531 50.1847 63.1922C50.1169 62.8531 50.083 62.6836 50.0152 62.3614C48.2689 62.4462 47.3872 62.4632 45.6409 62.4801C45.5731 62.8192 45.5392 62.9887 45.4714 63.3278C45.4714 62.9887 45.4714 62.8192 45.4714 62.4801C42.9112 62.4971 40.3681 62.4123 37.8079 62.2427C37.8079 62.3614 37.8079 62.4123 37.8079 62.514C37.6892 62.3953 37.6214 62.3275 37.4858 62.2088C35.9599 62.1071 35.1969 62.0393 33.671 61.8867C32.942 61.8189 32.5859 61.768 31.8738 61.6832C29.958 61.4459 28.0421 61.1746 26.1432 60.8355C26.1432 60.8525 26.1432 60.8525 26.1432 60.8694C26.1262 60.8525 26.1262 60.8525 26.1093 60.8355C24.5325 60.5642 23.7526 60.4117 22.1928 60.0726L22.1758 60.0895V60.0726C19.7513 59.53 17.3608 58.9196 14.9702 58.2584C13.5629 59.2757 12.8678 59.7843 11.4606 60.7507C11.4606 62.2936 11.4606 63.8365 11.4606 65.3793C12.1557 65.5997 12.4948 65.7184 13.1899 65.9219C13.1899 66.1762 13.1899 66.3118 13.1899 66.5661C12.783 66.8374 12.5796 66.9561 12.1727 67.2274C12.5796 67.736 12.783 67.9903 13.1899 68.499C13.1899 70.2622 13.1899 72.0086 13.1899 73.7718C14.6989 74.2296 16.2248 74.6704 17.7507 75.0604C17.7507 74.4331 17.7507 74.1109 17.7507 73.4666C18.4628 74.2805 18.8188 74.6874 19.5309 75.5012C21.2772 75.9251 22.1419 76.1116 23.8882 76.4676C24.2952 76.1794 24.5156 76.0437 24.9225 75.7555C25.3294 76.1963 25.5328 76.4167 25.9567 76.8576C27.6861 77.1627 28.5507 77.2984 30.2801 77.5357C30.2971 77.5188 30.314 77.5188 30.331 77.5018C30.331 77.5188 30.331 77.5357 30.331 77.5527C32.5351 77.8579 34.7561 78.0783 36.9772 78.2478C38.0453 78.3326 38.5878 78.3665 39.656 78.4174C41.0802 78.4852 41.7922 78.5021 43.2164 78.5361C43.5725 78.5361 43.759 78.5361 44.115 78.553C45.6748 78.57 46.4378 78.553 47.9976 78.5191C48.0824 78.1291 48.1163 77.9426 48.1841 77.5527C48.2689 77.9426 48.3028 78.1291 48.3706 78.5021C49.354 78.4682 49.8456 78.4513 50.8121 78.4004C51.7446 78.3496 52.2023 78.3156 53.1348 78.2478C54.0673 78.18 54.5421 78.1291 55.4746 78.0444C55.5763 78.0274 55.6441 78.0274 55.7289 78.0274C56.797 77.9257 57.3226 77.8579 58.3907 77.7222C59.1876 77.6205 59.5945 77.5696 60.4083 77.451C61.8156 77.2475 62.5107 77.1288 63.9179 76.8915C64.7148 76.7558 65.1217 76.6711 65.9016 76.5185C67.5801 76.1963 69.2756 75.8233 70.9371 75.3995C71.4118 75.2808 71.6492 75.213 72.1239 75.0943C73.6498 74.7043 75.1757 74.2635 76.6847 73.8057C76.6847 72.0425 76.6847 70.2961 76.6847 68.5329C77.0916 68.0242 77.2781 67.7699 77.685 67.2613C77.2781 67.007 77.0916 66.8713 76.6847 66.6001C76.6847 66.3457 76.6847 66.2101 76.6847 65.9388C77.3459 65.7184 77.685 65.5997 78.3801 65.3793Z" fill="#003D6C"/>
<path d="M18.0559 65.8709C17.3607 65.6844 17.0047 65.5996 16.3095 65.4131C16.3095 66.4812 16.3095 67.0238 16.3095 68.1089C16.4621 68.2954 16.53 68.3801 16.6656 68.5497C16.513 68.6514 16.4452 68.7023 16.3095 68.787C16.3095 70.5673 16.3095 71.4659 16.3095 73.263C15.6144 73.0765 15.2584 72.9748 14.5632 72.7714C14.5632 70.9911 14.5632 70.0925 14.5632 68.2954C14.4106 68.1089 14.3428 68.0241 14.1902 67.8376C14.3428 67.7359 14.4106 67.685 14.5632 67.6002C14.5632 66.5321 14.5632 65.9895 14.5632 64.9045C13.8681 64.701 13.529 64.5993 12.8339 64.3789C12.8339 63.6668 12.8339 63.3107 12.8339 62.5986C14.5632 63.1242 16.3095 63.6159 18.0559 64.0737C18.0559 64.8197 18.0559 65.1757 18.0559 65.8709Z" fill="white"/>
<path d="M24.4646 74.1616C24.0068 74.4837 23.7864 74.6363 23.3287 74.9415C22.0062 74.6702 21.345 74.5346 20.0395 74.2125C19.5817 73.7038 19.3613 73.4495 18.9205 72.9409C18.9205 71.5506 18.9205 70.8555 18.9205 69.4821C18.7679 69.3126 18.7001 69.2278 18.5475 69.0413C18.7001 68.9396 18.7679 68.8887 18.9205 68.787C18.9205 67.3967 18.9205 66.7185 18.9205 65.3283C19.3613 65.04 19.5987 64.8875 20.0395 64.5823C21.345 64.8875 22.0062 65.04 23.3287 65.3113C23.7864 65.803 24.0068 66.0573 24.4646 66.549C24.4646 67.9393 24.4646 68.6175 24.4646 70.0077C24.6172 70.1773 24.685 70.262 24.8376 70.4316C24.685 70.5333 24.6172 70.6011 24.4646 70.7029C24.4646 72.0762 24.4646 72.7713 24.4646 74.1616ZM22.7013 70.3468C22.5488 70.1773 22.4809 70.0925 22.3283 69.923C22.4809 69.8212 22.5488 69.7534 22.7013 69.6517C22.7013 68.5835 22.7013 68.041 22.7013 66.9559C21.8875 66.7864 21.4976 66.7016 20.6838 66.5151C20.6838 67.5832 20.6838 68.1258 20.6838 69.2109C20.8363 69.3804 20.9042 69.4652 21.0568 69.6517C20.9042 69.7534 20.8363 69.8043 20.6838 69.906C20.6838 70.9741 20.6838 71.5167 20.6838 72.6018C21.4976 72.7883 21.8875 72.873 22.7013 73.0426C22.7013 71.9575 22.7013 71.415 22.7013 70.3468Z" fill="white"/>
<path d="M30.8905 75.1791C30.4158 75.5182 30.1954 75.6877 29.7206 76.0268C28.4151 75.8403 27.7709 75.7386 26.4654 75.5182C26.0076 75.0435 25.7872 74.7892 25.3294 74.3144C25.3294 72.9242 25.3294 72.229 25.3294 70.8557C25.1768 70.6862 25.109 70.6014 24.9564 70.4488C25.109 70.3301 25.1768 70.2793 25.3294 70.1606C25.3294 68.3803 25.3294 67.4818 25.3294 65.6846C26.0415 65.8202 26.3976 65.8711 27.1096 65.9897C27.1096 67.77 27.1096 68.6686 27.1096 70.4657C27.2622 70.6353 27.3301 70.7201 27.4826 70.8727C27.3301 70.9913 27.2622 71.0422 27.1096 71.1609C27.1096 72.229 27.1096 72.7716 27.1096 73.8567C27.9065 73.9923 28.3134 74.0601 29.1103 74.1788C29.1103 73.1107 29.1103 72.5681 29.1103 71.483C28.9577 71.3304 28.8899 71.2457 28.7373 71.0761C28.8899 70.9574 28.9577 70.9066 29.1103 70.7879C29.1103 69.0077 29.1103 68.1091 29.1103 66.3119C29.8224 66.4136 30.1784 66.4645 30.8905 66.5662C30.8905 68.3464 30.8905 69.245 30.8905 71.0422C31.0431 71.1948 31.1109 71.2796 31.2635 71.4322C31.1109 71.5508 31.0431 71.6017 30.8905 71.7204C30.8905 73.1107 30.8905 73.8058 30.8905 75.1791Z" fill="white"/>
<path d="M31.7381 71.8389C31.5855 71.6863 31.5177 71.6015 31.3651 71.4489C31.5177 71.3302 31.5855 71.2624 31.7381 71.1437C31.7381 71.415 31.7381 71.5676 31.7381 71.8389ZM37.5196 76.8574C36.7567 76.8065 36.3667 76.7726 35.5868 76.7048C34.9764 75.0772 34.6712 74.2634 34.0609 72.6357C33.8405 72.6188 33.7387 72.6018 33.5353 72.5849C33.5353 74.1616 33.5353 74.9415 33.5353 76.5014C32.8232 76.4335 32.4502 76.3827 31.7381 76.2979C31.7381 73.0935 31.7381 69.8721 31.7381 66.6677C33.4505 66.8712 34.3152 66.9729 36.0446 67.1085C36.5023 67.5494 36.7397 67.7698 37.1975 68.2106C37.1975 69.6178 37.1975 70.3299 37.1975 71.7541C36.7058 72.178 36.4684 72.3814 35.9767 72.7883C36.5871 74.416 36.8923 75.2298 37.5196 76.8574ZM33.5353 70.8046C34.2813 70.8894 34.6543 70.9233 35.4003 70.9911C35.4003 70.1265 35.4003 69.7026 35.4003 68.8379C34.6543 68.7701 34.2813 68.7362 33.5353 68.6514C33.5353 69.5161 33.5353 69.9399 33.5353 70.8046Z" fill="white"/>
<path d="M42.1484 77.078C41.4872 75.3826 40.8429 73.6702 40.1817 71.9578C40.1817 73.6363 40.1817 75.3148 40.1817 76.9933C39.4696 76.9593 39.1135 76.9424 38.3845 76.9085C38.3845 75.1283 38.3845 74.2297 38.3845 72.4325C38.2319 72.2799 38.1641 72.2121 38.0115 72.0595C38.1641 71.9239 38.2319 71.856 38.3845 71.7373C38.3845 69.9571 38.3845 69.0585 38.3845 67.2614C39.1474 67.3122 39.5374 67.3292 40.3173 67.3631C40.9785 69.0755 41.6228 70.7709 42.284 72.4834C42.284 70.8049 42.284 69.1094 42.284 67.4309C42.9961 67.4479 43.3522 67.4479 44.0642 67.4648C44.0642 69.245 44.0642 70.1436 44.0642 71.9408C44.2168 72.0764 44.2847 72.1443 44.4372 72.2969C44.2847 72.4325 44.2168 72.5003 44.0642 72.6359C44.0642 74.4162 44.0642 75.3148 44.0642 77.095C44.0642 77.095 44.0642 77.095 44.0642 77.1119C43.3013 77.095 42.9113 77.095 42.1484 77.078Z" fill="white"/>
<path d="M49.5404 77.0102C49.3708 76.1625 49.286 75.7386 49.0995 74.8909C48.3535 74.9248 47.9636 74.9248 47.2176 74.9417C47.048 75.8064 46.9633 76.2303 46.7768 77.095C46.0477 77.1119 45.6747 77.1119 44.9457 77.1119C45.59 73.8906 46.2512 70.6862 46.8955 67.4648C47.9127 67.4478 48.4214 67.4309 49.4217 67.397C50.0659 70.5675 50.7102 73.7549 51.3714 76.9254C50.6424 76.9593 50.2694 76.9763 49.5404 77.0102ZM48.7435 73.1276C48.5061 71.9917 48.3875 71.4152 48.167 70.2623C47.9297 71.4152 47.811 72.0086 47.5906 73.1615C48.0484 73.1446 48.2688 73.1446 48.7435 73.1276Z" fill="white"/>
<path d="M58.9502 76.1963C58.2381 76.2981 57.8651 76.332 57.153 76.4167C57.153 74.6026 57.153 72.8054 57.153 70.9913C56.5257 72.3816 56.2205 73.0767 55.5932 74.467C54.9658 73.2123 54.6607 72.5681 54.0333 71.2965C54.0333 73.1106 54.0333 74.9078 54.0333 76.7219C53.3213 76.7897 52.9483 76.8067 52.2362 76.8576C52.2362 75.0773 52.2362 74.1787 52.2362 72.3816C52.0836 72.2629 52.0158 72.1951 51.8632 72.0594C52.0158 71.9068 52.0836 71.839 52.2362 71.6864C52.2362 69.9062 52.2362 69.0076 52.2362 67.2104C52.9483 67.1596 53.3213 67.1426 54.0333 67.0748C54.6607 68.3464 54.9658 68.9737 55.5932 70.2453C56.2205 68.855 56.5257 68.1599 57.153 66.7696C57.8651 66.6848 58.2381 66.6509 58.9502 66.5492C58.9502 68.3294 58.9502 69.228 58.9502 71.0252C59.1028 71.1439 59.1706 71.2117 59.3232 71.3304C59.1706 71.483 59.1028 71.5677 58.9502 71.7203C58.9502 73.5175 58.9502 74.4161 58.9502 76.1963Z" fill="white"/>
<path d="M64.4603 75.3317C62.9175 75.6199 61.3576 75.8742 59.8148 76.0777C59.8148 74.2975 59.8148 73.3989 59.8148 71.6017C59.6622 71.483 59.5944 71.4322 59.4418 71.3135C59.5944 71.1609 59.6622 71.0761 59.8148 70.9066C59.8148 69.1263 59.8148 68.2278 59.8148 66.4306C61.3576 66.2271 62.9005 65.9728 64.4264 65.6846C64.4264 66.3967 64.4264 66.7527 64.4264 67.4648C63.2905 67.6683 62.731 67.77 61.595 67.9395C61.595 68.8042 61.595 69.2281 61.595 70.0928C62.5784 69.9402 63.0531 69.8554 64.0365 69.6858C64.0365 70.3979 64.0365 70.754 64.0365 71.4661C63.07 71.6356 62.5784 71.7204 61.595 71.873C61.595 72.7377 61.595 73.1615 61.595 74.0262C62.7479 73.8397 63.3244 73.7549 64.4603 73.5345C64.4603 74.2636 64.4603 74.6196 64.4603 75.3317Z" fill="white"/>
<path d="M69.021 74.399C68.3767 72.8561 67.7324 71.3132 67.0882 69.7704C67.0882 71.4489 67.0882 73.1274 67.0882 74.8059C66.3761 74.9585 66.037 75.0263 65.3249 75.1619C65.3249 73.3817 65.3249 72.4831 65.3249 70.6859C65.1723 70.5842 65.1045 70.5164 64.9519 70.4146C65.1045 70.2451 65.1723 70.1603 65.3249 69.9908C65.3249 68.2106 65.3249 67.312 65.3249 65.5148C66.0879 65.3622 66.4609 65.2944 67.2238 65.1248C67.8681 66.6677 68.5124 68.2106 69.1566 69.7534C69.1566 68.0749 69.1566 66.3795 69.1566 64.701C69.8518 64.5314 70.2078 64.4636 70.9029 64.2771C70.9029 66.0573 70.9029 66.9559 70.9029 68.7531C71.0555 68.8548 71.1234 68.9057 71.2759 69.0074C71.1234 69.177 71.0555 69.2617 70.9029 69.4482C70.9029 71.2285 70.9029 72.1271 70.9029 73.9073C70.9029 73.9073 70.9029 73.9073 70.9029 73.9242C70.1569 74.1277 69.767 74.2125 69.021 74.399Z" fill="white"/>
<path d="M76.9729 64.3958C76.2777 64.6162 75.9386 64.718 75.2435 64.9214C75.2435 65.9895 75.2435 66.5321 75.2435 67.6172C75.3961 67.7189 75.4639 67.7698 75.5995 67.8545C75.4469 68.041 75.3791 68.1258 75.2435 68.2954C75.2435 70.0756 75.2435 70.9742 75.2435 72.7714C74.5483 72.9748 74.1923 73.0765 73.4972 73.263C73.4972 71.4828 73.4972 70.5842 73.4972 68.787C73.3446 68.6853 73.2768 68.6344 73.1242 68.5497C73.2768 68.3632 73.3446 68.2784 73.4972 68.0919C73.4972 67.0238 73.4972 66.4812 73.4972 65.3961C72.802 65.5826 72.446 65.6844 71.7509 65.8539C71.7509 65.1418 71.7509 64.7858 71.7509 64.0737C73.4972 63.6159 75.2435 63.1242 76.9729 62.5986C76.9729 63.3277 76.9729 63.6837 76.9729 64.3958Z" fill="white"/>
<path d="M45.004 18.3376C49.569 17.4817 52.5758 13.0871 51.7198 8.52213C50.8639 3.95713 46.4693 0.950374 41.9043 1.80634C37.3393 2.6623 34.3326 7.05686 35.1885 11.6219C36.0445 16.1868 40.4391 19.1936 45.004 18.3376Z" fill="#003D6C"/>
<path d="M48.4834 15.1055C51.2642 12.3246 51.2642 7.81598 48.4834 5.03512C45.7025 2.25426 41.1939 2.25426 38.413 5.03512C35.6321 7.81598 35.6321 12.3246 38.413 15.1055C41.1939 17.8864 45.7025 17.8864 48.4834 15.1055Z" fill="#C4DBE7"/>
<path d="M41.0466 3.37651C38.8256 4.17337 37.2318 5.97055 36.6215 8.07292C36.6554 8.20855 36.7062 8.32723 36.7401 8.46287C38.0626 12.1759 42.1486 14.0918 45.8447 12.7693C48.0658 11.9725 49.6595 10.1753 50.2699 8.07292C50.236 7.93728 50.1851 7.8186 50.1512 7.68296C48.8287 3.96992 44.7427 2.0371 41.0466 3.37651Z" fill="white"/>
<path d="M49.0658 5.6992C48.6928 5.22448 48.269 4.80061 47.8112 4.44457C46.5226 6.05525 45.2171 8.34411 45.2511 11.0738C45.268 12.854 45.8614 14.5834 47.0313 16.2449C47.5399 15.9397 48.0146 15.5837 48.4216 15.1768C47.4891 13.8374 47.0143 12.4471 46.9974 11.0568C46.9635 8.92057 47.9977 7.05557 49.0658 5.6992ZM37.8419 5.68225C38.9101 7.05557 39.9443 8.92057 39.9104 11.0399C39.8934 12.4471 39.4017 13.8204 38.4692 15.1768C38.8931 15.5837 39.3678 15.9397 39.8595 16.228C41.0294 14.5834 41.6228 12.8371 41.6567 11.0568C41.6906 8.32716 40.3851 6.02134 39.0966 4.42761C38.6218 4.80061 38.198 5.22448 37.8419 5.68225Z" fill="#C4DBE7"/>
<path d="M41.4703 13.1931C41.0464 13.2948 40.6565 13.3965 40.2326 13.4474L40.3004 13.8882C40.7073 13.8373 41.1312 13.7695 41.5551 13.6847C41.6738 13.6508 41.7585 13.5152 41.7416 13.3796C41.7246 13.227 41.589 13.1591 41.4703 13.1931ZM39.2493 9.53087C39.2153 9.6326 39.2662 9.73433 39.3849 9.75128C39.5883 9.80214 39.7748 9.85301 39.9783 9.90387C40.1818 9.95473 40.3683 10.0226 40.5548 10.1073C40.6056 9.97169 40.6734 9.83605 40.7073 9.70042C40.3004 9.56478 39.9105 9.46305 39.5205 9.37828C39.4018 9.36133 39.2832 9.42914 39.2493 9.53087ZM39.0119 13.4474C39.3001 13.7356 39.5714 14.0408 39.8257 14.3629C39.9444 14.2781 40.0631 14.1934 40.1818 14.0916C39.9105 13.7695 39.6223 13.4643 39.334 13.1931C39.2493 13.1083 39.1136 13.1083 39.0288 13.1761C38.9271 13.2439 38.9271 13.3626 39.0119 13.4474ZM39.2153 8.36101C39.0967 8.36101 38.978 8.42883 38.961 8.54751C38.9441 8.64924 39.0119 8.75096 39.1306 8.75096C39.334 8.76792 39.5375 8.80183 39.7409 8.83574C39.9444 8.86964 40.1478 8.90355 40.3513 8.95442C40.3852 8.81878 40.4191 8.66619 40.453 8.53055C40.0292 8.44578 39.6223 8.39492 39.2153 8.36101ZM41.0464 14.4816C40.6226 14.5325 40.1987 14.5494 39.7748 14.5664C39.7748 14.719 39.7918 14.8716 39.7748 15.0072C40.1987 15.0241 40.6056 15.0072 41.0295 14.9733C41.1482 14.9563 41.2668 14.8376 41.2668 14.702C41.2838 14.5664 41.1651 14.4646 41.0464 14.4816ZM39.7748 6.76728C40.0122 6.42819 40.2496 6.07215 40.453 5.69915C40.5208 5.59742 40.47 5.44483 40.3683 5.37701C40.2496 5.30919 40.1139 5.3431 40.0631 5.44483C39.8596 5.81783 39.6392 6.17387 39.4188 6.51296L39.7748 6.76728ZM39.2493 5.95346C38.8423 5.98737 38.4185 6.05519 38.0285 6.12301C37.9098 6.13996 37.8251 6.25865 37.8251 6.36037C37.8251 6.47905 37.9268 6.54687 38.0455 6.52992C38.4524 6.4621 38.8593 6.42819 39.2662 6.39428L39.2493 5.95346ZM39.8257 7.44546L39.8427 7.00465C39.4358 6.98769 39.0119 7.0216 38.605 7.03855C38.4863 7.05551 38.3846 7.14028 38.3846 7.25896C38.3846 7.37765 38.4693 7.44546 38.588 7.44546C38.9949 7.42851 39.4018 7.42851 39.8257 7.44546ZM38.8932 14.1934C38.8084 14.0916 38.6728 14.0747 38.588 14.1256C38.5033 14.1764 38.4693 14.2951 38.5541 14.3968C38.7915 14.719 39.0288 15.0581 39.2493 15.4141L39.6223 15.1937C39.4018 14.8376 39.1645 14.5155 38.8932 14.1934ZM39.724 4.5971C39.7748 4.47842 39.724 4.34278 39.6053 4.27496C39.4866 4.2241 39.351 4.25801 39.3001 4.37669C39.1306 4.76665 38.9441 5.13965 38.7576 5.51265C38.8932 5.58046 39.0119 5.64828 39.1475 5.7161C39.351 5.3431 39.5544 4.9701 39.724 4.5971ZM40.2157 16.0584C39.9613 16.0414 39.707 16.0245 39.4697 15.9906C39.7409 16.1771 40.0122 16.3296 40.3174 16.4822C40.3683 16.4483 40.4191 16.3805 40.4361 16.3127C40.4361 16.1601 40.3513 16.0584 40.2157 16.0584ZM40.6565 12.5488C40.3174 12.2945 39.9953 12.0571 39.6562 11.8367C39.5544 11.7689 39.4188 11.7858 39.351 11.8706C39.2832 11.9554 39.3001 12.0571 39.4018 12.1249C39.5714 12.2436 39.7409 12.3623 39.9105 12.481C40.0631 12.5996 40.2326 12.7353 40.3852 12.8709C40.453 12.7692 40.5717 12.6505 40.6565 12.5488ZM42.0468 11.5146C41.9959 11.3789 41.8603 11.3281 41.7585 11.3959C41.3686 11.5824 40.9956 11.7519 40.6056 11.9045L40.7413 12.3114C41.1312 12.1927 41.5551 12.0401 41.9281 11.8536C42.0468 11.8028 42.0976 11.6502 42.0468 11.5146ZM40.4191 8.25928C40.5717 8.10669 40.7073 7.9541 40.843 7.80151C40.9786 7.64892 41.1143 7.47937 41.2499 7.30983C41.3347 7.2081 41.3177 7.05551 41.216 6.97074C41.1143 6.88596 40.9786 6.90292 40.8938 7.00465C40.6395 7.34374 40.3683 7.66587 40.097 7.97105C40.1987 8.05583 40.3004 8.15755 40.4191 8.25928ZM40.7243 9.46305C40.8938 9.32742 41.0634 9.20873 41.216 9.05614C41.3686 8.92051 41.5212 8.76792 41.6738 8.61533C41.7585 8.53055 41.7585 8.36101 41.6738 8.25928C41.589 8.15755 41.4364 8.15755 41.3516 8.24233C41.0634 8.54751 40.7413 8.83574 40.4361 9.10701C40.5548 9.22569 40.6395 9.34437 40.7243 9.46305ZM39.707 10.7855C39.6053 10.7346 39.4697 10.7855 39.4018 10.8703C39.351 10.9551 39.3849 11.0737 39.5036 11.1246C39.8596 11.2941 40.2157 11.4806 40.5717 11.7011L40.8091 11.3281C40.453 11.1246 40.0631 10.9381 39.707 10.7855ZM40.6565 10.7007L40.8599 11.0907C41.2329 10.9042 41.589 10.7007 41.962 10.4634C42.0637 10.3956 42.0976 10.243 42.0298 10.1073C41.962 9.98864 41.8263 9.95474 41.7246 10.0226C41.3686 10.2769 41.0295 10.4973 40.6565 10.7007Z" fill="#ED232F"/>
<path d="M45.1663 13.3628C45.1493 13.4984 45.2171 13.634 45.3528 13.6679C45.7766 13.7697 46.2005 13.8375 46.6074 13.8714L46.6752 13.4306C46.2513 13.3797 45.8614 13.278 45.4375 13.1763C45.3019 13.1593 45.1832 13.2271 45.1663 13.3628ZM47.3703 9.3954C46.9804 9.48017 46.5904 9.5819 46.1835 9.71753C46.2174 9.85317 46.2852 9.98881 46.3361 10.1244C46.5226 10.0566 46.7261 9.98881 46.9126 9.92099C47.116 9.87012 47.3025 9.80231 47.506 9.7684C47.6247 9.73449 47.6755 9.64972 47.6416 9.54799C47.6077 9.42931 47.489 9.36149 47.3703 9.3954ZM47.8959 13.1763C47.8112 13.1084 47.6755 13.1254 47.5908 13.1932C47.3025 13.4645 47.0143 13.7697 46.743 14.0918C46.8617 14.1766 46.9804 14.2783 47.0991 14.3631C47.3534 14.0409 47.6077 13.7358 47.9129 13.4475C47.9807 13.3628 47.9807 13.2441 47.8959 13.1763ZM46.4548 8.51376C46.4718 8.6494 46.5226 8.80199 46.5565 8.93763C46.76 8.88676 46.9634 8.85285 47.1669 8.81894C47.3703 8.78503 47.5738 8.76808 47.7772 8.73417C47.8959 8.71722 47.9807 8.63244 47.9468 8.53072C47.9129 8.42899 47.8112 8.34422 47.6925 8.34422C47.2856 8.39508 46.8787 8.44594 46.4548 8.51376ZM45.624 14.6852C45.624 14.8209 45.7258 14.9395 45.8614 14.9565C46.2853 14.9904 46.6922 15.0073 47.116 14.9904C47.0991 14.8548 47.116 14.7022 47.116 14.5496C46.7091 14.5496 46.2853 14.5157 45.8444 14.4648C45.7258 14.4648 45.624 14.5665 45.624 14.6852ZM47.489 6.53008C47.2517 6.19099 47.0482 5.83494 46.8447 5.46194C46.7769 5.34326 46.6413 5.30935 46.5396 5.39413C46.4209 5.46194 46.387 5.61454 46.4548 5.71626C46.6583 6.08926 46.8956 6.44531 47.133 6.7844L47.489 6.53008ZM47.6416 6.37749C48.0655 6.4114 48.4554 6.44531 48.8623 6.51313C48.981 6.53008 49.0828 6.46226 49.0828 6.34358C49.0828 6.2249 48.998 6.12317 48.8793 6.10622C48.4724 6.0384 48.0655 5.98754 47.6586 5.93667L47.6416 6.37749ZM48.3028 7.46258C48.4215 7.46258 48.5233 7.39476 48.5063 7.27608C48.5063 7.1574 48.4046 7.07263 48.2859 7.05567C47.879 7.02176 47.4551 7.00481 47.0482 7.02176L47.0652 7.46258C47.506 7.42867 47.9129 7.42867 48.3028 7.46258ZM47.2856 15.1939L47.6586 15.4143C47.879 15.0582 48.1163 14.7191 48.3537 14.397C48.4215 14.2953 48.4046 14.1766 48.3198 14.1257C48.235 14.0749 48.0994 14.0918 48.0146 14.1935C47.7433 14.5157 47.506 14.8378 47.2856 15.1939ZM47.7603 5.71626C47.8959 5.64844 48.0146 5.58063 48.1503 5.51281C47.9638 5.15676 47.7772 4.76681 47.6077 4.37685C47.5568 4.25817 47.4212 4.20731 47.3025 4.27513C47.1838 4.34294 47.133 4.47858 47.1838 4.59726C47.3534 4.97026 47.5568 5.34326 47.7603 5.71626ZM46.4718 16.2959C46.4887 16.3637 46.5226 16.4315 46.5904 16.4654C46.8787 16.3298 47.1669 16.1603 47.4382 15.9738C47.1838 16.0077 46.9295 16.0246 46.6922 16.0416C46.5565 16.0585 46.4718 16.1603 46.4718 16.2959ZM46.5396 12.8711C46.6922 12.7354 46.8447 12.5998 47.0143 12.4811C47.1838 12.3624 47.3534 12.2438 47.5229 12.1251C47.6247 12.0573 47.6416 11.9386 47.5738 11.8708C47.506 11.786 47.3534 11.769 47.2686 11.8369C46.9295 12.0403 46.5904 12.2777 46.2683 12.5489C46.3361 12.6507 46.4548 12.7694 46.5396 12.8711ZM44.9797 11.8538C45.3527 12.0403 45.7766 12.1759 46.1666 12.3116L46.3022 11.9047C45.9123 11.769 45.5392 11.5995 45.1493 11.396C45.0306 11.3452 44.895 11.396 44.8611 11.5147C44.8102 11.6504 44.8611 11.8029 44.9797 11.8538ZM46.8108 7.97122C46.5396 7.66604 46.2683 7.3439 46.014 7.00481C45.9462 6.90308 45.7936 6.88613 45.6918 6.9709C45.5901 7.05567 45.5732 7.22522 45.6579 7.30999C45.7936 7.47953 45.9292 7.63213 46.0648 7.80167C46.2005 7.95426 46.3531 8.12381 46.4887 8.25944C46.5904 8.15772 46.6922 8.05599 46.8108 7.97122ZM46.4548 9.12413C46.1496 8.85285 45.8275 8.56463 45.5393 8.25944C45.4545 8.17467 45.3019 8.17467 45.2171 8.2764C45.1323 8.37813 45.1323 8.54767 45.2171 8.63244C45.3697 8.78503 45.5223 8.92067 45.6749 9.07326C45.8275 9.2089 45.997 9.34453 46.1666 9.48017C46.2683 9.34453 46.3531 9.22585 46.4548 9.12413ZM46.0988 11.3282L46.3361 11.7012C46.6922 11.4808 47.0482 11.2774 47.4043 11.1248C47.5229 11.0739 47.5568 10.9722 47.506 10.8704C47.4551 10.7857 47.3195 10.7348 47.2008 10.7857C46.8278 10.9383 46.4378 11.1248 46.0988 11.3282ZM45.1832 10.0227C45.0815 9.9549 44.9458 9.97185 44.878 10.1075C44.8102 10.2262 44.8441 10.3788 44.9458 10.4635C45.3188 10.7009 45.6749 10.9213 46.0479 11.0909L46.2513 10.7009C45.8783 10.4974 45.5393 10.277 45.1832 10.0227Z" fill="#ED232F"/>
<path d="M37.5199 4.5803C38.7745 5.95362 40.4191 8.29335 40.3852 11.0569C40.3683 12.8033 39.6731 14.5157 38.3337 16.1433C38.5711 16.2789 38.8084 16.4146 39.0458 16.5333C40.4361 14.7869 41.1482 12.9558 41.1821 11.0569C41.216 8.03903 39.5205 5.56367 38.1811 4.08862C37.9438 4.25817 37.7403 4.41076 37.5199 4.5803Z" fill="#003D6C"/>
<path d="M49.3712 4.5803C48.1165 5.95362 46.4719 8.29335 46.5059 11.0569C46.5228 12.8033 47.2179 14.5157 48.5574 16.1433C48.32 16.2789 48.0826 16.4146 47.8453 16.5333C46.455 14.7869 45.7429 12.9558 45.709 11.0569C45.6751 8.03903 47.3705 5.56367 48.7099 4.08862C48.9473 4.25817 49.1677 4.41076 49.3712 4.5803Z" fill="#003D6C"/>
<path d="M59.5944 50.6966V50.4592C59.5775 49.6115 59.5436 48.7129 59.4079 47.8143C59.3062 47.17 59.1367 46.5427 58.9332 45.9324L58.9162 45.8815L58.8993 45.8306C58.5602 45.0338 58.2381 44.4065 57.8651 43.847C57.3395 43.0331 56.6782 42.2193 55.7966 41.2529C52.8465 38.0824 49.4895 35.997 45.8104 35.0815C44.2675 34.6915 42.7586 34.505 41.3513 34.505C39.6898 34.505 38.1978 34.7763 36.8923 35.3188L36.8414 35.3358L36.7906 35.3697C35.6885 35.9461 34.6882 36.743 33.7218 37.7603C32.8402 38.6928 31.8398 39.8118 31.043 41.0495L30.67 41.6429L30.5004 41.6598C30.3648 41.6768 30.2122 41.6937 30.0088 41.6937C29.7714 41.6937 29.5001 41.6768 29.2458 41.6598L28.9576 41.6429C28.5676 41.6259 28.1946 41.592 27.8047 41.5581C27.4825 41.5411 27.1604 41.5072 26.8213 41.4903C26.3635 41.4564 25.9736 41.4564 25.5836 41.4564H25.3802C25.058 41.4564 24.7868 41.4733 24.5494 41.5072C23.3287 41.6937 23.0235 43.3214 24.0916 43.9487C28.2794 47.7804 33.7048 50.6796 33.7048 50.6796C33.5353 50.8492 33.3488 51.0187 33.1793 51.2222C32.3146 52.1547 32.0433 53.2567 31.9077 54.0027C31.5855 55.8847 31.7551 57.6988 32.3993 59.2756C32.8741 60.4285 33.637 61.4627 34.756 62.4291L35.1121 62.7682H35.2477C36.3667 63.4803 37.5705 64.0229 38.6386 64.4637L38.6556 64.4806L38.7234 64.5145C39.5372 64.8028 40.351 65.0571 41.1479 65.2775C41.843 65.464 42.5382 65.5488 43.2163 65.5488C44.4201 65.5488 45.59 65.2605 46.6412 64.701C46.7259 64.6671 46.7937 64.6163 46.8616 64.5824L46.9124 64.5484C46.9803 64.5145 47.0311 64.4806 47.0989 64.4298C47.3702 64.2602 47.6415 64.0737 47.8958 63.8703L48.9639 63.7516C49.9642 63.6329 50.812 63.4973 51.6088 63.3277C52.4396 63.1412 53.2873 62.9378 54.1012 62.6834C54.4911 62.5648 54.8811 62.4122 55.3558 62.2087L55.6271 62.09L55.8305 61.8696C56.8139 60.7845 57.5938 59.4282 58.255 57.7327C58.8315 56.2407 59.391 54.63 59.5605 52.9346C59.6283 52.1716 59.6114 51.4256 59.5944 50.6966Z" fill="#003D6C"/>
<path d="M58.2718 50.4761C58.2549 49.6623 58.2379 48.8316 58.1023 48.0177C58.0175 47.4582 57.8649 46.8987 57.6784 46.3392C57.4072 45.7289 57.1189 45.1355 56.7459 44.559C56.1864 43.6943 55.5082 42.8975 54.8131 42.1515C52.253 39.4048 49.1333 37.2686 45.4712 36.353C42.9449 35.7257 39.8762 35.4883 37.3669 36.5226C36.3496 37.0651 35.451 37.7942 34.6542 38.6588C33.7556 39.6252 32.84 40.6425 32.1279 41.7615C33.4843 42.6601 37.1804 44.7455 38.1637 46.7122C38.1807 46.7122 38.1637 46.7461 38.1637 46.7461C37.2312 45.9323 33.959 43.7282 30.6359 42.9653C30.0595 43.0331 29.4322 42.9822 28.8727 42.9483C28.1606 42.9144 27.4485 42.8466 26.7364 42.7957C26.3464 42.7788 25.9734 42.7618 25.5835 42.7618C25.3461 42.7618 25.2613 43.084 25.4648 43.2027C26.6855 43.8639 27.9402 44.4742 29.2117 44.9998C31.4667 45.9323 33.7895 46.6783 36.1631 47.2887C36.214 47.3057 36.2818 47.3226 36.3496 47.3396C36.4852 47.3735 36.6209 47.4074 36.7735 47.4413C36.7904 47.4413 36.8074 47.4413 36.8243 47.4582C38.2485 47.8143 39.6897 48.1195 41.1308 48.3907C43.0806 48.7637 45.2338 49.0859 46.9292 50.154C48.3534 51.0356 49.3029 52.409 49.8285 53.9857C49.8285 54.0027 49.8115 54.0027 49.7946 53.9857C49.7776 53.9518 49.7606 53.9179 49.7437 53.884C48.9638 52.8159 46.3358 50.6118 42.8941 49.9845C40.4017 49.5436 37.9433 49.052 36.6717 48.7298C36.5361 49.0859 36.3496 49.425 36.1462 49.7641C36.0953 49.8488 36.0444 49.9166 35.9936 50.0014C35.8071 50.2727 35.6036 50.544 35.4171 50.7813C35.0441 51.2561 34.5694 51.646 34.1625 52.1038C33.603 52.6972 33.3656 53.4262 33.23 54.2231C32.9757 55.7321 33.0604 57.3427 33.6369 58.7669C34.0777 59.852 34.7898 60.6997 35.6545 61.4457C36.7226 62.1917 37.9603 62.7343 39.181 63.2599H39.198C39.9609 63.5311 40.7239 63.7855 41.5038 63.972C43.0806 64.3789 44.6404 64.2602 46.0646 63.4972C46.1324 63.4633 46.2002 63.4125 46.285 63.3786C46.3358 63.3446 46.3867 63.3277 46.4206 63.2938C46.7088 63.1242 46.9801 62.9208 47.2344 62.7004C47.2853 62.6495 47.3361 62.6156 47.387 62.5647C48.2178 61.8357 48.8621 60.9201 49.3537 59.9198C50.0319 58.5296 50.744 56.5289 50.0828 55.02C50.0658 54.9861 50.1167 54.9521 50.1336 54.9861C50.1676 55.0369 52.5242 58.004 49.642 62.3104C50.4897 62.2087 50.4897 62.1917 51.3205 62.0052C52.1173 61.8357 52.9142 61.6322 53.6941 61.3949C54.0841 61.2762 54.4571 61.1236 54.8301 60.971C55.7965 59.8859 56.4746 58.5974 57.0172 57.241C57.5597 55.8168 58.0853 54.3079 58.2379 52.7989C58.3227 52.0529 58.2888 51.2561 58.2718 50.4761Z" fill="#ED232F"/>
<path d="M45.2339 56.1898C45.2339 56.122 45.2169 56.0711 45.2 56.0033C44.9965 55.5964 44.6744 55.2403 44.2166 55.0199L44.1318 54.986L43.8436 54.8504L42.0803 54.0027C41.0461 53.511 39.8084 53.9518 39.3167 54.986L39.1641 55.2912C38.9607 55.732 38.9098 56.2067 39.0116 56.6476C39.0455 56.6984 39.0624 56.7493 39.0963 56.8002C39.2659 57.3427 39.6728 57.8344 40.2323 58.1057L42.199 59.0382C43.2841 59.5468 44.5726 59.089 45.0982 58.0039L45.1661 57.8683C45.4373 57.3257 45.4373 56.7323 45.2339 56.1898Z" fill="#A3121B"/>
<path d="M44.2336 55.037L42.0973 54.0197C41.0631 53.5281 39.8254 53.9689 39.3337 55.0031L39.1811 55.3083C39.0964 55.4778 39.0455 55.6474 39.0116 55.8169C39.1642 56.3934 39.5541 56.902 40.1306 57.1902L41.9956 58.0719C43.0298 58.5636 44.2675 58.1227 44.7592 57.0885L44.844 56.902C45.0305 56.5121 45.0813 56.0882 45.0135 55.6813C44.81 55.41 44.5557 55.1896 44.2336 55.037Z" fill="#003D6C"/>
<path d="M28.8557 42.9655C28.1436 42.9316 27.4315 42.8638 26.7194 42.813C26.3295 42.796 25.9565 42.779 25.5665 42.779C25.3291 42.779 25.2444 43.1012 25.4478 43.2199C25.7021 43.3555 25.9734 43.5081 26.2447 43.6437C27.9062 43.7624 30.5342 43.8472 32.6365 43.6098C31.9753 43.3555 31.2971 43.1351 30.619 42.9825C30.0425 43.0503 29.4321 42.9995 28.8557 42.9655ZM45.4711 36.3702C42.9449 35.7429 39.8761 35.5055 37.3669 36.5398C36.3496 37.0823 35.451 37.8114 34.6541 38.676C33.7555 39.6425 32.84 40.6597 32.1279 41.7787C32.5687 42.067 33.23 42.4739 33.9929 42.9655C37.2821 38.3878 40.1813 35.1325 50.0489 38.2691C48.6247 37.4214 47.0988 36.7771 45.4711 36.3702Z" fill="white"/>
<path d="M50.0829 55.054C50.2016 55.427 50.2694 55.783 50.3203 56.1391C50.3033 55.7491 50.2355 55.3931 50.0829 55.054ZM58.2719 50.4763C58.255 49.815 58.238 49.1708 58.1702 48.5265C57.136 52.3243 48.184 48.4248 40.0967 48.2213C40.4358 48.2891 40.7749 48.3569 41.114 48.4248C43.0637 48.7978 45.217 49.1199 46.9124 50.188C48.3366 51.0697 49.286 52.443 49.8116 54.0198L50.0999 55.054C50.0829 55.0201 50.1338 54.9862 50.1507 55.0201C50.1846 55.0709 52.5413 58.038 49.659 62.3444C50.5068 62.2427 50.5068 62.2258 51.3375 62.0393C52.1344 61.8697 52.9313 61.6663 53.7112 61.4289C54.1011 61.3102 54.4741 61.1576 54.8471 61.005C55.8135 59.9199 56.4917 58.6314 57.0343 57.275C57.5768 55.8509 58.1024 54.3419 58.255 52.8329C58.3228 52.053 58.2889 51.2562 58.2719 50.4763Z" fill="#A3121B"/>
<path d="M36.6718 48.7638C36.5361 49.1198 36.3496 49.4589 36.1462 49.798C36.0953 49.8828 36.0445 49.9506 35.9936 50.0354C35.8071 50.3067 35.6036 50.5779 35.4171 50.8153C35.0441 51.29 34.5694 51.68 34.1625 52.1378C33.603 52.7312 33.3656 53.4602 33.23 54.2571C32.9757 55.766 33.0605 57.3767 33.6369 58.8009C33.9251 59.513 34.332 60.1064 34.8068 60.6489C33.8404 58.2583 33.4843 54.274 34.7559 53.0533C35.9597 51.8834 37.3669 49.9337 37.9434 49.0859C37.4347 48.9503 37.0109 48.8486 36.6718 48.7638Z" fill="white"/>
</svg>
