<svg width="32" height="32" viewBox="0 0 32 32" fill="none" xmlns="http://www.w3.org/2000/svg">
<path d="M30.1426 9.23047H16.0001H15.9579H1.8576C1.8576 9.23047 0.633325 23.9218 16.0001 31.4785H16.0423H16.0845C31.3668 23.9218 30.1426 9.23047 30.1426 9.23047Z" fill="#101115"/>
<path d="M8.52771 3.23589C6.03694 5.22006 4.47494 8.04855 4.13721 11.2148C3.41953 17.7583 8.14776 23.6686 14.6491 24.3863C17.8153 24.724 20.9393 23.8375 23.4301 21.8533C25.9208 19.8691 27.4829 17.0406 27.8206 13.8744C28.5383 7.33087 23.81 1.42058 17.2665 0.702907C14.1425 0.32296 11.0185 1.25172 8.52771 3.23589Z" fill="#101115"/>
<path d="M26.7651 13.7474C26.1319 19.7 20.7704 24.006 14.7757 23.3306C8.82318 22.6551 4.51711 17.2936 5.19257 11.3411C5.86803 5.38861 11.2295 1.08254 17.182 1.758C23.1345 2.43346 27.4406 7.79494 26.7651 13.7474Z" fill="#F49117"/>
<path opacity="0.4" d="M18.6597 20.2068C12.7072 19.5736 8.44334 14.2121 9.07659 8.21737C9.28767 6.14877 10.132 4.24904 11.3141 2.72925C8.02118 4.29125 5.61484 7.45748 5.19268 11.3414C4.55944 17.2939 8.82329 22.6554 14.7758 23.3308C18.6597 23.753 22.2481 22.1066 24.5278 19.2358C22.7547 20.0802 20.7705 20.4601 18.6597 20.2068Z" fill="#F49117"/>
<path d="M24.2744 16.7449C24.2744 16.7449 18.9551 11.5946 11.3562 8.13281C11.3562 8.13281 20.095 11.088 24.2744 16.7449Z" fill="url(#paint0_radial_137_1072)"/>
<path d="M22.3326 6.52881C22.3326 6.52881 22.1215 9.94833 20.0951 13.8745C18.0687 17.8006 13.7205 20.418 13.7205 20.418C13.7205 20.418 17.8154 17.3362 19.5463 13.5367C21.235 9.73725 22.3326 6.52881 22.3326 6.52881Z" fill="url(#paint1_radial_137_1072)"/>
<path d="M18.491 7.62622C18.491 7.62622 19.673 10.8769 21.615 11.7212C23.5569 12.5655 24.5701 12.1012 25.4567 11.4679C25.4567 11.4679 23.2192 11.8901 22.1638 11.299C21.1506 10.708 18.491 7.62622 18.491 7.62622Z" fill="url(#paint2_radial_137_1072)"/>
<path d="M15.2825 13.9589C15.2825 13.9589 17.3089 13.9167 18.5331 14.7188C19.7574 15.5631 20.4329 17.4206 20.1374 19.447C20.1374 19.447 21.1928 15.8586 19.0397 14.17C17.3933 12.8613 15.2825 13.9589 15.2825 13.9589Z" fill="url(#paint3_radial_137_1072)"/>
<path d="M22.628 11.7636L23.219 11.8902C24.3167 12.0169 25.4987 11.6369 26.7652 10.7926L26.8074 10.7504L26.6808 10.1171L26.5541 10.2016C25.161 11.1725 23.8945 11.5103 22.7969 11.1725C22.2903 11.0459 21.8259 10.7926 21.3193 10.3704C22.2481 7.83744 22.628 5.59997 22.7969 4.1224C22.7969 4.08018 22.7969 3.99575 22.7969 3.99575L22.6702 3.8691L22.2481 3.53137V3.70023C22.2481 3.82688 22.2058 3.91132 22.2058 4.03796C22.0792 5.30445 21.6992 7.45749 20.8549 9.86382C19.6306 8.63955 18.7863 6.82424 18.2375 5.47332C17.3087 3.15142 15.789 2.22266 14.6069 1.71606C14.5647 1.71606 13.847 1.8005 13.847 1.8005L13.5937 1.84271L13.847 1.96936L14.2269 2.18044C15.2401 2.68704 16.8866 3.57358 17.6887 5.72662C18.1109 6.90868 19.0818 9.06171 20.6438 10.5393C20.6016 10.6237 20.095 11.848 20.0106 12.0169C15.1979 8.63955 9.54093 6.73981 7.30346 6.10656H7.26125L6.8813 6.65538L7.00795 6.69759C9.24542 7.37306 14.9868 9.23058 19.7573 12.6501C19.7151 12.7767 19.124 13.8322 19.0818 13.9588C17.2665 12.9878 14.9446 13.4522 12.9182 13.8322C12.0317 14.001 11.1874 14.1699 10.4275 14.2121C7.97893 14.3388 6.33249 14.2965 5.36151 14.2121H5.23486L5.27708 14.5076L5.3193 14.8454H5.40373C6.37471 14.8876 8.02114 14.972 10.4275 14.8454C11.1874 14.8031 12.0739 14.6343 12.9605 14.4654C14.9024 14.0855 17.0977 13.6633 18.7019 14.5076C16.6333 17.8427 13.8048 20.2913 10.3008 21.8111L10.132 21.7688L10.7652 22.1488C14.3114 20.5868 17.1399 18.096 19.2085 14.7609C19.6729 15.1831 20.0528 15.8163 20.2217 16.5762C20.3483 17.2095 20.3905 17.9271 20.3061 18.6448C20.1372 20.038 19.6306 21.5578 18.7441 22.9931L18.5752 23.162L19.4196 22.9087C20.2217 21.4733 20.7283 20.038 20.8549 18.687C20.9393 17.8849 20.8971 17.125 20.7705 16.4496C20.5594 15.4786 20.1372 14.7609 19.504 14.2543C19.5462 14.1699 20.095 13.1145 20.1795 12.9456C22.3325 14.5498 24.0211 16.3229 25.2032 18.1804L25.2876 18.3071L25.6254 17.7161L25.5831 17.6738C24.3589 15.7741 22.628 14.001 20.4328 12.3968C20.475 12.2702 20.9816 11.1303 21.0238 10.9614C21.5726 11.3414 22.0792 11.5947 22.628 11.7636Z" fill="#101115"/>
<path d="M14.5224 14.6762C14.438 14.6762 14.2691 14.6762 13.8047 14.6762H13.2137H13.1293L12.5383 14.7607H12.3694L9.75198 15.0984C9.75198 15.0984 9.75198 15.1828 9.75198 15.225C9.58311 15.1828 9.41425 15.1828 9.2876 15.225L7.89446 15.5206C7.55673 15.605 7.30343 15.7739 7.05013 16.0272L7.00792 15.7316L4.1372 16.6604L4.01055 17.2514C4.01055 17.2514 4.01055 17.3359 3.96834 17.3781C3.50396 17.0826 3.03958 17.0404 2.53298 17.2514L0 18.3491L0.0422164 19.0245V25.7791L2.74406 24.5971L5.69921 23.4995L7.97889 22.8662C8.02111 22.824 8.27441 22.824 8.27441 22.824L9.62533 22.5285C9.62533 22.5285 10.0053 22.3596 10.0897 22.3596C10.3008 22.3596 10.8074 22.3174 12.2427 22.1063C12.2005 22.1063 13.8892 21.9797 13.8892 21.9797L16.8443 21.8952L16.7599 21.853C16.8865 21.8952 17.2243 21.8952 19.0818 22.0219L20.9393 22.2752C21.1926 22.3174 21.4459 22.2752 21.6992 22.233C21.6992 22.2752 21.657 22.3596 21.657 22.3596L24.2322 22.9084L25.8364 23.3728L28.285 24.2171L31.9578 25.7369L32 24.2593V22.7396L31.9578 22.6973C31.9156 22.6551 31.8733 22.5707 30.6913 22.0641C30.7335 21.6419 30.7335 20.6287 30.7335 18.2646V17.8002L28.2005 16.7448L27.8206 16.576V16.6182C27.4828 16.5338 25.6253 15.9005 25.6253 15.9005L22.9235 15.2673C22.9235 15.2673 22.8813 15.605 22.839 15.6894C22.5435 15.3517 22.2058 15.1406 21.7836 15.0984L18.9974 14.7185L17.1398 14.6762H15.8734C15.9156 14.634 14.5646 14.6762 14.5224 14.6762Z" fill="#101115"/>
<path d="M15.9999 21.0088C12.7493 21.0088 10.0052 21.5998 9.2453 21.8109C9.20308 21.8109 8.65427 21.9798 8.65427 21.9798C8.65427 21.9798 8.65427 22.4441 8.65427 22.613C8.18989 22.7397 7.05005 23.0352 6.12129 23.4151L4.98145 23.8795L5.40361 24.2172C5.40361 24.2172 6.50123 25.146 6.79675 25.3993C5.61469 27.7212 5.36139 28.5655 5.36139 28.5655L6.71232 28.0167C7.09226 27.8478 9.11865 27.0879 11.3983 26.9191L12.0738 26.8769C12.0738 26.8769 12.0738 26.3703 12.0738 26.1592C13.4247 25.9903 14.7756 25.9059 16.0421 25.9059C17.3508 25.9059 18.7018 25.9903 20.0105 26.1592C20.0105 26.3703 20.0105 26.8769 20.0105 26.8769L20.6859 26.9191C22.9656 27.0879 24.992 27.8478 25.3719 27.9745L26.7229 28.5655C26.7229 28.5655 26.554 27.8056 25.2875 25.3993C25.583 25.146 27.1028 23.8795 27.1028 23.8795L26.5962 23.6684L25.9208 23.4151C24.9498 23.0352 23.8522 22.7397 23.3878 22.613C23.3878 22.4019 23.3878 21.9798 23.3878 21.9798L22.7967 21.8531C21.9946 21.642 19.2084 21.0088 15.9999 21.0088Z" fill="#101115"/>
<path d="M25.7098 24.0907C24.5278 23.6263 23.008 23.2464 23.008 23.2464C22.9236 23.7529 22.7969 24.2173 22.7125 24.7239C22.7125 24.0062 22.7125 23.2464 22.7125 22.5287C22.7125 22.5287 19.7151 21.7266 16.0423 21.7266C12.3695 21.7266 9.37212 22.5287 9.37212 22.5287C9.37212 23.2464 9.37212 24.0062 9.37212 24.7239C9.28768 24.2173 9.16104 23.7529 9.0766 23.2464C9.0766 23.2464 7.55681 23.6263 6.37476 24.0907C6.83914 24.4706 7.2613 24.8506 7.72568 25.2305C7.34573 25.9482 6.92357 26.6659 6.54362 27.3836C6.54362 27.3836 8.78109 26.4126 11.4407 26.2437C11.4407 26.1593 11.4407 26.1171 11.4407 26.0326C10.7653 25.9904 10.132 25.9482 9.45655 25.906C9.45655 25.906 12.4539 25.1883 16.1267 25.1883C19.7996 25.1883 22.7969 25.906 22.7969 25.906C21.9948 25.9482 21.3616 25.9482 20.6861 26.0326C20.6861 26.1171 20.6861 26.1593 20.6861 26.2437C23.3035 26.4126 25.5832 27.3836 25.5832 27.3836C25.2033 26.6659 24.7811 25.9482 24.4011 25.2305C24.8233 24.8506 25.2455 24.4706 25.7098 24.0907Z" fill="#F49117"/>
<path d="M1.01318 18.9403C1.64643 18.6448 2.27967 18.3915 2.91292 18.1382C3.08179 18.0538 3.25065 18.0538 3.3773 18.1804C3.50395 18.2648 3.58838 18.4337 3.58838 18.6026C3.58838 18.9825 3.58838 19.3202 3.58838 19.7002C3.58838 20.0379 3.50395 20.3334 3.29287 20.5867C3.58838 20.6712 3.71503 20.9245 3.71503 21.3044C3.71503 21.4733 3.71503 21.6421 3.71503 21.811C3.71503 22.2332 3.58838 22.5709 3.29287 22.9509C3.03957 23.2886 2.74405 23.4997 2.36411 23.6685C1.89973 23.8374 1.47756 24.0485 1.01318 24.2596C1.01318 22.4865 1.01318 20.7134 1.01318 18.9403ZM1.89973 19.5313C1.89973 19.9113 1.89973 20.2912 1.89973 20.7134C2.02638 20.6712 2.19524 20.5867 2.32189 20.5445C2.40632 20.5023 2.49076 20.4601 2.53297 20.3334C2.61741 20.249 2.61741 20.1224 2.61741 20.0379C2.61741 19.7424 2.61741 19.4891 2.61741 19.1936C2.40632 19.3202 2.15303 19.4469 1.89973 19.5313ZM1.89973 22.8664C2.02638 22.8242 2.19524 22.7398 2.32189 22.6976C2.61741 22.5709 2.74405 22.402 2.74405 22.191C2.74405 22.0221 2.74405 21.8532 2.74405 21.6844C2.74405 21.5999 2.70184 21.5155 2.65962 21.4733C2.57519 21.4311 2.53297 21.4311 2.44854 21.4733C2.27967 21.5577 2.06859 21.5999 1.89973 21.6844C1.89973 22.0643 1.89973 22.4443 1.89973 22.8664Z" fill="white"/>
<path d="M5.1926 21.5577C5.15038 21.9376 5.06595 22.3176 5.02373 22.6975C4.72822 22.782 4.39049 22.9086 4.09497 23.0353C4.39049 21.1777 4.686 19.3202 4.98151 17.4627C5.40368 17.3361 5.78362 17.2094 6.20579 17.0828C6.5013 18.7714 6.79682 20.4179 7.09233 22.1065C6.79682 22.1909 6.45909 22.2754 6.16357 22.3598C6.12136 22.0221 6.03692 21.6843 5.99471 21.3466C5.69919 21.3888 5.44589 21.4733 5.1926 21.5577ZM5.36146 20.5023C5.53033 20.4601 5.65698 20.4179 5.82584 20.3756C5.74141 19.658 5.65698 18.9403 5.61476 18.1804C5.48811 18.9825 5.40368 19.7424 5.36146 20.5023Z" fill="white"/>
<path d="M9.20326 17.2517C8.90775 17.2939 8.61223 17.3783 8.31672 17.4205C8.31672 17.7161 8.31672 17.9694 8.31672 18.2649C8.31672 18.476 8.44337 18.5604 8.73888 18.5182C9.11883 18.4337 9.45656 18.476 9.70986 18.687C9.96316 18.8981 10.132 19.1936 10.132 19.5736C10.132 19.9535 10.132 20.2913 10.132 20.6712C10.132 20.8823 10.0476 21.0512 9.92094 21.22C9.79429 21.3889 9.62543 21.4733 9.45656 21.5155C8.99218 21.6 8.5278 21.6844 8.10564 21.811C7.93677 21.8533 7.76791 21.811 7.64126 21.7266C7.51461 21.6 7.43018 21.4733 7.43018 21.2622C7.43018 20.9245 7.43018 20.5446 7.43018 20.2068C7.72569 20.1224 8.06342 20.038 8.35894 19.9957C8.35894 20.249 8.35894 20.5446 8.35894 20.7979C8.65445 20.7134 8.94996 20.6712 9.24548 20.629C9.24548 20.3335 9.24548 20.0802 9.24548 19.7847C9.24548 19.5736 9.11883 19.4891 8.82332 19.5314C8.44337 19.6158 8.10564 19.5736 7.85234 19.4047C7.59904 19.2358 7.43018 18.9403 7.43018 18.5182C7.43018 18.1382 7.43018 17.8005 7.43018 17.4205C7.43018 17.2095 7.51461 17.0406 7.64126 16.8717C7.76791 16.7029 7.93677 16.5762 8.10564 16.534C8.57002 16.4074 9.0344 16.3229 9.45656 16.2385C9.62543 16.1963 9.79429 16.2385 9.92094 16.3651C10.0476 16.4918 10.132 16.6607 10.132 16.8295C10.132 17.1672 10.132 17.5472 10.132 17.8849C9.83651 17.9271 9.49878 18.0116 9.20326 18.0538C9.20326 17.8005 9.20326 17.5472 9.20326 17.2517Z" fill="white"/>
<path d="M11.6517 19.0248C11.6517 19.7425 11.6517 20.4602 11.6517 21.1778C11.3561 21.2201 11.0184 21.2623 10.7229 21.3045C10.7229 19.5314 10.7229 17.8005 10.7229 16.0274C11.0184 15.9852 11.3561 15.943 11.6517 15.9008C11.6517 16.6185 11.6517 17.3362 11.6517 18.0538C11.7783 18.0538 11.905 18.0116 12.0316 18.0116C12.2427 17.2939 12.4116 16.534 12.6226 15.8164C12.9182 15.7742 13.2559 15.7741 13.5514 15.7319C13.2981 16.6185 13.087 17.505 12.8337 18.4338C13.087 19.2781 13.2981 20.1647 13.5514 21.009C13.2559 21.0512 12.9182 21.0512 12.6226 21.0934C12.4116 20.4179 12.2427 19.7003 12.0316 19.0248C11.905 18.9826 11.7783 18.9826 11.6517 19.0248Z" fill="white"/>
<path d="M14.9024 19.9114C15.409 19.9114 15.9578 19.8692 16.4644 19.9114C16.4644 20.2492 16.4644 20.5447 16.4644 20.8824C15.6201 20.8824 14.818 20.8824 13.9736 20.9246C13.9736 19.1516 13.9736 17.4207 13.9736 15.6476C14.818 15.6054 15.6201 15.5632 16.4644 15.6054C16.4644 15.9431 16.4644 16.2386 16.4644 16.5764C15.9578 16.5764 15.409 16.5764 14.9024 16.5764C14.9024 16.9563 14.9024 17.3362 14.9024 17.7584C15.3246 17.7584 15.7467 17.7584 16.2111 17.7584C16.2111 18.0961 16.2111 18.3917 16.2111 18.7294C15.7889 18.7294 15.3668 18.7294 14.9024 18.7294C14.9024 19.1516 14.9024 19.5315 14.9024 19.9114Z" fill="white"/>
<path d="M17.5618 16.6184C17.2663 16.6184 16.9708 16.5762 16.6331 16.5762C16.6331 16.2385 16.6331 15.943 16.6331 15.6052C17.5618 15.6052 18.4906 15.6897 19.3771 15.7741C19.3771 16.1118 19.3771 16.4073 19.3771 16.7451C19.0816 16.7029 18.7861 16.7028 18.4484 16.6606C18.4484 18.096 18.4484 19.5313 18.4484 20.9667C18.1528 20.9245 17.8151 20.9245 17.5196 20.9245C17.5618 19.4891 17.5618 18.0538 17.5618 16.6184Z" fill="white"/>
<path d="M19.6729 15.8164C20.3061 15.9008 20.9816 15.9853 21.6148 16.0697C21.7837 16.1119 21.9525 16.1964 22.1214 16.3652C22.2481 16.5341 22.3325 16.7029 22.3325 16.914C22.3325 17.294 22.3325 17.6317 22.3325 18.0117C22.3325 18.3494 22.2481 18.5605 22.037 18.7293C22.3325 18.9826 22.4591 19.3204 22.4591 19.7003C22.4591 19.8692 22.4591 20.038 22.4591 20.2069C22.4591 20.6291 22.3325 20.9246 22.037 21.0935C21.7837 21.2623 21.4459 21.3467 21.066 21.2623C20.6016 21.1779 20.1372 21.1357 19.6729 21.0935C19.6729 19.3204 19.6729 17.5473 19.6729 15.8164ZM20.6438 16.8718C20.6438 17.2518 20.6438 17.6317 20.6438 18.0539C20.7705 18.0539 20.9393 18.0961 21.066 18.0961C21.1504 18.0961 21.2349 18.0961 21.3193 18.0539C21.4037 18.0117 21.4037 17.9272 21.4037 17.8428C21.4037 17.5473 21.4037 17.294 21.4037 16.9985C21.1504 16.9562 20.8971 16.914 20.6438 16.8718ZM20.6438 20.2069C20.7705 20.2069 20.9393 20.2491 21.066 20.2491C21.3615 20.2913 21.4882 20.2069 21.4882 19.9536C21.4882 19.7847 21.4882 19.6159 21.4882 19.447C21.4882 19.3626 21.4459 19.2781 21.4037 19.1937C21.3193 19.1093 21.2771 19.0671 21.1504 19.0671C20.9816 19.0248 20.7705 19.0248 20.6016 18.9826C20.6438 19.447 20.6438 19.827 20.6438 20.2069Z" fill="white"/>
<path d="M23.9365 20.7133C23.8943 21.051 23.8098 21.3888 23.7676 21.7265C23.4721 21.6421 23.1344 21.5999 22.8389 21.5154C23.1344 19.8268 23.4299 18.1381 23.7254 16.4495C24.1476 16.5339 24.5275 16.6605 24.9497 16.745C25.2452 18.5603 25.5407 20.4178 25.8362 22.2753C25.5407 22.1909 25.203 22.1065 24.9075 22.022C24.8653 21.6421 24.7808 21.2621 24.7386 20.9244C24.4853 20.84 24.1898 20.7977 23.9365 20.7133ZM24.1054 19.7846C24.2742 19.8268 24.4009 19.869 24.5697 19.9112C24.4853 19.1513 24.4009 18.3914 24.3587 17.5893C24.2742 18.3492 24.1898 19.0669 24.1054 19.7846Z" fill="white"/>
<path d="M26.2163 22.402C26.2163 20.629 26.2163 18.8981 26.2163 17.125C26.5118 17.2094 26.8496 17.3361 27.1451 17.4205C27.1451 18.8559 27.1451 20.2912 27.1451 21.7266C27.5672 21.8532 27.9894 22.0221 28.4116 22.191C28.4116 22.5287 28.4116 22.8242 28.4116 23.1619C27.6939 22.8664 26.9762 22.6131 26.2163 22.402Z" fill="white"/>
<path d="M28.7915 23.2885C28.7915 21.5154 28.7915 19.7846 28.7915 18.0115C29.087 18.1381 29.3825 18.2648 29.7203 18.3914C29.7203 19.8268 29.7203 21.2621 29.7203 22.6975C30.1424 22.8664 30.5646 23.0352 30.9868 23.2463C30.9868 23.584 30.9868 23.8795 30.9868 24.2173C30.2691 23.8795 29.5514 23.584 28.7915 23.2885Z" fill="white"/>
<path d="M10.4275 23.5841C10.343 23.5841 10.2586 23.6263 10.1319 23.6263C10.1319 23.9218 10.1319 24.2596 10.1319 24.5551C10.2164 24.5551 10.3008 24.5128 10.4275 24.5128C10.4275 24.4284 10.4275 24.344 10.4275 24.3018C10.5119 24.3018 10.6385 24.2596 10.723 24.2596C10.723 24.344 10.723 24.4706 10.723 24.5551C10.723 24.5973 10.6808 24.6817 10.6385 24.7239C10.5963 24.7661 10.5541 24.8084 10.4697 24.8084C10.343 24.8506 10.1742 24.8506 10.0475 24.8928C10.0053 24.8928 9.92086 24.8928 9.87864 24.8506C9.83643 24.8084 9.83643 24.7661 9.83643 24.7239C9.83643 24.344 9.83643 24.0063 9.83643 23.6263C9.83643 23.5841 9.83643 23.4997 9.87864 23.4574C9.92086 23.4152 9.96307 23.373 10.0475 23.373C10.1742 23.3308 10.343 23.2886 10.4697 23.2886C10.5119 23.2886 10.5963 23.2886 10.6385 23.3308C10.6808 23.373 10.723 23.4152 10.723 23.4574C10.723 23.5419 10.723 23.6685 10.723 23.753C10.6385 23.753 10.5119 23.7952 10.4275 23.7952C10.4275 23.753 10.4275 23.6685 10.4275 23.5841Z" fill="#101115"/>
<path d="M11.2296 24.0484C11.2296 24.2595 11.2296 24.4705 11.2296 24.6394C11.1452 24.6394 11.0185 24.6816 10.9341 24.6816C10.9341 24.175 10.9341 23.7106 10.9341 23.204C11.0185 23.204 11.1452 23.1618 11.2296 23.1618C11.2296 23.3729 11.2296 23.584 11.2296 23.7529C11.314 23.7529 11.3985 23.7106 11.5251 23.7106C11.5251 23.4996 11.5251 23.2885 11.5251 23.1196C11.6095 23.1196 11.7362 23.0774 11.8206 23.0774C11.8206 23.584 11.8206 24.0484 11.8206 24.555C11.7362 24.555 11.6095 24.5972 11.5251 24.5972C11.5251 24.3861 11.5251 24.175 11.5251 24.0062C11.3985 24.0062 11.314 24.0062 11.2296 24.0484Z" fill="#101115"/>
<path d="M12.285 24.1752C12.285 24.2596 12.2428 24.3863 12.2428 24.4707C12.1583 24.4707 12.0317 24.5129 11.9473 24.5129C12.0317 24.0063 12.1583 23.4997 12.2428 22.9931C12.3694 22.9931 12.4961 22.9509 12.6227 22.9509C12.7072 23.4153 12.8338 23.9219 12.9182 24.3863C12.8338 24.3863 12.7072 24.4285 12.6227 24.4285C12.6227 24.3441 12.5805 24.2174 12.5805 24.133C12.4539 24.133 12.3694 24.133 12.285 24.1752ZM12.3694 23.8797C12.4116 23.8797 12.4539 23.8797 12.4961 23.8797C12.4539 23.6686 12.4539 23.4575 12.4116 23.2464C12.4116 23.4575 12.3694 23.6686 12.3694 23.8797Z" fill="#101115"/>
<path d="M14.3958 22.782C14.3958 23.2886 14.3958 23.753 14.3958 24.2596C14.3114 24.2596 14.1848 24.2596 14.1003 24.2596C14.1003 23.9218 14.1003 23.6263 14.1003 23.2886C14.0159 23.6263 13.9737 23.964 13.8892 24.2596C13.7626 24.2596 13.636 24.2596 13.5515 24.3018C13.4671 23.964 13.4249 23.6685 13.3404 23.3308C13.3404 23.6685 13.3404 23.964 13.3404 24.3018C13.256 24.3018 13.1294 24.3018 13.0449 24.344C13.0449 23.8374 13.0449 23.373 13.0449 22.8664C13.1716 22.8664 13.2982 22.8242 13.4671 22.8242C13.5515 23.2041 13.636 23.6263 13.7204 24.0063C13.8048 23.5841 13.8892 23.2041 13.9737 22.782C14.1003 22.782 14.2692 22.782 14.3958 22.782Z" fill="#101115"/>
<path d="M14.6492 22.7397C14.8603 22.7397 15.0713 22.7397 15.2824 22.6975C15.3246 22.6975 15.4091 22.6975 15.4513 22.7397C15.4935 22.7819 15.5357 22.8242 15.5357 22.8664C15.5357 22.993 15.5357 23.1197 15.5357 23.2463C15.5357 23.373 15.4935 23.4574 15.4091 23.5418C15.3246 23.6263 15.2402 23.6263 15.1135 23.6685C15.0713 23.6685 15.0291 23.6685 14.9869 23.6685C14.9869 23.8374 14.9869 24.0062 14.9869 24.2173C14.9025 24.2173 14.7758 24.2173 14.6914 24.2173C14.6492 23.7529 14.6492 23.2463 14.6492 22.7397ZM14.9447 22.993C14.9447 23.1197 14.9447 23.2463 14.9447 23.4152C14.9869 23.4152 15.0291 23.4152 15.0713 23.4152C15.1558 23.4152 15.198 23.373 15.198 23.3308C15.198 23.2463 15.198 23.1197 15.198 23.0352C15.1135 22.993 15.0291 22.993 14.9447 22.993Z" fill="#101115"/>
<path d="M15.6624 24.2176C15.6624 23.711 15.6624 23.2466 15.6624 22.74C15.7468 22.74 15.8734 22.74 15.9579 22.74C15.9579 23.2466 15.9579 23.711 15.9579 24.2176C15.8734 24.2176 15.789 24.2176 15.6624 24.2176Z" fill="#101115"/>
<path d="M16.8444 22.74C16.8866 22.74 16.9711 22.7822 17.0133 22.8244C17.0555 22.8666 17.0977 22.9089 17.0977 22.9511C17.0977 23.331 17.0977 23.6687 17.0977 24.0487C17.0977 24.0909 17.0555 24.1331 17.0133 24.1753C16.9711 24.2176 16.9288 24.2176 16.8444 24.2176C16.7178 24.2176 16.5489 24.2176 16.4222 24.2176C16.38 24.2176 16.2956 24.1753 16.2534 24.1753C16.2112 24.1331 16.1689 24.0909 16.1689 24.0487C16.1689 23.6687 16.1689 23.331 16.1689 22.9511C16.1689 22.9089 16.2112 22.8666 16.2534 22.8244C16.2956 22.7822 16.3378 22.7822 16.4222 22.7822C16.5489 22.74 16.7178 22.74 16.8444 22.74ZM16.5067 22.9933C16.5067 23.2888 16.5067 23.6265 16.5067 23.922C16.5911 23.922 16.6755 23.922 16.8022 23.922C16.8022 23.6265 16.8022 23.2888 16.8022 22.9933C16.6755 22.9933 16.5911 22.9933 16.5067 22.9933Z" fill="#101115"/>
<path d="M17.6044 23.2886C17.6044 23.6263 17.6044 23.9218 17.6044 24.2596C17.5199 24.2596 17.3933 24.2596 17.3088 24.2596C17.3088 23.753 17.3088 23.2886 17.3088 22.782C17.4355 22.782 17.5621 22.782 17.731 22.8242C17.8154 23.1619 17.8999 23.4574 17.9843 23.7952C17.9843 23.4574 17.9843 23.1619 17.9843 22.8242C18.0687 22.8242 18.1954 22.8242 18.2798 22.8664C18.2798 23.373 18.2798 23.8374 18.2798 24.344C18.1532 24.344 18.0265 24.3018 17.8577 24.3018C17.7732 23.964 17.6888 23.6263 17.6044 23.2886Z" fill="#101115"/>
<path d="M19.0397 23.162C18.9553 23.162 18.8709 23.1197 18.7442 23.1197C18.7442 23.2042 18.7442 23.2886 18.7442 23.373C18.7442 23.4152 18.7864 23.4575 18.8709 23.4997C18.9975 23.4997 19.0819 23.5419 19.1664 23.6263C19.2508 23.7108 19.293 23.7952 19.293 23.9218C19.293 24.0063 19.293 24.1329 19.293 24.2174C19.293 24.2596 19.2508 24.3018 19.2086 24.344C19.1664 24.3862 19.1242 24.3862 19.0397 24.3862C18.9131 24.3862 18.7442 24.344 18.6176 24.344C18.5753 24.344 18.4909 24.3018 18.4487 24.2596C18.4065 24.2174 18.3643 24.1751 18.3643 24.0907C18.3643 24.0063 18.3643 23.8796 18.3643 23.7952C18.4487 23.7952 18.5753 23.7952 18.6598 23.8374C18.6598 23.9218 18.6598 24.0063 18.6598 24.0485C18.7442 24.0485 18.8286 24.0485 18.9553 24.0907C18.9553 24.0063 18.9553 23.9218 18.9553 23.8374C18.9553 23.753 18.9131 23.753 18.8286 23.7108C18.702 23.7108 18.6176 23.6685 18.5331 23.5841C18.4487 23.4997 18.4065 23.4152 18.4065 23.2886C18.4065 23.2042 18.4065 23.0775 18.4065 22.9931C18.4065 22.9509 18.4487 22.9087 18.4909 22.8664C18.5331 22.8242 18.5753 22.8242 18.6598 22.8242C18.7864 22.8242 18.9553 22.8664 19.0819 22.8664C19.1242 22.8664 19.2086 22.9087 19.2508 22.9509C19.293 22.9931 19.3352 23.0353 19.3352 23.1197C19.3352 23.2042 19.3352 23.3308 19.3352 23.4152C19.2508 23.4152 19.1242 23.373 19.0397 23.373C19.0397 23.3308 19.0397 23.2464 19.0397 23.162Z" fill="#101115"/>
<path d="M19.8417 23.8797C19.8417 24.0908 19.8417 24.3019 19.8417 24.4707C19.7572 24.4707 19.6306 24.4285 19.5461 24.4285C19.5461 23.9219 19.5461 23.4575 19.5461 22.9509C19.6306 22.9509 19.7572 22.9931 19.8417 22.9931C19.8417 23.2042 19.8417 23.4153 19.8417 23.5842C19.9261 23.5842 20.0105 23.6264 20.1372 23.6264C20.1372 23.4153 20.1372 23.2042 20.1372 23.0354C20.2216 23.0354 20.3483 23.0776 20.4327 23.0776C20.4327 23.5842 20.4327 24.0486 20.4327 24.5551C20.3483 24.5551 20.2216 24.5129 20.1372 24.5129C20.1372 24.3018 20.1372 24.0908 20.1372 23.9219C20.0527 23.9219 19.9683 23.9219 19.8417 23.8797Z" fill="#101115"/>
<path d="M20.686 24.6394C20.686 24.1328 20.686 23.6685 20.686 23.1619C20.7705 23.1619 20.8971 23.2041 20.9815 23.2041C20.9815 23.7107 20.9815 24.1751 20.9815 24.6817C20.8549 24.6817 20.7705 24.6394 20.686 24.6394Z" fill="#101115"/>
<path d="M21.1926 23.2463C21.4037 23.2886 21.6148 23.3308 21.8259 23.373C21.8681 23.373 21.9525 23.4152 21.9947 23.4574C22.037 23.4996 22.0792 23.5419 22.0792 23.6263C22.0792 23.7529 22.0792 23.8796 22.0792 24.0062C22.0792 24.1329 22.037 24.2173 21.9525 24.2595C21.8681 24.3017 21.7837 24.3017 21.657 24.3017C21.6148 24.3017 21.5726 24.3017 21.5304 24.2595C21.5304 24.4284 21.5304 24.5973 21.5304 24.8083C21.4459 24.8083 21.3193 24.7661 21.2348 24.7661C21.1926 24.2173 21.1926 23.7529 21.1926 23.2463ZM21.4881 23.5841C21.4881 23.7107 21.4881 23.8374 21.4881 24.0062C21.5304 24.0062 21.5726 24.0062 21.6148 24.0484C21.6992 24.0484 21.7414 24.0484 21.7414 23.964C21.7414 23.8796 21.7414 23.7529 21.7414 23.6685C21.6992 23.6263 21.5726 23.5841 21.4881 23.5841Z" fill="#101115"/>
<path d="M16.0424 26.1592L16.549 27.2146L17.7311 27.3835L16.8867 28.2278L17.0556 29.3676L16.0424 28.8188L14.987 29.3676L15.1559 28.2278L14.3538 27.3835L15.4936 27.2146L16.0424 26.1592Z" fill="#F49117"/>
<path d="M18.913 26.2859L19.4196 26.7503L20.0529 26.5814L19.7996 27.2146L20.1373 27.8057L19.4618 27.7212L18.9974 28.2278L18.8708 27.5524L18.2375 27.2991L18.8286 26.9614L18.913 26.2859Z" fill="#F49117"/>
<path d="M13.087 26.2859L12.5805 26.7503L11.905 26.5814L12.2005 27.2146L11.8206 27.8057L12.496 27.7212L12.9604 28.2278L13.087 27.5524L13.7203 27.2991L13.1293 26.9614L13.087 26.2859Z" fill="#F49117"/>
<path d="M27.7784 10.4126C27.9473 11.2569 28.2006 13.4522 27.4829 15.6474C27.4829 15.6474 28.5383 13.8321 28.6228 11.3836C28.6228 11.3836 28.8338 12.2701 28.5805 13.6633C28.5805 13.6633 29.2138 12.3545 29.1293 10.4548H27.7784V10.4126Z" fill="white"/>
<path d="M4.34818 10.4126C4.17931 11.2569 3.92601 13.4522 4.64369 15.6474C4.64369 15.6474 3.58828 13.8321 3.50385 11.3836C3.50385 11.3836 3.29277 12.2701 3.54607 13.6633C3.54607 13.6633 2.91282 12.3545 2.99725 10.4548H4.34818V10.4126Z" fill="white"/>
<defs>
<radialGradient id="paint0_radial_137_1072" cx="0" cy="0" r="1" gradientUnits="userSpaceOnUse" gradientTransform="translate(17.8379 12.4483) rotate(6.34399) scale(7.01053)">
<stop stop-color="white"/>
<stop offset="0.4143" stop-color="#FAFAFA"/>
<stop offset="0.8914" stop-color="#ECECEC"/>
<stop offset="1" stop-color="#E8E8E8"/>
</radialGradient>
<radialGradient id="paint1_radial_137_1072" cx="0" cy="0" r="1" gradientUnits="userSpaceOnUse" gradientTransform="translate(18.034 13.49) rotate(6.34399) scale(7.41092)">
<stop stop-color="white"/>
<stop offset="0.4143" stop-color="#FAFAFA"/>
<stop offset="0.8914" stop-color="#ECECEC"/>
<stop offset="1" stop-color="#E8E8E8"/>
</radialGradient>
<radialGradient id="paint2_radial_137_1072" cx="0" cy="0" r="1" gradientUnits="userSpaceOnUse" gradientTransform="translate(21.9262 10.0159) rotate(6.34399) scale(2.95078)">
<stop stop-color="white"/>
<stop offset="0.4143" stop-color="#FAFAFA"/>
<stop offset="0.8914" stop-color="#ECECEC"/>
<stop offset="1" stop-color="#E8E8E8"/>
</radialGradient>
<radialGradient id="paint3_radial_137_1072" cx="0" cy="0" r="1" gradientUnits="userSpaceOnUse" gradientTransform="translate(17.7718 16.3904) rotate(6.34399) scale(2.77816)">
<stop stop-color="white"/>
<stop offset="0.4143" stop-color="#FAFAFA"/>
<stop offset="0.8914" stop-color="#ECECEC"/>
<stop offset="1" stop-color="#E8E8E8"/>
</radialGradient>
</defs>
</svg>
