<svg width="76" height="74" viewBox="0 0 76 74" fill="none" xmlns="http://www.w3.org/2000/svg">
<path d="M71.4 20.3979H37.9H37.8H4.4C4.4 20.3979 1.5 55.1979 37.9 73.0979H38H38.1C74.3 55.1979 71.4 20.3979 71.4 20.3979Z" fill="#101115"/>
<path d="M20.2 6.19784C14.3 10.8978 10.6 17.5978 9.79999 25.0978C8.09999 40.5978 19.3 54.5978 34.7 56.2978C42.2 57.0978 49.6 54.9978 55.5 50.2978C61.4 45.5978 65.1 38.8978 65.9 31.3978C67.6 15.8978 56.4 1.89784 40.9 0.197843C33.5 -0.702157 26.1 1.49784 20.2 6.19784Z" fill="#101115"/>
<path d="M63.4 31.0977C61.9 45.1977 49.2 55.3977 35 53.7977C20.9 52.1977 10.7 39.4977 12.3 25.3977C13.9 11.2977 26.6 1.09773 40.7 2.69773C54.8 4.29773 65 16.9977 63.4 31.0977Z" fill="#F49117"/>
<path opacity="0.4" d="M44.1999 46.3978C30.0999 44.8978 19.9999 32.1978 21.4999 17.9978C21.9999 13.0978 23.9999 8.5978 26.7999 4.9978C18.9999 8.6978 13.2999 16.1978 12.2999 25.3978C10.7999 39.4978 20.8999 52.1978 34.9999 53.7978C44.1999 54.7978 52.6999 50.8978 58.0999 44.0978C53.8999 46.0978 49.1999 46.9978 44.1999 46.3978Z" fill="#F49117"/>
<path d="M57.4999 38.1979C57.4999 38.1979 44.8999 25.9979 26.8999 17.7979C26.8999 17.7979 47.5999 24.7979 57.4999 38.1979Z" fill="url(#paint0_radial_137_832)"/>
<path d="M52.9 13.9978C52.9 13.9978 52.4 22.0978 47.6 31.3978C42.8 40.6978 32.5 46.8978 32.5 46.8978C32.5 46.8978 42.2 39.5978 46.3 30.5978C50.3 21.5978 52.9 13.9978 52.9 13.9978Z" fill="url(#paint1_radial_137_832)"/>
<path d="M43.8 16.5979C43.8 16.5979 46.6001 24.2979 51.2001 26.2979C55.8001 28.2979 58.2 27.1979 60.3 25.6979C60.3 25.6979 55 26.6979 52.5 25.2979C50.1 23.8979 43.8 16.5979 43.8 16.5979Z" fill="url(#paint2_radial_137_832)"/>
<path d="M36.2 31.5979C36.2 31.5979 41 31.4979 43.9 33.3979C46.8 35.3979 48.4 39.7979 47.7 44.5979C47.7 44.5979 50.1999 36.0979 45.0999 32.0979C41.1999 28.9979 36.2 31.5979 36.2 31.5979Z" fill="url(#paint3_radial_137_832)"/>
<path d="M53.5999 26.3979L54.9999 26.6979C57.5999 26.9979 60.3999 26.0979 63.3999 24.0979L63.4999 23.9979L63.1999 22.4979L62.8999 22.6979C59.5999 24.9979 56.5999 25.7979 53.9999 24.9979C52.7999 24.6979 51.6999 24.0979 50.4999 23.0979C52.6999 17.0979 53.5999 11.7979 53.9999 8.2979C53.9999 8.1979 53.9999 7.9979 53.9999 7.9979L53.6999 7.6979L52.6999 6.8979V7.2979C52.6999 7.5979 52.5999 7.7979 52.5999 8.0979C52.2999 11.0979 51.3999 16.1979 49.3999 21.8979C46.4999 18.9979 44.4999 14.6979 43.1999 11.4979C40.9999 5.9979 37.3999 3.7979 34.5999 2.5979C34.4999 2.5979 32.7999 2.7979 32.7999 2.7979L32.1999 2.8979L32.7999 3.1979L33.6999 3.6979C36.0999 4.8979 39.9999 6.9979 41.8999 12.0979C42.8999 14.8979 45.1999 19.9979 48.8999 23.4979C48.7999 23.6979 47.5999 26.5979 47.3999 26.9979C35.9999 18.9979 22.5999 14.4979 17.2999 12.9979H17.1999L16.2999 14.2979L16.5999 14.3979C21.8999 15.9979 35.4999 20.3979 46.7999 28.4979C46.6999 28.7979 45.2999 31.2979 45.1999 31.5979C40.8999 29.2979 35.3999 30.3979 30.5999 31.2979C28.4999 31.6979 26.4999 32.0979 24.6999 32.1979C18.8999 32.4979 14.9999 32.3979 12.6999 32.1979H12.3999L12.4999 32.8979L12.5999 33.6979H12.7999C15.0999 33.7979 18.9999 33.9979 24.6999 33.6979C26.4999 33.5979 28.5999 33.1979 30.6999 32.7979C35.2999 31.8979 40.4999 30.8979 44.2999 32.8979C39.3999 40.7979 32.6999 46.5979 24.3999 50.1979L23.9999 50.0979L25.4999 50.9979C33.8999 47.2979 40.5999 41.3979 45.4999 33.4979C46.5999 34.4979 47.4999 35.9979 47.8999 37.7979C48.1999 39.2979 48.2999 40.9979 48.0999 42.6979C47.6999 45.9979 46.4999 49.5979 44.3999 52.9979L43.9999 53.3979L45.9999 52.7979C47.8999 49.3979 49.0999 45.9979 49.3999 42.7979C49.5999 40.8979 49.4999 39.0979 49.1999 37.4979C48.6999 35.1979 47.6999 33.4979 46.1999 32.2979C46.2999 32.0979 47.5999 29.5979 47.7999 29.1979C52.8999 32.9979 56.8999 37.1979 59.6999 41.5979L59.8999 41.8979L60.6999 40.4979L60.5999 40.3979C57.6999 35.8979 53.5999 31.6979 48.3999 27.8979C48.4999 27.5979 49.6999 24.8979 49.7999 24.4979C51.0999 25.3979 52.2999 25.9979 53.5999 26.3979Z" fill="#101115"/>
<path d="M34.4 33.2979C34.2 33.2979 33.8 33.2979 32.7 33.2979H31.3H31.1L29.7 33.4979H29.3L23.1 34.2979C23.1 34.2979 23.1 34.4979 23.1 34.5979C22.7 34.4979 22.3 34.4979 22 34.5979L18.7 35.2979C17.9 35.4979 17.3 35.8979 16.7 36.4979L16.6 35.7979L9.8 37.9979L9.5 39.3979C9.5 39.3979 9.5 39.5979 9.4 39.6979C8.3 38.9979 7.2 38.8979 6 39.3979L0 41.9979L0.1 43.5979V59.5979L6.5 56.7979L13.5 54.1979L18.9 52.6979C19 52.5979 19.6 52.5979 19.6 52.5979L22.8 51.8979C22.8 51.8979 23.7 51.4979 23.9 51.4979C24.4 51.4979 25.6 51.3979 29 50.8979C28.9 50.8979 32.9 50.5979 32.9 50.5979L39.9 50.3979L39.7 50.2979C40 50.3979 40.8 50.3979 45.2 50.6979L49.6 51.2979C50.2 51.3979 50.8 51.2979 51.4 51.1979C51.4 51.2979 51.3 51.4979 51.3 51.4979L57.4 52.7979L61.2 53.8979L67 55.8979L75.7 59.4979L75.8 55.9979V52.3979L75.7 52.2979C75.6 52.1979 75.5 51.9979 72.7 50.7979C72.8 49.7979 72.8 47.3979 72.8 41.7979V40.6979L66.8 38.1979L65.9 37.7979V37.8979C65.1 37.6979 60.7 36.1979 60.7 36.1979L54.3 34.6979C54.3 34.6979 54.2 35.4979 54.1 35.6979C53.4 34.8979 52.6 34.3979 51.6 34.2979L45 33.3979L40.6 33.2979H37.6C37.7 33.1979 34.5 33.2979 34.4 33.2979Z" fill="#101115"/>
<path d="M37.9001 48.2979C30.2001 48.2979 23.7 49.6979 21.9 50.1979C21.8 50.1979 20.5 50.5979 20.5 50.5979C20.5 50.5979 20.5 51.6979 20.5 52.0979C19.4 52.3979 16.7 53.0979 14.5 53.9979L11.8 55.0979L12.8 55.8979C12.8 55.8979 15.4 58.0979 16.1 58.6979C13.3 64.1979 12.7 66.1978 12.7 66.1978L15.9 64.8979C16.8 64.4979 21.6 62.6979 27 62.2979L28.6 62.1979C28.6 62.1979 28.6 60.9979 28.6 60.4979C31.8 60.0979 35 59.8979 38 59.8979C41.1 59.8979 44.3001 60.0979 47.4001 60.4979C47.4001 60.9979 47.4001 62.1979 47.4001 62.1979L49 62.2979C54.4001 62.6979 59.2 64.4979 60.1 64.7979L63.3 66.1978C63.3 66.1978 62.9001 64.3979 59.9001 58.6979C60.6001 58.0979 64.2 55.0979 64.2 55.0979L63 54.5979L61.4001 53.9979C59.1001 53.0979 56.5 52.3979 55.4001 52.0979C55.4001 51.5979 55.4001 50.5979 55.4001 50.5979L54 50.2979C52.1 49.7979 45.5 48.2979 37.9001 48.2979Z" fill="#101115"/>
<path d="M60.9001 55.5978C58.1001 54.4978 54.5001 53.5978 54.5001 53.5978C54.3001 54.7978 54.0001 55.8978 53.8001 57.0978C53.8001 55.3978 53.8001 53.5978 53.8001 51.8978C53.8001 51.8978 46.7001 49.9978 38.0001 49.9978C29.3001 49.9978 22.2001 51.8978 22.2001 51.8978C22.2001 53.5978 22.2001 55.3978 22.2001 57.0978C22.0001 55.8978 21.7001 54.7978 21.5001 53.5978C21.5001 53.5978 17.9001 54.4978 15.1001 55.5978C16.2001 56.4978 17.2001 57.3978 18.3001 58.2978C17.4001 59.9978 16.4001 61.6978 15.5001 63.3978C15.5001 63.3978 20.8001 61.0978 27.1001 60.6978C27.1001 60.4978 27.1001 60.3978 27.1001 60.1978C25.5001 60.0978 24.0001 59.9978 22.4001 59.8978C22.4001 59.8978 29.5001 58.1978 38.2001 58.1978C46.9001 58.1978 54.0001 59.8978 54.0001 59.8978C52.1001 59.9978 50.6001 59.9978 49.0001 60.1978C49.0001 60.3978 49.0001 60.4978 49.0001 60.6978C55.2001 61.0978 60.6001 63.3978 60.6001 63.3978C59.7001 61.6978 58.7001 59.9978 57.8001 58.2978C58.8001 57.3978 59.8001 56.4978 60.9001 55.5978Z" fill="#F49117"/>
<path d="M2.3999 43.398C3.8999 42.698 5.3999 42.098 6.8999 41.498C7.2999 41.298 7.6999 41.298 7.9999 41.598C8.2999 41.798 8.4999 42.198 8.4999 42.598C8.4999 43.498 8.4999 44.298 8.4999 45.198C8.4999 45.998 8.2999 46.698 7.7999 47.298C8.4999 47.498 8.7999 48.098 8.7999 48.998C8.7999 49.398 8.7999 49.798 8.7999 50.198C8.7999 51.198 8.4999 51.998 7.7999 52.898C7.1999 53.698 6.4999 54.198 5.5999 54.598C4.4999 54.998 3.4999 55.498 2.3999 55.998C2.3999 51.798 2.3999 47.598 2.3999 43.398ZM4.4999 44.798C4.4999 45.698 4.4999 46.598 4.4999 47.598C4.7999 47.498 5.1999 47.298 5.4999 47.198C5.6999 47.098 5.8999 46.998 5.9999 46.698C6.1999 46.498 6.1999 46.198 6.1999 45.998C6.1999 45.298 6.1999 44.698 6.1999 43.998C5.6999 44.298 5.0999 44.598 4.4999 44.798ZM4.4999 52.698C4.7999 52.598 5.1999 52.398 5.4999 52.298C6.1999 51.998 6.4999 51.598 6.4999 51.098C6.4999 50.698 6.4999 50.298 6.4999 49.898C6.4999 49.698 6.3999 49.498 6.2999 49.398C6.0999 49.298 5.9999 49.298 5.7999 49.398C5.3999 49.598 4.8999 49.698 4.4999 49.898C4.4999 50.798 4.4999 51.698 4.4999 52.698Z" fill="white"/>
<path d="M12.3 49.598C12.2 50.498 12 51.398 11.9 52.298C11.2 52.498 10.4 52.798 9.69995 53.098C10.4 48.698 11.1 44.298 11.8 39.898C12.8 39.598 13.7 39.298 14.7 38.998C15.4 42.998 16.1 46.898 16.8 50.898C16.1 51.098 15.3 51.298 14.6 51.498C14.5 50.698 14.3 49.898 14.2 49.098C13.5 49.198 12.9 49.398 12.3 49.598ZM12.7 47.098C13.1 46.998 13.4 46.898 13.8 46.798C13.6 45.098 13.4 43.398 13.3 41.598C13 43.498 12.8 45.298 12.7 47.098Z" fill="white"/>
<path d="M21.7999 39.398C21.0999 39.498 20.3999 39.6979 19.6999 39.7979C19.6999 40.4979 19.6999 41.0979 19.6999 41.7979C19.6999 42.2979 19.9999 42.498 20.6999 42.398C21.5999 42.198 22.3999 42.2979 22.9999 42.7979C23.5999 43.2979 23.9999 43.998 23.9999 44.898C23.9999 45.798 23.9999 46.5979 23.9999 47.4979C23.9999 47.9979 23.7999 48.3979 23.4999 48.7979C23.1999 49.1979 22.7999 49.3979 22.3999 49.4979C21.2999 49.6979 20.1999 49.898 19.1999 50.198C18.7999 50.298 18.3999 50.1979 18.0999 49.9979C17.7999 49.6979 17.5999 49.398 17.5999 48.898C17.5999 48.098 17.5999 47.198 17.5999 46.398C18.2999 46.198 19.0999 45.998 19.7999 45.898C19.7999 46.498 19.7999 47.1979 19.7999 47.7979C20.4999 47.5979 21.1999 47.498 21.8999 47.398C21.8999 46.698 21.8999 46.098 21.8999 45.398C21.8999 44.898 21.5999 44.6979 20.8999 44.7979C19.9999 44.9979 19.1999 44.8979 18.5999 44.4979C17.9999 44.0979 17.5999 43.398 17.5999 42.398C17.5999 41.498 17.5999 40.6979 17.5999 39.7979C17.5999 39.2979 17.7999 38.8979 18.0999 38.4979C18.3999 38.0979 18.7999 37.798 19.1999 37.698C20.2999 37.398 21.3999 37.1979 22.3999 36.9979C22.7999 36.8979 23.1999 36.9979 23.4999 37.2979C23.7999 37.5979 23.9999 37.998 23.9999 38.398C23.9999 39.198 23.9999 40.098 23.9999 40.898C23.2999 40.998 22.4999 41.1979 21.7999 41.2979C21.7999 40.6979 21.7999 40.098 21.7999 39.398Z" fill="white"/>
<path d="M27.5999 43.5979C27.5999 45.2979 27.5999 46.9979 27.5999 48.6979C26.8999 48.7979 26.0999 48.8979 25.3999 48.9979C25.3999 44.7979 25.3999 40.6979 25.3999 36.4979C26.0999 36.3979 26.8999 36.2979 27.5999 36.1979C27.5999 37.8979 27.5999 39.5979 27.5999 41.2979C27.8999 41.2979 28.1999 41.1979 28.4999 41.1979C28.9999 39.4979 29.3999 37.6979 29.8999 35.9979C30.5999 35.8979 31.3999 35.8979 32.0999 35.7979C31.4999 37.8979 30.9999 39.9979 30.3999 42.1979C30.9999 44.1979 31.4999 46.2979 32.0999 48.2979C31.3999 48.3979 30.5999 48.3979 29.8999 48.4979C29.3999 46.8979 28.9999 45.1979 28.4999 43.5979C28.1999 43.4979 27.8999 43.4979 27.5999 43.5979Z" fill="white"/>
<path d="M35.2999 45.698C36.4999 45.698 37.7999 45.598 38.9999 45.698C38.9999 46.498 38.9999 47.198 38.9999 47.998C36.9999 47.998 35.0999 47.998 33.0999 48.098C33.0999 43.898 33.0999 39.798 33.0999 35.598C35.0999 35.498 36.9999 35.398 38.9999 35.498C38.9999 36.298 38.9999 36.998 38.9999 37.798C37.7999 37.798 36.4999 37.798 35.2999 37.798C35.2999 38.698 35.2999 39.598 35.2999 40.598C36.2999 40.598 37.2999 40.598 38.3999 40.598C38.3999 41.398 38.3999 42.098 38.3999 42.898C37.3999 42.898 36.3999 42.898 35.2999 42.898C35.2999 43.898 35.2999 44.798 35.2999 45.698Z" fill="white"/>
<path d="M41.5999 37.898C40.8999 37.898 40.1999 37.798 39.3999 37.798C39.3999 36.998 39.3999 36.298 39.3999 35.498C41.5999 35.498 43.7999 35.698 45.8999 35.898C45.8999 36.698 45.8999 37.398 45.8999 38.198C45.1999 38.098 44.4999 38.098 43.6999 37.998C43.6999 41.398 43.6999 44.798 43.6999 48.198C42.9999 48.098 42.1999 48.098 41.4999 48.098C41.5999 44.698 41.5999 41.298 41.5999 37.898Z" fill="white"/>
<path d="M46.5999 35.998C48.0999 36.198 49.6999 36.398 51.1999 36.598C51.5999 36.698 51.9999 36.898 52.3999 37.298C52.6999 37.698 52.8999 38.098 52.8999 38.598C52.8999 39.498 52.8999 40.298 52.8999 41.198C52.8999 41.998 52.6999 42.498 52.1999 42.898C52.8999 43.498 53.1999 44.298 53.1999 45.198C53.1999 45.598 53.1999 45.998 53.1999 46.398C53.1999 47.398 52.8999 48.098 52.1999 48.498C51.5999 48.898 50.7999 49.098 49.8999 48.898C48.7999 48.698 47.6999 48.598 46.5999 48.498C46.5999 44.298 46.5999 40.098 46.5999 35.998ZM48.8999 38.498C48.8999 39.398 48.8999 40.298 48.8999 41.298C49.1999 41.298 49.5999 41.398 49.8999 41.398C50.0999 41.398 50.2999 41.398 50.4999 41.298C50.6999 41.198 50.6999 40.998 50.6999 40.798C50.6999 40.098 50.6999 39.498 50.6999 38.798C50.0999 38.698 49.4999 38.598 48.8999 38.498ZM48.8999 46.398C49.1999 46.398 49.5999 46.498 49.8999 46.498C50.5999 46.598 50.8999 46.398 50.8999 45.798C50.8999 45.398 50.8999 44.998 50.8999 44.598C50.8999 44.398 50.7999 44.198 50.6999 43.998C50.4999 43.798 50.3999 43.698 50.0999 43.698C49.6999 43.598 49.1999 43.598 48.7999 43.498C48.8999 44.598 48.8999 45.498 48.8999 46.398Z" fill="white"/>
<path d="M56.6999 47.598C56.5999 48.398 56.3999 49.198 56.2999 49.998C55.5999 49.798 54.7999 49.698 54.0999 49.498C54.7999 45.498 55.4999 41.498 56.1999 37.498C57.1999 37.698 58.0999 37.998 59.0999 38.198C59.7999 42.498 60.4999 46.898 61.1999 51.298C60.4999 51.098 59.6999 50.898 58.9999 50.698C58.8999 49.798 58.6999 48.898 58.5999 48.098C57.9999 47.898 57.2999 47.798 56.6999 47.598ZM57.0999 45.398C57.4999 45.498 57.7999 45.598 58.1999 45.698C57.9999 43.898 57.7999 42.098 57.6999 40.198C57.4999 41.998 57.2999 43.698 57.0999 45.398Z" fill="white"/>
<path d="M62.0999 51.5979C62.0999 47.3979 62.0999 43.2979 62.0999 39.0979C62.7999 39.2979 63.5999 39.5979 64.2999 39.7979C64.2999 43.1979 64.2999 46.5979 64.2999 49.9979C65.2999 50.2979 66.2999 50.6979 67.2999 51.0979C67.2999 51.8979 67.2999 52.5979 67.2999 53.3979C65.5999 52.6979 63.8999 52.0979 62.0999 51.5979Z" fill="white"/>
<path d="M68.2 53.698C68.2 49.498 68.2 45.398 68.2 41.198C68.9 41.498 69.6 41.798 70.4 42.098C70.4 45.498 70.4 48.898 70.4 52.298C71.4 52.698 72.4 53.098 73.4 53.598C73.4 54.398 73.4 55.098 73.4 55.898C71.7 55.098 70 54.398 68.2 53.698Z" fill="white"/>
<path d="M24.7001 54.3978C24.5001 54.3978 24.3 54.4978 24 54.4978C24 55.1978 24 55.9978 24 56.6978C24.2 56.6978 24.4001 56.5978 24.7001 56.5978C24.7001 56.3978 24.7001 56.1978 24.7001 56.0978C24.9001 56.0978 25.2 55.9978 25.4 55.9978C25.4 56.1978 25.4 56.4978 25.4 56.6978C25.4 56.7978 25.3001 56.9978 25.2001 57.0978C25.1001 57.1978 25 57.2978 24.8 57.2978C24.5 57.3978 24.1 57.3978 23.8 57.4978C23.7 57.4978 23.5 57.4978 23.4 57.3978C23.3 57.2978 23.3 57.1978 23.3 57.0978C23.3 56.1978 23.3 55.3978 23.3 54.4978C23.3 54.3978 23.3 54.1978 23.4 54.0978C23.5 53.9978 23.6 53.8978 23.8 53.8978C24.1 53.7978 24.5 53.6978 24.8 53.6978C24.9 53.6978 25.1001 53.6978 25.2001 53.7978C25.3001 53.8978 25.4 53.9978 25.4 54.0978C25.4 54.2978 25.4 54.5978 25.4 54.7978C25.2 54.7978 24.9001 54.8978 24.7001 54.8978C24.7001 54.7978 24.7001 54.5978 24.7001 54.3978Z" fill="#101115"/>
<path d="M26.6001 55.4978C26.6001 55.9978 26.6001 56.4978 26.6001 56.8978C26.4001 56.8978 26.1001 56.9978 25.9001 56.9978C25.9001 55.7978 25.9001 54.6978 25.9001 53.4978C26.1001 53.4978 26.4001 53.3978 26.6001 53.3978C26.6001 53.8978 26.6001 54.3978 26.6001 54.7978C26.8001 54.7978 27.0001 54.6978 27.3001 54.6978C27.3001 54.1978 27.3001 53.6978 27.3001 53.2978C27.5001 53.2978 27.8001 53.1978 28.0001 53.1978C28.0001 54.3978 28.0001 55.4978 28.0001 56.6978C27.8001 56.6978 27.5001 56.7978 27.3001 56.7978C27.3001 56.2978 27.3001 55.7978 27.3001 55.3978C27.0001 55.3978 26.8001 55.3978 26.6001 55.4978Z" fill="#101115"/>
<path d="M29.1 55.7979C29.1 55.9979 29 56.2979 29 56.4979C28.8 56.4979 28.5 56.5979 28.3 56.5979C28.5 55.3979 28.8 54.1979 29 52.9979C29.3 52.9979 29.6 52.8979 29.9 52.8979C30.1 53.9979 30.4 55.1979 30.6 56.2979C30.4 56.2979 30.1 56.3979 29.9 56.3979C29.9 56.1979 29.8 55.8979 29.8 55.6979C29.5 55.6979 29.3001 55.6979 29.1 55.7979ZM29.3 55.0979C29.4 55.0979 29.5 55.0979 29.6 55.0979C29.5 54.5979 29.5 54.0979 29.4 53.5979C29.4 54.0979 29.3 54.5979 29.3 55.0979Z" fill="#101115"/>
<path d="M34.1001 52.4978C34.1001 53.6978 34.1001 54.7978 34.1001 55.9978C33.9001 55.9978 33.6001 55.9978 33.4001 55.9978C33.4001 55.1978 33.4001 54.4978 33.4001 53.6978C33.2001 54.4978 33.1001 55.2978 32.9001 55.9978C32.6001 55.9978 32.3001 55.9978 32.1001 56.0978C31.9001 55.2978 31.8001 54.5978 31.6001 53.7978C31.6001 54.5978 31.6001 55.2978 31.6001 56.0978C31.4001 56.0978 31.1001 56.0978 30.9001 56.1978C30.9001 54.9978 30.9001 53.8978 30.9001 52.6978C31.2001 52.6978 31.5001 52.5978 31.9001 52.5978C32.1001 53.4978 32.3001 54.4978 32.5001 55.3978C32.7001 54.3978 32.9001 53.4978 33.1001 52.4978C33.4001 52.4978 33.8001 52.4978 34.1001 52.4978Z" fill="#101115"/>
<path d="M34.7 52.3979C35.2 52.3979 35.7 52.3979 36.2 52.2979C36.3 52.2979 36.4999 52.2979 36.5999 52.3979C36.6999 52.4979 36.7999 52.5979 36.7999 52.6979C36.7999 52.9979 36.7999 53.2979 36.7999 53.5979C36.7999 53.8979 36.7 54.0979 36.5 54.2979C36.3 54.4979 36.0999 54.4979 35.7999 54.5979C35.6999 54.5979 35.6 54.5979 35.5 54.5979C35.5 54.9979 35.5 55.3979 35.5 55.8979C35.3 55.8979 34.9999 55.8979 34.7999 55.8979C34.6999 54.7979 34.7 53.5979 34.7 52.3979ZM35.4 52.9979C35.4 53.2979 35.4 53.5979 35.4 53.9979C35.5 53.9979 35.6 53.9979 35.7 53.9979C35.9 53.9979 36 53.8979 36 53.7979C36 53.5979 36 53.2979 36 53.0979C35.8 52.9979 35.6 52.9979 35.4 52.9979Z" fill="#101115"/>
<path d="M37.1001 55.8979C37.1001 54.6979 37.1001 53.5979 37.1001 52.3979C37.3001 52.3979 37.6001 52.3979 37.8001 52.3979C37.8001 53.5979 37.8001 54.6979 37.8001 55.8979C37.6001 55.8979 37.4001 55.8979 37.1001 55.8979Z" fill="#101115"/>
<path d="M39.9001 52.3979C40.0001 52.3979 40.2 52.4979 40.3 52.5979C40.4 52.6979 40.5 52.7979 40.5 52.8979C40.5 53.7979 40.5 54.5979 40.5 55.4979C40.5 55.5979 40.4 55.6979 40.3 55.7979C40.2 55.8979 40.1001 55.8979 39.9001 55.8979C39.6001 55.8979 39.2001 55.8979 38.9001 55.8979C38.8001 55.8979 38.6 55.7979 38.5 55.7979C38.4 55.6979 38.3 55.5979 38.3 55.4979C38.3 54.5979 38.3 53.7979 38.3 52.8979C38.3 52.7979 38.4 52.6979 38.5 52.5979C38.6 52.4979 38.7001 52.4979 38.9001 52.4979C39.2001 52.3979 39.6001 52.3979 39.9001 52.3979ZM39.1 52.9979C39.1 53.6979 39.1 54.4979 39.1 55.1979C39.3 55.1979 39.5 55.1979 39.8 55.1979C39.8 54.4979 39.8 53.6979 39.8 52.9979C39.5 52.9979 39.3 52.9979 39.1 52.9979Z" fill="#101115"/>
<path d="M41.7 53.6978C41.7 54.4978 41.7 55.1978 41.7 55.9978C41.5 55.9978 41.2 55.9978 41 55.9978C41 54.7978 41 53.6978 41 52.4978C41.3 52.4978 41.6 52.4978 42 52.5978C42.2 53.3978 42.4 54.0978 42.6 54.8978C42.6 54.0978 42.6 53.3978 42.6 52.5978C42.8 52.5978 43.1 52.5978 43.3 52.6978C43.3 53.8978 43.3 54.9978 43.3 56.1978C43 56.1978 42.7 56.0978 42.3 56.0978C42.1 55.2978 41.9 54.4978 41.7 53.6978Z" fill="#101115"/>
<path d="M45.1 53.3979C44.9 53.3979 44.7 53.2979 44.4 53.2979C44.4 53.4979 44.4 53.6979 44.4 53.8979C44.4 53.9979 44.5 54.0979 44.7 54.1979C45 54.1979 45.2 54.2979 45.4 54.4979C45.6 54.6979 45.7 54.8979 45.7 55.1979C45.7 55.3979 45.7 55.6979 45.7 55.8979C45.7 55.9979 45.6 56.0979 45.5 56.1979C45.4 56.2979 45.3 56.2979 45.1 56.2979C44.8 56.2979 44.4 56.1979 44.1 56.1979C44 56.1979 43.8 56.0979 43.7 55.9979C43.6 55.8979 43.5 55.7979 43.5 55.5979C43.5 55.3979 43.5 55.0979 43.5 54.8979C43.7 54.8979 44 54.8979 44.2 54.9979C44.2 55.1979 44.2 55.3979 44.2 55.4979C44.4 55.4979 44.6 55.4979 44.9 55.5979C44.9 55.3979 44.9 55.1979 44.9 54.9979C44.9 54.7979 44.8 54.7979 44.6 54.6979C44.3 54.6979 44.1 54.5979 43.9 54.3979C43.7 54.1979 43.6 53.9979 43.6 53.6979C43.6 53.4979 43.6 53.1979 43.6 52.9979C43.6 52.8979 43.7 52.7979 43.8 52.6979C43.9 52.5979 44 52.5979 44.2 52.5979C44.5 52.5979 44.9 52.6979 45.2 52.6979C45.3 52.6979 45.5 52.7979 45.6 52.8979C45.7 52.9979 45.8 53.0979 45.8 53.2979C45.8 53.4979 45.8 53.7979 45.8 53.9979C45.6 53.9979 45.3 53.8979 45.1 53.8979C45.1 53.7979 45.1 53.5979 45.1 53.3979Z" fill="#101115"/>
<path d="M47 55.0979C47 55.5979 47 56.0979 47 56.4979C46.8 56.4979 46.5 56.3979 46.3 56.3979C46.3 55.1979 46.3 54.0979 46.3 52.8979C46.5 52.8979 46.8 52.9979 47 52.9979C47 53.4979 47 53.9979 47 54.3979C47.2 54.3979 47.4001 54.4979 47.7001 54.4979C47.7001 53.9979 47.7001 53.4979 47.7001 53.0979C47.9001 53.0979 48.2001 53.1979 48.4001 53.1979C48.4001 54.3979 48.4001 55.4979 48.4001 56.6979C48.2001 56.6979 47.9001 56.5979 47.7001 56.5979C47.7001 56.0979 47.7001 55.5979 47.7001 55.1979C47.5001 55.1979 47.3 55.1979 47 55.0979Z" fill="#101115"/>
<path d="M49 56.8979C49 55.6979 49 54.5979 49 53.3979C49.2 53.3979 49.5 53.4979 49.7 53.4979C49.7 54.6979 49.7 55.7979 49.7 56.9979C49.4 56.9979 49.2 56.8979 49 56.8979Z" fill="#101115"/>
<path d="M50.2 53.5979C50.7 53.6979 51.2 53.7979 51.7 53.8979C51.8 53.8979 51.9999 53.9979 52.0999 54.0979C52.1999 54.1979 52.2999 54.2979 52.2999 54.4979C52.2999 54.7979 52.2999 55.0979 52.2999 55.3979C52.2999 55.6979 52.2 55.8979 52 55.9979C51.8 56.0979 51.5999 56.0979 51.2999 56.0979C51.1999 56.0979 51.1 56.0979 51 55.9979C51 56.3979 51 56.7979 51 57.2979C50.8 57.2979 50.4999 57.1979 50.2999 57.1979C50.1999 55.8979 50.2 54.7979 50.2 53.5979ZM50.9 54.3979C50.9 54.6979 50.9 54.9979 50.9 55.3979C51 55.3979 51.1 55.3979 51.2 55.4979C51.4 55.4979 51.5 55.4979 51.5 55.2979C51.5 55.0979 51.5 54.7979 51.5 54.5979C51.4 54.4979 51.1 54.3979 50.9 54.3979Z" fill="#101115"/>
<path d="M38 60.4978L39.2 62.9978L42 63.3978L40 65.3978L40.4 68.0978L38 66.7978L35.5 68.0978L35.9 65.3978L34 63.3978L36.7 62.9978L38 60.4978Z" fill="#F49117"/>
<path d="M44.7999 60.7979L46 61.8979L47.5 61.4979L46.9 62.9979L47.7 64.3979L46.0999 64.1978L45 65.3979L44.7 63.7979L43.2 63.1979L44.5999 62.3979L44.7999 60.7979Z" fill="#F49117"/>
<path d="M31 60.7979L29.8 61.8979L28.2 61.4979L28.9 62.9979L28 64.3979L29.6 64.1978L30.7 65.3979L31 63.7979L32.5 63.1979L31.1 62.3979L31 60.7979Z" fill="#F49117"/>
<path d="M65.8001 23.1978C66.2001 25.1978 66.8001 30.3978 65.1001 35.5978C65.1001 35.5978 67.6001 31.2978 67.8001 25.4978C67.8001 25.4978 68.3001 27.5978 67.7001 30.8978C67.7001 30.8978 69.2001 27.7978 69.0001 23.2978H65.8001V23.1978Z" fill="white"/>
<path d="M10.2999 23.1978C9.8999 25.1978 9.2999 30.3978 10.9999 35.5978C10.9999 35.5978 8.4999 31.2978 8.2999 25.4978C8.2999 25.4978 7.7999 27.5978 8.3999 30.8978C8.3999 30.8978 6.8999 27.7978 7.0999 23.2978H10.2999V23.1978Z" fill="white"/>
<defs>
<radialGradient id="paint0_radial_137_832" cx="0" cy="0" r="1" gradientUnits="userSpaceOnUse" gradientTransform="translate(42.2533 28.0202) rotate(6.34399) scale(16.6062)">
<stop stop-color="white"/>
<stop offset="0.4143" stop-color="#FAFAFA"/>
<stop offset="0.8914" stop-color="#ECECEC"/>
<stop offset="1" stop-color="#E8E8E8"/>
</radialGradient>
<radialGradient id="paint1_radial_137_832" cx="0" cy="0" r="1" gradientUnits="userSpaceOnUse" gradientTransform="translate(42.7176 30.487) rotate(6.34399) scale(17.5546)">
<stop stop-color="white"/>
<stop offset="0.4143" stop-color="#FAFAFA"/>
<stop offset="0.8914" stop-color="#ECECEC"/>
<stop offset="1" stop-color="#E8E8E8"/>
</radialGradient>
<radialGradient id="paint2_radial_137_832" cx="0" cy="0" r="1" gradientUnits="userSpaceOnUse" gradientTransform="translate(51.9374 22.2584) rotate(6.34399) scale(6.98967)">
<stop stop-color="white"/>
<stop offset="0.4143" stop-color="#FAFAFA"/>
<stop offset="0.8914" stop-color="#ECECEC"/>
<stop offset="1" stop-color="#E8E8E8"/>
</radialGradient>
<radialGradient id="paint3_radial_137_832" cx="0" cy="0" r="1" gradientUnits="userSpaceOnUse" gradientTransform="translate(42.0965 37.3576) rotate(6.34399) scale(6.58076)">
<stop stop-color="white"/>
<stop offset="0.4143" stop-color="#FAFAFA"/>
<stop offset="0.8914" stop-color="#ECECEC"/>
<stop offset="1" stop-color="#E8E8E8"/>
</radialGradient>
</defs>
</svg>
