<svg width="60" height="62" viewBox="0 0 60 62" fill="none" xmlns="http://www.w3.org/2000/svg">
<g id="logo">
<path id="Vector" d="M43.7032 18.8986L29.2499 4.44531L1.1449 32.5388L15.5982 46.9922L30.0516 61.4455L58.1565 33.3405L43.7032 18.8986Z" fill="#003D6C"/>
<path id="Vector_2" d="M42.4777 20.1127L29.2842 6.90771L3.60718 32.5733L16.8122 45.7782L30.0171 58.9832L55.6827 33.3062L42.4777 20.1127Z" fill="#60BA46"/>
<path id="Vector_3" d="M45.1805 42.2851L45.9822 41.4835V25.0946L45.1805 24.2929V42.2851ZM43.3138 44.1519L44.1154 43.3503V23.2278L43.3138 22.4261V44.1519ZM48.9141 38.5516L49.7158 37.7499V28.8282L48.9141 28.0265V38.5516ZM50.7809 36.6848L51.5826 35.8831V30.695L50.7809 29.8933V36.6848ZM41.447 46.0187L42.2486 45.217V21.361L41.447 20.5593V46.0187ZM47.0473 40.4184L47.849 39.6167V26.9614L47.0473 26.1597V40.4184ZM32.1015 55.3527L32.9032 54.551V12.0271L32.1015 11.2254V55.3527ZM33.9683 53.4859L34.77 52.6842V13.8939L33.9683 13.0922V53.4859ZM39.5802 47.8855L40.3819 47.0838V19.4942L39.5802 18.6925V47.8855ZM52.6477 31.7601V34.8065L53.4494 34.0048V32.5503L52.6477 31.7601ZM30.2347 57.2195L31.0364 56.4178V10.1603L30.2347 9.35858V57.2195ZM37.7134 49.7523L38.5151 48.9506V17.6274L37.7134 16.8257V49.7523ZM35.8466 51.6191L36.6483 50.8174V15.7606L35.8466 14.959V51.6191ZM15.3004 42.7662L16.1021 43.5679V21.6244L15.3004 22.4261V42.7662ZM22.7676 50.2333L23.5693 51.035V14.1573L22.7676 14.959V50.2333ZM20.9008 48.3665L21.7025 49.1682V16.0241L20.9008 16.8257V48.3665ZM24.6344 52.1116L25.4361 52.9133V12.2905L24.6344 13.0922V52.1116ZM28.368 55.8452L29.1696 56.6469V8.55688L28.368 9.35858V55.8452ZM26.5012 53.9784L27.3028 54.7801V10.4237L26.5012 11.2254V53.9784ZM7.83322 35.299L8.63491 36.1007V29.0916L7.83322 29.8933V35.299ZM19.034 46.4997L19.8357 47.3014V17.8909L19.034 18.6925V46.4997ZM9.70002 37.1658L10.5017 37.9675V27.2248L9.70002 28.0265V37.1658ZM5.96643 33.4322L6.76812 34.2339V30.9584L5.96643 31.7601V33.4322ZM11.5668 39.0326L12.3685 39.8343V25.358L11.5668 26.1597V39.0326ZM17.1672 44.633L17.9689 45.4346V19.7576L17.1672 20.5593V44.633ZM13.4336 40.8994L14.2353 41.7011V23.4912L13.4336 24.2929V40.8994Z" fill="white"/>
<g id="Group">
<path id="Vector_4" d="M50.6206 23.0101C50.6206 22.7582 50.6206 22.6322 50.6206 22.3802C50.9871 22.1741 51.1703 22.0825 51.5368 21.8878C51.1703 21.4297 50.9871 21.2006 50.6206 20.7425C50.6206 19.2651 50.6206 17.7763 50.6206 16.2989C49.3493 15.8751 48.0666 15.4857 46.761 15.1307C46.761 16.4706 46.761 17.7992 46.761 19.1391C46.4747 19.0475 46.1884 18.9673 45.8906 18.8757C45.8906 17.5472 45.8906 16.2301 45.8906 14.9016C44.5964 14.5695 43.2908 14.2832 41.9738 14.0312C41.9738 14.8787 41.9738 15.3139 41.9738 16.1614C41.7905 15.2796 41.6989 14.8329 41.5157 13.951C40.1299 13.6991 38.7441 13.4929 37.3469 13.3211C37.2209 13.8709 37.1636 14.1457 37.0377 14.7069C36.3505 14.0656 36.0069 13.7449 35.3083 13.115C33.9683 13.0005 32.6284 12.9203 31.2884 12.8859C30.6814 12.8745 30.3836 12.863 29.7881 12.863C28.0816 12.8745 26.3981 12.9432 24.7031 13.0463C24.7031 13.1264 24.7031 13.1723 24.7031 13.2524C24.6 13.1723 24.5542 13.1379 24.4511 13.0577C23.2257 13.1723 22.0002 13.2982 20.7862 13.4471C20.0876 14.1114 19.7326 14.455 19.034 15.1421C18.908 14.5924 18.8507 14.3061 18.7248 13.7563C17.339 13.9854 15.9532 14.2717 14.5789 14.5924C14.4529 15.1879 14.3956 15.4857 14.2811 16.0813C13.6054 15.6804 13.2618 15.4743 12.5861 15.0963C10.788 15.5773 9.01284 16.1385 7.26058 16.7684C7.26058 18.2458 7.26058 19.7347 7.26058 21.2121C6.89409 21.6702 6.71085 21.9107 6.34436 22.3802C6.71085 22.5635 6.89409 22.6666 7.26058 22.8498C7.26058 24.3272 7.26058 25.8046 7.26058 27.282L9.82599 29.3206C11.3148 28.7938 12.8151 28.3013 14.3384 27.9005C14.4185 27.8776 14.4643 27.8661 14.5445 27.8432C15.644 27.5569 16.7549 27.2935 17.8658 27.053C17.9803 26.5147 18.0261 26.2398 18.1407 25.7015C18.2552 26.194 18.301 26.446 18.4155 26.9384C19.5379 26.7208 20.6717 26.5261 21.8055 26.3772C21.8742 26.3658 21.9086 26.3658 21.9773 26.3543C22.9966 26.2169 24.0274 26.1024 25.0467 26.0337C25.1383 25.9535 25.1841 25.9077 25.2757 25.8275C25.2757 25.9077 25.2757 25.942 25.2757 26.0108C26.776 25.9191 28.2763 25.8619 29.7881 25.8504C30.3378 25.8504 30.6012 25.8504 31.151 25.8733C32.2619 25.9077 33.3613 25.9764 34.4608 26.0566C34.541 26.068 34.5868 26.068 34.6669 26.0795C35.8008 26.194 36.9117 26.32 38.0455 26.4689C38.16 25.9649 38.2173 25.713 38.3204 25.2205C38.4349 25.7588 38.4921 26.0222 38.5952 26.5605C39.3855 26.6865 39.7749 26.7552 40.5651 26.9041C41.195 27.0301 41.5157 27.0873 42.1456 27.2247C43.2107 27.4538 43.7375 27.5912 44.7911 27.8661C45.318 28.015 45.5928 28.0837 46.1197 28.244C47.5169 28.6678 48.8912 29.1374 50.2655 29.6298L52.934 27.6256C52.934 26.3543 52.934 25.0831 52.934 23.8118C52.0178 23.4912 51.5482 23.3194 50.6206 23.0101Z" fill="#003D6C"/>
<g id="Group_2">
<path id="Vector_5" d="M8.38291 21.9564C8.24548 21.8877 8.18821 21.8533 8.05078 21.7731C8.18821 21.6128 8.24548 21.5212 8.38291 21.3608C8.38291 20.0896 8.38291 18.8183 8.38291 17.5471C9.64271 17.1233 10.9025 16.7339 12.1852 16.3789C12.5975 16.608 12.8037 16.7339 13.216 16.9744C13.216 17.9823 13.216 18.4862 13.216 19.5055C12.964 19.8491 12.838 20.0323 12.5975 20.3759C12.8495 20.605 12.964 20.708 13.216 20.9371C13.216 21.9449 13.216 22.4603 13.216 23.4681C12.8037 23.9148 12.5975 24.1439 12.1852 24.602C10.9025 24.957 9.64271 25.3464 8.38291 25.7701C8.38291 24.4989 8.38291 23.2276 8.38291 21.9564ZM9.96339 20.3759C10.6162 20.1698 10.9483 20.0781 11.6011 19.8834C11.6011 19.1505 11.6011 18.784 11.6011 18.051C10.9483 18.2342 10.6162 18.3373 9.96339 18.5435C9.96339 19.2764 9.96339 19.6429 9.96339 20.3759ZM9.96339 23.7316C10.6162 23.5254 10.9483 23.4338 11.6011 23.2391C11.6011 22.5061 11.6011 22.1396 11.6011 21.4067C10.9483 21.5899 10.6162 21.693 9.96339 21.8991C9.96339 22.6321 9.96339 22.9986 9.96339 23.7316Z" fill="white"/>
<path id="Vector_6" d="M17.9002 23.2963C17.7399 22.5862 17.6597 22.2427 17.5108 21.5326C16.8236 21.6586 16.4915 21.7273 15.8158 21.8762C15.6555 22.6435 15.5868 23.0215 15.4264 23.7888C14.7622 23.9377 14.4415 24.0064 13.7772 24.1782C14.3613 21.3035 14.9454 18.4175 15.5295 15.5428C16.4343 15.3481 16.8924 15.2565 17.8086 15.0847C18.3927 17.7303 18.9882 20.3644 19.5723 23.01C18.8966 23.1245 18.5645 23.1818 17.9002 23.2963ZM17.1787 20.0896C16.9725 19.1504 16.858 18.6694 16.6519 17.7303C16.4457 18.761 16.3312 19.265 16.125 20.2957C16.5488 20.2041 16.7549 20.1697 17.1787 20.0896Z" fill="white"/>
<path id="Vector_7" d="M25.0925 21.5442C24.6687 21.9221 24.4626 22.1053 24.0388 22.4833C22.905 22.5749 22.3324 22.6436 21.21 22.7925C20.7863 22.5062 20.5801 22.3573 20.1564 22.0824C20.1564 21.5556 20.1564 21.2922 20.1564 20.7539C20.8092 20.6623 21.1413 20.6165 21.7941 20.5363C21.7941 20.7997 21.7941 20.9372 21.7941 21.2006C22.4584 21.1204 22.7905 21.0861 23.4548 21.0173C23.4548 20.2844 23.4548 19.9179 23.4548 19.1849C22.5614 19.2651 22.1148 19.3223 21.2215 19.4369C20.7977 19.1505 20.5916 19.0017 20.1678 18.7153C20.1678 17.6617 20.1678 16.6195 20.1678 15.5658C20.5916 15.1535 20.7977 14.9588 21.2215 14.558C22.3553 14.4091 22.9165 14.3519 24.0503 14.2488C24.474 14.558 24.6802 14.7069 25.1039 15.0276C25.1039 15.5429 25.1039 15.7949 25.1039 16.3103C24.4511 16.3561 24.119 16.379 23.4662 16.4477C23.4662 16.1957 23.4662 16.0812 23.4662 15.8293C22.8019 15.8865 22.4698 15.9323 21.8056 16.0125C21.8056 16.7455 21.8056 17.112 21.8056 17.8449C22.7103 17.7419 23.157 17.696 24.0618 17.6159C24.4855 17.9251 24.6916 18.0854 25.1154 18.3947C25.0925 19.4483 25.0925 20.4905 25.0925 21.5442Z" fill="white"/>
<path id="Vector_8" d="M30.1775 22.2428C28.7459 22.2313 27.3144 22.2657 25.8828 22.3459C25.8828 21.0746 25.8828 19.8033 25.8828 18.5321C25.7453 18.4176 25.6766 18.3718 25.5392 18.2572C25.6766 18.1313 25.7453 18.0625 25.8828 17.9366C25.8828 16.6653 25.8828 15.3941 25.8828 14.1228C27.3029 14.0426 28.723 14.0083 30.1432 14.0197C30.1432 14.6267 30.1432 14.9359 30.1432 15.5429C29.101 15.5315 28.5742 15.5429 27.5205 15.5773C27.5205 16.3103 27.5205 16.6768 27.5205 17.4097C28.4253 17.3754 28.8719 17.3754 29.7767 17.3754C29.7767 17.9824 29.7767 18.2916 29.7767 18.8986C28.8719 18.8986 28.4253 18.8986 27.5205 18.9329C27.5205 19.6659 27.5205 20.0324 27.5205 20.7654C28.5856 20.731 29.1124 20.7196 30.1775 20.731C30.1775 21.338 30.1775 21.6358 30.1775 22.2428Z" fill="white"/>
<path id="Vector_9" d="M30.9792 18.4405C30.8418 18.326 30.7731 18.2573 30.6356 18.1428C30.7731 18.0283 30.8418 17.971 30.9792 17.845C30.9792 16.5738 30.9792 15.3025 30.9792 14.0312C32.2963 14.0542 33.6019 14.1229 34.9075 14.2259C35.3312 14.6039 35.5374 14.7986 35.9611 15.188C35.9611 16.1958 35.9611 16.6997 35.9611 17.719C35.7092 17.9824 35.5832 18.1084 35.3312 18.3718C35.5832 18.6811 35.7092 18.8414 35.9611 19.1621C35.9611 20.1699 35.9611 20.6853 35.9611 21.6931C35.5374 21.9909 35.3312 22.1512 34.9075 22.4605C33.6019 22.3574 32.2848 22.2887 30.9792 22.2658C30.9792 20.9831 30.9792 19.7118 30.9792 18.4405ZM32.6169 17.4442C33.2926 17.4785 33.6362 17.49 34.3119 17.5472C34.3119 16.8143 34.3119 16.4478 34.3119 15.7148C33.6362 15.669 33.2926 15.6461 32.6169 15.6117C32.6169 16.3447 32.6169 16.7112 32.6169 17.4442ZM32.6169 20.7998C33.2926 20.8342 33.6362 20.8456 34.3119 20.9029C34.3119 20.1699 34.3119 19.8034 34.3119 19.0704C33.6362 19.0246 33.2926 19.0017 32.6169 18.9674C32.6169 19.7003 32.6169 20.0668 32.6169 20.7998Z" fill="white"/>
<path id="Vector_10" d="M40.6911 23.1818C40.5308 22.4259 40.4506 22.048 40.3018 21.2807C39.6146 21.1661 39.271 21.1203 38.5953 21.0287C38.435 21.7388 38.3548 22.0938 38.2059 22.8039C37.5417 22.7123 37.1981 22.6779 36.5338 22.6092C37.1294 19.9407 37.7134 17.2722 38.309 14.5923C39.2252 14.7183 39.6948 14.787 40.611 14.9359C41.1951 17.7876 41.7906 20.6279 42.3747 23.4796C41.699 23.3536 41.3669 23.2964 40.6911 23.1818ZM39.9811 19.7117C39.7749 18.6924 39.6604 18.1884 39.4543 17.1691C39.2481 18.1197 39.1336 18.6007 38.9274 19.5513C39.3397 19.6086 39.5573 19.6429 39.9811 19.7117Z" fill="white"/>
<path id="Vector_11" d="M47.1275 24.6021C45.8104 24.2356 44.4704 23.9149 43.1305 23.64C43.1305 22.3688 43.1305 21.0975 43.1305 19.8263C42.993 19.6774 42.9243 19.6087 42.7983 19.4598C42.9358 19.3682 43.0045 19.3224 43.1305 19.2307C43.1305 17.9595 43.1305 16.6882 43.1305 15.417C43.7833 15.5544 44.1039 15.6231 44.7568 15.772C44.7568 17.0433 44.7568 18.3145 44.7568 19.5858C44.8942 19.7347 44.9629 19.8148 45.1003 19.9637C44.9629 20.0439 44.8942 20.0897 44.7568 20.1813C44.7568 21.0975 44.7568 21.5556 44.7568 22.4833C45.7073 22.7124 46.1883 22.8269 47.1275 23.0903C47.1275 23.6973 47.1275 23.9951 47.1275 24.6021Z" fill="white"/>
<path id="Vector_12" d="M51.8232 26.091C50.529 25.6329 49.2119 25.2091 47.8949 24.8197C47.8949 23.5485 47.8949 22.2772 47.8949 21.006C47.7574 20.8456 47.7002 20.7769 47.5627 20.6166C47.7002 20.5364 47.7574 20.4906 47.8949 20.4104C47.8949 19.1392 47.8949 17.8679 47.8949 16.5967C48.5362 16.7799 48.8569 16.883 49.4983 17.0777C49.4983 18.3489 49.4983 19.6202 49.4983 20.8914C49.6357 21.0518 49.7044 21.132 49.8304 21.2923C49.693 21.361 49.6357 21.4068 49.4983 21.4755C49.4983 22.3918 49.4983 22.8499 49.4983 23.7775C50.4374 24.0753 50.9069 24.2356 51.8346 24.5678C51.8232 25.1862 51.8232 25.484 51.8232 26.091Z" fill="white"/>
</g>
</g>
<g id="Group_3">
<path id="Vector_13" d="M23.7182 56.6353C23.5464 56.4407 23.4318 56.3032 23.4204 56.2803L23.3631 56.2116C23.2486 56.0742 23.1341 55.9138 23.0081 55.7535L22.9165 55.6275C22.4813 54.9976 22.1491 54.2761 22.5729 53.6233C23.2028 52.6613 24.0846 52.8216 24.4969 52.9018C24.7833 52.959 24.9894 52.9934 25.2872 52.8789C26.3065 52.4322 33.1666 45.9843 34.4837 44.5527C34.7013 44.3122 35.1365 43.8198 35.6862 43.1899C38.1829 40.3267 43.3825 34.3827 48.1353 30.1109L54.2167 24.6479C55.3964 23.5943 56.9998 23.3996 58.1221 24.1898L58.1794 24.2242L58.6375 24.6594C58.7406 24.751 58.8322 24.8541 58.9238 24.9571C59.0383 25.0831 59.1529 25.2205 59.2559 25.358L59.6339 25.8619L59.6682 25.9192C60.3325 27.1217 59.9775 28.7022 58.7978 29.7558L52.7164 35.2188C47.9521 39.4906 41.4813 44.0145 38.3662 46.179C37.679 46.66 37.1407 47.038 36.8773 47.2327C35.3083 48.3894 28.1618 54.5166 27.6006 55.4786C27.4632 55.7535 27.4746 55.9711 27.4976 56.2689C27.5319 56.7155 27.6121 57.6317 26.5355 58.1242C25.5849 58.5594 24.7603 57.7234 24.1534 57.1164C24.119 57.082 24.0961 57.0591 24.0617 57.0247L24.0045 56.9789C23.993 56.9675 23.8899 56.8759 23.7525 56.7155L23.7182 56.6353Z" fill="#003D6C"/>
<path id="Vector_14" d="M52.1437 34.5431L58.2251 29.0801C58.9924 28.393 59.4161 27.2592 58.9122 26.3544L58.5686 25.8963C58.4083 25.6901 58.2365 25.4954 58.0418 25.3122L57.6295 24.9228C56.782 24.3273 55.6138 24.6136 54.8465 25.3122L48.7651 30.7751C42.9471 35.9976 36.3962 43.8313 35.1707 45.1598C33.9453 46.4883 26.8103 53.2683 25.6306 53.715C24.451 54.1731 23.9013 53.2568 23.3401 54.1043C23.111 54.4479 23.7295 55.2038 24.1418 55.7306C24.1418 55.7306 24.2334 55.8566 24.3937 56.0284C24.5541 56.2002 24.6686 56.3147 24.6686 56.3147C25.1496 56.7843 25.7795 57.4829 26.1918 57.2882C27.1195 56.8644 26.2491 56.1773 26.8332 55.0549C27.4058 53.9326 34.9188 47.5763 36.3733 46.4997C37.8163 45.4232 46.3257 39.7541 52.1437 34.5431Z" fill="#AEB0B3"/>
<path id="Vector_15" d="M23.6035 53.8293C23.5119 53.8866 23.4202 53.9782 23.3401 54.1042C23.111 54.4478 23.7295 55.2037 24.1418 55.7305C24.1418 55.7305 24.2334 55.8565 24.3937 56.0283C24.5541 56.2001 24.6686 56.3146 24.6686 56.3146C25.1496 56.7841 25.7795 57.4828 26.1918 57.2881C26.3521 57.2193 26.4438 57.1392 26.5239 57.0476C24.8518 55.7419 23.9814 54.4592 23.6035 53.8293Z" fill="#6F7073"/>
<path id="Vector_16" d="M52.1437 34.543L58.2251 29.0801C58.9924 28.3929 59.4161 27.2591 58.9122 26.3543L58.5686 25.8962C58.4656 26.5834 57.2516 27.9577 54.2739 30.6949C50.0936 34.5201 42.9929 40.8879 40.0152 42.8921C37.0375 44.9078 34.495 47.3128 32.0785 49.5232C29.662 51.7336 27.0278 54.1386 26.2949 54.8144C25.6192 55.4328 26.2262 56.7957 25.7566 57.2538C25.9169 57.334 26.0658 57.3569 26.1918 57.2996C27.1195 56.8758 26.2491 56.1887 26.8331 55.0663C27.4058 53.944 34.9188 47.5877 36.3733 46.5111C37.8163 45.4231 46.3257 39.754 52.1437 34.543Z" fill="#6F7073"/>
<path id="Vector_17" d="M33.1781 47.1296C33.1781 47.1296 37.1064 43.7855 39.1793 41.3689C41.2637 38.9524 44.7683 35.1157 53.0142 27.5569C56.1637 24.6709 56.5875 25.0259 57.4922 24.8312C56.6562 24.3502 55.5682 24.648 54.8466 25.3008L48.7653 30.7637C42.9473 35.9861 36.3963 43.8198 35.1709 45.1483C34.8387 45.5148 34.1058 46.2363 33.1781 47.1296Z" fill="white"/>
</g>
<g id="Group_4">
<path id="Vector_18" d="M36.3162 56.6353C36.488 56.4406 36.6025 56.3032 36.614 56.2803L36.6712 56.2001C36.7857 56.0627 36.9003 55.9024 37.0262 55.742L37.1179 55.616C37.5531 54.9861 37.8852 54.2646 37.4615 53.6118C36.8316 52.6498 35.9497 52.8101 35.5374 52.8903C35.2511 52.9476 35.0449 52.9819 34.7472 52.8674C33.7279 52.4207 26.8677 45.9728 25.5506 44.5413C25.333 44.3007 24.8978 43.8083 24.3481 43.1784C21.8514 40.3152 16.6519 34.3712 11.899 30.0994L5.81759 24.6364C4.63796 23.5828 3.03458 23.3881 1.91221 24.1783L1.85495 24.2127L1.39684 24.6479C1.29376 24.7395 1.20214 24.8426 1.11052 24.9457C0.995994 25.0716 0.881467 25.2091 0.778393 25.3465L0.366095 25.8619L0.331737 25.9191C-0.332521 27.1217 0.0225131 28.7021 1.20214 29.7558L7.28354 35.2187C12.0479 39.4906 18.5187 44.0144 21.6338 46.179C22.321 46.66 22.8592 47.0379 23.1226 47.2326C24.6917 48.3894 31.8382 54.5166 32.3994 55.4786C32.5368 55.7535 32.5253 55.9711 32.5024 56.2688C32.4681 56.7155 32.3879 57.6317 33.4645 58.1242C34.415 58.5594 35.2396 57.7233 35.8466 57.1163C35.881 57.082 35.9039 57.0591 35.9382 57.0247L35.9955 56.9789C36.007 56.9675 36.11 56.8758 36.2475 56.7155L36.3162 56.6353Z" fill="#003D6C"/>
<path id="Vector_19" d="M7.89046 34.5431L1.80907 29.0801C1.04173 28.393 0.617984 27.2592 1.1219 26.3544L1.46548 25.8963C1.62582 25.6901 1.79761 25.4954 1.99231 25.3122L2.40461 24.9228C3.25211 24.3273 4.42029 24.6136 5.18762 25.3122L11.269 30.7751C17.087 35.9976 23.638 43.8313 24.8634 45.1598C26.0888 46.4883 33.2239 53.2683 34.4035 53.715C35.5831 54.1731 36.1329 53.2568 36.694 54.1043C36.9231 54.4479 36.3047 55.2038 35.8924 55.7306C35.8924 55.7306 35.8007 55.8566 35.6404 56.0284C35.4801 56.2002 35.3655 56.3147 35.3655 56.3147C34.8845 56.7843 34.2546 57.4829 33.8423 57.2882C32.9146 56.8644 33.7851 56.1773 33.201 55.0549C32.6283 53.9326 25.1154 47.5763 23.6609 46.4997C22.2178 45.4232 13.7084 39.7541 7.89046 34.5431Z" fill="#AEB0B3"/>
<path id="Vector_20" d="M36.4306 53.8293C36.5222 53.8866 36.6138 53.9782 36.694 54.1042C36.923 54.4478 36.3046 55.2037 35.8923 55.7305C35.8923 55.7305 35.8007 55.8565 35.6403 56.0283C35.48 56.2001 35.3655 56.3146 35.3655 56.3146C34.8845 56.7841 34.2546 57.4828 33.8423 57.2881C33.6819 57.2193 33.5903 57.1392 33.5101 57.0476C35.1822 55.7419 36.0526 54.4592 36.4306 53.8293Z" fill="#6F7073"/>
<path id="Vector_21" d="M7.89046 34.543L1.80907 29.0801C1.04173 28.3929 0.617984 27.2591 1.1219 26.3543L1.46548 25.8962C1.56856 26.5834 2.78255 27.9577 5.76026 30.6949C9.9405 34.5201 17.0412 40.8879 20.0189 42.8921C22.9966 44.9078 25.5391 47.3128 27.9556 49.5232C30.3722 51.7336 33.0063 54.1386 33.7393 54.8144C34.415 55.4328 33.808 56.7957 34.2775 57.2538C34.1172 57.334 33.9683 57.3569 33.8423 57.2996C32.9147 56.8758 33.7851 56.1887 33.201 55.0663C32.6283 53.944 25.1154 47.5877 23.6609 46.5111C22.2178 45.4231 13.7084 39.754 7.89046 34.543Z" fill="#6F7073"/>
<path id="Vector_22" d="M26.8561 47.1294C26.8561 47.1294 22.9278 43.7852 20.8549 41.3687C18.7705 38.9522 15.266 35.1155 7.02001 27.5567C3.87051 24.6706 3.44676 25.0257 2.54199 24.831C3.37804 24.3499 4.46605 24.6477 5.18757 25.3005L11.269 30.7635C17.0869 35.9859 23.6379 43.8196 24.8633 45.1481C25.1955 45.5146 25.9284 46.2361 26.8561 47.1294Z" fill="white"/>
</g>
<g id="Group_5">
<path id="Vector_23" d="M52.9456 44.1634C52.9456 43.1212 52.9456 42.079 52.9456 41.0368C52.0065 40.384 51.5254 40.0404 50.5749 39.3533C49.3494 39.6969 48.1354 40.0061 46.8985 40.3038C46.4175 40.4184 46.177 40.4642 45.7075 40.5673C44.6195 40.7963 44.0812 40.9108 42.9817 41.0941C42.5121 41.1743 42.2716 41.2201 41.8021 41.2888C40.9546 41.4262 40.5308 41.4835 39.6833 41.598C39.2023 41.6553 38.9504 41.6896 38.4693 41.7469C37.954 41.8042 37.702 41.8271 37.1866 41.8843C37.0263 42.2279 36.9576 42.3997 36.7972 42.7433C36.6369 42.4226 36.5682 42.2623 36.4079 41.953C35.4115 42.0332 34.9075 42.0676 33.8997 42.1134C33.8997 42.3424 33.8997 42.457 33.8997 42.686C33.8539 42.457 33.831 42.3424 33.7852 42.1248C32.6056 42.1821 32.01 42.1935 30.8304 42.205C30.7846 42.4341 30.7617 42.5486 30.7159 42.7776C30.7159 42.5486 30.7159 42.4341 30.7159 42.205C28.9865 42.2165 27.2686 42.1592 25.5392 42.0447C25.5392 42.1248 25.5392 42.1592 25.5392 42.2279C25.4591 42.1477 25.4132 42.1019 25.3216 42.0218C24.2909 41.953 23.7755 41.9072 22.7448 41.8042C22.2523 41.7583 22.0118 41.724 21.5308 41.6667C20.2366 41.5064 18.9425 41.3231 17.6598 41.0941C17.6598 41.1055 17.6598 41.1055 17.6598 41.117C17.6483 41.1055 17.6483 41.1055 17.6368 41.0941C16.5717 40.9108 16.0449 40.8078 14.9913 40.5787L14.9798 40.5902V40.5787C13.3421 40.2122 11.7272 39.7999 10.1124 39.3533C9.16184 40.0404 8.69227 40.384 7.7417 41.0368C7.7417 42.079 7.7417 43.1212 7.7417 44.1634C8.21126 44.3123 8.44032 44.3925 8.90988 44.5299C8.90988 44.7017 8.90988 44.7933 8.90988 44.9651C8.63501 45.1483 8.49758 45.2285 8.22271 45.4118C8.49758 45.7553 8.63501 45.9271 8.90988 46.2707C8.90988 47.4618 8.90988 48.6414 8.90988 49.8325C9.92917 50.1417 10.9599 50.4395 11.9907 50.7029C11.9907 50.2792 11.9907 50.0616 11.9907 49.6264C12.4717 50.1761 12.7122 50.451 13.1932 51.0007C14.3728 51.287 14.9569 51.413 16.1365 51.6535C16.4114 51.4588 16.5603 51.3672 16.8352 51.1725C17.11 51.4703 17.2475 51.6191 17.5338 51.9169C18.702 52.1231 19.286 52.2147 20.4542 52.375C20.4657 52.3636 20.4771 52.3636 20.4886 52.3521C20.4886 52.3636 20.4886 52.375 20.4886 52.3865C21.9774 52.5926 23.4777 52.7415 24.978 52.856C25.6996 52.9133 26.066 52.9362 26.7876 52.9706C27.7496 53.0164 28.2306 53.0278 29.1926 53.0507C29.4331 53.0507 29.5591 53.0507 29.7996 53.0622C30.8533 53.0736 31.3687 53.0622 32.4223 53.0393C32.4796 52.7759 32.5025 52.6499 32.5483 52.3865C32.6056 52.6499 32.6285 52.7759 32.6743 53.0278C33.3385 53.0049 33.6707 52.9935 34.3235 52.9591C34.9534 52.9247 35.2626 52.9018 35.8925 52.856C36.5224 52.8102 36.8431 52.7759 37.473 52.7186C37.5417 52.7071 37.5875 52.7071 37.6447 52.7071C38.3663 52.6384 38.7213 52.5926 39.4428 52.501C39.9811 52.4323 40.256 52.3979 40.8057 52.3178C41.7563 52.1803 42.2258 52.1002 43.1764 51.9398C43.7147 51.8482 43.9896 51.7909 44.5164 51.6879C45.6502 51.4703 46.7955 51.2183 47.9178 50.932C48.2385 50.8518 48.3988 50.806 48.7195 50.7258C49.7503 50.4624 50.781 50.1646 51.8003 49.8554C51.8003 48.6643 51.8003 47.4847 51.8003 46.2936C52.0752 45.95 52.2012 45.7782 52.476 45.4347C52.2012 45.2629 52.0752 45.1713 51.8003 44.988C51.8003 44.8162 51.8003 44.7246 51.8003 44.5414C52.247 44.3925 52.476 44.3123 52.9456 44.1634Z" fill="#003D6C"/>
<g id="Group_6">
<path id="Vector_24" d="M12.1969 44.4955C11.7273 44.3696 11.4868 44.3123 11.0172 44.1863C11.0172 44.9078 11.0172 45.2743 11.0172 46.0073C11.1203 46.1333 11.1661 46.1905 11.2577 46.3051C11.1547 46.3738 11.1089 46.4081 11.0172 46.4654C11.0172 47.6679 11.0172 48.2749 11.0172 49.4889C10.5477 49.3629 10.3072 49.2942 9.83761 49.1568C9.83761 47.9543 9.83761 47.3473 9.83761 46.1333C9.73454 46.0073 9.68873 45.95 9.58565 45.824C9.68873 45.7553 9.73454 45.721 9.83761 45.6637C9.83761 44.9422 9.83761 44.5757 9.83761 43.8427C9.36805 43.7053 9.139 43.6366 8.66943 43.4877C8.66943 43.0067 8.66943 42.7662 8.66943 42.2852C9.83761 42.6402 11.0172 42.9723 12.1969 43.2815C12.1969 43.7855 12.1969 44.026 12.1969 44.4955Z" fill="white"/>
<path id="Vector_25" d="M16.5261 50.0958C16.2168 50.3134 16.0679 50.4165 15.7587 50.6226C14.8654 50.4394 14.4188 50.3477 13.5369 50.1301C13.2277 49.7866 13.0788 49.6148 12.781 49.2712C12.781 48.3321 12.781 47.8625 12.781 46.9348C12.6779 46.8203 12.6321 46.763 12.5291 46.6371C12.6321 46.5683 12.6779 46.534 12.781 46.4653C12.781 45.5262 12.781 45.068 12.781 44.1289C13.0788 43.9342 13.2391 43.8311 13.5369 43.625C14.4188 43.8311 14.8654 43.9342 15.7587 44.1175C16.0679 44.4496 16.2168 44.6214 16.5261 44.9535C16.5261 45.8926 16.5261 46.3507 16.5261 47.2899C16.6291 47.4044 16.6749 47.4617 16.778 47.5762C16.6749 47.6449 16.6291 47.6907 16.5261 47.7594C16.5261 48.6871 16.5261 49.1567 16.5261 50.0958ZM15.335 47.5189C15.2319 47.4044 15.1861 47.3471 15.083 47.2326C15.1861 47.1639 15.2319 47.1181 15.335 47.0494C15.335 46.3278 15.335 45.9614 15.335 45.2284C14.7852 45.1139 14.5218 45.0566 13.9721 44.9306C13.9721 45.6521 13.9721 46.0186 13.9721 46.7516C14.0752 46.8661 14.121 46.9234 14.2241 47.0494C14.121 47.1181 14.0752 47.1524 13.9721 47.2212C13.9721 47.9427 13.9721 48.3092 13.9721 49.0421C14.5218 49.1681 14.7852 49.2254 15.335 49.3399C15.335 48.6069 15.335 48.2404 15.335 47.5189Z" fill="white"/>
<path id="Vector_26" d="M20.8666 50.7832C20.5459 51.0122 20.397 51.1267 20.0764 51.3558C19.1945 51.2298 18.7593 51.1611 17.8774 51.0122C17.5682 50.6915 17.4193 50.5197 17.1101 50.1991C17.1101 49.2599 17.1101 48.7904 17.1101 47.8627C17.007 47.7482 16.9612 47.6909 16.8582 47.5878C16.9612 47.5077 17.007 47.4733 17.1101 47.3931C17.1101 46.1906 17.1101 45.5836 17.1101 44.3696C17.5911 44.4613 17.8316 44.4956 18.3126 44.5758C18.3126 45.7783 18.3126 46.3853 18.3126 47.5993C18.4157 47.7138 18.4615 47.7711 18.5646 47.8742C18.4615 47.9543 18.4157 47.9887 18.3126 48.0689C18.3126 48.7904 18.3126 49.1569 18.3126 49.8898C18.8509 49.9815 19.1258 50.0273 19.6641 50.1074C19.6641 49.3859 19.6641 49.0194 19.6641 48.2865C19.561 48.1834 19.5152 48.1261 19.4121 48.0116C19.5152 47.9314 19.561 47.8971 19.6641 47.8169C19.6641 46.6144 19.6641 46.0074 19.6641 44.7934C20.1451 44.8621 20.3856 44.8965 20.8666 44.9652C20.8666 46.1677 20.8666 46.7747 20.8666 47.9887C20.9697 48.0918 21.0155 48.149 21.1186 48.2521C21.0155 48.3323 20.9697 48.3666 20.8666 48.4468C20.8666 49.3859 20.8666 49.8555 20.8666 50.7832Z" fill="white"/>
<path id="Vector_27" d="M21.4392 48.5268C21.3361 48.4237 21.2903 48.3664 21.1873 48.2634C21.2903 48.1832 21.3361 48.1374 21.4392 48.0572C21.4392 48.2405 21.4392 48.3435 21.4392 48.5268ZM25.3446 51.9168C24.8292 51.8824 24.5658 51.8595 24.039 51.8137C23.6267 50.7142 23.4205 50.1645 23.0082 49.0651C22.8594 49.0536 22.7906 49.0421 22.6532 49.0307C22.6532 50.0958 22.6532 50.6226 22.6532 51.6763C22.1722 51.6305 21.9202 51.5961 21.4392 51.5388C21.4392 49.3743 21.4392 47.1983 21.4392 45.0337C22.5959 45.1711 23.18 45.2398 24.3482 45.3315C24.6574 45.6292 24.8178 45.7781 25.127 46.0759C25.127 47.0265 25.127 47.5075 25.127 48.4695C24.7949 48.7558 24.6345 48.8933 24.3024 49.1681C24.7147 50.2676 24.9208 50.8173 25.3446 51.9168ZM22.6532 47.8282C23.1571 47.8854 23.4091 47.9083 23.913 47.9541C23.913 47.37 23.913 47.0837 23.913 46.4996C23.4091 46.4538 23.1571 46.4309 22.6532 46.3737C22.6532 46.9577 22.6532 47.2441 22.6532 47.8282Z" fill="white"/>
<path id="Vector_28" d="M28.4712 52.0657C28.0246 50.9204 27.5894 49.7637 27.1427 48.607C27.1427 49.7408 27.1427 50.8746 27.1427 52.0084C26.6617 51.9855 26.4212 51.9741 25.9287 51.9512C25.9287 50.7486 25.9287 50.1416 25.9287 48.9276C25.8256 48.8246 25.7798 48.7788 25.6768 48.6757C25.7798 48.5841 25.8256 48.5383 25.9287 48.4581C25.9287 47.2556 25.9287 46.6486 25.9287 45.4346C26.4441 45.4689 26.7075 45.4804 27.2343 45.5033C27.681 46.66 28.1162 47.8053 28.5628 48.962C28.5628 47.8282 28.5628 46.6829 28.5628 45.5491C29.0439 45.5606 29.2844 45.5606 29.7654 45.572C29.7654 46.7745 29.7654 47.3815 29.7654 48.5955C29.8685 48.6871 29.9143 48.733 30.0173 48.836C29.9143 48.9277 29.8685 48.9735 29.7654 49.0651C29.7654 50.2676 29.7654 50.8746 29.7654 52.0771C29.7654 52.0771 29.7654 52.0771 29.7654 52.0886C29.25 52.0771 28.9866 52.0771 28.4712 52.0657Z" fill="white"/>
<path id="Vector_29" d="M33.4645 52.0201C33.35 51.4474 33.2927 51.1611 33.1668 50.5885C32.6628 50.6114 32.3994 50.6114 31.8955 50.6228C31.781 51.2069 31.7237 51.4932 31.5977 52.0773C31.1053 52.0888 30.8533 52.0888 30.3608 52.0888C30.796 49.9128 31.2427 47.7482 31.6779 45.5722C32.3651 45.5607 32.7086 45.5493 33.3844 45.5264C33.8196 47.668 34.2548 49.8211 34.7014 51.9628C34.209 51.9857 33.957 51.9972 33.4645 52.0201ZM32.9262 49.3974C32.7659 48.6301 32.6857 48.2407 32.5369 47.4619C32.3765 48.2407 32.2964 48.6415 32.1475 49.4203C32.4567 49.4088 32.6056 49.4088 32.9262 49.3974Z" fill="white"/>
<path id="Vector_30" d="M39.8207 51.4702C39.3397 51.5389 39.0877 51.5618 38.6067 51.6191C38.6067 50.3937 38.6067 49.1797 38.6067 47.9542C38.1829 48.8933 37.9768 49.3629 37.553 50.302C37.1293 49.4545 36.9231 49.0193 36.4994 48.1604C36.4994 49.3858 36.4994 50.5998 36.4994 51.8252C36.0184 51.8711 35.7664 51.8825 35.2854 51.9169C35.2854 50.7143 35.2854 50.1073 35.2854 48.8933C35.1823 48.8132 35.1365 48.7674 35.0334 48.6757C35.1365 48.5727 35.1823 48.5269 35.2854 48.4238C35.2854 47.2213 35.2854 46.6143 35.2854 45.4003C35.7664 45.3659 36.0184 45.3545 36.4994 45.3086C36.9231 46.1676 37.1293 46.5914 37.553 47.4503C37.9768 46.5112 38.1829 46.0416 38.6067 45.1025C39.0877 45.0452 39.3397 45.0223 39.8207 44.9536C39.8207 46.1561 39.8207 46.7631 39.8207 47.9771C39.9238 48.0573 39.9696 48.1031 40.0726 48.1833C39.9696 48.2864 39.9238 48.3436 39.8207 48.4467C39.8207 49.6607 39.8207 50.2677 39.8207 51.4702Z" fill="white"/>
<path id="Vector_31" d="M43.543 50.8862C42.5008 51.0809 41.4471 51.2527 40.4049 51.3901C40.4049 50.1876 40.4049 49.5806 40.4049 48.3666C40.3018 48.2865 40.256 48.2521 40.153 48.1719C40.256 48.0689 40.3018 48.0116 40.4049 47.8971C40.4049 46.6945 40.4049 46.0875 40.4049 44.8735C41.4471 44.7361 42.4893 44.5643 43.5201 44.3696C43.5201 44.8506 43.5201 45.0912 43.5201 45.5722C42.7527 45.7096 42.3748 45.7783 41.6074 45.8928C41.6074 46.4769 41.6074 46.7632 41.6074 47.3473C42.2717 47.2443 42.5924 47.187 43.2566 47.0725C43.2566 47.5535 43.2566 47.794 43.2566 48.275C42.6038 48.3895 42.2717 48.4468 41.6074 48.5499C41.6074 49.134 41.6074 49.4203 41.6074 50.0044C42.3862 49.8784 42.7756 49.8211 43.543 49.6722C43.543 50.1647 43.543 50.4052 43.543 50.8862Z" fill="white"/>
<path id="Vector_32" d="M46.6237 50.2562C46.1884 49.214 45.7532 48.1718 45.318 47.1296C45.318 48.2634 45.318 49.3973 45.318 50.5311C44.837 50.6342 44.608 50.68 44.127 50.7716C44.127 49.5691 44.127 48.9621 44.127 47.7481C44.0239 47.6794 43.9781 47.6335 43.875 47.5648C43.9781 47.4503 44.0239 47.393 44.127 47.2785C44.127 46.076 44.127 45.469 44.127 44.255C44.6423 44.1519 44.8943 44.1061 45.4097 43.9916C45.8449 45.0338 46.2801 46.076 46.7153 47.1182C46.7153 45.9844 46.7153 44.8391 46.7153 43.7053C47.1848 43.5907 47.4253 43.5449 47.8949 43.4189C47.8949 44.6215 47.8949 45.2285 47.8949 46.4425C47.998 46.5112 48.0438 46.5455 48.1469 46.6143C48.0438 46.7288 47.998 46.786 47.8949 46.912C47.8949 48.1146 47.8949 48.7216 47.8949 49.9241C47.8949 49.9241 47.8949 49.9241 47.8949 49.9355C47.391 50.073 47.1276 50.1302 46.6237 50.2562Z" fill="white"/>
<path id="Vector_33" d="M51.9951 43.4991C51.5255 43.648 51.2965 43.7167 50.8269 43.8542C50.8269 44.5757 50.8269 44.9422 50.8269 45.6752C50.93 45.7439 50.9758 45.7782 51.0674 45.8355C50.9643 45.9615 50.9185 46.0187 50.8269 46.1333C50.8269 47.3358 50.8269 47.9428 50.8269 49.1568C50.3573 49.2942 50.1168 49.3629 49.6473 49.4889C49.6473 48.2864 49.6473 47.6794 49.6473 46.4654C49.5442 46.3967 49.4984 46.3623 49.3953 46.3051C49.4984 46.1791 49.5442 46.1218 49.6473 45.9958C49.6473 45.2743 49.6473 44.9078 49.6473 44.1749C49.1777 44.3008 48.9372 44.3696 48.4677 44.4841C48.4677 44.0031 48.4677 43.7626 48.4677 43.2815C49.6473 42.9723 50.8269 42.6402 51.9951 42.2852C51.9951 42.7776 51.9951 43.0181 51.9951 43.4991Z" fill="white"/>
</g>
</g>
<g id="Group_7">
<path id="Vector_34" d="M30.4 12.387C33.4837 11.8088 35.5147 8.84028 34.9365 5.75665C34.3583 2.67302 31.3898 0.641964 28.3062 1.22016C25.2226 1.79837 23.1915 4.76687 23.7697 7.8505C24.3479 10.9341 27.3164 12.9652 30.4 12.387Z" fill="#003D6C"/>
<path id="Vector_35" d="M32.7504 10.2037C34.6288 8.32528 34.6288 5.2797 32.7504 3.40124C30.8719 1.52278 27.8263 1.52278 25.9479 3.40124C24.0694 5.2797 24.0694 8.32528 25.9479 10.2037C27.8263 12.0822 30.8719 12.0822 32.7504 10.2037Z" fill="#C4DBE7"/>
<path id="Vector_36" d="M27.7268 2.28072C26.2265 2.819 25.15 4.03298 24.7377 5.45312C24.7606 5.54474 24.7949 5.62491 24.8178 5.71653C25.7112 8.22468 28.4713 9.51884 30.9679 8.62552C32.4683 8.08725 33.5448 6.87326 33.9571 5.45312C33.9342 5.3615 33.8998 5.28133 33.8769 5.18971C32.9836 2.68156 30.2235 1.37595 27.7268 2.28072Z" fill="white"/>
<path id="Vector_37" d="M33.1438 3.84992C32.8919 3.52924 32.6056 3.24293 32.2963 3.00242C31.4259 4.09043 30.5441 5.63654 30.567 7.48043C30.5784 8.68297 30.9793 9.85115 31.7695 10.9735C32.1131 10.7674 32.4338 10.5269 32.7086 10.252C32.0787 9.34723 31.7581 8.4081 31.7466 7.46898C31.7237 6.02594 32.4223 4.76614 33.1438 3.84992ZM25.5621 3.83847C26.2837 4.76614 26.9823 6.02594 26.9594 7.45753C26.9479 8.4081 26.6158 9.33577 25.9859 10.252C26.2722 10.5269 26.5929 10.7674 26.925 10.9621C27.7152 9.85115 28.1161 8.67152 28.139 7.46898C28.1619 5.62509 27.28 4.06752 26.4096 2.99097C26.089 3.24293 25.8026 3.52924 25.5621 3.83847Z" fill="#C4DBE7"/>
<path id="Vector_38" d="M28.0131 8.91191C27.7268 8.98062 27.4634 9.04934 27.1771 9.0837L27.2229 9.38147C27.4977 9.34711 27.7841 9.3013 28.0704 9.24404C28.1505 9.22113 28.2078 9.12951 28.1964 9.03789C28.1849 8.93481 28.0933 8.889 28.0131 8.91191ZM26.5128 6.43812C26.4899 6.50684 26.5243 6.57555 26.6044 6.587C26.7419 6.62136 26.8678 6.65572 27.0053 6.69008C27.1427 6.72444 27.2687 6.77025 27.3947 6.82751C27.429 6.73589 27.4748 6.64427 27.4977 6.55265C27.2229 6.46102 26.9595 6.39231 26.6961 6.33504C26.6159 6.32359 26.5357 6.3694 26.5128 6.43812ZM26.3525 9.0837C26.5472 9.27839 26.7304 9.48454 26.9022 9.70214C26.9824 9.64488 27.0625 9.58762 27.1427 9.5189C26.9595 9.3013 26.7648 9.09515 26.5701 8.91191C26.5128 8.85464 26.4212 8.85464 26.3639 8.90045C26.2952 8.94626 26.2952 9.02643 26.3525 9.0837ZM26.4899 5.64788C26.4097 5.64788 26.3296 5.69369 26.3181 5.77386C26.3067 5.84258 26.3525 5.91129 26.4326 5.91129C26.5701 5.92275 26.7075 5.94565 26.8449 5.96856C26.9824 5.99146 27.1198 6.01437 27.2572 6.04873C27.2801 5.9571 27.303 5.85403 27.326 5.76241C27.0396 5.70514 26.7648 5.67079 26.4899 5.64788ZM27.7268 9.78231C27.4405 9.81667 27.1542 9.82812 26.8678 9.83958C26.8678 9.94265 26.8793 10.0457 26.8678 10.1373C27.1542 10.1488 27.429 10.1373 27.7153 10.1144C27.7955 10.103 27.8757 10.0228 27.8757 9.9312C27.8871 9.83958 27.807 9.77086 27.7268 9.78231ZM26.8678 4.57133C27.0282 4.34227 27.1885 4.10176 27.326 3.8498C27.3718 3.78109 27.3374 3.67801 27.2687 3.6322C27.1885 3.58639 27.0969 3.6093 27.0625 3.67801C26.9251 3.92997 26.7762 4.17048 26.6273 4.39953L26.8678 4.57133ZM26.5128 4.02159C26.2379 4.0445 25.9516 4.09031 25.6882 4.13612C25.608 4.14757 25.5508 4.22774 25.5508 4.29646C25.5508 4.37663 25.6195 4.42244 25.6997 4.41099C25.9745 4.36518 26.2494 4.34227 26.5243 4.31937L26.5128 4.02159ZM26.9022 5.02943L26.9137 4.73166C26.6388 4.72021 26.3525 4.74312 26.0776 4.75457C25.9974 4.76602 25.9287 4.82329 25.9287 4.90345C25.9287 4.98362 25.986 5.02943 26.0662 5.02943C26.341 5.01798 26.6159 5.01798 26.9022 5.02943ZM26.2723 9.58762C26.215 9.5189 26.1234 9.50745 26.0662 9.54181C26.0089 9.57616 25.986 9.65633 26.0432 9.72505C26.2036 9.94265 26.3639 10.1717 26.5128 10.4122L26.7648 10.2633C26.6159 10.0228 26.4555 9.80522 26.2723 9.58762ZM26.8335 3.10538C26.8678 3.02521 26.8335 2.93359 26.7533 2.88778C26.6731 2.85342 26.5815 2.87632 26.5472 2.95649C26.4326 3.2199 26.3067 3.47186 26.1807 3.72382C26.2723 3.76964 26.3525 3.81545 26.4441 3.86126C26.5815 3.6093 26.719 3.35734 26.8335 3.10538ZM27.1656 10.8474C26.9938 10.836 26.822 10.8245 26.6617 10.8016C26.8449 10.9276 27.0282 11.0307 27.2343 11.1337C27.2687 11.1108 27.303 11.065 27.3145 11.0192C27.3145 10.9161 27.2572 10.8474 27.1656 10.8474ZM27.4634 8.4767C27.2343 8.30491 27.0167 8.14457 26.7877 7.99569C26.719 7.94988 26.6273 7.96133 26.5815 8.01859C26.5357 8.07586 26.5472 8.14457 26.6159 8.19039C26.7304 8.27055 26.8449 8.35072 26.9595 8.43089C27.0625 8.51106 27.1771 8.60268 27.2801 8.6943C27.326 8.62559 27.4061 8.54542 27.4634 8.4767ZM28.4025 7.77809C28.3681 7.68647 28.2765 7.65211 28.2078 7.69792C27.9444 7.8239 27.6924 7.93843 27.429 8.0415L27.5206 8.31637C27.7841 8.2362 28.0704 8.13312 28.3223 8.00714C28.4025 7.97278 28.4369 7.86971 28.4025 7.77809ZM27.303 5.57917C27.4061 5.47609 27.4977 5.37302 27.5894 5.26994C27.681 5.16687 27.7726 5.05234 27.8642 4.93781C27.9215 4.8691 27.91 4.76602 27.8413 4.70876C27.7726 4.65149 27.681 4.66295 27.6237 4.73166C27.4519 4.96072 27.2687 5.17832 27.0854 5.38447C27.1542 5.44173 27.2229 5.51045 27.303 5.57917ZM27.5092 6.39231C27.6237 6.30069 27.7383 6.22052 27.8413 6.11744C27.9444 6.02582 28.0475 5.92275 28.1505 5.81967C28.2078 5.76241 28.2078 5.64788 28.1505 5.57917C28.0933 5.51045 27.9902 5.51045 27.9329 5.56771C27.7382 5.77386 27.5206 5.96856 27.3145 6.1518C27.3947 6.23197 27.4519 6.31214 27.5092 6.39231ZM26.822 7.28562C26.7533 7.25126 26.6617 7.28562 26.6159 7.34288C26.5815 7.40015 26.6044 7.48032 26.6846 7.51467C26.9251 7.6292 27.1656 7.75518 27.4061 7.90407L27.5665 7.65211C27.326 7.51467 27.0625 7.38869 26.822 7.28562ZM27.4634 7.22836L27.6008 7.49177C27.8528 7.36579 28.0933 7.22836 28.3452 7.06802C28.414 7.02221 28.4369 6.91913 28.3911 6.82751C28.3452 6.74734 28.2536 6.72444 28.1849 6.77025C27.9444 6.94204 27.7153 7.09092 27.4634 7.22836Z" fill="#ED232F"/>
<path id="Vector_39" d="M30.5097 9.02636C30.4982 9.11799 30.5441 9.20961 30.6357 9.23251C30.922 9.30123 31.2083 9.34704 31.4832 9.36995L31.529 9.07217C31.2427 9.03782 30.9793 8.9691 30.6929 8.90038C30.6013 8.88893 30.5212 8.93474 30.5097 9.02636ZM31.9986 6.34643C31.7351 6.40369 31.4717 6.47241 31.1969 6.56403C31.2198 6.65565 31.2656 6.74727 31.2999 6.83889C31.4259 6.79308 31.5634 6.74727 31.6893 6.70146C31.8268 6.6671 31.9527 6.62129 32.0902 6.59839C32.1703 6.57548 32.2047 6.51822 32.1818 6.4495C32.1589 6.36933 32.0787 6.32352 31.9986 6.34643ZM32.3536 8.90038C32.2963 8.85457 32.2047 8.86603 32.1474 8.91184C31.9527 9.09508 31.758 9.30123 31.5748 9.51883C31.655 9.57609 31.7351 9.64481 31.8153 9.70207C31.9871 9.48447 32.1589 9.27832 32.365 9.08363C32.4109 9.02636 32.4108 8.94619 32.3536 8.90038ZM31.3801 5.75089C31.3916 5.84251 31.4259 5.94558 31.4488 6.0372C31.5863 6.00285 31.7237 5.97994 31.8611 5.95704C31.9986 5.93413 32.136 5.92268 32.2734 5.89977C32.3536 5.88832 32.4108 5.83106 32.3879 5.76234C32.365 5.69362 32.2963 5.63636 32.2162 5.63636C31.9413 5.67072 31.6664 5.70508 31.3801 5.75089ZM30.8189 9.91968C30.8189 10.0113 30.8876 10.0915 30.9793 10.1029C31.2656 10.1258 31.5404 10.1373 31.8268 10.1258C31.8153 10.0342 31.8268 9.93113 31.8268 9.82805C31.5519 9.82805 31.2656 9.80515 30.9678 9.77079C30.8876 9.77079 30.8189 9.83951 30.8189 9.91968ZM32.0787 4.41092C31.9184 4.18186 31.7809 3.94136 31.6435 3.6894C31.5977 3.60923 31.5061 3.58632 31.4374 3.64359C31.3572 3.6894 31.3343 3.79247 31.3801 3.86119C31.5175 4.11315 31.6779 4.35365 31.8382 4.58271L32.0787 4.41092ZM32.1818 4.30784C32.4681 4.33075 32.7315 4.35365 33.0064 4.39947C33.0866 4.41092 33.1553 4.36511 33.1553 4.28494C33.1553 4.20477 33.098 4.13605 33.0178 4.1246C32.743 4.07879 32.4681 4.04443 32.1932 4.01007L32.1818 4.30784ZM32.6285 5.04082C32.7086 5.04082 32.7773 4.99501 32.7659 4.91484C32.7659 4.83467 32.6972 4.7774 32.617 4.76595C32.3421 4.74305 32.0558 4.73159 31.781 4.74305L31.7924 5.04082C32.0902 5.01791 32.365 5.01791 32.6285 5.04082ZM31.9413 10.2633L32.1932 10.4121C32.3421 10.1716 32.5025 9.94258 32.6628 9.72498C32.7086 9.65626 32.6972 9.57609 32.6399 9.54174C32.5826 9.50738 32.491 9.51883 32.4338 9.58755C32.2505 9.80515 32.0902 10.0228 31.9413 10.2633ZM32.262 3.86119C32.3536 3.81538 32.4338 3.76957 32.5254 3.72375C32.3994 3.48325 32.2734 3.21984 32.1589 2.95642C32.1245 2.87625 32.0329 2.8419 31.9527 2.88771C31.8726 2.93352 31.8382 3.02514 31.8726 3.10531C31.9871 3.35727 32.1245 3.60923 32.262 3.86119ZM31.3916 11.0077C31.403 11.0535 31.4259 11.0993 31.4717 11.1222C31.6664 11.0306 31.8611 10.9161 32.0444 10.7901C31.8726 10.813 31.7008 10.8244 31.5404 10.8359C31.4488 10.8473 31.3916 10.9161 31.3916 11.0077ZM31.4374 8.69423C31.5404 8.60261 31.6435 8.51099 31.758 8.43082C31.8726 8.35065 31.9871 8.27048 32.1016 8.19032C32.1703 8.1445 32.1818 8.06434 32.136 8.01852C32.0902 7.96126 31.9871 7.94981 31.9298 7.99562C31.7008 8.13305 31.4717 8.29339 31.2541 8.47663C31.2999 8.54535 31.3801 8.62552 31.4374 8.69423ZM30.3837 8.00707C30.6357 8.13305 30.922 8.22467 31.1854 8.31629L31.277 8.04143C31.0136 7.94981 30.7617 7.83528 30.4982 7.69785C30.4181 7.66349 30.3265 7.69785 30.3036 7.77802C30.2692 7.86964 30.3035 7.97271 30.3837 8.00707ZM31.6206 5.3844C31.4374 5.17825 31.2541 4.96065 31.0823 4.73159C31.0365 4.66288 30.9334 4.65143 30.8647 4.70869C30.796 4.76595 30.7846 4.88048 30.8418 4.93774C30.9334 5.05227 31.0251 5.15534 31.1167 5.26987C31.2083 5.37295 31.3114 5.48747 31.403 5.5791C31.4717 5.51038 31.5404 5.44166 31.6206 5.3844ZM31.3801 6.16318C31.174 5.97994 30.9564 5.78524 30.7617 5.5791C30.7044 5.52183 30.6013 5.52183 30.5441 5.59055C30.4868 5.65926 30.4868 5.77379 30.5441 5.83105C30.6471 5.93413 30.7502 6.02575 30.8533 6.12883C30.9564 6.22045 31.0709 6.31207 31.1854 6.40369C31.2541 6.31207 31.3114 6.2319 31.3801 6.16318ZM31.1396 7.65204L31.2999 7.904C31.5404 7.75511 31.781 7.61768 32.0215 7.5146C32.1016 7.48025 32.1245 7.41153 32.0902 7.34281C32.0558 7.28555 31.9642 7.25119 31.884 7.28555C31.6321 7.38862 31.3687 7.5146 31.1396 7.65204ZM30.5212 6.77018C30.4524 6.72437 30.3608 6.73582 30.315 6.82744C30.2692 6.90761 30.2921 7.01068 30.3608 7.06795C30.6128 7.22829 30.8533 7.37717 31.1052 7.4917L31.2427 7.22829C30.9907 7.09085 30.7617 6.94197 30.5212 6.77018Z" fill="#ED232F"/>
<g id="Group_8">
<path id="Vector_40" d="M25.3445 3.09385C26.192 4.02152 27.3029 5.60199 27.28 7.46879C27.2685 8.64842 26.799 9.80514 25.8942 10.9046C26.0546 10.9962 26.2149 11.0878 26.3752 11.168C27.3144 9.98838 27.7954 8.75149 27.8183 7.46879C27.8412 5.4302 26.6959 3.75811 25.7911 2.76172C25.6308 2.87625 25.4934 2.97932 25.3445 3.09385Z" fill="#003D6C"/>
<path id="Vector_41" d="M33.3501 3.09385C32.5026 4.02152 31.3917 5.60199 31.4146 7.46879C31.426 8.64842 31.8956 9.80514 32.8004 10.9046C32.64 10.9962 32.4797 11.0878 32.3194 11.168C31.3802 9.98838 30.8992 8.75149 30.8763 7.46879C30.8534 5.4302 31.9987 3.75811 32.9034 2.76172C33.0638 2.87625 33.2127 2.97932 33.3501 3.09385Z" fill="#003D6C"/>
</g>
</g>
<g id="Group_9">
<path id="Vector_42" d="M40.2559 34.2455V34.0851C40.2444 33.5125 40.2215 32.9055 40.1299 32.2985C40.0612 31.8633 39.9466 31.4395 39.8092 31.0272L39.7978 30.9929L39.7863 30.9585C39.5573 30.4202 39.3397 29.9965 39.0877 29.6186C38.7327 29.0688 38.286 28.5191 37.6905 27.8663C35.6977 25.7246 33.4301 24.3159 30.9448 23.6975C29.9026 23.4341 28.8833 23.3081 27.9327 23.3081C26.8104 23.3081 25.8025 23.4913 24.9207 23.8578L24.8863 23.8693L24.852 23.8922C24.1075 24.2816 23.4318 24.8199 22.779 25.507C22.1835 26.1369 21.5078 26.8928 20.9695 27.7289L20.7175 28.1297L20.603 28.1412C20.5114 28.1526 20.4083 28.1641 20.2709 28.1641C20.1105 28.1641 19.9273 28.1526 19.7555 28.1412L19.5608 28.1297C19.2974 28.1182 19.0454 28.0953 18.782 28.0724C18.5644 28.061 18.3468 28.0381 18.1178 28.0266C17.8085 28.0037 17.5451 28.0037 17.2817 28.0037H17.1443C16.9267 28.0037 16.7434 28.0152 16.5831 28.0381C15.7585 28.1641 15.5524 29.2635 16.2739 29.6873C19.1027 32.2756 22.7676 34.234 22.7676 34.234C22.653 34.3485 22.5271 34.4631 22.4125 34.6005C21.8284 35.2304 21.6452 35.9748 21.5536 36.4787C21.336 37.75 21.4505 38.9754 21.8857 40.0405C22.2064 40.8193 22.7218 41.5179 23.4776 42.1707L23.7181 42.3998H23.8098C24.5656 42.8808 25.3788 43.2473 26.1003 43.5451L26.1118 43.5565L26.1576 43.5794C26.7073 43.7741 27.257 43.9459 27.7953 44.0948C28.2649 44.2208 28.7344 44.278 29.1925 44.278C30.0057 44.278 30.7959 44.0833 31.506 43.7054C31.5633 43.6825 31.6091 43.6481 31.6549 43.6252L31.6892 43.6023C31.7351 43.5794 31.7694 43.5565 31.8152 43.5222C31.9985 43.4076 32.1817 43.2816 32.3535 43.1442L33.075 43.064C33.7507 42.9839 34.3234 42.8923 34.8616 42.7777C35.4228 42.6518 35.9955 42.5143 36.5452 42.3425C36.8086 42.2624 37.072 42.1593 37.3927 42.0219L37.5759 41.9417L37.7134 41.7928C38.3776 41.0598 38.9045 40.1436 39.3511 38.9983C39.7405 37.9905 40.1184 36.9025 40.233 35.7572C40.2788 35.2418 40.2673 34.7379 40.2559 34.2455Z" fill="#003D6C"/>
<path id="Vector_43" d="M39.3624 34.0965C39.351 33.5468 39.3395 32.9856 39.2479 32.4359C39.1906 32.058 39.0876 31.68 38.9616 31.3021C38.7783 30.8898 38.5836 30.4889 38.3317 30.0995C37.9537 29.5155 37.4956 28.9772 37.0261 28.4733C35.2967 26.6179 33.1894 25.1749 30.7156 24.5564C29.0092 24.1327 26.9362 23.9723 25.2412 24.671C24.5541 25.0374 23.9471 25.5299 23.4088 26.114C22.8018 26.7668 22.1833 27.454 21.7023 28.2098C22.6186 28.8168 25.1152 30.2255 25.7795 31.554C25.791 31.554 25.7795 31.5769 25.7795 31.5769C25.1496 31.0272 22.9392 29.5384 20.6945 29.023C20.3051 29.0688 19.8814 29.0344 19.5034 29.0115C19.0224 28.9886 18.5414 28.9428 18.0604 28.9085C17.797 28.897 17.545 28.8856 17.2816 28.8856C17.1212 28.8856 17.064 29.1032 17.2014 29.1833C18.026 29.63 18.8735 30.0423 19.7325 30.3973C21.2557 31.0272 22.8247 31.5311 24.4281 31.9434C24.4624 31.9549 24.5083 31.9663 24.5541 31.9778C24.6457 32.0007 24.7373 32.0236 24.8404 32.0465C24.8518 32.0465 24.8633 32.0465 24.8747 32.058C25.8368 32.2985 26.8102 32.5046 27.7837 32.6879C29.1008 32.9398 30.5553 33.1574 31.7006 33.8789C32.6626 34.4745 33.3039 35.4022 33.659 36.4673C33.659 36.4787 33.6475 36.4787 33.6361 36.4673C33.6246 36.4443 33.6132 36.4214 33.6017 36.3985C33.0749 35.677 31.2997 34.1882 28.9748 33.7644C27.2913 33.4666 25.6306 33.1345 24.7717 32.9169C24.68 33.1574 24.5541 33.3865 24.4166 33.6155C24.3823 33.6728 24.3479 33.7186 24.3136 33.7759C24.1876 33.9591 24.0501 34.1424 23.9242 34.3027C23.6722 34.6234 23.3515 34.8868 23.0767 35.196C22.6987 35.5968 22.5384 36.0893 22.4468 36.6276C22.275 37.6469 22.3322 38.7349 22.7216 39.6969C23.0194 40.4299 23.5004 41.0025 24.0845 41.5065C24.806 42.0104 25.6421 42.3769 26.4667 42.7319H26.4781C26.9935 42.9151 27.5089 43.0869 28.0357 43.2129C29.1008 43.4878 30.1544 43.4076 31.1165 42.8922C31.1623 42.8693 31.2081 42.835 31.2654 42.8121C31.2997 42.7892 31.3341 42.7777 31.357 42.7548C31.5517 42.6403 31.7349 42.5028 31.9067 42.354C31.9411 42.3196 31.9754 42.2967 32.0098 42.2623C32.571 41.7699 33.0062 41.1514 33.3383 40.4757C33.7964 39.5366 34.2774 38.1852 33.8308 37.1659C33.8193 37.143 33.8537 37.1201 33.8651 37.143C33.888 37.1773 35.48 39.1816 33.533 42.0905C34.1056 42.0218 34.1056 42.0104 34.6668 41.8844C35.2051 41.7699 35.7434 41.6324 36.2702 41.4721C36.5336 41.3919 36.7856 41.2888 37.0375 41.1858C37.6903 40.4528 38.1484 39.5824 38.5149 38.6662C38.8814 37.7041 39.2364 36.6849 39.3395 35.6656C39.3968 35.1616 39.3739 34.6234 39.3624 34.0965Z" fill="#ED232F"/>
<path id="Vector_44" d="M30.5554 37.956C30.5554 37.9102 30.5439 37.8759 30.5325 37.8301C30.395 37.5552 30.1774 37.3147 29.8682 37.1658L29.8109 37.1429L29.6163 37.0513L28.4252 36.4786C27.7266 36.1465 26.8905 36.4443 26.5584 37.1429L26.4553 37.3491C26.3179 37.6468 26.2835 37.9675 26.3522 38.2653C26.3751 38.2996 26.3866 38.334 26.4095 38.3683C26.524 38.7348 26.7989 39.067 27.1768 39.2502L28.5053 39.8801C29.2383 40.2237 30.1087 39.9145 30.4638 39.1815L30.5096 39.0899C30.6928 38.7234 30.6928 38.3225 30.5554 37.956Z" fill="#A3121B"/>
<path id="Vector_45" d="M29.8796 37.1773L28.4366 36.4901C27.738 36.158 26.9019 36.4558 26.5698 37.1544L26.4667 37.3605C26.4094 37.4751 26.3751 37.5896 26.3522 37.7041C26.4552 38.0935 26.7187 38.4371 27.1081 38.6318L28.3679 39.2273C29.0665 39.5595 29.9025 39.2617 30.2346 38.5631L30.2919 38.4371C30.4179 38.1737 30.4522 37.8874 30.4064 37.6125C30.269 37.4292 30.0972 37.2804 29.8796 37.1773Z" fill="#003D6C"/>
<path id="Vector_46" d="M19.4919 29.023C19.0109 29.0001 18.5299 28.9543 18.0489 28.9199C17.7855 28.9085 17.5335 28.897 17.2701 28.897C17.1098 28.897 17.0525 29.1146 17.1899 29.1948C17.3617 29.2864 17.545 29.3895 17.7282 29.4811C18.8506 29.5613 20.6258 29.6185 22.0459 29.4582C21.5992 29.2864 21.1411 29.1375 20.683 29.0345C20.2936 29.0803 19.8813 29.0459 19.4919 29.023ZM30.7156 24.5679C29.0091 24.1441 26.9362 23.9838 25.2412 24.6824C24.554 25.0489 23.947 25.5414 23.4088 26.1255C22.8018 26.7783 22.1833 27.4654 21.7023 28.2213C22.0001 28.416 22.4467 28.6909 22.9621 29.023C25.1839 25.9308 27.1424 23.7319 33.8078 25.8506C32.8458 25.278 31.8151 24.8428 30.7156 24.5679Z" fill="white"/>
<path id="Vector_47" d="M33.8309 37.1887C33.911 37.4406 33.9568 37.6812 33.9912 37.9217C33.9797 37.6582 33.9339 37.4177 33.8309 37.1887ZM39.3625 34.0965C39.3511 33.6498 39.3396 33.2146 39.2938 32.7794C38.5952 35.3448 32.5482 32.7107 27.0852 32.5732C27.3143 32.6191 27.5433 32.6649 27.7724 32.7107C29.0894 32.9626 30.5439 33.1802 31.6892 33.9018C32.6512 34.4973 33.2926 35.425 33.6476 36.4901L33.8423 37.1887C33.8309 37.1658 33.8652 37.1429 33.8767 37.1658C33.8996 37.2001 35.4915 39.2044 33.5445 42.1134C34.1172 42.0446 34.1172 42.0332 34.6784 41.9072C35.2166 41.7927 35.7549 41.6552 36.2817 41.4949C36.5451 41.4147 36.7971 41.3117 37.0491 41.2086C37.7019 40.4756 38.16 39.6052 38.5265 38.689C38.893 37.727 39.248 36.7077 39.3511 35.6884C39.3969 35.1616 39.374 34.6233 39.3625 34.0965Z" fill="#A3121B"/>
<path id="Vector_48" d="M24.7717 32.9399C24.68 33.1804 24.5541 33.4095 24.4166 33.6386C24.3823 33.6958 24.3479 33.7416 24.3136 33.7989C24.1876 33.9821 24.0501 34.1654 23.9242 34.3257C23.6722 34.6464 23.3515 34.9098 23.0767 35.219C22.6987 35.6199 22.5384 36.1123 22.4468 36.6506C22.275 37.6699 22.3322 38.7579 22.7216 39.72C22.9163 40.201 23.1912 40.6018 23.5119 40.9683C22.8591 39.3535 22.6186 36.6621 23.4775 35.8375C24.2907 35.0472 25.2412 33.7302 25.6306 33.1575C25.287 33.0659 25.0007 32.9972 24.7717 32.9399Z" fill="white"/>
</g>
</g>
</svg>
