<svg width="83" height="73" viewBox="0 0 83 73" fill="none" xmlns="http://www.w3.org/2000/svg">
<path d="M41.502 49.2403C55.1534 49.2403 66.2201 38.2175 66.2201 24.6202C66.2201 11.0228 55.1534 0 41.502 0C27.8506 0 16.7839 11.0228 16.7839 24.6202C16.7839 38.2175 27.8506 49.2403 41.502 49.2403Z" fill="#155ECD"/>
<path fill-rule="evenodd" clip-rule="evenodd" d="M14.4749 29.6481C14.5347 29.4657 14.5984 29.2793 14.6581 29.0969L14.8253 28.5934L15.3388 28.4506C17.6478 27.8122 19.9647 27.2095 22.2817 26.6068L23.5317 26.2816V26.4164C23.8064 26.3173 24.0891 26.238 24.3797 26.1746C35.3474 23.7915 46.4146 22.4076 57.6251 21.9238C58.485 21.8881 59.3329 22.0428 60.0734 22.4274L60.3122 21.8247L60.985 21.8207C64.1061 21.7969 67.2233 21.8564 70.3444 22.0111C73.6287 22.1736 76.9051 22.4433 80.1775 22.7724L81.2802 22.8834L81.0573 23.962C80.5039 26.6425 79.9665 29.3309 79.445 32.0154C80.1655 32.0709 80.8821 32.1224 81.6027 32.1779L83 32.281L82.4427 33.5618C81.539 35.6475 80.6353 37.7372 79.7714 39.8388L79.5007 40.501L78.7841 40.4534C52.1154 38.7087 26.2906 44.2521 1.66804 54.2484L0 54.9344L0.306538 53.1659C1.48492 46.3656 2.68718 39.5652 3.86556 32.7648L3.96508 32.1938L4.51446 31.9995C6.7916 31.1866 9.07669 30.3896 11.3817 29.6481C12.4128 29.3111 13.5076 29.2754 14.4749 29.6481Z" fill="#155ECD"/>
<path fill-rule="evenodd" clip-rule="evenodd" d="M66.6022 37.067C68.732 37.0551 70.8619 37.1066 72.9838 37.2375L76.6861 37.4635L73.2107 44.0854L76.2243 50.6281C71.686 50.3069 66.0329 49.6209 61.6498 49.6447C60.4993 49.6526 60.8536 50.1681 59.6553 50.2078L60.2485 48.4234C47.8835 48.5106 35.0607 50.9691 23.4242 55.1207L26.3025 54.4506C20.4743 56.4015 13.5752 60.2041 7.34492 63.1503L10.5496 55.0374L6.82739 49.2839L10.0839 47.9119C12.2654 46.9919 14.4749 46.1434 16.7122 45.3583L17.1939 43.5462L18.7505 42.9633C24.8056 40.6952 31.1474 39.0298 37.4971 37.8204C46.2473 36.155 55.4036 35.2747 64.3131 35.4095L66.1245 35.4373L66.6022 37.067Z" fill="#155ECD"/>
<path fill-rule="evenodd" clip-rule="evenodd" d="M21.2268 12.9623C24.4594 7.38714 29.6546 3.64396 35.443 2.09752C41.2313 0.551076 47.6089 1.2093 53.2062 4.42511C58.8035 7.64488 62.5616 12.8195 64.1142 18.585C65.6628 24.3504 65.0059 30.7027 61.7773 36.2779C58.5448 41.853 53.3495 45.5962 47.5611 47.1426C41.7728 48.6851 35.3952 48.0308 29.7979 44.815C24.2006 41.5952 20.4425 36.4206 18.8899 30.6551C17.3374 24.8897 17.9942 18.5374 21.2268 12.9623Z" fill="#040D16"/>
<path fill-rule="evenodd" clip-rule="evenodd" d="M61.5583 32.6655C61.1005 28.6646 59.6872 24.7747 57.418 21.3329C56.6816 20.2187 55.8575 19.152 54.9419 18.1449C54.4164 19.6953 54.1656 21.8127 54.3089 24.5249C54.6552 31.1231 54.2014 38.6253 50.3677 44.2599C54.3686 42.4716 57.8639 39.458 60.2247 35.3857C60.7382 34.4975 61.1841 33.5894 61.5583 32.6655ZM53.5724 16.7412C52.7523 15.96 51.8725 15.2225 50.9409 14.5325C46.0602 24.6954 39.3562 35.4769 31.5654 43.7405C36.3307 46.2029 41.9479 46.8254 47.1271 45.4098C52.3502 40.0885 52.8996 31.6544 52.5294 24.6161C52.394 22.0903 52.5294 19.0925 53.5724 16.7412ZM20.2514 28.5814C23.2809 22.9705 30.2994 19.5803 36.4461 16.6103C37.5289 16.0869 38.5799 15.5793 39.6389 15.0401C42.1748 13.7514 43.8866 12.4428 44.9137 11.17C42.135 10.0478 39.2567 9.4134 36.3983 9.25083C32.274 9.01291 28.1815 9.73855 24.4752 11.3445C23.8582 12.1296 23.2929 12.9663 22.7753 13.8545C20.0921 18.4859 19.3318 23.7041 20.2514 28.5814ZM46.5937 11.9155C46.5698 11.9472 46.5499 11.9789 46.526 12.0067C44.3484 14.9251 40.4629 16.642 37.2264 18.2083C30.606 21.4082 22.9186 25.1237 20.9879 31.4165C22.5166 35.9963 25.5859 40.0845 29.969 42.8324C37.7758 34.6601 44.5713 23.7596 49.4481 13.5095C48.5285 12.9226 47.573 12.3913 46.5937 11.9155ZM51.7093 12.8869C52.6966 13.5967 53.6281 14.3581 54.5 15.163C54.9339 14.6118 55.4236 14.1796 55.961 13.8664C56.9921 13.2636 58.1585 13.109 59.3727 13.3747C59.5996 13.4262 59.8305 13.4897 60.0614 13.569C58.5885 11.1066 56.6019 8.90982 54.1536 7.15322C53.4291 9.01291 52.613 10.9281 51.7093 12.8869ZM45.0252 3.36642C47.2864 5.0794 48.5882 7.5656 47.4695 10.3532C48.409 10.8131 49.3247 11.3207 50.2084 11.8758C51.1081 9.90906 51.9163 7.99385 52.6289 6.15398C50.292 4.75821 47.7163 3.81052 45.0252 3.36642ZM45.8333 9.61959C46.104 8.89396 46.0841 8.14849 45.8731 7.43871C45.0809 4.78597 42.2862 3.18798 39.5871 3.2197C38.3928 3.2316 37.1547 3.48537 35.9007 3.81845C32.7 4.67098 29.6943 6.25707 27.1584 8.49347C30.1561 7.64094 33.317 7.28803 36.5018 7.4744C39.6429 7.6568 42.7998 8.36261 45.8333 9.61959ZM55.7818 16.4319C59.114 19.9332 61.5105 24.2394 62.6889 28.9263C63.3816 25.5479 63.4891 18.9657 60.8099 16.2852C59.2135 14.6872 57.1553 14.4968 55.7818 16.4319Z" fill="#F6842C"/>
<path fill-rule="evenodd" clip-rule="evenodd" d="M61.5585 32.6654C61.4908 32.0588 61.3992 31.4521 61.2838 30.8533C59.2734 33.9145 56.4827 36.3967 53.1983 38.0106C52.5733 40.2351 51.6657 42.3565 50.3678 44.2598C54.3688 42.4715 57.8641 39.4579 60.2248 35.3856C60.7384 34.4974 61.1842 33.5893 61.5585 32.6654ZM25.9364 10.7615C24.7381 13.3944 24.0693 16.3247 24.0693 19.4136C24.0693 20.8451 24.2126 22.2448 24.4873 23.5969C22.7476 25.0522 21.2707 26.6898 20.2515 28.5812C19.3319 23.704 20.0923 18.4858 22.7795 13.8544C23.293 12.9661 23.8623 12.1295 24.4794 11.3444C24.9571 11.1342 25.4428 10.9399 25.9364 10.7615ZM24.977 25.5359C26.5455 30.6789 30.0448 34.9653 34.611 37.5149C33.1102 39.3826 31.5576 41.1629 29.9652 42.8323C25.5821 40.0804 22.5127 35.9923 20.984 31.4164C21.6767 29.1562 23.1139 27.2251 24.977 25.5359ZM36.2432 38.3278C38.7353 39.4341 41.4862 40.0527 44.3764 40.0527C46.7093 40.0527 48.9506 39.6522 51.0367 38.9147C50.1927 41.3295 48.9426 43.5579 47.1233 45.4097C41.9401 46.8253 36.3229 46.2028 31.5616 43.7403C33.1699 42.0353 34.7344 40.2232 36.2432 38.3278ZM53.6402 36.1985C53.0351 39.0812 52.012 41.845 50.3678 44.2598C54.3688 42.4715 57.8641 39.4579 60.2248 35.3856C60.3283 35.2032 60.4318 35.0208 60.5314 34.8384C60.3283 34.8899 60.1293 34.9415 59.9143 34.997C57.6849 35.5957 55.5949 35.9843 53.6402 36.1985ZM28.4644 24.4733C28.4644 24.4733 31.0639 29.9651 37.6764 33.4981C36.9001 34.5688 36.1119 35.6156 35.3037 36.6426C32.2383 34.5093 29.7064 30.8414 28.4644 24.4733ZM39.3046 34.2872C42.577 35.7226 46.6894 36.6426 51.7731 36.3571C51.0765 39.3865 49.8662 42.2455 47.8757 44.5929C44.3207 43.3874 40.2203 41.3533 36.5737 37.9154C37.5012 36.7338 38.4129 35.5204 39.3046 34.2872Z" fill="#C46218"/>
<path d="M62.7169 28.7875C63.0314 24.061 61.9326 19.378 59.5838 15.3811C60.0098 15.5912 60.4238 15.8966 60.81 16.2852C63.4534 18.93 63.3857 25.3655 62.7169 28.7875ZM52.6171 27.9548C51.7373 24.4258 51.2317 19.378 52.5773 15.841C52.9157 16.1345 53.2501 16.4358 53.5725 16.7412C52.5335 19.0925 52.3941 22.0903 52.5295 24.6201C52.5813 25.7026 52.6171 26.8208 52.6171 27.9548ZM53.4133 14.2074C54.2254 13.0099 55.3839 12.1415 56.9843 11.8124C55.9611 10.6704 54.8106 9.62356 53.5407 8.69173C53.7517 8.17625 53.9587 7.66077 54.1577 7.15322C56.6061 8.90982 58.5926 11.1066 60.0656 13.569C59.8347 13.4897 59.6038 13.4223 59.3768 13.3747C58.1586 13.105 56.9922 13.2636 55.9651 13.8664C55.4277 14.1796 54.938 14.6118 54.5041 15.163C54.1458 14.8378 53.7835 14.5206 53.4133 14.2074ZM37.6883 33.4824C41.0284 27.6575 45.3398 19.8261 48.3972 12.8711C48.7515 13.0773 49.1019 13.2874 49.4482 13.5095C46.2594 20.2028 42.2585 27.1737 37.6883 33.4824ZM49.1058 11.2215C49.7269 9.73458 50.2802 8.30313 50.742 6.95495C49.5119 6.30862 48.2459 5.78918 46.9601 5.39265C46.4704 4.63926 45.8056 3.95724 45.0253 3.37038C47.7165 3.81449 50.2882 4.76218 52.625 6.15794C51.9124 7.99781 51.1043 9.91302 50.2046 11.8798C49.8463 11.6498 49.4801 11.4317 49.1058 11.2215ZM30.7773 19.4613C34.3881 16.8363 41.1319 13.799 43.7554 10.7299C44.1415 10.8647 44.5277 11.0114 44.9138 11.17C43.8867 12.4428 42.1749 13.7553 39.639 15.0401C38.5801 15.5793 37.5251 16.0869 36.4462 16.6103C34.5911 17.5064 32.6563 18.4383 30.7773 19.4613ZM44.6949 9.17549C45.2363 7.56164 44.2968 5.95175 40.8253 4.40531C36.068 4.30618 31.3187 5.7059 27.27 8.40227C29.786 6.21345 32.7479 4.66305 35.9048 3.81845C37.1588 3.48537 38.393 3.2316 39.5912 3.2197C42.2904 3.18798 45.081 4.78597 45.8772 7.43871C46.0882 8.14453 46.1081 8.88999 45.8374 9.61959C45.4592 9.46098 45.0771 9.31427 44.6949 9.17549Z" fill="white"/>
<path fill-rule="evenodd" clip-rule="evenodd" d="M1.28979 53.3363C2.46817 46.536 3.67044 39.7356 4.84881 32.9352C29.0892 24.291 54.3407 21.1704 80.0779 23.7636C79.4489 26.8168 78.8438 29.8661 78.2506 32.9273C79.3414 33.0105 80.4362 33.0899 81.527 33.1731C80.6153 35.2707 79.7156 37.3525 78.8478 39.4699C51.9839 37.7133 26.1154 43.2607 1.28979 53.3363Z" fill="#040D16"/>
<path fill-rule="evenodd" clip-rule="evenodd" d="M65.8538 38.0702L66.1245 38.0662C68.4056 38.0424 70.6748 38.094 72.9241 38.2328L75.0858 38.3636L72.096 44.0577L74.612 49.5178C69.592 49.4623 64.2295 49.8192 59.5121 49.9381L60.571 48.6811L22.7116 56.0644C17.9981 57.6386 13.7384 59.3199 9.14834 61.2866L11.6643 54.9224L8.30835 49.7359L10.47 48.8239C12.7153 47.8802 14.9845 47.0118 17.2696 46.2148L17.5403 46.1196L18.026 44.2956L19.0969 43.8951C33.1419 38.6332 50.2522 36.1907 64.2932 36.4048L65.3641 36.4206L65.8538 38.0702Z" fill="#040D16"/>
<path d="M20.6258 47.1744L19.0214 53.2056L18.7507 49.5139C16.4616 50.3109 14.2362 51.1674 12.0825 52.0755L13.6072 54.4744L12.0825 58.3366C14.7219 57.2065 17.5007 56.1478 20.3909 55.1842C20.1998 54.6806 20.0684 54.2088 19.937 53.6774C34.0139 48.2411 49.7468 45.4099 63.8237 45.7866C63.6883 46.3655 63.5609 46.885 63.3698 47.456C66.26 47.3846 69.0388 47.4401 71.6782 47.6225L70.1535 44.3115L71.6782 41.3614C69.5245 41.2305 67.2991 41.175 65.01 41.1988L64.7393 44.9896L63.1349 39.5334C49.3527 39.3233 34.408 42.0117 20.6258 47.1744Z" fill="#F6842C"/>
<path d="M18.9496 52.2459C17.5562 52.7336 15.4463 53.5465 13.5036 54.3157L13.6031 54.4743L12.0784 58.3365C14.7178 57.2064 17.4965 56.1476 20.3867 55.1841C20.1956 54.6805 20.0643 54.2086 19.9329 53.6773C34.0097 48.241 49.7427 45.4098 63.8195 45.7865C63.6842 46.3654 63.5568 46.8849 63.3657 47.4559C66.2559 47.3845 69.0346 47.44 71.674 47.6224L70.1493 44.3114L70.2488 44.1171C68.3061 44.0457 66.1962 43.9942 64.8028 44.0061L64.7312 44.9934L63.9628 42.3803C49.7546 41.9997 33.9938 44.8348 19.7816 50.3227L19.0133 53.2094L18.9496 52.2459Z" fill="#C46218"/>
<path fill-rule="evenodd" clip-rule="evenodd" d="M23.2929 49.0976L22.6639 49.3355V47.8525C22.6639 47.8049 22.6361 47.7891 22.5843 47.8089L22.0787 47.9992C22.019 48.023 21.9951 48.0587 21.9951 48.1063V51.6909C21.9951 51.7384 22.019 51.7583 22.0787 51.7345L22.5843 51.5441C22.6321 51.5243 22.6639 51.4886 22.6639 51.4411V49.9581L23.2929 49.7201V51.2031C23.2929 51.2507 23.3208 51.2666 23.3725 51.2468L23.8781 51.0564C23.9378 51.0326 23.9617 50.9969 23.9617 50.9494V47.3648C23.9617 47.3172 23.9378 47.2974 23.8781 47.3212L23.3725 47.5115C23.3248 47.5313 23.2929 47.571 23.2929 47.6146V49.0976ZM61.7574 40.953C61.7574 40.9054 61.7375 40.8777 61.6778 40.8777L59.8704 40.8301C59.8266 40.8301 59.7948 40.8578 59.7948 40.9015V44.486C59.7948 44.5336 59.8226 44.5614 59.8704 44.5614L61.6778 44.609C61.7375 44.609 61.7574 44.5812 61.7574 44.5376V44.0697C61.7574 44.0181 61.7375 43.9943 61.6778 43.9943L60.4516 43.9626V43.0189L61.3912 43.0427C61.4389 43.0427 61.4708 43.0149 61.4708 42.9634V42.4994C61.4708 42.4479 61.4429 42.4201 61.3912 42.4162L60.4516 42.3924V41.4606L61.6778 41.4923C61.7375 41.4923 61.7574 41.4606 61.7574 41.413V40.953ZM59.1857 41.52C59.1857 41.0799 58.9349 40.8499 58.4731 40.8578L57.9197 40.8658C57.4539 40.8697 57.2031 41.1076 57.2031 41.5478V43.9388C57.2031 44.379 57.4539 44.609 57.9197 44.601L58.4731 44.5931C58.9349 44.5891 59.1857 44.3512 59.1857 43.9111V43.4075C59.1857 43.3599 59.1578 43.3321 59.1061 43.3321L58.6124 43.3401C58.5567 43.3401 58.5328 43.3678 58.5328 43.4154V43.7881C58.5328 43.915 58.4651 43.9745 58.3337 43.9785L58.075 43.9824C57.9476 43.9824 57.8759 43.923 57.8759 43.8V41.6707C57.8759 41.5478 57.9396 41.4843 58.075 41.4804L58.3337 41.4764C58.4611 41.4764 58.5328 41.5399 58.5328 41.6588V42.0315C58.5328 42.0791 58.5567 42.1069 58.6124 42.1069L59.1061 42.099C59.1538 42.099 59.1857 42.0712 59.1857 42.0236V41.52ZM55.9929 40.9213C55.9372 40.9252 55.9133 40.953 55.9133 41.0006V42.9713H55.8814L55.125 41.0283C55.1091 40.9887 55.0813 40.9689 55.0335 40.9728L54.5398 41.0006C54.4881 41.0046 54.4602 41.0323 54.4602 41.0799V44.6645C54.4602 44.712 54.4881 44.7358 54.5398 44.7358L55.0574 44.7081C55.1131 44.7041 55.137 44.6764 55.137 44.6288V42.6501H55.1609L55.9252 44.601C55.9412 44.6407 55.969 44.6605 56.0168 44.6565L56.5104 44.6288C56.5622 44.6248 56.5901 44.5971 56.5901 44.5495V40.9609C56.5901 40.9134 56.5582 40.8896 56.5104 40.8896L55.9929 40.9213ZM53.875 44.7636C53.9347 44.7596 53.9546 44.7279 53.9467 44.6803L53.1186 41.1513C53.1067 41.1037 53.0788 41.0878 53.035 41.0918L52.3423 41.1433C52.2985 41.1473 52.2667 41.1671 52.2587 41.2147L51.4307 44.8627C51.4148 44.9143 51.4426 44.942 51.4944 44.9381L52.0278 44.8984C52.0716 44.8944 52.0995 44.8707 52.1075 44.827L52.2428 44.1371L53.1306 44.0736L53.2699 44.7438C53.2779 44.7834 53.3057 44.8072 53.3495 44.8032L53.875 44.7636ZM53.0032 43.5383L52.3662 43.5859L52.6847 41.9364L53.0032 43.5383ZM50.1886 41.3337C50.1289 41.3416 50.0931 41.3733 50.0771 41.4288L49.5198 43.8119L48.9625 41.5478C48.9465 41.4923 48.9107 41.4685 48.851 41.4764L48.1901 41.5478C48.1264 41.5557 48.0906 41.5914 48.0906 41.6509V45.1958C48.0906 45.2553 48.1264 45.287 48.1901 45.2791L48.6519 45.2315C48.7156 45.2236 48.7515 45.1879 48.7515 45.1284V43.0268L48.7873 43.0229L49.2849 45.0808C49.3008 45.1363 49.3367 45.1601 49.3964 45.1522L49.6432 45.1244C49.7029 45.1165 49.7388 45.0848 49.7547 45.0293L50.2523 42.8682L50.2881 42.8642V44.9658C50.2881 45.0253 50.324 45.057 50.3877 45.0491L50.8534 45.0015C50.9171 44.9936 50.953 44.9579 50.953 44.8984V41.3535C50.953 41.294 50.9171 41.2623 50.8534 41.2702L50.1886 41.3337ZM47.4736 42.317C47.4736 41.8769 47.2228 41.6826 46.749 41.75L45.487 41.9324C45.4353 41.9403 45.4074 41.9721 45.4074 42.0196V45.6042C45.4074 45.6518 45.4393 45.6756 45.487 45.6677L46.0085 45.5923C46.0603 45.5844 46.0882 45.5527 46.0882 45.5051V44.3274L46.4345 44.2759L46.7729 45.4139C46.7848 45.4535 46.8087 45.4734 46.8565 45.4654L47.378 45.3901C47.4337 45.3822 47.4616 45.3505 47.4497 45.2949L47.1033 44.1212C47.3462 43.9864 47.4696 43.7644 47.4696 43.4511L47.4736 42.317ZM46.0922 43.7128V42.4638L46.5898 42.3924C46.7212 42.3726 46.7888 42.4281 46.7888 42.551V43.4273C46.7888 43.5502 46.7172 43.6256 46.5898 43.6414L46.0922 43.7128ZM42.776 45.4218C42.776 45.862 43.0268 46.0523 43.5005 45.973L44.0658 45.8778C44.5396 45.7985 44.7904 45.521 44.7904 45.0848V42.6937C44.7904 42.2536 44.5396 42.0633 44.0658 42.1426L43.5005 42.2377C43.0268 42.317 42.776 42.5906 42.776 43.0308V45.4218ZM43.6478 45.3465C43.5164 45.3703 43.4448 45.3187 43.4448 45.1918V43.0348C43.4448 42.9118 43.5164 42.8365 43.6478 42.8127L43.9384 42.7651C44.0698 42.7413 44.1415 42.7968 44.1415 42.9198V45.0768C44.1415 45.2037 44.0698 45.2751 43.9384 45.2989L43.6478 45.3465ZM42.3102 42.5074C42.3102 42.4598 42.2783 42.44 42.2306 42.4479L40.3794 42.7849C40.3237 42.7968 40.2998 42.8286 40.2998 42.8761V46.4607C40.2998 46.5083 40.3237 46.5321 40.3794 46.5202L40.9009 46.425C40.9527 46.4171 40.9805 46.3814 40.9805 46.3338V44.8469L41.928 44.6724C41.9798 44.6645 42.0076 44.6327 42.0076 44.5812V44.1133C42.0076 44.0657 41.9758 44.0459 41.928 44.0538L40.9805 44.2283V43.2885L42.2266 43.0585C42.2783 43.0506 42.3062 43.0149 42.3062 42.9673L42.3102 42.5074ZM39.6748 43.578C39.6748 43.1378 39.424 42.9594 38.9502 43.0625L37.6882 43.3321C37.6365 43.344 37.6086 43.3758 37.6086 43.4233V47.0079C37.6086 47.0555 37.6405 47.0753 37.6882 47.0634L38.2098 46.9524C38.2615 46.9405 38.2894 46.9088 38.2894 46.8612V45.6835L38.6357 45.6082L38.9741 46.7224C38.9861 46.7621 39.0099 46.7819 39.0577 46.77L39.5792 46.659C39.635 46.6471 39.6628 46.6114 39.6509 46.5598L39.3045 45.4099C39.5474 45.2592 39.6708 45.0293 39.6708 44.716L39.6748 43.578ZM38.2934 45.0689V43.8199L38.791 43.7128C38.9224 43.6851 38.99 43.7366 38.99 43.8556V44.7319C38.99 44.8548 38.9184 44.9341 38.791 44.9619L38.2934 45.0689ZM37.0433 43.5502C37.0433 43.5027 37.0234 43.4789 36.9637 43.4947L35.1125 43.9349C35.0687 43.9468 35.0369 43.9824 35.0369 44.0261V47.6106C35.0369 47.6582 35.0687 47.678 35.1125 47.6661L36.9597 47.226C37.0194 47.2101 37.0393 47.1784 37.0393 47.1308V46.6629C37.0393 46.6114 37.0194 46.5916 36.9597 46.6074L35.7057 46.9088V45.9651L36.6651 45.7351C36.7169 45.7232 36.7447 45.6875 36.7447 45.6359V45.172C36.7447 45.1205 36.7129 45.1006 36.6651 45.1125L35.7057 45.3425V44.4107L36.9597 44.1093C37.0194 44.0935 37.0393 44.0578 37.0393 44.0102V43.5502H37.0433ZM32.4134 48.2768C32.4134 48.3244 32.4453 48.3442 32.493 48.3323L33.0145 48.1975C33.0703 48.1816 33.0942 48.1499 33.0942 48.1023V46.9246L33.6953 46.77C34.1651 46.651 34.4159 46.3497 34.4159 45.9135V44.7755C34.4159 44.3353 34.1651 44.1688 33.6953 44.2878L32.493 44.5931C32.4413 44.605 32.4134 44.6407 32.4134 44.6883V48.2768ZM33.0981 46.31V45.061L33.54 44.95C33.6754 44.9143 33.7391 44.9658 33.7391 45.0848V45.9611C33.7391 46.0761 33.6754 46.1633 33.54 46.199L33.0981 46.31ZM29.8695 46.8929L29.2326 47.0912V45.6082C29.2326 45.5606 29.2007 45.5447 29.153 45.5566L28.6394 45.7153C28.5797 45.7351 28.5558 45.7708 28.5558 45.8183V49.4029C28.5558 49.4505 28.5797 49.4703 28.6394 49.4505L29.153 49.2919C29.2047 49.276 29.2326 49.2403 29.2326 49.1928V47.7098L29.8695 47.5115V48.9945C29.8695 49.0421 29.9014 49.0579 29.9492 49.0461L30.4627 48.8874C30.5224 48.8676 30.5463 48.8319 30.5463 48.7883V45.2037C30.5463 45.1562 30.5224 45.1363 30.4627 45.1562L29.9492 45.3148C29.8974 45.3306 29.8695 45.3663 29.8695 45.4139V46.8929ZM25.8567 49.6884C25.8567 50.1286 26.1035 50.2792 26.5733 50.1246L27.2301 49.9065C27.6919 49.7519 27.9467 49.4386 27.9467 48.9985V47.7018C27.9467 47.6503 27.9149 47.6384 27.8671 47.6543L27.0351 47.9318C26.9793 47.9516 26.9555 47.9834 26.9555 48.031V48.4988C26.9555 48.5464 26.9793 48.5663 27.0351 48.5464L27.2938 48.4592V49.0857C27.2938 49.2126 27.2262 49.2959 27.0948 49.3395L26.7365 49.4584C26.6091 49.5021 26.5374 49.4624 26.5374 49.3355V47.2062C26.5374 47.0833 26.6011 47 26.7365 46.9524L27.0948 46.8334C27.2222 46.7898 27.2938 46.8334 27.2938 46.9564V47.3093C27.2938 47.3569 27.3177 47.3767 27.3735 47.3569L27.8711 47.1943C27.9189 47.1784 27.9507 47.1388 27.9507 47.0952V46.6114C27.9507 46.1713 27.6959 46.0245 27.2341 46.1752L26.5773 46.3933C26.1115 46.548 25.8607 46.8612 25.8607 47.3013V49.6884H25.8567ZM24.6544 47.0515C24.5987 47.0714 24.5748 47.107 24.5748 47.1546V50.7392C24.5748 50.7868 24.5987 50.8066 24.6544 50.7868L25.168 50.6044C25.2158 50.5885 25.2476 50.5489 25.2476 50.5013V46.9167C25.2476 46.8691 25.2197 46.8533 25.168 46.8691L24.6544 47.0515Z" fill="#040D16"/>
<path fill-rule="evenodd" clip-rule="evenodd" d="M9.16432 36.2145C9.0409 36.8767 8.93342 37.5349 8.81399 38.1931C8.69456 38.8513 8.57911 39.5135 8.46366 40.1718C8.91351 40.0132 9.36735 39.8546 9.8172 39.688C9.91673 39.6523 10.0083 39.5928 10.0839 39.5056C10.1596 39.4184 10.2113 39.3074 10.2352 39.1686C10.4223 38.0861 10.6174 36.9996 10.8045 35.9171C10.8363 35.7267 10.7806 35.6554 10.6015 35.7148C10.1158 35.8854 9.64602 36.0559 9.16432 36.2145ZM74.7235 25.4409C75.6272 25.5163 76.5229 25.6075 77.4346 25.6987C77.1161 27.2451 76.8096 28.7836 76.515 30.3221C76.2204 31.8606 75.9138 33.3991 75.6272 34.9377C76.507 34.9932 77.3908 35.0606 78.2865 35.128C77.9919 35.81 77.6934 36.5 77.4147 37.1859C75.7825 37.0789 74.1423 37.0035 72.5021 36.9441C72.8684 35.0289 73.2466 33.1137 73.6128 31.1984C73.9711 29.2793 74.3533 27.3561 74.7235 25.4409ZM68.5052 25.0682C69.4248 25.1039 70.3285 25.1435 71.2402 25.1911C70.9217 26.7812 70.6191 28.3673 70.3126 29.9534C70.01 31.5395 69.7035 33.1216 69.4009 34.7077C70.2967 34.7196 71.1924 34.7354 72.0801 34.7632C71.7855 35.4769 71.4949 36.1907 71.2202 36.9005C69.5482 36.8846 67.9001 36.8846 66.236 36.9084C66.6142 34.9377 66.9964 32.963 67.3666 30.9883C67.7448 29.0215 68.131 27.0429 68.5052 25.0682ZM60.9851 35.6316C60.802 36.1391 60.6188 36.6506 60.4596 37.1542C59.5479 37.2097 58.6283 37.2772 57.7246 37.3485C58.5129 35.2707 59.3131 33.2009 60.1013 31.135C60.8855 29.081 61.6897 27.031 62.4939 24.9928C63.4414 24.9849 64.3928 24.9889 65.3562 24.9968C65.3642 27.0032 65.3881 29.0057 65.4159 30.9922C65.4478 32.9788 65.4597 34.9615 65.4995 36.9322C64.5879 36.956 63.6842 36.9877 62.7885 37.0273C62.7885 36.5317 62.8124 36.04 62.8203 35.5443C62.2152 35.5721 61.5942 35.6038 60.9851 35.6316ZM61.6459 33.6926C62.056 33.6728 62.4819 33.6569 62.8999 33.645C62.9238 32.9352 62.9557 32.2215 62.9915 31.5117C63.0273 30.8019 63.0592 30.0882 63.091 29.3744C62.8482 30.0921 62.5974 30.8099 62.3625 31.5315C62.1276 32.2492 61.8888 32.9709 61.6459 33.6926ZM54.7349 27.4354C54.6274 27.9866 54.5319 28.5378 54.4323 29.0889C54.3328 29.6322 54.2213 30.1873 54.1377 30.7345C54.5558 30.7028 54.9817 30.6711 55.4156 30.6393C55.5231 30.6314 55.5908 30.6037 55.6665 30.5442C55.7421 30.4887 55.7819 30.4054 55.8018 30.2904C55.969 29.3903 56.1362 28.4823 56.3034 27.5821C56.3353 27.4196 56.2716 27.3403 56.1203 27.3522C55.6545 27.3799 55.1967 27.4116 54.7349 27.4354ZM55.3599 32.8718C55.3878 32.737 55.3679 32.6339 55.3082 32.5942C55.2365 32.5427 55.1489 32.5308 55.0215 32.5427C54.6115 32.5783 54.1935 32.614 53.7834 32.6458C53.5844 33.641 53.4132 34.6244 53.2221 35.6157C53.6759 35.5721 54.1497 35.5285 54.6035 35.4849C54.711 35.473 54.7867 35.4492 54.8304 35.4056C54.8782 35.3619 54.9061 35.2945 54.922 35.2033C55.0613 34.4261 55.2086 33.649 55.3599 32.8718ZM58.4412 29.9415C58.3775 30.2508 58.266 30.5125 58.0909 30.7464C57.9237 30.9724 57.641 31.1469 57.2549 31.2659C57.641 31.2619 57.8879 31.361 58.0152 31.5672C58.1387 31.7734 58.1824 32.0153 58.1307 32.2849C58.0232 32.8242 57.9197 33.3555 57.8202 33.8869C57.7207 34.4182 57.6171 34.9535 57.5256 35.4888C57.4062 36.1669 57.1593 36.6625 56.7891 36.9877C56.4149 37.3128 55.8376 37.5032 55.0574 37.5825C53.4013 37.745 51.7531 37.9393 50.097 38.1376C50.4911 36.0162 50.8892 33.8948 51.2834 31.7734C51.6735 29.656 52.0796 27.5266 52.4777 25.4013C54.2492 25.2863 56.0009 25.1871 57.7724 25.1118C58.3059 25.088 58.6721 25.2189 58.8831 25.4806C59.0941 25.7423 59.1737 26.0991 59.0861 26.5512C58.9786 27.1222 58.8672 27.6852 58.7597 28.2483C58.6482 28.8114 58.5527 29.3744 58.4412 29.9415ZM51.0445 25.5083C51.1122 26.2895 51.1878 27.0627 51.2555 27.8399C50.6464 27.8914 50.0413 27.943 49.4402 28.0025C49.1217 29.7472 48.7913 31.4919 48.4688 33.2445C48.1463 34.9892 47.8318 36.7339 47.5054 38.4786C46.5619 38.6134 45.6383 38.7483 44.6948 38.895C45.0212 37.1304 45.3437 35.3619 45.6662 33.5934C45.9886 31.825 46.319 30.0604 46.6455 28.2919C46.0284 28.3593 45.4233 28.4267 44.8063 28.5021C45.1924 27.6575 45.5865 26.8129 45.9846 25.9723C47.6726 25.8018 49.3566 25.6471 51.0445 25.5083ZM38.8785 26.8327C40.662 26.5988 42.4495 26.3727 44.233 26.1626C44.233 26.9675 44.233 27.7685 44.2489 28.5655C43.2457 28.6884 42.2425 28.8193 41.2552 28.9502C41.0562 30.0049 40.8691 31.0597 40.678 32.1104C41.4383 31.9994 42.1908 31.8924 42.9471 31.7893C42.8118 32.5466 42.6645 33.3079 42.5371 34.0653C41.7767 34.1763 41.0124 34.2993 40.26 34.4103C40.0768 35.3778 39.9017 36.3493 39.7225 37.3128C40.6859 37.1582 41.6533 36.9956 42.6167 36.8489C42.3062 37.6895 41.9957 38.5341 41.6891 39.3787C39.9335 39.6801 38.1819 39.9933 36.4263 40.3225C36.8363 38.0781 37.2463 35.8298 37.6484 33.5816C38.0505 31.3333 38.4685 29.085 38.8785 26.8327ZM32.3537 33.5855C32.489 33.5617 32.6363 33.534 32.7717 33.5062C33.1977 32.4792 33.6077 31.4483 34.0177 30.4292C34.4278 29.4101 34.8458 28.3911 35.2718 27.372C36.2192 27.2213 37.1707 27.0825 38.1261 26.9437C37.6405 28.0302 37.1707 29.1167 36.7129 30.1952C36.2511 31.2817 35.7773 32.3722 35.3235 33.4586C35.3753 34.6323 35.423 35.81 35.4748 36.9798C35.5265 38.1455 35.5823 39.3153 35.634 40.4731C34.6229 40.6754 33.6077 40.8816 32.5886 41.0957C32.5726 40.1916 32.5607 39.2915 32.5487 38.3795C32.5368 37.4754 32.5169 36.5674 32.5169 35.6554C32.3258 35.695 32.1387 35.7347 31.9556 35.7664C31.7804 36.7181 31.6172 37.6657 31.446 38.6095C31.2748 39.5572 31.0957 40.5049 30.9285 41.4525C29.981 41.6667 29.0295 41.8848 28.0821 42.1068C28.5001 39.7832 28.9221 37.4595 29.3361 35.1359C29.7501 32.8123 30.1721 30.4847 30.5981 28.1611C31.5416 27.9906 32.4811 27.824 33.4325 27.6615C33.2494 28.6488 33.0663 29.6322 32.8951 30.6195C32.716 31.6148 32.5448 32.5982 32.3537 33.5855ZM21.3024 43.8753C21.2865 43.0347 21.2785 42.1901 21.2785 41.3455C22.2897 41.0679 23.2889 40.7983 24.3001 40.5445C24.5191 40.489 24.6465 40.3661 24.6783 40.1718C24.8336 39.3074 24.9928 38.4509 25.1401 37.5904C25.1719 37.3961 25.156 37.289 25.0883 37.2692C25.0207 37.2494 24.8893 37.2613 24.6942 37.3049C24.2165 37.4199 23.7308 37.5468 23.2531 37.6657C23.0421 37.7213 22.8351 37.753 22.6599 37.7688C22.4688 37.7847 22.3215 37.7569 22.1902 37.6737C22.0707 37.5983 21.9832 37.4556 21.9394 37.2653C21.8956 37.0749 21.8916 36.8013 21.9553 36.4484C22.0986 35.6355 22.2499 34.8266 22.3972 34.0138C22.5445 33.1969 22.6958 32.388 22.8391 31.5751C22.9386 31.0081 23.1655 30.5244 23.5318 30.1159C23.894 29.7115 24.4036 29.426 25.0645 29.2832C26.3463 29.0057 27.6322 28.74 28.9141 28.4862C28.9061 29.3269 28.9221 30.1635 28.9221 31.0002C27.8671 31.2222 26.8201 31.4403 25.7611 31.6743C25.5342 31.7258 25.3949 31.8606 25.3591 32.0629C25.2038 32.9273 25.0525 33.7877 24.8973 34.6482C24.8694 34.7909 24.8893 34.8782 24.949 34.9178C25.0087 34.9575 25.1162 34.9535 25.2516 34.9218C25.8447 34.783 26.422 34.6522 27.0231 34.5213C27.465 34.4261 27.7875 34.4539 27.9865 34.6165C28.1816 34.7751 28.2254 35.1201 28.1298 35.6514C27.9905 36.4246 27.8512 37.1939 27.7198 37.9592C27.5844 38.7284 27.4491 39.4977 27.3097 40.2669C27.1704 41.0402 26.9156 41.631 26.5414 42.0275C26.1632 42.432 25.582 42.7214 24.7778 42.9316C23.6233 43.2329 22.4728 43.5462 21.3024 43.8753ZM15.5976 43.8872C15.3986 44.5216 15.2115 45.1561 15.0204 45.7865C14.0649 46.1038 13.1055 46.425 12.1501 46.762C13.014 44.1449 13.8778 41.5358 14.7337 38.9425C15.5857 36.3572 16.4655 33.7798 17.3254 31.2103C18.3286 30.9328 19.3398 30.6671 20.339 30.4094C20.339 32.7171 20.3111 35.0249 20.3072 37.3208C20.3032 39.6087 20.3072 41.8887 20.3151 44.1568C19.3676 44.4384 18.4162 44.7199 17.4727 45.0094C17.4806 44.4423 17.5125 43.8634 17.5324 43.2845C16.8835 43.4788 16.2425 43.681 15.5976 43.8872ZM16.3222 41.4605C16.7561 41.3296 17.194 41.1988 17.6359 41.0679C17.6757 40.2431 17.7235 39.4104 17.7633 38.5857C17.8071 37.753 17.8549 36.9203 17.9066 36.0876C17.6399 36.9837 17.3572 37.8838 17.1024 38.776C16.8477 39.6682 16.577 40.5683 16.3222 41.4605ZM9.72962 42.2654C9.76147 42.0989 9.74156 41.9918 9.67787 41.9641C9.59825 41.9284 9.51066 41.9403 9.36735 41.9918C8.93342 42.1504 8.49551 42.309 8.06954 42.4637C7.85855 43.6533 7.65153 44.8389 7.44054 46.0284C7.92622 45.85 8.40793 45.6676 8.88963 45.4852C9.00508 45.4416 9.09266 45.3861 9.14043 45.3226C9.19218 45.2512 9.22005 45.168 9.23996 45.0609C9.39123 44.1291 9.55844 43.1972 9.72962 42.2654ZM13.01 38.0385C12.9423 38.4072 12.8229 38.7483 12.6397 39.0575C12.4526 39.3708 12.162 39.6444 11.7599 39.8823C12.1461 39.7792 12.4088 39.8228 12.5402 40.0251C12.6716 40.2273 12.7074 40.493 12.6477 40.8221C12.5322 41.4644 12.4208 42.1068 12.3053 42.7492C12.1899 43.3915 12.0784 44.0339 11.963 44.6723C11.8196 45.4931 11.5529 46.1276 11.1588 46.6034C10.7726 47.0713 10.1675 47.4599 9.3355 47.7692C7.59978 48.4195 5.86406 49.1134 4.13232 49.8152C4.57422 47.2735 5.01611 44.7318 5.46198 42.1901C5.90785 39.6484 6.35771 37.1027 6.7996 34.561C8.65077 33.8988 10.5059 33.2723 12.365 32.6695C12.9184 32.4911 13.3165 32.5268 13.5434 32.7647C13.7664 33.0066 13.834 33.4031 13.7425 33.9503C13.623 34.6323 13.4917 35.3104 13.3722 35.9924C13.2448 36.6744 13.1334 37.3565 13.01 38.0385Z" fill="#B4B4B4"/>
<path fill-rule="evenodd" clip-rule="evenodd" d="M9.25585 35.7148L8.46761 40.1757C8.91747 40.017 9.3713 39.8584 9.82115 39.6919C10.3068 39.5174 10.7965 39.3826 10.904 38.7561C11.0911 37.6736 11.3459 36.2858 11.529 35.2032C11.5609 35.0129 11.5051 34.9415 11.322 35.001L9.25585 35.7148ZM75.2968 25.4884C76.0094 25.5519 76.718 25.6232 77.4346 25.6946C77.1161 27.2411 76.8095 28.7796 76.515 30.3181C76.2204 31.8566 75.9138 33.3951 75.6272 34.9336C76.507 34.9891 77.3908 35.0565 78.2865 35.1239C78.0994 35.5601 77.9083 35.9963 77.7252 36.4364C76.2283 36.3413 74.7235 36.2739 73.2227 36.2184C73.5889 34.3031 73.9671 32.3879 74.3334 30.4727C74.6439 28.8192 74.9743 27.1538 75.2968 25.4884ZM69.0864 25.0959C69.807 25.1276 70.5196 25.1593 71.2401 25.195C70.9216 26.7851 70.6191 28.3711 70.3125 29.9572C70.01 31.5433 69.7035 33.1255 69.4009 34.7116C70.2966 34.7235 71.1923 34.7393 72.0801 34.7671C71.885 35.2389 71.694 35.7108 71.5068 36.1787C69.9861 36.1668 68.4813 36.1708 66.9645 36.1906C67.3427 34.2199 67.7249 32.2452 68.0951 30.2705C68.4216 28.5496 68.756 26.8207 69.0864 25.0959ZM60.6905 36.4682C59.942 36.5197 59.1896 36.5713 58.4491 36.6307C59.2374 34.553 60.0376 32.4831 60.8258 30.4172C61.5185 28.6011 62.2271 26.793 62.9357 24.9928C63.7399 24.9888 64.5441 24.9928 65.3602 25.0007C65.3681 27.0071 65.392 29.0096 65.4199 30.9961C65.4478 32.7488 65.4597 34.4974 65.4915 36.2382C64.8267 36.258 64.1699 36.2858 63.513 36.3135C63.513 35.8179 63.5369 35.3262 63.5448 34.8305C62.9357 34.8543 61.841 34.9098 61.2319 34.9376L60.6905 36.4682ZM61.6459 33.6925L63.5966 33.6211C63.6682 31.357 63.7797 29.0928 63.939 26.8366L61.6459 33.6925ZM54.1337 30.7305C54.5517 30.6987 54.9777 30.671 55.4116 30.6353C55.8336 30.6036 56.3671 30.3815 56.4547 29.9216C56.6219 29.0214 56.8528 27.7605 57.02 26.8644C57.0518 26.7057 56.9881 26.6225 56.8368 26.6344C56.375 26.6621 55.3241 26.7295 54.8623 26.7533L54.1337 30.7305ZM53.2181 35.6117C53.6719 35.5681 54.1457 35.5244 54.5995 35.4808C54.8861 35.4531 55.4594 35.4412 55.5669 34.8821L56.0844 32.15C56.1083 32.0152 56.0924 31.9121 56.0327 31.8725C55.961 31.8209 55.8734 31.809 55.746 31.8209C55.336 31.8566 54.3288 31.9399 53.9188 31.9716L53.2181 35.6117ZM58.4412 29.9414C58.3815 30.2348 58.27 30.5084 58.0909 30.7463C57.9237 30.9723 57.641 31.1468 57.2548 31.2658C57.641 31.2618 57.8878 31.3609 58.0152 31.5671C58.1386 31.7733 58.1824 32.0152 58.1307 32.2848C58.0232 32.8241 57.9197 33.3554 57.8201 33.8868C57.7206 34.4181 57.6171 34.9534 57.5256 35.4887C57.4579 35.8813 57.3424 36.2144 57.1911 36.488C56.8368 36.6823 56.3671 36.8012 55.7819 36.8607C54.1258 37.0233 52.4776 37.2176 50.8215 37.4159C51.2157 35.2944 51.6138 33.173 52.0079 31.0516C52.3582 29.1602 52.7205 27.2609 53.0748 25.3615C54.6433 25.2624 56.2039 25.1752 57.7724 25.1078C58.3058 25.084 58.6721 25.2148 58.8831 25.4765C59.0941 25.7382 59.1737 26.0951 59.0861 26.5471C58.9786 27.1181 58.8672 27.6812 58.7597 28.2443C58.6442 28.8113 58.5527 29.3744 58.4412 29.9414ZM51.0445 25.5082C51.0922 26.0713 51.148 26.6304 51.1997 27.1895C50.8534 27.2212 49.9059 27.3045 49.5635 27.3402L47.6248 37.8441C46.8883 37.9512 46.1598 38.0582 45.4193 38.1732C46.0722 34.6402 46.7171 31.1032 47.37 27.5702C46.7529 27.6376 46.1478 27.705 45.5308 27.7803C45.8134 27.1618 46.1001 26.5471 46.3907 25.9325C47.9393 25.7779 49.4919 25.6391 51.0445 25.5082ZM39.4836 26.7533C41.0681 26.5471 42.6485 26.3489 44.233 26.1625C44.233 26.7573 44.233 27.3481 44.2409 27.935C43.4845 28.0301 42.123 28.2205 41.3746 28.3196L40.6819 32.1064C41.4423 31.9954 42.1947 31.8883 42.9511 31.7852C42.8516 32.3324 42.7481 32.8836 42.6525 33.4348C42.0952 33.518 40.9327 33.6965 40.3794 33.7797L39.7225 37.3128C40.6859 37.1581 41.6533 36.9955 42.6167 36.8488C42.3818 37.4793 42.1509 38.1137 41.92 38.7442C40.3316 39.0178 38.7392 39.3073 37.1508 39.6047C37.9271 35.3182 38.6994 31.0358 39.4836 26.7533ZM32.3537 33.5854L33.1897 33.4268C33.6156 32.3998 34.3282 30.7305 34.7383 29.7114C35.0607 28.9065 35.3912 28.1055 35.7216 27.3045C36.5218 27.1816 37.318 27.0626 38.1261 26.9437C37.6404 28.0301 37.1707 29.1166 36.7129 30.1952C36.2511 31.2816 35.7773 32.3721 35.3235 33.4585C35.3752 34.6323 35.423 35.8099 35.4748 36.9797L35.6101 39.906C34.8458 40.0607 34.0814 40.2193 33.3131 40.3779L33.2454 35.5125L31.9595 35.7703C31.7844 36.7219 31.6211 37.6696 31.45 38.6134C31.3146 39.3707 31.1713 40.1241 31.0359 40.8735C30.2915 41.044 29.551 41.2146 28.8066 41.389C29.2246 39.0654 29.6466 36.7418 30.0606 34.4181C30.4388 32.2967 30.821 30.1753 31.2111 28.0539C31.9476 27.9231 32.6881 27.7922 33.4325 27.6653C33.2494 28.6527 33.0663 29.6361 32.8951 30.6234C32.7159 31.6147 32.5447 32.5981 32.3537 33.5854ZM22.003 41.1511C22.7714 40.9449 23.5357 40.7427 24.3041 40.5444C24.7897 40.4215 25.2675 40.2272 25.363 39.6879C25.5183 38.8354 25.7253 37.7053 25.8686 36.8726C25.9004 36.6783 25.8845 36.5713 25.8168 36.5514C25.7492 36.5316 25.6178 36.5435 25.4227 36.5871C24.945 36.7021 24.4593 36.829 23.9816 36.948C23.7706 37.0035 23.5636 37.0352 23.3884 37.0511C23.1973 37.0669 23.05 37.0392 22.9187 36.9559C22.7992 36.8805 22.7156 36.7378 22.6679 36.5475C22.6241 36.3571 22.6201 36.0835 22.6838 35.7306C22.8271 34.9178 22.9784 34.1088 23.1257 33.296C23.273 32.4791 23.4243 31.6702 23.5676 30.8574C23.6432 30.4291 23.7905 30.0445 24.0174 29.7074C24.312 29.5171 24.6623 29.3744 25.0684 29.2832C26.3503 29.0056 27.6362 28.7399 28.918 28.4861C28.9141 29.1364 28.918 29.7867 28.922 30.4331L26.2269 31.008C25.582 31.1428 25.4745 31.4283 25.359 32.0707L24.8932 34.656C24.8694 34.7988 24.8853 34.886 24.945 34.9257C25.0047 34.9653 25.1122 34.9614 25.2476 34.9297C25.8407 34.7909 26.418 34.66 27.0191 34.5292C27.461 34.434 27.7835 34.4618 27.9825 34.6243C28.1776 34.7829 28.2214 35.1279 28.1258 35.6593C27.9865 36.4325 27.8472 37.2017 27.7158 37.967C27.5804 38.7363 27.4451 39.5055 27.3057 40.2748C27.2022 40.8497 27.035 41.3216 26.8041 41.6904C26.4618 41.9085 26.0318 42.0829 25.4984 42.2217C24.3439 42.5231 23.1894 42.8363 22.019 43.1654C22.011 42.4914 22.003 41.8212 22.003 41.1511ZM15.7648 43.3399L15.1836 45.2512C14.4152 45.5089 13.6429 45.7666 12.8746 46.0363C13.7424 43.4192 14.6023 40.8101 15.4583 38.2168C16.2465 35.8258 17.0586 33.4387 17.8548 31.0556C18.6829 30.8296 19.5149 30.6155 20.339 30.3974C20.339 32.7052 20.3111 35.0129 20.3071 37.3088C20.3031 39.4302 20.3071 41.5397 20.3151 43.6413C19.6065 43.8514 18.9018 44.0655 18.1972 44.2797L18.2569 42.5548L15.7648 43.3399ZM16.3182 41.4604L18.3286 40.8616L18.6869 33.4387L16.3182 41.4604ZM7.43255 46.0283C7.91823 45.8499 8.39993 45.6675 8.88164 45.4851C9.31159 45.3225 9.80523 45.1917 9.89679 44.6445C10.0521 43.7166 10.279 42.4795 10.4462 41.5476C10.478 41.3811 10.4581 41.274 10.3944 41.2463C10.3148 41.2106 10.2272 41.2225 10.0839 41.274L8.14913 41.9759L7.43255 46.0283ZM13.0099 38.0384C12.9423 38.4072 12.8228 38.7482 12.6397 39.0575L12.6357 39.0654C12.588 39.0971 12.5362 39.1288 12.4805 39.1606C12.5163 39.1487 12.5521 39.1407 12.588 39.1328C12.4008 39.4104 12.1262 39.6602 11.7559 39.8783C12.1421 39.7752 12.4048 39.8188 12.5362 40.021C12.6676 40.2232 12.7034 40.4889 12.6437 40.818C12.5282 41.4604 12.4168 42.1028 12.3013 42.7451C12.1859 43.3875 12.0744 44.0299 11.959 44.6683C11.8316 45.382 11.6126 45.957 11.2981 46.409C10.9637 46.6509 10.5497 46.861 10.0521 47.0474C8.31633 47.6977 6.58061 48.3916 4.84888 49.0935C5.29077 46.5518 5.73266 44.01 6.17853 41.4683C6.59256 39.0931 7.01454 36.71 7.42857 34.3309C9.06874 33.752 10.7129 33.2008 12.361 32.6655C12.9144 32.4871 13.3125 32.5228 13.5394 32.7607C13.7624 33.0025 13.83 33.3991 13.7385 33.9463C13.619 34.6283 13.4877 35.3063 13.3682 35.9884C13.2448 36.6744 13.1334 37.3564 13.0099 38.0384Z" fill="white"/>
<path fill-rule="evenodd" clip-rule="evenodd" d="M41.7489 50.7788C32.0631 52.6068 24.4037 55.1921 24.6385 56.5482C24.754 57.2144 26.7564 57.4603 29.9094 57.3215C20.9243 58.9195 18.6193 56.0447 28.6275 52.6068C32.0392 51.4331 36.5298 50.2673 41.4981 49.3276C46.4664 48.3878 51.0645 47.8406 54.6553 47.6899C65.1891 47.2498 63.9988 50.7868 55.0494 52.5751C58.0471 51.5521 59.8386 50.5885 59.7231 49.9223C59.4803 48.5662 51.4387 48.9509 41.7489 50.7788Z" fill="#155ECD"/>
<path fill-rule="evenodd" clip-rule="evenodd" d="M39.9375 72.092C37.0314 67.873 31.7287 62.0639 26.8042 58.4357C27.3217 58.4 27.8273 58.3445 28.2812 58.289C29.7701 59.4508 31.1992 60.7118 32.5448 62.06C32.8991 61.2392 33.2813 60.4303 33.6874 59.6293C31.661 57.9956 29.5073 56.5641 27.274 55.4301C27.692 55.2477 28.1219 55.0772 28.5558 54.9146C30.6021 55.9892 32.4771 57.2382 34.2089 58.638C34.5871 57.944 34.9812 57.2581 35.3952 56.584C33.9023 55.6482 32.3657 54.8274 30.8131 54.1533C31.3067 53.9986 31.8004 53.8519 32.294 53.7092C33.5401 54.304 34.7543 54.986 35.9287 55.7394C36.4422 54.9543 36.9797 54.185 37.545 53.4435C37.0155 53.1937 36.486 52.9637 35.9565 52.7456C36.5139 52.6108 37.0672 52.48 37.6286 52.357C37.8157 52.4443 38.0068 52.5315 38.1939 52.6227C38.3213 52.4641 38.4526 52.3055 38.584 52.1469C39.1254 52.0279 39.6708 51.9169 40.2162 51.8059C39.842 52.2182 39.4718 52.6465 39.1095 53.0827C40.2759 53.6893 41.4065 54.3674 42.5093 55.1089C43.2856 54.0105 44.1216 52.9597 45.0054 51.9684C44.5197 51.6909 44.03 51.4292 43.5403 51.1794C44.0857 51.0842 44.6351 50.993 45.1805 50.9018C45.3557 51.0009 45.5309 51.1001 45.706 51.2031C45.8493 51.0485 45.9966 50.8978 46.1439 50.7511C46.7092 50.6639 47.2745 50.5846 47.8398 50.5053C47.4139 50.9018 46.9959 51.3142 46.5858 51.7385C47.3661 52.2262 48.1304 52.7496 48.8749 53.2968C49.7189 52.1627 50.6265 51.0802 51.5899 50.0651C52.1035 50.0175 52.617 49.9739 53.1266 49.9382C51.9005 51.1357 50.742 52.4641 49.6592 53.8916C50.2762 54.3714 50.8773 54.867 51.4626 55.3785C52.6091 53.4356 53.9427 51.5798 55.4953 49.8272C55.9571 49.8193 56.4149 49.8232 56.8688 49.8391C55.1609 51.7186 53.6282 53.844 52.2826 56.1161C52.9315 56.7148 53.5645 57.3374 54.1736 57.9718C54.9778 56.2192 55.8934 54.5141 56.8926 52.8844C57.3385 52.7694 57.8282 52.6346 58.3258 52.48C54.6394 58.1423 51.5541 64.9308 50.7977 71.3465C50.941 69.1934 51.1361 66.8143 51.6895 64.7801C50.941 63.8562 50.1409 62.9521 49.3048 62.0798C48.6201 63.7214 48.0269 65.3908 47.5253 67.0562C48.3534 68.2457 49.2571 70.0896 49.9936 71.5527C49.1496 70.3711 48.234 69.1141 47.3064 67.8135C46.9282 69.1458 46.2992 70.9659 45.921 72.4647C46.0643 70.9064 46.4744 68.666 46.7809 67.0998C45.929 65.9618 45.0014 64.8515 44.0181 63.7848C43.4567 65.1449 42.9631 66.5209 42.5491 67.9008C43.3055 69.019 44.1415 70.8588 44.8859 72.3656C44.1057 71.1602 43.1303 69.9072 42.2983 68.7572C41.9679 69.8715 41.3946 71.6162 41.0841 73C41.2592 71.4179 41.4304 69.6494 41.8325 68.1268C40.8014 66.7508 39.6788 65.4027 38.4845 64.1179C37.9948 65.2401 37.5569 66.3781 37.1668 67.5201C38.2058 68.9833 39.1374 70.5099 39.9375 72.092ZM49.6432 61.2907C50.3001 59.7918 51.0286 58.3168 51.8328 56.8933C52.5135 57.496 53.1784 58.1225 53.8193 58.7649C53.0788 60.462 52.4379 62.2027 51.9204 63.9672C51.2038 63.0513 50.4434 62.1551 49.6432 61.2907ZM51.0047 56.1755C50.2205 57.5832 49.5278 59.0345 48.9187 60.5215C48.2021 59.78 47.4577 59.0622 46.6853 58.3723C47.4298 57.0876 48.234 55.8425 49.0899 54.6569C49.7428 55.1406 50.3797 55.6482 51.0047 56.1755ZM48.5922 61.3502C47.9712 62.964 47.4417 64.6175 46.9919 66.3028C46.1718 65.1766 45.288 64.0743 44.3485 63.0156C44.9178 61.711 45.5508 60.4223 46.2395 59.1693C47.0516 59.8672 47.8359 60.5928 48.5922 61.3502ZM43.3095 55.6601C44.233 56.3183 45.1288 57.0241 45.9966 57.7616C46.7013 56.4888 47.4736 55.2556 48.3056 54.074C47.5134 53.5109 46.7052 52.9756 45.8891 52.48C44.9815 53.4792 44.1216 54.5419 43.3095 55.6601ZM38.9144 63.1782C39.3683 62.1948 39.8579 61.2273 40.3794 60.2756C41.4503 61.1955 42.4774 62.171 43.4488 63.1861C42.9273 64.5224 42.4734 65.8745 42.0833 67.2306C41.096 65.815 40.041 64.4589 38.9144 63.1782ZM40.8333 59.4786C41.4304 58.4437 42.0674 57.4325 42.7441 56.461C43.7036 57.1272 44.6431 57.837 45.5508 58.5904C44.8979 59.8275 44.3087 61.0964 43.7752 62.3851C42.8437 61.37 41.8604 60.3985 40.8333 59.4786ZM41.94 55.9178C41.299 56.8734 40.6979 57.8608 40.1366 58.8679C39.0458 57.9361 37.9072 57.0638 36.7288 56.2628C37.2782 55.4459 37.8555 54.6489 38.4526 53.8876C39.635 54.4903 40.8014 55.1684 41.94 55.9178ZM39.6947 59.6927C39.205 60.6206 38.7512 61.5643 38.3292 62.5239C37.2583 61.3542 36.1198 60.2478 34.9095 59.2169C35.3156 58.4952 35.7416 57.7854 36.1874 57.0915C37.3897 57.8885 38.5641 58.7609 39.6947 59.6927ZM37.9112 63.5033C37.4574 64.6056 37.0473 65.7238 36.6851 66.846C35.6022 65.3828 34.4159 63.9871 33.1499 62.6706C33.5321 61.8339 33.9421 61.0052 34.3761 60.1923C35.6062 61.2273 36.7886 62.3415 37.9112 63.5033Z" fill="#155ECD"/>
</svg>
