<svg width="32" height="26" viewBox="0 0 32 26" fill="none" xmlns="http://www.w3.org/2000/svg">
<g id="logo">
<path id="Vector" fill-rule="evenodd" clip-rule="evenodd" d="M4.89528 23.7537C4.68652 24.5539 4.19137 25.3381 3.32687 25.5019C2.97625 25.5691 2.62295 25.5153 2.29642 25.3703C1.60321 25.0615 0.907327 24.3123 0.655738 23.5926C0.519237 23.1978 0.503178 22.7762 0.650385 22.3814C0.987621 21.4764 1.95383 21.1461 2.8451 21.1541L3.49816 20.5875L2.41954 19.7335L2.0261 19.798V13.0628L1.91636 12.95L0 10.9547H5.97658C5.86685 10.2458 5.79993 9.52605 5.80796 8.80634L5.81064 8.51363C4.72131 7.71336 3.63466 6.9104 2.55069 6.09939C2.22416 5.85501 1.89495 5.61063 1.57109 5.36357C1.47206 5.28838 1.19371 5.09234 1.1268 4.99029C1.04115 4.8587 0.95818 4.74591 0.880562 4.60627C0.741385 4.35383 0.642355 4.0826 0.588826 3.80063C0.412178 2.87145 0.773503 2.0121 1.35162 1.29777C1.94045 0.56732 2.7193 0.0543947 3.67213 0.0033708C4.03346 -0.0154275 4.50987 0.0436529 4.84443 0.19941L4.85246 0.202096L4.86049 0.207467C4.93811 0.247749 5.02643 0.322942 5.09334 0.376651C5.22717 0.48407 5.35831 0.591489 5.48946 0.701593C5.94179 1.07756 6.38876 1.45621 6.83573 1.83755C8.25694 3.04601 9.67012 4.26521 11.086 5.48442C11.5972 5.33135 12.1164 5.20244 12.6383 5.09771C13.6393 4.43977 14.8036 4.09334 16 4.09334C17.1991 4.09334 18.3607 4.43977 19.3617 5.09771C19.8836 5.20244 20.4028 5.33135 20.914 5.48442C22.3272 4.26521 23.7431 3.0487 25.1643 1.83755C25.6112 1.45621 26.0582 1.07756 26.5105 0.701593C26.6417 0.591489 26.7728 0.48407 26.9067 0.376651C26.9736 0.322942 27.0646 0.247749 27.1395 0.207467L27.1475 0.202096L27.1556 0.19941C27.4901 0.0436529 27.9665 -0.0154275 28.3279 0.0033708C29.2807 0.0517093 30.0596 0.56732 30.6484 1.29777C31.2238 2.0121 31.5851 2.87145 31.4112 3.80063C31.3576 4.0826 31.2559 4.35383 31.1194 4.60627C31.0418 4.74591 30.9615 4.8587 30.8732 4.99029C30.8063 5.09234 30.5279 5.28838 30.4289 5.36357C30.1051 5.61063 29.7785 5.85501 29.4493 6.09939C28.3653 6.90772 27.2787 7.71067 26.1894 8.51363L26.192 8.80634C26.2001 9.52337 26.1332 10.2431 26.0234 10.9547H32L30.0836 12.95L29.9739 13.0628V19.8732L29.6286 19.8168L28.6865 20.7486L29.1549 21.1568C30.0462 21.1488 31.0124 21.4791 31.3496 22.3841C31.4968 22.7789 31.4808 23.2005 31.3443 23.5952C31.0927 24.3123 30.3968 25.0642 29.7036 25.373C29.3771 25.518 29.0238 25.5717 28.6731 25.5046C27.8086 25.3408 27.3135 24.5539 27.1047 23.7564C26.8719 23.6167 26.6444 23.4663 26.4169 23.3159C26.0154 23.0528 25.6193 22.7815 25.2232 22.5103C24.2891 21.8712 23.363 21.2186 22.4396 20.566V21.1541L22.0703 21.4173L21.8187 21.5972L21.5269 21.8067L21.171 21.7503C20.9542 21.7154 20.7347 21.6832 20.5179 21.6536C19.3376 22.7305 18.0074 23.6248 16.5754 24.3311L16 24.6157L15.4246 24.3311C14.0033 23.6301 12.6812 22.7439 11.5062 21.6778C11.4125 21.6912 11.3188 21.7047 11.2278 21.7208L10.2108 21.8792V20.3566C10.1653 20.3028 10.1198 20.2518 10.0743 20.1981C9.00636 20.9554 7.93844 21.7073 6.85982 22.4485C6.44764 22.7332 6.03011 23.0152 5.61258 23.2918C5.37705 23.4502 5.13884 23.606 4.89528 23.7537Z" fill="white"/>
<path id="Vector_2" fill-rule="evenodd" clip-rule="evenodd" d="M6.15053 8.30423L6.14518 8.8091C6.13447 9.79735 6.27098 10.8017 6.46636 11.7658C6.66442 12.7541 6.93207 13.7343 7.27733 14.6822C8.78954 18.8393 11.6052 22.0673 15.5717 24.025L16 24.2344L16.4282 24.025C20.3948 22.0673 23.2104 18.8393 24.7226 14.6822C25.0679 13.7343 25.3355 12.7541 25.5336 11.7658C25.729 10.799 25.8628 9.79467 25.8548 8.8091L25.8494 8.30423L25.4346 8.01957C19.8033 4.13638 12.1967 4.13638 6.56539 8.01957L6.15053 8.30423Z" fill="#081329"/>
<path id="Vector_3" fill-rule="evenodd" clip-rule="evenodd" d="M7.28534 8.91103C7.28534 9.79186 7.41113 10.6808 7.5851 11.5401C7.77246 12.4746 8.02405 13.3958 8.35058 14.29C9.75038 18.1437 12.3385 21.1299 16 22.9614C19.6614 21.1326 22.2495 18.1437 23.652 14.2927C23.9785 13.3984 24.2301 12.4746 24.4175 11.5428C24.5915 10.6834 24.7173 9.79186 24.7173 8.91371C19.5035 5.36352 12.4964 5.36352 7.28534 8.91103Z" fill="#C10F18"/>
<path id="Vector_4" fill-rule="evenodd" clip-rule="evenodd" d="M27.2975 0.508115C27.2975 0.508115 28.9596 -0.25993 30.3861 1.5098C31.8127 3.27952 30.7394 4.57929 30.5922 4.7995C30.445 5.01971 7.71633 21.7045 4.60091 23.5333C4.29847 24.9164 3.35099 25.4642 2.43564 25.0587C1.83075 24.7901 1.19643 24.1107 0.976955 23.4796C0.607601 22.4216 1.38913 21.4199 2.96826 21.4978C2.96826 21.4978 26.7408 0.803517 27.2975 0.508115Z" fill="#081329"/>
<path id="Vector_5" fill-rule="evenodd" clip-rule="evenodd" d="M27.5891 1.37012C27.5891 1.37012 27.5035 3.94548 30.0113 4.45841C30.0113 4.45841 29.2405 4.97402 28.202 4.11467C28.202 4.11467 28.459 4.75918 28.815 4.95791C28.815 4.95791 27.4821 4.50138 27.0057 3.26337C27.0057 3.26337 27.0833 3.82195 27.2626 4.10124C27.2626 4.10124 5.70355 21.6642 3.70689 22.6793C3.70689 22.6793 3.37501 22.7948 3.19033 22.7008C3.19033 22.7008 3.83804 23.1949 3.72563 23.5951C3.61054 23.9952 3.1261 24.159 3.01368 24.1375C2.8986 24.1161 2.03677 23.2997 2.17862 22.5289C2.17862 22.5289 2.34189 22.9801 2.81295 23.3024C2.81295 23.3024 2.192 22.102 2.71927 21.8656C2.71927 21.8656 2.69786 22.1664 2.97621 22.3812C2.97621 22.3812 26.4704 1.85887 27.5891 1.37012Z" fill="#BEC1C6"/>
<path id="Vector_6" fill-rule="evenodd" clip-rule="evenodd" d="M27.7337 4.30004L12.1324 16.7042L28.2422 4.67601L27.9558 4.09326L27.7337 4.30004Z" fill="#BEC1C6"/>
<path id="Vector_7" fill-rule="evenodd" clip-rule="evenodd" d="M3.1904 22.7035C3.1904 22.7035 3.77654 24.1886 2.56678 23.7106C2.32857 23.399 2.10107 22.9586 2.17869 22.5316C2.17869 22.5316 2.34195 22.9828 2.81301 23.305C2.81301 23.305 2.19207 22.1046 2.71934 21.8683C2.71934 21.8683 2.69792 22.1691 2.97628 22.3839C2.97628 22.3839 26.4704 1.86156 27.5892 1.37549C27.5892 1.37549 27.5785 1.70043 27.6775 2.14085C27.6775 2.13816 3.55172 22.0107 3.1904 22.7035Z" fill="white"/>
<path id="Vector_8" fill-rule="evenodd" clip-rule="evenodd" d="M4.70256 0.508115C4.70256 0.508115 3.04047 -0.25993 1.61658 1.5098C0.190015 3.27952 1.26328 4.57929 1.41049 4.7995C1.5577 5.01971 24.2864 21.7045 27.4018 23.5333C27.7042 24.9164 28.6517 25.4642 29.5671 25.0587C30.1719 24.7901 30.8063 24.1107 31.0257 23.4796C31.3951 22.4216 30.6136 21.4199 29.0344 21.4978C29.0344 21.4978 5.26195 0.803517 4.70256 0.508115Z" fill="#081329"/>
<path id="Vector_9" fill-rule="evenodd" clip-rule="evenodd" d="M4.41092 1.37012C4.41092 1.37012 4.49657 3.94548 1.98871 4.45841C1.98871 4.45841 2.75953 4.97402 3.79801 4.11467C3.79801 4.11467 3.54107 4.75918 3.18509 4.95791C3.18509 4.95791 4.51798 4.50138 4.9944 3.26337C4.9944 3.26337 4.91678 3.82195 4.73745 4.10124C4.73745 4.10124 26.2965 21.6642 28.2932 22.6793C28.2932 22.6793 28.625 22.7948 28.8097 22.7008C28.8097 22.7008 28.162 23.1949 28.2744 23.5951C28.3895 23.9952 28.874 24.159 28.9864 24.1375C29.1015 24.1161 29.9633 23.2997 29.8214 22.5289C29.8214 22.5289 29.6582 22.9801 29.1871 23.3024C29.1871 23.3024 29.808 22.102 29.2808 21.8656C29.2808 21.8656 29.3022 22.1664 29.0238 22.3812C29.0238 22.3812 5.52969 1.85887 4.41092 1.37012Z" fill="#BEC1C6"/>
<path id="Vector_10" fill-rule="evenodd" clip-rule="evenodd" d="M4.26629 4.30004L19.8675 16.7042L3.76044 4.67601L4.04682 4.09326L4.26629 4.30004Z" fill="#BEC1C6"/>
<path id="Vector_11" fill-rule="evenodd" clip-rule="evenodd" d="M28.8097 22.7035C28.8097 22.7035 28.2236 24.1886 29.4334 23.7106C29.6716 23.399 29.8991 22.9586 29.8215 22.5316C29.8215 22.5316 29.6582 22.9828 29.1871 23.305C29.1871 23.305 29.8081 22.1046 29.2808 21.8683C29.2808 21.8683 29.3022 22.1691 29.0239 22.3839C29.0239 22.3839 5.52972 1.86156 4.41096 1.37549C4.41096 1.37549 4.42166 1.70043 4.32263 2.14085C4.32531 2.13816 28.4484 22.0107 28.8097 22.7035Z" fill="white"/>
<path id="Vector_12" fill-rule="evenodd" clip-rule="evenodd" d="M16 4.77295C19.0191 4.77295 21.4681 7.23016 21.4681 10.2594C21.4681 13.2886 19.0191 15.7458 16 15.7458C12.981 15.7458 10.532 13.2886 10.532 10.2594C10.532 7.23016 12.981 4.77295 16 4.77295Z" fill="#BEC1C6"/>
<path id="Vector_13" fill-rule="evenodd" clip-rule="evenodd" d="M16 4.77295C17.6889 4.77295 19.1984 5.54099 20.1994 6.74677C20.1994 6.77631 20.1994 6.80854 20.1994 6.83808C20.1994 9.45373 18.3179 11.5726 15.9974 11.5726C13.6769 11.5726 11.7953 9.45373 11.7953 6.83808C11.7953 6.80854 11.7953 6.77631 11.7953 6.74677C12.8043 5.54099 14.3112 4.77295 16 4.77295Z" fill="white"/>
<path id="Vector_14" fill-rule="evenodd" clip-rule="evenodd" d="M19.6267 6.62054C18.6979 5.68869 17.4159 5.11399 16 5.11399C14.5842 5.11399 13.3021 5.68869 12.3734 6.62054C11.4447 7.5524 10.8719 8.83874 10.8719 10.2594C10.8719 11.68 11.4447 12.9663 12.3734 13.8982C13.3021 14.83 14.5842 15.4047 16 15.4047C17.4159 15.4047 18.6979 14.83 19.6267 13.8982C20.5554 12.969 21.1282 11.6827 21.1282 10.2594C21.1282 8.83874 20.5554 7.5524 19.6267 6.62054ZM16 4.43457C17.6033 4.43457 19.0566 5.08714 20.1058 6.14253C21.1576 7.19792 21.8053 8.65345 21.8053 10.262C21.8053 11.8706 21.1549 13.3289 20.1058 14.3816C19.0566 15.4343 17.6033 16.0868 16 16.0868C14.3968 16.0868 12.9435 15.4343 11.8943 14.3816C10.8425 13.3262 10.1921 11.8706 10.1921 10.262C10.1921 8.65345 10.8425 7.19523 11.8943 6.14253C12.9462 5.08714 14.3968 4.43457 16 4.43457Z" fill="#081329"/>
<path id="Vector_15" fill-rule="evenodd" clip-rule="evenodd" d="M19.3403 5.87882C19.3992 5.80632 19.5062 5.79826 19.5785 5.85734C19.6507 5.91642 19.6588 6.02384 19.5999 6.09635C19.5892 6.10709 16.1044 10.2078 19.6802 14.3354C19.7417 14.4052 19.7337 14.5126 19.6641 14.5744C19.5945 14.6361 19.4875 14.6281 19.4259 14.5583C15.6601 10.2105 19.3322 5.89225 19.3403 5.87882Z" fill="#081329"/>
<path id="Vector_16" fill-rule="evenodd" clip-rule="evenodd" d="M18.5186 6.05097C18.4731 5.9704 18.5026 5.86567 18.5855 5.82002C18.6658 5.77436 18.7702 5.8039 18.8157 5.88715L19.1289 6.4511L19.6186 6.45379C19.7123 6.45379 19.7873 6.53167 19.7873 6.62297C19.7873 6.71696 19.7123 6.79216 19.6186 6.79216L19.0352 6.78679C18.9736 6.78947 18.9121 6.75725 18.8826 6.70085L18.5186 6.05097Z" fill="#081329"/>
<path id="Vector_17" fill-rule="evenodd" clip-rule="evenodd" d="M18.2028 6.60419C18.1573 6.52094 18.1868 6.41889 18.2697 6.37324C18.35 6.32759 18.4544 6.35713 18.4999 6.44038L18.8131 7.00432L19.3029 7.00701C19.3965 7.00701 19.4715 7.08489 19.4715 7.1762C19.4715 7.27019 19.3939 7.34538 19.3029 7.34538L18.7194 7.34001C18.6578 7.34269 18.5963 7.31047 18.5668 7.25407L18.2028 6.60419Z" fill="#081329"/>
<path id="Vector_18" fill-rule="evenodd" clip-rule="evenodd" d="M17.9351 7.17353C17.8896 7.09296 17.919 6.98823 18.002 6.94257C18.0849 6.89692 18.1866 6.92646 18.2321 7.00971L18.5453 7.57366L19.0351 7.57635C19.1288 7.57635 19.2037 7.65422 19.2037 7.74553C19.2037 7.83952 19.1261 7.91472 19.0351 7.91472L18.4516 7.90934C18.3901 7.91203 18.3285 7.8798 18.2991 7.82341L17.9351 7.17353Z" fill="#081329"/>
<path id="Vector_19" fill-rule="evenodd" clip-rule="evenodd" d="M17.7263 7.73236C17.6808 7.6518 17.7103 7.54707 17.7932 7.50141C17.8735 7.45576 17.9779 7.4853 18.0234 7.56855L18.3366 8.1325L18.8264 8.13518C18.92 8.13518 18.995 8.21306 18.995 8.30437C18.995 8.39836 18.9174 8.47355 18.8264 8.47355L18.2429 8.46818C18.1813 8.47087 18.1198 8.43864 18.0903 8.38225L17.7263 7.73236Z" fill="#081329"/>
<path id="Vector_20" fill-rule="evenodd" clip-rule="evenodd" d="M17.5551 8.34174C17.5096 8.26117 17.539 8.15644 17.6193 8.11079C17.7023 8.06513 17.804 8.09467 17.8495 8.17792L18.1626 8.74187L18.6524 8.74456C18.7461 8.74456 18.8211 8.82244 18.8211 8.91374C18.8211 9.00774 18.7434 9.08293 18.6524 9.08293L18.069 9.07756C18.0074 9.08024 17.9458 9.04802 17.9164 8.99162L17.5551 8.34174Z" fill="#081329"/>
<path id="Vector_21" fill-rule="evenodd" clip-rule="evenodd" d="M17.3784 9.12296C17.3195 9.05045 17.3275 8.94303 17.3998 8.88395C17.4721 8.82487 17.5791 8.83293 17.638 8.90544L18.0261 9.37002L18.5025 9.25186C18.5935 9.23038 18.6845 9.28409 18.7086 9.37539C18.73 9.4667 18.6765 9.558 18.5855 9.58217L18.0127 9.7245C17.9512 9.7433 17.8816 9.7245 17.8361 9.67079L17.3784 9.12296Z" fill="#081329"/>
<path id="Vector_22" fill-rule="evenodd" clip-rule="evenodd" d="M17.298 9.86176C17.2365 9.78925 17.2445 9.68452 17.3168 9.62275C17.389 9.56099 17.4934 9.56905 17.555 9.64155L17.9457 10.0981L18.4195 9.96918C18.5105 9.94501 18.6015 9.99872 18.6282 10.09C18.6523 10.1813 18.5988 10.2726 18.5078 10.2968L17.9297 10.4526C17.8681 10.4687 17.8012 10.4499 17.7584 10.3989L17.298 9.86176Z" fill="#081329"/>
<path id="Vector_23" fill-rule="evenodd" clip-rule="evenodd" d="M17.3249 10.7669C17.2526 10.7078 17.2419 10.6004 17.3008 10.5279C17.3597 10.4554 17.4668 10.4446 17.539 10.5037L17.9806 10.8609L18.4303 10.6299C18.5133 10.587 18.615 10.6192 18.6578 10.7024C18.7006 10.7857 18.6685 10.8877 18.5855 10.9307L18.0449 11.2073C17.986 11.2395 17.9111 11.2368 17.8548 11.1912L17.3249 10.7669Z" fill="#081329"/>
<path id="Vector_24" fill-rule="evenodd" clip-rule="evenodd" d="M17.44 11.6556C17.357 11.6126 17.3276 11.5079 17.3704 11.4273C17.4132 11.3441 17.5176 11.3145 17.5979 11.3575L18.077 11.6126L18.4918 11.2877C18.5641 11.2313 18.6711 11.242 18.73 11.3172C18.7862 11.3897 18.7755 11.4972 18.7006 11.5562L18.1974 11.951C18.1466 11.9913 18.0743 11.9993 18.0127 11.9671L17.44 11.6556Z" fill="#081329"/>
<path id="Vector_25" d="M17.6916 12.5364C17.6006 12.5149 17.5444 12.4236 17.5658 12.3323C17.5872 12.241 17.6782 12.1846 17.7692 12.2061L18.2777 12.3296L18.639 11.8919C18.6979 11.8194 18.805 11.8086 18.8772 11.8704C18.9495 11.9295 18.9602 12.0369 18.8987 12.1094L18.4704 12.6277C18.4303 12.6761 18.366 12.7002 18.2991 12.6841L17.6916 12.5364Z" fill="#01152A"/>
<path id="Vector_26" d="M17.9752 13.1591C17.8815 13.1483 17.8146 13.0651 17.8253 12.9711C17.836 12.8771 17.919 12.81 18.0127 12.8207L18.5319 12.8798L18.8585 12.3937C18.912 12.3158 19.0164 12.2943 19.094 12.3481C19.1716 12.4018 19.193 12.5065 19.1395 12.5844L18.7541 13.1564C18.7193 13.2074 18.6604 13.2369 18.5962 13.2316L17.9752 13.1591Z" fill="#01152A"/>
<path id="Vector_27" d="M18.3687 13.8497C18.2751 13.8524 18.1974 13.7772 18.1948 13.6832C18.1921 13.5892 18.267 13.5113 18.3607 13.5086L18.8853 13.4952L19.1744 12.9608C19.2199 12.8775 19.3216 12.848 19.4045 12.891C19.4875 12.9366 19.517 13.0387 19.4741 13.1219L19.1369 13.7422C19.1101 13.7933 19.0539 13.8309 18.9924 13.8309L18.3687 13.8497Z" fill="#01152A"/>
<path id="Vector_28" d="M18.7274 14.3412C18.6337 14.3546 18.5507 14.2875 18.5374 14.1962C18.524 14.1022 18.5909 14.0189 18.6819 14.0055L19.2065 13.9357L19.4607 13.3664C19.4982 13.2804 19.5999 13.2428 19.6856 13.2804C19.7712 13.318 19.8087 13.4201 19.7712 13.506L19.4768 14.1613C19.4527 14.2123 19.4045 14.2526 19.3456 14.2606L18.7274 14.3412Z" fill="#01152A"/>
<path id="Vector_29" fill-rule="evenodd" clip-rule="evenodd" d="M12.6731 6.09976C12.6115 6.02994 12.6169 5.92252 12.6865 5.86075C12.7561 5.79899 12.8631 5.80436 12.9247 5.87418C12.9354 5.88761 16.8886 10.2112 12.8337 14.5617C12.7694 14.6315 12.6624 14.6342 12.5955 14.5697C12.5259 14.5053 12.5232 14.3979 12.5874 14.3307C16.4282 10.2085 12.6838 6.11319 12.6731 6.09976Z" fill="#081329"/>
<path id="Vector_30" fill-rule="evenodd" clip-rule="evenodd" d="M13.5216 5.8793C13.5697 5.79873 13.6741 5.77188 13.7544 5.82022C13.8347 5.86855 13.8615 5.97329 13.8133 6.05385L13.4252 6.70374C13.3931 6.75745 13.3342 6.78699 13.2753 6.78699L12.649 6.79236C12.5553 6.79236 12.4804 6.71716 12.4804 6.62317C12.4804 6.52918 12.5553 6.45399 12.649 6.45399L13.187 6.4513L13.5216 5.8793Z" fill="#081329"/>
<path id="Vector_31" fill-rule="evenodd" clip-rule="evenodd" d="M13.8588 6.43252C13.907 6.35196 14.0114 6.3251 14.0917 6.37344C14.172 6.42178 14.1988 6.52651 14.1506 6.60707L13.7625 7.25696C13.7304 7.31067 13.6715 7.34021 13.6126 7.34021L12.9863 7.34558C12.8926 7.34558 12.8177 7.27039 12.8177 7.1764C12.8177 7.0824 12.8926 7.00721 12.9863 7.00721L13.5243 7.00452L13.8588 6.43252Z" fill="#081329"/>
<path id="Vector_32" fill-rule="evenodd" clip-rule="evenodd" d="M14.1479 7.0043C14.1961 6.92373 14.3005 6.89688 14.3808 6.94522C14.461 6.99355 14.4878 7.09829 14.4396 7.17885L14.0515 7.82874C14.0194 7.88245 13.9605 7.91199 13.9017 7.91199L13.2754 7.91736C13.1817 7.91736 13.1068 7.84216 13.1068 7.74817C13.1068 7.65418 13.1817 7.57899 13.2754 7.57899L13.8133 7.5763L14.1479 7.0043Z" fill="#081329"/>
<path id="Vector_33" fill-rule="evenodd" clip-rule="evenodd" d="M14.3726 7.56313C14.4208 7.48257 14.5252 7.45572 14.6055 7.50405C14.6858 7.55239 14.7125 7.65713 14.6644 7.73769L14.2763 8.38757C14.2442 8.44128 14.1853 8.47082 14.1264 8.47082L13.5001 8.47619C13.4064 8.47619 13.3315 8.401 13.3315 8.30701C13.3315 8.21302 13.4064 8.13783 13.5001 8.13783L14.0381 8.13514L14.3726 7.56313Z" fill="#081329"/>
<path id="Vector_34" fill-rule="evenodd" clip-rule="evenodd" d="M14.5547 8.17251C14.6029 8.09195 14.7073 8.06509 14.7876 8.11343C14.8678 8.16177 14.8946 8.2665 14.8464 8.34706L14.4583 8.99695C14.4262 9.05066 14.3673 9.0802 14.3085 9.0802L13.6822 9.08557C13.5885 9.08557 13.5135 9.01038 13.5135 8.91639C13.5135 8.82239 13.5885 8.7472 13.6822 8.7472L14.2201 8.74452L14.5547 8.17251Z" fill="#081329"/>
<path id="Vector_35" fill-rule="evenodd" clip-rule="evenodd" d="M14.7849 8.90006C14.8465 8.83024 14.9535 8.82487 15.0231 8.88663C15.0927 8.9484 15.0981 9.05582 15.0365 9.12564L14.5467 9.67079C14.5012 9.71913 14.437 9.73793 14.3754 9.72182L13.7598 9.57949C13.6688 9.558 13.6126 9.4667 13.6313 9.37539C13.6528 9.28408 13.7438 9.22769 13.8348 9.24649L14.3593 9.37002L14.7849 8.90006Z" fill="#081329"/>
<path id="Vector_36" fill-rule="evenodd" clip-rule="evenodd" d="M14.8732 9.636C14.9375 9.56618 15.0445 9.5635 15.1115 9.62795C15.181 9.6924 15.1837 9.79982 15.1195 9.86695L14.6243 10.404C14.5815 10.4497 14.5173 10.4685 14.4611 10.4524L13.8401 10.2966C13.7491 10.2751 13.6929 10.1812 13.717 10.0898C13.7384 9.99854 13.8321 9.94215 13.9231 9.96632L14.4477 10.0979L14.8732 9.636Z" fill="#081329"/>
<path id="Vector_37" fill-rule="evenodd" clip-rule="evenodd" d="M14.8919 10.4983C14.9669 10.4419 15.0713 10.4581 15.1275 10.5332C15.1837 10.6084 15.1676 10.7132 15.0927 10.7696L14.5279 11.1966C14.4771 11.2368 14.4102 11.2395 14.354 11.2154L13.7651 10.9361C13.6795 10.8958 13.6447 10.7937 13.6848 10.7105C13.725 10.6245 13.8267 10.5896 13.9097 10.6299L14.4075 10.8662L14.8919 10.4983Z" fill="#081329"/>
<path id="Vector_38" fill-rule="evenodd" clip-rule="evenodd" d="M14.825 11.3548C14.908 11.3145 15.0097 11.3468 15.0525 11.4327C15.0926 11.5159 15.0605 11.618 14.9749 11.661L14.3566 11.9698C14.2977 11.9993 14.2308 11.9913 14.1826 11.9537L13.642 11.5589C13.567 11.5052 13.5483 11.3978 13.6045 11.3226C13.658 11.2474 13.7651 11.2286 13.84 11.285L14.2977 11.618L14.825 11.3548Z" fill="#081329"/>
<path id="Vector_39" d="M14.6324 12.2062C14.7234 12.1847 14.8144 12.2438 14.8358 12.3351C14.8572 12.4264 14.7983 12.5177 14.7073 12.5392L14.0489 12.6869C13.9847 12.7003 13.9205 12.6762 13.8803 12.6305L13.4253 12.1149C13.3637 12.0451 13.3691 11.9377 13.4387 11.8759C13.5083 11.8141 13.6153 11.8195 13.6769 11.8893L14.0703 12.3324L14.6324 12.2062Z" fill="#01152A"/>
<path id="Vector_40" d="M14.37 12.8238C14.4637 12.8131 14.5466 12.8829 14.5547 12.9742C14.5627 13.0682 14.4958 13.1515 14.4048 13.1595L13.7357 13.2294C13.6741 13.2347 13.6152 13.2079 13.5804 13.1595L13.1682 12.5902C13.1147 12.515 13.1308 12.4076 13.2057 12.3539C13.2807 12.3002 13.3877 12.3163 13.4412 12.3915L13.7972 12.8829L14.37 12.8238Z" fill="#01152A"/>
<path id="Vector_41" d="M13.9927 13.5085C14.0864 13.5112 14.1586 13.589 14.1586 13.683C14.156 13.777 14.0783 13.8495 13.9847 13.8495L13.3155 13.8334C13.254 13.8307 13.2031 13.7985 13.1737 13.7475L12.815 13.1271C12.7669 13.0466 12.7963 12.9418 12.8766 12.8962C12.9569 12.8478 13.0613 12.8774 13.1068 12.9579L13.4199 13.4977L13.9927 13.5085Z" fill="#01152A"/>
<path id="Vector_42" d="M13.6421 14.0026C13.7358 14.0133 13.8 14.0992 13.7893 14.1932C13.7786 14.2872 13.693 14.3517 13.5993 14.3409L12.9328 14.2577C12.8686 14.2496 12.8177 14.2093 12.7963 14.1529L12.4859 13.5084C12.4457 13.4252 12.4805 13.3231 12.5635 13.2829C12.6465 13.2426 12.7482 13.2775 12.7883 13.3607L13.064 13.9301L13.6421 14.0026Z" fill="#01152A"/>
<path id="Vector_43" fill-rule="evenodd" clip-rule="evenodd" d="M24.1098 11.2932H25.6648C25.9619 11.2932 26.2616 11.2932 26.5587 11.2932C26.7648 11.2932 26.9709 11.2932 27.1797 11.2932H28.0147C28.4242 11.2932 28.8337 11.2932 29.2432 11.2932H31.2078L29.8454 12.7138C29.824 12.738 29.7999 12.7595 29.7785 12.7836L29.642 12.926V13.1247C29.642 13.4094 29.642 13.694 29.642 13.9787V15.7941C29.642 16.2425 29.642 16.691 29.642 17.1395C29.642 17.4053 29.642 17.6712 29.642 17.9371V19.4732L29.5189 19.4517L28.5661 20.3943L28.4644 20.3674C26.5775 19.884 24.6611 19.5161 22.7287 19.2691C16.3373 18.4581 9.99132 19.0139 3.69356 20.2278L3.61059 20.2439L2.51323 19.3765L2.36335 19.4007V18.4178C2.36335 17.4456 2.36335 16.4735 2.36335 15.5013C2.36335 14.7091 2.36335 13.9169 2.36335 13.1247V12.926L2.22685 12.7836C2.20544 12.7595 2.18135 12.738 2.15994 12.7138L0.797607 11.2932H2.76214C3.65609 11.2932 4.55003 11.2932 5.44398 11.2932H6.0328C6.92675 11.2932 7.82069 11.2932 8.71464 11.2932H9.30346C10.2911 11.2932 11.276 11.2932 12.2637 11.2932H12.5768C13.5778 11.2932 14.5788 11.2932 15.5798 11.2932H15.8475C16.7414 11.2932 17.638 11.2932 18.532 11.2932H19.1208C20.0147 11.2932 20.9087 11.2932 21.8026 11.2932H22.3915C22.8946 11.2932 23.4005 11.2932 23.9037 11.2932H24.1098Z" fill="#081329"/>
<path id="Vector_44" d="M25.6648 12.1309C26.168 12.1309 26.6738 12.1309 27.177 12.1309C27.177 12.9741 27.177 13.8173 27.177 14.6606C27.177 15.5038 27.177 16.3444 27.177 17.1876C27.359 17.2118 27.541 17.2386 27.7257 17.2628C27.7257 17.0882 27.7257 16.9137 27.7257 16.7391C28.1164 16.3927 28.4724 16.0758 28.8016 15.7938C28.8016 16.2423 28.8016 16.6908 28.8016 17.1393C28.8016 17.5877 28.8016 18.0362 28.8016 18.4847C27.8996 18.337 27.003 18.192 26.1037 18.0631C26.1037 17.1446 26.1037 16.2262 26.1037 15.3105C26.1037 14.392 26.1037 13.4736 26.1037 12.5552C25.9565 12.4155 25.8093 12.2732 25.6648 12.1309ZM22.3915 12.1309C22.8946 12.1309 23.4005 12.1309 23.9037 12.1309C23.9037 12.915 23.9037 13.6992 23.9037 14.4806C23.9037 15.2648 23.9037 16.0463 23.9037 16.8304C24.0857 16.8492 24.2677 16.8653 24.4523 16.8841C24.4523 16.723 24.4523 16.5619 24.4523 16.3981C24.8431 16.0678 25.2018 15.767 25.5283 15.5011C25.5283 15.9147 25.5283 16.3283 25.5283 16.7418C25.5283 17.1554 25.5283 17.5689 25.5283 17.9798C24.6263 17.8724 23.7297 17.7677 22.8304 17.6817C22.8304 16.8224 22.8304 15.963 22.8304 15.1064C22.8304 14.247 22.8304 13.3877 22.8304 12.5283C22.6832 12.3967 22.536 12.2624 22.3915 12.1309ZM20.633 13.0439C20.633 13.3796 20.633 13.7153 20.633 14.051C20.633 14.059 20.815 14.2202 21.1817 14.5344C21.1817 14.2873 21.1817 14.0402 21.1817 13.7932C21.1817 13.5461 21.1817 13.299 21.1817 13.052C20.997 13.0466 20.815 13.0439 20.633 13.0439ZM19.1208 12.1309C20.0147 12.1309 20.906 12.1309 21.8026 12.1309C21.816 12.1309 21.9659 12.2624 22.2576 12.5256C22.2576 13.3769 22.2576 14.2282 22.2576 15.0795C22.2576 15.9308 22.2576 16.7794 22.2576 17.6307C21.899 17.6038 21.5377 17.577 21.1817 17.5501C21.1817 17.2279 21.1817 16.9083 21.1817 16.5861C21.1817 16.2638 21.1817 15.9415 21.1817 15.6193C21.1817 15.6085 20.9997 15.4447 20.633 15.1278C20.633 15.5253 20.633 15.9227 20.633 16.3175C20.633 16.715 20.633 17.1124 20.633 17.5072C20.2744 17.4884 19.9157 17.4696 19.5597 17.4508C19.5597 16.629 19.5597 15.8046 19.5597 14.9828C19.5597 14.1611 19.5597 13.3366 19.5597 12.5149C19.4125 12.386 19.2653 12.2598 19.1208 12.1309ZM17.3597 15.05C17.3597 15.289 17.3597 15.528 17.3597 15.767C17.3597 16.006 17.3597 16.245 17.3597 16.484C17.5417 16.4867 17.7237 16.4921 17.9083 16.4974C17.9083 16.1698 17.9083 15.8422 17.9083 15.5146C17.9083 15.5038 17.7263 15.3481 17.3597 15.05ZM17.3597 13.0197C17.3597 13.3474 17.3597 13.6723 17.3597 13.9999C17.3597 14.008 17.4105 14.0483 17.5069 14.1235C17.5176 14.1235 17.6514 14.0134 17.9083 13.7932C17.9083 13.538 17.9083 13.2802 17.9083 13.0224C17.7237 13.0224 17.5417 13.0197 17.3597 13.0197ZM15.8475 12.1309C16.7414 12.1309 17.6353 12.1309 18.532 12.1309C18.5427 12.1309 18.6926 12.2571 18.9843 12.5095C18.9843 12.7512 18.9843 12.9929 18.9843 13.2346C18.9843 13.4763 18.9843 13.718 18.9843 13.9597C18.7033 14.1933 18.4222 14.4269 18.1412 14.6606C18.4222 14.9023 18.7033 15.144 18.9843 15.3857C18.9843 15.6623 18.9843 15.9389 18.9843 16.2155C18.9843 16.4921 18.9843 16.7687 18.9843 17.0453C18.9843 17.0533 18.8344 17.1769 18.532 17.4078C17.7826 17.3836 17.0358 17.3702 16.2864 17.3622C16.2864 16.5538 16.2864 15.7455 16.2864 14.9372C16.2864 14.1288 16.2864 13.3178 16.2864 12.5095C16.1392 12.3806 15.992 12.2571 15.8475 12.1309ZM12.5768 12.1309C13.6206 12.1309 14.6671 12.1309 15.7136 12.1309C15.7136 12.5015 15.7136 12.8694 15.7136 13.24C15.7136 13.6079 15.7136 13.9785 15.7136 14.3464C15.3095 14.0268 14.9508 13.7314 14.6377 13.4629C14.6377 13.3152 14.6377 13.1675 14.6377 13.0197C14.453 13.0197 14.271 13.0197 14.089 13.0197C14.089 13.4521 14.089 13.8818 14.089 14.3141C14.3272 14.3115 14.5681 14.3115 14.809 14.3088C14.8197 14.3088 14.999 14.4565 15.3443 14.7492C15.165 14.8942 14.9856 15.0419 14.809 15.1869C14.5681 15.1896 14.3272 15.1896 14.089 15.1923C14.089 15.6247 14.089 16.0543 14.089 16.4867C14.271 16.484 14.453 16.4813 14.6377 16.4786C14.6377 16.3309 14.6377 16.1832 14.6377 16.0355C15.0285 15.6998 15.3844 15.4018 15.7136 15.1413C15.7136 15.5119 15.7136 15.8798 15.7136 16.2477C15.7136 16.6156 15.7136 16.9862 15.7136 17.3541C14.8117 17.3648 13.915 17.381 13.0157 17.4105C13.0157 16.5941 13.0157 15.775 13.0157 14.9587C13.0157 14.1423 13.0157 13.3232 13.0157 12.5068C12.8685 12.3833 12.7213 12.2598 12.5768 12.1309ZM9.30346 12.1309C10.3473 12.1309 11.3938 12.1309 12.4403 12.1309C12.4403 12.5068 12.4403 12.8801 12.4403 13.2561C12.4403 13.6294 12.4403 14.0053 12.4403 14.3786C12.0361 14.059 11.6802 13.7636 11.367 13.4951C11.367 13.3447 11.367 13.1916 11.367 13.0412C11.1824 13.0439 10.9977 13.0439 10.8157 13.0466C10.8157 13.3823 10.8157 13.7207 10.8157 14.0563C11.086 14.2819 11.3563 14.5075 11.6293 14.7304C11.8996 14.9533 12.17 15.1735 12.443 15.3937C12.443 15.6703 12.443 15.9496 12.443 16.2262C12.443 16.5028 12.443 16.7821 12.443 17.0587C12.443 17.0668 12.2931 17.201 11.9906 17.4615C11.2412 17.5018 10.4945 17.5528 9.74508 17.6092C9.74508 17.2225 9.74508 16.8358 9.74508 16.4491C9.74508 16.0624 9.74508 15.6757 9.74508 15.289C10.1466 15.6059 10.5052 15.8959 10.8184 16.1564C10.8184 16.3095 10.8184 16.4625 10.8184 16.6129C11.0004 16.6022 11.185 16.5941 11.3697 16.5861C11.3697 16.2531 11.3697 15.9174 11.3697 15.5817C11.0994 15.3588 10.8264 15.1386 10.5561 14.9184C10.2857 14.6955 10.0154 14.4699 9.74241 14.2416C9.74241 13.9543 9.74241 13.6696 9.74241 13.3823C9.74241 13.0949 9.74241 12.8103 9.74241 12.5229C9.5952 12.394 9.44799 12.2624 9.30346 12.1309ZM7.54502 13.0949C7.54502 13.4494 7.54502 13.8039 7.54502 14.1584C7.54502 14.1664 7.72702 14.3249 8.09369 14.6257C8.09369 14.3679 8.09369 14.1127 8.09369 13.8549C8.09369 13.5998 8.09369 13.342 8.09369 13.0842C7.90902 13.0896 7.72702 13.0923 7.54502 13.0949ZM6.0328 12.1309C6.92675 12.1309 7.81802 12.1309 8.71464 12.1309C8.72802 12.1309 8.8779 12.2624 9.16964 12.5256C9.16964 13.3796 9.16964 14.2363 9.16964 15.0902C9.16964 15.9442 9.16964 16.7982 9.16964 17.6522C8.81099 17.6871 8.44967 17.722 8.09369 17.7569C8.09369 17.4239 8.09369 17.0882 8.09369 16.7552C8.09369 16.4222 8.09369 16.0866 8.09369 15.7509C8.09369 15.7401 7.91169 15.5897 7.54502 15.2943C7.54502 15.7133 7.54502 16.1349 7.54502 16.5538C7.54502 16.9728 7.54502 17.3917 7.54502 17.8106C7.18637 17.8536 6.82772 17.8966 6.47175 17.9368C6.47175 17.0372 6.47175 16.1403 6.47175 15.2406C6.47175 14.341 6.47175 13.4414 6.47175 12.5417C6.32454 12.4101 6.17733 12.2705 6.0328 12.1309ZM4.27168 15.536C4.27168 15.8153 4.27168 16.0946 4.27168 16.3712C4.27168 16.6505 4.27168 16.9298 4.27168 17.2064C4.45368 17.1822 4.63836 17.1607 4.82304 17.1393C4.82304 16.7633 4.82304 16.3873 4.82304 16.0114C4.82304 16.0033 4.63836 15.8449 4.27168 15.536ZM4.27168 13.1675C4.27168 13.5488 4.27168 13.9301 4.27168 14.3115C4.27168 14.3222 4.31986 14.3652 4.41889 14.443C4.42959 14.443 4.56342 14.3061 4.82304 14.0375C4.82304 13.7421 4.82304 13.4494 4.82304 13.154C4.63836 13.1594 4.45368 13.1621 4.27168 13.1675ZM2.76215 12.1309C3.65609 12.1309 4.54736 12.1309 5.44398 12.1309C5.45468 12.1309 5.60457 12.2732 5.8963 12.5525C5.8963 12.821 5.8963 13.0896 5.8963 13.3581C5.8963 13.6267 5.8963 13.8952 5.8963 14.1638C5.61527 14.4431 5.33424 14.725 5.05321 15.0124C5.33424 15.2621 5.61527 15.5065 5.8963 15.7482C5.8963 16.057 5.8963 16.3632 5.8963 16.672C5.8963 16.9808 5.8963 17.287 5.8963 17.5958C5.8963 17.6038 5.74642 17.7677 5.44398 18.0792C4.69456 18.1839 3.94515 18.2967 3.19841 18.4175C3.19841 17.4454 3.19841 16.4733 3.19841 15.5011C3.19841 14.529 3.19841 13.5568 3.19841 12.582C3.05388 12.4343 2.90668 12.2839 2.76215 12.1309Z" fill="white"/>
<path id="Vector_45" fill-rule="evenodd" clip-rule="evenodd" d="M28.7025 18.3668C28.7025 17.9586 28.7025 17.5478 28.7025 17.1396C28.7025 16.7636 28.7025 16.3876 28.7025 16.0117C28.4081 16.2668 28.119 16.5246 27.8273 16.7824C27.8273 16.9409 27.8273 17.102 27.8273 17.2604V17.3759L27.7122 17.3598C27.5302 17.3356 27.3455 17.3088 27.1635 17.2846L27.0779 17.2739V15.4988C26.7862 15.4585 26.4971 15.4182 26.2054 15.3806V17.9774C27.0377 18.0983 27.8701 18.2299 28.7025 18.3668ZM22.932 15.0127V15.1094C22.932 15.9392 22.932 16.7663 22.932 17.5961C23.7644 17.6794 24.5968 17.7734 25.4292 17.8727C25.4292 17.4967 25.4292 17.1235 25.4292 16.7475C25.4292 16.4038 25.4292 16.0627 25.4292 15.719C25.1348 15.9607 24.843 16.205 24.554 16.4494C24.554 16.5944 24.554 16.7421 24.554 16.8871V16.9972L24.4442 16.9865C24.2622 16.9677 24.0776 16.9489 23.8956 16.9328L23.8046 16.9247V15.1013C23.5128 15.0691 23.2211 15.0395 22.932 15.0127ZM19.6614 14.7764V14.9831C19.6614 15.7754 19.6614 16.5649 19.6614 17.3571C19.9531 17.3732 20.2422 17.3893 20.5339 17.4028C20.5339 17.0402 20.5339 16.6804 20.5339 16.3178C20.5339 15.9204 20.5339 15.5229 20.5339 15.1282V14.908L20.6998 15.0503C20.839 15.1711 20.9782 15.2893 21.1147 15.4128C21.1655 15.4585 21.286 15.5471 21.286 15.6169C21.286 15.9392 21.286 16.2614 21.286 16.5837C21.286 16.8737 21.286 17.1637 21.286 17.4538C21.5777 17.4753 21.8695 17.4994 22.1612 17.5209C22.1612 16.7072 22.1612 15.8935 22.1612 15.0771V14.9429C21.3261 14.8757 20.4937 14.8193 19.6614 14.7764ZM17.4238 14.9724C17.563 15.0852 17.7022 15.198 17.8387 15.3135C17.8895 15.3564 18.0127 15.4397 18.0127 15.5122C18.0127 15.8398 18.0127 16.1674 18.0127 16.4951V16.5971H17.9056C17.7236 16.5917 17.5389 16.5864 17.3569 16.5837L17.2579 16.581V16.4816C17.2579 16.2426 17.2579 16.0036 17.2579 15.7646C17.2579 15.5256 17.2579 15.2866 17.2579 15.0476V14.8354L17.4238 14.9724ZM18.8852 17.0026C18.8852 16.7394 18.8852 16.4763 18.8852 16.2131C18.8852 15.9526 18.8852 15.6894 18.8852 15.4289C18.6149 15.198 18.3472 14.9643 18.0769 14.7334L18.0474 14.7092C17.4934 14.6931 16.9421 14.6824 16.388 14.677V14.9348C16.388 15.7109 16.388 16.487 16.388 17.2604C17.0919 17.2685 17.7959 17.2819 18.4998 17.3034C18.5961 17.2282 18.6925 17.153 18.7888 17.0778C18.8209 17.0536 18.8531 17.0295 18.8852 17.0026ZM13.1174 14.7227V14.9643C13.1174 15.7458 13.1174 16.53 13.1174 17.3114C13.9498 17.2846 14.7821 17.2685 15.6145 17.2577C15.6145 16.9221 15.6145 16.5864 15.6145 16.2507C15.6145 15.9526 15.6145 15.6518 15.6145 15.3537C15.3201 15.5927 15.0284 15.8398 14.7393 16.0869C14.7393 16.2185 14.7393 16.3527 14.7393 16.4843V16.5837H14.6403C14.4583 16.5864 14.2736 16.5864 14.0916 16.5917L13.9899 16.5944V16.4897C13.9899 16.0573 13.9899 15.6277 13.9899 15.1953V15.0959H14.0889C14.3164 15.0932 14.5466 15.0933 14.7741 15.0906C14.9133 14.9778 15.0498 14.865 15.189 14.7522L15.1033 14.6797C14.4396 14.6824 13.7785 14.6985 13.1174 14.7227ZM10.6309 14.8516C10.8986 15.0691 11.1635 15.2893 11.4312 15.5068L11.4687 15.5364V15.5847C11.4687 15.9204 11.4687 16.2534 11.4687 16.5891V16.6857L11.3723 16.6911C11.1876 16.6992 11.0056 16.7072 10.8209 16.718L10.7139 16.7233V16.6159C10.7139 16.479 10.7139 16.342 10.7139 16.205C10.4275 15.966 10.1358 15.7297 9.84136 15.4988C9.84136 15.8156 9.84136 16.1352 9.84136 16.4521C9.84136 16.8012 9.84136 17.153 9.84136 17.5021C10.5426 17.4484 11.2438 17.4028 11.9451 17.3652C12.0441 17.2792 12.1405 17.196 12.2395 17.11C12.2716 17.0805 12.3064 17.0536 12.3385 17.0214C12.3385 16.7556 12.3385 16.4924 12.3385 16.2265C12.3385 15.966 12.3385 15.7029 12.3385 15.4424C12.0789 15.2329 11.8193 15.0207 11.5623 14.8086L11.5463 14.7952C11.2412 14.8113 10.936 14.8301 10.6309 14.8516ZM7.44323 15.1308C7.1515 15.1631 6.86244 15.1953 6.5707 15.2275V15.2463C6.5707 16.1084 6.5707 16.9677 6.5707 17.8297C6.86244 17.7948 7.1515 17.7599 7.44323 17.725C7.44323 17.3356 7.44323 16.9462 7.44323 16.5568C7.44323 16.1379 7.44323 15.7163 7.44323 15.2973V15.1308ZM9.07053 17.5639C9.07053 16.7394 9.07053 15.915 9.07053 15.0932V14.9724C8.54326 15.0181 8.016 15.0691 7.49141 15.1255L7.60917 15.2195C7.74835 15.3296 7.88485 15.4424 8.02403 15.5552C8.07756 15.5981 8.198 15.6814 8.198 15.7539C8.198 16.0896 8.198 16.4226 8.198 16.7582C8.198 17.0563 8.198 17.3517 8.198 17.6498C8.48706 17.6203 8.77879 17.5907 9.07053 17.5639ZM4.39472 15.5095C4.51249 15.6089 4.63293 15.7082 4.74802 15.8103C4.79887 15.8559 4.92199 15.9392 4.92199 16.0144C4.92199 16.3903 4.92199 16.7663 4.92199 17.1423V17.2309L4.83366 17.2416C4.64899 17.2631 4.46699 17.2846 4.28231 17.3088L4.1699 17.3222V17.2067C4.1699 16.9274 4.1699 16.6481 4.1699 16.3715C4.1699 16.0949 4.1699 15.8183 4.1699 15.5417C3.87816 15.5847 3.5891 15.6277 3.29736 15.6706V18.297C3.99592 18.1842 4.69449 18.0795 5.39305 17.9801C5.49208 17.8781 5.59111 17.7734 5.69014 17.6686C5.72493 17.631 5.7624 17.5961 5.79452 17.5585C5.79452 17.2631 5.79452 16.965 5.79452 16.6696C5.79452 16.3769 5.79452 16.0842 5.79452 15.7915C5.63661 15.6545 5.47869 15.5176 5.32078 15.3806C5.01299 15.4236 4.70519 15.4665 4.39472 15.5095Z" fill="#BEC1C6"/>
<path id="Vector_46" fill-rule="evenodd" clip-rule="evenodd" d="M20.2744 18.2698L20.4189 18.157L20.6303 18.1758C20.8739 18.1973 21.1174 18.2187 21.361 18.2429L21.551 18.2617L21.6875 18.396C21.7705 18.4765 21.8535 18.5598 21.9364 18.6404L22.0997 18.8015V19.0298C22.0997 19.309 22.0997 19.5856 22.0997 19.8649C22.0997 20.1415 22.0997 20.4208 22.0997 20.7001V20.9794L21.8722 21.1432C21.7892 21.2023 21.7063 21.2641 21.6233 21.3231L21.444 21.452L21.2245 21.4171C20.9863 21.3795 20.7508 21.3446 20.5126 21.3124L20.3332 21.2882L20.1887 21.1459L20.0415 21.2506L19.8354 21.2265C19.6079 21.1996 19.3777 21.1754 19.1502 21.154L18.9682 21.1378L18.8237 21.0036L18.6792 21.1137L18.4784 21.1003C18.2402 21.0841 18.0047 21.068 17.7665 21.0546L17.5791 21.0439L17.5738 21.0412L17.3409 21.0331C17.0251 21.0224 16.7066 21.0143 16.3908 21.0116L16.1472 21.0089C16.0321 21.0089 15.9144 21.0089 15.7993 21.0116L15.4353 21.017L15.3657 21.0197C15.2372 21.0251 15.1061 21.0277 14.9776 21.0331L14.7126 21.0412L14.5467 21.0492C14.3138 21.0627 14.081 21.0734 13.8481 21.0895L13.6474 21.1029L13.5002 20.9928L13.3557 21.1271L13.1737 21.1432C12.9354 21.1647 12.6999 21.1889 12.4617 21.2157L12.2529 21.2399L12.0308 21.0788V21.2668L11.5597 21.3312C11.4313 21.3473 11.3055 21.3661 11.177 21.3876L10.5507 21.4843V20.8478C10.5507 20.7189 10.5507 20.59 10.5507 20.4638C10.5507 20.3698 10.5507 20.2785 10.5507 20.1845V20.1765L10.548 20.1684C10.4811 19.9912 10.4169 19.8139 10.3526 19.6367C10.275 19.4245 10.1974 19.2097 10.1198 18.9975L9.87891 18.3369L10.5748 18.2698C10.7086 18.2563 10.8398 18.2429 10.9736 18.2322L11.1502 18.2134V18.2107L11.2439 18.2026L11.3991 18.1865V18.1892L11.5062 18.1811C11.6427 18.1704 11.7819 18.157 11.9184 18.1462L12.7615 18.0764L12.7561 18.0898L12.823 18.0872C12.8739 18.0845 12.9247 18.0818 12.9756 18.0791L13.0184 18.0764V18.071L13.5377 18.0469C13.626 18.0442 13.7116 18.0388 13.7999 18.0361L13.8428 18.0334V18.0308L14.0248 18.0254L14.4932 18.0039V18.0066L14.7929 18.0012L15.3148 17.9878V17.9932H15.3603C15.5129 17.9905 15.6628 17.9905 15.8153 17.9878H15.8582V17.9851L16.4042 17.9905C16.5353 17.9905 16.6638 17.9932 16.7949 17.9932L17.3329 17.9985V18.2375L17.4052 18.1811C17.4239 18.165 17.4426 18.1516 17.4641 18.1355L17.6193 18.012L17.8173 18.0173C18.0609 18.0254 18.3045 18.0361 18.5453 18.0469L18.7354 18.0549L18.8879 18.1892L19.0405 18.071L19.2439 18.0818C19.4768 18.0952 19.7123 18.1113 19.9451 18.1274L20.1325 18.1409L20.2744 18.2698Z" fill="#081329"/>
<path id="Vector_47" d="M21.171 20.4694C21.171 20.2492 21.171 20.0317 21.171 19.8115C21.171 19.5913 21.171 19.3738 21.171 19.1535C21.0238 19.1374 20.8766 19.1213 20.7294 19.1079C20.7294 19.3254 20.7294 19.5403 20.7294 19.7578C20.7294 19.9753 20.7294 20.1901 20.7294 20.4077C20.8739 20.4265 21.0211 20.4479 21.171 20.4694ZM21.5591 20.6977C21.4761 20.7568 21.3905 20.8185 21.3075 20.8776C21.0666 20.84 20.8257 20.8024 20.5849 20.7702C20.5019 20.687 20.4189 20.6064 20.3359 20.5231C20.3359 20.2546 20.3359 19.986 20.3359 19.7175C20.3359 19.4489 20.3359 19.1804 20.3359 18.9119C20.4189 18.8474 20.5019 18.783 20.5849 18.7185C20.8257 18.74 21.0666 18.7615 21.3075 18.7856C21.3905 18.8662 21.4734 18.9495 21.5591 19.0327C21.5591 19.312 21.5591 19.5886 21.5591 19.8679C21.5591 20.1418 21.5591 20.4184 21.5591 20.6977ZM20.1513 20.499C20.0683 20.5607 19.9826 20.6225 19.8997 20.6816C19.6668 20.6547 19.434 20.6306 19.2011 20.6091C19.1181 20.5312 19.0352 20.456 18.9522 20.3808C18.9522 20.1203 18.9522 19.8571 18.9522 19.5967C18.9522 19.3362 18.9522 19.073 18.9522 18.8125C19.0352 18.748 19.1208 18.6836 19.2038 18.6191C19.434 18.6326 19.6668 18.6487 19.897 18.6648C19.98 18.7427 20.0656 18.8179 20.1486 18.8957C20.1486 19.0005 20.1486 19.1079 20.1486 19.2126C20.0174 19.2019 19.889 19.1911 19.7605 19.1804C19.7605 19.1294 19.7605 19.0757 19.7605 19.0246C19.6213 19.0139 19.4795 19.0032 19.3403 18.9924C19.3403 19.2019 19.3403 19.4114 19.3403 19.6235C19.3403 19.833 19.3403 20.0424 19.3403 20.2519C19.4795 20.2626 19.6213 20.2788 19.7605 20.2949C19.7605 20.1445 19.7605 19.9968 19.7605 19.8464C19.6722 19.8383 19.5839 19.8303 19.4955 19.8195C19.4955 19.696 19.4955 19.5725 19.4955 19.4489C19.7123 19.4677 19.9318 19.4865 20.1486 19.5053C20.1486 19.6718 20.1486 19.8357 20.1486 20.0022C20.1513 20.1687 20.1513 20.3352 20.1513 20.499ZM18.3768 20.1767C18.3768 19.9699 18.3768 19.7631 18.3768 19.5564C18.3768 19.3496 18.3768 19.1428 18.3768 18.936C18.2296 18.928 18.0823 18.9226 17.9351 18.9172C17.9351 19.124 17.9351 19.3281 17.9351 19.5349C17.9351 19.7417 17.9351 19.9458 17.9351 20.1525C18.0797 20.1579 18.2296 20.1687 18.3768 20.1767ZM18.7675 20.362C18.6846 20.4238 18.6016 20.4882 18.5159 20.55C18.2751 20.5312 18.0342 20.5178 17.7933 20.5043C17.7103 20.4318 17.6273 20.362 17.5444 20.2895C17.5444 20.0317 17.5444 19.7766 17.5444 19.5188C17.5444 19.261 17.5444 19.0058 17.5444 18.748C17.6273 18.6836 17.7103 18.6165 17.7933 18.552C18.0342 18.5601 18.2751 18.5681 18.5159 18.5789C18.5989 18.6514 18.6819 18.7266 18.7675 18.7991C18.7675 19.0596 18.7675 19.32 18.7675 19.5805C18.7675 19.841 18.7675 20.1015 18.7675 20.362ZM17.357 20.4855C17.0358 20.4748 16.7147 20.4667 16.3935 20.4641C16.3935 20.1418 16.3935 19.8195 16.3935 19.4946C16.3935 19.1723 16.3935 18.8474 16.3935 18.5251C16.522 18.5251 16.6531 18.5278 16.7816 18.5278C16.7816 18.791 16.7816 19.0542 16.7816 19.3174C16.7816 19.5805 16.7816 19.8437 16.7816 20.1069C16.9716 20.1123 17.1643 20.1176 17.3543 20.123C17.357 20.2465 17.357 20.3647 17.357 20.4855ZM15.347 19.32C15.4808 19.3174 15.6173 19.3174 15.7511 19.3147C15.7511 19.1697 15.7511 19.0273 15.7511 18.8823C15.6173 18.8823 15.4808 18.885 15.347 18.885C15.347 19.03 15.347 19.175 15.347 19.32ZM16.2088 20.4614C16.0696 20.4614 15.9305 20.4614 15.794 20.4641C15.7377 20.3325 15.6815 20.2009 15.628 20.072C15.5745 19.9404 15.5183 19.8088 15.4647 19.6772C15.4246 19.6772 15.3871 19.6772 15.3497 19.6799C15.3497 19.8115 15.3497 19.9431 15.3497 20.0747C15.3497 20.2063 15.3497 20.3378 15.3497 20.4694C15.2185 20.4748 15.09 20.4775 14.9616 20.4829C14.9616 20.1579 14.9616 19.833 14.9616 19.5107C14.9616 19.1858 14.9616 18.8608 14.9616 18.5359C15.272 18.5305 15.5825 18.5251 15.893 18.5251C15.976 18.5923 16.0589 18.6594 16.1419 18.7292C16.1419 18.8474 16.1419 18.9656 16.1419 19.0837C16.1419 19.2019 16.1419 19.32 16.1419 19.4382C16.0536 19.5134 15.9653 19.5913 15.8769 19.6665C15.9331 19.7981 15.9893 19.9296 16.0429 20.0612C16.0937 20.1955 16.1499 20.3298 16.2088 20.4614ZM14.7689 20.2841C14.6832 20.3566 14.6002 20.4291 14.5146 20.5017C14.2791 20.5151 14.0435 20.5258 13.8053 20.5446C13.7224 20.4829 13.6394 20.4211 13.5564 20.3566C13.5564 20.0612 13.5564 19.7658 13.5564 19.4704C13.5564 19.175 13.5564 18.8796 13.5564 18.5842C13.6849 18.5789 13.8134 18.5735 13.9445 18.5654C13.9445 18.834 13.9445 19.0998 13.9445 19.3684C13.9445 19.6342 13.9445 19.9028 13.9445 20.1687C14.089 20.1606 14.2336 20.1525 14.3781 20.1445C14.3781 19.8786 14.3781 19.6128 14.3781 19.3469C14.3781 19.081 14.3781 18.8152 14.3781 18.5493C14.5066 18.5439 14.635 18.5413 14.7662 18.5386C14.7662 18.8286 14.7662 19.1213 14.7662 19.4114C14.7689 19.7041 14.7689 19.9941 14.7689 20.2841ZM12.981 20.2438C12.981 20.0344 12.981 19.8249 12.981 19.6154C12.981 19.406 12.981 19.1965 12.981 18.987C12.8338 18.9978 12.6866 19.0058 12.5394 19.0166C12.5394 19.2287 12.5394 19.4409 12.5394 19.6504C12.5394 19.8625 12.5394 20.0747 12.5394 20.2841C12.6866 20.268 12.8338 20.2573 12.981 20.2438ZM13.3691 20.3701C13.2861 20.4453 13.2031 20.5231 13.1175 20.5983C12.8766 20.6198 12.6357 20.644 12.3948 20.6708C12.3119 20.6091 12.2289 20.55 12.1486 20.4882C12.1486 20.2197 12.1486 19.9538 12.1486 19.6853C12.1486 19.4167 12.1486 19.1509 12.1486 18.8823C12.2316 18.8044 12.3119 18.7292 12.3948 18.6514C12.6357 18.6353 12.8766 18.6191 13.1175 18.6057C13.2004 18.6702 13.2834 18.7346 13.3691 18.7991C13.3691 19.0596 13.3691 19.3227 13.3691 19.5832C13.3691 19.8437 13.3691 20.1096 13.3691 20.3701ZM11.4848 20.0263C11.4848 20.1525 11.4848 20.2788 11.4848 20.405C11.4848 20.5312 11.4848 20.6574 11.4848 20.7836C11.3537 20.8024 11.2225 20.8212 11.0914 20.84C11.0914 20.7111 11.0914 20.5822 11.0914 20.456C11.0914 20.3271 11.0914 20.1982 11.0914 20.072C11.0138 19.8625 10.9361 19.653 10.8585 19.4436C10.7809 19.2314 10.7033 19.0193 10.6257 18.8044C10.7568 18.791 10.8906 18.7776 11.0245 18.7642C11.0673 18.8904 11.1128 19.0139 11.1556 19.1401C11.1984 19.2637 11.2439 19.3872 11.2894 19.5107C11.3323 19.3764 11.3751 19.2449 11.4179 19.1133C11.4607 18.9817 11.5062 18.8501 11.5491 18.7185C11.6856 18.7078 11.8247 18.6943 11.9612 18.6836C11.8809 18.9065 11.8006 19.1294 11.723 19.3523C11.6427 19.5752 11.5624 19.8007 11.4848 20.0263Z" fill="#C10F18"/>
<path id="Vector_48" opacity="0.23" fill-rule="evenodd" clip-rule="evenodd" d="M20.6116 20.7216C20.8418 20.7539 21.0693 20.7888 21.2968 20.8237C21.3663 20.7727 21.4386 20.7216 21.5082 20.6706V19.9133C21.4118 19.8999 21.3155 19.8838 21.2191 19.8704V20.4692V20.5283L21.1603 20.5202C21.0131 20.4988 20.8658 20.4773 20.7186 20.4585L20.6731 20.4531V20.4074V19.7978C20.5768 19.7844 20.4831 19.7737 20.3868 19.7629V20.5014C20.4644 20.5739 20.5366 20.6491 20.6116 20.7216ZM20.1004 20.4719C20.1004 20.3161 20.1004 20.1577 20.1004 20.0019V19.7253C19.9157 19.7039 19.731 19.6851 19.549 19.6663V19.771C19.6213 19.779 19.6962 19.7844 19.7685 19.7925L19.814 19.7978V19.8435C19.814 19.9939 19.814 20.1416 19.814 20.292V20.3484L19.7578 20.343C19.6186 20.3269 19.4794 20.3135 19.3376 20.3027L19.2921 20.3V20.2517V19.6448C19.1957 19.6367 19.0994 19.6287 19.003 19.6206V20.3564C19.0753 20.4236 19.1475 20.4907 19.2225 20.5578C19.4446 20.5793 19.6641 20.6035 19.8836 20.6277C19.9585 20.5766 20.0281 20.5256 20.1004 20.4719ZM17.5952 19.5293V20.2651C17.6675 20.3296 17.7397 20.3913 17.812 20.4531C18.0422 20.4638 18.2697 20.48 18.4998 20.4961C18.5721 20.4424 18.6417 20.3886 18.714 20.3349V19.5937C18.6176 19.5857 18.5212 19.5803 18.4249 19.5723V20.1738V20.2275L18.3714 20.2248C18.2242 20.2141 18.077 20.206 17.9297 20.198L17.8816 20.1953V20.147V19.54C17.7879 19.54 17.6915 19.5347 17.5952 19.5293ZM17.3061 20.4316C17.3061 20.3457 17.3061 20.2597 17.3061 20.1765C17.1322 20.1711 16.9582 20.1658 16.7815 20.1631L16.7334 20.1604V20.1094V19.5024C16.637 19.4998 16.5407 19.4998 16.447 19.4971V20.4128C16.7334 20.4155 17.0197 20.4236 17.3061 20.4316ZM15.826 20.4128C15.9277 20.4128 16.0294 20.4101 16.1312 20.4101C16.0857 20.3027 16.0402 20.1926 15.992 20.0852C15.9358 19.9536 15.8796 19.822 15.826 19.6904L15.8127 19.6555L15.8421 19.6313L15.9973 19.4971C15.6681 19.4971 15.3416 19.5024 15.0124 19.5132V20.4316C15.1087 20.4289 15.2051 20.4262 15.2988 20.4209C15.2988 20.3054 15.2988 20.1899 15.2988 20.0744C15.2988 19.9429 15.2988 19.8113 15.2988 19.6797V19.6287H15.3496C15.3898 19.6287 15.4272 19.626 15.4674 19.626H15.5022L15.5156 19.6582C15.5691 19.7898 15.6253 19.9214 15.6788 20.053C15.7243 20.1711 15.7752 20.292 15.826 20.4128ZM14.4316 19.5347V20.147V20.1953L14.3834 20.198C14.2389 20.206 14.0944 20.2114 13.9498 20.2221L13.8963 20.2248V20.1711V19.5642C13.7999 19.5696 13.7063 19.5776 13.6099 19.583V20.3296C13.6795 20.3833 13.7518 20.437 13.8214 20.4907C14.0462 20.4746 14.271 20.4638 14.4958 20.4504C14.5708 20.386 14.643 20.3242 14.718 20.2597V19.5239C14.6216 19.5266 14.5279 19.5293 14.4316 19.5347ZM13.3182 20.3457V19.6045C13.2218 19.6125 13.1255 19.6206 13.0318 19.6287V20.2436V20.2893L12.9863 20.2947C12.8391 20.3081 12.6919 20.3215 12.5447 20.3349L12.4885 20.3403V20.2839V19.6797C12.3921 19.6904 12.2984 19.7012 12.2021 19.7092V20.4612C12.2717 20.5122 12.3413 20.5659 12.4108 20.6169C12.6383 20.5901 12.8685 20.5686 13.0987 20.5471C13.171 20.4826 13.2459 20.4128 13.3182 20.3457ZM11.0646 19.8569L11.1395 20.0583L11.1422 20.0664V20.0744C11.1422 20.2033 11.1422 20.3323 11.1422 20.4585C11.1422 20.5659 11.1422 20.676 11.1422 20.7834C11.2385 20.7673 11.3349 20.7539 11.4339 20.7404C11.4339 20.6277 11.4339 20.5175 11.4339 20.4048C11.4339 20.2785 11.4339 20.1523 11.4339 20.0261V20.0181L11.4366 20.01C11.4607 19.9375 11.4875 19.8677 11.5115 19.7952C11.3617 19.814 11.2145 19.8354 11.0646 19.8569Z" fill="black"/>
<path id="Vector_49" fill-rule="evenodd" clip-rule="evenodd" d="M16 21.1462L16.1579 21.635H16.6664L16.2543 21.9331L16.4122 22.4218L16 22.1184L15.5878 22.4218L15.7457 21.9331L15.3336 21.635H15.8448L16 21.1462Z" fill="white"/>
</g>
</svg>
