<svg width="85" height="64" viewBox="0 0 85 64" fill="none" xmlns="http://www.w3.org/2000/svg">
<path d="M42.4359 63.7386C41.8265 63.7386 41.2332 63.6424 40.656 63.466L13.509 54.7591C11.0877 53.9733 9.45215 51.7445 9.45215 49.195V42.1717C9.45215 38.9647 11.9536 36.3991 15.1606 36.335L42.4519 35.6936L69.7432 36.335C72.9502 36.4152 75.4516 38.9807 75.4516 42.1717V49.195C75.4516 51.7445 73.8161 53.9894 71.3948 54.7591L44.2318 63.466C43.6545 63.6424 43.0452 63.7386 42.4359 63.7386Z" fill="#003D6C"/>
<path d="M42.4357 61.9267C42.0188 61.9267 41.6019 61.8625 41.201 61.7343L14.054 53.0273C12.3704 52.4821 11.2479 50.9428 11.2479 49.179V42.1557C11.2479 39.9429 12.9797 38.179 15.1925 38.1149L42.4357 37.4735L69.679 38.1149C71.8918 38.163 73.6235 39.9429 73.6235 42.1557V49.179C73.6235 50.9428 72.5011 52.4821 70.8174 53.0273L43.6704 61.7343C43.2695 61.8625 42.8687 61.9267 42.4357 61.9267Z" fill="white"/>
<path d="M42.436 38.4838L15.2088 39.1252C13.5732 39.1572 12.2584 40.5042 12.2584 42.1557V49.179C12.2584 50.4939 13.1082 51.6644 14.3589 52.0653L41.522 60.7722C42.1153 60.9646 42.7727 60.9646 43.366 60.7722L70.513 52.0653C71.7637 51.6644 72.6136 50.4939 72.6136 49.179V42.1557C72.6136 40.5042 71.2987 39.1733 69.6632 39.1252L42.436 38.4838Z" fill="#ED232F"/>
<path d="M42.4359 0C41.8265 0 41.2332 0.0962092 40.656 0.272593L13.509 8.99556C11.0877 9.78127 9.45215 12.0101 9.45215 14.5597V21.5829C9.45215 24.7899 11.9536 27.3555 15.1606 27.4196L42.4519 28.061L69.7432 27.4196C72.9502 27.3394 75.4516 24.7739 75.4516 21.5829V14.5597C75.4516 12.0101 73.8161 9.76523 71.3948 8.99556L44.2318 0.272593C43.6545 0.0962092 43.0452 0 42.4359 0Z" fill="#003D6C"/>
<path d="M42.4357 1.81201C42.0188 1.81201 41.6019 1.87615 41.201 2.00443L14.054 10.7114C12.3704 11.2565 11.2479 12.7959 11.2479 14.5597V21.583C11.2479 23.7958 12.9797 25.5596 15.1925 25.6238L42.4357 26.2652L69.679 25.6238C71.8918 25.5757 73.6235 23.7958 73.6235 21.583V14.5597C73.6235 12.7959 72.5011 11.2565 70.8174 10.7114L43.6704 2.00443C43.2695 1.87615 42.8687 1.81201 42.4357 1.81201Z" fill="white"/>
<path d="M42.436 25.2548L15.2088 24.6134C13.5732 24.5813 12.2584 23.2344 12.2584 21.5828V14.5595C12.2584 13.2447 13.1082 12.0741 14.3589 11.6733L41.506 2.96634C42.0992 2.77392 42.7567 2.77392 43.35 2.96634L70.497 11.6733C71.7477 12.0741 72.5975 13.2447 72.5975 14.5595V21.5828C72.5975 23.2344 71.2827 24.5653 69.6471 24.6134L42.436 25.2548Z" fill="#ED232F"/>
<path d="M42.5 52.5142C65.5516 52.5142 84.2387 43.5763 84.2387 32.5508C84.2387 21.5253 65.5516 12.5874 42.5 12.5874C19.4483 12.5874 0.76123 21.5253 0.76123 32.5508C0.76123 43.5763 19.4483 52.5142 42.5 52.5142Z" fill="#003D6C"/>
<path d="M42.4999 51.0869C63.6476 51.0869 80.7912 42.7879 80.7912 32.5506C80.7912 22.3133 63.6476 14.0143 42.4999 14.0143C21.3523 14.0143 4.20868 22.3133 4.20868 32.5506C4.20868 42.7879 21.3523 51.0869 42.4999 51.0869Z" fill="white"/>
<path d="M42.4999 50.0288C62.4432 50.0288 78.6104 42.2036 78.6104 32.5508C78.6104 22.8979 62.4432 15.0728 42.4999 15.0728C22.5566 15.0728 6.3894 22.8979 6.3894 32.5508C6.3894 42.2036 22.5566 50.0288 42.4999 50.0288Z" fill="#ED232F"/>
<path d="M61.5014 47.4151C61.9343 47.2868 62.3512 47.1585 62.7681 47.0142V18.0873C62.3512 17.943 61.9343 17.8147 61.5014 17.6864V47.4151ZM73.5917 41.4501C74.0406 41.0813 74.4575 40.7125 74.8584 40.3277V24.8059C74.4575 24.4211 74.0406 24.0523 73.5917 23.6835V41.4501ZM58.4868 48.2168C58.9198 48.1206 59.3367 48.0084 59.7536 47.8961V17.1894C59.3367 17.0771 58.9198 16.9809 58.4868 16.8687V48.2168ZM64.532 46.4049C64.9649 46.2445 65.3818 46.0842 65.7987 45.9078V19.1937C65.3818 19.0173 64.9649 18.857 64.532 18.6966V46.4049ZM76.6062 26.8103V38.3073C77.1193 37.5857 77.5523 36.8481 77.873 36.0784V29.0231C77.5523 28.2694 77.1354 27.5318 76.6062 26.8103ZM70.5771 43.5507C71.01 43.2941 71.443 43.0215 71.8438 42.7489V22.3526C71.443 22.08 71.01 21.8074 70.5771 21.5508V43.5507ZM67.5465 45.1381C67.9794 44.9297 68.3964 44.7212 68.8133 44.5128V20.5887C68.3964 20.3803 67.9794 20.1718 67.5465 19.9634V45.1381ZM46.3965 49.9165C46.8134 49.9005 47.2464 49.8684 47.6633 49.8363V15.2491C47.2464 15.2171 46.8134 15.201 46.3965 15.169V49.9165ZM55.4723 48.8582C55.9052 48.778 56.3221 48.6979 56.739 48.6017V16.4838C56.3221 16.4036 55.9052 16.3074 55.4723 16.2273V48.8582ZM43.382 50.0127C43.7989 50.0127 44.2318 49.9967 44.6487 49.9806V15.1048C44.2318 15.0888 43.7989 15.0888 43.382 15.0728V50.0127ZM52.4417 49.3553C52.8746 49.2911 53.2915 49.227 53.7084 49.1629V15.9386C53.2915 15.8745 52.8746 15.8104 52.4417 15.7462V49.3553ZM49.4271 49.7081C49.844 49.676 50.277 49.6279 50.6939 49.5798V15.5217C50.277 15.4736 49.844 15.4255 49.4271 15.3935V49.7081ZM25.2626 47.9121C25.6795 48.0244 26.0964 48.1206 26.5293 48.2328V16.8847C26.0964 16.9809 25.6795 17.0931 25.2626 17.2054V47.9121ZM37.3368 49.8524C37.7537 49.8844 38.1867 49.9005 38.6036 49.9325V15.185C38.1867 15.201 37.7537 15.2331 37.3368 15.2652V49.8524ZM34.3223 49.5798C34.7392 49.6279 35.1721 49.676 35.589 49.7081V15.3935C35.1721 15.4255 34.7392 15.4736 34.3223 15.5217V49.5798ZM13.1723 42.7489C13.5732 43.0215 14.0061 43.2941 14.4391 43.5507V21.5508C14.0061 21.8074 13.5732 22.08 13.1723 22.3526V42.7489ZM31.3077 49.1629C31.7246 49.227 32.1415 49.2911 32.5745 49.3553V15.7462C32.1415 15.8104 31.7246 15.8745 31.3077 15.9386V49.1629ZM7.14319 36.0784C7.46389 36.8321 7.89683 37.5857 8.40994 38.3073V26.8103C7.89683 27.5318 7.46389 28.2694 7.14319 29.0391V36.0784ZM40.3674 49.9967C40.7843 50.0127 41.2173 50.0127 41.6342 50.0288V15.0888C41.2173 15.0888 40.7843 15.1048 40.3674 15.1209V49.9967ZM28.2771 48.6177C28.694 48.6979 29.1109 48.7941 29.5439 48.8742V16.2433C29.1109 16.3235 28.694 16.4036 28.2771 16.4999V48.6177ZM10.1577 40.3116C10.5586 40.6965 10.9755 41.0653 11.4245 41.4341V23.6514C10.9755 24.0202 10.5586 24.389 10.1577 24.7738V40.3116ZM16.2029 44.5128C16.6198 44.7212 17.0367 44.9297 17.4696 45.1381V19.9634C17.0367 20.1718 16.6198 20.3803 16.2029 20.5887V44.5128ZM19.2174 45.9078C19.6343 46.0842 20.0512 46.2445 20.4842 46.4049V18.6966C20.0512 18.857 19.6343 19.0173 19.2174 19.1937V45.9078ZM22.232 47.0142C22.6489 47.1585 23.0658 47.2868 23.4987 47.4151V17.6864C23.0658 17.8147 22.6489 17.943 22.232 18.0873V47.0142Z" fill="white"/>
<path d="M52.4416 55.0157C52.185 55.2562 51.9926 55.4005 51.9766 55.4165L51.8804 55.4967C51.688 55.6571 51.4795 55.8174 51.271 55.9778L51.1107 56.106C50.2769 56.6993 49.3148 57.1483 48.4329 56.5871C47.134 55.7533 47.3425 54.5827 47.4548 54.0215C47.5189 53.6367 47.567 53.3641 47.4227 52.9632C46.8134 51.6002 38.1225 42.5085 36.1822 40.7607C35.8615 40.472 35.1881 39.8948 34.3382 39.1732C30.4899 35.87 22.4724 28.9911 16.7159 22.6733L9.33988 14.5918C7.91278 13.0364 7.64019 10.8877 8.69849 9.36441L8.74659 9.30027L9.32385 8.67491C9.45213 8.54664 9.58041 8.40232 9.70869 8.29008C9.88507 8.12973 10.0615 7.98542 10.2378 7.8411L10.9113 7.32799L10.9915 7.27988C12.595 6.38193 14.7116 6.84694 16.1387 8.40232L23.5147 16.4839C29.2712 22.8016 35.3965 31.4123 38.3309 35.5493C38.9723 36.4633 39.4854 37.1689 39.742 37.5216C41.3134 39.6062 49.5714 49.0828 50.8702 49.8204C51.239 50.0128 51.5276 49.9807 51.9285 49.9486C52.5218 49.9005 53.7404 49.7723 54.4139 51.2154C55.0072 52.4822 53.9008 53.6046 53.099 54.4224C53.0509 54.4705 53.0188 54.5026 52.9868 54.5507L52.9226 54.6148C52.9066 54.6308 52.7783 54.7591 52.5699 54.9515L52.4416 55.0157Z" fill="#003D6C"/>
<path d="M22.5847 17.2696L15.2087 9.18807C14.2787 8.16184 12.7554 7.61665 11.5527 8.30615L10.9594 8.77116C10.6869 8.97961 10.4303 9.22014 10.1898 9.47669L9.67666 10.0379C8.89095 11.1764 9.29182 12.7318 10.2218 13.758L17.5979 21.8396C24.6372 29.5523 35.1881 38.2272 36.984 39.8467C38.7639 41.4662 47.9038 50.9268 48.5291 52.4982C49.1545 54.0696 47.9358 54.8233 49.0743 55.5609C49.5393 55.8656 50.5335 55.0317 51.239 54.4705C51.239 54.4705 51.3994 54.3422 51.6399 54.1338C51.8644 53.9253 52.0087 53.765 52.0087 53.765C52.6341 53.1236 53.5641 52.2737 53.2915 51.7125C52.7142 50.4778 51.8002 51.6484 50.293 50.8787C48.7857 50.1251 40.207 40.1514 38.7479 38.2272C37.2887 36.287 29.624 24.9824 22.5847 17.2696Z" fill="#C79234"/>
<path d="M48.6894 55.1921C48.7696 55.3043 48.8818 55.4326 49.0582 55.5449C49.5232 55.8495 50.5174 55.0157 51.2229 54.4545C51.2229 54.4545 51.3833 54.3262 51.6238 54.1178C51.8483 53.9093 51.9926 53.749 51.9926 53.749C52.6179 53.1076 53.548 52.2577 53.2754 51.6965C53.1792 51.488 53.0669 51.3598 52.9547 51.2635C51.2229 53.4924 49.5232 54.679 48.6894 55.1921Z" fill="#955D22"/>
<path d="M22.5846 17.2696L15.2086 9.18807C14.2786 8.16184 12.7553 7.61665 11.5526 8.30615L10.9594 8.77116C11.8733 8.89944 13.7334 10.5029 17.4214 14.4635C22.5846 20.0116 31.1633 29.4241 33.8892 33.3847C36.6151 37.3453 39.8702 40.7126 42.8527 43.9196C45.8352 47.1265 49.0742 50.6061 49.9882 51.5842C50.822 52.4822 52.65 51.6484 53.2593 52.2737C53.3555 52.0653 53.3876 51.8568 53.3074 51.6965C52.7302 50.4618 51.8162 51.6324 50.3089 50.8627C48.8016 50.109 40.223 40.1354 38.7638 38.2112C37.2886 36.287 29.6239 24.9824 22.5846 17.2696Z" fill="#955D22"/>
<path d="M39.6296 42.4764C39.6296 42.4764 35.1238 37.265 31.8688 34.507C28.6137 31.7491 23.4505 27.115 13.2523 16.1632C9.35583 11.9781 9.82084 11.4168 9.56428 10.2142C8.93892 11.3367 9.33979 12.7798 10.2217 13.7419L17.5977 21.8235C24.6371 29.5362 35.188 38.2111 36.9839 39.8306C37.4489 40.2636 38.427 41.2417 39.6296 42.4764Z" fill="white"/>
<path d="M32.5744 55.0157C32.8309 55.2562 33.0234 55.4005 33.0394 55.4165L33.1356 55.4967C33.328 55.6571 33.5365 55.8174 33.7449 55.9778L33.9053 56.106C34.7391 56.6993 35.7012 57.1483 36.5831 56.5871C37.8819 55.7533 37.6735 54.5827 37.5612 54.0215C37.4971 53.6367 37.449 53.3641 37.5933 52.9632C38.2026 51.6002 46.8935 42.5085 48.8337 40.7607C49.1544 40.472 49.8279 39.8948 50.6777 39.1732C54.5261 35.87 62.5435 28.9911 68.3 22.6733L75.6761 14.5918C77.1032 13.0364 77.3758 10.8877 76.3175 9.36441L76.2694 9.30027L75.6921 8.67491C75.5638 8.54664 75.4356 8.40232 75.3073 8.29008C75.1309 8.12973 74.9545 7.98542 74.7781 7.8411L74.1047 7.32799L74.0245 7.27988C72.421 6.38193 70.3044 6.84694 68.8773 8.40232L61.5013 16.4839C55.7447 22.8016 49.6194 31.4123 46.6851 35.5493C46.0437 36.4633 45.5305 37.1689 45.274 37.5216C43.7026 39.6062 35.4446 49.0828 34.1458 49.8204C33.777 50.0128 33.4884 49.9807 33.0875 49.9486C32.4942 49.9005 31.2756 49.7723 30.6021 51.2154C30.0088 52.4822 31.1152 53.6046 31.9169 54.4224C31.9651 54.4705 31.9971 54.5026 32.0292 54.5507L32.0933 54.6148C32.1094 54.6308 32.2376 54.7591 32.4461 54.9515L32.5744 55.0157Z" fill="#003D6C"/>
<path d="M62.4311 17.2696L69.8072 9.18807C70.7372 8.16184 72.2605 7.61665 73.4631 8.30615L74.0564 8.77116C74.329 8.97961 74.5856 9.22014 74.8261 9.47669L75.3392 10.0379C76.1249 11.1764 75.724 12.7318 74.794 13.758L67.418 21.8396C60.3947 29.5363 49.8277 38.2112 48.0479 39.8307C46.268 41.4502 37.1281 50.9108 36.5028 52.4822C35.8774 54.0536 37.096 54.8073 35.9576 55.5449C35.4926 55.8495 34.4984 55.0157 33.7929 54.4545C33.7929 54.4545 33.6325 54.3262 33.392 54.1178C33.1675 53.9093 33.0232 53.749 33.0232 53.749C32.3978 53.1076 31.4678 52.2577 31.7404 51.6965C32.3177 50.4618 33.2316 51.6324 34.7389 50.8627C36.2462 50.109 44.8248 40.1354 46.284 38.2112C47.7111 36.287 55.3918 24.9824 62.4311 17.2696Z" fill="#C79234"/>
<path d="M36.3264 55.1921C36.2462 55.3043 36.134 55.4326 35.9576 55.5449C35.4926 55.8495 34.4984 55.0157 33.7929 54.4545C33.7929 54.4545 33.6325 54.3262 33.392 54.1178C33.1675 53.9093 33.0232 53.749 33.0232 53.749C32.3978 53.1076 31.4678 52.2577 31.7404 51.6965C31.8366 51.488 31.9489 51.3598 32.0611 51.2635C33.7768 53.4924 35.4926 54.679 36.3264 55.1921Z" fill="#955D22"/>
<path d="M62.4313 17.2696L69.8074 9.18807C70.7374 8.16184 72.2607 7.61665 73.4633 8.30615L74.0566 8.77116C73.1426 8.89944 71.2826 10.5029 67.5945 14.4635C62.4313 20.0116 53.8527 29.4241 51.1267 33.3847C48.4008 37.3453 45.1457 40.7126 42.1633 43.9196C39.1808 47.1265 35.9417 50.6061 35.0277 51.5842C34.1939 52.4822 32.366 51.6484 31.7566 52.2737C31.6604 52.0653 31.6284 51.8568 31.7085 51.6965C32.2858 50.4618 33.1998 51.6324 34.707 50.8627C36.2143 50.109 44.793 40.1354 46.2521 38.2112C47.7113 36.287 55.392 24.9824 62.4313 17.2696Z" fill="#955D22"/>
<path d="M45.3861 42.4764C45.3861 42.4764 49.8919 37.265 53.147 34.507C56.4021 31.7491 61.5653 27.115 71.7635 16.1632C75.6599 11.9781 75.1949 11.4168 75.4515 10.2142C76.0768 11.3367 75.676 12.7798 74.794 13.7419L67.418 21.8235C60.3947 29.5362 49.8278 38.2111 48.0479 39.8306C47.5669 40.2636 46.5887 41.2417 45.3861 42.4764Z" fill="white"/>
<path d="M52.4589 22.6246C54.0956 17.0964 50.941 11.2881 45.4128 9.65137C39.8846 8.01465 34.0763 11.1693 32.4396 16.6975C30.8028 22.2257 33.9575 28.034 39.4857 29.6707C45.0139 31.3074 50.8222 28.1528 52.4589 22.6246Z" fill="#003D6C"/>
<path d="M48.9273 26.1482C52.5092 22.5664 52.5092 16.7591 48.9273 13.1772C45.3455 9.59541 39.5382 9.59541 35.9564 13.1772C32.3745 16.7591 32.3745 22.5664 35.9564 26.1482C39.5382 29.73 45.3455 29.73 48.9273 26.1482Z" fill="#C4DBE7"/>
<path d="M39.3572 11.0159C36.4869 12.0421 34.4505 14.3511 33.6487 17.061C33.6968 17.2214 33.745 17.3978 33.8091 17.5581C35.5088 22.3205 40.7682 24.8059 45.5306 23.1062C48.4008 22.0799 50.4372 19.7709 51.239 17.061C51.1909 16.9007 51.1428 16.7243 51.0786 16.5639C49.3629 11.8016 44.1195 9.31619 39.3572 11.0159Z" fill="white"/>
<path d="M49.6674 14.0144C49.1864 13.4051 48.6412 12.8759 48.0479 12.4109C46.3803 14.4794 44.7127 17.4298 44.7447 20.9415C44.7768 23.2345 45.5465 25.4633 47.0377 27.5799C47.6952 27.1951 48.3045 26.7301 48.8336 26.2169C47.631 24.5012 47.0057 22.7213 46.9896 20.9094C46.9736 18.1674 48.2884 15.7783 49.6674 14.0144ZM35.22 13.9984C36.599 15.7622 37.9139 18.1674 37.8818 20.8934C37.8658 22.6893 37.2404 24.4852 36.0378 26.2009C36.583 26.7301 37.1923 27.179 37.8337 27.5639C39.341 25.4473 40.1107 23.2184 40.1427 20.9254C40.1908 17.4138 38.5072 14.4474 36.8396 12.3949C36.2302 12.8599 35.685 13.4051 35.22 13.9984Z" fill="#C4DBE7"/>
<path d="M39.9022 23.6514C39.357 23.7957 38.8599 23.9079 38.3148 23.9881L38.3949 24.5493C38.9241 24.4852 39.4693 24.405 40.0145 24.2767C40.1748 24.2447 40.271 24.0683 40.2389 23.8919C40.2229 23.7155 40.0626 23.6033 39.9022 23.6514ZM37.048 18.9532C36.9999 19.0814 37.0801 19.2097 37.2244 19.2418C37.4809 19.3059 37.7375 19.3701 37.9941 19.4503C38.2506 19.5304 38.4911 19.6106 38.7317 19.7068C38.8118 19.5304 38.876 19.354 38.9401 19.1777C38.427 19.0173 37.9299 18.873 37.4168 18.7768C37.2565 18.7447 37.0961 18.8249 37.048 18.9532ZM36.7273 23.9881C37.1121 24.3569 37.4328 24.7578 37.7696 25.1747C37.9139 25.0625 38.0742 24.9502 38.2186 24.838C37.8658 24.4211 37.497 24.0362 37.1282 23.6835C37.0159 23.5712 36.8396 23.5712 36.7273 23.6514C36.6151 23.7155 36.6151 23.8759 36.7273 23.9881ZM37.0159 17.4459C36.8556 17.4299 36.7273 17.5421 36.6792 17.6864C36.6471 17.8307 36.7433 17.943 36.9037 17.959C37.1602 17.9911 37.4328 18.0231 37.6894 18.0552C37.946 18.1033 38.2025 18.1514 38.4591 18.1995C38.5072 18.0231 38.5553 17.8307 38.5874 17.6543C38.0422 17.5581 37.5291 17.478 37.0159 17.4459ZM39.357 25.319C38.8118 25.3831 38.2667 25.4152 37.7375 25.4152C37.7375 25.6076 37.7535 25.8001 37.7535 25.9764C38.2987 25.9925 38.8279 25.9604 39.3731 25.9283C39.5334 25.9123 39.6617 25.768 39.6617 25.5916C39.6617 25.4152 39.5174 25.2869 39.357 25.319ZM37.7215 15.3934C38.0261 14.9605 38.3308 14.4955 38.6034 14.0305C38.6836 13.8862 38.6355 13.6937 38.4911 13.6136C38.3468 13.5174 38.1704 13.5655 38.0903 13.7098C37.8177 14.1908 37.5451 14.6398 37.2565 15.0888L37.7215 15.3934ZM37.032 14.3351C36.5028 14.3832 35.9737 14.4634 35.4606 14.5436C35.3162 14.5757 35.188 14.7039 35.204 14.8482C35.22 14.9926 35.3483 15.0888 35.4926 15.0567C36.0218 14.9765 36.5349 14.9284 37.064 14.8803L37.032 14.3351ZM37.7856 16.2753L37.8177 15.7141C37.2885 15.6981 36.7433 15.7302 36.2302 15.7622C36.0699 15.7783 35.9416 15.9065 35.9416 16.0509C35.9416 16.1952 36.0538 16.2914 36.2142 16.2914C36.7113 16.2433 37.2404 16.2433 37.7856 16.2753ZM36.599 24.9342C36.5028 24.8059 36.3264 24.7738 36.2142 24.854C36.1019 24.9342 36.0699 25.0785 36.1661 25.2068C36.4707 25.6237 36.7754 26.0566 37.064 26.5216L37.5451 26.233C37.2244 25.768 36.9358 25.3511 36.599 24.9342ZM37.6573 12.5873C37.7215 12.443 37.6573 12.2506 37.513 12.1704C37.3687 12.0903 37.1923 12.1544 37.1282 12.2987C36.9037 12.7958 36.6792 13.2768 36.4226 13.7579C36.583 13.8381 36.7594 13.9343 36.9197 14.0144C37.1763 13.5655 37.4328 13.0844 37.6573 12.5873ZM38.2987 27.3394C37.978 27.3234 37.6573 27.2913 37.3366 27.2592C37.6894 27.4998 38.0422 27.6922 38.427 27.8846C38.5072 27.8365 38.5553 27.7563 38.5713 27.6601C38.5713 27.4837 38.4591 27.3394 38.2987 27.3394ZM38.8439 22.8176C38.411 22.4808 37.9941 22.1762 37.5451 21.9036C37.4168 21.8234 37.2404 21.8555 37.1442 21.9517C37.048 22.0479 37.0801 22.1922 37.2084 22.2884C37.4168 22.4327 37.6413 22.5771 37.8497 22.7374C38.0582 22.8977 38.2506 23.0581 38.4591 23.2345C38.5874 23.1062 38.7317 22.9779 38.8439 22.8176ZM40.6398 21.5027C40.5757 21.3424 40.4153 21.2622 40.255 21.3424C39.7579 21.5989 39.2608 21.8074 38.7637 21.9838L38.9401 22.5129C39.4532 22.3526 39.9824 22.1601 40.4634 21.9196C40.6398 21.8715 40.704 21.6631 40.6398 21.5027ZM38.5392 17.3176C38.7317 17.1252 38.908 16.9328 39.1005 16.7243C39.2769 16.5159 39.4532 16.3074 39.6136 16.099C39.7098 15.9707 39.6938 15.7622 39.5655 15.65C39.4372 15.5377 39.2448 15.5538 39.1486 15.6821C38.8279 16.115 38.4751 16.5479 38.1223 16.9328C38.2827 17.0611 38.3949 17.1893 38.5392 17.3176ZM38.9401 18.857C39.1486 18.6966 39.3731 18.5202 39.5655 18.3438C39.7579 18.1675 39.9663 17.975 40.1588 17.7826C40.271 17.6704 40.271 17.4619 40.1748 17.3336C40.0626 17.2054 39.8701 17.2054 39.7579 17.3176C39.3891 17.7185 38.9722 18.0873 38.5713 18.424C38.7156 18.5523 38.8279 18.6966 38.9401 18.857ZM37.6253 20.5567C37.4809 20.4925 37.3046 20.5567 37.2404 20.6689C37.1602 20.7811 37.2244 20.9255 37.3687 20.9896C37.8337 21.198 38.2827 21.4546 38.7477 21.7432L39.0524 21.2622C38.6034 20.9896 38.0903 20.7651 37.6253 20.5567ZM38.8439 20.4444L39.1165 20.9415C39.5975 20.701 40.0626 20.4284 40.5276 20.1237C40.6558 20.0275 40.704 19.8351 40.6077 19.6747C40.5115 19.5144 40.3352 19.4823 40.2069 19.5785C39.7739 19.8992 39.325 20.1879 38.8439 20.4444Z" fill="#ED232F"/>
<path d="M44.6485 23.892C44.6165 24.0684 44.7287 24.2448 44.873 24.2768C45.4182 24.4051 45.9634 24.4853 46.4926 24.5494L46.5727 23.9882C46.0275 23.9241 45.5305 23.7958 44.9853 23.6515C44.841 23.6034 44.6806 23.7156 44.6485 23.892ZM47.4867 18.7769C46.9736 18.8731 46.4765 19.0174 45.9634 19.1777C46.0115 19.3541 46.0917 19.5305 46.1719 19.7069C46.4284 19.6107 46.6689 19.5305 46.9095 19.4503C47.166 19.3702 47.4226 19.306 47.6791 19.2419C47.8234 19.2098 47.9036 19.0815 47.8555 18.9532C47.8074 18.825 47.6471 18.7448 47.4867 18.7769ZM48.1762 23.6354C48.064 23.5553 47.8876 23.5553 47.7753 23.6675C47.4065 24.0203 47.0377 24.4051 46.685 24.822C46.8293 24.9343 46.9896 25.0465 47.1339 25.1587C47.4707 24.7418 47.7914 24.357 48.1762 23.9722C48.2724 23.876 48.2724 23.7156 48.1762 23.6354ZM46.3162 17.6384C46.3482 17.8308 46.3963 18.0072 46.4444 18.1836C46.701 18.1194 46.9576 18.0713 47.2141 18.0393C47.4707 17.9912 47.7433 17.9591 47.9998 17.9431C48.1602 17.927 48.2564 17.8148 48.2243 17.6705C48.1922 17.5261 48.0479 17.4299 47.8876 17.4299C47.3745 17.478 46.8453 17.5582 46.3162 17.6384ZM45.2418 25.5917C45.2418 25.7681 45.3701 25.9124 45.5305 25.9284C46.0917 25.9765 46.6048 25.9926 47.15 25.9765C47.1339 25.7841 47.15 25.5917 47.166 25.4153C46.6369 25.4153 46.0917 25.3832 45.5465 25.3191C45.3861 25.287 45.2418 25.4153 45.2418 25.5917ZM47.6471 15.0728C47.3424 14.6238 47.0858 14.1749 46.8133 13.6938C46.7331 13.5495 46.5567 13.5014 46.4124 13.5976C46.2681 13.6938 46.22 13.8862 46.3001 14.0145C46.5727 14.4795 46.8774 14.9445 47.182 15.3775L47.6471 15.0728ZM47.8234 14.8964C48.3686 14.9285 48.8817 14.9926 49.3949 15.0728C49.5552 15.0888 49.6835 15.0087 49.6835 14.8644C49.6835 14.72 49.5712 14.5757 49.4269 14.5597C48.9138 14.4795 48.3847 14.3993 47.8555 14.3512L47.8234 14.8964ZM48.7054 16.2754C48.8657 16.2915 48.978 16.1792 48.978 16.0349C48.978 15.8906 48.8497 15.7623 48.6893 15.7463C48.1762 15.7142 47.631 15.6821 47.1019 15.6982L47.1339 16.2594C47.6631 16.2434 48.1762 16.2434 48.7054 16.2754ZM47.3745 26.217L47.8555 26.5057C48.1441 26.0407 48.4328 25.6077 48.7535 25.1908C48.8497 25.0625 48.8176 24.9182 48.7054 24.838C48.5931 24.7579 48.4167 24.7899 48.3205 24.9182C47.9678 25.3512 47.6631 25.7681 47.3745 26.217ZM47.9838 14.0305C48.1602 13.9343 48.3205 13.8542 48.4809 13.774C48.2404 13.309 47.9998 12.8119 47.7753 12.3148C47.7112 12.1705 47.5348 12.1064 47.3905 12.1865C47.2462 12.2667 47.182 12.4431 47.2462 12.6034C47.4707 13.0845 47.7272 13.5655 47.9838 14.0305ZM46.3482 27.6602C46.3643 27.7564 46.4124 27.8366 46.4926 27.8847C46.8614 27.7083 47.2302 27.4998 47.5829 27.2593C47.2622 27.2914 46.9415 27.3234 46.6208 27.3395C46.4444 27.3395 46.3322 27.4838 46.3482 27.6602ZM46.4284 23.2506C46.6208 23.0742 46.8293 22.9139 47.0377 22.7535C47.2462 22.5932 47.4707 22.4489 47.6791 22.3045C47.8074 22.2244 47.8395 22.08 47.7433 21.9678C47.6471 21.8716 47.4707 21.8395 47.3424 21.9197C46.9095 22.1923 46.4765 22.497 46.0436 22.8337C46.1558 22.978 46.3001 23.1063 46.4284 23.2506ZM44.408 21.9357C44.8891 22.1763 45.4343 22.3526 45.9313 22.529L46.1077 21.9999C45.6106 21.8235 45.1136 21.599 44.6165 21.3585C44.4722 21.2783 44.2958 21.3585 44.2316 21.5188C44.1835 21.6631 44.2637 21.8716 44.408 21.9357ZM46.7651 16.9329C46.4124 16.548 46.0596 16.1151 45.7389 15.6821C45.6427 15.5539 45.4503 15.5378 45.322 15.6501C45.1937 15.7623 45.1777 15.9708 45.2739 16.099C45.4503 16.3075 45.6106 16.516 45.787 16.7244C45.9634 16.9329 46.1558 17.1253 46.3482 17.3177C46.4925 17.1894 46.6208 17.0611 46.7651 16.9329ZM46.3162 18.4081C45.9153 18.0713 45.5144 17.6865 45.1296 17.3017C45.0173 17.1894 44.8249 17.1894 44.7127 17.3177C44.6004 17.446 44.6004 17.6544 44.7287 17.7667C44.9211 17.9591 45.1296 18.1515 45.322 18.3279C45.5305 18.5043 45.7389 18.6807 45.9474 18.841C46.0756 18.6967 46.1879 18.5524 46.3162 18.4081ZM45.8512 21.2623L46.1558 21.7433C46.6208 21.4547 47.0698 21.2142 47.5348 20.9897C47.6791 20.9255 47.7272 20.7812 47.6631 20.669C47.5829 20.5567 47.4226 20.5086 47.2783 20.5567C46.7972 20.7652 46.3001 20.9897 45.8512 21.2623ZM44.6806 19.5786C44.5523 19.4824 44.3759 19.5305 44.2797 19.6748C44.1835 19.8352 44.2316 20.0276 44.3599 20.1238C44.8249 20.4285 45.306 20.7011 45.771 20.9416L46.0436 20.4445C45.5625 20.1879 45.1296 19.8993 44.6806 19.5786Z" fill="#ED232F"/>
<path d="M34.8191 12.5874C36.4226 14.3512 38.5392 17.3497 38.5071 20.9255C38.475 23.1864 37.5931 25.3671 35.8774 27.4837C36.1821 27.6601 36.4867 27.8365 36.7914 27.9808C38.5873 25.7359 39.5013 23.3948 39.5333 20.9415C39.5814 17.0611 37.3847 13.8701 35.6689 11.978C35.3803 12.1544 35.0917 12.3629 34.8191 12.5874Z" fill="#003D6C"/>
<path d="M50.0685 12.5874C48.4651 14.3512 46.3485 17.3497 46.3805 20.9255C46.4126 23.1864 47.2945 25.3671 49.0102 27.4837C48.7056 27.6601 48.4009 27.8365 48.0963 27.9808C46.3004 25.7359 45.3864 23.3948 45.3543 20.9415C45.3062 17.0611 47.503 13.8701 49.2187 11.978C49.5234 12.1544 49.812 12.3629 50.0685 12.5874Z" fill="#003D6C"/>
<path d="M75.4677 42.1558V41.1616L76.9589 39.8789L75.4677 38.58V31.5568H69.2782V38.58L68.6048 39.1894L67.8993 38.58V31.5568H61.6938V34.9241L60.9722 31.5568H54.446L53.965 33.8016L51.2711 31.5568H45.0335H42.6924H34.7712V31.8935L34.3704 31.5568H28.6459L25.9039 33.8337L25.4229 31.5568H18.8967L18.4157 33.8016L15.7218 31.5568H7.14316V38.58L5.65192 39.8789L7.14316 41.1616V48.1689H15.353H15.7218H21.6707L22.1678 45.8599L22.6649 48.1689H28.6619H28.9666H34.3704L34.7712 47.8321V48.1689H42.6924H45.0816H50.9023H51.2711H57.22L57.7171 45.8599L58.2142 48.1689H61.6938H64.5159H69.2622H71.6674H79.2359V42.1398H75.4677V42.1558ZM67.8993 42.1558V41.1616L68.6048 40.5523L69.2782 41.1456V42.1398H67.8993V42.1558Z" fill="#003D6C"/>
<path d="M8.9551 40.3275L8.40991 39.8625L8.9551 39.3975V33.3684H15.0644L16.6999 34.7314V38.7241L15.7058 39.8465L16.6999 41.001V45.0097L15.0644 46.3727H8.9551V40.3275ZM11.5046 38.6599H14.1344V35.7736H11.5046V38.6599ZM11.5046 43.9675H14.1344V41.0812H11.5046V43.9675Z" fill="white"/>
<path d="M24.1241 46.3566L23.4987 43.4704H20.8209L20.1955 46.3566H17.5818L20.3559 33.3684H23.9477L26.7217 46.3566H24.1241ZM22.9856 41.0651L22.1518 37.1847L21.318 41.0651H22.9856Z" fill="white"/>
<path d="M35.3647 45.0097L33.7292 46.3726H29.3036L27.652 45.0097V42.9251H30.2176V43.9674H32.7992V41.0811H29.3036L27.652 39.7182V34.7474L29.3036 33.3844H33.7292L35.3647 34.7474V36.7678H32.7992V35.7896H30.2176V38.6759H33.7292L35.3647 40.0389V45.0097Z" fill="white"/>
<path d="M43.2698 46.3566H36.5833V40.3275L36.0381 39.8625L36.5833 39.3975V33.3684H43.2057V35.7736H39.1328V38.6599H42.6284V41.0651H39.1328V43.9514H43.2538V46.3566H43.2698Z" fill="white"/>
<path d="M44.5043 40.3275L43.9591 39.8625L44.5043 39.3975V33.3684H50.6296L52.2652 34.7314V38.7241L51.271 39.8465L52.2652 41.001V45.0097L50.6296 46.3727H44.5203V40.3275H44.5043ZM47.0699 38.6599H49.6996V35.7736H47.0699V38.6599ZM47.0699 43.9675H49.6996V41.0812H47.0699V43.9675Z" fill="white"/>
<path d="M59.6733 46.3566L59.048 43.4704H56.3701L55.7448 46.3566H53.1311L55.9051 33.3684H59.4969L62.271 46.3566H59.6733ZM58.5509 41.0651L57.7171 37.1847L56.8833 41.0651H58.5509Z" fill="white"/>
<path d="M69.8555 46.3566H63.5057V40.3275L62.9766 39.8625L63.5057 39.3975V33.3684H66.0713V39.3975L66.6165 39.8625L66.0713 40.3275V43.9514H69.8555V46.3566Z" fill="white"/>
<path d="M77.424 46.3566H71.0742V40.3275L70.545 39.8625L71.0742 39.3975V33.3684H73.6398V39.3975L74.185 39.8625L73.6398 40.3275V43.9514H77.424V46.3566Z" fill="white"/>
</svg>
