<svg width="32" height="28" viewBox="0 0 32 28" fill="none" xmlns="http://www.w3.org/2000/svg">
<path d="M15.9186 18.8867C21.1548 18.8867 25.3995 14.6588 25.3995 9.44334C25.3995 4.22793 21.1548 0 15.9186 0C10.6825 0 6.43774 4.22793 6.43774 9.44334C6.43774 14.6588 10.6825 18.8867 15.9186 18.8867Z" fill="#155ECD"/>
<path fill-rule="evenodd" clip-rule="evenodd" d="M5.55203 11.3719C5.57493 11.3019 5.59937 11.2305 5.62227 11.1605L5.6864 10.9673L5.88338 10.9126C6.76902 10.6677 7.65771 10.4365 8.5464 10.2054L9.02587 10.0806V10.1324C9.13123 10.0943 9.23964 10.0639 9.35111 10.0396C13.5579 9.12551 17.8028 8.59471 22.1028 8.40916C22.4326 8.39547 22.7578 8.45479 23.0418 8.60232L23.1335 8.37114L23.3915 8.36962C24.5887 8.36049 25.7843 8.38331 26.9814 8.44262C28.2411 8.50498 29.4978 8.6084 30.753 8.73464L31.176 8.77722L31.0905 9.19091C30.8782 10.219 30.6721 11.2502 30.472 12.2799C30.7484 12.3012 31.0233 12.3209 31.2996 12.3422L31.8356 12.3818L31.6218 12.873C31.2752 13.673 30.9286 14.4746 30.5972 15.2806L30.4934 15.5346L30.2186 15.5164C19.9894 14.8472 10.0841 16.9734 0.639797 20.8076L0 21.0708L0.117576 20.3924C0.569556 17.7841 1.0307 15.1757 1.48268 12.5673L1.52085 12.3483L1.73157 12.2738C2.605 11.962 3.48147 11.6563 4.36558 11.3719C4.76106 11.2426 5.18098 11.2289 5.55203 11.3719Z" fill="#155ECD"/>
<path fill-rule="evenodd" clip-rule="evenodd" d="M25.546 14.2176C26.3629 14.213 27.1798 14.2328 27.9937 14.283L29.4138 14.3697L28.0807 16.9096L29.2366 19.4191C27.4959 19.2959 25.3276 19.0328 23.6464 19.0419C23.2051 19.045 23.341 19.2427 22.8814 19.2579L23.1089 18.5735C18.3662 18.6069 13.4479 19.5499 8.98455 21.1423L10.0885 20.8853C7.85308 21.6335 5.20685 23.0921 2.81716 24.2221L4.04636 21.1104L2.61865 18.9035L3.86771 18.3773C4.70448 18.0244 5.55194 17.6989 6.4101 17.3978L6.59486 16.7027L7.1919 16.4792C9.51441 15.6092 11.9469 14.9704 14.3824 14.5066C17.7386 13.8678 21.2506 13.5301 24.668 13.5818L25.3627 13.5925L25.546 14.2176Z" fill="#155ECD"/>
<path fill-rule="evenodd" clip-rule="evenodd" d="M8.14184 4.97179C9.38173 2.83338 11.3744 1.39764 13.5946 0.804487C15.8148 0.211331 18.261 0.463803 20.4079 1.69726C22.5548 2.93224 23.9963 4.91703 24.5918 7.12844C25.1858 9.33985 24.9338 11.7763 23.6955 13.9148C22.4556 16.0532 20.4629 17.4889 18.2427 18.0821C16.0225 18.6737 13.5763 18.4227 11.4294 17.1893C9.28248 15.9543 7.84103 13.9695 7.24551 11.7581C6.65 9.54669 6.90194 7.11019 8.14184 4.97179Z" fill="#040D16"/>
<path fill-rule="evenodd" clip-rule="evenodd" d="M23.6112 12.5293C23.4356 10.9947 22.8935 9.50272 22.0232 8.18257C21.7407 7.75519 21.4246 7.34607 21.0734 6.95975C20.8718 7.55443 20.7756 8.3666 20.8306 9.4069C20.9635 11.9377 20.7894 14.8153 19.3189 16.9765C20.8535 16.2905 22.1942 15.1347 23.0997 13.5727C23.2967 13.232 23.4677 12.8837 23.6112 12.5293ZM20.5481 6.42135C20.2336 6.12173 19.8961 5.83884 19.5388 5.5742C17.6668 9.4723 15.0954 13.6077 12.1071 16.7772C13.9349 17.7217 16.0894 17.9605 18.076 17.4175C20.0794 15.3765 20.2901 12.1415 20.1481 9.44188C20.0962 8.47306 20.1481 7.32325 20.5481 6.42135ZM7.76747 10.9628C8.92948 8.8107 11.6215 7.51032 13.9791 6.37116C14.3945 6.1704 14.7976 5.97572 15.2038 5.76888C16.1764 5.27458 16.833 4.77268 17.227 4.28447C16.1612 3.85405 15.0572 3.61071 13.9608 3.54835C12.3789 3.45709 10.8092 3.73542 9.38757 4.35139C9.15089 4.65253 8.93407 4.97344 8.73556 5.31413C7.70639 7.09055 7.41474 9.09207 7.76747 10.9628ZM17.8714 4.5704C17.8622 4.58257 17.8546 4.59474 17.8454 4.60538C17.0102 5.72477 15.5198 6.38333 14.2784 6.98409C11.7391 8.21147 8.79053 9.63656 8.04996 12.0502C8.63631 13.8069 9.8136 15.375 11.4948 16.429C14.4892 13.2944 17.0957 9.11337 18.9662 5.18181C18.6135 4.95671 18.247 4.75291 17.8714 4.5704ZM19.8335 4.94302C20.2122 5.21527 20.5695 5.50728 20.9039 5.81603C21.0704 5.60462 21.2582 5.43884 21.4643 5.31869C21.8598 5.08751 22.3072 5.0282 22.7729 5.1301C22.86 5.14987 22.9485 5.1742 23.0371 5.20462C22.4721 4.26014 21.7102 3.41755 20.7711 2.74379C20.4932 3.45709 20.1801 4.19169 19.8335 4.94302ZM17.2697 1.29131C18.1371 1.94835 18.6364 2.90196 18.2073 3.97116C18.5677 4.14759 18.9189 4.34226 19.2578 4.55519C19.6029 3.80082 19.9129 3.06622 20.1862 2.36052C19.2899 1.82516 18.302 1.46166 17.2697 1.29131ZM17.5797 3.68979C17.6836 3.41147 17.6759 3.12554 17.595 2.85329C17.2911 1.8358 16.2192 1.22287 15.1839 1.23504C14.7258 1.2396 14.2509 1.33694 13.77 1.4647C12.5423 1.7917 11.3894 2.40006 10.4167 3.25785C11.5665 2.93086 12.779 2.7955 14.0005 2.86698C15.2053 2.93694 16.4162 3.20766 17.5797 3.68979ZM21.3956 6.30272C22.6737 7.64569 23.5929 9.2974 24.0449 11.0951C24.3106 9.7993 24.3518 7.27458 23.3241 6.24645C22.7118 5.63352 21.9224 5.56052 21.3956 6.30272Z" fill="#F6842C"/>
<path fill-rule="evenodd" clip-rule="evenodd" d="M23.6114 12.5292C23.5855 12.2965 23.5504 12.0638 23.5061 11.8341C22.735 13.0083 21.6646 13.9604 20.4048 14.5794C20.1651 15.4326 19.8169 16.2463 19.3191 16.9764C20.8537 16.2904 22.1944 15.1345 23.0999 13.5726C23.2969 13.2319 23.4679 12.8836 23.6114 12.5292ZM9.94818 4.12769C9.48857 5.13757 9.23204 6.26153 9.23204 7.44632C9.23204 7.99537 9.28701 8.53225 9.39237 9.05088C8.72509 9.60905 8.15858 10.2372 7.76768 10.9627C7.41495 9.09194 7.7066 7.09042 8.7373 5.314C8.93428 4.97331 9.15264 4.6524 9.38931 4.35126C9.57255 4.27065 9.75884 4.19613 9.94818 4.12769ZM9.58018 9.7946C10.1818 11.7672 11.524 13.4113 13.2754 14.3893C12.6998 15.1056 12.1043 15.7885 11.4935 16.4288C9.81228 15.3733 8.635 13.8053 8.04864 12.0501C8.31433 11.1832 8.86557 10.4425 9.58018 9.7946ZM13.9015 14.7011C14.8574 15.1254 15.9125 15.3627 17.0211 15.3627C17.9159 15.3627 18.7755 15.2091 19.5757 14.9262C19.252 15.8524 18.7725 16.7071 18.0747 17.4174C16.0866 17.9604 13.932 17.7216 12.1058 16.7771C12.7227 16.1231 13.3228 15.4281 13.9015 14.7011ZM20.5743 13.8843C20.3422 14.99 19.9498 16.0501 19.3191 16.9764C20.8537 16.2904 22.1944 15.1345 23.0999 13.5726C23.1396 13.5026 23.1793 13.4326 23.2175 13.3627C23.1396 13.3824 23.0633 13.4022 22.9808 13.4235C22.1257 13.6532 21.324 13.8022 20.5743 13.8843ZM10.9178 9.387C10.9178 9.387 11.9149 11.4935 14.4512 12.8486C14.1534 13.2592 13.8511 13.6608 13.5411 14.0547C12.3654 13.2364 11.3942 11.8296 10.9178 9.387ZM15.0757 13.1513C16.3309 13.7018 17.9082 14.0547 19.8582 13.9452C19.5909 15.1072 19.1267 16.2037 18.3633 17.1041C16.9997 16.6418 15.4269 15.8615 14.0282 14.5429C14.384 14.0897 14.7337 13.6243 15.0757 13.1513Z" fill="#C46218"/>
<path d="M24.0558 11.0419C24.1764 9.22896 23.755 7.43276 22.8541 5.89968C23.0174 5.98029 23.1762 6.0974 23.3244 6.24645C24.3383 7.2609 24.3123 9.72934 24.0558 11.0419ZM20.1819 10.7225C19.8444 9.36888 19.6505 7.43276 20.1666 6.07611C20.2964 6.18865 20.4247 6.30424 20.5483 6.42135C20.1498 7.32325 20.0964 8.47306 20.1483 9.44341C20.1681 9.85861 20.1819 10.2875 20.1819 10.7225ZM20.4873 5.44949C20.7988 4.99017 21.2431 4.65709 21.857 4.53086C21.4645 4.09284 21.0232 3.69131 20.5361 3.3339C20.6171 3.13618 20.6965 2.93846 20.7728 2.74379C21.7119 3.41755 22.4738 4.26014 23.0388 5.20462C22.9503 5.1742 22.8617 5.14835 22.7747 5.1301C22.3074 5.02668 21.86 5.08751 21.4661 5.31869C21.2599 5.43884 21.0721 5.60462 20.9057 5.81603C20.7682 5.69131 20.6293 5.56964 20.4873 5.44949ZM14.4558 12.8426C15.7369 10.6084 17.3906 7.60462 18.5633 4.93694C18.6992 5.01603 18.8336 5.09664 18.9664 5.18181C17.7433 7.74911 16.2087 10.4229 14.4558 12.8426ZM18.8351 4.30424C19.0733 3.7339 19.2856 3.18485 19.4627 2.66774C18.9908 2.41983 18.5053 2.22059 18.0121 2.0685C17.8242 1.77953 17.5692 1.51793 17.27 1.29284C18.3022 1.46318 19.2886 1.82668 20.1849 2.36204C19.9116 3.06774 19.6016 3.80234 19.2565 4.55671C19.1191 4.4685 18.9786 4.38485 18.8351 4.30424ZM11.805 7.4647C13.1899 6.45785 15.7766 5.29284 16.7829 4.11565C16.931 4.16736 17.0791 4.22363 17.2272 4.28447C16.8333 4.77268 16.1767 5.27611 15.204 5.76888C14.7978 5.97573 14.3932 6.1704 13.9794 6.37116C13.2678 6.71489 12.5257 7.0723 11.805 7.4647ZM17.1432 3.51945C17.3509 2.90044 16.9905 2.28295 15.659 1.68979C13.8343 1.65177 12.0126 2.18865 10.4597 3.22287C11.4248 2.38333 12.5608 1.78865 13.7717 1.4647C14.2527 1.33694 14.726 1.2396 15.1857 1.23504C16.2209 1.22287 17.2913 1.8358 17.5967 2.85329C17.6777 3.12401 17.6853 3.40995 17.5815 3.68979C17.4364 3.62896 17.2898 3.57268 17.1432 3.51945Z" fill="white"/>
<path fill-rule="evenodd" clip-rule="evenodd" d="M0.494629 20.4578C0.946609 17.8494 1.40775 15.2411 1.85973 12.6327C11.1574 9.31711 20.8429 8.12015 30.7147 9.11483C30.4735 10.2859 30.2414 11.4555 30.0138 12.6297C30.4322 12.6616 30.8521 12.692 31.2705 12.7239C30.9209 13.5285 30.5758 14.327 30.2429 15.1392C19.9389 14.4654 10.0168 16.5932 0.494629 20.4578Z" fill="#040D16"/>
<path fill-rule="evenodd" clip-rule="evenodd" d="M25.259 14.6022L25.3628 14.6007C26.2378 14.5916 27.1081 14.6114 27.9709 14.6646L28.8 14.7148L27.6533 16.8988L28.6183 18.9931C26.6928 18.9718 24.636 19.1087 22.8265 19.1543L23.2327 18.6722L8.71131 21.5041C6.90339 22.1079 5.26954 22.7528 3.50896 23.5072L4.474 21.0661L3.18677 19.0768L4.01591 18.727C4.87711 18.365 5.74748 18.0319 6.62396 17.7262L6.72779 17.6897L6.91408 16.9901L7.32483 16.8365C12.712 14.8182 19.2748 13.8813 24.6604 13.9635L25.0712 13.9695L25.259 14.6022Z" fill="#040D16"/>
<path d="M7.91162 18.0944L7.29626 20.4077L7.19243 18.9917C6.31442 19.2974 5.46085 19.6259 4.63477 19.9742L5.21959 20.8944L4.63477 22.3757C5.64714 21.9423 6.71296 21.5362 7.82153 21.1666C7.74824 20.9735 7.69785 20.7925 7.64746 20.5887C13.0468 18.5035 19.0813 17.4176 24.4807 17.562C24.4288 17.7841 24.3799 17.9833 24.3066 18.2024C25.4152 18.175 26.481 18.1963 27.4934 18.2662L26.9085 16.9963L27.4934 15.8647C26.6673 15.8145 25.8137 15.7932 24.9357 15.8024L24.8319 17.2563L24.2165 15.1636C18.9302 15.083 13.198 16.1141 7.91162 18.0944Z" fill="#F6842C"/>
<path d="M7.26835 20.0395C6.73391 20.2265 5.92462 20.5383 5.17946 20.8334L5.21764 20.8942L4.63281 22.3756C5.64519 21.9421 6.71101 21.536 7.81958 21.1665C7.74629 20.9733 7.6959 20.7923 7.64551 20.5885C13.0448 18.5033 19.0794 17.4174 24.4787 17.5619C24.4268 17.784 24.3779 17.9832 24.3046 18.2022C25.4132 18.1748 26.479 18.1961 27.4914 18.2661L26.9066 16.9961L26.9448 16.9216C26.1996 16.8942 25.3903 16.8745 24.8559 16.879L24.8284 17.2577L24.5337 16.2554C19.084 16.1094 13.0387 17.1969 7.58748 19.3018L7.29278 20.409L7.26835 20.0395Z" fill="#C46218"/>
<path fill-rule="evenodd" clip-rule="evenodd" d="M8.93431 18.832L8.69305 18.9232V18.3544C8.69305 18.3362 8.68236 18.3301 8.66251 18.3377L8.46859 18.4107C8.44568 18.4198 8.43652 18.4335 8.43652 18.4518V19.8267C8.43652 19.8449 8.44568 19.8525 8.46859 19.8434L8.66251 19.7704C8.68084 19.7628 8.69305 19.7491 8.69305 19.7309V19.162L8.93431 19.0708V19.6396C8.93431 19.6578 8.945 19.6639 8.96485 19.6563L9.15878 19.5833C9.18168 19.5742 9.19084 19.5605 9.19084 19.5423V18.1674C9.19084 18.1491 9.18168 18.1415 9.15878 18.1506L8.96485 18.2236C8.94653 18.2312 8.93431 18.2464 8.93431 18.2632V18.832ZM23.6878 15.708C23.6878 15.6898 23.6802 15.6791 23.6573 15.6791L22.964 15.6609C22.9472 15.6609 22.935 15.6715 22.935 15.6883V17.0632C22.935 17.0814 22.9457 17.0921 22.964 17.0921L23.6573 17.1103C23.6802 17.1103 23.6878 17.0997 23.6878 17.0829V16.9035C23.6878 16.8837 23.6802 16.8746 23.6573 16.8746L23.187 16.8624V16.5004L23.5473 16.5096C23.5657 16.5096 23.5779 16.4989 23.5779 16.4791V16.3012C23.5779 16.2814 23.5672 16.2708 23.5473 16.2693L23.187 16.2601V15.9027L23.6573 15.9149C23.6802 15.9149 23.6878 15.9027 23.6878 15.8845V15.708ZM22.7014 15.9255C22.7014 15.7567 22.6052 15.6685 22.4281 15.6715L22.2158 15.6746C22.0372 15.6761 21.941 15.7674 21.941 15.9362V16.8533C21.941 17.0221 22.0372 17.1103 22.2158 17.1073L22.4281 17.1042C22.6052 17.1027 22.7014 17.0115 22.7014 16.8426V16.6495C22.7014 16.6312 22.6907 16.6206 22.6709 16.6206L22.4815 16.6236C22.4601 16.6236 22.451 16.6343 22.451 16.6525V16.7955C22.451 16.8442 22.425 16.867 22.3746 16.8685L22.2754 16.87C22.2265 16.87 22.199 16.8472 22.199 16.8001V15.9833C22.199 15.9362 22.2235 15.9118 22.2754 15.9103L22.3746 15.9088C22.4235 15.9088 22.451 15.9331 22.451 15.9788V16.1217C22.451 16.14 22.4601 16.1506 22.4815 16.1506L22.6709 16.1476C22.6892 16.1476 22.7014 16.1369 22.7014 16.1187V15.9255ZM21.4768 15.6959C21.4554 15.6974 21.4462 15.708 21.4462 15.7263V16.4822H21.434L21.1439 15.7369C21.1378 15.7217 21.1271 15.7141 21.1088 15.7156L20.9194 15.7263C20.8996 15.7278 20.8889 15.7385 20.8889 15.7567V17.1316C20.8889 17.1499 20.8996 17.159 20.9194 17.159L21.1179 17.1483C21.1393 17.1468 21.1485 17.1362 21.1485 17.1179V16.359H21.1576L21.4508 17.1073C21.4569 17.1225 21.4676 17.1301 21.4859 17.1286L21.6753 17.1179C21.6951 17.1164 21.7058 17.1058 21.7058 17.0875V15.7111C21.7058 15.6928 21.6936 15.6837 21.6753 15.6837L21.4768 15.6959ZM20.6644 17.1696C20.6873 17.1681 20.695 17.1559 20.6919 17.1377L20.3743 15.7841C20.3697 15.7658 20.359 15.7597 20.3422 15.7613L20.0765 15.781C20.0598 15.7826 20.0475 15.7902 20.0445 15.8084L19.7269 17.2077C19.7208 17.2274 19.7315 17.2381 19.7513 17.2366L19.9559 17.2213C19.9727 17.2198 19.9834 17.2107 19.9865 17.194L20.0384 16.9293L20.3789 16.905L20.4323 17.162C20.4354 17.1772 20.4461 17.1864 20.4629 17.1848L20.6644 17.1696ZM20.33 16.6997L20.0857 16.7179L20.2079 16.0852L20.33 16.6997ZM19.2505 15.854C19.2276 15.8571 19.2138 15.8693 19.2077 15.8905L18.9939 16.8046L18.7802 15.9362C18.774 15.9149 18.7603 15.9058 18.7374 15.9088L18.4839 15.9362C18.4595 15.9392 18.4458 15.9529 18.4458 15.9757V17.3354C18.4458 17.3582 18.4595 17.3704 18.4839 17.3674L18.6611 17.3491C18.6855 17.3461 18.6992 17.3324 18.6992 17.3096V16.5035L18.713 16.502L18.9038 17.2913C18.9099 17.3126 18.9237 17.3217 18.9466 17.3187L19.0413 17.308C19.0642 17.305 19.0779 17.2928 19.084 17.2715L19.2749 16.4426L19.2886 16.4411V17.2472C19.2886 17.27 19.3024 17.2822 19.3268 17.2791L19.5055 17.2609C19.5299 17.2578 19.5436 17.2442 19.5436 17.2213V15.8617C19.5436 15.8388 19.5299 15.8267 19.5055 15.8297L19.2505 15.854ZM18.2091 16.2312C18.2091 16.0624 18.1129 15.9879 17.9312 16.0137L17.4471 16.0837C17.4273 16.0867 17.4166 16.0989 17.4166 16.1172V17.4921C17.4166 17.5103 17.4288 17.5194 17.4471 17.5164L17.6472 17.4875C17.667 17.4845 17.6777 17.4723 17.6777 17.454V17.0023L17.8105 16.9826L17.9403 17.4191C17.9449 17.4343 17.9541 17.4419 17.9724 17.4388L18.1724 17.4099C18.1938 17.4069 18.2045 17.3947 18.1999 17.3734L18.0671 16.9232C18.1602 16.8715 18.2075 16.7864 18.2075 16.6662L18.2091 16.2312ZM17.6792 16.7666V16.2875L17.8701 16.2601C17.9205 16.2525 17.9464 16.2738 17.9464 16.321V16.6571C17.9464 16.7042 17.919 16.7331 17.8701 16.7392L17.6792 16.7666ZM16.4073 17.4221C16.4073 17.5909 16.5035 17.6639 16.6852 17.6335L16.902 17.597C17.0837 17.5666 17.1799 17.4601 17.1799 17.2928V16.3757C17.1799 16.2069 17.0837 16.1339 16.902 16.1643L16.6852 16.2008C16.5035 16.2312 16.4073 16.3362 16.4073 16.505V17.4221ZM16.7417 17.3932C16.6913 17.4023 16.6638 17.3826 16.6638 17.3339V16.5065C16.6638 16.4594 16.6913 16.4305 16.7417 16.4213L16.8531 16.4031C16.9035 16.394 16.931 16.4153 16.931 16.4624V17.2898C16.931 17.3385 16.9035 17.3658 16.8531 17.375L16.7417 17.3932ZM16.2286 16.3042C16.2286 16.286 16.2164 16.2784 16.1981 16.2814L15.488 16.4107C15.4667 16.4153 15.4575 16.4274 15.4575 16.4457V17.8206C15.4575 17.8388 15.4667 17.848 15.488 17.8434L15.6881 17.8069C15.7079 17.8039 15.7186 17.7902 15.7186 17.7719V17.2016L16.082 17.1347C16.1019 17.1316 16.1126 17.1194 16.1126 17.0997V16.9202C16.1126 16.902 16.1003 16.8943 16.082 16.8974L15.7186 16.9643V16.6039L16.1965 16.5156C16.2164 16.5126 16.2271 16.4989 16.2271 16.4807L16.2286 16.3042ZM15.2178 16.7149C15.2178 16.5461 15.1216 16.4776 14.9399 16.5172L14.4558 16.6206C14.436 16.6251 14.4253 16.6373 14.4253 16.6556V18.0305C14.4253 18.0487 14.4375 18.0563 14.4558 18.0518L14.6558 18.0092C14.6757 18.0046 14.6864 17.9924 14.6864 17.9742V17.5225L14.8192 17.4936L14.949 17.921C14.9536 17.9362 14.9628 17.9438 14.9811 17.9392L15.1811 17.8966C15.2025 17.8921 15.2132 17.8784 15.2086 17.8586L15.0757 17.4175C15.1689 17.3597 15.2162 17.2715 15.2162 17.1514L15.2178 16.7149ZM14.6879 17.2867V16.8077L14.8788 16.7666C14.9292 16.7559 14.9551 16.7757 14.9551 16.8213V17.1575C14.9551 17.2046 14.9276 17.235 14.8788 17.2457L14.6879 17.2867ZM14.2084 16.7042C14.2084 16.686 14.2008 16.6769 14.1779 16.6829L13.4679 16.8518C13.4511 16.8563 13.4388 16.87 13.4388 16.8867V18.2616C13.4388 18.2799 13.4511 18.2875 13.4679 18.2829L14.1764 18.1141C14.1993 18.108 14.2069 18.0959 14.2069 18.0776V17.8982C14.2069 17.8784 14.1993 17.8708 14.1764 17.8769L13.6954 17.9924V17.6305L14.0634 17.5423C14.0832 17.5377 14.0939 17.524 14.0939 17.5042V17.3263C14.0939 17.3065 14.0817 17.2989 14.0634 17.3035L13.6954 17.3917V17.0343L14.1764 16.9187C14.1993 16.9126 14.2069 16.8989 14.2069 16.8807V16.7042H14.2084ZM12.4326 18.5172C12.4326 18.5354 12.4448 18.543 12.4631 18.5385L12.6632 18.4867C12.6845 18.4807 12.6937 18.4685 12.6937 18.4502V17.9985L12.9243 17.9392C13.1044 17.8936 13.2006 17.778 13.2006 17.6107V17.1742C13.2006 17.0054 13.1044 16.9415 12.9243 16.9871L12.4631 17.1042C12.4433 17.1088 12.4326 17.1225 12.4326 17.1407V18.5172ZM12.6952 17.7628V17.2837L12.8647 17.2411C12.9166 17.2274 12.9411 17.2472 12.9411 17.2928V17.6289C12.9411 17.6731 12.9166 17.7065 12.8647 17.7202L12.6952 17.7628ZM11.4569 17.9864L11.2125 18.0624V17.4936C11.2125 17.4753 11.2003 17.4693 11.182 17.4738L10.985 17.5347C10.9621 17.5423 10.953 17.5559 10.953 17.5742V18.9491C10.953 18.9674 10.9621 18.975 10.985 18.9674L11.182 18.9065C11.2018 18.9004 11.2125 18.8867 11.2125 18.8685V18.2997L11.4569 18.2236V18.7924C11.4569 18.8107 11.4691 18.8168 11.4874 18.8122L11.6844 18.7514C11.7073 18.7438 11.7164 18.7301 11.7164 18.7134V17.3385C11.7164 17.3202 11.7073 17.3126 11.6844 17.3202L11.4874 17.381C11.4675 17.3871 11.4569 17.4008 11.4569 17.4191V17.9864ZM9.91768 19.0586C9.91768 19.2274 10.0123 19.2852 10.1925 19.2259L10.4445 19.1423C10.6216 19.0829 10.7193 18.9628 10.7193 18.794V18.2966C10.7193 18.2769 10.7071 18.2723 10.6888 18.2784L10.3697 18.3848C10.3483 18.3924 10.3391 18.4046 10.3391 18.4229V18.6023C10.3391 18.6206 10.3483 18.6282 10.3697 18.6206L10.4689 18.5871V18.8274C10.4689 18.8761 10.4429 18.908 10.3926 18.9248L10.2551 18.9704C10.2063 18.9871 10.1788 18.9719 10.1788 18.9232V18.1065C10.1788 18.0594 10.2032 18.0274 10.2551 18.0092L10.3926 17.9636C10.4414 17.9468 10.4689 17.9635 10.4689 18.0107V18.1461C10.4689 18.1643 10.4781 18.1719 10.4994 18.1643L10.6903 18.102C10.7086 18.0959 10.7209 18.0807 10.7209 18.0639V17.8784C10.7209 17.7096 10.6231 17.6533 10.446 17.7111L10.1941 17.7947C10.0154 17.854 9.9192 17.9742 9.9192 18.143V19.0586H9.91768ZM9.45653 18.0472C9.43516 18.0548 9.42599 18.0685 9.42599 18.0867V19.4616C9.42599 19.4799 9.43516 19.4875 9.45653 19.4799L9.65351 19.4099C9.67184 19.4039 9.68405 19.3886 9.68405 19.3704V17.9955C9.68405 17.9772 9.67336 17.9712 9.65351 17.9772L9.45653 18.0472Z" fill="#040D16"/>
<path fill-rule="evenodd" clip-rule="evenodd" d="M3.51504 13.8903C3.4677 14.1443 3.42648 14.3968 3.38067 14.6492C3.33486 14.9017 3.29058 15.1557 3.24629 15.4082C3.41884 15.3473 3.59291 15.2865 3.76546 15.2226C3.80364 15.2089 3.83876 15.1861 3.86777 15.1527C3.89678 15.1192 3.91663 15.0766 3.92579 15.0234C3.99756 14.6082 4.07238 14.1915 4.14415 13.7762C4.15636 13.7032 4.13499 13.6759 4.06627 13.6987C3.87998 13.7641 3.6998 13.8295 3.51504 13.8903ZM28.661 9.75799C29.0077 9.78689 29.3512 9.82187 29.7009 9.85685C29.5787 10.45 29.4612 11.0401 29.3482 11.6302C29.2352 12.2204 29.1176 12.8105 29.0077 13.4006C29.3451 13.4219 29.6841 13.4477 30.0277 13.4736C29.9147 13.7352 29.8001 13.9998 29.6933 14.2629C29.0672 14.2219 28.4381 14.193 27.809 14.1702C27.9495 13.4356 28.0945 12.701 28.235 11.9664C28.3724 11.2302 28.519 10.4926 28.661 9.75799ZM26.2759 9.61503C26.6287 9.62872 26.9753 9.64393 27.3249 9.66218C27.2028 10.2721 27.0867 10.8804 26.9692 11.4888C26.8531 12.0972 26.7355 12.704 26.6195 13.3124C26.9631 13.3169 27.3066 13.323 27.6471 13.3337C27.5341 13.6074 27.4227 13.8812 27.3173 14.1534C26.676 14.1473 26.0438 14.1473 25.4056 14.1565C25.5506 13.4006 25.6972 12.6432 25.8392 11.8858C25.9843 11.1314 26.1324 10.3724 26.2759 9.61503ZM23.3915 13.6667C23.3213 13.8614 23.251 14.0576 23.1899 14.2508C22.8403 14.2721 22.4875 14.2979 22.1409 14.3253C22.4432 13.5283 22.7502 12.7344 23.0525 11.942C23.3533 11.1542 23.6618 10.3679 23.9702 9.58613C24.3336 9.58309 24.6986 9.58461 25.0681 9.58765C25.0711 10.3572 25.0803 11.1253 25.091 11.8873C25.1032 12.6492 25.1078 13.4097 25.1231 14.1656C24.7734 14.1747 24.4268 14.1869 24.0832 14.2021C24.0832 14.012 24.0924 13.8234 24.0954 13.6333C23.8633 13.6439 23.6251 13.6561 23.3915 13.6667ZM23.645 12.923C23.8022 12.9154 23.9656 12.9093 24.126 12.9048C24.1351 12.6325 24.1473 12.3588 24.1611 12.0865C24.1748 11.8143 24.187 11.5405 24.1993 11.2667C24.1061 11.542 24.0099 11.8173 23.9198 12.0941C23.8297 12.3694 23.7381 12.6462 23.645 12.923ZM20.9942 10.523C20.9529 10.7344 20.9163 10.9458 20.8781 11.1572C20.8399 11.3656 20.7972 11.5785 20.7651 11.7884C20.9254 11.7762 21.0888 11.7641 21.2553 11.7519C21.2965 11.7489 21.3225 11.7382 21.3515 11.7154C21.3805 11.6941 21.3958 11.6622 21.4034 11.6181C21.4675 11.2728 21.5317 10.9245 21.5958 10.5793C21.608 10.5169 21.5836 10.4865 21.5255 10.4911C21.3469 10.5017 21.1713 10.5139 20.9942 10.523ZM21.2339 12.6082C21.2446 12.5565 21.2369 12.5169 21.214 12.5017C21.1866 12.4819 21.153 12.4774 21.1041 12.4819C20.9468 12.4956 20.7865 12.5093 20.6292 12.5215C20.5529 12.9032 20.4872 13.2804 20.4139 13.6607C20.588 13.6439 20.7697 13.6272 20.9438 13.6105C20.985 13.6059 21.014 13.5968 21.0308 13.58C21.0491 13.5633 21.0598 13.5375 21.0659 13.5025C21.1194 13.2044 21.1759 12.9063 21.2339 12.6082ZM22.4158 11.4842C22.3913 11.6029 22.3486 11.7032 22.2814 11.793C22.2173 11.8797 22.1088 11.9466 21.9607 11.9922C22.1088 11.9907 22.2035 12.0287 22.2524 12.1078C22.2997 12.1869 22.3165 12.2797 22.2967 12.3831C22.2554 12.5899 22.2157 12.7937 22.1776 12.9975C22.1394 13.2013 22.0997 13.4067 22.0646 13.612C22.0188 13.8721 21.9241 14.0622 21.7821 14.1869C21.6385 14.3116 21.4171 14.3846 21.1178 14.415C20.4826 14.4774 19.8505 14.5519 19.2153 14.628C19.3664 13.8143 19.5191 13.0006 19.6703 12.1869C19.8199 11.3747 19.9757 10.558 20.1284 9.74278C20.8079 9.69868 21.4797 9.66066 22.1592 9.63176C22.3638 9.62263 22.5043 9.67282 22.5853 9.7732C22.6662 9.87358 22.6967 10.0105 22.6631 10.1838C22.6219 10.4029 22.5791 10.6188 22.5379 10.8348C22.4952 11.0508 22.4585 11.2667 22.4158 11.4842ZM19.5787 9.78385C19.6046 10.0835 19.6336 10.38 19.6596 10.6781C19.426 10.6979 19.1939 10.7177 18.9633 10.7405C18.8411 11.4097 18.7144 12.0789 18.5907 12.7511C18.467 13.4204 18.3464 14.0896 18.2212 14.7588C17.8593 14.8105 17.5051 14.8622 17.1432 14.9184C17.2684 14.2416 17.3921 13.5633 17.5157 12.885C17.6394 12.2067 17.7662 11.5299 17.8914 10.8515C17.6547 10.8774 17.4226 10.9032 17.1859 10.9321C17.334 10.6082 17.4852 10.2842 17.6379 9.9618C18.2853 9.8964 18.9312 9.83708 19.5787 9.78385ZM14.9123 10.2918C15.5964 10.2021 16.282 10.1154 16.966 10.0348C16.966 10.3435 16.966 10.6508 16.9721 10.9565C16.5874 11.0036 16.2026 11.0538 15.8239 11.104C15.7475 11.5086 15.6758 11.9131 15.6025 12.3162C15.8941 12.2736 16.1827 12.2325 16.4728 12.193C16.4209 12.4835 16.3644 12.7755 16.3156 13.066C16.0239 13.1086 15.7307 13.1557 15.4421 13.1983C15.3719 13.5694 15.3047 13.942 15.236 14.3116C15.6055 14.2523 15.9766 14.1899 16.3461 14.1337C16.227 14.4561 16.1079 14.78 15.9903 15.104C15.3169 15.2196 14.6451 15.3397 13.9717 15.466C14.1289 14.6051 14.2862 13.7428 14.4404 12.8804C14.5947 12.0181 14.755 11.1557 14.9123 10.2918ZM12.4096 12.8819C12.4615 12.8728 12.518 12.8622 12.5699 12.8515C12.7333 12.4576 12.8906 12.0622 13.0479 11.6713C13.2051 11.2804 13.3655 10.8896 13.5289 10.4987C13.8923 10.4409 14.2572 10.3877 14.6237 10.3344C14.4374 10.7511 14.2572 11.1679 14.0816 11.5816C13.9045 11.9983 13.7228 12.4165 13.5487 12.8333C13.5686 13.2835 13.5869 13.7352 13.6067 14.1838C13.6266 14.631 13.648 15.0797 13.6678 15.5238C13.28 15.6013 12.8906 15.6804 12.4997 15.7626C12.4936 15.4158 12.489 15.0705 12.4844 14.7207C12.4798 14.374 12.4722 14.0257 12.4722 13.6759C12.3989 13.6911 12.3271 13.7063 12.2569 13.7184C12.1897 14.0835 12.1271 14.447 12.0614 14.8089C11.9958 15.1724 11.9271 15.5359 11.8629 15.8994C11.4995 15.9816 11.1346 16.0652 10.7712 16.1504C10.9315 15.2591 11.0933 14.3679 11.2522 13.4766C11.411 12.5854 11.5728 11.6926 11.7362 10.8013C12.0981 10.7359 12.4585 10.6721 12.8234 10.6097C12.7532 10.9884 12.6829 11.3656 12.6173 11.7443C12.5485 12.1261 12.4829 12.5032 12.4096 12.8819ZM8.17074 16.8287C8.16464 16.5063 8.16158 16.1823 8.16158 15.8584C8.54943 15.7519 8.9327 15.6485 9.32055 15.5511C9.40453 15.5299 9.45339 15.4827 9.46561 15.4082C9.52516 15.0766 9.58624 14.7481 9.64273 14.4181C9.65495 14.3435 9.64884 14.3025 9.62288 14.2949C9.59693 14.2873 9.54654 14.2918 9.47171 14.3086C9.28848 14.3527 9.10219 14.4013 8.91895 14.447C8.83803 14.4683 8.75862 14.4804 8.69144 14.4865C8.61814 14.4926 8.56165 14.4819 8.51126 14.45C8.46545 14.4211 8.43185 14.3664 8.41506 14.2934C8.39826 14.2204 8.39673 14.1154 8.42117 13.98C8.47614 13.6683 8.53416 13.358 8.59066 13.0462C8.64716 12.7329 8.70518 12.4226 8.76015 12.1108C8.79833 11.8934 8.88536 11.7078 9.02584 11.5511C9.1648 11.396 9.36025 11.2865 9.61372 11.2318C10.1054 11.1253 10.5986 11.0234 11.0903 10.9261C11.0872 11.2485 11.0933 11.5694 11.0933 11.8903C10.6887 11.9755 10.2871 12.0591 9.88094 12.1489C9.7939 12.1686 9.74046 12.2204 9.72672 12.2979C9.66717 12.6295 9.60914 12.9595 9.54959 13.2896C9.5389 13.3443 9.54654 13.3778 9.56944 13.393C9.59235 13.4082 9.63357 13.4067 9.68549 13.3945C9.91301 13.3413 10.1344 13.2911 10.365 13.2409C10.5345 13.2044 10.6582 13.215 10.7345 13.2774C10.8093 13.3382 10.8261 13.4705 10.7895 13.6743C10.736 13.9709 10.6826 14.266 10.6322 14.5595C10.5803 14.8546 10.5284 15.1496 10.4749 15.4447C10.4215 15.7413 10.3238 15.9679 10.1802 16.12C10.0352 16.2751 9.81223 16.3861 9.50378 16.4667C9.06096 16.5823 8.61967 16.7025 8.17074 16.8287ZM5.98261 16.8333C5.90626 17.0766 5.83449 17.32 5.7612 17.5618C5.39473 17.6835 5.02673 17.8067 4.66026 17.9359C4.99161 16.9321 5.32296 15.9314 5.65126 14.9367C5.97803 13.9451 6.31549 12.9565 6.64531 11.9709C7.0301 11.8645 7.41795 11.7626 7.80122 11.6637C7.80122 12.5489 7.79053 13.434 7.789 14.3146C7.78748 15.1922 7.789 16.0667 7.79206 16.9367C7.42864 17.0447 7.0637 17.1527 6.70181 17.2637C6.70486 17.0462 6.71708 16.8242 6.72471 16.6021C6.47582 16.6766 6.22998 16.7542 5.98261 16.8333ZM6.26052 15.9025C6.42695 15.8523 6.59492 15.8021 6.76441 15.7519C6.77968 15.4356 6.79801 15.1162 6.81328 14.7998C6.83007 14.4804 6.8484 14.161 6.86825 13.8416C6.76594 14.1854 6.65753 14.5306 6.5598 14.8728C6.46207 15.215 6.35824 15.5603 6.26052 15.9025ZM3.73187 16.2112C3.74408 16.1473 3.73645 16.1063 3.71202 16.0956C3.68148 16.0819 3.64789 16.0865 3.59291 16.1063C3.42648 16.1671 3.25851 16.228 3.09513 16.2873C3.0142 16.7435 2.93479 17.1983 2.85387 17.6546C3.04015 17.5861 3.22492 17.5162 3.40968 17.4462C3.45396 17.4295 3.48755 17.4082 3.50588 17.3838C3.52573 17.3565 3.53642 17.3245 3.54405 17.2835C3.60208 16.9261 3.66621 16.5686 3.73187 16.2112ZM4.99008 14.5899C4.96413 14.7314 4.91832 14.8622 4.84808 14.9808C4.77631 15.101 4.66484 15.2059 4.51062 15.2972C4.65873 15.2576 4.75951 15.2743 4.8099 15.3519C4.86029 15.4295 4.87404 15.5314 4.85113 15.6576C4.80685 15.904 4.76409 16.1504 4.71981 16.3968C4.67553 16.6432 4.63278 16.8896 4.58849 17.1344C4.53352 17.4492 4.43122 17.6926 4.28005 17.8751C4.13193 18.0546 3.89983 18.2036 3.5807 18.3223C2.91494 18.5717 2.24919 18.8378 1.58496 19.107C1.75445 18.1321 1.92395 17.1572 2.09497 16.1823C2.26599 15.2074 2.43853 14.231 2.60802 13.2561C3.31806 13.0021 4.02963 12.7618 4.74272 12.5306C4.95496 12.4622 5.10766 12.4759 5.1947 12.5671C5.28021 12.6599 5.30617 12.812 5.27105 13.0219C5.22524 13.2835 5.17485 13.5435 5.12904 13.8051C5.08017 14.0667 5.03742 14.3283 4.99008 14.5899Z" fill="#B4B4B4"/>
<path fill-rule="evenodd" clip-rule="evenodd" d="M3.54997 13.6988L3.24763 15.4099C3.42017 15.349 3.59425 15.2882 3.76679 15.2243C3.95308 15.1574 4.1409 15.1057 4.18213 14.8654C4.25389 14.4502 4.35162 13.9178 4.42186 13.5026C4.43408 13.4296 4.4127 13.4023 4.34246 13.4251L3.54997 13.6988ZM28.8807 9.7764C29.154 9.80074 29.4258 9.82812 29.7007 9.85549C29.5785 10.4486 29.461 11.0388 29.348 11.6289C29.235 12.219 29.1174 12.8091 29.0075 13.3992C29.3449 13.4205 29.6839 13.4464 30.0275 13.4722C29.9557 13.6395 29.8824 13.8068 29.8122 13.9756C29.238 13.9391 28.6608 13.9133 28.0852 13.892C28.2257 13.1574 28.3707 12.4228 28.5112 11.6882C28.6303 11.054 28.757 10.4152 28.8807 9.7764ZM26.4987 9.62583C26.775 9.638 27.0484 9.65017 27.3247 9.66386C27.2026 10.2737 27.0865 10.8821 26.969 11.4905C26.8529 12.0988 26.7353 12.7057 26.6193 13.314C26.9629 13.3186 27.3064 13.3247 27.6469 13.3353C27.5721 13.5163 27.4988 13.6973 27.4271 13.8768C26.8438 13.8722 26.2666 13.8737 25.6848 13.8813C25.8299 13.1255 25.9764 12.368 26.1185 11.6106C26.2437 10.9505 26.3719 10.2874 26.4987 9.62583ZM23.2783 13.9878C22.9912 14.0076 22.7026 14.0274 22.4186 14.0502C22.721 13.2532 23.0279 12.4593 23.3302 11.6669C23.5959 10.9703 23.8677 10.2768 24.1395 9.58629C24.448 9.58477 24.7564 9.58629 25.0694 9.58933C25.0725 10.3589 25.0816 11.127 25.0923 11.889C25.103 12.5612 25.1076 13.2319 25.1198 13.8996C24.8648 13.9072 24.6129 13.9178 24.3609 13.9285C24.3609 13.7384 24.3701 13.5498 24.3731 13.3597C24.1395 13.3688 23.7196 13.3901 23.486 13.4007L23.2783 13.9878ZM23.6448 12.9232L24.393 12.8958C24.4205 12.0274 24.4632 11.1589 24.5243 10.2935L23.6448 12.9232ZM20.7634 11.7871C20.9237 11.7749 21.0871 11.7642 21.2536 11.7505C21.4154 11.7384 21.62 11.6532 21.6536 11.4768C21.7177 11.1315 21.8063 10.6479 21.8704 10.3042C21.8827 10.2433 21.8582 10.2114 21.8002 10.2159C21.6231 10.2266 21.22 10.2524 21.0428 10.2616L20.7634 11.7871ZM20.4122 13.6593C20.5863 13.6426 20.768 13.6258 20.9421 13.6091C21.052 13.5985 21.2719 13.5939 21.3131 13.3794L21.5116 12.3315C21.5208 12.2798 21.5147 12.2403 21.4918 12.2251C21.4643 12.2053 21.4307 12.2007 21.3818 12.2053C21.2245 12.219 20.8382 12.2509 20.6809 12.2631L20.4122 13.6593ZM22.4156 11.4844C22.3927 11.5969 22.3499 11.7019 22.2812 11.7931C22.2171 11.8798 22.1086 11.9467 21.9605 11.9924C22.1086 11.9909 22.2033 12.0289 22.2522 12.108C22.2995 12.187 22.3163 12.2798 22.2965 12.3832C22.2552 12.5901 22.2155 12.7939 22.1774 12.9977C22.1392 13.2015 22.0995 13.4068 22.0644 13.6121C22.0384 13.7627 21.9941 13.8905 21.9361 13.9954C21.8002 14.0699 21.62 14.1156 21.3956 14.1384C20.7603 14.2007 20.1282 14.2753 19.493 14.3513C19.6441 13.5376 19.7968 12.7239 19.948 11.9102C20.0824 11.1848 20.2213 10.4563 20.3572 9.72773C20.9588 9.68971 21.5574 9.65625 22.159 9.6304C22.3637 9.62127 22.5041 9.67146 22.5851 9.77184C22.666 9.87222 22.6965 10.0091 22.6629 10.1825C22.6217 10.4015 22.579 10.6175 22.5377 10.8334C22.4934 11.0509 22.4583 11.2669 22.4156 11.4844ZM19.5785 9.78401C19.5968 9.99998 19.6182 10.2144 19.638 10.4289C19.5052 10.441 19.1418 10.473 19.0104 10.4867L18.2668 14.5156C17.9843 14.5566 17.7049 14.5977 17.4209 14.6418C17.6713 13.2867 17.9187 11.93 18.1691 10.5749C17.9324 10.6007 17.7003 10.6266 17.4636 10.6555C17.572 10.4182 17.682 10.1825 17.7935 9.94675C18.3874 9.88743 18.983 9.8342 19.5785 9.78401ZM15.1442 10.2616C15.7519 10.1825 16.3581 10.1064 16.9658 10.035C16.9658 10.2631 16.9658 10.4897 16.9689 10.7148C16.6788 10.7513 16.1566 10.8243 15.8695 10.8623L15.6038 12.3148C15.8954 12.2722 16.184 12.2312 16.4742 12.1916C16.436 12.4015 16.3963 12.6129 16.3596 12.8243C16.1459 12.8563 15.7 12.9247 15.4877 12.9566L15.2358 14.3118C15.6053 14.2524 15.9764 14.1901 16.3459 14.1338C16.2558 14.3756 16.1672 14.619 16.0787 14.8608C15.4694 14.9658 14.8586 15.0768 14.2494 15.1909C14.5471 13.5467 14.8434 11.9042 15.1442 10.2616ZM12.4094 12.8821L12.7301 12.8213C12.8934 12.4274 13.1668 11.787 13.324 11.3962C13.4477 11.0874 13.5745 10.7802 13.7012 10.473C14.0081 10.4258 14.3135 10.3802 14.6235 10.3346C14.4372 10.7513 14.257 11.168 14.0814 11.5817C13.9043 11.9985 13.7226 12.4167 13.5485 12.8334C13.5684 13.2836 13.5867 13.7353 13.6065 14.184L13.6584 15.3064C13.3653 15.3658 13.0721 15.4266 12.7774 15.4874L12.7514 13.6213L12.2582 13.7201C12.191 14.0851 12.1284 14.4486 12.0628 14.8106C12.0109 15.1011 11.9559 15.3901 11.904 15.6775C11.6184 15.7429 11.3344 15.8083 11.0489 15.8753C11.2092 14.984 11.3711 14.0928 11.5299 13.2015C11.6749 12.3878 11.8215 11.5741 11.9712 10.7604C12.2536 10.7102 12.5377 10.6601 12.8232 10.6114C12.753 10.9901 12.6827 11.3673 12.6171 11.746C12.5483 12.1262 12.4827 12.5034 12.4094 12.8821ZM8.43929 15.784C8.734 15.7049 9.02717 15.6274 9.32188 15.5513C9.50817 15.5042 9.6914 15.4296 9.72805 15.2228C9.7876 14.8958 9.867 14.4623 9.92197 14.1429C9.93419 14.0684 9.92808 14.0274 9.90212 14.0197C9.87617 14.0121 9.82578 14.0167 9.75095 14.0334C9.56772 14.0775 9.38143 14.1262 9.19819 14.1718C9.11727 14.1931 9.03786 14.2053 8.97068 14.2114C8.89738 14.2175 8.84089 14.2068 8.7905 14.1749C8.74469 14.146 8.71262 14.0912 8.6943 14.0182C8.6775 13.9452 8.67597 13.8403 8.70041 13.7049C8.75538 13.3931 8.8134 13.0829 8.8699 12.7711C8.9264 12.4578 8.98442 12.1475 9.03939 11.8357C9.0684 11.6715 9.1249 11.5239 9.21194 11.3947C9.32493 11.3217 9.4593 11.2669 9.61506 11.2319C10.1067 11.1255 10.5999 11.0236 11.0916 10.9262C11.0901 11.1756 11.0916 11.4251 11.0932 11.673L10.0594 11.8935C9.81203 11.9452 9.7708 12.0547 9.72652 12.3011L9.54787 13.2928C9.53871 13.3475 9.54481 13.381 9.56772 13.3962C9.59062 13.4114 9.63185 13.4099 9.68377 13.3977C9.91129 13.3445 10.1327 13.2943 10.3633 13.2441C10.5328 13.2076 10.6564 13.2182 10.7328 13.2806C10.8076 13.3414 10.8244 13.4737 10.7878 13.6775C10.7343 13.9741 10.6809 14.2692 10.6305 14.5627C10.5786 14.8578 10.5267 15.1528 10.4732 15.4479C10.4335 15.6684 10.3694 15.8494 10.2808 15.9909C10.1495 16.0745 9.98458 16.1414 9.77997 16.1947C9.33715 16.3102 8.89433 16.4304 8.4454 16.5566C8.44235 16.2981 8.43929 16.041 8.43929 15.784ZM6.04655 16.6235L5.82361 17.3566C5.52891 17.4555 5.23268 17.5543 4.93797 17.6578C5.27085 16.654 5.60067 15.6532 5.92897 14.6585C6.23131 13.7414 6.54281 12.8258 6.8482 11.9118C7.16581 11.8251 7.48494 11.7429 7.80102 11.6593C7.80102 12.5445 7.79034 13.4296 7.78881 14.3102C7.78728 15.1239 7.78881 15.9331 7.79186 16.7391C7.52006 16.8197 7.24979 16.9019 6.97952 16.984L7.00242 16.3224L6.04655 16.6235ZM6.25879 15.9026L7.02991 15.673L7.16734 12.8258L6.25879 15.9026ZM2.85062 17.6547C3.03691 17.5863 3.22167 17.5163 3.40643 17.4464C3.57134 17.384 3.76069 17.3338 3.79581 17.1239C3.85536 16.768 3.94239 16.2935 4.00653 15.9361C4.01874 15.8722 4.01111 15.8312 3.98668 15.8205C3.95614 15.8068 3.92254 15.8114 3.86757 15.8312L3.12547 16.1004L2.85062 17.6547ZM4.98989 14.5901C4.96393 14.7315 4.91812 14.8623 4.84788 14.981L4.84635 14.984C4.82803 14.9962 4.80818 15.0083 4.7868 15.0205C4.80055 15.0159 4.81429 15.0129 4.82803 15.0099C4.75626 15.1163 4.6509 15.2121 4.5089 15.2958C4.65701 15.2563 4.75779 15.273 4.80818 15.3505C4.85857 15.4281 4.87231 15.53 4.84941 15.6563C4.80513 15.9026 4.76237 16.149 4.71809 16.3954C4.67381 16.6418 4.63105 16.8882 4.58677 17.1331C4.53791 17.4068 4.45393 17.6274 4.3333 17.8007C4.20503 17.8935 4.04623 17.9741 3.85536 18.0456C3.1896 18.295 2.52385 18.5612 1.85962 18.8304C2.02911 17.8555 2.1986 16.8806 2.36962 15.9057C2.52843 14.9947 2.69029 14.0806 2.84909 13.168C3.4782 12.946 4.10883 12.7346 4.74099 12.5293C4.95324 12.4608 5.10594 12.4745 5.19298 12.5658C5.27849 12.6585 5.30444 12.8106 5.26932 13.0205C5.22351 13.2821 5.17312 13.5422 5.12732 13.8038C5.07998 14.0669 5.03723 14.3285 4.98989 14.5901Z" fill="white"/>
<path fill-rule="evenodd" clip-rule="evenodd" d="M16.0133 19.4768C12.2982 20.1779 9.36033 21.1696 9.45042 21.6897C9.4947 21.9452 10.2628 22.0395 11.4721 21.9863C8.02576 22.5992 7.14165 21.4966 10.9804 20.1779C12.289 19.7277 14.0115 19.2806 15.9171 18.9201C17.8227 18.5597 19.5864 18.3498 20.9637 18.292C25.004 18.1232 24.5475 19.4798 21.1149 20.1658C22.2647 19.7734 22.9518 19.4038 22.9075 19.1483C22.8144 18.6281 19.7299 18.7756 16.0133 19.4768Z" fill="#155ECD"/>
<path fill-rule="evenodd" clip-rule="evenodd" d="M15.3187 27.6518C14.204 26.0335 12.1701 23.8054 10.2812 22.4138C10.4798 22.4001 10.6737 22.3788 10.8478 22.3575C11.4188 22.8031 11.967 23.2868 12.4831 23.8039C12.619 23.4891 12.7656 23.1788 12.9214 22.8716C12.1441 22.245 11.3181 21.6959 10.4614 21.2609C10.6218 21.191 10.7867 21.1256 10.9531 21.0632C11.738 21.4754 12.4572 21.9545 13.1214 22.4913C13.2665 22.2252 13.4176 21.9621 13.5764 21.7035C13.0038 21.3446 12.4144 21.0297 11.8189 20.7712C12.0082 20.7119 12.1976 20.6556 12.3869 20.6008C12.8649 20.829 13.3306 21.0906 13.781 21.3796C13.978 21.0784 14.1842 20.7834 14.401 20.4989C14.1979 20.4031 13.9948 20.3149 13.7917 20.2313C14.0055 20.1796 14.2178 20.1294 14.4331 20.0822C14.5048 20.1157 14.5781 20.1491 14.6499 20.1841C14.6987 20.1233 14.7491 20.0624 14.7995 20.0016C15.0072 19.956 15.2164 19.9134 15.4256 19.8708C15.282 20.029 15.14 20.1932 15.0011 20.3605C15.4485 20.5932 15.8821 20.8533 16.3051 21.1377C16.6029 20.7164 16.9235 20.3134 17.2625 19.9332C17.0762 19.8267 16.8884 19.7263 16.7006 19.6305C16.9098 19.594 17.1205 19.559 17.3297 19.524C17.3969 19.5621 17.4641 19.6001 17.5313 19.6396C17.5862 19.5803 17.6427 19.5225 17.6992 19.4662C17.9161 19.4328 18.1329 19.4024 18.3497 19.3719C18.1863 19.524 18.026 19.6822 17.8687 19.845C18.168 20.032 18.4612 20.2328 18.7467 20.4427C19.0704 20.0077 19.4186 19.5925 19.7881 19.2031C19.9851 19.1849 20.1821 19.1681 20.3775 19.1545C19.9072 19.6138 19.4629 20.1233 19.0475 20.6708C19.2842 20.8548 19.5148 21.045 19.7392 21.2411C20.179 20.4959 20.6905 19.7841 21.2861 19.1119C21.4632 19.1088 21.6388 19.1104 21.8129 19.1164C21.1578 19.8373 20.5699 20.6526 20.0538 21.524C20.3027 21.7537 20.5455 21.9925 20.7791 22.2358C21.0876 21.5636 21.4388 20.9096 21.822 20.2845C21.993 20.2404 22.1809 20.1887 22.3717 20.1294C20.9578 22.3012 19.7744 24.905 19.4842 27.3659C19.5392 26.54 19.614 25.6275 19.8263 24.8472C19.5392 24.4929 19.2323 24.1461 18.9116 23.8115C18.649 24.4411 18.4215 25.0815 18.2291 25.7202C18.5467 26.1765 18.8933 26.8837 19.1758 27.445C18.8521 26.9917 18.5009 26.5096 18.1451 26.0107C18 26.5218 17.7588 27.2199 17.6137 27.7948C17.6687 27.197 17.826 26.3377 17.9435 25.737C17.6168 25.3005 17.261 24.8746 16.8838 24.4655C16.6685 24.9872 16.4792 25.5149 16.3204 26.0442C16.6105 26.4731 16.9312 27.1788 17.2167 27.7567C16.9174 27.2944 16.5433 26.8138 16.2242 26.3727C16.0974 26.8001 15.8776 27.4693 15.7585 28.0001C15.8256 27.3932 15.8913 26.7149 16.0455 26.1309C15.65 25.6031 15.2194 25.086 14.7614 24.5932C14.5735 25.0237 14.4056 25.4602 14.2559 25.8982C14.6545 26.4594 15.0118 27.045 15.3187 27.6518ZM19.0414 23.5088C19.2934 22.9339 19.5728 22.3681 19.8813 21.8221C20.1424 22.0533 20.3974 22.2936 20.6432 22.54C20.3592 23.191 20.1134 23.8586 19.9148 24.5354C19.64 24.1841 19.3483 23.8404 19.0414 23.5088ZM19.5636 21.5469C19.2628 22.0868 18.9971 22.6434 18.7635 23.2138C18.4887 22.9294 18.2031 22.6541 17.9069 22.3894C18.1924 21.8967 18.5009 21.4191 18.8292 20.9643C19.0796 21.1499 19.3239 21.3446 19.5636 21.5469ZM18.6383 23.5316C18.4001 24.1507 18.197 24.7849 18.0245 25.4313C17.7099 24.9993 17.3709 24.5765 17.0106 24.1704C17.2289 23.67 17.4717 23.1757 17.7359 22.6951C18.0474 22.9628 18.3482 23.2411 18.6383 23.5316ZM16.612 21.3491C16.9663 21.6016 17.3099 21.8723 17.6427 22.1552C17.913 21.667 18.2092 21.194 18.5284 20.7408C18.2245 20.5248 17.9145 20.3195 17.6015 20.1294C17.2534 20.5126 16.9235 20.9202 16.612 21.3491ZM14.9263 24.2328C15.1003 23.8556 15.2882 23.4845 15.4882 23.1195C15.8989 23.4723 16.2929 23.8465 16.6655 24.2358C16.4654 24.7484 16.2914 25.267 16.1417 25.7872C15.763 25.2442 15.3584 24.724 14.9263 24.2328ZM15.6623 22.8138C15.8913 22.4168 16.1356 22.029 16.3952 21.6564C16.7632 21.9119 17.1236 22.1841 17.4717 22.4731C17.2213 22.9476 16.9953 23.4343 16.7907 23.9286C16.4334 23.5392 16.0562 23.1666 15.6623 22.8138ZM16.0868 21.448C15.8409 21.8145 15.6103 22.1932 15.395 22.5796C14.9767 22.2221 14.5399 21.8875 14.088 21.5803C14.2987 21.267 14.5201 20.9613 14.7491 20.6693C15.2026 20.9005 15.65 21.1605 16.0868 21.448ZM15.2255 22.8959C15.0377 23.2518 14.8637 23.6138 14.7018 23.9818C14.291 23.5332 13.8543 23.1088 13.3901 22.7134C13.5459 22.4366 13.7093 22.1643 13.8803 21.8982C14.3414 22.2039 14.7919 22.5385 15.2255 22.8959ZM14.5415 24.3575C14.3674 24.7803 14.2101 25.2092 14.0712 25.6396C13.6558 25.0784 13.2008 24.5431 12.7152 24.0381C12.8618 23.7172 13.0191 23.3993 13.1855 23.0875C13.6574 23.4845 14.1109 23.9119 14.5415 24.3575Z" fill="#155ECD"/>
</svg>
