<svg width="75" height="76" viewBox="0 0 75 76" fill="none" xmlns="http://www.w3.org/2000/svg">
<path fill-rule="evenodd" clip-rule="evenodd" d="M5.37497 25.2154C6.82262 19.322 9.87192 14.059 14.0301 9.90319C19.9593 3.98281 28.1523 0.319092 37.204 0.319092C46.2518 0.319092 54.4449 3.98281 60.3779 9.90319C64.5361 14.0551 67.5854 19.322 69.033 25.2154H73.7918L71.2584 28.8061L73.7071 46.0752L68.0974 50.8499C67.1696 50.6538 66.2494 50.4616 65.333 50.2809C60.1816 61.4259 49.8671 70.687 37.204 75.6578C24.5409 70.687 14.2264 61.4259 9.07495 50.2809C8.15862 50.4616 7.23843 50.65 6.31055 50.8499L0.700914 46.0752L3.1496 28.8061L0.616211 25.2154H5.37497Z" fill="#120B2D"/>
<path d="M5.12452 24.8964C5.84835 22.04 6.94948 19.3335 8.36633 16.827C9.85248 14.1974 11.6851 11.7946 13.8027 9.68021C16.852 6.63544 20.4981 4.17887 24.5484 2.50655C28.4486 0.891901 32.7223 0 37.2038 0C41.6854 0 45.959 0.891901 49.8592 2.50271C53.9095 4.17887 57.5556 6.63159 60.6049 9.67636C62.7225 11.7908 64.5551 14.1935 66.0413 16.8231C67.4581 19.3297 68.5554 22.04 69.2831 24.8925H74.4076L71.5932 28.8868L74.0496 46.202C72.0937 47.8667 70.1417 49.5313 68.1858 51.1921L68.0318 51.1575C67.5274 51.0498 67.0654 50.9537 66.6496 50.8691C66.3185 50.7999 65.9412 50.7269 65.5215 50.6423C62.9342 56.1552 59.0879 61.2029 54.3292 65.4971C49.4896 69.8643 43.7028 73.4512 37.3232 75.9539L37.2077 76L37.0922 75.9539C30.7163 73.4512 24.9296 69.8643 20.0861 65.4971C15.3274 61.2029 11.4811 56.1552 8.8938 50.6423C8.47029 50.7269 8.09297 50.8038 7.76571 50.8691C7.3499 50.9537 6.88788 51.0498 6.38352 51.1575L6.22951 51.1921L0.361912 46.2059L2.8183 28.8907L0 24.8964H5.12452ZM8.9246 17.1383C7.4962 19.6641 6.39892 22.4013 5.68664 25.2923L5.62504 25.5384H1.23589L3.48437 28.7292L1.04339 45.9483L6.39892 50.5039C6.78008 50.4232 7.18819 50.3386 7.63096 50.2463C8.15843 50.1387 8.61659 50.0464 9.0093 49.9695L9.25571 49.9196L9.36352 50.1502C11.9162 55.6746 15.747 60.7339 20.5096 65.0281C25.2607 69.3146 30.9396 72.8437 37.2 75.3157C43.4603 72.8399 49.1392 69.3146 53.8903 65.0281C58.6529 60.7339 62.4838 55.6746 65.0364 50.1502L65.1404 49.9196L65.3868 49.9695C65.7795 50.0464 66.2415 50.1387 66.7651 50.2463C67.2079 50.3386 67.6198 50.4232 67.9971 50.5039L73.3527 45.9483L70.9194 28.7292L73.1679 25.5384H68.7787L68.7171 25.2923C68.0048 22.4013 66.9076 19.6641 65.4792 17.1383C64.0238 14.5664 62.2258 12.2098 60.1467 10.13C57.1552 7.1429 53.5784 4.73246 49.6128 3.0909C45.7896 1.51085 41.6007 0.638171 37.2038 0.638171C32.807 0.638171 28.6142 1.51085 24.7948 3.0909C20.8215 4.7363 17.2486 7.1429 14.257 10.13C12.1741 12.2098 10.3761 14.5664 8.9246 17.1383Z" fill="#F0631E"/>
<path d="M37.2037 73.209C46.3054 69.4607 54.6525 63.1212 60.1428 54.8904C55.0953 61.1452 47.8455 67.3578 37.2037 71.502V70.1219C28.41 66.858 20.2478 61.6258 14.2646 54.8942C19.7549 63.1212 28.102 69.4607 37.2037 73.209Z" fill="#AC2A1D"/>
<path d="M47.2452 25.2154C46.6446 24.2543 46.0825 23.2778 45.5665 22.2783C44.142 19.5065 43.4721 17.1114 43.4105 15.1008C41.7318 14.8163 40.007 14.6433 38.2551 14.5972V25.2193L47.2452 25.2154ZM43.5876 12.9979C43.7839 12.0714 44.142 11.2449 44.6348 10.5221C45.3086 9.53409 46.2288 8.75752 47.3415 8.18471C48.3078 7.68878 49.4167 7.35432 50.6372 7.17363C46.9102 5.2399 42.7097 4.08658 38.2551 3.92896V12.4904C40.0686 12.5404 41.8473 12.7134 43.5876 12.9979ZM45.5396 15.5237C45.6782 17.1422 46.275 19.0721 47.4339 21.3249C48.1076 22.6397 48.8931 23.9314 49.7362 25.2154H62.9229C60.2278 22.4782 57.0669 20.1716 53.5594 18.4108C51.053 17.1537 48.3617 16.1772 45.5396 15.5237ZM53.8982 9.14581C51.6844 9.00741 49.7478 9.30343 48.2963 10.0492C47.4955 10.4606 46.8409 11.0065 46.3712 11.6946C46.0401 12.1829 45.7976 12.748 45.6551 13.3977C48.7699 14.0897 51.7345 15.1546 54.5027 16.5424C58.5107 18.5531 62.0951 21.2365 65.0906 24.4388C63.6737 19.8525 61.1519 15.7505 57.8369 12.4443C56.6241 11.2333 55.3035 10.13 53.8982 9.14581ZM28.753 13.3977C28.6106 12.748 28.368 12.1829 28.0369 11.6946C27.5672 11.0065 26.9165 10.4606 26.1118 10.0492C24.6565 9.30343 22.7199 9.00741 20.506 9.14581C19.0969 10.13 17.7802 11.2333 16.5674 12.4405C13.2524 15.7505 10.7344 19.8525 9.31372 24.435C12.3091 21.2326 15.8897 18.5492 19.9016 16.5386C22.6737 15.1546 25.6421 14.0897 28.753 13.3977ZM36.1491 25.2154V14.5933C34.3935 14.6433 32.6725 14.8125 30.9938 15.0969C30.9322 17.1114 30.2623 19.5026 28.8377 22.2783C28.3257 23.2778 27.7597 24.2543 27.1591 25.2154H36.1491ZM36.1491 12.4904V3.92896C31.6945 4.08658 27.4979 5.2399 23.7671 7.17363C24.9876 7.35432 26.1003 7.69263 27.0628 8.18471C28.1755 8.75368 29.0957 9.53025 29.7695 10.5221C30.2623 11.2449 30.6165 12.0714 30.8167 12.9979C32.557 12.7134 34.3396 12.5404 36.1491 12.4904ZM24.6719 25.2154C25.5151 23.9314 26.2966 22.6397 26.9743 21.3249C28.1332 19.0721 28.7299 17.1422 28.8685 15.5237C26.0464 16.1772 23.359 17.1537 20.8449 18.4147C17.3374 20.1716 14.1764 22.4782 11.4813 25.2193L24.6719 25.2154Z" fill="#F0631E"/>
<path d="M45.6512 13.3977C45.7937 12.748 46.0363 12.1829 46.3674 11.6946C46.8371 11.0065 47.4878 10.4606 48.2924 10.0492C49.7478 9.30343 51.6844 9.00741 53.8982 9.14581C55.3074 10.13 56.6241 11.2333 57.8369 12.4405C61.1519 15.7505 63.6699 19.8525 65.0906 24.435C62.511 18.2186 58.2758 13.367 53.1128 10.1338C50.2907 10.1108 46.9256 10.6528 45.6512 13.3977ZM28.753 13.3977C28.6106 12.748 28.368 12.1829 28.0369 11.6946C27.5672 11.0065 26.9165 10.4606 26.1118 10.0492C24.6565 9.30343 22.7199 9.00741 20.506 9.14581C19.0969 10.13 17.7802 11.2333 16.5674 12.4405C13.2524 15.7505 10.7344 19.8525 9.31372 24.435C11.8933 18.2186 16.1285 13.367 21.2915 10.1338C24.1175 10.1108 27.4825 10.6528 28.753 13.3977ZM26.0194 7.73491C28.7453 6.63926 31.6445 5.93573 34.6245 5.66278V12.5635C35.1288 12.5289 35.6409 12.5058 36.1491 12.4943V3.92896C31.6945 4.08658 27.4979 5.2399 23.7671 7.17363C24.5718 7.29281 25.3226 7.48118 26.0194 7.73491ZM35.0788 25.2154L34.5744 16.3964C33.3039 16.5348 32.041 16.7193 30.782 16.9538C30.9052 16.3041 30.9784 15.6813 30.9938 15.0969C32.6725 14.8125 34.3973 14.6395 36.1491 14.5933V25.2154H35.0788ZM23.744 25.2154C25.0646 22.8396 26.2427 20.3945 26.982 17.8188C21.5956 19.2797 16.4942 21.6978 12.1821 25.2154H11.4775C14.1726 22.4782 17.3335 20.1716 20.841 18.4108C23.3513 17.1537 26.0387 16.1734 28.8647 15.5198C28.7261 17.1383 28.1293 19.0682 26.9704 21.321C26.2966 22.6358 25.5112 23.9275 24.668 25.2116L23.744 25.2154ZM48.3848 7.73491C45.6589 6.63926 42.7598 5.93573 39.7798 5.66278V12.5635C39.2754 12.5289 38.7634 12.5058 38.2551 12.4943V3.92896C42.7097 4.08658 46.9064 5.2399 50.6372 7.17363C49.8363 7.29281 49.0817 7.48118 48.3848 7.73491ZM39.3293 25.2154L39.8337 16.3964C41.1042 16.5348 42.3671 16.7193 43.6261 16.9538C43.5029 16.3041 43.4297 15.6813 43.4143 15.0969C41.7357 14.8125 40.0108 14.6395 38.259 14.5933V25.2154H39.3293ZM50.6603 25.2154C49.3397 22.8396 48.1615 20.3945 47.4223 17.8188C52.8086 19.2797 57.9101 21.6978 62.2222 25.2154H62.9268C60.2317 22.4782 57.0707 20.1716 53.5633 18.4108C51.053 17.1537 48.3656 16.1734 45.5396 15.5198C45.6782 17.1383 46.275 19.0682 47.4339 21.321C48.1076 22.6358 48.8931 23.9275 49.7362 25.2116L50.6603 25.2154Z" fill="white"/>
<path d="M7.78509 30.1556C7.70424 30.8091 7.61568 31.4665 7.53868 32.1162C7.46168 32.7698 7.38468 33.4233 7.29612 34.0769C7.67729 34.0423 8.05845 34.0077 8.44731 33.9731C8.52817 33.9654 8.60902 33.9269 8.67447 33.8616C8.73607 33.8001 8.77072 33.6963 8.78997 33.5617C8.92088 32.5045 9.04023 31.4434 9.16344 30.3862C9.18654 30.1979 9.12879 30.1056 8.99018 30.1133C8.59362 30.1248 8.1932 30.1402 7.78509 30.1556ZM63.7775 27.5337C64.5822 27.5337 65.3869 27.5337 66.1916 27.5337C66.4611 29.5635 66.7229 31.5934 66.977 33.6232C67.2311 35.6531 67.4814 37.6791 67.747 39.7089C68.5863 39.855 69.4411 40.0088 70.2997 40.1664C70.2842 41.1006 70.265 42.0309 70.2534 42.9574C68.6441 42.6038 67.0501 42.2808 65.4677 41.981C65.1867 39.5744 64.9056 37.1678 64.6246 34.7612C64.3396 32.3507 64.0663 29.9403 63.7775 27.5337ZM58.2757 27.5337C59.0727 27.5337 59.8773 27.5337 60.682 27.5337C60.8822 29.4174 61.0786 31.3012 61.2711 33.1811C61.4636 35.061 61.6446 36.9448 61.8486 38.8247C62.6879 38.9362 63.5234 39.0515 64.3743 39.1707C64.3281 40.0318 64.2819 40.893 64.2395 41.7541C62.6571 41.4927 61.0901 41.2505 59.527 41.0314C59.3114 38.7824 59.1035 36.5334 58.8956 34.2845C58.6915 32.0355 58.4875 29.7827 58.2757 27.5337ZM54.2523 38.8247C54.2138 39.3514 54.1792 39.8781 54.1445 40.4009C53.3013 40.324 52.462 40.251 51.6304 40.1779C51.8729 38.0981 52.1193 36.0068 52.3388 33.9039C52.5621 31.7933 52.7816 29.6673 52.9895 27.5337C53.8288 27.5337 54.6566 27.5337 55.5036 27.5337C56.0388 29.7288 56.5701 31.9432 57.1168 34.1653C57.6674 36.4066 58.2487 38.6632 58.8263 40.9391C57.9831 40.8276 57.1361 40.7277 56.3006 40.6277C56.1735 40.078 56.058 39.5282 55.9387 38.9823C55.3842 38.9285 54.8221 38.8747 54.2523 38.8247ZM54.3755 36.7987C54.749 36.8295 55.134 36.8564 55.5152 36.8871C55.3611 36.1106 55.2071 35.334 55.0608 34.5613C54.9145 33.7885 54.7605 33.0158 54.6181 32.2431C54.5796 33.0043 54.5257 33.7693 54.491 34.5267C54.4564 35.284 54.414 36.0452 54.3755 36.7987ZM46.7215 29.6981C46.7407 30.2363 46.76 30.7784 46.7831 31.3166C46.8062 31.8548 46.8293 32.3969 46.8562 32.9351C47.2297 32.9428 47.5993 32.9543 47.9804 32.9658C48.0728 32.9697 48.1383 32.9389 48.1884 32.8928C48.2461 32.839 48.2692 32.7621 48.2615 32.6467C48.2192 31.751 48.1807 30.8514 48.1345 29.9557C48.1268 29.7942 48.0613 29.7135 47.9188 29.7135C47.5184 29.7058 47.1219 29.7019 46.7215 29.6981ZM48.4232 35.2187C48.4155 35.0803 48.377 34.9841 48.3077 34.9303C48.2423 34.8765 48.146 34.8457 48.0382 34.8419C47.6647 34.8265 47.3028 34.815 46.9255 34.8035C46.964 35.7761 47.0064 36.7449 47.041 37.7175C47.4645 37.7329 47.8726 37.756 48.2885 37.7752C48.3809 37.779 48.4579 37.7675 48.4887 37.7252C48.5156 37.6906 48.5349 37.6214 48.5272 37.533C48.4887 36.7641 48.4579 35.9914 48.4232 35.2187ZM50.56 32.5199C50.5754 32.8351 50.5331 33.1004 50.433 33.3234C50.3329 33.5463 50.1173 33.6924 49.8016 33.7732C50.1365 33.8078 50.3829 33.9462 50.5369 34.1653C50.7025 34.396 50.7949 34.642 50.8103 34.9226C50.8449 35.4685 50.8757 36.0144 50.9027 36.5565C50.9335 37.0986 50.9643 37.6445 50.9951 38.1904C51.0375 38.8862 50.9296 39.3745 50.6601 39.6551C50.3906 39.9357 49.8978 40.0434 49.174 39.9972C47.6724 39.9011 46.1709 39.8319 44.677 39.7704C44.6116 37.7329 44.5461 35.6915 44.4845 33.654C44.4191 31.6164 44.3652 29.5712 44.2882 27.5337C45.8167 27.5337 47.3375 27.5337 48.8737 27.5337C49.3357 27.5337 49.6938 27.6682 49.944 27.9527C50.1866 28.2257 50.329 28.6024 50.3521 29.0638C50.3829 29.6404 50.4214 30.2171 50.4522 30.7937C50.4907 31.3704 50.5292 31.9471 50.56 32.5199ZM43.06 27.5337C43.2794 28.291 43.495 29.0484 43.7107 29.8096C43.1793 29.8057 42.6519 29.8019 42.1205 29.8019C42.159 31.455 42.1937 33.1042 42.2284 34.7535C42.263 36.4027 42.2938 38.052 42.3362 39.7012C41.493 39.6782 40.6536 39.6666 39.8182 39.6512C39.7989 38.0097 39.7758 36.3643 39.7566 34.7227C39.7412 33.0812 39.7219 31.4358 39.7027 29.7942C39.1713 29.7942 38.6516 29.7942 38.1203 29.7904C38.3128 29.0407 38.5207 28.2872 38.717 27.5337C40.1647 27.5337 41.6123 27.5337 43.06 27.5337ZM32.6492 27.5337C34.1623 27.5337 35.6908 27.5337 37.2193 27.5337C37.3541 28.2872 37.4888 29.0369 37.6274 29.7904C36.7612 29.7904 35.8987 29.7904 35.0402 29.7942C35.0325 30.7515 35.0286 31.7126 35.0132 32.666C35.6754 32.666 36.3338 32.6621 37.0037 32.6621C36.996 33.358 36.996 34.0538 36.996 34.7496C36.3261 34.7535 35.6562 34.7535 34.994 34.7573C34.9863 35.6377 34.9786 36.5181 34.967 37.3984C35.8256 37.3946 36.6765 37.3907 37.5466 37.3869C37.4003 38.1366 37.2501 38.8862 37.1192 39.6397C35.5445 39.6474 33.9775 39.6666 32.4067 39.6974C32.4452 37.6714 32.4798 35.6454 32.5222 33.6194C32.5607 31.5895 32.6069 29.5597 32.6492 27.5337ZM27.8019 32.8274C27.929 32.8236 28.0445 32.8236 28.1638 32.8197C28.3987 31.9355 28.6412 31.0552 28.8761 30.171C29.1071 29.2906 29.3458 28.4141 29.573 27.5337C30.3854 27.5337 31.1939 27.5337 31.9986 27.5337C31.7367 28.4679 31.4711 29.4059 31.2131 30.3439C30.9552 31.2781 30.6895 32.2239 30.4239 33.1657C30.6318 34.2576 30.8512 35.3532 31.0591 36.4412C31.2709 37.5291 31.4826 38.6248 31.7098 39.7089C30.7973 39.732 29.8925 39.7666 28.9955 39.8012C28.853 38.9631 28.7144 38.1289 28.5873 37.2908C28.4603 36.4527 28.3332 35.6108 28.2139 34.7689C28.0445 34.7727 27.8866 34.7765 27.7249 34.7842C27.6903 35.6338 27.6518 36.4835 27.6171 37.3292C27.5825 38.175 27.5555 39.0246 27.5247 39.8704C26.6815 39.9127 25.8345 39.9665 24.9913 40.0165C25.0914 37.9366 25.1954 35.8568 25.2993 33.777C25.4033 31.6972 25.5149 29.6135 25.6227 27.5337C26.4197 27.5337 27.2167 27.5337 28.0214 27.5337C27.9867 28.4179 27.9521 29.2983 27.9136 30.1825C27.8712 31.0629 27.8366 31.9471 27.8019 32.8274ZM18.9774 40.5316C18.8773 39.7435 18.7888 38.9477 18.7156 38.1481C19.5934 38.075 20.4867 37.9982 21.3645 37.9328C21.5647 37.9174 21.6687 37.8252 21.6802 37.6483C21.7341 36.8756 21.7803 36.099 21.8265 35.3263C21.8381 35.1495 21.8073 35.0457 21.7457 35.0149C21.6841 34.9841 21.557 34.9688 21.3991 34.9803C20.9756 35.0034 20.556 35.0264 20.1402 35.0533C19.9669 35.0649 19.7898 35.061 19.6319 35.0418C19.4702 35.0226 19.3278 34.9649 19.2046 34.8611C19.0891 34.765 19.0005 34.6189 18.9428 34.4267C18.885 34.2422 18.8696 33.9846 18.8966 33.6578C18.9582 32.9197 19.0121 32.1816 19.066 31.4434C19.1199 30.7053 19.1815 29.9672 19.2392 29.2252C19.2816 28.7101 19.4317 28.2949 19.7166 27.9912C19.9977 27.6836 20.4135 27.5337 20.9641 27.5337C22.0421 27.5337 23.1202 27.5337 24.202 27.5337C24.2944 28.3141 24.3907 29.0945 24.4831 29.8749C23.5783 29.8903 22.6889 29.9018 21.7957 29.9172C21.5955 29.9211 21.4954 30.0133 21.48 30.2056C21.4261 30.9821 21.3722 31.7587 21.3183 32.5391C21.3106 32.666 21.3375 32.7544 21.3991 32.8005C21.4608 32.8467 21.5455 32.8659 21.6687 32.8582C22.173 32.839 22.6658 32.8197 23.1779 32.8005C23.5668 32.789 23.8555 32.8736 24.048 33.0581C24.2367 33.2388 24.3291 33.5694 24.3021 34.0423C24.2636 34.7343 24.2251 35.4224 24.1866 36.1144C24.1481 36.8025 24.1173 37.4945 24.0711 38.1827C24.0288 38.8747 23.8632 39.3783 23.5668 39.6859C23.2703 39.9972 22.7775 40.1741 22.0652 40.2356C21.0334 40.3279 20.0016 40.424 18.9774 40.5316ZM13.7836 39.509C13.6488 40.0857 13.5218 40.6623 13.3947 41.239C12.5439 41.3659 11.693 41.5004 10.8421 41.6388C11.4735 39.2399 12.0895 36.8525 12.6979 34.4959C13.3023 32.1547 13.8991 29.8365 14.4959 27.5375C15.3275 27.5375 16.163 27.5375 17.0023 27.5375C17.1563 29.7596 17.3257 31.9663 17.5067 34.1538C17.6838 36.3297 17.8878 38.4864 18.0957 40.6316C17.2526 40.7315 16.4132 40.8315 15.5739 40.9391C15.5354 40.3971 15.5123 39.8512 15.4854 39.3014C14.9194 39.3629 14.3457 39.4321 13.7836 39.509ZM14.2726 37.31C14.6422 37.2677 15.0233 37.2331 15.4045 37.1947C15.3852 36.4104 15.3621 35.6185 15.3429 34.8304C15.3275 34.0384 15.3159 33.2426 15.289 32.4468C15.1273 33.2542 14.9425 34.0615 14.7731 34.8727C14.6075 35.68 14.4381 36.495 14.2726 37.31ZM8.45501 36.5911C8.47426 36.4296 8.45886 36.3182 8.40111 36.2682C8.33181 36.2105 8.24711 36.1951 8.12775 36.2105C7.75429 36.2566 7.36928 36.3028 7.00736 36.3489C6.86106 37.5253 6.70705 38.7017 6.55305 39.8781C6.98041 39.805 7.41163 39.732 7.83129 39.6628C7.9314 39.6474 8.00455 39.609 8.0469 39.559C8.0931 39.5013 8.11235 39.4244 8.12775 39.3168C8.23941 38.4095 8.34721 37.4984 8.45501 36.5911ZM11.1501 33.1619C11.1116 33.5156 11.0153 33.8231 10.869 34.0884C10.7227 34.3537 10.4725 34.5536 10.1375 34.692C10.4802 34.6843 10.7035 34.7996 10.8267 35.0341C10.9499 35.2648 10.9961 35.5416 10.9614 35.8568C10.8921 36.4719 10.8228 37.0832 10.7612 37.6983C10.6958 38.3096 10.6226 38.9247 10.5533 39.5398C10.4648 40.3202 10.2646 40.9084 9.93731 41.2928C9.60235 41.6888 9.07103 41.9464 8.33566 42.0886C6.78791 42.3846 5.23245 42.7152 3.677 43.0535C4.03121 40.4701 4.38158 37.879 4.73579 35.2955C5.09 32.7083 5.44421 30.121 5.80227 27.5337C7.32308 27.5337 8.85158 27.5337 10.3801 27.5337C10.8421 27.5337 11.1732 27.699 11.3657 28.0066C11.5659 28.3256 11.6352 28.737 11.5813 29.2598C11.512 29.9134 11.4389 30.5631 11.3657 31.2128C11.2926 31.8586 11.2194 32.5122 11.1501 33.1619Z" fill="#3EA1CA"/>
<path fill-rule="evenodd" clip-rule="evenodd" d="M65.0594 34.4499L65.0863 34.6921C65.352 36.9757 65.6215 39.2592 65.8872 41.5428C67.1924 41.7927 68.4937 42.0541 69.7912 42.3348C69.8027 41.7504 69.8143 41.1699 69.822 40.5856C69.1059 40.4548 68.3897 40.3241 67.6698 40.2011L67.3271 40.1434L67.2771 39.7744C67.0538 38.0713 66.842 36.3682 66.6264 34.6613C66.1105 34.5921 65.5869 34.5229 65.0594 34.4499ZM40.2068 32.7199C40.7112 32.7276 41.2194 32.7353 41.7199 32.743L41.7622 34.7613C41.7931 36.2337 41.8239 37.7061 41.8585 39.1785C41.3349 39.167 40.8074 39.1593 40.2838 39.1477C40.2646 37.6677 40.2453 36.1914 40.2299 34.7113L40.2068 32.7199ZM44.9309 32.8314C45.416 32.8468 45.9011 32.866 46.3824 32.8852L46.3863 32.966L46.4094 33.435L46.8444 33.4427C47.2179 33.4503 47.5952 33.4619 47.9687 33.4734C48.1612 33.4773 48.346 33.4157 48.4923 33.2812C48.5808 33.2005 48.6424 33.1005 48.6809 32.9929C49.1314 33.0159 49.5819 33.039 50.0285 33.0659C49.9476 33.5541 49.1044 33.681 48.7079 33.8463C49.3008 33.9732 50.2903 34.1346 50.3442 34.9689C50.3788 35.5109 50.4058 36.0569 50.4366 36.5989C50.4674 37.1448 50.4982 37.6869 50.529 38.2328C50.5444 38.5211 50.5521 39.0786 50.3365 39.3015C50.1132 39.5322 49.4818 39.5207 49.2007 39.5014C47.8455 39.4169 46.4864 39.3477 45.1311 39.29C45.0695 37.4062 45.0118 35.5263 44.954 33.6426L44.9309 32.8314ZM52.8853 33.2389C53.2857 33.2658 53.6861 33.2966 54.0827 33.3273C54.0596 33.7195 54.0365 34.1116 54.0211 34.5076C53.9864 35.2649 53.9479 36.0184 53.9094 36.7758L53.8825 37.2717L54.3445 37.3063C54.7256 37.337 55.103 37.3639 55.4841 37.3947L56.1078 37.4447L55.9769 36.7873C55.8229 36.0146 55.6689 35.2418 55.5226 34.4653C55.4572 34.1193 55.3879 33.7733 55.3224 33.4273C55.7113 33.458 56.0963 33.4888 56.4813 33.5234L56.6738 34.3C57.1705 36.3183 57.6864 38.3366 58.1985 40.351C57.6941 40.2895 57.1897 40.228 56.6854 40.1665C56.5891 39.7359 56.4967 39.3015 56.4043 38.8671L56.3273 38.5134L55.9885 38.4827C55.4264 38.4288 54.8604 38.3789 54.2983 38.3289L53.8286 38.2866L53.7901 38.7902C53.7631 39.1478 53.74 39.5014 53.7169 39.859C53.201 39.8128 52.6812 39.7667 52.1653 39.7206C52.3886 37.8022 52.6119 35.8877 52.816 33.9655L52.8853 33.2389ZM59.3227 33.7848C59.8425 33.8386 60.3622 33.8925 60.8781 33.9501C61.0437 35.5955 61.2054 37.2409 61.3825 38.8825L61.4249 39.2785L61.7906 39.3284C62.4875 39.4207 63.1844 39.5168 63.8812 39.6129C63.8543 40.1319 63.8235 40.6509 63.8004 41.1699C62.5222 40.9623 61.2401 40.7662 59.958 40.5817C59.7578 38.4673 59.5614 36.349 59.365 34.2346L59.3227 33.7848ZM5.24377 35.0419C6.71452 34.8113 8.21607 34.596 9.74457 34.3999C9.3403 34.6344 9.19785 34.646 8.80899 34.8536C9.57901 34.9189 10.607 34.8382 10.4992 35.7916C10.4299 36.4067 10.3606 37.0218 10.299 37.6369C10.2335 38.2482 10.1604 38.8594 10.0911 39.4707C10.0333 39.9589 9.91012 40.5702 9.59441 40.9431C9.271 41.3237 8.71273 41.4967 8.25842 41.5813C6.91857 41.8388 5.57873 42.1195 4.24658 42.4078C4.56999 40.0589 4.8857 37.7099 5.20911 35.3649L5.24377 35.0419ZM13.3175 33.9732C13.7141 33.9309 14.1106 33.8848 14.511 33.8425C14.4456 34.15 14.3763 34.4537 14.3147 34.7613C14.1453 35.5725 13.9797 36.3875 13.8103 37.1986L13.6679 37.8829L14.3147 37.8137C14.692 37.7715 15.0654 37.7369 15.4428 37.6984L15.8817 37.6561L15.8701 37.1794C15.8509 36.3913 15.8278 35.6032 15.8085 34.8151C15.8008 34.446 15.7931 34.0808 15.7854 33.7118C16.182 33.6733 16.5824 33.6349 16.979 33.6003L17.0252 34.1923C17.1869 36.1876 17.3755 38.1828 17.568 40.178C17.0444 40.2396 16.5208 40.3011 15.9972 40.3703C15.9779 40.0051 15.9625 39.6398 15.9433 39.2708L15.9163 38.7364L15.4235 38.7941C14.8537 38.8633 14.2839 38.9286 13.7141 39.0055L13.3945 39.0478L13.3175 39.3861C13.2097 39.8513 13.1057 40.3203 13.0018 40.7855C12.4936 40.8624 11.9853 40.9431 11.481 41.0238C12.0392 38.894 12.5898 36.7642 13.1404 34.6306L13.3175 33.9732ZM19.3814 33.3965C19.9821 33.3504 20.5827 33.3043 21.1872 33.2581C21.3373 33.3465 21.5029 33.3696 21.6723 33.3619C22.1728 33.3427 22.6772 33.3235 23.1777 33.3043C23.7128 33.285 23.8553 33.4311 23.8206 34.0116C23.7821 34.7036 23.7436 35.3956 23.7051 36.0876C23.6666 36.7758 23.6358 37.4639 23.5896 38.1482C23.5665 38.5211 23.4895 39.0478 23.2277 39.3207C22.9505 39.6129 22.3807 39.6975 22.0149 39.7283C21.1333 39.8051 20.2554 39.8859 19.3737 39.9743C19.3198 39.5168 19.2698 39.0632 19.2236 38.6057C19.9436 38.5442 20.6674 38.4865 21.3874 38.4327C21.7955 38.4019 22.1073 38.1367 22.1381 37.683C22.192 36.9065 22.2382 36.1337 22.2844 35.3572C22.3037 35.0419 22.2305 34.7075 21.9418 34.5575C21.7724 34.4691 21.5491 34.4614 21.3643 34.473C20.9446 34.496 20.5211 34.5191 20.1014 34.546C19.4353 34.5844 19.2852 34.4691 19.3468 33.7041L19.3814 33.3965ZM25.8035 32.9813C26.3078 32.9544 26.816 32.9314 27.3281 32.9121L27.3127 33.3427L27.8132 33.3312C27.9326 33.3273 28.0558 33.3273 28.1751 33.3235L28.5217 33.3158L28.6179 32.9583L28.6449 32.8583C29.1069 32.8391 29.5689 32.8237 30.0348 32.8083L29.977 33.0159L29.9424 33.1389L29.9655 33.2658C30.1734 34.3576 30.389 35.4494 30.6007 36.5451C30.774 37.437 30.9472 38.3289 31.1282 39.2208C30.5468 39.24 29.9655 39.2592 29.3841 39.2823C29.2686 38.5942 29.1531 37.9022 29.0491 37.2102C28.9221 36.3721 28.795 35.534 28.6757 34.6959L28.6141 34.2577L28.2059 34.2654C28.0404 34.2692 27.8787 34.273 27.7131 34.2807L27.2742 34.2923L27.255 34.7651C27.2203 35.6147 27.1818 36.4605 27.1472 37.3101C27.1202 38.0021 27.0971 38.698 27.0702 39.3899C26.5427 39.4169 26.0114 39.4515 25.4839 39.4822C25.5763 37.5908 25.6687 35.6993 25.765 33.8079L25.8035 32.9813ZM33.0071 32.7391C33.5191 32.7314 34.0312 32.7238 34.5433 32.7161L34.5356 33.1697H35.013C35.5173 33.1697 36.0256 33.1659 36.5299 33.1659C36.5299 33.5234 36.5261 33.8809 36.5261 34.2384C36.014 34.2384 35.5019 34.2423 34.9899 34.2461L34.5279 34.25L34.524 34.7498C34.5163 35.6301 34.5086 36.5066 34.4971 37.387L34.4894 37.906L34.9668 37.9022C35.6328 37.8983 36.2989 37.8945 36.965 37.8945C36.8841 38.3058 36.8033 38.721 36.7301 39.1362C35.448 39.1439 34.1659 39.1593 32.8839 39.1824C32.9185 37.3332 32.9493 35.4802 32.9878 33.631L33.0071 32.7391ZM48.8927 35.1957C48.9273 35.9646 48.9581 36.7373 49.0005 37.5062C49.012 37.7023 48.9697 37.906 48.8503 38.0598C48.704 38.2443 48.4846 38.2981 48.269 38.2866C47.857 38.2635 47.4412 38.2443 47.0254 38.2289L46.5903 38.2097L46.5749 37.7407C46.5403 36.7719 46.5018 35.8031 46.4594 34.8305L46.4363 34.2884L46.9407 34.3038C47.3141 34.3153 47.6838 34.3269 48.0572 34.3422C48.2459 34.3499 48.4384 34.4038 48.5885 34.5306C48.7887 34.6882 48.8811 34.9343 48.8927 35.1957ZM8.92064 36.6527C8.81284 37.5639 8.70503 38.475 8.59338 39.3861C8.57028 39.5745 8.52023 39.7436 8.40472 39.8897C8.27767 40.0512 8.09671 40.1319 7.90806 40.1665C7.48069 40.2357 7.05333 40.3126 6.62981 40.3818L6.00609 40.4856L6.09464 39.809C6.24865 38.6326 6.40266 37.4562 6.54896 36.2798L6.59901 35.8915L6.96092 35.8454C7.33439 35.7954 7.70785 35.7531 8.08131 35.707C8.65498 35.634 8.99379 36.0261 8.92064 36.6527Z" fill="#81BEDB"/>
<path fill-rule="evenodd" clip-rule="evenodd" d="M47.7686 63.848C51.9922 57.9353 57.5325 51.7881 61.425 48.2281L60.5626 47.2863C56.9473 50.5963 53.5361 54.5714 50.66 58.954C50.0633 58.0121 49.4395 57.0856 48.7927 56.1822C52.0076 52.4916 55.3841 49.4122 58.7723 47.1863L58.0715 46.1176C54.1675 48.6818 50.8833 51.765 48.0804 55.2134C47.4375 54.36 46.7714 53.5257 46.0822 52.7184C47.9572 50.9192 49.9093 49.3161 51.8959 47.9898L51.1837 46.9287C49.0661 48.3396 47.1064 49.9927 45.3007 51.8227C44.4844 50.9115 43.6374 50.0312 42.7596 49.1931C43.3717 48.7548 43.9916 48.3512 44.6115 47.9898L43.8992 46.9287C43.2139 47.3862 42.5363 47.8668 41.874 48.3704C40.4033 47.0402 38.8555 45.8215 37.2385 44.7451L37.2038 44.7951L37.1692 44.7451C35.5521 45.8215 34.0044 47.0402 32.5336 48.3704C31.8714 47.8668 31.1938 47.3862 30.5085 46.9287L29.7962 47.9898C30.4161 48.3512 31.0359 48.7548 31.6481 49.1931C30.7703 50.0312 29.9232 50.9077 29.107 51.8227C27.3013 49.9889 25.3416 48.3396 23.224 46.9287L22.5117 47.9898C24.4946 49.3161 26.4504 50.9192 28.3254 52.7184C27.6363 53.5257 26.9702 54.36 26.3272 55.2134C23.5243 51.765 20.2402 48.6818 16.3361 46.1176L15.6354 47.1863C19.0274 49.4122 22.4001 52.4916 25.6149 56.1822C24.9643 57.0856 24.3405 58.0121 23.7476 58.954C20.8716 54.5714 17.4604 50.5963 13.8451 47.2863L12.9827 48.2281C16.8713 51.7881 22.4155 57.9353 26.6391 63.848C25.9268 62.4947 25.1568 61.1684 24.3405 59.8767C24.9797 58.9079 25.6496 57.9583 26.3426 57.0318C27.6517 58.5811 28.9299 60.2304 30.1696 61.9642C29.6614 62.8907 29.1879 63.8326 28.7528 64.7937C29.3149 64.0017 29.8924 63.2021 30.4815 62.4025C31.752 64.1978 32.9802 66.0777 34.1545 68.0307C33.1689 65.9047 32.0909 63.8326 30.905 61.8296C31.752 60.6879 32.626 59.5538 33.5193 58.4427C34.7436 59.9766 35.8986 61.5721 36.9728 63.1944C36.1104 64.7552 35.3134 66.3507 34.578 67.9653C35.375 66.4852 36.2528 65.0051 37.2 63.5442C38.1471 65.0013 39.0288 66.4852 39.8219 67.9653C39.0904 66.3507 38.2934 64.7552 37.4271 63.1944C38.4975 61.5682 39.6564 59.9728 40.8807 58.4427C41.7739 59.5538 42.6479 60.6917 43.4949 61.8296C42.3091 63.8287 41.2349 65.9047 40.2454 68.0307C41.4236 66.0815 42.6518 64.1978 43.9185 62.4025C44.5075 63.2021 45.085 64.0017 45.6472 64.7937C45.2121 63.8326 44.7385 62.8907 44.2303 61.9642C45.4701 60.2304 46.7522 58.5811 48.0573 57.0318C48.7542 57.9583 49.4203 58.9079 50.0594 59.8767C49.2509 61.1684 48.4809 62.4947 47.7686 63.848ZM27.0433 56.113C27.7287 55.2326 28.4409 54.3792 29.1725 53.5488C30.4546 54.8367 31.6981 56.213 32.884 57.6508C32.0524 58.8118 31.2785 60.0151 30.5662 61.2568C29.4843 59.4769 28.3139 57.7584 27.0433 56.113ZM29.9425 52.6953C30.8242 51.7419 31.7328 50.827 32.6645 49.9581C33.9312 50.9538 35.1748 52.0956 36.3992 53.3374C35.3481 54.4715 34.3547 55.6632 33.4269 56.905C32.3411 55.4326 31.1784 54.0217 29.9425 52.6953ZM33.5462 49.1662C34.732 48.1205 35.9564 47.1517 37.2038 46.2752C38.4513 47.1517 39.6756 48.1205 40.8615 49.1662C39.5871 50.1965 38.3627 51.3114 37.2038 52.4993C36.0411 51.3114 34.8206 50.1965 33.5462 49.1662ZM41.7393 49.962C42.671 50.827 43.5835 51.7419 44.4613 52.6992C43.2254 54.0255 42.0665 55.4364 40.977 56.9127C40.0491 55.6709 39.0519 54.4791 38.0047 53.345C39.2251 52.0995 40.4726 50.9538 41.7393 49.962ZM45.2352 53.5488C45.9667 54.3792 46.679 55.2326 47.3643 56.113C46.0899 57.7546 44.9233 59.473 43.8415 61.253C43.1292 60.0151 42.3553 58.8118 41.5237 57.6469C42.7057 56.213 43.9493 54.8405 45.2352 53.5488ZM34.0544 57.7776C35.1864 59.3808 36.2336 61.0569 37.2038 62.7754C38.1702 61.0569 39.2213 59.3808 40.3532 57.7776C39.3291 56.5282 38.278 55.3172 37.2038 54.1754C36.1296 55.3172 35.0786 56.5282 34.0544 57.7776Z" fill="#F0631E"/>
<path fill-rule="evenodd" clip-rule="evenodd" d="M57.3591 43.7685L57.594 43.8069C59.5807 44.126 61.5519 44.5066 63.5078 44.9525L65.3905 45.3831L63.4847 48.5509L62.7224 52.7336C60.3892 52.1839 58.0213 51.7417 55.642 51.3919L53.8786 51.1343L54.383 49.7773C43.2715 47.8089 31.1397 47.8089 20.0283 49.7773L20.5326 51.1343L18.7693 51.3919C16.386 51.7417 14.0221 52.1839 11.6889 52.7336L10.9266 48.5509L9.02075 45.3831L10.9035 44.9525C12.8555 44.5066 14.8306 44.126 16.8173 43.8069L17.0521 43.7685L17.4756 42.3345L18.4074 42.1615C30.62 39.9048 43.7951 39.9048 56.0077 42.1615L56.9395 42.3345L57.3591 43.7685Z" fill="#120B2D"/>
<path d="M18.7195 43.4879L17.3219 48.2242L17.0871 45.1372C15.0965 45.4563 13.1599 45.833 11.2849 46.2597L12.6132 48.4664L11.2849 51.4228C13.5796 50.8807 15.9975 50.4232 18.5116 50.0542C18.346 49.6082 18.2344 49.2046 18.115 48.7432C30.3585 46.3443 44.0418 46.3443 56.2852 48.7432C56.1697 49.2007 56.0542 49.6082 55.8887 50.0542C58.4028 50.4232 60.8207 50.8807 63.1154 51.4228L61.7871 48.4664L63.1154 46.2597C61.2403 45.833 59.3037 45.4563 57.3132 45.1372L57.0784 48.2242L55.6808 43.4879C43.703 41.2736 30.7011 41.2736 18.7195 43.4879Z" fill="#F0631E"/>
<path d="M17.2603 47.4206C16.0514 47.6167 14.2149 47.9742 12.5247 48.3202L12.6132 48.4663L11.2849 51.4227C13.5796 50.8806 15.9975 50.4231 18.5116 50.0541C18.346 49.6081 18.2344 49.2045 18.115 48.7431C30.3585 46.3442 44.0418 46.3442 56.2852 48.7431C56.1697 49.2006 56.0542 49.6081 55.8887 50.0541C58.4028 50.4231 60.8207 50.8806 63.1154 51.4227L61.7871 48.4663L61.8756 48.3202C60.1854 47.9742 58.3489 47.6167 57.14 47.4206L57.0784 48.2241L56.4084 45.9559C44.0495 43.5378 30.3431 43.5378 17.9841 45.9559L17.3142 48.2241L17.2603 47.4206Z" fill="#AC2A1D"/>
<path fill-rule="evenodd" clip-rule="evenodd" d="M21.037 45.4715L20.4902 45.5715V44.349C20.4902 44.3105 20.4633 44.2913 20.4209 44.299L19.9782 44.3797C19.9281 44.3874 19.905 44.4143 19.905 44.4566V47.413C19.905 47.4514 19.9281 47.4706 19.9782 47.4629L20.4209 47.3822C20.4633 47.3745 20.4902 47.3476 20.4902 47.3092V46.0866L21.037 45.9867V47.2092C21.037 47.2477 21.0639 47.2669 21.1063 47.2592L21.549 47.1785C21.5991 47.1708 21.6222 47.14 21.6222 47.1016V44.1452C21.6222 44.1068 21.5991 44.0876 21.549 44.0952L21.1063 44.176C21.0639 44.1837 21.037 44.2106 21.037 44.249V45.4715ZM54.4907 44.4528C54.4907 44.4143 54.4753 44.3874 54.4214 44.3797L52.8506 44.0722C52.8121 44.0645 52.7851 44.0837 52.7851 44.1222V47.0785C52.7851 47.1169 52.8121 47.1439 52.8506 47.1515L54.4214 47.4591C54.4715 47.4706 54.4907 47.4476 54.4907 47.4091V47.0247C54.4907 46.9824 54.4753 46.9593 54.4214 46.9516L53.355 46.744V45.9675L54.1712 46.1251C54.2135 46.1328 54.2405 46.1136 54.2405 46.0713V45.6907C54.2405 45.6484 54.2135 45.6215 54.1712 45.6138L53.355 45.4562V44.6873L54.4214 44.8949C54.4715 44.9064 54.4907 44.8795 54.4907 44.8411V44.4528ZM52.2538 44.5412C52.2538 44.1798 52.0344 43.953 51.6339 43.8876L51.1527 43.8108C50.7484 43.7454 50.529 43.903 50.529 44.2644V46.2366C50.529 46.5979 50.7484 46.8248 51.1527 46.8901L51.6339 46.967C52.0344 47.0324 52.2538 46.8748 52.2538 46.5095V46.0943C52.2538 46.0559 52.2269 46.029 52.1845 46.0213L51.7533 45.9521C51.7071 45.9444 51.684 45.9636 51.684 46.0021V46.3096C51.684 46.4134 51.6224 46.4557 51.5107 46.4365L51.2874 46.4019C51.1758 46.3827 51.1142 46.325 51.1142 46.2212V44.4643C51.1142 44.3644 51.1719 44.3182 51.2874 44.3374L51.5107 44.372C51.6224 44.3913 51.684 44.4528 51.684 44.5527V44.8603C51.684 44.8987 51.7071 44.9256 51.7533 44.9333L52.1845 45.0025C52.2269 45.0102 52.2538 44.991 52.2538 44.9525V44.5412ZM49.4779 43.5724C49.4317 43.5686 49.4086 43.5878 49.4086 43.6262V45.2486L49.3816 45.2447L48.7232 43.5301C48.7117 43.4955 48.6847 43.4763 48.6462 43.4725L48.2189 43.4225C48.1765 43.4186 48.1496 43.4379 48.1496 43.4763V46.4326C48.1496 46.4711 48.1765 46.498 48.2189 46.5018L48.6693 46.5557C48.7155 46.5595 48.7387 46.5403 48.7387 46.5018V44.8718L48.7618 44.8757L49.424 46.598C49.4355 46.6326 49.4625 46.6518 49.501 46.6556L49.9283 46.7056C49.9707 46.7094 49.9976 46.6902 49.9976 46.6518V43.6954C49.9976 43.657 49.9707 43.6301 49.9283 43.6262L49.4779 43.5724ZM47.6375 46.4288C47.6914 46.4326 47.7068 46.4134 47.6991 46.3711L46.9791 43.3379C46.9714 43.2995 46.9445 43.2802 46.906 43.2764L46.3015 43.2149C46.263 43.211 46.2361 43.2226 46.2284 43.261L45.5084 46.1482C45.4968 46.1904 45.5161 46.2135 45.5661 46.2212L46.032 46.2673C46.0705 46.2712 46.0936 46.2558 46.1013 46.2212L46.2168 45.6715L46.9907 45.7522L47.1139 46.325C47.1216 46.3596 47.1447 46.3827 47.1832 46.3865L47.6375 46.4288ZM46.8752 45.2909L46.3208 45.2332L46.598 43.9184L46.8752 45.2909ZM44.4304 43.0534C44.3765 43.0496 44.3457 43.0688 44.3341 43.1149L43.849 44.9987L43.3639 43.0496C43.3523 43.0034 43.3215 42.9765 43.2676 42.9727L42.6901 42.9304C42.6323 42.9265 42.6015 42.9496 42.6015 42.9996V45.9252C42.6015 45.9752 42.6323 46.0059 42.6901 46.0098L43.0905 46.0367C43.1483 46.0405 43.1791 46.0174 43.1791 45.9675V44.2336L43.2099 44.2375L43.6411 46.0059C43.6526 46.052 43.6834 46.079 43.7373 46.0828L43.9491 46.0982C44.003 46.102 44.0338 46.0828 44.0453 46.0367L44.4766 44.3259L44.5074 44.3298V46.0636C44.5074 46.1136 44.5382 46.1443 44.5959 46.1482L45.0002 46.1751C45.0579 46.1789 45.0887 46.1558 45.0887 46.1059V43.1803C45.0887 43.1303 45.0579 43.0995 45.0002 43.0957L44.4304 43.0534ZM42.0702 43.4609C42.0702 43.0995 41.8508 42.8996 41.4427 42.8843L40.3454 42.8458C40.303 42.8458 40.2761 42.865 40.2761 42.9035V45.8598C40.2761 45.8983 40.303 45.9213 40.3454 45.9252L40.7997 45.9406C40.842 45.9406 40.869 45.9213 40.869 45.8829V44.9141L41.1693 44.9256L41.4619 45.9137C41.4696 45.9482 41.4927 45.9675 41.5351 45.9713L41.9894 45.9867C42.0356 45.9867 42.0625 45.9675 42.051 45.9213L41.7507 44.9026C41.9586 44.8295 42.0702 44.6642 42.0702 44.4066V43.4609ZM40.8651 44.4066V43.3763L41.2963 43.3917C41.4119 43.3956 41.4696 43.4532 41.4696 43.5532V44.2759C41.4696 44.3759 41.408 44.4297 41.2963 44.4259L40.8651 44.4066ZM37.9852 45.3255C37.9852 45.6868 38.2047 45.8829 38.6167 45.8867L39.1056 45.8906C39.5176 45.8944 39.737 45.7061 39.737 45.3447V43.3725C39.737 43.0111 39.5176 42.8151 39.1056 42.8112L38.6167 42.8074C38.2047 42.8035 37.9852 42.9919 37.9852 43.3533V45.3255ZM38.7399 45.3908C38.6244 45.3908 38.5666 45.337 38.5666 45.2332V43.4571C38.5666 43.3571 38.6282 43.3033 38.7399 43.3033L38.994 43.3071C39.1095 43.3071 39.1672 43.3648 39.1672 43.4648V45.2409C39.1672 45.3447 39.1056 45.3947 38.994 45.3947L38.7399 45.3908ZM37.5771 42.8535C37.5771 42.8151 37.5502 42.792 37.5078 42.792L35.8985 42.7958C35.8484 42.7958 35.8292 42.8189 35.8292 42.8573V45.8137C35.8292 45.8521 35.8523 45.8752 35.8985 45.8752H36.3528C36.3951 45.8752 36.4221 45.8521 36.4221 45.8137V44.5873L37.246 44.5835C37.2884 44.5835 37.3153 44.5643 37.3153 44.522V44.1375C37.3153 44.0991 37.2884 44.076 37.246 44.076L36.4221 44.0799V43.3071L37.5078 43.3033C37.5502 43.3033 37.5771 43.2802 37.5771 43.2418V42.8535ZM35.2863 43.3456C35.2863 42.9842 35.0668 42.7997 34.6587 42.8112L33.5614 42.8497C33.5191 42.8497 33.4921 42.8766 33.4921 42.915V45.8714C33.4921 45.9098 33.5191 45.9329 33.5614 45.929L34.0158 45.9137C34.0581 45.9137 34.0851 45.8867 34.0851 45.8483V44.8795L34.3854 44.868L34.678 45.8368C34.6857 45.8714 34.7088 45.8906 34.7511 45.8867L35.2054 45.8714C35.2516 45.8714 35.2786 45.8445 35.267 45.7983L34.9667 44.7988C35.1746 44.7104 35.2863 44.5374 35.2863 44.2798V43.3456ZM34.0851 44.372V43.3417L34.5163 43.3264C34.6318 43.3225 34.6895 43.3725 34.6895 43.4763V44.199C34.6895 44.299 34.6279 44.3567 34.5163 44.3605L34.0851 44.372ZM32.9955 42.9304C32.9955 42.8919 32.9762 42.8689 32.9262 42.8727L31.3207 42.965C31.2822 42.9688 31.2552 42.9919 31.2552 43.0303V45.9867C31.2552 46.0251 31.2822 46.0482 31.3207 46.0444L32.9262 45.9521C32.9801 45.9482 32.9955 45.9252 32.9955 45.8867V45.5023C32.9955 45.46 32.9762 45.4408 32.9262 45.4446L31.8366 45.5061V44.7296L32.6721 44.6834C32.7144 44.6796 32.7414 44.6565 32.7414 44.6142V44.2336C32.7414 44.1914 32.7144 44.1683 32.6721 44.1721L31.8366 44.2183V43.4494L32.9262 43.3879C32.9801 43.384 32.9955 43.3571 32.9955 43.3187V42.9304ZM28.9721 46.1443C28.9721 46.1828 28.999 46.2058 29.0414 46.202L29.4957 46.1712C29.5419 46.1674 29.565 46.1443 29.565 46.1059V45.1371L30.0886 45.0986C30.4967 45.0679 30.7162 44.8564 30.7162 44.4989V43.557C30.7162 43.1957 30.4967 43.0188 30.0886 43.0457L29.0414 43.1188C28.999 43.1226 28.9721 43.1457 28.9721 43.1841V46.1443ZM29.565 44.6219V43.5916L29.95 43.5647C30.0694 43.557 30.1233 43.607 30.1233 43.707V44.4297C30.1233 44.5258 30.0655 44.5873 29.95 44.595L29.565 44.6219ZM26.7544 44.6258L26.2 44.695V43.4725C26.2 43.434 26.173 43.4148 26.1307 43.4186L25.6841 43.4763C25.6302 43.484 25.6109 43.5071 25.6109 43.5455V46.5018C25.6109 46.5403 25.634 46.5595 25.6841 46.5557L26.1307 46.498C26.173 46.4942 26.2 46.4672 26.2 46.4288V45.2063L26.7544 45.1371V46.3596C26.7544 46.398 26.7814 46.4173 26.8237 46.4134L27.2703 46.3558C27.3242 46.3481 27.3435 46.325 27.3435 46.2866V43.3264C27.3435 43.2879 27.3204 43.2687 27.2703 43.2725L26.8237 43.3302C26.7814 43.3341 26.7544 43.361 26.7544 43.3994V44.6258ZM23.2662 46.3365C23.2662 46.6979 23.4818 46.8594 23.8861 46.8017L24.4559 46.721C24.8563 46.6633 25.0758 46.4403 25.0758 46.079V45.0102C25.0758 44.9679 25.0488 44.9525 25.0065 44.9602L24.2826 45.064C24.2364 45.0717 24.2133 45.0948 24.2133 45.1371V45.5215C24.2133 45.56 24.2364 45.5792 24.2826 45.5715L24.5059 45.5407V46.0559C24.5059 46.1597 24.4443 46.2174 24.3327 46.2327L24.0208 46.2789C23.9092 46.2942 23.8476 46.252 23.8476 46.1482V44.3913C23.8476 44.2913 23.9053 44.2298 24.0208 44.2144L24.3327 44.1683C24.4443 44.1529 24.5059 44.199 24.5059 44.299V44.5912C24.5059 44.6296 24.529 44.6488 24.5752 44.6411L25.0065 44.5796C25.0488 44.572 25.0758 44.545 25.0758 44.5066V44.1068C25.0758 43.7454 24.8563 43.5839 24.4559 43.6416L23.8861 43.7223C23.4818 43.78 23.2662 44.003 23.2662 44.3644V46.3365ZM22.219 43.9838C22.1728 43.9914 22.1497 44.0184 22.1497 44.0568V47.0131C22.1497 47.0516 22.1728 47.0708 22.219 47.0631L22.6656 46.9901C22.7079 46.9824 22.7349 46.9555 22.7349 46.917V43.9607C22.7349 43.9222 22.7079 43.903 22.6656 43.9107L22.219 43.9838Z" fill="#120B2D"/>
</svg>
