<svg width="78" height="64" viewBox="0 0 78 64" fill="none" xmlns="http://www.w3.org/2000/svg">
<path d="M38.8323 63.9224C38.6463 63.8759 34.7083 62.7131 29.6851 59.2092C29.8866 60.0619 30.2122 62.0619 28.1037 63.4573C27.561 63.8139 26.9564 63.9999 26.3207 63.9999C24.9099 63.9999 23.6696 63.1007 22.7704 62.4495L22.6153 62.341L22.5378 62.279C22.4913 62.248 22.2897 62.1084 22.0107 61.8759L21.8866 61.7829C21.5455 61.5038 21.313 61.2867 21.2665 61.2557L21.158 61.1472C20.9564 60.9612 20.7238 60.7441 20.4913 60.5115L19.5145 59.5968L19.5921 59.5038C18.9719 58.6666 18.3673 57.3953 19.0184 55.9379C19.499 54.8836 20.5068 53.6278 22.6618 53.6278C22.7704 53.6278 22.8789 53.6278 22.9564 53.6278C23.0339 53.6278 23.1114 53.6278 23.189 53.6278C21.4525 51.8139 19.8556 49.8294 18.4138 47.7209C18.1502 47.7674 17.8866 47.8294 17.6386 47.8759L17.5301 47.9069L17.437 47.9224C15.282 48.4185 13.0959 48.9767 10.9564 49.5813L10.5223 49.7054L4.67736 46.8837L2.8634 40.6201L3.45255 40.4496L3.40604 40.2635L2.81689 40.434L0.801392 33.5348L1.94868 33.2093C4.95642 32.341 7.74712 31.6279 10.4603 31.0387L10.9099 30.9457L11.0339 31.0232C9.7006 25.7829 8.95642 20.062 8.84789 13.969L6.36728 10.8992C4.4448 8.52712 4.27426 5.36433 5.94867 3.2093L6.0572 3.05426L6.8479 2.29457C7.06495 2.07752 7.31301 1.87597 7.56107 1.67442C7.74712 1.51938 7.94867 1.37984 8.15022 1.24031L9.04944 0.635658L9.21999 0.558139C9.93316 0.186046 10.7394 0 11.5766 0C13.4835 0 15.313 0.930231 16.6308 2.54263L18.8479 5.28681C24.5223 3.13178 31.6851 1.93798 39.1424 1.93798C46.4913 1.93798 53.592 3.08527 59.2199 5.19379L61.375 2.54263C62.6928 0.930231 64.5377 0 66.4447 0C67.2819 0 68.0881 0.186046 68.8323 0.542635L69.0028 0.620154L69.9021 1.2248C70.1036 1.36434 70.3052 1.50387 70.4912 1.65891C70.7393 1.86046 70.9718 2.06201 71.2044 2.27907L71.9951 3.03876L72.1036 3.19379C73.778 5.34883 73.6075 8.51161 71.685 10.8837L69.4835 13.5814C69.3904 19.6279 68.7083 25.3178 67.406 30.5271L67.5765 30.5581L67.654 30.5736C70.0106 31.0542 72.3672 31.6124 74.6928 32.217L75.84 32.5116L74.1191 39.1007C74.8013 39.2868 75.468 39.4728 76.3672 39.7364L77.5145 40.062L75.53 46.8837L69.406 49.7054L68.9873 49.5813C66.9098 48.9922 64.8013 48.4495 62.7083 47.9689C61.9951 47.8139 61.6385 47.7364 60.9098 47.5813C60.6463 47.5193 60.3672 47.4728 60.1036 47.4108C58.6153 49.6433 56.9408 51.7053 55.1269 53.6123C55.2044 53.6123 55.2819 53.6123 55.3595 53.6123C57.5145 53.6123 58.5377 54.8681 59.0029 55.9224C59.6695 57.3798 59.0494 58.6666 58.4292 59.5038L58.4912 59.5813L57.7005 60.341L57.53 60.496C57.2974 60.7286 57.0494 60.9456 56.8478 61.1472L56.7548 61.2402C56.6928 61.3022 56.4602 61.5038 56.1347 61.7674L56.0106 61.8604C55.716 62.0929 55.5145 62.2325 55.4835 62.2635L55.406 62.3255L55.2509 62.434C54.3517 63.0852 53.1114 63.9844 51.7005 63.9844C51.0649 63.9844 50.4602 63.7984 49.9176 63.4418C47.9796 62.1549 48.0882 60.372 48.2742 59.4263C43.4215 62.7441 39.6541 63.8449 39.468 63.8914L39.1424 63.9844L38.8323 63.9224Z" fill="#C4DBE7"/>
<path d="M10.0106 12.2791C10.0106 54.4806 39.1579 62.7751 39.1579 62.7751C39.1579 62.7751 68.3051 54.4961 68.3051 12.2791C57.4214 0.0775464 20.8943 0.0775464 10.0106 12.2791Z" fill="#003D6C"/>
<path d="M13.6077 14.1861C13.6077 51.1628 39.1425 58.4186 39.1425 58.4186C39.1425 58.4186 64.6929 51.1628 64.6929 14.1861C55.158 3.48843 23.158 3.48843 13.6077 14.1861Z" fill="white"/>
<path d="M38.6617 25.7209C30.7703 25.7209 23.1889 26.3256 16.1036 27.4264C20.8633 51.8139 39.1424 57.0077 39.1424 57.0077C39.1424 57.0077 57.3439 51.8294 62.1501 27.5814C54.8168 26.3876 46.9098 25.7209 38.6617 25.7209Z" fill="#ED232F"/>
<path d="M55.3905 60.8682C55.7006 60.6046 55.9176 60.4185 55.9331 60.403L56.0417 60.2945C56.2587 60.093 56.4758 59.8914 56.7083 59.6744L56.8944 59.5038C57.7316 58.6356 58.4293 57.5813 57.9176 56.4496C57.1735 54.7906 55.7626 54.8216 55.0804 54.8527C54.6153 54.8682 54.2897 54.8682 53.8401 54.6201C52.3828 53.6434 43.282 41.8604 41.5766 39.3023C41.282 38.8682 40.7394 37.9845 40.0417 36.8682C36.8479 31.7829 30.2278 21.1938 23.8557 13.3488L15.7161 3.30234C14.1348 1.34885 11.6696 0.666683 9.71616 1.61242L9.62313 1.65893L8.80143 2.21707C8.61538 2.3411 8.44484 2.46513 8.2743 2.60466C8.05725 2.77521 7.8557 2.96125 7.65415 3.1473L6.92546 3.84497L6.86345 3.92249C5.53012 5.62792 5.70066 8.18605 7.26655 10.1395L15.4061 20.186C21.7782 28.0465 30.7549 36.7132 35.0805 40.8837C36.0262 41.7984 36.7704 42.5271 37.1425 42.8992C39.2975 45.1007 48.9254 56.4341 49.5611 58.093C49.7161 58.5581 49.6386 58.8837 49.5146 59.3488C49.344 60.0309 49.0029 61.4418 50.5688 62.4806C51.9332 63.3953 53.4525 62.2945 54.5533 61.5038C54.6153 61.4573 54.6618 61.4263 54.7083 61.3798L54.8014 61.3178C54.8169 61.3023 55.0029 61.1782 55.2665 60.9767L55.3905 60.8682Z" fill="#003D6C"/>
<path d="M16.5225 19.2866L8.38297 9.24006C7.34421 7.96874 6.98762 6.09278 7.99537 4.80596L8.64653 4.1858C8.94111 3.90673 9.26669 3.64317 9.60777 3.41061L10.352 2.89898C11.8248 2.18581 13.5768 2.92999 14.6 4.20131L22.7395 14.2478C30.5225 23.8447 38.8015 37.7206 40.3829 40.0927C41.9643 42.4648 51.4062 54.8369 53.1426 55.8291C54.8635 56.8369 55.9643 55.5501 56.6155 57.0074C56.879 57.6121 55.7317 58.6198 54.9565 59.333C54.9565 59.333 54.7705 59.5036 54.4914 59.7361C54.1969 59.9687 53.9953 60.1082 53.9953 60.1082C53.1426 60.7129 51.9798 61.6586 51.3597 61.2555C50.0263 60.3718 51.5457 59.5036 50.9255 57.6121C50.3054 55.7206 40.1659 43.9067 38.1659 41.8757C36.1659 39.8447 24.3054 28.8834 16.5225 19.2866Z" fill="#C4DBE7"/>
<path d="M56.2744 56.5115C56.3984 56.62 56.5224 56.775 56.6155 57.0076C56.879 57.6123 55.7317 58.62 54.9565 59.3332C54.9565 59.3332 54.7705 59.5037 54.4914 59.7363C54.1968 59.9688 53.9953 60.1084 53.9953 60.1084C53.1426 60.713 51.9798 61.6588 51.3596 61.2557C51.1271 61.1006 50.9876 60.9611 50.91 60.806C53.8403 59.1781 55.5302 57.3952 56.2744 56.5115Z" fill="#6B9BB1"/>
<path d="M16.5225 19.2867L8.38297 9.24017C7.34421 7.96885 6.98762 6.09289 7.99537 4.80607L8.64653 4.18591C8.63103 5.27118 10.1814 7.7363 14.1659 12.744C19.7473 19.7673 29.2357 31.4572 33.3752 35.3487C37.5147 39.2401 40.8945 43.6432 44.1038 47.6897C47.3286 51.7362 50.8325 56.1548 51.8093 57.3796C52.7085 58.5114 51.4217 60.4959 52.0418 61.3176C51.7783 61.3951 51.5457 61.3951 51.3441 61.2711C50.0108 60.3874 51.5302 59.5192 50.91 57.6277C50.2899 55.7362 40.1504 43.9223 38.1504 41.8913C36.1659 39.8448 24.3054 28.8836 16.5225 19.2867Z" fill="#6B9BB1"/>
<path d="M42.9875 43.6741C42.9875 43.6741 37.6852 37.4726 35.0496 33.178C32.3984 28.8834 27.8868 22.0152 16.879 8.17027C12.693 2.88346 11.9488 3.33307 10.5845 2.80594C12.0108 2.2633 13.6232 2.99198 14.6 4.20128L22.7395 14.2478C30.5224 23.8447 38.8015 37.7206 40.3829 40.0927C40.8015 40.7284 41.7627 42.0462 42.9875 43.6741Z" fill="white"/>
<path d="M22.6309 60.8681C22.3209 60.6045 22.1038 60.4185 22.0883 60.403L21.9798 60.2944C21.7627 60.0929 21.5457 59.8913 21.3131 59.6743L21.1271 59.5037C20.2898 58.6355 19.5922 57.5813 20.1038 56.4495C20.848 54.7906 22.2588 54.8216 22.941 54.8526C23.4061 54.8681 23.7317 54.8681 24.1813 54.62C25.6542 53.6588 34.7549 41.8914 36.4604 39.3177C36.7549 38.8836 37.2976 37.9999 37.9952 36.8836C41.1735 31.7984 47.8092 21.2092 54.1658 13.3488L62.3053 3.30227C63.8867 1.36429 66.3518 0.666619 68.2898 1.62786L68.3828 1.67437L69.2045 2.23251C69.3906 2.35654 69.5611 2.48057 69.7316 2.6201C69.9487 2.79065 70.1502 2.97669 70.3518 3.16274L71.0805 3.86041L71.1425 3.93793C72.4758 5.64336 72.3053 8.20149 70.7394 10.155L62.5999 20.2015C56.2278 28.0619 47.251 36.7286 42.9255 40.8991C41.9797 41.8138 41.2355 42.5425 40.8635 42.9146C38.7084 45.1162 29.0805 56.4495 28.4449 58.1084C28.2898 58.5735 28.3674 58.8991 28.4914 59.3642C28.6619 60.0464 29.003 61.4572 27.4371 62.496C26.0728 63.4107 24.5534 62.3099 23.4526 61.5192C23.3906 61.4727 23.3441 61.4417 23.2976 61.3952L23.2046 61.3332C23.1891 61.3177 23.003 61.1937 22.7395 60.9921L22.6309 60.8681Z" fill="#003D6C"/>
<path d="M61.4993 19.2867L69.6388 9.24018C70.6776 7.96887 71.0342 6.0929 70.0264 4.80608L69.3752 4.18593C69.0807 3.90686 68.7551 3.64329 68.414 3.41073L67.6698 2.89911C66.197 2.18593 64.445 2.93011 63.4218 4.20143L55.2822 14.2479C47.4993 23.8448 39.2203 37.7208 37.6389 40.0928C36.0575 42.4649 26.6156 54.837 24.8792 55.8293C23.1583 56.837 22.0575 55.5502 21.4063 57.0076C21.1428 57.6122 22.29 58.62 23.0652 59.3331C23.0652 59.3331 23.2513 59.5037 23.5304 59.7362C23.8249 59.9688 24.0265 60.1083 24.0265 60.1083C24.8792 60.713 26.042 61.6587 26.6621 61.2556C27.9955 60.3719 26.4761 59.5037 27.0962 57.6122C27.7164 55.7207 37.8559 43.9068 39.8559 41.8758C41.8559 39.8448 53.7164 28.8836 61.4993 19.2867Z" fill="#C4DBE7"/>
<path d="M21.7474 56.5115C21.6234 56.62 21.4993 56.775 21.4063 57.0076C21.1428 57.6123 22.29 58.62 23.0652 59.3332C23.0652 59.3332 23.2513 59.5037 23.5304 59.7363C23.8249 59.9688 24.0265 60.1084 24.0265 60.1084C24.8792 60.713 26.042 61.6588 26.6621 61.2557C26.8947 61.1006 27.0342 60.9611 27.1117 60.806C24.1815 59.1781 22.4916 57.3952 21.7474 56.5115Z" fill="#6B9BB1"/>
<path d="M61.4992 19.2868L69.6387 9.24029C70.6775 7.96898 71.034 6.09301 70.0263 4.80619L69.3751 4.18604C69.3906 5.2713 67.8402 7.73642 63.8558 12.7442C58.2744 19.7674 48.786 31.4573 44.6465 35.3488C40.507 39.2247 37.1271 43.6433 33.9178 47.6898C30.693 51.7364 27.1891 56.155 26.2124 57.3798C25.3132 58.5115 26.6 60.496 25.9798 61.3177C26.2434 61.3953 26.476 61.3953 26.6775 61.2712C28.0108 60.3875 26.4915 59.5193 27.1116 57.6278C27.7318 55.7364 37.8713 43.9224 39.8713 41.8914C41.8558 39.8449 53.7162 28.8837 61.4992 19.2868Z" fill="#6B9BB1"/>
<path d="M35.0187 43.6743C35.0187 43.6743 40.321 37.4728 42.9566 33.1782C45.6078 28.8837 50.1194 22.0155 61.1272 8.17052C65.3287 2.8837 66.0729 3.31781 67.4372 2.79068C66.0109 2.24804 64.3985 2.97673 63.4217 4.18603L55.2822 14.2325C47.4993 23.8294 39.2202 37.7054 37.6388 40.0774C37.2202 40.7286 36.259 42.0464 35.0187 43.6743Z" fill="white"/>
<path d="M48.606 17.0426C49.2237 11.8215 45.4919 7.08818 40.2708 6.47044C35.0497 5.8527 30.3163 9.58447 29.6986 14.8056C29.0809 20.0267 32.8126 24.7601 38.0338 25.3778C43.2549 25.9955 47.9882 22.2638 48.606 17.0426Z" fill="#003D6C"/>
<path d="M41.7844 23.8529C46.1651 22.401 48.5394 17.6727 47.0875 13.2919C45.6355 8.91115 40.9072 6.53687 36.5264 7.98882C32.1457 9.44076 29.7714 14.1691 31.2233 18.5499C32.6753 22.9306 37.4036 25.3049 41.7844 23.8529Z" fill="#C4DBE7"/>
<path d="M36.3362 8.04636C33.7161 8.97659 31.8711 11.0851 31.127 13.5657C31.1735 13.7208 31.22 13.8758 31.282 14.0153C32.8324 18.3719 37.6231 20.6355 41.9797 19.0696C44.5998 18.1394 46.4448 16.0308 47.1889 13.5502C47.1424 13.3952 47.0959 13.2401 47.0339 13.1006C45.468 8.75954 40.6928 6.49597 36.3362 8.04636Z" fill="white"/>
<path d="M45.7469 10.7751C45.3128 10.217 44.8166 9.73635 44.274 9.30225C42.7546 11.1782 41.2198 13.8759 41.2663 17.0852C41.2973 19.1782 41.9949 21.2092 43.3593 23.1472C43.9639 22.7906 44.5066 22.372 45.0027 21.9069C43.9019 20.341 43.3438 18.7131 43.3283 17.0697C43.2818 14.5736 44.4911 12.3875 45.7469 10.7751ZM32.5686 10.7751C33.8244 12.3875 35.0337 14.5736 35.0027 17.0697C34.9872 18.7131 34.4136 20.341 33.3128 21.9224C33.8089 22.403 34.3671 22.8216 34.9562 23.1627C36.3205 21.2247 37.0337 19.1937 37.0647 17.1007C37.0957 13.8914 35.5764 11.1937 34.057 9.31775C33.4833 9.73635 32.9872 10.2325 32.5686 10.7751Z" fill="#C4DBE7"/>
<path d="M36.8479 19.5812C36.3518 19.7052 35.9022 19.8137 35.4061 19.8757L35.4836 20.3874C35.9642 20.3253 36.4603 20.2478 36.9564 20.1393C37.096 20.1083 37.189 19.9378 37.1735 19.7827C37.127 19.6277 36.9875 19.5347 36.8479 19.5812ZM34.2278 15.2866C34.1813 15.4106 34.2588 15.5192 34.3828 15.5502C34.6154 15.6122 34.8479 15.6587 35.0805 15.7362C35.313 15.7982 35.5301 15.8757 35.7627 15.9688C35.8247 15.8137 35.9022 15.6432 35.9487 15.4881C35.4836 15.3331 35.0185 15.2091 34.5534 15.1161C34.4138 15.1006 34.2743 15.1781 34.2278 15.2866ZM33.9487 19.8757C34.2898 20.2168 34.5999 20.5734 34.8944 20.9455C35.034 20.837 35.1735 20.744 35.313 20.6354C34.9875 20.2633 34.6464 19.9067 34.3053 19.5812C34.1968 19.4881 34.0417 19.4726 33.9332 19.5502C33.8402 19.6432 33.8402 19.7827 33.9487 19.8757ZM34.1968 13.9223C34.0572 13.9068 33.9332 14.0153 33.9022 14.1393C33.8712 14.2633 33.9642 14.3719 34.1037 14.3874C34.3363 14.4184 34.5844 14.4339 34.8169 14.4804C35.0495 14.5114 35.282 14.5579 35.5301 14.6199C35.5611 14.4494 35.6231 14.2788 35.6386 14.1083C35.1425 14.0153 34.6619 13.9533 34.1968 13.9223ZM36.3363 21.085C35.8247 21.1315 35.3441 21.1626 34.8479 21.1781C34.8479 21.3486 34.8634 21.5346 34.8634 21.6897C35.3596 21.7052 35.8402 21.6742 36.3363 21.6432C36.4913 21.6277 36.5999 21.4881 36.5999 21.3331C36.6154 21.1781 36.4758 21.0695 36.3363 21.085ZM34.8479 12.0463C35.127 11.6432 35.4061 11.2246 35.6541 10.806C35.7316 10.682 35.6851 10.5114 35.5456 10.4184C35.4216 10.3409 35.251 10.3719 35.189 10.5114C34.941 10.9455 34.6929 11.3641 34.4293 11.7672L34.8479 12.0463ZM34.2278 11.0695C33.7472 11.1161 33.251 11.1781 32.7859 11.2556C32.6464 11.2866 32.5379 11.4106 32.5534 11.5347C32.5534 11.6587 32.6774 11.7517 32.8169 11.7362C33.2975 11.6587 33.7627 11.6122 34.2588 11.5812L34.2278 11.0695ZM34.8944 12.837L34.9254 12.3254C34.4448 12.3099 33.9487 12.3409 33.4836 12.3719C33.3441 12.3874 33.22 12.4959 33.22 12.6354C33.22 12.7595 33.3285 12.8525 33.4681 12.8525C33.9332 12.8215 34.4138 12.8215 34.8944 12.837ZM33.8247 20.7595C33.7316 20.6509 33.5766 20.6199 33.4681 20.6819C33.3751 20.744 33.3441 20.8835 33.4216 21.0075C33.7006 21.3796 33.9797 21.7827 34.2278 22.2013L34.6619 21.9377C34.3983 21.5191 34.1347 21.1315 33.8247 20.7595ZM34.7859 9.48816C34.8479 9.34862 34.7859 9.19358 34.6464 9.11606C34.5068 9.05405 34.3518 9.10056 34.2898 9.24009C34.0882 9.68971 33.8712 10.1393 33.6541 10.5734C33.8092 10.6509 33.9642 10.7285 34.1037 10.8215C34.3518 10.3719 34.5844 9.93777 34.7859 9.48816ZM35.3751 22.9455C35.0805 22.93 34.7859 22.899 34.4913 22.868C34.8014 23.085 35.1425 23.2711 35.4836 23.4416C35.5456 23.3951 35.6076 23.3176 35.6231 23.2401C35.6231 23.0695 35.5146 22.9455 35.3751 22.9455ZM35.8712 18.8215C35.4836 18.5114 35.096 18.2323 34.6929 17.9843C34.5689 17.9067 34.4138 17.9378 34.3208 18.0308C34.2433 18.1238 34.2588 18.2633 34.3828 18.3409C34.5844 18.4649 34.7859 18.6044 34.972 18.7595C35.158 18.899 35.344 19.054 35.5301 19.2091C35.6386 19.085 35.7782 18.961 35.8712 18.8215ZM37.5146 17.6122C37.4526 17.4571 37.2975 17.3951 37.1735 17.4726C36.7239 17.7052 36.2743 17.8912 35.8247 18.0618L35.9952 18.5424C36.4603 18.3874 36.9409 18.2168 37.3906 17.9998C37.5146 17.9533 37.5766 17.7672 37.5146 17.6122ZM35.5921 13.7982C35.7627 13.6277 35.9332 13.4416 36.1037 13.2556C36.2588 13.0695 36.4138 12.8835 36.5844 12.6819C36.6774 12.5734 36.6619 12.3874 36.5378 12.2788C36.4138 12.1703 36.2433 12.2013 36.1658 12.3099C35.8712 12.713 35.5456 13.1006 35.22 13.4571C35.3596 13.5657 35.4681 13.6742 35.5921 13.7982ZM35.9642 15.1936C36.1503 15.0385 36.3518 14.8835 36.5378 14.7285C36.7239 14.5734 36.8944 14.4029 37.0805 14.2168C37.189 14.1083 37.189 13.9223 37.096 13.7982C36.9875 13.6742 36.8169 13.6742 36.7239 13.7827C36.3828 14.1393 36.0107 14.4804 35.6386 14.7905C35.7471 14.93 35.8557 15.054 35.9642 15.1936ZM34.7549 16.7595C34.6309 16.713 34.4603 16.7595 34.3983 16.8525C34.3363 16.961 34.3828 17.085 34.5068 17.1471C34.9409 17.3486 35.344 17.5657 35.7627 17.8292L36.0417 17.3951C35.6386 17.1471 35.189 16.9455 34.7549 16.7595ZM35.8712 16.6509L36.1192 17.1005C36.5534 16.8835 36.9875 16.6354 37.4061 16.3564C37.5301 16.2788 37.5611 16.0928 37.4836 15.9533C37.4061 15.8137 37.2355 15.7827 37.1115 15.8602C36.7084 16.1548 36.3208 16.4184 35.8712 16.6509Z" fill="#ED232F"/>
<path d="M41.1735 19.7982C41.1425 19.9533 41.2355 20.1238 41.3906 20.1548C41.8867 20.2633 42.3828 20.3409 42.8634 20.4029L42.9409 19.8912C42.4448 19.8292 41.9797 19.7207 41.4991 19.5967C41.3441 19.5347 41.2045 19.6277 41.1735 19.7982ZM43.7627 15.1161C43.2975 15.2091 42.8324 15.3331 42.3673 15.4881C42.4138 15.6587 42.4913 15.8137 42.5534 15.9688C42.7859 15.8912 43.003 15.8137 43.2355 15.7362C43.4681 15.6742 43.7006 15.6122 43.9332 15.5502C44.0727 15.5192 44.1347 15.3951 44.0882 15.2866C44.0417 15.1781 43.9022 15.1006 43.7627 15.1161ZM44.3828 19.5657C44.2898 19.4881 44.1192 19.5036 44.0107 19.5967C43.6696 19.9222 43.3285 20.2788 43.003 20.6509C43.1425 20.7595 43.282 20.868 43.4216 20.961C43.7316 20.5734 44.0262 20.2323 44.3673 19.8912C44.4758 19.7827 44.4758 19.6432 44.3828 19.5657ZM42.6929 14.0928C42.7239 14.2633 42.7704 14.4339 42.8014 14.6044C43.034 14.5579 43.282 14.5114 43.5146 14.4649C43.7471 14.4339 43.9952 14.4029 44.2278 14.3719C44.3673 14.3564 44.4603 14.2478 44.4293 14.1238C44.3983 13.9998 44.2743 13.9068 44.1347 13.9068C43.6541 13.9533 43.1735 14.0153 42.6929 14.0928ZM41.7161 21.3486C41.7161 21.5036 41.8402 21.6432 41.9797 21.6587C42.4913 21.7052 42.9565 21.7207 43.4526 21.7052C43.4371 21.5346 43.4526 21.3641 43.4681 21.1936C42.9875 21.1936 42.4913 21.1626 41.9797 21.1005C41.8402 21.0695 41.7161 21.1781 41.7161 21.3486ZM43.9022 11.7517C43.6231 11.3486 43.3906 10.93 43.1425 10.4959C43.065 10.3719 42.9099 10.3254 42.7859 10.4029C42.6619 10.4804 42.6154 10.6664 42.6774 10.7905C42.9254 11.2246 43.2045 11.6432 43.4836 12.0308L43.9022 11.7517ZM44.0727 11.5967C44.5689 11.6277 45.034 11.6742 45.5146 11.7517C45.6541 11.7672 45.7782 11.6897 45.7782 11.5502C45.7782 11.4261 45.6851 11.2866 45.5456 11.2711C45.0805 11.1936 44.5999 11.1316 44.1037 11.0851L44.0727 11.5967ZM44.8634 12.8525C45.003 12.8525 45.1115 12.7595 45.1115 12.6354C45.1115 12.5114 44.9875 12.3874 44.8479 12.3719C44.3828 12.3409 43.8867 12.3099 43.4061 12.3254L43.4371 12.837C43.9177 12.8215 44.3983 12.8215 44.8634 12.8525ZM43.6541 21.9222L44.0882 22.1858C44.3518 21.7672 44.6154 21.3641 44.8944 20.992C44.972 20.8835 44.9409 20.744 44.8479 20.6664C44.7394 20.6044 44.5844 20.6354 44.4913 20.744C44.1968 21.1315 43.9177 21.5191 43.6541 21.9222ZM44.2123 10.806C44.3673 10.7285 44.5223 10.6354 44.6619 10.5579C44.4448 10.1238 44.2278 9.68971 44.0262 9.22459C43.9642 9.08506 43.8092 9.03854 43.6696 9.10056C43.5301 9.17808 43.4681 9.33312 43.5301 9.47265C43.7471 9.93777 43.9797 10.3719 44.2123 10.806ZM42.7084 23.2401C42.7239 23.3331 42.7704 23.3951 42.8479 23.4416C43.189 23.2711 43.5146 23.085 43.8402 22.868C43.5456 22.899 43.251 22.93 42.9565 22.9455C42.8014 22.9455 42.6929 23.0695 42.7084 23.2401ZM42.7859 19.2091C42.972 19.054 43.158 18.899 43.344 18.7595C43.5301 18.6199 43.7316 18.4804 43.9332 18.3409C44.0572 18.2633 44.0727 18.1238 43.9952 18.0308C43.9177 17.9378 43.7472 17.9223 43.6231 17.9843C43.22 18.2323 42.8324 18.5114 42.4448 18.8215C42.5534 18.961 42.6774 19.085 42.7859 19.2091ZM40.941 18.0153C41.3906 18.2323 41.8712 18.4029 42.3363 18.5579L42.5068 18.0773C42.0572 17.9067 41.6076 17.7207 41.158 17.4881C41.0185 17.4261 40.8634 17.4881 40.8169 17.6277C40.7549 17.7672 40.8169 17.9533 40.941 18.0153ZM43.1115 13.4571C42.7859 13.1006 42.4758 12.713 42.1658 12.3099C42.0727 12.1858 41.9022 12.1703 41.7937 12.2788C41.6851 12.3874 41.6541 12.5734 41.7472 12.682C41.9022 12.8835 42.0572 13.0695 42.2278 13.2556C42.3983 13.4416 42.5689 13.6277 42.7394 13.7982C42.8479 13.6742 42.972 13.5657 43.1115 13.4571ZM42.6929 14.7905C42.3208 14.4804 41.9642 14.1393 41.6076 13.7827C41.5146 13.6742 41.344 13.6742 41.2355 13.7982C41.127 13.9223 41.1425 14.1083 41.251 14.2168C41.4371 14.3874 41.6076 14.5579 41.7937 14.7285C41.9797 14.899 42.1813 15.054 42.3673 15.1936C42.4758 15.054 42.5689 14.93 42.6929 14.7905ZM42.2743 17.3951L42.5534 17.8292C42.972 17.5657 43.3906 17.3486 43.8092 17.1471C43.9332 17.085 43.9952 16.961 43.9177 16.8525C43.8557 16.744 43.7006 16.6974 43.5611 16.7595C43.127 16.9455 42.6774 17.1471 42.2743 17.3951ZM41.189 15.8602C41.065 15.7672 40.9099 15.8137 40.8169 15.9533C40.7394 16.0928 40.7704 16.2788 40.8944 16.3564C41.3285 16.6354 41.7627 16.8835 42.1813 17.1005L42.4293 16.6509C42.0107 16.4184 41.6076 16.1548 41.189 15.8602Z" fill="#ED232F"/>
<path d="M32.2123 9.47281C33.6851 11.0852 35.6076 13.8294 35.5766 17.0697C35.5456 19.1317 34.7394 21.1317 33.1735 23.0542C33.4526 23.2247 33.7317 23.3643 34.0107 23.5038C35.6541 21.4573 36.4913 19.3178 36.5068 17.0852C36.5534 13.5503 34.5534 10.6356 32.9875 8.91467C32.7084 9.08522 32.4448 9.27126 32.2123 9.47281Z" fill="#003D6C"/>
<path d="M46.1193 9.47281C44.6465 11.0852 42.724 13.8294 42.755 17.0697C42.786 19.1317 43.5922 21.1317 45.1581 23.0542C44.879 23.2247 44.6 23.3643 44.3209 23.5038C42.6775 21.4573 41.8403 19.3178 41.8248 17.0852C41.7783 13.5503 43.7783 10.6356 45.3441 8.91467C45.6232 9.08522 45.8713 9.27126 46.1193 9.47281Z" fill="#003D6C"/>
<path d="M72.0725 39.7984C72.2741 39.0232 72.3671 38.6356 72.5686 37.8604C72.8012 37.9224 72.9252 37.9534 73.1733 38.0155C73.6539 36.155 73.902 35.2248 74.3826 33.3643C72.0725 32.7597 69.7469 32.217 67.4059 31.7364C67.0183 33.6124 66.8322 34.5581 66.4446 36.4496C66.6927 36.4961 66.8012 36.5271 67.0493 36.5736C67.0028 36.7752 66.9717 36.9457 66.9407 37.1007C66.15 36.9147 65.3593 36.7286 64.5686 36.5581C64.5997 36.4186 64.6307 36.2635 64.6617 36.093C64.9097 36.1395 65.0183 36.155 65.2663 36.217C65.6384 34.3255 65.8245 33.3953 66.1966 31.5038C63.8555 31.0387 61.5144 30.6511 59.1578 30.31H59.1423C56.3051 29.9069 53.4679 29.5969 50.6152 29.3798C50.4911 31.0697 50.4136 31.9225 50.2896 33.6124C50.1811 33.8294 50.1191 33.938 49.995 34.1705C50.0725 33.1628 50.1036 32.6666 50.1811 31.6589C49.2508 30.6666 48.7702 30.1705 47.809 29.1938C45.685 29.0697 43.5454 29.0077 41.4059 28.9767C40.5067 28.9612 40.0726 28.9612 39.1733 28.9767C36.3361 28.9922 33.5144 29.1163 30.6772 29.3023C30.6927 29.4108 30.6927 29.4728 30.6927 29.5814C30.5532 29.4728 30.4912 29.4263 30.3516 29.3178C28.3982 29.4728 26.4447 29.6589 24.4912 29.8759C23.5765 30.9147 23.1424 31.4263 22.2741 32.4806C22.2431 32.31 22.1811 31.9535 21.9486 30.2015C19.1114 30.5736 16.2741 31.0697 13.468 31.6279C13.809 33.3023 13.9641 34.124 14.3052 35.7984C14.2586 36.0465 14.2276 36.1705 14.1811 36.4031C13.9796 35.4108 13.8866 34.9302 13.685 33.938C12.5222 33.2403 11.9176 32.8837 10.7238 32.2015C7.88656 32.8217 5.08037 33.5504 2.28967 34.3566C2.83231 36.2015 3.09587 37.1317 3.623 38.9767C3.85556 38.9147 3.97959 38.8682 4.21215 38.8062C4.49122 39.7984 4.63075 40.2945 4.92533 41.2868C4.69277 41.3488 4.56874 41.3798 4.33618 41.4573C4.87882 43.3023 5.14238 44.2325 5.66951 46.0775L10.6152 48.4961C12.7858 47.8914 14.9563 47.3333 17.1579 46.8217C17.2354 46.7131 17.2664 46.6511 17.3439 46.5426C17.3594 46.6356 17.3749 46.6821 17.3904 46.7751C20.8323 46.0465 24.2586 45.4728 27.747 45.0387C27.747 44.9922 27.747 44.9767 27.7315 44.9302C27.778 44.9612 27.809 44.9922 27.8555 45.0232C29.3594 44.8372 30.8788 44.6976 32.3982 44.5891C32.4912 44.4806 32.5377 44.4341 32.6307 44.3255C32.6307 44.4186 32.6462 44.4651 32.6462 44.5736C34.8478 44.4341 37.0338 44.3565 39.2354 44.3255C39.933 44.3255 40.2741 44.3255 40.9718 44.3255C42.6307 44.3565 44.2741 44.4031 45.933 44.4961C46.026 44.4031 46.0881 44.3565 46.1811 44.279C46.1811 44.372 46.1656 44.4186 46.1656 44.5116C49.0338 44.7131 51.871 44.9922 54.7237 45.3643C55.4679 45.4728 55.84 45.5193 56.5842 45.6434C58.1035 45.8914 59.6384 46.155 61.1423 46.4806C61.871 46.6356 62.2431 46.7131 62.9718 46.8682C65.0958 47.3643 67.2043 47.9069 69.3128 48.4961L74.5376 46.0775C75.0338 44.3565 75.5299 42.6356 76.0415 40.9147C74.4601 40.4341 73.6694 40.217 72.0725 39.7984ZM59.0183 35.4883C58.9097 35.4728 58.8012 35.4573 58.7082 35.4418C58.6772 35.3333 58.6462 35.2248 58.6152 35.0852C58.8012 35.1162 58.8942 35.1317 59.0803 35.1473C59.0493 35.2713 59.0338 35.3798 59.0183 35.4883Z" fill="#003D6C"/>
<path d="M13.1268 38.3566C13.3593 39.4419 13.4834 40 13.7159 41.0853C13.2198 41.814 12.9872 42.1706 12.5066 42.9147C10.5376 43.3799 8.58413 43.876 6.61514 44.4031C6.38259 43.5814 6.27406 43.1628 6.0415 42.3256C6.27406 42.2636 6.38259 42.2326 6.61514 42.1706C6.15003 40.4961 5.70042 38.8062 5.2353 37.1318C4.98724 37.1938 4.87871 37.2248 4.63065 37.3023C4.39809 36.4806 4.28956 36.062 4.05701 35.2248C6.15003 34.6357 8.27406 34.1085 10.3981 33.6279C11.1888 34.0775 11.5764 34.3101 12.3671 34.7597C12.5686 35.7054 12.6772 36.1861 12.8787 37.1318C12.6616 37.4264 12.5686 37.5814 12.3516 37.8915C12.6616 38.0775 12.8167 38.1706 13.1268 38.3566ZM9.77793 36.2791C9.62289 36.1861 9.54537 36.1396 9.37483 36.062C8.81669 36.2016 8.55312 36.2636 7.99499 36.4031C8.13452 36.9303 8.19654 37.2093 8.33607 37.7365C8.87871 37.5969 9.15778 37.5349 9.70041 37.3954C9.80894 37.2403 9.85545 37.1628 9.94847 37.0233C9.88646 36.7287 9.85545 36.5737 9.77793 36.2791ZM10.5841 39.7054C10.4291 39.6124 10.3516 39.5814 10.1965 39.4884C9.6539 39.6124 9.39033 39.6899 8.8477 39.814C9.01824 40.4806 9.09576 40.8062 9.2663 41.4729C9.79343 41.3333 10.057 41.2713 10.5841 41.1473C10.6772 41.0078 10.7237 40.9302 10.8322 40.7907C10.7392 40.3566 10.6927 40.1396 10.5841 39.7054Z" fill="white"/>
<path d="M20.6774 31.7053C20.8014 32.558 20.8634 32.9766 20.9875 33.8293C20.7859 33.8604 20.6774 33.8759 20.4758 33.9069C21.4681 35.5193 22.4448 37.1317 23.4061 38.7751C23.6386 38.7441 23.7627 38.7286 23.9952 38.6976C24.1037 39.5503 24.1658 39.9844 24.2743 40.8371C22.7859 41.0231 22.0417 41.1317 20.5689 41.3642C20.4293 40.5115 20.3673 40.0929 20.2278 39.2402C20.3518 39.2247 20.4138 39.2092 20.5534 39.1937C20.4758 39.0386 20.4293 38.9611 20.3518 38.7906C19.313 38.9611 18.7859 39.0386 17.7472 39.2247C17.7162 39.3952 17.7006 39.4883 17.6696 39.6743C17.7937 39.6588 17.8557 39.6433 17.9797 39.6123C18.1348 40.465 18.2123 40.8836 18.3518 41.7363C16.8789 41.9999 16.1503 42.1394 14.6774 42.4495C14.5069 41.6123 14.4138 41.1937 14.2433 40.341C14.4758 40.2945 14.5999 40.2634 14.8324 40.2169C15.2045 38.3565 15.6076 36.5115 16.0262 34.6666C15.8557 34.6976 15.7627 34.7131 15.5921 34.7441C15.4371 33.8914 15.3596 33.4728 15.189 32.6356C16.9875 32.279 18.8324 31.9689 20.6774 31.7053ZM18.0882 37.3022C18.5999 37.2092 18.8479 37.1782 19.3596 37.0852C19.003 36.527 18.8324 36.248 18.4758 35.7053C18.3208 36.3565 18.2433 36.6666 18.0882 37.3022Z" fill="white"/>
<path d="M28.8323 36.6511C27.654 36.7596 27.0649 36.8062 25.9021 36.9457C25.2044 36.4186 24.8478 36.155 24.1192 35.6279C23.9796 34.5116 23.9176 33.9534 23.7781 32.8372C24.3672 32.155 24.6618 31.7984 25.2509 31.1162C27.0804 30.9147 28.0106 30.8217 29.8556 30.6821C30.5688 31.2403 30.9254 31.5193 31.623 32.093C31.6695 32.8372 31.7005 33.2093 31.7471 33.9534C30.6308 34.031 30.0726 34.062 28.9409 34.1705C28.9099 33.7984 28.8943 33.6124 28.8633 33.2403C28.7238 33.1317 28.6618 33.0697 28.5223 32.9612C27.9176 33.0077 27.623 33.0387 27.0184 33.1007C26.8944 33.2403 26.8323 33.3023 26.7238 33.4418C26.7703 33.8139 26.7858 34.0155 26.8168 34.3876C26.9564 34.4961 27.0339 34.5426 27.1734 34.6511C28.3672 34.5271 28.9564 34.4806 30.1502 34.3876C30.8478 34.9457 31.1889 35.2248 31.8711 35.7984C31.9486 36.8992 31.9796 37.4573 32.0416 38.5581C31.4525 39.2092 31.1579 39.5348 30.5843 40.186C28.8788 40.31 28.0261 40.403 26.3052 40.5891C25.623 40.0465 25.2664 39.7829 24.5688 39.2558C24.4758 38.5271 24.4292 38.1705 24.3362 37.4418C25.4215 37.3023 25.9796 37.2403 27.0649 37.1317C27.0959 37.4883 27.1269 37.6589 27.1579 38.0155C27.2975 38.124 27.375 38.186 27.5145 38.2945C28.0881 38.2325 28.3827 38.217 28.9564 38.155C29.0649 38.031 29.1269 37.9534 29.2354 37.8294C29.2044 37.4573 29.1889 37.2868 29.1579 36.9147C29.0339 36.8217 28.9719 36.7596 28.8323 36.6511Z" fill="white"/>
<path d="M35.9642 37.7363C36.6619 37.7208 37.003 37.7053 37.7006 37.6898C37.7006 37.5347 37.7006 37.4572 37.7006 37.3177C38.5999 37.3022 39.0495 37.3022 39.9332 37.3022C39.9332 38.3099 39.9332 38.8216 39.9332 39.8293C37.5456 39.8293 35.158 39.9068 32.7704 40.0464C32.7239 39.1936 32.6929 38.7595 32.6464 37.9068C32.8789 37.8913 33.003 37.8913 33.2355 37.8758C33.1425 36.1394 33.0495 34.403 32.9565 32.651C32.7084 32.6665 32.5844 32.6665 32.3363 32.682C32.2898 31.8293 32.2588 31.3952 32.2123 30.5425C34.7859 30.4185 37.3441 30.3409 39.9177 30.3099C39.9177 31.3177 39.9177 31.8138 39.9177 32.8216C38.9875 32.8216 38.5223 32.8216 37.5921 32.8526C37.5921 32.713 37.5921 32.6355 37.5921 32.4805C36.8634 32.496 36.5068 32.496 35.7937 32.527C35.8092 33.1471 35.8247 33.4417 35.8402 34.0619C36.0107 34.0619 36.0882 34.0464 36.2588 34.0464C36.2588 33.9068 36.2588 33.8293 36.2433 33.6743C37.158 33.6433 37.6231 33.6433 38.5379 33.6278C38.5534 34.7906 38.5534 35.3642 38.5689 36.527C37.6696 36.5425 37.22 36.5425 36.3208 36.5735C36.3208 36.4185 36.3208 36.3409 36.3053 36.2014C36.1348 36.2014 36.0572 36.2014 35.9022 36.2169C35.9332 36.8061 35.9487 37.1161 35.9642 37.7363Z" fill="white"/>
<path d="M48.4447 35.7828C48.3672 36.8991 48.3362 37.4572 48.2586 38.5735C47.592 39.1471 47.2664 39.4262 46.6152 39.9998C44.5997 39.9068 42.5997 39.8603 40.5842 39.8293C40.5842 38.9766 40.5842 38.5425 40.5997 37.6743C40.8323 37.6743 40.9563 37.6743 41.1889 37.6743C41.2044 35.9378 41.2199 34.1859 41.2354 32.4495C40.9873 32.4495 40.8633 32.4495 40.6152 32.4495C40.6152 31.5968 40.6152 31.1626 40.6307 30.2944C42.8013 30.3099 44.9563 30.3565 47.1114 30.4805C47.747 31.1316 48.0571 31.4572 48.6772 32.1084C48.6152 33.0851 48.5842 33.5657 48.5222 34.527C48.2431 34.7595 48.1036 34.8836 47.809 35.1161C48.0726 35.3797 48.1966 35.5037 48.4447 35.7828ZM45.7935 32.8681C45.6695 32.744 45.6075 32.682 45.4679 32.5425C44.9098 32.527 44.6152 32.5115 44.0571 32.496C44.0416 33.0386 44.0261 33.3177 44.0106 33.8758C44.5687 33.8913 44.8478 33.9068 45.4059 33.9223C45.5455 33.7983 45.6075 33.7518 45.747 33.6278C45.778 33.3332 45.7935 33.1782 45.7935 32.8681ZM45.654 36.3874C45.53 36.2634 45.4679 36.2014 45.3439 36.0774C44.8013 36.0619 44.5222 36.0464 43.9796 36.0309C43.9641 36.713 43.9486 37.0541 43.9331 37.7363C44.4757 37.7518 44.7393 37.7673 45.2819 37.7828C45.4214 37.6743 45.4834 37.6123 45.623 37.5037C45.623 37.0541 45.623 36.8216 45.654 36.3874Z" fill="white"/>
<path d="M57.4835 31.4263C57.375 32.279 57.313 32.7131 57.2045 33.5658C57.0029 33.5348 56.8944 33.5193 56.6929 33.5038C57.22 35.3333 57.7161 37.1472 58.1967 38.9767C58.4293 39.0077 58.5533 39.0232 58.7859 39.0697C58.6618 39.9224 58.5998 40.341 58.4758 41.1937C56.9874 40.9767 56.2432 40.8682 54.7704 40.6976C54.8789 39.8449 54.9254 39.4108 55.0184 38.5581C55.1425 38.5736 55.2045 38.5736 55.344 38.5891C55.313 38.4185 55.282 38.3255 55.251 38.155C54.1967 38.0309 53.6851 37.9689 52.6308 37.8759C52.5533 38.0309 52.5068 38.124 52.4293 38.279C52.5533 38.2945 52.6153 38.2945 52.7549 38.31C52.6618 39.1627 52.6308 39.5968 52.5378 40.4495C51.0494 40.2945 50.3053 40.2325 48.8169 40.1395C48.8789 39.2868 48.9099 38.8527 48.9719 37.9999C49.2045 38.0154 49.3285 38.0309 49.5611 38.0465C50.4293 36.3565 51.313 34.6821 52.2122 33.0232C52.0417 33.0077 51.9487 32.9922 51.7626 32.9767C51.8401 32.124 51.8712 31.6899 51.9487 30.8372C53.7936 30.9767 55.6541 31.1782 57.4835 31.4263ZM53.4836 36.1085C53.9952 36.155 54.2432 36.186 54.7549 36.248C54.5688 35.6123 54.4758 35.3023 54.2742 34.6821C53.9642 35.2558 53.7936 35.5348 53.4836 36.1085Z" fill="white"/>
<path d="M63.4835 34.5271C63.1735 36.2481 62.8634 37.9535 62.5533 39.6744C63.251 39.7984 63.6076 39.8605 64.3053 40C64.3518 39.7829 64.3673 39.6589 64.4138 39.4419C65.2975 39.6124 65.7316 39.7054 66.6153 39.8915C66.3828 40.9612 66.2742 41.4884 66.0417 42.5581C63.6851 42.062 61.313 41.6279 58.9409 41.2558C59.0649 40.4031 59.1425 39.9845 59.2665 39.1318C59.4991 39.1628 59.6231 39.1938 59.8556 39.2248C60.1347 37.5039 60.3983 35.783 60.6774 34.062C60.4293 34.031 60.3053 34 60.0572 33.969C60.1812 33.1163 60.2587 32.6977 60.3828 31.845C62.0262 32.093 62.8479 32.2326 64.4758 32.5426C64.3208 33.3954 64.2432 33.814 64.0882 34.6512C63.8556 34.5892 63.7316 34.5736 63.4835 34.5271Z" fill="white"/>
<path d="M71.499 36.2325C71.0803 37.9224 70.6772 39.6123 70.2586 41.3177C70.9563 41.4883 71.2974 41.5813 71.9951 41.7518C72.0571 41.5348 72.0881 41.4263 72.1346 41.1937C73.0028 41.4263 73.4369 41.5348 74.3052 41.7829C74.0106 42.8371 73.871 43.3642 73.5765 44.403C71.2509 43.7518 68.9098 43.1782 66.5377 42.6666C66.7238 41.8294 66.8168 41.4108 66.9873 40.558C67.2199 40.6046 67.3439 40.6356 67.5765 40.6821C67.9486 38.9767 68.3362 37.2867 68.7083 35.5813C68.4602 35.5348 68.3362 35.5038 68.1036 35.4418C68.2897 34.6046 68.3827 34.186 68.5532 33.3333C70.1811 33.6898 70.9873 33.8759 72.6152 34.279C72.4137 35.1162 72.3052 35.5348 72.0881 36.372C71.871 36.3255 71.747 36.2945 71.499 36.2325Z" fill="white"/>
</svg>
