<svg width="20" height="14" viewBox="0 0 20 14" fill="none" xmlns="http://www.w3.org/2000/svg">
<path d="M20 4.36784H0V0.344843C0 0.154414 0.154414 0 0.344843 0H19.6552C19.8456 0 20 0.154414 20 0.344843L20 4.36784Z" fill="#82AFFF"/>
<path d="M19.6551 13.1034H0.344843C0.154414 13.1034 0 12.949 0 12.7586V8.7356H20V12.7586C20 12.949 19.8455 13.1034 19.6551 13.1034Z" fill="#82AFFF"/>
<path d="M20 4.3678H0V8.73537H20V4.3678Z" fill="#F5F5F5"/>
<path d="M11.7242 6.46548H10.4827C10.5058 6.4479 10.5242 6.4306 10.5407 6.41427C10.571 6.38462 10.5951 6.36107 10.6591 6.33478C10.7234 6.30782 10.757 6.30751 10.7997 6.30685C10.851 6.3065 10.9091 6.30552 11.0041 6.26642C11.0989 6.227 11.1403 6.18657 11.1768 6.15091C11.2072 6.12126 11.2313 6.09771 11.2954 6.07107C11.3592 6.04447 11.3927 6.04411 11.4351 6.0438C11.4863 6.0431 11.5443 6.04247 11.6393 6.00306L11.573 5.84408C11.5092 5.87068 11.4756 5.87103 11.4333 5.87134C11.382 5.87204 11.324 5.87267 11.2292 5.91177C11.1344 5.95118 11.093 5.99161 11.0564 6.02728C11.0261 6.05693 11.002 6.08048 10.9381 6.10677C10.8738 6.13372 10.8401 6.13404 10.7975 6.1347C10.7461 6.13505 10.688 6.13603 10.5931 6.17544C10.4983 6.2145 10.4569 6.25529 10.4203 6.29095C10.3904 6.31997 10.3658 6.34321 10.3044 6.36915L11.2802 5.39349L11.1583 5.27158L10.28 6.14982C10.2838 6.12111 10.2849 6.09556 10.2851 6.0724C10.2856 6.02962 10.286 5.99626 10.3126 5.93197C10.3392 5.86767 10.3628 5.84372 10.3924 5.81345C10.4285 5.77673 10.469 5.73501 10.5084 5.64005C10.5476 5.54509 10.5483 5.48716 10.5488 5.43599C10.5494 5.39357 10.5497 5.35986 10.5761 5.29591C10.6027 5.23193 10.6261 5.20802 10.6558 5.17771C10.6916 5.14099 10.7322 5.09955 10.7715 5.00494L10.6122 4.93896C10.5856 5.00294 10.5622 5.02685 10.5326 5.05716C10.4967 5.09388 10.4561 5.13533 10.4169 5.22994C10.3776 5.3249 10.3769 5.38283 10.3764 5.434C10.3759 5.47642 10.3756 5.51013 10.3492 5.57408C10.3226 5.63837 10.299 5.66232 10.2693 5.69259C10.2333 5.72931 10.1927 5.77103 10.1533 5.86599C10.1141 5.96095 10.1134 6.01923 10.1128 6.0704C10.1124 6.11193 10.1113 6.14548 10.0864 6.20712V4.82751H9.91396V6.06904C9.89638 6.04603 9.87912 6.02775 9.86295 6.01118C9.83318 5.98087 9.80974 5.95661 9.7831 5.89267C9.7565 5.82837 9.75599 5.7947 9.75549 5.75189C9.75498 5.70068 9.75431 5.64243 9.71494 5.54747C9.67572 5.45287 9.6351 5.41146 9.59924 5.3747C9.56959 5.34439 9.54623 5.32048 9.51959 5.2565C9.49318 5.19251 9.49283 5.15884 9.49232 5.11642C9.49181 5.06521 9.49115 5.00732 9.45189 4.91267L9.29263 4.97865C9.31904 5.04263 9.31939 5.07599 9.3199 5.11837C9.32041 5.16958 9.32107 5.22747 9.36033 5.32244C9.39955 5.41704 9.44017 5.45845 9.47603 5.49521C9.50568 5.52552 9.52904 5.54943 9.55568 5.61341C9.58228 5.67771 9.58279 5.71138 9.5833 5.75419C9.58381 5.8054 9.58447 5.86365 9.62384 5.95861C9.66306 6.05357 9.70369 6.09497 9.73955 6.13169C9.76877 6.16138 9.79189 6.18618 9.81783 6.24739L8.84197 5.27165L8.72006 5.39357L9.69439 6.36779C9.64095 6.34353 9.61517 6.32122 9.58717 6.29404C9.55033 6.25802 9.50873 6.21728 9.41342 6.17786C9.31845 6.1388 9.26037 6.13779 9.209 6.13712C9.16623 6.13677 9.1326 6.13615 9.06775 6.10919C9.00291 6.08259 8.97869 6.05904 8.94787 6.02907C8.91103 5.99337 8.86924 5.95267 8.77377 5.9129C8.67846 5.87349 8.62018 5.87283 8.56869 5.87216C8.52576 5.87146 8.49193 5.87083 8.42709 5.84388L8.36111 6.00349C8.45643 6.0429 8.51471 6.04357 8.56619 6.04423C8.60912 6.04493 8.64295 6.04556 8.70779 6.07251C8.77279 6.09911 8.79701 6.12267 8.82783 6.15263C8.86467 6.18865 8.90646 6.22904 9.00174 6.26849C9.09705 6.30822 9.15533 6.30892 9.20666 6.30958C9.24943 6.31029 9.28306 6.31056 9.3476 6.33751C9.41209 6.36411 9.43619 6.38767 9.46666 6.41736C9.48232 6.43271 9.49982 6.44896 9.52099 6.46552H8.27588V6.63794H9.65299C9.59857 6.65864 9.56455 6.66126 9.52552 6.66185C9.4742 6.6622 9.41607 6.66317 9.32095 6.70228C9.22584 6.74169 9.18404 6.78239 9.14721 6.81814C9.11654 6.8481 9.09248 6.87165 9.02799 6.89825C8.96314 6.92521 8.92932 6.92587 8.88639 6.92653C8.83486 6.92724 8.77662 6.92786 8.68131 6.96728C8.58584 7.007 8.54408 7.04739 8.50721 7.08345C8.47639 7.11341 8.45217 7.13696 8.38732 7.16357L8.4533 7.32317C8.54861 7.28345 8.59037 7.24306 8.62721 7.207C8.65803 7.17704 8.68225 7.15349 8.74725 7.12689C8.81209 7.09993 8.84592 7.09927 8.88885 7.0986C8.94037 7.0979 8.99861 7.09728 9.09412 7.05751C9.18908 7.0181 9.23068 6.97767 9.26752 6.94165C9.29799 6.912 9.32224 6.88845 9.38693 6.86181C9.45123 6.83485 9.4851 6.83454 9.52771 6.83388C9.54951 6.83376 9.57408 6.83232 9.60068 6.82903L8.71986 7.70974L8.84178 7.83165L9.81564 6.85794C9.79166 6.91114 9.76951 6.93681 9.74224 6.96489C9.70638 7.00161 9.66584 7.04333 9.62638 7.13829C9.58693 7.23325 9.58611 7.29189 9.58564 7.34302C9.58494 7.38579 9.58467 7.41942 9.55783 7.48411C9.53107 7.54911 9.50732 7.57333 9.47752 7.60399C9.4415 7.64071 9.40092 7.68278 9.36135 7.7781C9.32178 7.87341 9.32107 7.93169 9.32045 7.98317C9.31974 8.02595 9.31928 8.05993 9.29252 8.12458L9.45177 8.19055C9.49135 8.09524 9.49205 8.03696 9.49267 7.98548C9.49338 7.9427 9.49385 7.90872 9.5206 7.84407C9.54736 7.77907 9.57111 7.75485 9.60092 7.72419C9.63693 7.68747 9.67752 7.6454 9.71709 7.55009C9.7565 7.45513 9.75736 7.39649 9.75783 7.34536C9.75853 7.30259 9.75881 7.26896 9.78564 7.20427C9.81224 7.13962 9.8358 7.11567 9.8656 7.08505C9.88092 7.06935 9.8972 7.05181 9.91377 7.03056V8.27579H10.0862V6.89876C10.1067 6.95306 10.1094 6.987 10.1099 7.02614C10.1104 7.07735 10.1113 7.1356 10.1507 7.23056C10.1899 7.32587 10.2306 7.36763 10.2665 7.40431C10.2963 7.43497 10.3199 7.45919 10.3467 7.52384C10.3734 7.58849 10.3739 7.62251 10.3746 7.66524C10.3753 7.71677 10.3759 7.77501 10.4155 7.87032C10.4551 7.96563 10.4956 8.00774 10.5317 8.04442C10.5614 8.07509 10.5852 8.09931 10.612 8.1643L10.7712 8.09833C10.7317 8.00302 10.6911 7.96091 10.6551 7.92423C10.6253 7.89356 10.6015 7.86934 10.5747 7.80434C10.548 7.7397 10.5475 7.70567 10.5468 7.66294C10.5461 7.61142 10.5455 7.55317 10.5059 7.45786C10.4665 7.36255 10.426 7.32079 10.3901 7.28411C10.3603 7.25345 10.3367 7.22923 10.3099 7.16458C10.2832 7.10028 10.2828 7.06661 10.2821 7.0238C10.2819 7.00204 10.2805 6.97743 10.2772 6.95083L11.1581 7.83169L11.2801 7.70978L10.4019 6.83173C10.4304 6.83552 10.4559 6.83665 10.4789 6.83696C10.5215 6.83731 10.5551 6.83767 10.6194 6.86423C10.6836 6.89118 10.7077 6.91439 10.7382 6.94435C10.7749 6.98005 10.8165 7.02075 10.9115 7.06021C11.0063 7.09927 11.0644 7.09993 11.1156 7.10028C11.158 7.10099 11.1915 7.10126 11.2555 7.1279C11.3195 7.15415 11.3434 7.17774 11.3737 7.20739C11.4104 7.2431 11.4518 7.2838 11.5466 7.32325L11.6126 7.16364C11.5486 7.13739 11.5247 7.1138 11.4944 7.08415C11.4577 7.04845 11.4162 7.00774 11.3215 6.96829C11.2267 6.92923 11.1686 6.92857 11.1174 6.92821C11.075 6.92751 11.0415 6.92724 10.9775 6.9006C10.9132 6.874 10.8891 6.85075 10.8586 6.82075C10.8219 6.78505 10.7803 6.74435 10.6853 6.70525C10.5904 6.66552 10.5323 6.66482 10.4809 6.6645C10.4391 6.6638 10.4052 6.66302 10.3433 6.6379H11.7241V6.46548H11.7242Z" fill="#F09146"/>
<path d="M10 7.41391C10.4762 7.41391 10.8622 7.02793 10.8622 6.55181C10.8622 6.07568 10.4762 5.6897 10 5.6897C9.52392 5.6897 9.13794 6.07568 9.13794 6.55181C9.13794 7.02793 9.52392 7.41391 10 7.41391Z" fill="#FFE15A"/>
</svg>
