<svg width="20" height="15" viewBox="0 0 20 15" fill="none" xmlns="http://www.w3.org/2000/svg">
<path d="M20 0H0V14.2857H20V0Z" fill="#E92B2B"/>
<path d="M0 14.2857H7.14286V0H0V14.2857Z" fill="#32AB45"/>
<path fill-rule="evenodd" clip-rule="evenodd" d="M7.14279 5.00005C5.95931 5.00005 4.99993 5.95943 4.99993 7.14291C4.99993 8.32639 5.95931 9.28577 7.14279 9.28577C8.32627 9.28577 9.28564 8.32639 9.28564 7.14291C9.28564 5.95943 8.32627 5.00005 7.14279 5.00005ZM4.28564 7.14291C4.28564 5.56496 5.56484 4.28577 7.14279 4.28577C8.72073 4.28577 9.99993 5.56496 9.99993 7.14291C9.99993 8.72086 8.72073 10.0001 7.14279 10.0001C5.56484 10.0001 4.28564 8.72086 4.28564 7.14291Z" fill="#FFE70E"/>
<path fill-rule="evenodd" clip-rule="evenodd" d="M8.67616 9.18109L5.10474 5.60966L5.60978 5.10461L9.18121 8.67604L8.67616 9.18109Z" fill="#FFE70E"/>
<path fill-rule="evenodd" clip-rule="evenodd" d="M6.78564 9.66819V4.61743H7.49993V9.66819H6.78564Z" fill="#FFE70E"/>
<path fill-rule="evenodd" clip-rule="evenodd" d="M4.64233 6.81116H9.69309V7.52544H4.64233V6.81116Z" fill="#FFE70E"/>
<path fill-rule="evenodd" clip-rule="evenodd" d="M5.60954 9.18109L9.18097 5.60966L8.67592 5.10461L5.10449 8.67604L5.60954 9.18109Z" fill="#FFE70E"/>
<path d="M8.21436 5.71423H6.0715C5.87427 5.71423 5.71436 5.87414 5.71436 6.07138V7.49995C5.71436 8.28892 6.35395 8.92852 7.14293 8.92852C7.9319 8.92852 8.5715 8.28892 8.5715 7.49995V6.07138C8.5715 5.87414 8.41159 5.71423 8.21436 5.71423Z" fill="#E92B2B"/>
<path d="M7.85704 6.42859H6.42847V7.50002C6.42847 7.89453 6.74824 8.2143 7.14275 8.2143C7.53726 8.2143 7.85704 7.89453 7.85704 7.50002V6.42859Z" fill="#FBFBFB"/>
</svg>
