<svg width="20" height="14" viewBox="0 0 20 14" fill="none" xmlns="http://www.w3.org/2000/svg">
<path d="M20 0H0V13.333H20V0Z" fill="#F0F0F0"/>
<path d="M20 0H0V4.44434H20V0Z" fill="#D80027"/>
<path d="M20 8.88867H0V13.333H20V8.88867Z" fill="#0052B4"/>
<path d="M11.739 4.63754H10.5796L10.7729 3.18825L11.5458 2.60852L12.3187 3.18825V4.34766L11.739 4.63754Z" fill="#338AF3"/>
<path d="M8.26084 4.63754H9.42029L9.22701 3.18825L8.45408 2.60852L7.68115 3.18825V4.34766L8.26084 4.63754Z" fill="#338AF3"/>
<path d="M10.773 4.63754H9.22705V3.18825L10 2.60852L10.773 3.18825V4.63754Z" fill="#0052B4"/>
<path d="M7.68115 4.34766V7.53605C7.68115 8.29527 8.04791 8.97039 8.6135 9.39367L9.01928 9.29211L9.53135 9.80727C9.68275 9.83844 9.83943 9.85488 9.99994 9.85488C10.1596 9.85488 10.3154 9.83867 10.4661 9.80781L11.0506 9.32113L11.3864 9.39277C11.9518 8.96957 12.3187 8.29508 12.3187 7.53609V4.3477L7.68115 4.34766Z" fill="#F0F0F0"/>
<path d="M8.60894 4.34778H7.6814V5.27532H8.60894V4.34778Z" fill="#D80027"/>
<path d="M10.4637 4.34778H9.53613V5.27532H10.4637V4.34778Z" fill="#D80027"/>
<path d="M12.3189 4.34778H11.3914V5.27532H12.3189V4.34778Z" fill="#D80027"/>
<path d="M9.53618 5.27527H8.60864V6.20281H9.53618V5.27527Z" fill="#D80027"/>
<path d="M11.3914 5.27527H10.4639V6.20281H11.3914V5.27527Z" fill="#D80027"/>
<path d="M8.60894 6.20264H7.6814V7.13018H8.60894V6.20264Z" fill="#D80027"/>
<path d="M9.53618 7.13H8.60864V8.05754H9.53618V7.13Z" fill="#D80027"/>
<path d="M10.4637 6.20264H9.53613V7.13018H10.4637V6.20264Z" fill="#D80027"/>
<path d="M12.3189 6.20264H11.3914V7.13018H12.3189V6.20264Z" fill="#D80027"/>
<path d="M11.3914 7.13H10.4639V8.05754H11.3914V7.13Z" fill="#D80027"/>
<path d="M10.4637 8.05786H9.53613V8.9854H10.4637V8.05786Z" fill="#D80027"/>
<path d="M8.60862 8.05762H7.74097C7.82058 8.40238 7.97698 8.71793 8.19159 8.98516H8.60862V8.05762Z" fill="#D80027"/>
<path d="M11.3914 8.98516H11.8084C12.023 8.71789 12.1794 8.40238 12.2591 8.05762H11.3914V8.98516Z" fill="#D80027"/>
<path d="M8.60864 8.98511V9.38983C8.87841 9.5928 9.19364 9.73839 9.53618 9.80819V8.98511H8.60864Z" fill="#D80027"/>
<path d="M10.4639 8.98511V9.80819C10.8064 9.73843 11.1216 9.5928 11.3914 9.38983V8.98511H10.4639Z" fill="#D80027"/>
</svg>
