<svg version="1.2" xmlns="http://www.w3.org/2000/svg" viewBox="0 0 40 40" width="40" height="40">
	<title>blog_details</title>
	<style>
		.s0 { fill: #e41b23 } 
	</style>
	<g id="blog_details">
		<g id="filter">
			<path id="-e-grid-shape" fill-rule="evenodd" class="s0" d="m11.4 34.3c0 3.1-2.5 5.7-5.7 5.7-3.1 0-5.7-2.6-5.7-5.7 0-3.2 2.6-5.7 5.7-5.7 3.2 0 5.7 2.5 5.7 5.7zm-1.4 0c0-2.4-1.9-4.3-4.3-4.3-2.3 0-4.3 1.9-4.3 4.3 0 2.3 2 4.3 4.3 4.3 2.4 0 4.3-2 4.3-4.3zm15.7 0c0 3.1-2.5 5.7-5.7 5.7-3.2 0-5.7-2.6-5.7-5.7 0-3.2 2.5-5.7 5.7-5.7 3.2 0 5.7 2.5 5.7 5.7zm-1.4 0c0-2.4-1.9-4.3-4.3-4.3-2.4 0-4.3 1.9-4.3 4.3 0 2.3 1.9 4.3 4.3 4.3 2.4 0 4.3-2 4.3-4.3zm15.7 0c0 3.1-2.6 5.7-5.7 5.7-3.2 0-5.7-2.6-5.7-5.7 0-3.2 2.5-5.7 5.7-5.7 3.1 0 5.7 2.5 5.7 5.7zm-1.4 0c0-2.4-2-4.3-4.3-4.3-2.4 0-4.3 1.9-4.3 4.3 0 2.3 1.9 4.3 4.3 4.3 2.3 0 4.3-2 4.3-4.3zm-27.2-14.3c0 3.1-2.5 5.7-5.7 5.7-3.1 0-5.7-2.6-5.7-5.7 0-3.2 2.6-5.7 5.7-5.7 3.2 0 5.7 2.5 5.7 5.7zm-1.4 0c0-2.4-1.9-4.3-4.3-4.3-2.3 0-4.3 1.9-4.3 4.3 0 2.4 2 4.3 4.3 4.3 2.4 0 4.3-1.9 4.3-4.3zm15.7 0c0 3.1-2.5 5.7-5.7 5.7-3.2 0-5.7-2.6-5.7-5.7 0-3.2 2.5-5.7 5.7-5.7 3.2 0 5.7 2.5 5.7 5.7zm-1.4 0c0-2.4-1.9-4.3-4.3-4.3-2.4 0-4.3 1.9-4.3 4.3 0 2.4 1.9 4.3 4.3 4.3 2.4 0 4.3-1.9 4.3-4.3zm15.7 0c0 3.1-2.6 5.7-5.7 5.7-3.2 0-5.7-2.6-5.7-5.7 0-3.2 2.5-5.7 5.7-5.7 3.1 0 5.7 2.5 5.7 5.7zm-1.4 0c0-2.4-2-4.3-4.3-4.3-2.4 0-4.3 1.9-4.3 4.3 0 2.4 1.9 4.3 4.3 4.3 2.3 0 4.3-1.9 4.3-4.3zm-27.2-14.3c0 3.2-2.5 5.7-5.7 5.7-3.1 0-5.7-2.5-5.7-5.7 0-3.1 2.6-5.7 5.7-5.7 3.2 0 5.7 2.6 5.7 5.7zm-1.4 0c0-2.4-1.9-4.3-4.3-4.3-2.3 0-4.3 1.9-4.3 4.3 0 2.4 2 4.3 4.3 4.3 2.4 0 4.3-1.9 4.3-4.3zm15.7 0c0 3.2-2.5 5.7-5.7 5.7-3.2 0-5.7-2.5-5.7-5.7 0-3.1 2.5-5.7 5.7-5.7 3.2 0 5.7 2.6 5.7 5.7zm-1.4 0c0-2.4-1.9-4.3-4.3-4.3-2.4 0-4.3 1.9-4.3 4.3 0 2.4 1.9 4.3 4.3 4.3 2.4 0 4.3-1.9 4.3-4.3zm4.3 0c0-3.1 2.5-5.7 5.7-5.7 3.1 0 5.7 2.6 5.7 5.7 0 3.2-2.6 5.7-5.7 5.7-3.2 0-5.7-2.5-5.7-5.7zm1.4 0c0 2.4 1.9 4.3 4.3 4.3 2.3 0 4.3-1.9 4.3-4.3 0-2.4-2-4.3-4.3-4.3-2.4 0-4.3 1.9-4.3 4.3z"/>
		</g>
	</g>
</svg>