<svg version="1.2" xmlns="http://www.w3.org/2000/svg" viewBox="0 0 22 16" width="22" height="16">
	<title>shop</title>
	<style>
		.s0 { fill: #e31b23 } 
	</style>
	<g id="shop">
		<g id="filter">
			<path id="-e-grid" class="s0" d="m9.8 1.9c0 1.1-0.8 1.9-1.9 1.9-1 0-1.8-0.8-1.8-1.9 0-1 0.8-1.9 1.8-1.9 1.1 0 1.9 0.9 1.9 1.9zm6 0c0 1.1-0.8 1.9-1.8 1.9-1.1 0-1.9-0.8-1.9-1.9 0-1 0.8-1.9 1.9-1.9 1 0 1.8 0.9 1.8 1.9zm2.5 0c0-1 0.8-1.9 1.8-1.9 1.1 0 1.9 0.9 1.9 1.9 0 1.1-0.8 1.9-1.9 1.9-1 0-1.8-0.8-1.8-1.9zm-12.3 6.1c0-1 0.8-1.9 1.9-1.9 1 0 1.8 0.9 1.8 1.9 0 1.1-0.8 1.9-1.8 1.9-1.1 0-1.9-0.8-1.9-1.9zm6.1 0c0-1 0.8-1.9 1.8-1.9 1.1 0 1.9 0.9 1.9 1.9 0 1.1-0.8 1.9-1.9 1.9-1 0-1.8-0.8-1.8-1.9zm6.1 0c0-1 0.8-1.9 1.9-1.9 1 0 1.9 0.9 1.9 1.9 0 1.1-0.9 1.9-1.9 1.9-1.1 0-1.9-0.8-1.9-1.9zm-8.4 6.1c0 1-0.9 1.9-1.9 1.9-1 0-1.9-0.9-1.9-1.9 0-1.1 0.9-1.9 1.9-1.9 1 0 1.9 0.8 1.9 1.9zm6 0c0 1-0.8 1.9-1.8 1.9-1.1 0-1.9-0.9-1.9-1.9 0-1.1 0.8-1.9 1.9-1.9 1 0 1.8 0.8 1.8 1.9zm6.2 0c0 1-0.8 1.9-1.9 1.9-1 0-1.8-0.9-1.8-1.9 0-1.1 0.8-1.9 1.8-1.9 1.1 0 1.9 0.8 1.9 1.9zm-18.2-12.2c0 1.1-0.8 1.9-1.9 1.9-1 0-1.8-0.8-1.8-1.9 0-1 0.8-1.9 1.8-1.9 1.1 0 1.9 0.9 1.9 1.9zm-3.8 6.1c0-1 0.8-1.9 1.9-1.9 1 0 1.8 0.9 1.8 1.9 0 1.1-0.8 1.9-1.8 1.9-1.1 0-1.9-0.8-1.9-1.9zm3.8 6.1c0 1-0.9 1.9-1.9 1.9-1 0-1.9-0.9-1.9-1.9 0-1.1 0.9-1.9 1.9-1.9 1 0 1.9 0.8 1.9 1.9z"/>
		</g>
	</g>
</svg>