<svg version="1.2" xmlns="http://www.w3.org/2000/svg" viewBox="0 0 77 80" width="77" height="80">
	<title>news</title>
	<style>
		.s0 { fill: #e41b23 } 
	</style>
	<g id="news">
		<g id="6">
			<path id="-e-quote" class="s0" d="m33.1 0.5c0.3 0.3 0.5 0.8 0.5 1.2v11.4c0 0.9-0.7 1.7-1.6 1.8-3.3 0.2-6.1 1.5-8.4 3.9-8.6 8.8-8.8 28.7-8.8 30.9h13.6c1 0 1.7 0.8 1.7 1.8v26.7c0 1-0.7 1.8-1.7 1.8h-26.7c-0.9 0-1.7-0.8-1.7-1.8v-27.1c-0.1-2.9-0.3-28.9 13-42.7 5-5.2 11.5-8.1 18.8-8.4 0.5 0 1 0.2 1.3 0.5zm43.9 1.2v11.4c0 0.9-0.7 1.7-1.6 1.8-3.3 0.2-6.1 1.5-8.4 3.9-8.6 8.8-8.9 28.7-8.9 30.9h13.7c0.9 0 1.7 0.8 1.7 1.8v26.7c0 1-0.8 1.8-1.7 1.8h-26.7c-1 0-1.7-0.8-1.7-1.8v-27.1c-0.1-2.9-0.4-28.9 13-42.7 5-5.2 11.5-8.1 18.8-8.4 0.5 0 0.9 0.2 1.3 0.5 0.3 0.3 0.5 0.8 0.5 1.2z"/>
		</g>
	</g>
</svg>