<svg width="17" height="14" viewBox="0 0 17 14" fill="none" xmlns="http://www.w3.org/2000/svg">
<path d="M9.40625 0.09375C9.75 0.25 10 0.625 10 1V13C10 13.4062 9.75 13.75 9.40625 13.9375C9.25 14 9.125 14 9 14C8.75 14 8.5 13.9375 8.3125 13.6875L4.09375 9.9375H1.5C0.65625 9.9375 0 9.28125 0 8.46875V5.5C0 4.6875 0.65625 4 1.5 4H4.09375L8.3125 0.28125C8.5 0.09375 8.75 0 9 0C9.125 0 9.25 0.03125 9.40625 0.09375ZM8.5 11.9062V2.125L4.6875 5.53125H1.5V8.5H4.6875L8.5 11.9062ZM12.875 4.6875C13.5938 5.28125 14 6.125 14 7C14 7.90625 13.5938 8.75 12.875 9.34375C12.75 9.4375 12.5625 9.5 12.4062 9.5C12.1875 9.5 11.9688 9.40625 11.8125 9.21875C11.5625 8.90625 11.5938 8.4375 11.9375 8.15625C12.2812 7.875 12.5 7.46875 12.5 7C12.5 6.5625 12.2812 6.15625 11.9375 5.875C11.5938 5.59375 11.5625 5.125 11.8125 4.8125C11.9688 4.625 12.1875 4.53125 12.4062 4.53125C12.5625 4.53125 12.75 4.59375 12.875 4.6875ZM14.7812 2.375C16.1875 3.53125 17 5.21875 17 7C17 8.8125 16.1875 10.5 14.7812 11.6562C14.625 11.75 14.4688 11.8125 14.2812 11.8125C14.0625 11.8125 13.875 11.7188 13.7188 11.5312C13.4375 11.2188 13.5 10.75 13.8125 10.4688C14.875 9.625 15.5 8.34375 15.5 7C15.5 5.6875 14.875 4.40625 13.8125 3.5625C13.5 3.28125 13.4375 2.8125 13.7188 2.5C13.875 2.3125 14.0625 2.21875 14.2812 2.21875C14.4688 2.21875 14.625 2.28125 14.7812 2.375Z" fill="#111111"/>
</svg>
